G04 #@! TF.FileFunction,Copper,L2,Bot,Signal*
%FSLAX46Y46*%
G04 Gerber Fmt 4.6, Leading zero omitted, Abs format (unit mm)*
G04 Created by KiCad (PCBNEW 4.0.4-stable) date 05/15/17 11:58:30*
%MOMM*%
%LPD*%
G01*
G04 APERTURE LIST*
%ADD10C,0.100000*%
%ADD11C,1.500000*%
%ADD12C,1.700000*%
%ADD13C,5.700000*%
%ADD14C,0.600000*%
%ADD15C,0.250000*%
%ADD16C,0.170000*%
%ADD17C,0.254000*%
G04 APERTURE END LIST*
D10*
D11*
X118738000Y-46060000D03*
X133738000Y-46060000D03*
X133738000Y-99060000D03*
X118738000Y-99060000D03*
X32886000Y-46060000D03*
X47886000Y-46060000D03*
X47886000Y-99060000D03*
X32886000Y-99060000D03*
D10*
G36*
X61150000Y-145902082D02*
X59947918Y-144700000D01*
X61150000Y-143497918D01*
X62352082Y-144700000D01*
X61150000Y-145902082D01*
X61150000Y-145902082D01*
G37*
D12*
X62946051Y-146496051D02*
X62946051Y-146496051D01*
X64742102Y-148292102D02*
X64742102Y-148292102D01*
X66538154Y-150088154D02*
X66538154Y-150088154D01*
X68334205Y-151884205D02*
X68334205Y-151884205D01*
X70130256Y-153680256D02*
X70130256Y-153680256D01*
D13*
X83150000Y-29900000D03*
D14*
X52550000Y-114100000D03*
X68550000Y-118700000D03*
X73150000Y-132700000D03*
X59950000Y-135900000D03*
X121550000Y-126300000D03*
X84750000Y-116700000D03*
X77266800Y-106883200D03*
X119150000Y-111500000D03*
X109950000Y-132300000D03*
X93350000Y-140700000D03*
X104950000Y-132300000D03*
X93350000Y-138700000D03*
X89350000Y-107100000D03*
X98150000Y-112100000D03*
X66550000Y-132700000D03*
X66550000Y-136500000D03*
X70548500Y-43878500D03*
X68770500Y-43878500D03*
X94424500Y-41338500D03*
X94424500Y-45783500D03*
X94424500Y-50228500D03*
X94424500Y-54673500D03*
X94424500Y-59118500D03*
X94424500Y-63563500D03*
X94424500Y-68008500D03*
X94424500Y-36893500D03*
X97599500Y-41338500D03*
X97599500Y-45783500D03*
X97599500Y-50228500D03*
X97599500Y-54673500D03*
X97599500Y-59118500D03*
X97599500Y-63563500D03*
X97599500Y-68008500D03*
X97599500Y-36893500D03*
X68008500Y-48450500D03*
X70548500Y-48450500D03*
X91249500Y-41338500D03*
X91249500Y-45783500D03*
X91249500Y-50228500D03*
X91249500Y-54673500D03*
X91249500Y-59118500D03*
X91249500Y-63563500D03*
X91249500Y-68008500D03*
X91249500Y-36893500D03*
X70548500Y-52768500D03*
X67500500Y-52768500D03*
X88074500Y-41338500D03*
X88074500Y-45783500D03*
X88074500Y-50228500D03*
X88074500Y-54673500D03*
X88074500Y-59118500D03*
X88074500Y-63563500D03*
X88074500Y-68008500D03*
X88074500Y-36893500D03*
X70548500Y-57340500D03*
X66738500Y-57340500D03*
X84899500Y-41338500D03*
X84899500Y-45783500D03*
X84899500Y-50228500D03*
X84899500Y-54673500D03*
X84899500Y-59118500D03*
X84899500Y-63563500D03*
X84899500Y-68008500D03*
X84899500Y-36893500D03*
X70548500Y-61658500D03*
X65976500Y-61658500D03*
X81724500Y-41338500D03*
X81724500Y-45783500D03*
X81724500Y-50228500D03*
X81724500Y-54673500D03*
X81724500Y-59118500D03*
X81724500Y-63563500D03*
X81724500Y-68008500D03*
X81724500Y-36893500D03*
X70548500Y-66230500D03*
X65214500Y-66484500D03*
X78549500Y-41338500D03*
X78549500Y-45783500D03*
X78549500Y-50228500D03*
X78549500Y-54673500D03*
X78549500Y-59118500D03*
X78549500Y-63563500D03*
X78549500Y-68008500D03*
X78549500Y-36893500D03*
X70294500Y-70294500D03*
X64452500Y-70294500D03*
X75374500Y-41338500D03*
X75374500Y-45783500D03*
X75374500Y-50228500D03*
X75374500Y-54673500D03*
X75374500Y-59118500D03*
X75374500Y-63563500D03*
X75374500Y-68008500D03*
X75374500Y-36893500D03*
X63690500Y-71310500D03*
X72326500Y-70040500D03*
X72199500Y-41338500D03*
X72199500Y-45783500D03*
X72199500Y-50228500D03*
X72199500Y-54673500D03*
X72199500Y-59118500D03*
X72199500Y-63563500D03*
X72199500Y-68008500D03*
X72199500Y-36893500D03*
X94424500Y-76263500D03*
X94424500Y-80708500D03*
X94424500Y-85153500D03*
X94424500Y-89598500D03*
X94424500Y-94043500D03*
X94424500Y-98488500D03*
X94424500Y-72453500D03*
X94424500Y-103568500D03*
X97599500Y-76263500D03*
X97599500Y-80708500D03*
X97599500Y-85153500D03*
X97599500Y-89598500D03*
X97599500Y-94043500D03*
X97599500Y-98488500D03*
X97599500Y-103568500D03*
X97599500Y-72453500D03*
X91249500Y-76263500D03*
X91249500Y-80708500D03*
X91249500Y-85153500D03*
X91249500Y-89598500D03*
X91249500Y-94043500D03*
X91249500Y-98488500D03*
X91249500Y-72453500D03*
X91249500Y-103568500D03*
X88074500Y-76263500D03*
X88074500Y-80708500D03*
X88074500Y-85153500D03*
X88074500Y-89598500D03*
X88074500Y-94043500D03*
X88074500Y-98488500D03*
X88074500Y-72453500D03*
X88074500Y-103568500D03*
X84899500Y-76263500D03*
X84899500Y-80708500D03*
X84899500Y-85153500D03*
X84899500Y-89598500D03*
X84899500Y-94043500D03*
X84899500Y-98488500D03*
X84899500Y-72453500D03*
X84899500Y-103568500D03*
X81724500Y-76263500D03*
X81724500Y-80708500D03*
X81724500Y-85153500D03*
X81724500Y-89598500D03*
X81724500Y-94043500D03*
X81724500Y-98488500D03*
X81724500Y-72453500D03*
X81724500Y-103568500D03*
X78549500Y-76263500D03*
X78549500Y-80708500D03*
X78549500Y-85153500D03*
X78549500Y-89598500D03*
X78549500Y-94043500D03*
X78549500Y-98488500D03*
X78549500Y-72453500D03*
X78549500Y-103568500D03*
X75374500Y-76263500D03*
X75374500Y-80708500D03*
X75374500Y-85153500D03*
X75374500Y-89598500D03*
X75374500Y-94043500D03*
X75374500Y-98488500D03*
X75374500Y-103568500D03*
X75374500Y-72453500D03*
X72326500Y-105346500D03*
X72199500Y-76263500D03*
X72199500Y-80708500D03*
X72199500Y-85153500D03*
X72199500Y-89598500D03*
X72199500Y-94043500D03*
X72199500Y-98488500D03*
X72199500Y-103568500D03*
X72199500Y-72453500D03*
X81026000Y-109220000D03*
X79248000Y-142494000D03*
X80264000Y-140462000D03*
X82296000Y-108966000D03*
X80600000Y-107900000D03*
X85915500Y-115633500D03*
X59150000Y-121300000D03*
X71950000Y-134100000D03*
X100150000Y-121500000D03*
X93350000Y-136700000D03*
X56350000Y-114100000D03*
X73150000Y-130700000D03*
X84150000Y-128700000D03*
X83950000Y-117300000D03*
X82150000Y-128700000D03*
X82150000Y-116900000D03*
D15*
X52550000Y-114100000D02*
X52150000Y-113700000D01*
X68550000Y-118700000D02*
X68750000Y-118700000D01*
D16*
X73150000Y-132700000D02*
X73150000Y-132900000D01*
X59950000Y-135900000D02*
X60150000Y-135900000D01*
X121550000Y-126300000D02*
X121550000Y-125900000D01*
X84150000Y-114900000D02*
X84150000Y-116100000D01*
X84150000Y-116100000D02*
X84750000Y-116700000D01*
D15*
X77266800Y-106883200D02*
X76555600Y-106883200D01*
D16*
X119150000Y-111500000D02*
X119150000Y-111900000D01*
D15*
X106950000Y-132300000D02*
X109950000Y-132300000D01*
X98550000Y-140700000D02*
X106950000Y-132300000D01*
X93350000Y-140700000D02*
X98550000Y-140700000D01*
X98550000Y-138700000D02*
X104950000Y-132300000D01*
X93350000Y-138700000D02*
X98550000Y-138700000D01*
D16*
X94350000Y-112100000D02*
X98150000Y-112100000D01*
X89350000Y-107100000D02*
X94350000Y-112100000D01*
X66550000Y-132700000D02*
X66550000Y-136500000D01*
X70548500Y-43878500D02*
X68770500Y-43878500D01*
D15*
X94424500Y-41338500D02*
X94424500Y-40703500D01*
X94424500Y-45783500D02*
X94424500Y-45148500D01*
X94424500Y-50228500D02*
X94424500Y-49593500D01*
X94424500Y-54673500D02*
X94424500Y-54038500D01*
X94424500Y-59118500D02*
X94424500Y-58483500D01*
X94424500Y-63563500D02*
X94424500Y-62928500D01*
X94424500Y-36893500D02*
X94424500Y-40703500D01*
X94424500Y-40703500D02*
X94424500Y-45148500D01*
X94424500Y-45148500D02*
X94424500Y-49593500D01*
X94424500Y-49593500D02*
X94424500Y-54038500D01*
X94424500Y-54038500D02*
X94424500Y-58483500D01*
X94424500Y-58483500D02*
X94424500Y-62928500D01*
X94424500Y-62928500D02*
X94424500Y-68008500D01*
X97599500Y-41338500D02*
X97599500Y-40703500D01*
X97599500Y-45783500D02*
X97599500Y-45148500D01*
X97599500Y-50228500D02*
X97599500Y-49593500D01*
X97599500Y-54673500D02*
X97599500Y-54038500D01*
X97599500Y-59118500D02*
X97599500Y-58483500D01*
X97599500Y-63563500D02*
X97599500Y-62928500D01*
X97599500Y-36893500D02*
X97599500Y-40703500D01*
X97599500Y-40703500D02*
X97599500Y-45148500D01*
X97599500Y-45148500D02*
X97599500Y-49593500D01*
X97599500Y-49593500D02*
X97599500Y-54038500D01*
X97599500Y-54038500D02*
X97599500Y-58483500D01*
X97599500Y-58483500D02*
X97599500Y-62928500D01*
X97599500Y-62928500D02*
X97599500Y-68008500D01*
D16*
X70548500Y-48450500D02*
X68008500Y-48450500D01*
D15*
X91249500Y-41338500D02*
X91249500Y-40703500D01*
X91249500Y-45783500D02*
X91249500Y-45148500D01*
X91249500Y-50228500D02*
X91249500Y-49593500D01*
X91249500Y-54673500D02*
X91249500Y-54038500D01*
X91249500Y-59118500D02*
X91249500Y-58483500D01*
X91249500Y-63563500D02*
X91249500Y-62928500D01*
X91249500Y-67373500D02*
X91249500Y-68008500D01*
X91249500Y-36893500D02*
X91249500Y-40703500D01*
X91249500Y-40703500D02*
X91249500Y-45148500D01*
X91249500Y-45148500D02*
X91249500Y-49593500D01*
X91249500Y-49593500D02*
X91249500Y-54038500D01*
X91249500Y-54038500D02*
X91249500Y-58483500D01*
X91249500Y-58483500D02*
X91249500Y-62928500D01*
X91249500Y-62928500D02*
X91249500Y-67373500D01*
D16*
X70548500Y-52768500D02*
X67500500Y-52768500D01*
D15*
X88074500Y-41338500D02*
X88074500Y-40703500D01*
X88074500Y-45783500D02*
X88074500Y-45148500D01*
X88074500Y-50228500D02*
X88074500Y-49593500D01*
X88074500Y-54673500D02*
X88074500Y-54038500D01*
X88074500Y-59118500D02*
X88074500Y-58483500D01*
X88074500Y-63563500D02*
X88074500Y-62928500D01*
X88074500Y-36893500D02*
X88074500Y-40703500D01*
X88074500Y-40703500D02*
X88074500Y-45148500D01*
X88074500Y-45148500D02*
X88074500Y-49593500D01*
X88074500Y-49593500D02*
X88074500Y-54038500D01*
X88074500Y-54038500D02*
X88074500Y-58483500D01*
X88074500Y-58483500D02*
X88074500Y-62928500D01*
X88074500Y-62928500D02*
X88074500Y-68008500D01*
D16*
X70548500Y-57340500D02*
X66738500Y-57340500D01*
D15*
X84899500Y-41338500D02*
X84899500Y-40703500D01*
X84899500Y-45783500D02*
X84899500Y-45148500D01*
X84899500Y-50228500D02*
X84899500Y-49593500D01*
X84899500Y-54673500D02*
X84899500Y-54038500D01*
X84899500Y-59118500D02*
X84899500Y-58483500D01*
X84899500Y-63563500D02*
X84899500Y-62928500D01*
X84899500Y-36893500D02*
X84899500Y-40703500D01*
X84899500Y-40703500D02*
X84899500Y-45148500D01*
X84899500Y-45148500D02*
X84899500Y-49593500D01*
X84899500Y-49593500D02*
X84899500Y-54038500D01*
X84899500Y-54038500D02*
X84899500Y-58483500D01*
X84899500Y-58483500D02*
X84899500Y-62928500D01*
X84899500Y-62928500D02*
X84899500Y-68008500D01*
D16*
X70548500Y-61658500D02*
X65976500Y-61658500D01*
D15*
X81724500Y-41338500D02*
X81724500Y-40703500D01*
X81724500Y-45783500D02*
X81724500Y-45148500D01*
X81724500Y-50228500D02*
X81724500Y-49593500D01*
X81724500Y-54673500D02*
X81724500Y-54038500D01*
X81724500Y-59118500D02*
X81724500Y-58483500D01*
X81724500Y-63563500D02*
X81724500Y-62928500D01*
X81724500Y-36893500D02*
X81724500Y-40703500D01*
X81724500Y-40703500D02*
X81724500Y-45148500D01*
X81724500Y-45148500D02*
X81724500Y-49593500D01*
X81724500Y-49593500D02*
X81724500Y-54038500D01*
X81724500Y-54038500D02*
X81724500Y-58483500D01*
X81724500Y-58483500D02*
X81724500Y-62928500D01*
X81724500Y-62928500D02*
X81724500Y-68008500D01*
D16*
X70548500Y-66230500D02*
X70294500Y-66484500D01*
X70294500Y-66484500D02*
X65214500Y-66484500D01*
D15*
X78549500Y-41338500D02*
X78549500Y-40703500D01*
X78549500Y-45783500D02*
X78549500Y-45148500D01*
X78549500Y-50228500D02*
X78549500Y-49593500D01*
X78549500Y-54673500D02*
X78549500Y-54038500D01*
X78549500Y-59118500D02*
X78549500Y-58483500D01*
X78549500Y-63563500D02*
X78549500Y-62928500D01*
X78549500Y-36893500D02*
X78549500Y-40703500D01*
X78549500Y-40703500D02*
X78549500Y-45148500D01*
X78549500Y-45148500D02*
X78549500Y-49593500D01*
X78549500Y-49593500D02*
X78549500Y-54038500D01*
X78549500Y-54038500D02*
X78549500Y-58483500D01*
X78549500Y-58483500D02*
X78549500Y-62928500D01*
X78549500Y-62928500D02*
X78549500Y-68008500D01*
D16*
X70294500Y-70294500D02*
X64452500Y-70294500D01*
D15*
X75374500Y-41338500D02*
X75374500Y-40703500D01*
X75374500Y-45783500D02*
X75374500Y-45148500D01*
X75374500Y-50228500D02*
X75374500Y-49593500D01*
X75374500Y-54673500D02*
X75374500Y-54038500D01*
X75374500Y-59118500D02*
X75374500Y-58483500D01*
X75374500Y-63563500D02*
X75374500Y-62928500D01*
X75374500Y-62928500D02*
X75374500Y-68008500D01*
X75374500Y-36893500D02*
X75374500Y-40703500D01*
X75374500Y-40703500D02*
X75374500Y-45148500D01*
X75374500Y-45148500D02*
X75374500Y-49593500D01*
X75374500Y-49593500D02*
X75374500Y-54038500D01*
X75374500Y-54038500D02*
X75374500Y-58483500D01*
X75374500Y-58483500D02*
X75374500Y-62928500D01*
D16*
X72326500Y-70040500D02*
X71564500Y-70802500D01*
X63944500Y-71056500D02*
X63690500Y-71310500D01*
X71310500Y-71056500D02*
X63944500Y-71056500D01*
X71564500Y-70802500D02*
X71310500Y-71056500D01*
D15*
X72199500Y-69913500D02*
X72199500Y-68008500D01*
X72326500Y-70040500D02*
X72199500Y-69913500D01*
X72199500Y-41338500D02*
X72199500Y-40703500D01*
X72199500Y-45783500D02*
X72199500Y-45148500D01*
X72199500Y-50228500D02*
X72199500Y-49593500D01*
X72199500Y-54673500D02*
X72199500Y-54038500D01*
X72199500Y-59118500D02*
X72199500Y-58483500D01*
X72199500Y-63563500D02*
X72199500Y-62928500D01*
X72199500Y-36893500D02*
X72199500Y-40703500D01*
X72199500Y-40703500D02*
X72199500Y-45148500D01*
X72199500Y-45148500D02*
X72199500Y-49593500D01*
X72199500Y-49593500D02*
X72199500Y-54038500D01*
X72199500Y-54038500D02*
X72199500Y-58483500D01*
X72199500Y-58483500D02*
X72199500Y-62928500D01*
X72199500Y-62928500D02*
X72199500Y-68008500D01*
X94424500Y-76263500D02*
X94424500Y-75628500D01*
X94424500Y-80708500D02*
X94424500Y-80073500D01*
X94424500Y-85153500D02*
X94424500Y-85788500D01*
X94424500Y-89598500D02*
X94424500Y-88963500D01*
X94424500Y-94043500D02*
X94424500Y-93408500D01*
X94424500Y-98488500D02*
X94424500Y-97853500D01*
X94424500Y-72453500D02*
X94424500Y-75628500D01*
X94424500Y-75628500D02*
X94424500Y-80073500D01*
X94424500Y-80073500D02*
X94424500Y-85788500D01*
X94424500Y-85788500D02*
X94424500Y-88963500D01*
X94424500Y-88963500D02*
X94424500Y-93408500D01*
X94424500Y-93408500D02*
X94424500Y-97853500D01*
X94424500Y-97853500D02*
X94424500Y-103568500D01*
X97599500Y-76263500D02*
X97599500Y-75628500D01*
X97599500Y-80708500D02*
X97599500Y-80073500D01*
X97599500Y-85153500D02*
X97599500Y-84518500D01*
X97599500Y-94043500D02*
X97599500Y-93408500D01*
X97599500Y-98488500D02*
X97599500Y-97853500D01*
X97599500Y-72453500D02*
X97599500Y-75628500D01*
X97599500Y-75628500D02*
X97599500Y-80073500D01*
X97599500Y-80073500D02*
X97599500Y-84518500D01*
X97599500Y-84518500D02*
X97599500Y-89598500D01*
X97599500Y-89598500D02*
X97599500Y-93408500D01*
X97599500Y-93408500D02*
X97599500Y-97853500D01*
X97599500Y-97853500D02*
X97599500Y-103568500D01*
X91249500Y-76263500D02*
X91249500Y-75628500D01*
X91249500Y-80708500D02*
X91249500Y-80073500D01*
X91249500Y-85153500D02*
X91249500Y-85788500D01*
X91249500Y-89598500D02*
X91249500Y-88963500D01*
X91249500Y-94043500D02*
X91249500Y-93408500D01*
X91249500Y-98488500D02*
X91249500Y-97853500D01*
X91249500Y-72453500D02*
X91249500Y-75628500D01*
X91249500Y-75628500D02*
X91249500Y-80073500D01*
X91249500Y-80073500D02*
X91249500Y-85788500D01*
X91249500Y-85788500D02*
X91249500Y-88963500D01*
X91249500Y-88963500D02*
X91249500Y-93408500D01*
X91249500Y-93408500D02*
X91249500Y-97853500D01*
X91249500Y-97853500D02*
X91249500Y-103568500D01*
X88074500Y-76263500D02*
X88074500Y-75628500D01*
X88074500Y-80708500D02*
X88074500Y-80073500D01*
X88074500Y-85153500D02*
X88074500Y-85788500D01*
X88074500Y-89598500D02*
X88074500Y-88963500D01*
X88074500Y-94043500D02*
X88074500Y-93408500D01*
X88074500Y-98488500D02*
X88074500Y-97853500D01*
X88074500Y-85788500D02*
X88074500Y-80073500D01*
X88074500Y-80073500D02*
X88074500Y-75628500D01*
X88074500Y-75628500D02*
X88074500Y-72453500D01*
X88074500Y-103568500D02*
X88074500Y-97853500D01*
X88074500Y-97853500D02*
X88074500Y-93408500D01*
X88074500Y-93408500D02*
X88074500Y-88963500D01*
X88074500Y-88963500D02*
X88074500Y-85788500D01*
X84899500Y-76263500D02*
X84899500Y-75628500D01*
X84899500Y-80708500D02*
X84899500Y-80073500D01*
X84899500Y-85153500D02*
X84899500Y-84518500D01*
X84899500Y-89598500D02*
X84899500Y-88963500D01*
X84899500Y-98488500D02*
X84899500Y-97853500D01*
X84899500Y-72453500D02*
X84899500Y-75628500D01*
X84899500Y-75628500D02*
X84899500Y-80073500D01*
X84899500Y-80073500D02*
X84899500Y-84518500D01*
X84899500Y-84518500D02*
X84899500Y-88963500D01*
X84899500Y-88963500D02*
X84899500Y-94043500D01*
X84899500Y-94043500D02*
X84899500Y-97853500D01*
X84899500Y-97853500D02*
X84899500Y-103568500D01*
X81724500Y-76263500D02*
X81724500Y-75628500D01*
X81724500Y-80708500D02*
X81724500Y-80073500D01*
X81724500Y-85153500D02*
X81724500Y-84518500D01*
X81724500Y-89598500D02*
X81724500Y-88963500D01*
X81724500Y-94043500D02*
X81724500Y-94678500D01*
X81724500Y-98488500D02*
X81724500Y-97853500D01*
X81724500Y-72453500D02*
X81724500Y-75628500D01*
X81724500Y-75628500D02*
X81724500Y-80073500D01*
X81724500Y-80073500D02*
X81724500Y-84518500D01*
X81724500Y-84518500D02*
X81724500Y-88328500D01*
X81724500Y-88328500D02*
X81724500Y-88963500D01*
X81724500Y-88963500D02*
X81724500Y-94678500D01*
X81724500Y-94678500D02*
X81724500Y-97853500D01*
X81724500Y-97853500D02*
X81724500Y-103568500D01*
X78549500Y-76263500D02*
X78549500Y-75628500D01*
X78549500Y-80708500D02*
X78549500Y-80073500D01*
X78549500Y-85153500D02*
X78549500Y-84518500D01*
X78549500Y-89598500D02*
X78549500Y-88963500D01*
X78549500Y-98488500D02*
X78549500Y-99123500D01*
X78549500Y-72453500D02*
X78549500Y-75628500D01*
X78549500Y-75628500D02*
X78549500Y-80073500D01*
X78549500Y-80073500D02*
X78549500Y-84518500D01*
X78549500Y-84518500D02*
X78549500Y-88963500D01*
X78549500Y-88963500D02*
X78549500Y-94043500D01*
X78549500Y-94043500D02*
X78549500Y-99123500D01*
X78549500Y-99123500D02*
X78549500Y-103568500D01*
X75374500Y-76263500D02*
X75374500Y-75628500D01*
X75374500Y-80708500D02*
X75374500Y-80073500D01*
X75374500Y-85153500D02*
X75374500Y-84518500D01*
X75374500Y-89598500D02*
X75374500Y-88963500D01*
X75374500Y-94043500D02*
X75374500Y-93408500D01*
X75374500Y-98488500D02*
X75374500Y-97853500D01*
X75374500Y-97853500D02*
X75374500Y-103568500D01*
X75374500Y-72453500D02*
X75374500Y-75628500D01*
X75374500Y-75628500D02*
X75374500Y-80073500D01*
X75374500Y-80073500D02*
X75374500Y-84518500D01*
X75374500Y-84518500D02*
X75374500Y-88963500D01*
X75374500Y-88963500D02*
X75374500Y-93408500D01*
X75374500Y-93408500D02*
X75374500Y-97853500D01*
X72199500Y-103568500D02*
X72199500Y-105219500D01*
X72199500Y-105219500D02*
X72326500Y-105346500D01*
X72199500Y-80708500D02*
X72199500Y-80073500D01*
X72199500Y-85153500D02*
X72199500Y-84518500D01*
X72199500Y-89598500D02*
X72199500Y-88963500D01*
X72199500Y-94043500D02*
X72199500Y-93408500D01*
X72199500Y-98488500D02*
X72199500Y-97853500D01*
X72199500Y-102298500D02*
X72199500Y-103568500D01*
X72199500Y-97853500D02*
X72199500Y-102298500D01*
X72199500Y-72453500D02*
X72199500Y-76263500D01*
X72199500Y-76263500D02*
X72199500Y-80073500D01*
X72199500Y-80073500D02*
X72199500Y-84518500D01*
X72199500Y-84518500D02*
X72199500Y-88963500D01*
X72199500Y-88963500D02*
X72199500Y-93408500D01*
X72199500Y-93408500D02*
X72199500Y-97853500D01*
D16*
X81026000Y-110490000D02*
X81026000Y-109220000D01*
X79248000Y-112268000D02*
X81026000Y-110490000D01*
X79248000Y-142494000D02*
X79248000Y-112268000D01*
X79756000Y-139954000D02*
X80264000Y-140462000D01*
X79756000Y-112522000D02*
X79756000Y-139954000D01*
X81788000Y-110490000D02*
X79756000Y-112522000D01*
X81788000Y-109474000D02*
X81788000Y-110490000D01*
X82296000Y-108966000D02*
X81788000Y-109474000D01*
D15*
X84850000Y-108050000D02*
X85915500Y-108902500D01*
X85915500Y-108902500D02*
X85915500Y-115252500D01*
X80473000Y-108027000D02*
X84850000Y-108050000D01*
X80600000Y-107900000D02*
X80473000Y-108027000D01*
D16*
X85915500Y-115633500D02*
X85915500Y-115252500D01*
D15*
X85915500Y-115252500D02*
X85915500Y-115633500D01*
X71950000Y-134100000D02*
X59150000Y-121300000D01*
X100150000Y-135100000D02*
X100150000Y-121500000D01*
X98550000Y-136700000D02*
X100150000Y-135100000D01*
X93350000Y-136700000D02*
X98550000Y-136700000D01*
X56550000Y-114100000D02*
X56350000Y-114100000D01*
X73150000Y-130700000D02*
X56550000Y-114100000D01*
D16*
X84150000Y-117500000D02*
X84150000Y-128700000D01*
X83950000Y-117300000D02*
X84150000Y-117500000D01*
X82150000Y-116900000D02*
X82150000Y-128700000D01*
D17*
G36*
X84692426Y-26536633D02*
X85827501Y-26582396D01*
X87434377Y-26677075D01*
X88724515Y-26779281D01*
X90493685Y-26958840D01*
X91485055Y-27080081D01*
X92312140Y-27192963D01*
X93944437Y-27447993D01*
X95575125Y-27747167D01*
X96989545Y-28044326D01*
X98482564Y-28397778D01*
X99971240Y-28792855D01*
X101621752Y-29283296D01*
X102221313Y-29475734D01*
X103077577Y-29764340D01*
X104907194Y-30437431D01*
X106666551Y-31161641D01*
X107968505Y-31749803D01*
X109350389Y-32426250D01*
X111317031Y-33488998D01*
X112510614Y-34196359D01*
X114147182Y-35250608D01*
X114642773Y-35590588D01*
X115615441Y-36288140D01*
X116870472Y-37251599D01*
X117748684Y-37972262D01*
X118603025Y-38713753D01*
X119444671Y-39486892D01*
X120346714Y-40367640D01*
X121331473Y-41398770D01*
X121870601Y-41998269D01*
X122465166Y-42691969D01*
X122490207Y-42711639D01*
X122508295Y-42737842D01*
X123214713Y-43423175D01*
X123275969Y-43462776D01*
X123329133Y-43512712D01*
X124221472Y-44069369D01*
X124287898Y-44094478D01*
X124348540Y-44131432D01*
X125263256Y-44466300D01*
X125344422Y-44478948D01*
X125422712Y-44503817D01*
X126752329Y-44652314D01*
X126847410Y-44644200D01*
X126942803Y-44646919D01*
X128092567Y-44452090D01*
X128188391Y-44415561D01*
X128287184Y-44388034D01*
X129397045Y-43826928D01*
X129479895Y-43762036D01*
X129567933Y-43704362D01*
X130338926Y-42947256D01*
X130362670Y-42912410D01*
X130394863Y-42885183D01*
X130750657Y-42438325D01*
X131500101Y-41594419D01*
X132218033Y-40886531D01*
X133071502Y-40160631D01*
X134051115Y-39489221D01*
X135075008Y-39019365D01*
X136066972Y-38923769D01*
X136615627Y-39087866D01*
X137775797Y-39761754D01*
X138771766Y-40607100D01*
X139650269Y-41533123D01*
X140197603Y-42196890D01*
X140741899Y-42932310D01*
X141101571Y-43469348D01*
X141507447Y-44145620D01*
X141819247Y-44756346D01*
X142048053Y-45380193D01*
X142240256Y-46397503D01*
X142351619Y-47470834D01*
X142392495Y-48482723D01*
X142387168Y-49368916D01*
X142307284Y-50863760D01*
X142150150Y-52386692D01*
X142019327Y-53333352D01*
X141866450Y-54274109D01*
X141624297Y-55552289D01*
X141417073Y-56510671D01*
X141239964Y-57255823D01*
X140908100Y-58493151D01*
X140690947Y-59161200D01*
X140688127Y-59185004D01*
X140677884Y-59206674D01*
X140598311Y-59524669D01*
X140592213Y-59649417D01*
X140582872Y-59773975D01*
X140648522Y-60311639D01*
X140684414Y-60420731D01*
X140714153Y-60531663D01*
X140997679Y-61106410D01*
X141024556Y-61141428D01*
X141041330Y-61182261D01*
X141344623Y-61639060D01*
X142030044Y-62720827D01*
X142407847Y-63661353D01*
X142566601Y-64870054D01*
X142549103Y-65335949D01*
X142416815Y-66227180D01*
X142086096Y-67249011D01*
X141770575Y-67867180D01*
X141427360Y-68372413D01*
X141319100Y-68506411D01*
X140928019Y-68908125D01*
X140884582Y-68975059D01*
X140831040Y-69034220D01*
X140812516Y-69086109D01*
X140782523Y-69132327D01*
X140768008Y-69210785D01*
X140741180Y-69285935D01*
X140743924Y-69340966D01*
X140733901Y-69395141D01*
X140750516Y-69473184D01*
X140754489Y-69552877D01*
X140778081Y-69602665D01*
X140789554Y-69656556D01*
X140834771Y-69722302D01*
X140868938Y-69794407D01*
X140909788Y-69831378D01*
X140941010Y-69876774D01*
X141007944Y-69920211D01*
X141067105Y-69973753D01*
X141118994Y-69992277D01*
X141165212Y-70022270D01*
X141243670Y-70036785D01*
X141318820Y-70063613D01*
X141664525Y-70114637D01*
X142325578Y-70219784D01*
X143457896Y-70481364D01*
X144146697Y-70740697D01*
X144845721Y-71135723D01*
X145280161Y-71477327D01*
X145813288Y-72037377D01*
X146322169Y-72768231D01*
X146834990Y-73787079D01*
X147199745Y-74771785D01*
X147482479Y-75765889D01*
X147687448Y-76679524D01*
X147952145Y-78264825D01*
X148060002Y-79140283D01*
X148150531Y-80069084D01*
X148205444Y-80807596D01*
X148253875Y-81818975D01*
X148271557Y-83036798D01*
X148243886Y-84290904D01*
X148149168Y-85808331D01*
X148042695Y-86878600D01*
X147923566Y-87811206D01*
X147743323Y-88962509D01*
X147600925Y-89741494D01*
X147322284Y-91064080D01*
X147069590Y-92111374D01*
X146583317Y-93873182D01*
X146208384Y-95079574D01*
X145890983Y-96028474D01*
X145401054Y-97396931D01*
X144849267Y-98836244D01*
X144502639Y-99700479D01*
X143845163Y-101283710D01*
X143430386Y-102260782D01*
X143047348Y-103160297D01*
X142839433Y-103611658D01*
X141818922Y-105174285D01*
X141138850Y-105879783D01*
X140306192Y-106533441D01*
X139585450Y-106968531D01*
X138706402Y-107376664D01*
X137836597Y-107675582D01*
X137028409Y-107875139D01*
X136455442Y-107975472D01*
X135850933Y-108045345D01*
X135039577Y-108075098D01*
X134913982Y-108104903D01*
X134788060Y-108132975D01*
X134784161Y-108135712D01*
X134779526Y-108136812D01*
X134674921Y-108212394D01*
X134569303Y-108286534D01*
X134566749Y-108290554D01*
X134562886Y-108293345D01*
X134495170Y-108403202D01*
X134425962Y-108512119D01*
X134065701Y-109441764D01*
X133719671Y-110186496D01*
X133149563Y-111230573D01*
X132155395Y-112718456D01*
X131062652Y-114033561D01*
X130228086Y-114869742D01*
X129189743Y-115743503D01*
X128105781Y-116485588D01*
X127434317Y-116866559D01*
X126893401Y-117132161D01*
X126003495Y-117493708D01*
X125228697Y-117736913D01*
X125134981Y-117788172D01*
X125037468Y-117831804D01*
X125018467Y-117851901D01*
X124994208Y-117865170D01*
X124927240Y-117948392D01*
X124853848Y-118026018D01*
X124843986Y-118051852D01*
X124826648Y-118073398D01*
X124796624Y-118175920D01*
X124758527Y-118275716D01*
X124664577Y-118828599D01*
X124505621Y-119688054D01*
X124031321Y-122153719D01*
X123793669Y-123366198D01*
X123689793Y-123890749D01*
X123406949Y-124726035D01*
X123091385Y-125442037D01*
X122635624Y-126332252D01*
X122254922Y-127005025D01*
X121491626Y-128233522D01*
X121271067Y-128562201D01*
X121266373Y-128573470D01*
X121258033Y-128582381D01*
X120639879Y-129577273D01*
X120639879Y-129577274D01*
X120250780Y-130203511D01*
X120250780Y-130203512D01*
X119757828Y-130996897D01*
X119757827Y-130996898D01*
X119557876Y-131318712D01*
X119545910Y-131350542D01*
X119525222Y-131377527D01*
X119096857Y-132247138D01*
X118407013Y-133163251D01*
X118219805Y-133385456D01*
X117531851Y-134144276D01*
X116618067Y-134969974D01*
X115291266Y-136052714D01*
X114443025Y-136706978D01*
X113875833Y-137132604D01*
X112996851Y-137774164D01*
X112569521Y-138018183D01*
X112544258Y-138040126D01*
X112513696Y-138053744D01*
X111591958Y-138705556D01*
X111566026Y-138732899D01*
X111533477Y-138751888D01*
X110966991Y-139253249D01*
X110948829Y-139277142D01*
X110924309Y-139294454D01*
X110391869Y-139855015D01*
X110373829Y-139883578D01*
X110348260Y-139905661D01*
X109742036Y-140683446D01*
X109726642Y-140714075D01*
X109703041Y-140738938D01*
X109274062Y-141418608D01*
X109259637Y-141456172D01*
X109235511Y-141488377D01*
X108777487Y-142444889D01*
X108769415Y-142476470D01*
X108752413Y-142504277D01*
X108464699Y-143286543D01*
X108463446Y-143294504D01*
X108459401Y-143301477D01*
X108144976Y-144221520D01*
X108144263Y-144226854D01*
X108141635Y-144231549D01*
X107798318Y-145289198D01*
X107797898Y-145292756D01*
X107796179Y-145295903D01*
X107530249Y-146144749D01*
X107529889Y-146148092D01*
X107528305Y-146151060D01*
X107132796Y-147457527D01*
X107131764Y-147468065D01*
X107127065Y-147477552D01*
X106946665Y-148146117D01*
X106683228Y-148874075D01*
X106433150Y-149457797D01*
X106063317Y-150222776D01*
X105693980Y-150912000D01*
X105340262Y-151515497D01*
X104888665Y-152142208D01*
X104465965Y-152547505D01*
X103921690Y-152948623D01*
X102502810Y-153692001D01*
X100776408Y-154297362D01*
X99136159Y-154698719D01*
X98001006Y-154904021D01*
X96757665Y-155064333D01*
X95358977Y-155239171D01*
X93447326Y-155417148D01*
X92583000Y-155474490D01*
X92583000Y-149098000D01*
X92574315Y-149051841D01*
X92547035Y-149009447D01*
X92505410Y-148981006D01*
X92456000Y-148971000D01*
X73914000Y-148971000D01*
X73867841Y-148979685D01*
X73825447Y-149006965D01*
X73797006Y-149048590D01*
X73787000Y-149098000D01*
X73787000Y-155409036D01*
X73217808Y-155362144D01*
X71198458Y-155154274D01*
X70615005Y-155085314D01*
X70677969Y-155072789D01*
X71159738Y-154750882D01*
X71200881Y-154709738D01*
X71522789Y-154227969D01*
X71635828Y-153659684D01*
X71522789Y-153091400D01*
X71200881Y-152609631D01*
X70719112Y-152287723D01*
X70150828Y-152174684D01*
X69762542Y-152251919D01*
X69839777Y-151863633D01*
X69726738Y-151295349D01*
X69404830Y-150813580D01*
X68923061Y-150491672D01*
X68354777Y-150378633D01*
X67966491Y-150455868D01*
X68043726Y-150067582D01*
X67930687Y-149499298D01*
X67608779Y-149017529D01*
X67127010Y-148695621D01*
X66558726Y-148582582D01*
X66170439Y-148659817D01*
X66247674Y-148271530D01*
X66134635Y-147703246D01*
X65812727Y-147221477D01*
X65330958Y-146899569D01*
X64762674Y-146786530D01*
X64374388Y-146863765D01*
X64451623Y-146475479D01*
X64338584Y-145907195D01*
X64016676Y-145425426D01*
X63534907Y-145103518D01*
X62966623Y-144990479D01*
X62914811Y-145000785D01*
X62987081Y-144826310D01*
X62987082Y-144573691D01*
X62890409Y-144340302D01*
X62402109Y-143852002D01*
X62177603Y-143852002D01*
X61329605Y-144700000D01*
X61343748Y-144714143D01*
X61164143Y-144893748D01*
X61150000Y-144879605D01*
X60302002Y-145727603D01*
X60302002Y-145952109D01*
X60790302Y-146440409D01*
X61023691Y-146537082D01*
X61276310Y-146537081D01*
X61450784Y-146464811D01*
X61440478Y-146516623D01*
X61553518Y-147084908D01*
X61875425Y-147566677D01*
X62357194Y-147888584D01*
X62925479Y-148001624D01*
X63313765Y-147924388D01*
X63236529Y-148312674D01*
X63349569Y-148880959D01*
X63671476Y-149362728D01*
X64153245Y-149684635D01*
X64721530Y-149797675D01*
X65109817Y-149720439D01*
X65032581Y-150108726D01*
X65145621Y-150677011D01*
X65467528Y-151158780D01*
X65949297Y-151480687D01*
X66517582Y-151593727D01*
X66905868Y-151516491D01*
X66828632Y-151904777D01*
X66941672Y-152473062D01*
X67263579Y-152954831D01*
X67745348Y-153276738D01*
X68313633Y-153389778D01*
X68701919Y-153312542D01*
X68624683Y-153700828D01*
X68737723Y-154269113D01*
X69059630Y-154750882D01*
X69328482Y-154930523D01*
X68422465Y-154813043D01*
X67141618Y-154631556D01*
X66278266Y-154453549D01*
X65460555Y-154241822D01*
X64472347Y-153918751D01*
X64097929Y-153772882D01*
X63371129Y-153441956D01*
X62752523Y-153091809D01*
X62436025Y-152865732D01*
X62011829Y-152447882D01*
X61491639Y-151863151D01*
X60918566Y-151089435D01*
X60561545Y-150492621D01*
X60185388Y-149628255D01*
X59933875Y-148989465D01*
X59510093Y-147775118D01*
X59177224Y-146777506D01*
X59011835Y-146273534D01*
X58826561Y-145703965D01*
X58628307Y-145089505D01*
X58544063Y-144826309D01*
X59312918Y-144826309D01*
X59409591Y-145059698D01*
X59897891Y-145547998D01*
X60122397Y-145547998D01*
X60970395Y-144700000D01*
X60122397Y-143852002D01*
X59897891Y-143852002D01*
X59409592Y-144340301D01*
X59312919Y-144573690D01*
X59312918Y-144826309D01*
X58544063Y-144826309D01*
X58392927Y-144354130D01*
X58105504Y-143447891D01*
X60302002Y-143447891D01*
X60302002Y-143672397D01*
X61150000Y-144520395D01*
X61997998Y-143672397D01*
X61997998Y-143447891D01*
X61509698Y-142959591D01*
X61276309Y-142862918D01*
X61023690Y-142862919D01*
X60790301Y-142959592D01*
X60302002Y-143447891D01*
X58105504Y-143447891D01*
X58087821Y-143392137D01*
X57964405Y-142999774D01*
X57947896Y-142969633D01*
X57940809Y-142936006D01*
X57830991Y-142679167D01*
X78312838Y-142679167D01*
X78454883Y-143022943D01*
X78717673Y-143286192D01*
X79061201Y-143428838D01*
X79433167Y-143429162D01*
X79776943Y-143287117D01*
X80040192Y-143024327D01*
X80182838Y-142680799D01*
X80183162Y-142308833D01*
X80041117Y-141965057D01*
X79968000Y-141891812D01*
X79968000Y-141351494D01*
X80077201Y-141396838D01*
X80449167Y-141397162D01*
X80792943Y-141255117D01*
X81056192Y-140992327D01*
X81198838Y-140648799D01*
X81199162Y-140276833D01*
X81057117Y-139933057D01*
X80794327Y-139669808D01*
X80476000Y-139537626D01*
X80476000Y-136885167D01*
X92414838Y-136885167D01*
X92556883Y-137228943D01*
X92819673Y-137492192D01*
X93163201Y-137634838D01*
X93535167Y-137635162D01*
X93878943Y-137493117D01*
X93912118Y-137460000D01*
X98550000Y-137460000D01*
X98756218Y-137418980D01*
X98235198Y-137940000D01*
X93912463Y-137940000D01*
X93880327Y-137907808D01*
X93536799Y-137765162D01*
X93164833Y-137764838D01*
X92821057Y-137906883D01*
X92557808Y-138169673D01*
X92415162Y-138513201D01*
X92414838Y-138885167D01*
X92556883Y-139228943D01*
X92819673Y-139492192D01*
X93163201Y-139634838D01*
X93535167Y-139635162D01*
X93878943Y-139493117D01*
X93912118Y-139460000D01*
X98550000Y-139460000D01*
X98756218Y-139418980D01*
X98235198Y-139940000D01*
X93912463Y-139940000D01*
X93880327Y-139907808D01*
X93536799Y-139765162D01*
X93164833Y-139764838D01*
X92821057Y-139906883D01*
X92557808Y-140169673D01*
X92415162Y-140513201D01*
X92414838Y-140885167D01*
X92556883Y-141228943D01*
X92819673Y-141492192D01*
X93163201Y-141634838D01*
X93535167Y-141635162D01*
X93878943Y-141493117D01*
X93912118Y-141460000D01*
X98550000Y-141460000D01*
X98840839Y-141402148D01*
X99087401Y-141237401D01*
X107264802Y-133060000D01*
X109387537Y-133060000D01*
X109419673Y-133092192D01*
X109763201Y-133234838D01*
X110135167Y-133235162D01*
X110478943Y-133093117D01*
X110742192Y-132830327D01*
X110884838Y-132486799D01*
X110885162Y-132114833D01*
X110743117Y-131771057D01*
X110480327Y-131507808D01*
X110136799Y-131365162D01*
X109764833Y-131364838D01*
X109421057Y-131506883D01*
X109387882Y-131540000D01*
X106950000Y-131540000D01*
X106659161Y-131597852D01*
X106412599Y-131762599D01*
X105885009Y-132290189D01*
X105885162Y-132114833D01*
X105743117Y-131771057D01*
X105480327Y-131507808D01*
X105136799Y-131365162D01*
X104764833Y-131364838D01*
X104421057Y-131506883D01*
X104157808Y-131769673D01*
X104015162Y-132113201D01*
X104015121Y-132160077D01*
X100868980Y-135306218D01*
X100910000Y-135100000D01*
X100910000Y-122062463D01*
X100942192Y-122030327D01*
X101084838Y-121686799D01*
X101085162Y-121314833D01*
X100943117Y-120971057D01*
X100680327Y-120707808D01*
X100336799Y-120565162D01*
X99964833Y-120564838D01*
X99621057Y-120706883D01*
X99357808Y-120969673D01*
X99215162Y-121313201D01*
X99214838Y-121685167D01*
X99356883Y-122028943D01*
X99390000Y-122062118D01*
X99390000Y-134785198D01*
X98235198Y-135940000D01*
X93912463Y-135940000D01*
X93880327Y-135907808D01*
X93536799Y-135765162D01*
X93164833Y-135764838D01*
X92821057Y-135906883D01*
X92557808Y-136169673D01*
X92415162Y-136513201D01*
X92414838Y-136885167D01*
X80476000Y-136885167D01*
X80476000Y-117085167D01*
X81214838Y-117085167D01*
X81356883Y-117428943D01*
X81430000Y-117502188D01*
X81430000Y-128097607D01*
X81357808Y-128169673D01*
X81215162Y-128513201D01*
X81214838Y-128885167D01*
X81356883Y-129228943D01*
X81619673Y-129492192D01*
X81963201Y-129634838D01*
X82335167Y-129635162D01*
X82678943Y-129493117D01*
X82942192Y-129230327D01*
X83084838Y-128886799D01*
X83085162Y-128514833D01*
X82943117Y-128171057D01*
X82870000Y-128097812D01*
X82870000Y-117502393D01*
X82942192Y-117430327D01*
X83015039Y-117254894D01*
X83014838Y-117485167D01*
X83156883Y-117828943D01*
X83419673Y-118092192D01*
X83430000Y-118096480D01*
X83430000Y-128097607D01*
X83357808Y-128169673D01*
X83215162Y-128513201D01*
X83214838Y-128885167D01*
X83356883Y-129228943D01*
X83619673Y-129492192D01*
X83963201Y-129634838D01*
X84335167Y-129635162D01*
X84678943Y-129493117D01*
X84942192Y-129230327D01*
X85084838Y-128886799D01*
X85085162Y-128514833D01*
X84943117Y-128171057D01*
X84870000Y-128097812D01*
X84870000Y-117522533D01*
X84884838Y-117486799D01*
X84885162Y-117114833D01*
X84743117Y-116771057D01*
X84480327Y-116507808D01*
X84136799Y-116365162D01*
X83764833Y-116364838D01*
X83421057Y-116506883D01*
X83157808Y-116769673D01*
X83084961Y-116945106D01*
X83085162Y-116714833D01*
X82943117Y-116371057D01*
X82680327Y-116107808D01*
X82336799Y-115965162D01*
X81964833Y-115964838D01*
X81621057Y-116106883D01*
X81357808Y-116369673D01*
X81215162Y-116713201D01*
X81214838Y-117085167D01*
X80476000Y-117085167D01*
X80476000Y-112820234D01*
X82297117Y-110999117D01*
X82453193Y-110765532D01*
X82508000Y-110490000D01*
X82508000Y-109890075D01*
X82824943Y-109759117D01*
X83088192Y-109496327D01*
X83230838Y-109152799D01*
X83231144Y-108801504D01*
X84581634Y-108808601D01*
X85155500Y-109267748D01*
X85155500Y-115071037D01*
X85123308Y-115103173D01*
X84980662Y-115446701D01*
X84980338Y-115818667D01*
X85122383Y-116162443D01*
X85385173Y-116425692D01*
X85728701Y-116568338D01*
X86100667Y-116568662D01*
X86444443Y-116426617D01*
X86707692Y-116163827D01*
X86850338Y-115820299D01*
X86850662Y-115448333D01*
X86708617Y-115104557D01*
X86675500Y-115071382D01*
X86675500Y-108902500D01*
X86667222Y-108860886D01*
X86670856Y-108818615D01*
X86638524Y-108716613D01*
X86617648Y-108611661D01*
X86594076Y-108576382D01*
X86581256Y-108535938D01*
X86512351Y-108454073D01*
X86452901Y-108365099D01*
X86417623Y-108341527D01*
X86390302Y-108309067D01*
X85324802Y-107456567D01*
X85231553Y-107408204D01*
X85144524Y-107349390D01*
X85100999Y-107340494D01*
X85061563Y-107320041D01*
X84956913Y-107311045D01*
X84853993Y-107290010D01*
X83932336Y-107285167D01*
X88414838Y-107285167D01*
X88556883Y-107628943D01*
X88819673Y-107892192D01*
X89163201Y-108034838D01*
X89266694Y-108034928D01*
X93840883Y-112609117D01*
X94074468Y-112765193D01*
X94350000Y-112820000D01*
X97547607Y-112820000D01*
X97619673Y-112892192D01*
X97963201Y-113034838D01*
X98335167Y-113035162D01*
X98678943Y-112893117D01*
X98942192Y-112630327D01*
X99084838Y-112286799D01*
X99085162Y-111914833D01*
X98943117Y-111571057D01*
X98680327Y-111307808D01*
X98336799Y-111165162D01*
X97964833Y-111164838D01*
X97621057Y-111306883D01*
X97547812Y-111380000D01*
X94648234Y-111380000D01*
X90285073Y-107016839D01*
X90285162Y-106914833D01*
X90143117Y-106571057D01*
X89880327Y-106307808D01*
X89536799Y-106165162D01*
X89164833Y-106164838D01*
X88821057Y-106306883D01*
X88557808Y-106569673D01*
X88415162Y-106913201D01*
X88414838Y-107285167D01*
X83932336Y-107285167D01*
X81293535Y-107271301D01*
X81130327Y-107107808D01*
X80786799Y-106965162D01*
X80414833Y-106964838D01*
X80071057Y-107106883D01*
X79807808Y-107369673D01*
X79665162Y-107713201D01*
X79664838Y-108085167D01*
X79806883Y-108428943D01*
X79920074Y-108542332D01*
X79932783Y-108561570D01*
X79934468Y-108562709D01*
X79935599Y-108564401D01*
X79955137Y-108577456D01*
X80069673Y-108692192D01*
X80208777Y-108749953D01*
X80091162Y-109033201D01*
X80090838Y-109405167D01*
X80232883Y-109748943D01*
X80306000Y-109822188D01*
X80306000Y-110191766D01*
X78738883Y-111758883D01*
X78582807Y-111992468D01*
X78528000Y-112268000D01*
X78528000Y-141891607D01*
X78455808Y-141963673D01*
X78313162Y-142307201D01*
X78312838Y-142679167D01*
X57830991Y-142679167D01*
X57512869Y-141935157D01*
X57484149Y-141893213D01*
X57466473Y-141845552D01*
X56674635Y-140558339D01*
X56644415Y-140525759D01*
X56623743Y-140486422D01*
X56077715Y-139811467D01*
X56057513Y-139794649D01*
X56043556Y-139772370D01*
X55690126Y-139397528D01*
X55668131Y-139381877D01*
X55652063Y-139360184D01*
X55156766Y-138910714D01*
X55116271Y-138886408D01*
X55083247Y-138852649D01*
X54229183Y-138268279D01*
X53038692Y-137427680D01*
X52221885Y-136829358D01*
X51307342Y-136131009D01*
X50638216Y-135588182D01*
X50130604Y-135173703D01*
X49072327Y-134208402D01*
X48309709Y-133397209D01*
X47893694Y-132885167D01*
X65614838Y-132885167D01*
X65756883Y-133228943D01*
X65830000Y-133302188D01*
X65830000Y-135897607D01*
X65757808Y-135969673D01*
X65615162Y-136313201D01*
X65614838Y-136685167D01*
X65756883Y-137028943D01*
X66019673Y-137292192D01*
X66363201Y-137434838D01*
X66735167Y-137435162D01*
X67078943Y-137293117D01*
X67342192Y-137030327D01*
X67484838Y-136686799D01*
X67485162Y-136314833D01*
X67343117Y-135971057D01*
X67270000Y-135897812D01*
X67270000Y-133302393D01*
X67342192Y-133230327D01*
X67484838Y-132886799D01*
X67485162Y-132514833D01*
X67343117Y-132171057D01*
X67080327Y-131907808D01*
X66736799Y-131765162D01*
X66364833Y-131764838D01*
X66021057Y-131906883D01*
X65757808Y-132169673D01*
X65615162Y-132513201D01*
X65614838Y-132885167D01*
X47893694Y-132885167D01*
X47791096Y-132758887D01*
X47269718Y-131973267D01*
X46918152Y-131268516D01*
X46748866Y-130929163D01*
X46727238Y-130901243D01*
X46714519Y-130868298D01*
X46119837Y-129929803D01*
X45486513Y-128920157D01*
X44931704Y-128031790D01*
X44104851Y-126703540D01*
X44104850Y-126703539D01*
X43881659Y-126344187D01*
X43499877Y-125632346D01*
X43046700Y-124424298D01*
X42773073Y-123419192D01*
X42500759Y-122057911D01*
X42434108Y-121605926D01*
X42418516Y-121562232D01*
X42414602Y-121516009D01*
X42405706Y-121485167D01*
X58214838Y-121485167D01*
X58356883Y-121828943D01*
X58619673Y-122092192D01*
X58963201Y-122234838D01*
X59010077Y-122234879D01*
X71014878Y-134239680D01*
X71014838Y-134285167D01*
X71156883Y-134628943D01*
X71419673Y-134892192D01*
X71763201Y-135034838D01*
X72135167Y-135035162D01*
X72478943Y-134893117D01*
X72742192Y-134630327D01*
X72884838Y-134286799D01*
X72885162Y-133914833D01*
X72743117Y-133571057D01*
X72480327Y-133307808D01*
X72136799Y-133165162D01*
X72089923Y-133165121D01*
X60085122Y-121160320D01*
X60085162Y-121114833D01*
X59943117Y-120771057D01*
X59680327Y-120507808D01*
X59336799Y-120365162D01*
X58964833Y-120364838D01*
X58621057Y-120506883D01*
X58357808Y-120769673D01*
X58215162Y-121113201D01*
X58214838Y-121485167D01*
X42405706Y-121485167D01*
X42173177Y-120679038D01*
X42033024Y-120031445D01*
X41838883Y-118916256D01*
X41784599Y-118542931D01*
X41742716Y-118424808D01*
X41703747Y-118305651D01*
X41698151Y-118299125D01*
X41695279Y-118291024D01*
X41611361Y-118197899D01*
X41529778Y-118102747D01*
X41522114Y-118098860D01*
X41516358Y-118092473D01*
X41403187Y-118038550D01*
X41291404Y-117981862D01*
X40375992Y-117725577D01*
X39650329Y-117462936D01*
X39070022Y-117202042D01*
X38724770Y-117012505D01*
X38710495Y-117008000D01*
X38698623Y-116998874D01*
X38098759Y-116702411D01*
X37828786Y-116547205D01*
X37076660Y-116050653D01*
X36321730Y-115465200D01*
X35783714Y-114989369D01*
X35468540Y-114699632D01*
X35053006Y-114285167D01*
X55414838Y-114285167D01*
X55556883Y-114628943D01*
X55819673Y-114892192D01*
X56163201Y-115034838D01*
X56410251Y-115035053D01*
X72214878Y-130839680D01*
X72214838Y-130885167D01*
X72356883Y-131228943D01*
X72619673Y-131492192D01*
X72963201Y-131634838D01*
X73335167Y-131635162D01*
X73678943Y-131493117D01*
X73942192Y-131230327D01*
X74084838Y-130886799D01*
X74085162Y-130514833D01*
X73943117Y-130171057D01*
X73680327Y-129907808D01*
X73336799Y-129765162D01*
X73289923Y-129765121D01*
X57176393Y-113651591D01*
X57143117Y-113571057D01*
X56880327Y-113307808D01*
X56536799Y-113165162D01*
X56164833Y-113164838D01*
X55821057Y-113306883D01*
X55557808Y-113569673D01*
X55415162Y-113913201D01*
X55414838Y-114285167D01*
X35053006Y-114285167D01*
X34966004Y-114198389D01*
X34498786Y-113684084D01*
X34041580Y-113126322D01*
X33654183Y-112591883D01*
X33276238Y-112029898D01*
X32940617Y-111477593D01*
X32620780Y-110897393D01*
X32183105Y-110000426D01*
X31945090Y-109448480D01*
X31773711Y-109011660D01*
X31606583Y-108533586D01*
X31540709Y-108421838D01*
X31476155Y-108309345D01*
X31472927Y-108306854D01*
X31470855Y-108303340D01*
X31367196Y-108225281D01*
X31264542Y-108146081D01*
X31260608Y-108145016D01*
X31257348Y-108142561D01*
X31131735Y-108110120D01*
X31006559Y-108076225D01*
X30619969Y-108049863D01*
X30310274Y-108016086D01*
X29603287Y-107901081D01*
X28830510Y-107716204D01*
X27846627Y-107383564D01*
X27076268Y-107033741D01*
X26285720Y-106572548D01*
X25755881Y-106189890D01*
X25152582Y-105659249D01*
X24488882Y-104915076D01*
X23974368Y-104162615D01*
X23460009Y-103148418D01*
X23113467Y-102334569D01*
X23113466Y-102334567D01*
X22845389Y-101704510D01*
X22517602Y-100928180D01*
X22148414Y-100039580D01*
X21891332Y-99408065D01*
X21861913Y-99334285D01*
X31500760Y-99334285D01*
X31711169Y-99843515D01*
X32100436Y-100233461D01*
X32609298Y-100444759D01*
X33160285Y-100445240D01*
X33669515Y-100234831D01*
X33873183Y-100031517D01*
X47094088Y-100031517D01*
X47162077Y-100272460D01*
X47681171Y-100457201D01*
X48231448Y-100429230D01*
X48609923Y-100272460D01*
X48677912Y-100031517D01*
X47886000Y-99239605D01*
X47094088Y-100031517D01*
X33873183Y-100031517D01*
X34059461Y-99845564D01*
X34270759Y-99336702D01*
X34271179Y-98855171D01*
X46488799Y-98855171D01*
X46516770Y-99405448D01*
X46673540Y-99783923D01*
X46914483Y-99851912D01*
X47706395Y-99060000D01*
X48065605Y-99060000D01*
X48857517Y-99851912D01*
X49098460Y-99783923D01*
X49283201Y-99264829D01*
X49255230Y-98714552D01*
X49098460Y-98336077D01*
X48857517Y-98268088D01*
X48065605Y-99060000D01*
X47706395Y-99060000D01*
X46914483Y-98268088D01*
X46673540Y-98336077D01*
X46488799Y-98855171D01*
X34271179Y-98855171D01*
X34271240Y-98785715D01*
X34060831Y-98276485D01*
X33873157Y-98088483D01*
X47094088Y-98088483D01*
X47886000Y-98880395D01*
X48677912Y-98088483D01*
X48609923Y-97847540D01*
X48090829Y-97662799D01*
X47540552Y-97690770D01*
X47162077Y-97847540D01*
X47094088Y-98088483D01*
X33873157Y-98088483D01*
X33671564Y-97886539D01*
X33162702Y-97675241D01*
X32611715Y-97674760D01*
X32102485Y-97885169D01*
X31712539Y-98274436D01*
X31501241Y-98783298D01*
X31500760Y-99334285D01*
X21861913Y-99334285D01*
X21644483Y-98788997D01*
X21109063Y-97390797D01*
X20641839Y-96087659D01*
X20280740Y-95007638D01*
X19930570Y-93878350D01*
X19651643Y-92901807D01*
X19348246Y-91732473D01*
X18793989Y-89104861D01*
X18617692Y-88011369D01*
X18310241Y-85090305D01*
X18254847Y-83897981D01*
X18240933Y-82776157D01*
X18277187Y-81350862D01*
X18362239Y-80065042D01*
X18422360Y-79423666D01*
X18548321Y-78352559D01*
X18679509Y-77475472D01*
X18982038Y-75961988D01*
X19176944Y-75217164D01*
X19413378Y-74471600D01*
X19898979Y-73303261D01*
X20240315Y-72684797D01*
X20809409Y-71905496D01*
X21116697Y-71582672D01*
X21216819Y-71495667D01*
X62755338Y-71495667D01*
X62897383Y-71839443D01*
X63160173Y-72102692D01*
X63503701Y-72245338D01*
X63875667Y-72245662D01*
X64219443Y-72103617D01*
X64482692Y-71840827D01*
X64509403Y-71776500D01*
X71310500Y-71776500D01*
X71586032Y-71721693D01*
X71655917Y-71674998D01*
X71407308Y-71923173D01*
X71264662Y-72266701D01*
X71264338Y-72638667D01*
X71406383Y-72982443D01*
X71439500Y-73015618D01*
X71439500Y-75701037D01*
X71407308Y-75733173D01*
X71264662Y-76076701D01*
X71264338Y-76448667D01*
X71406383Y-76792443D01*
X71439500Y-76825618D01*
X71439500Y-80146037D01*
X71407308Y-80178173D01*
X71264662Y-80521701D01*
X71264338Y-80893667D01*
X71406383Y-81237443D01*
X71439500Y-81270618D01*
X71439500Y-84591037D01*
X71407308Y-84623173D01*
X71264662Y-84966701D01*
X71264338Y-85338667D01*
X71406383Y-85682443D01*
X71439500Y-85715618D01*
X71439500Y-89036037D01*
X71407308Y-89068173D01*
X71264662Y-89411701D01*
X71264338Y-89783667D01*
X71406383Y-90127443D01*
X71439500Y-90160618D01*
X71439500Y-93481037D01*
X71407308Y-93513173D01*
X71264662Y-93856701D01*
X71264338Y-94228667D01*
X71406383Y-94572443D01*
X71439500Y-94605618D01*
X71439500Y-97926037D01*
X71407308Y-97958173D01*
X71264662Y-98301701D01*
X71264338Y-98673667D01*
X71406383Y-99017443D01*
X71439500Y-99050618D01*
X71439500Y-103006037D01*
X71407308Y-103038173D01*
X71264662Y-103381701D01*
X71264338Y-103753667D01*
X71406383Y-104097443D01*
X71439500Y-104130618D01*
X71439500Y-105044495D01*
X71391662Y-105159701D01*
X71391338Y-105531667D01*
X71533383Y-105875443D01*
X71796173Y-106138692D01*
X72139701Y-106281338D01*
X72511667Y-106281662D01*
X72855443Y-106139617D01*
X73118692Y-105876827D01*
X73261338Y-105533299D01*
X73261662Y-105161333D01*
X73119617Y-104817557D01*
X72959500Y-104657160D01*
X72959500Y-104130963D01*
X72991692Y-104098827D01*
X73134338Y-103755299D01*
X73134662Y-103383333D01*
X72992617Y-103039557D01*
X72959500Y-103006382D01*
X72959500Y-99050963D01*
X72991692Y-99018827D01*
X73134338Y-98675299D01*
X73134662Y-98303333D01*
X72992617Y-97959557D01*
X72959500Y-97926382D01*
X72959500Y-94605963D01*
X72991692Y-94573827D01*
X73134338Y-94230299D01*
X73134662Y-93858333D01*
X72992617Y-93514557D01*
X72959500Y-93481382D01*
X72959500Y-90160963D01*
X72991692Y-90128827D01*
X73134338Y-89785299D01*
X73134662Y-89413333D01*
X72992617Y-89069557D01*
X72959500Y-89036382D01*
X72959500Y-85715963D01*
X72991692Y-85683827D01*
X73134338Y-85340299D01*
X73134662Y-84968333D01*
X72992617Y-84624557D01*
X72959500Y-84591382D01*
X72959500Y-81270963D01*
X72991692Y-81238827D01*
X73134338Y-80895299D01*
X73134662Y-80523333D01*
X72992617Y-80179557D01*
X72959500Y-80146382D01*
X72959500Y-76825963D01*
X72991692Y-76793827D01*
X73134338Y-76450299D01*
X73134662Y-76078333D01*
X72992617Y-75734557D01*
X72959500Y-75701382D01*
X72959500Y-73015963D01*
X72991692Y-72983827D01*
X73134338Y-72640299D01*
X73134339Y-72638667D01*
X74439338Y-72638667D01*
X74581383Y-72982443D01*
X74614500Y-73015618D01*
X74614500Y-75701037D01*
X74582308Y-75733173D01*
X74439662Y-76076701D01*
X74439338Y-76448667D01*
X74581383Y-76792443D01*
X74614500Y-76825618D01*
X74614500Y-80146037D01*
X74582308Y-80178173D01*
X74439662Y-80521701D01*
X74439338Y-80893667D01*
X74581383Y-81237443D01*
X74614500Y-81270618D01*
X74614500Y-84591037D01*
X74582308Y-84623173D01*
X74439662Y-84966701D01*
X74439338Y-85338667D01*
X74581383Y-85682443D01*
X74614500Y-85715618D01*
X74614500Y-89036037D01*
X74582308Y-89068173D01*
X74439662Y-89411701D01*
X74439338Y-89783667D01*
X74581383Y-90127443D01*
X74614500Y-90160618D01*
X74614500Y-93481037D01*
X74582308Y-93513173D01*
X74439662Y-93856701D01*
X74439338Y-94228667D01*
X74581383Y-94572443D01*
X74614500Y-94605618D01*
X74614500Y-97926037D01*
X74582308Y-97958173D01*
X74439662Y-98301701D01*
X74439338Y-98673667D01*
X74581383Y-99017443D01*
X74614500Y-99050618D01*
X74614500Y-103006037D01*
X74582308Y-103038173D01*
X74439662Y-103381701D01*
X74439338Y-103753667D01*
X74581383Y-104097443D01*
X74844173Y-104360692D01*
X75187701Y-104503338D01*
X75559667Y-104503662D01*
X75903443Y-104361617D01*
X76166692Y-104098827D01*
X76309338Y-103755299D01*
X76309662Y-103383333D01*
X76167617Y-103039557D01*
X76134500Y-103006382D01*
X76134500Y-99050963D01*
X76166692Y-99018827D01*
X76309338Y-98675299D01*
X76309662Y-98303333D01*
X76167617Y-97959557D01*
X76134500Y-97926382D01*
X76134500Y-94605963D01*
X76166692Y-94573827D01*
X76309338Y-94230299D01*
X76309662Y-93858333D01*
X76167617Y-93514557D01*
X76134500Y-93481382D01*
X76134500Y-90160963D01*
X76166692Y-90128827D01*
X76309338Y-89785299D01*
X76309662Y-89413333D01*
X76167617Y-89069557D01*
X76134500Y-89036382D01*
X76134500Y-85715963D01*
X76166692Y-85683827D01*
X76309338Y-85340299D01*
X76309662Y-84968333D01*
X76167617Y-84624557D01*
X76134500Y-84591382D01*
X76134500Y-81270963D01*
X76166692Y-81238827D01*
X76309338Y-80895299D01*
X76309662Y-80523333D01*
X76167617Y-80179557D01*
X76134500Y-80146382D01*
X76134500Y-76825963D01*
X76166692Y-76793827D01*
X76309338Y-76450299D01*
X76309662Y-76078333D01*
X76167617Y-75734557D01*
X76134500Y-75701382D01*
X76134500Y-73015963D01*
X76166692Y-72983827D01*
X76309338Y-72640299D01*
X76309339Y-72638667D01*
X77614338Y-72638667D01*
X77756383Y-72982443D01*
X77789500Y-73015618D01*
X77789500Y-75701037D01*
X77757308Y-75733173D01*
X77614662Y-76076701D01*
X77614338Y-76448667D01*
X77756383Y-76792443D01*
X77789500Y-76825618D01*
X77789500Y-80146037D01*
X77757308Y-80178173D01*
X77614662Y-80521701D01*
X77614338Y-80893667D01*
X77756383Y-81237443D01*
X77789500Y-81270618D01*
X77789500Y-84591037D01*
X77757308Y-84623173D01*
X77614662Y-84966701D01*
X77614338Y-85338667D01*
X77756383Y-85682443D01*
X77789500Y-85715618D01*
X77789500Y-89036037D01*
X77757308Y-89068173D01*
X77614662Y-89411701D01*
X77614338Y-89783667D01*
X77756383Y-90127443D01*
X77789500Y-90160618D01*
X77789500Y-93481037D01*
X77757308Y-93513173D01*
X77614662Y-93856701D01*
X77614338Y-94228667D01*
X77756383Y-94572443D01*
X77789500Y-94605618D01*
X77789500Y-97926037D01*
X77757308Y-97958173D01*
X77614662Y-98301701D01*
X77614338Y-98673667D01*
X77756383Y-99017443D01*
X77789500Y-99050618D01*
X77789500Y-103006037D01*
X77757308Y-103038173D01*
X77614662Y-103381701D01*
X77614338Y-103753667D01*
X77756383Y-104097443D01*
X78019173Y-104360692D01*
X78362701Y-104503338D01*
X78734667Y-104503662D01*
X79078443Y-104361617D01*
X79341692Y-104098827D01*
X79484338Y-103755299D01*
X79484662Y-103383333D01*
X79342617Y-103039557D01*
X79309500Y-103006382D01*
X79309500Y-99050963D01*
X79341692Y-99018827D01*
X79484338Y-98675299D01*
X79484662Y-98303333D01*
X79342617Y-97959557D01*
X79309500Y-97926382D01*
X79309500Y-94605963D01*
X79341692Y-94573827D01*
X79484338Y-94230299D01*
X79484662Y-93858333D01*
X79342617Y-93514557D01*
X79309500Y-93481382D01*
X79309500Y-90160963D01*
X79341692Y-90128827D01*
X79484338Y-89785299D01*
X79484662Y-89413333D01*
X79342617Y-89069557D01*
X79309500Y-89036382D01*
X79309500Y-85715963D01*
X79341692Y-85683827D01*
X79484338Y-85340299D01*
X79484662Y-84968333D01*
X79342617Y-84624557D01*
X79309500Y-84591382D01*
X79309500Y-81270963D01*
X79341692Y-81238827D01*
X79484338Y-80895299D01*
X79484662Y-80523333D01*
X79342617Y-80179557D01*
X79309500Y-80146382D01*
X79309500Y-76825963D01*
X79341692Y-76793827D01*
X79484338Y-76450299D01*
X79484662Y-76078333D01*
X79342617Y-75734557D01*
X79309500Y-75701382D01*
X79309500Y-73015963D01*
X79341692Y-72983827D01*
X79484338Y-72640299D01*
X79484339Y-72638667D01*
X80789338Y-72638667D01*
X80931383Y-72982443D01*
X80964500Y-73015618D01*
X80964500Y-75701037D01*
X80932308Y-75733173D01*
X80789662Y-76076701D01*
X80789338Y-76448667D01*
X80931383Y-76792443D01*
X80964500Y-76825618D01*
X80964500Y-80146037D01*
X80932308Y-80178173D01*
X80789662Y-80521701D01*
X80789338Y-80893667D01*
X80931383Y-81237443D01*
X80964500Y-81270618D01*
X80964500Y-84591037D01*
X80932308Y-84623173D01*
X80789662Y-84966701D01*
X80789338Y-85338667D01*
X80931383Y-85682443D01*
X80964500Y-85715618D01*
X80964500Y-89036037D01*
X80932308Y-89068173D01*
X80789662Y-89411701D01*
X80789338Y-89783667D01*
X80931383Y-90127443D01*
X80964500Y-90160618D01*
X80964500Y-93481037D01*
X80932308Y-93513173D01*
X80789662Y-93856701D01*
X80789338Y-94228667D01*
X80931383Y-94572443D01*
X80964500Y-94605618D01*
X80964500Y-97926037D01*
X80932308Y-97958173D01*
X80789662Y-98301701D01*
X80789338Y-98673667D01*
X80931383Y-99017443D01*
X80964500Y-99050618D01*
X80964500Y-103006037D01*
X80932308Y-103038173D01*
X80789662Y-103381701D01*
X80789338Y-103753667D01*
X80931383Y-104097443D01*
X81194173Y-104360692D01*
X81537701Y-104503338D01*
X81909667Y-104503662D01*
X82253443Y-104361617D01*
X82516692Y-104098827D01*
X82659338Y-103755299D01*
X82659662Y-103383333D01*
X82517617Y-103039557D01*
X82484500Y-103006382D01*
X82484500Y-99050963D01*
X82516692Y-99018827D01*
X82659338Y-98675299D01*
X82659662Y-98303333D01*
X82517617Y-97959557D01*
X82484500Y-97926382D01*
X82484500Y-94605963D01*
X82516692Y-94573827D01*
X82659338Y-94230299D01*
X82659662Y-93858333D01*
X82517617Y-93514557D01*
X82484500Y-93481382D01*
X82484500Y-90160963D01*
X82516692Y-90128827D01*
X82659338Y-89785299D01*
X82659662Y-89413333D01*
X82517617Y-89069557D01*
X82484500Y-89036382D01*
X82484500Y-85715963D01*
X82516692Y-85683827D01*
X82659338Y-85340299D01*
X82659662Y-84968333D01*
X82517617Y-84624557D01*
X82484500Y-84591382D01*
X82484500Y-81270963D01*
X82516692Y-81238827D01*
X82659338Y-80895299D01*
X82659662Y-80523333D01*
X82517617Y-80179557D01*
X82484500Y-80146382D01*
X82484500Y-76825963D01*
X82516692Y-76793827D01*
X82659338Y-76450299D01*
X82659662Y-76078333D01*
X82517617Y-75734557D01*
X82484500Y-75701382D01*
X82484500Y-73015963D01*
X82516692Y-72983827D01*
X82659338Y-72640299D01*
X82659339Y-72638667D01*
X83964338Y-72638667D01*
X84106383Y-72982443D01*
X84139500Y-73015618D01*
X84139500Y-75701037D01*
X84107308Y-75733173D01*
X83964662Y-76076701D01*
X83964338Y-76448667D01*
X84106383Y-76792443D01*
X84139500Y-76825618D01*
X84139500Y-80146037D01*
X84107308Y-80178173D01*
X83964662Y-80521701D01*
X83964338Y-80893667D01*
X84106383Y-81237443D01*
X84139500Y-81270618D01*
X84139500Y-84591037D01*
X84107308Y-84623173D01*
X83964662Y-84966701D01*
X83964338Y-85338667D01*
X84106383Y-85682443D01*
X84139500Y-85715618D01*
X84139500Y-89036037D01*
X84107308Y-89068173D01*
X83964662Y-89411701D01*
X83964338Y-89783667D01*
X84106383Y-90127443D01*
X84139500Y-90160618D01*
X84139500Y-93481037D01*
X84107308Y-93513173D01*
X83964662Y-93856701D01*
X83964338Y-94228667D01*
X84106383Y-94572443D01*
X84139500Y-94605618D01*
X84139500Y-97926037D01*
X84107308Y-97958173D01*
X83964662Y-98301701D01*
X83964338Y-98673667D01*
X84106383Y-99017443D01*
X84139500Y-99050618D01*
X84139500Y-103006037D01*
X84107308Y-103038173D01*
X83964662Y-103381701D01*
X83964338Y-103753667D01*
X84106383Y-104097443D01*
X84369173Y-104360692D01*
X84712701Y-104503338D01*
X85084667Y-104503662D01*
X85428443Y-104361617D01*
X85691692Y-104098827D01*
X85834338Y-103755299D01*
X85834662Y-103383333D01*
X85692617Y-103039557D01*
X85659500Y-103006382D01*
X85659500Y-99050963D01*
X85691692Y-99018827D01*
X85834338Y-98675299D01*
X85834662Y-98303333D01*
X85692617Y-97959557D01*
X85659500Y-97926382D01*
X85659500Y-94605963D01*
X85691692Y-94573827D01*
X85834338Y-94230299D01*
X85834662Y-93858333D01*
X85692617Y-93514557D01*
X85659500Y-93481382D01*
X85659500Y-90160963D01*
X85691692Y-90128827D01*
X85834338Y-89785299D01*
X85834662Y-89413333D01*
X85692617Y-89069557D01*
X85659500Y-89036382D01*
X85659500Y-85715963D01*
X85691692Y-85683827D01*
X85834338Y-85340299D01*
X85834662Y-84968333D01*
X85692617Y-84624557D01*
X85659500Y-84591382D01*
X85659500Y-81270963D01*
X85691692Y-81238827D01*
X85834338Y-80895299D01*
X85834662Y-80523333D01*
X85692617Y-80179557D01*
X85659500Y-80146382D01*
X85659500Y-76825963D01*
X85691692Y-76793827D01*
X85834338Y-76450299D01*
X85834662Y-76078333D01*
X85692617Y-75734557D01*
X85659500Y-75701382D01*
X85659500Y-73015963D01*
X85691692Y-72983827D01*
X85834338Y-72640299D01*
X85834339Y-72638667D01*
X87139338Y-72638667D01*
X87281383Y-72982443D01*
X87314500Y-73015618D01*
X87314500Y-75701037D01*
X87282308Y-75733173D01*
X87139662Y-76076701D01*
X87139338Y-76448667D01*
X87281383Y-76792443D01*
X87314500Y-76825618D01*
X87314500Y-80146037D01*
X87282308Y-80178173D01*
X87139662Y-80521701D01*
X87139338Y-80893667D01*
X87281383Y-81237443D01*
X87314500Y-81270618D01*
X87314500Y-84591037D01*
X87282308Y-84623173D01*
X87139662Y-84966701D01*
X87139338Y-85338667D01*
X87281383Y-85682443D01*
X87314500Y-85715618D01*
X87314500Y-89036037D01*
X87282308Y-89068173D01*
X87139662Y-89411701D01*
X87139338Y-89783667D01*
X87281383Y-90127443D01*
X87314500Y-90160618D01*
X87314500Y-93481037D01*
X87282308Y-93513173D01*
X87139662Y-93856701D01*
X87139338Y-94228667D01*
X87281383Y-94572443D01*
X87314500Y-94605618D01*
X87314500Y-97926037D01*
X87282308Y-97958173D01*
X87139662Y-98301701D01*
X87139338Y-98673667D01*
X87281383Y-99017443D01*
X87314500Y-99050618D01*
X87314500Y-103006037D01*
X87282308Y-103038173D01*
X87139662Y-103381701D01*
X87139338Y-103753667D01*
X87281383Y-104097443D01*
X87544173Y-104360692D01*
X87887701Y-104503338D01*
X88259667Y-104503662D01*
X88603443Y-104361617D01*
X88866692Y-104098827D01*
X89009338Y-103755299D01*
X89009662Y-103383333D01*
X88867617Y-103039557D01*
X88834500Y-103006382D01*
X88834500Y-99050963D01*
X88866692Y-99018827D01*
X89009338Y-98675299D01*
X89009662Y-98303333D01*
X88867617Y-97959557D01*
X88834500Y-97926382D01*
X88834500Y-94605963D01*
X88866692Y-94573827D01*
X89009338Y-94230299D01*
X89009662Y-93858333D01*
X88867617Y-93514557D01*
X88834500Y-93481382D01*
X88834500Y-90160963D01*
X88866692Y-90128827D01*
X89009338Y-89785299D01*
X89009662Y-89413333D01*
X88867617Y-89069557D01*
X88834500Y-89036382D01*
X88834500Y-85715963D01*
X88866692Y-85683827D01*
X89009338Y-85340299D01*
X89009662Y-84968333D01*
X88867617Y-84624557D01*
X88834500Y-84591382D01*
X88834500Y-81270963D01*
X88866692Y-81238827D01*
X89009338Y-80895299D01*
X89009662Y-80523333D01*
X88867617Y-80179557D01*
X88834500Y-80146382D01*
X88834500Y-76825963D01*
X88866692Y-76793827D01*
X89009338Y-76450299D01*
X89009662Y-76078333D01*
X88867617Y-75734557D01*
X88834500Y-75701382D01*
X88834500Y-73015963D01*
X88866692Y-72983827D01*
X89009338Y-72640299D01*
X89009339Y-72638667D01*
X90314338Y-72638667D01*
X90456383Y-72982443D01*
X90489500Y-73015618D01*
X90489500Y-75701037D01*
X90457308Y-75733173D01*
X90314662Y-76076701D01*
X90314338Y-76448667D01*
X90456383Y-76792443D01*
X90489500Y-76825618D01*
X90489500Y-80146037D01*
X90457308Y-80178173D01*
X90314662Y-80521701D01*
X90314338Y-80893667D01*
X90456383Y-81237443D01*
X90489500Y-81270618D01*
X90489500Y-84591037D01*
X90457308Y-84623173D01*
X90314662Y-84966701D01*
X90314338Y-85338667D01*
X90456383Y-85682443D01*
X90489500Y-85715618D01*
X90489500Y-89036037D01*
X90457308Y-89068173D01*
X90314662Y-89411701D01*
X90314338Y-89783667D01*
X90456383Y-90127443D01*
X90489500Y-90160618D01*
X90489500Y-93481037D01*
X90457308Y-93513173D01*
X90314662Y-93856701D01*
X90314338Y-94228667D01*
X90456383Y-94572443D01*
X90489500Y-94605618D01*
X90489500Y-97926037D01*
X90457308Y-97958173D01*
X90314662Y-98301701D01*
X90314338Y-98673667D01*
X90456383Y-99017443D01*
X90489500Y-99050618D01*
X90489500Y-103006037D01*
X90457308Y-103038173D01*
X90314662Y-103381701D01*
X90314338Y-103753667D01*
X90456383Y-104097443D01*
X90719173Y-104360692D01*
X91062701Y-104503338D01*
X91434667Y-104503662D01*
X91778443Y-104361617D01*
X92041692Y-104098827D01*
X92184338Y-103755299D01*
X92184662Y-103383333D01*
X92042617Y-103039557D01*
X92009500Y-103006382D01*
X92009500Y-99050963D01*
X92041692Y-99018827D01*
X92184338Y-98675299D01*
X92184662Y-98303333D01*
X92042617Y-97959557D01*
X92009500Y-97926382D01*
X92009500Y-94605963D01*
X92041692Y-94573827D01*
X92184338Y-94230299D01*
X92184662Y-93858333D01*
X92042617Y-93514557D01*
X92009500Y-93481382D01*
X92009500Y-90160963D01*
X92041692Y-90128827D01*
X92184338Y-89785299D01*
X92184662Y-89413333D01*
X92042617Y-89069557D01*
X92009500Y-89036382D01*
X92009500Y-85715963D01*
X92041692Y-85683827D01*
X92184338Y-85340299D01*
X92184662Y-84968333D01*
X92042617Y-84624557D01*
X92009500Y-84591382D01*
X92009500Y-81270963D01*
X92041692Y-81238827D01*
X92184338Y-80895299D01*
X92184662Y-80523333D01*
X92042617Y-80179557D01*
X92009500Y-80146382D01*
X92009500Y-76825963D01*
X92041692Y-76793827D01*
X92184338Y-76450299D01*
X92184662Y-76078333D01*
X92042617Y-75734557D01*
X92009500Y-75701382D01*
X92009500Y-73015963D01*
X92041692Y-72983827D01*
X92184338Y-72640299D01*
X92184339Y-72638667D01*
X93489338Y-72638667D01*
X93631383Y-72982443D01*
X93664500Y-73015618D01*
X93664500Y-75701037D01*
X93632308Y-75733173D01*
X93489662Y-76076701D01*
X93489338Y-76448667D01*
X93631383Y-76792443D01*
X93664500Y-76825618D01*
X93664500Y-80146037D01*
X93632308Y-80178173D01*
X93489662Y-80521701D01*
X93489338Y-80893667D01*
X93631383Y-81237443D01*
X93664500Y-81270618D01*
X93664500Y-84591037D01*
X93632308Y-84623173D01*
X93489662Y-84966701D01*
X93489338Y-85338667D01*
X93631383Y-85682443D01*
X93664500Y-85715618D01*
X93664500Y-89036037D01*
X93632308Y-89068173D01*
X93489662Y-89411701D01*
X93489338Y-89783667D01*
X93631383Y-90127443D01*
X93664500Y-90160618D01*
X93664500Y-93481037D01*
X93632308Y-93513173D01*
X93489662Y-93856701D01*
X93489338Y-94228667D01*
X93631383Y-94572443D01*
X93664500Y-94605618D01*
X93664500Y-97926037D01*
X93632308Y-97958173D01*
X93489662Y-98301701D01*
X93489338Y-98673667D01*
X93631383Y-99017443D01*
X93664500Y-99050618D01*
X93664500Y-103006037D01*
X93632308Y-103038173D01*
X93489662Y-103381701D01*
X93489338Y-103753667D01*
X93631383Y-104097443D01*
X93894173Y-104360692D01*
X94237701Y-104503338D01*
X94609667Y-104503662D01*
X94953443Y-104361617D01*
X95216692Y-104098827D01*
X95359338Y-103755299D01*
X95359662Y-103383333D01*
X95217617Y-103039557D01*
X95184500Y-103006382D01*
X95184500Y-99050963D01*
X95216692Y-99018827D01*
X95359338Y-98675299D01*
X95359662Y-98303333D01*
X95217617Y-97959557D01*
X95184500Y-97926382D01*
X95184500Y-94605963D01*
X95216692Y-94573827D01*
X95359338Y-94230299D01*
X95359662Y-93858333D01*
X95217617Y-93514557D01*
X95184500Y-93481382D01*
X95184500Y-90160963D01*
X95216692Y-90128827D01*
X95359338Y-89785299D01*
X95359662Y-89413333D01*
X95217617Y-89069557D01*
X95184500Y-89036382D01*
X95184500Y-85715963D01*
X95216692Y-85683827D01*
X95359338Y-85340299D01*
X95359662Y-84968333D01*
X95217617Y-84624557D01*
X95184500Y-84591382D01*
X95184500Y-81270963D01*
X95216692Y-81238827D01*
X95359338Y-80895299D01*
X95359662Y-80523333D01*
X95217617Y-80179557D01*
X95184500Y-80146382D01*
X95184500Y-76825963D01*
X95216692Y-76793827D01*
X95359338Y-76450299D01*
X95359662Y-76078333D01*
X95217617Y-75734557D01*
X95184500Y-75701382D01*
X95184500Y-73015963D01*
X95216692Y-72983827D01*
X95359338Y-72640299D01*
X95359339Y-72638667D01*
X96664338Y-72638667D01*
X96806383Y-72982443D01*
X96839500Y-73015618D01*
X96839500Y-75701037D01*
X96807308Y-75733173D01*
X96664662Y-76076701D01*
X96664338Y-76448667D01*
X96806383Y-76792443D01*
X96839500Y-76825618D01*
X96839500Y-80146037D01*
X96807308Y-80178173D01*
X96664662Y-80521701D01*
X96664338Y-80893667D01*
X96806383Y-81237443D01*
X96839500Y-81270618D01*
X96839500Y-84591037D01*
X96807308Y-84623173D01*
X96664662Y-84966701D01*
X96664338Y-85338667D01*
X96806383Y-85682443D01*
X96839500Y-85715618D01*
X96839500Y-89036037D01*
X96807308Y-89068173D01*
X96664662Y-89411701D01*
X96664338Y-89783667D01*
X96806383Y-90127443D01*
X96839500Y-90160618D01*
X96839500Y-93481037D01*
X96807308Y-93513173D01*
X96664662Y-93856701D01*
X96664338Y-94228667D01*
X96806383Y-94572443D01*
X96839500Y-94605618D01*
X96839500Y-97926037D01*
X96807308Y-97958173D01*
X96664662Y-98301701D01*
X96664338Y-98673667D01*
X96806383Y-99017443D01*
X96839500Y-99050618D01*
X96839500Y-103006037D01*
X96807308Y-103038173D01*
X96664662Y-103381701D01*
X96664338Y-103753667D01*
X96806383Y-104097443D01*
X97069173Y-104360692D01*
X97412701Y-104503338D01*
X97784667Y-104503662D01*
X98128443Y-104361617D01*
X98391692Y-104098827D01*
X98534338Y-103755299D01*
X98534662Y-103383333D01*
X98392617Y-103039557D01*
X98359500Y-103006382D01*
X98359500Y-99334285D01*
X117352760Y-99334285D01*
X117563169Y-99843515D01*
X117952436Y-100233461D01*
X118461298Y-100444759D01*
X119012285Y-100445240D01*
X119521515Y-100234831D01*
X119725183Y-100031517D01*
X132946088Y-100031517D01*
X133014077Y-100272460D01*
X133533171Y-100457201D01*
X134083448Y-100429230D01*
X134461923Y-100272460D01*
X134529912Y-100031517D01*
X133738000Y-99239605D01*
X132946088Y-100031517D01*
X119725183Y-100031517D01*
X119911461Y-99845564D01*
X120122759Y-99336702D01*
X120123179Y-98855171D01*
X132340799Y-98855171D01*
X132368770Y-99405448D01*
X132525540Y-99783923D01*
X132766483Y-99851912D01*
X133558395Y-99060000D01*
X133917605Y-99060000D01*
X134709517Y-99851912D01*
X134950460Y-99783923D01*
X135135201Y-99264829D01*
X135107230Y-98714552D01*
X134950460Y-98336077D01*
X134709517Y-98268088D01*
X133917605Y-99060000D01*
X133558395Y-99060000D01*
X132766483Y-98268088D01*
X132525540Y-98336077D01*
X132340799Y-98855171D01*
X120123179Y-98855171D01*
X120123240Y-98785715D01*
X119912831Y-98276485D01*
X119725157Y-98088483D01*
X132946088Y-98088483D01*
X133738000Y-98880395D01*
X134529912Y-98088483D01*
X134461923Y-97847540D01*
X133942829Y-97662799D01*
X133392552Y-97690770D01*
X133014077Y-97847540D01*
X132946088Y-98088483D01*
X119725157Y-98088483D01*
X119523564Y-97886539D01*
X119014702Y-97675241D01*
X118463715Y-97674760D01*
X117954485Y-97885169D01*
X117564539Y-98274436D01*
X117353241Y-98783298D01*
X117352760Y-99334285D01*
X98359500Y-99334285D01*
X98359500Y-99050963D01*
X98391692Y-99018827D01*
X98534338Y-98675299D01*
X98534662Y-98303333D01*
X98392617Y-97959557D01*
X98359500Y-97926382D01*
X98359500Y-94605963D01*
X98391692Y-94573827D01*
X98534338Y-94230299D01*
X98534662Y-93858333D01*
X98392617Y-93514557D01*
X98359500Y-93481382D01*
X98359500Y-90160963D01*
X98391692Y-90128827D01*
X98534338Y-89785299D01*
X98534662Y-89413333D01*
X98392617Y-89069557D01*
X98359500Y-89036382D01*
X98359500Y-85715963D01*
X98391692Y-85683827D01*
X98534338Y-85340299D01*
X98534662Y-84968333D01*
X98392617Y-84624557D01*
X98359500Y-84591382D01*
X98359500Y-81270963D01*
X98391692Y-81238827D01*
X98534338Y-80895299D01*
X98534662Y-80523333D01*
X98392617Y-80179557D01*
X98359500Y-80146382D01*
X98359500Y-76825963D01*
X98391692Y-76793827D01*
X98534338Y-76450299D01*
X98534662Y-76078333D01*
X98392617Y-75734557D01*
X98359500Y-75701382D01*
X98359500Y-73015963D01*
X98391692Y-72983827D01*
X98534338Y-72640299D01*
X98534662Y-72268333D01*
X98392617Y-71924557D01*
X98129827Y-71661308D01*
X97786299Y-71518662D01*
X97414333Y-71518338D01*
X97070557Y-71660383D01*
X96807308Y-71923173D01*
X96664662Y-72266701D01*
X96664338Y-72638667D01*
X95359339Y-72638667D01*
X95359662Y-72268333D01*
X95217617Y-71924557D01*
X94954827Y-71661308D01*
X94611299Y-71518662D01*
X94239333Y-71518338D01*
X93895557Y-71660383D01*
X93632308Y-71923173D01*
X93489662Y-72266701D01*
X93489338Y-72638667D01*
X92184339Y-72638667D01*
X92184662Y-72268333D01*
X92042617Y-71924557D01*
X91779827Y-71661308D01*
X91436299Y-71518662D01*
X91064333Y-71518338D01*
X90720557Y-71660383D01*
X90457308Y-71923173D01*
X90314662Y-72266701D01*
X90314338Y-72638667D01*
X89009339Y-72638667D01*
X89009662Y-72268333D01*
X88867617Y-71924557D01*
X88604827Y-71661308D01*
X88261299Y-71518662D01*
X87889333Y-71518338D01*
X87545557Y-71660383D01*
X87282308Y-71923173D01*
X87139662Y-72266701D01*
X87139338Y-72638667D01*
X85834339Y-72638667D01*
X85834662Y-72268333D01*
X85692617Y-71924557D01*
X85429827Y-71661308D01*
X85086299Y-71518662D01*
X84714333Y-71518338D01*
X84370557Y-71660383D01*
X84107308Y-71923173D01*
X83964662Y-72266701D01*
X83964338Y-72638667D01*
X82659339Y-72638667D01*
X82659662Y-72268333D01*
X82517617Y-71924557D01*
X82254827Y-71661308D01*
X81911299Y-71518662D01*
X81539333Y-71518338D01*
X81195557Y-71660383D01*
X80932308Y-71923173D01*
X80789662Y-72266701D01*
X80789338Y-72638667D01*
X79484339Y-72638667D01*
X79484662Y-72268333D01*
X79342617Y-71924557D01*
X79079827Y-71661308D01*
X78736299Y-71518662D01*
X78364333Y-71518338D01*
X78020557Y-71660383D01*
X77757308Y-71923173D01*
X77614662Y-72266701D01*
X77614338Y-72638667D01*
X76309339Y-72638667D01*
X76309662Y-72268333D01*
X76167617Y-71924557D01*
X75904827Y-71661308D01*
X75561299Y-71518662D01*
X75189333Y-71518338D01*
X74845557Y-71660383D01*
X74582308Y-71923173D01*
X74439662Y-72266701D01*
X74439338Y-72638667D01*
X73134339Y-72638667D01*
X73134662Y-72268333D01*
X72992617Y-71924557D01*
X72729827Y-71661308D01*
X72386299Y-71518662D01*
X72014333Y-71518338D01*
X71689509Y-71652552D01*
X71819617Y-71565617D01*
X72409661Y-70975573D01*
X72511667Y-70975662D01*
X72855443Y-70833617D01*
X73118692Y-70570827D01*
X73261338Y-70227299D01*
X73261662Y-69855333D01*
X73119617Y-69511557D01*
X72959500Y-69351160D01*
X72959500Y-68570963D01*
X72991692Y-68538827D01*
X73134338Y-68195299D01*
X73134662Y-67823333D01*
X72992617Y-67479557D01*
X72959500Y-67446382D01*
X72959500Y-64125963D01*
X72991692Y-64093827D01*
X73134338Y-63750299D01*
X73134662Y-63378333D01*
X72992617Y-63034557D01*
X72959500Y-63001382D01*
X72959500Y-59680963D01*
X72991692Y-59648827D01*
X73134338Y-59305299D01*
X73134662Y-58933333D01*
X72992617Y-58589557D01*
X72959500Y-58556382D01*
X72959500Y-55235963D01*
X72991692Y-55203827D01*
X73134338Y-54860299D01*
X73134662Y-54488333D01*
X72992617Y-54144557D01*
X72959500Y-54111382D01*
X72959500Y-50790963D01*
X72991692Y-50758827D01*
X73134338Y-50415299D01*
X73134662Y-50043333D01*
X72992617Y-49699557D01*
X72959500Y-49666382D01*
X72959500Y-46345963D01*
X72991692Y-46313827D01*
X73134338Y-45970299D01*
X73134662Y-45598333D01*
X72992617Y-45254557D01*
X72959500Y-45221382D01*
X72959500Y-41900963D01*
X72991692Y-41868827D01*
X73134338Y-41525299D01*
X73134662Y-41153333D01*
X72992617Y-40809557D01*
X72959500Y-40776382D01*
X72959500Y-37455963D01*
X72991692Y-37423827D01*
X73134338Y-37080299D01*
X73134339Y-37078667D01*
X74439338Y-37078667D01*
X74581383Y-37422443D01*
X74614500Y-37455618D01*
X74614500Y-40776037D01*
X74582308Y-40808173D01*
X74439662Y-41151701D01*
X74439338Y-41523667D01*
X74581383Y-41867443D01*
X74614500Y-41900618D01*
X74614500Y-45221037D01*
X74582308Y-45253173D01*
X74439662Y-45596701D01*
X74439338Y-45968667D01*
X74581383Y-46312443D01*
X74614500Y-46345618D01*
X74614500Y-49666037D01*
X74582308Y-49698173D01*
X74439662Y-50041701D01*
X74439338Y-50413667D01*
X74581383Y-50757443D01*
X74614500Y-50790618D01*
X74614500Y-54111037D01*
X74582308Y-54143173D01*
X74439662Y-54486701D01*
X74439338Y-54858667D01*
X74581383Y-55202443D01*
X74614500Y-55235618D01*
X74614500Y-58556037D01*
X74582308Y-58588173D01*
X74439662Y-58931701D01*
X74439338Y-59303667D01*
X74581383Y-59647443D01*
X74614500Y-59680618D01*
X74614500Y-63001037D01*
X74582308Y-63033173D01*
X74439662Y-63376701D01*
X74439338Y-63748667D01*
X74581383Y-64092443D01*
X74614500Y-64125618D01*
X74614500Y-67446037D01*
X74582308Y-67478173D01*
X74439662Y-67821701D01*
X74439338Y-68193667D01*
X74581383Y-68537443D01*
X74844173Y-68800692D01*
X75187701Y-68943338D01*
X75559667Y-68943662D01*
X75903443Y-68801617D01*
X76166692Y-68538827D01*
X76309338Y-68195299D01*
X76309662Y-67823333D01*
X76167617Y-67479557D01*
X76134500Y-67446382D01*
X76134500Y-64125963D01*
X76166692Y-64093827D01*
X76309338Y-63750299D01*
X76309662Y-63378333D01*
X76167617Y-63034557D01*
X76134500Y-63001382D01*
X76134500Y-59680963D01*
X76166692Y-59648827D01*
X76309338Y-59305299D01*
X76309662Y-58933333D01*
X76167617Y-58589557D01*
X76134500Y-58556382D01*
X76134500Y-55235963D01*
X76166692Y-55203827D01*
X76309338Y-54860299D01*
X76309662Y-54488333D01*
X76167617Y-54144557D01*
X76134500Y-54111382D01*
X76134500Y-50790963D01*
X76166692Y-50758827D01*
X76309338Y-50415299D01*
X76309662Y-50043333D01*
X76167617Y-49699557D01*
X76134500Y-49666382D01*
X76134500Y-46345963D01*
X76166692Y-46313827D01*
X76309338Y-45970299D01*
X76309662Y-45598333D01*
X76167617Y-45254557D01*
X76134500Y-45221382D01*
X76134500Y-41900963D01*
X76166692Y-41868827D01*
X76309338Y-41525299D01*
X76309662Y-41153333D01*
X76167617Y-40809557D01*
X76134500Y-40776382D01*
X76134500Y-37455963D01*
X76166692Y-37423827D01*
X76309338Y-37080299D01*
X76309339Y-37078667D01*
X77614338Y-37078667D01*
X77756383Y-37422443D01*
X77789500Y-37455618D01*
X77789500Y-40776037D01*
X77757308Y-40808173D01*
X77614662Y-41151701D01*
X77614338Y-41523667D01*
X77756383Y-41867443D01*
X77789500Y-41900618D01*
X77789500Y-45221037D01*
X77757308Y-45253173D01*
X77614662Y-45596701D01*
X77614338Y-45968667D01*
X77756383Y-46312443D01*
X77789500Y-46345618D01*
X77789500Y-49666037D01*
X77757308Y-49698173D01*
X77614662Y-50041701D01*
X77614338Y-50413667D01*
X77756383Y-50757443D01*
X77789500Y-50790618D01*
X77789500Y-54111037D01*
X77757308Y-54143173D01*
X77614662Y-54486701D01*
X77614338Y-54858667D01*
X77756383Y-55202443D01*
X77789500Y-55235618D01*
X77789500Y-58556037D01*
X77757308Y-58588173D01*
X77614662Y-58931701D01*
X77614338Y-59303667D01*
X77756383Y-59647443D01*
X77789500Y-59680618D01*
X77789500Y-63001037D01*
X77757308Y-63033173D01*
X77614662Y-63376701D01*
X77614338Y-63748667D01*
X77756383Y-64092443D01*
X77789500Y-64125618D01*
X77789500Y-67446037D01*
X77757308Y-67478173D01*
X77614662Y-67821701D01*
X77614338Y-68193667D01*
X77756383Y-68537443D01*
X78019173Y-68800692D01*
X78362701Y-68943338D01*
X78734667Y-68943662D01*
X79078443Y-68801617D01*
X79341692Y-68538827D01*
X79484338Y-68195299D01*
X79484662Y-67823333D01*
X79342617Y-67479557D01*
X79309500Y-67446382D01*
X79309500Y-64125963D01*
X79341692Y-64093827D01*
X79484338Y-63750299D01*
X79484662Y-63378333D01*
X79342617Y-63034557D01*
X79309500Y-63001382D01*
X79309500Y-59680963D01*
X79341692Y-59648827D01*
X79484338Y-59305299D01*
X79484662Y-58933333D01*
X79342617Y-58589557D01*
X79309500Y-58556382D01*
X79309500Y-55235963D01*
X79341692Y-55203827D01*
X79484338Y-54860299D01*
X79484662Y-54488333D01*
X79342617Y-54144557D01*
X79309500Y-54111382D01*
X79309500Y-50790963D01*
X79341692Y-50758827D01*
X79484338Y-50415299D01*
X79484662Y-50043333D01*
X79342617Y-49699557D01*
X79309500Y-49666382D01*
X79309500Y-46345963D01*
X79341692Y-46313827D01*
X79484338Y-45970299D01*
X79484662Y-45598333D01*
X79342617Y-45254557D01*
X79309500Y-45221382D01*
X79309500Y-41900963D01*
X79341692Y-41868827D01*
X79484338Y-41525299D01*
X79484662Y-41153333D01*
X79342617Y-40809557D01*
X79309500Y-40776382D01*
X79309500Y-37455963D01*
X79341692Y-37423827D01*
X79484338Y-37080299D01*
X79484339Y-37078667D01*
X80789338Y-37078667D01*
X80931383Y-37422443D01*
X80964500Y-37455618D01*
X80964500Y-40776037D01*
X80932308Y-40808173D01*
X80789662Y-41151701D01*
X80789338Y-41523667D01*
X80931383Y-41867443D01*
X80964500Y-41900618D01*
X80964500Y-45221037D01*
X80932308Y-45253173D01*
X80789662Y-45596701D01*
X80789338Y-45968667D01*
X80931383Y-46312443D01*
X80964500Y-46345618D01*
X80964500Y-49666037D01*
X80932308Y-49698173D01*
X80789662Y-50041701D01*
X80789338Y-50413667D01*
X80931383Y-50757443D01*
X80964500Y-50790618D01*
X80964500Y-54111037D01*
X80932308Y-54143173D01*
X80789662Y-54486701D01*
X80789338Y-54858667D01*
X80931383Y-55202443D01*
X80964500Y-55235618D01*
X80964500Y-58556037D01*
X80932308Y-58588173D01*
X80789662Y-58931701D01*
X80789338Y-59303667D01*
X80931383Y-59647443D01*
X80964500Y-59680618D01*
X80964500Y-63001037D01*
X80932308Y-63033173D01*
X80789662Y-63376701D01*
X80789338Y-63748667D01*
X80931383Y-64092443D01*
X80964500Y-64125618D01*
X80964500Y-67446037D01*
X80932308Y-67478173D01*
X80789662Y-67821701D01*
X80789338Y-68193667D01*
X80931383Y-68537443D01*
X81194173Y-68800692D01*
X81537701Y-68943338D01*
X81909667Y-68943662D01*
X82253443Y-68801617D01*
X82516692Y-68538827D01*
X82659338Y-68195299D01*
X82659662Y-67823333D01*
X82517617Y-67479557D01*
X82484500Y-67446382D01*
X82484500Y-64125963D01*
X82516692Y-64093827D01*
X82659338Y-63750299D01*
X82659662Y-63378333D01*
X82517617Y-63034557D01*
X82484500Y-63001382D01*
X82484500Y-59680963D01*
X82516692Y-59648827D01*
X82659338Y-59305299D01*
X82659662Y-58933333D01*
X82517617Y-58589557D01*
X82484500Y-58556382D01*
X82484500Y-55235963D01*
X82516692Y-55203827D01*
X82659338Y-54860299D01*
X82659662Y-54488333D01*
X82517617Y-54144557D01*
X82484500Y-54111382D01*
X82484500Y-50790963D01*
X82516692Y-50758827D01*
X82659338Y-50415299D01*
X82659662Y-50043333D01*
X82517617Y-49699557D01*
X82484500Y-49666382D01*
X82484500Y-46345963D01*
X82516692Y-46313827D01*
X82659338Y-45970299D01*
X82659662Y-45598333D01*
X82517617Y-45254557D01*
X82484500Y-45221382D01*
X82484500Y-41900963D01*
X82516692Y-41868827D01*
X82659338Y-41525299D01*
X82659662Y-41153333D01*
X82517617Y-40809557D01*
X82484500Y-40776382D01*
X82484500Y-37455963D01*
X82516692Y-37423827D01*
X82659338Y-37080299D01*
X82659339Y-37078667D01*
X83964338Y-37078667D01*
X84106383Y-37422443D01*
X84139500Y-37455618D01*
X84139500Y-40776037D01*
X84107308Y-40808173D01*
X83964662Y-41151701D01*
X83964338Y-41523667D01*
X84106383Y-41867443D01*
X84139500Y-41900618D01*
X84139500Y-45221037D01*
X84107308Y-45253173D01*
X83964662Y-45596701D01*
X83964338Y-45968667D01*
X84106383Y-46312443D01*
X84139500Y-46345618D01*
X84139500Y-49666037D01*
X84107308Y-49698173D01*
X83964662Y-50041701D01*
X83964338Y-50413667D01*
X84106383Y-50757443D01*
X84139500Y-50790618D01*
X84139500Y-54111037D01*
X84107308Y-54143173D01*
X83964662Y-54486701D01*
X83964338Y-54858667D01*
X84106383Y-55202443D01*
X84139500Y-55235618D01*
X84139500Y-58556037D01*
X84107308Y-58588173D01*
X83964662Y-58931701D01*
X83964338Y-59303667D01*
X84106383Y-59647443D01*
X84139500Y-59680618D01*
X84139500Y-63001037D01*
X84107308Y-63033173D01*
X83964662Y-63376701D01*
X83964338Y-63748667D01*
X84106383Y-64092443D01*
X84139500Y-64125618D01*
X84139500Y-67446037D01*
X84107308Y-67478173D01*
X83964662Y-67821701D01*
X83964338Y-68193667D01*
X84106383Y-68537443D01*
X84369173Y-68800692D01*
X84712701Y-68943338D01*
X85084667Y-68943662D01*
X85428443Y-68801617D01*
X85691692Y-68538827D01*
X85834338Y-68195299D01*
X85834662Y-67823333D01*
X85692617Y-67479557D01*
X85659500Y-67446382D01*
X85659500Y-64125963D01*
X85691692Y-64093827D01*
X85834338Y-63750299D01*
X85834662Y-63378333D01*
X85692617Y-63034557D01*
X85659500Y-63001382D01*
X85659500Y-59680963D01*
X85691692Y-59648827D01*
X85834338Y-59305299D01*
X85834662Y-58933333D01*
X85692617Y-58589557D01*
X85659500Y-58556382D01*
X85659500Y-55235963D01*
X85691692Y-55203827D01*
X85834338Y-54860299D01*
X85834662Y-54488333D01*
X85692617Y-54144557D01*
X85659500Y-54111382D01*
X85659500Y-50790963D01*
X85691692Y-50758827D01*
X85834338Y-50415299D01*
X85834662Y-50043333D01*
X85692617Y-49699557D01*
X85659500Y-49666382D01*
X85659500Y-46345963D01*
X85691692Y-46313827D01*
X85834338Y-45970299D01*
X85834662Y-45598333D01*
X85692617Y-45254557D01*
X85659500Y-45221382D01*
X85659500Y-41900963D01*
X85691692Y-41868827D01*
X85834338Y-41525299D01*
X85834662Y-41153333D01*
X85692617Y-40809557D01*
X85659500Y-40776382D01*
X85659500Y-37455963D01*
X85691692Y-37423827D01*
X85834338Y-37080299D01*
X85834339Y-37078667D01*
X87139338Y-37078667D01*
X87281383Y-37422443D01*
X87314500Y-37455618D01*
X87314500Y-40776037D01*
X87282308Y-40808173D01*
X87139662Y-41151701D01*
X87139338Y-41523667D01*
X87281383Y-41867443D01*
X87314500Y-41900618D01*
X87314500Y-45221037D01*
X87282308Y-45253173D01*
X87139662Y-45596701D01*
X87139338Y-45968667D01*
X87281383Y-46312443D01*
X87314500Y-46345618D01*
X87314500Y-49666037D01*
X87282308Y-49698173D01*
X87139662Y-50041701D01*
X87139338Y-50413667D01*
X87281383Y-50757443D01*
X87314500Y-50790618D01*
X87314500Y-54111037D01*
X87282308Y-54143173D01*
X87139662Y-54486701D01*
X87139338Y-54858667D01*
X87281383Y-55202443D01*
X87314500Y-55235618D01*
X87314500Y-58556037D01*
X87282308Y-58588173D01*
X87139662Y-58931701D01*
X87139338Y-59303667D01*
X87281383Y-59647443D01*
X87314500Y-59680618D01*
X87314500Y-63001037D01*
X87282308Y-63033173D01*
X87139662Y-63376701D01*
X87139338Y-63748667D01*
X87281383Y-64092443D01*
X87314500Y-64125618D01*
X87314500Y-67446037D01*
X87282308Y-67478173D01*
X87139662Y-67821701D01*
X87139338Y-68193667D01*
X87281383Y-68537443D01*
X87544173Y-68800692D01*
X87887701Y-68943338D01*
X88259667Y-68943662D01*
X88603443Y-68801617D01*
X88866692Y-68538827D01*
X89009338Y-68195299D01*
X89009662Y-67823333D01*
X88867617Y-67479557D01*
X88834500Y-67446382D01*
X88834500Y-64125963D01*
X88866692Y-64093827D01*
X89009338Y-63750299D01*
X89009662Y-63378333D01*
X88867617Y-63034557D01*
X88834500Y-63001382D01*
X88834500Y-59680963D01*
X88866692Y-59648827D01*
X89009338Y-59305299D01*
X89009662Y-58933333D01*
X88867617Y-58589557D01*
X88834500Y-58556382D01*
X88834500Y-55235963D01*
X88866692Y-55203827D01*
X89009338Y-54860299D01*
X89009662Y-54488333D01*
X88867617Y-54144557D01*
X88834500Y-54111382D01*
X88834500Y-50790963D01*
X88866692Y-50758827D01*
X89009338Y-50415299D01*
X89009662Y-50043333D01*
X88867617Y-49699557D01*
X88834500Y-49666382D01*
X88834500Y-46345963D01*
X88866692Y-46313827D01*
X89009338Y-45970299D01*
X89009662Y-45598333D01*
X88867617Y-45254557D01*
X88834500Y-45221382D01*
X88834500Y-41900963D01*
X88866692Y-41868827D01*
X89009338Y-41525299D01*
X89009662Y-41153333D01*
X88867617Y-40809557D01*
X88834500Y-40776382D01*
X88834500Y-37455963D01*
X88866692Y-37423827D01*
X89009338Y-37080299D01*
X89009339Y-37078667D01*
X90314338Y-37078667D01*
X90456383Y-37422443D01*
X90489500Y-37455618D01*
X90489500Y-40776037D01*
X90457308Y-40808173D01*
X90314662Y-41151701D01*
X90314338Y-41523667D01*
X90456383Y-41867443D01*
X90489500Y-41900618D01*
X90489500Y-45221037D01*
X90457308Y-45253173D01*
X90314662Y-45596701D01*
X90314338Y-45968667D01*
X90456383Y-46312443D01*
X90489500Y-46345618D01*
X90489500Y-49666037D01*
X90457308Y-49698173D01*
X90314662Y-50041701D01*
X90314338Y-50413667D01*
X90456383Y-50757443D01*
X90489500Y-50790618D01*
X90489500Y-54111037D01*
X90457308Y-54143173D01*
X90314662Y-54486701D01*
X90314338Y-54858667D01*
X90456383Y-55202443D01*
X90489500Y-55235618D01*
X90489500Y-58556037D01*
X90457308Y-58588173D01*
X90314662Y-58931701D01*
X90314338Y-59303667D01*
X90456383Y-59647443D01*
X90489500Y-59680618D01*
X90489500Y-63001037D01*
X90457308Y-63033173D01*
X90314662Y-63376701D01*
X90314338Y-63748667D01*
X90456383Y-64092443D01*
X90489500Y-64125618D01*
X90489500Y-67446037D01*
X90457308Y-67478173D01*
X90314662Y-67821701D01*
X90314338Y-68193667D01*
X90456383Y-68537443D01*
X90719173Y-68800692D01*
X91062701Y-68943338D01*
X91434667Y-68943662D01*
X91778443Y-68801617D01*
X92041692Y-68538827D01*
X92184338Y-68195299D01*
X92184662Y-67823333D01*
X92042617Y-67479557D01*
X92009500Y-67446382D01*
X92009500Y-64125963D01*
X92041692Y-64093827D01*
X92184338Y-63750299D01*
X92184662Y-63378333D01*
X92042617Y-63034557D01*
X92009500Y-63001382D01*
X92009500Y-59680963D01*
X92041692Y-59648827D01*
X92184338Y-59305299D01*
X92184662Y-58933333D01*
X92042617Y-58589557D01*
X92009500Y-58556382D01*
X92009500Y-55235963D01*
X92041692Y-55203827D01*
X92184338Y-54860299D01*
X92184662Y-54488333D01*
X92042617Y-54144557D01*
X92009500Y-54111382D01*
X92009500Y-50790963D01*
X92041692Y-50758827D01*
X92184338Y-50415299D01*
X92184662Y-50043333D01*
X92042617Y-49699557D01*
X92009500Y-49666382D01*
X92009500Y-46345963D01*
X92041692Y-46313827D01*
X92184338Y-45970299D01*
X92184662Y-45598333D01*
X92042617Y-45254557D01*
X92009500Y-45221382D01*
X92009500Y-41900963D01*
X92041692Y-41868827D01*
X92184338Y-41525299D01*
X92184662Y-41153333D01*
X92042617Y-40809557D01*
X92009500Y-40776382D01*
X92009500Y-37455963D01*
X92041692Y-37423827D01*
X92184338Y-37080299D01*
X92184339Y-37078667D01*
X93489338Y-37078667D01*
X93631383Y-37422443D01*
X93664500Y-37455618D01*
X93664500Y-40776037D01*
X93632308Y-40808173D01*
X93489662Y-41151701D01*
X93489338Y-41523667D01*
X93631383Y-41867443D01*
X93664500Y-41900618D01*
X93664500Y-45221037D01*
X93632308Y-45253173D01*
X93489662Y-45596701D01*
X93489338Y-45968667D01*
X93631383Y-46312443D01*
X93664500Y-46345618D01*
X93664500Y-49666037D01*
X93632308Y-49698173D01*
X93489662Y-50041701D01*
X93489338Y-50413667D01*
X93631383Y-50757443D01*
X93664500Y-50790618D01*
X93664500Y-54111037D01*
X93632308Y-54143173D01*
X93489662Y-54486701D01*
X93489338Y-54858667D01*
X93631383Y-55202443D01*
X93664500Y-55235618D01*
X93664500Y-58556037D01*
X93632308Y-58588173D01*
X93489662Y-58931701D01*
X93489338Y-59303667D01*
X93631383Y-59647443D01*
X93664500Y-59680618D01*
X93664500Y-63001037D01*
X93632308Y-63033173D01*
X93489662Y-63376701D01*
X93489338Y-63748667D01*
X93631383Y-64092443D01*
X93664500Y-64125618D01*
X93664500Y-67446037D01*
X93632308Y-67478173D01*
X93489662Y-67821701D01*
X93489338Y-68193667D01*
X93631383Y-68537443D01*
X93894173Y-68800692D01*
X94237701Y-68943338D01*
X94609667Y-68943662D01*
X94953443Y-68801617D01*
X95216692Y-68538827D01*
X95359338Y-68195299D01*
X95359662Y-67823333D01*
X95217617Y-67479557D01*
X95184500Y-67446382D01*
X95184500Y-64125963D01*
X95216692Y-64093827D01*
X95359338Y-63750299D01*
X95359662Y-63378333D01*
X95217617Y-63034557D01*
X95184500Y-63001382D01*
X95184500Y-59680963D01*
X95216692Y-59648827D01*
X95359338Y-59305299D01*
X95359662Y-58933333D01*
X95217617Y-58589557D01*
X95184500Y-58556382D01*
X95184500Y-55235963D01*
X95216692Y-55203827D01*
X95359338Y-54860299D01*
X95359662Y-54488333D01*
X95217617Y-54144557D01*
X95184500Y-54111382D01*
X95184500Y-50790963D01*
X95216692Y-50758827D01*
X95359338Y-50415299D01*
X95359662Y-50043333D01*
X95217617Y-49699557D01*
X95184500Y-49666382D01*
X95184500Y-46345963D01*
X95216692Y-46313827D01*
X95359338Y-45970299D01*
X95359662Y-45598333D01*
X95217617Y-45254557D01*
X95184500Y-45221382D01*
X95184500Y-41900963D01*
X95216692Y-41868827D01*
X95359338Y-41525299D01*
X95359662Y-41153333D01*
X95217617Y-40809557D01*
X95184500Y-40776382D01*
X95184500Y-37455963D01*
X95216692Y-37423827D01*
X95359338Y-37080299D01*
X95359339Y-37078667D01*
X96664338Y-37078667D01*
X96806383Y-37422443D01*
X96839500Y-37455618D01*
X96839500Y-40776037D01*
X96807308Y-40808173D01*
X96664662Y-41151701D01*
X96664338Y-41523667D01*
X96806383Y-41867443D01*
X96839500Y-41900618D01*
X96839500Y-45221037D01*
X96807308Y-45253173D01*
X96664662Y-45596701D01*
X96664338Y-45968667D01*
X96806383Y-46312443D01*
X96839500Y-46345618D01*
X96839500Y-49666037D01*
X96807308Y-49698173D01*
X96664662Y-50041701D01*
X96664338Y-50413667D01*
X96806383Y-50757443D01*
X96839500Y-50790618D01*
X96839500Y-54111037D01*
X96807308Y-54143173D01*
X96664662Y-54486701D01*
X96664338Y-54858667D01*
X96806383Y-55202443D01*
X96839500Y-55235618D01*
X96839500Y-58556037D01*
X96807308Y-58588173D01*
X96664662Y-58931701D01*
X96664338Y-59303667D01*
X96806383Y-59647443D01*
X96839500Y-59680618D01*
X96839500Y-63001037D01*
X96807308Y-63033173D01*
X96664662Y-63376701D01*
X96664338Y-63748667D01*
X96806383Y-64092443D01*
X96839500Y-64125618D01*
X96839500Y-67446037D01*
X96807308Y-67478173D01*
X96664662Y-67821701D01*
X96664338Y-68193667D01*
X96806383Y-68537443D01*
X97069173Y-68800692D01*
X97412701Y-68943338D01*
X97784667Y-68943662D01*
X98128443Y-68801617D01*
X98391692Y-68538827D01*
X98534338Y-68195299D01*
X98534662Y-67823333D01*
X98392617Y-67479557D01*
X98359500Y-67446382D01*
X98359500Y-64125963D01*
X98391692Y-64093827D01*
X98534338Y-63750299D01*
X98534662Y-63378333D01*
X98392617Y-63034557D01*
X98359500Y-63001382D01*
X98359500Y-59680963D01*
X98391692Y-59648827D01*
X98534338Y-59305299D01*
X98534662Y-58933333D01*
X98392617Y-58589557D01*
X98359500Y-58556382D01*
X98359500Y-55235963D01*
X98391692Y-55203827D01*
X98534338Y-54860299D01*
X98534662Y-54488333D01*
X98392617Y-54144557D01*
X98359500Y-54111382D01*
X98359500Y-50790963D01*
X98391692Y-50758827D01*
X98534338Y-50415299D01*
X98534662Y-50043333D01*
X98392617Y-49699557D01*
X98359500Y-49666382D01*
X98359500Y-46345963D01*
X98371198Y-46334285D01*
X117352760Y-46334285D01*
X117563169Y-46843515D01*
X117952436Y-47233461D01*
X118461298Y-47444759D01*
X119012285Y-47445240D01*
X119521515Y-47234831D01*
X119911461Y-46845564D01*
X120122759Y-46336702D01*
X120122761Y-46334285D01*
X132352760Y-46334285D01*
X132563169Y-46843515D01*
X132952436Y-47233461D01*
X133461298Y-47444759D01*
X134012285Y-47445240D01*
X134521515Y-47234831D01*
X134911461Y-46845564D01*
X135122759Y-46336702D01*
X135123240Y-45785715D01*
X134912831Y-45276485D01*
X134523564Y-44886539D01*
X134014702Y-44675241D01*
X133463715Y-44674760D01*
X132954485Y-44885169D01*
X132564539Y-45274436D01*
X132353241Y-45783298D01*
X132352760Y-46334285D01*
X120122761Y-46334285D01*
X120123240Y-45785715D01*
X119912831Y-45276485D01*
X119523564Y-44886539D01*
X119014702Y-44675241D01*
X118463715Y-44674760D01*
X117954485Y-44885169D01*
X117564539Y-45274436D01*
X117353241Y-45783298D01*
X117352760Y-46334285D01*
X98371198Y-46334285D01*
X98391692Y-46313827D01*
X98534338Y-45970299D01*
X98534662Y-45598333D01*
X98392617Y-45254557D01*
X98359500Y-45221382D01*
X98359500Y-41900963D01*
X98391692Y-41868827D01*
X98534338Y-41525299D01*
X98534662Y-41153333D01*
X98392617Y-40809557D01*
X98359500Y-40776382D01*
X98359500Y-37455963D01*
X98391692Y-37423827D01*
X98534338Y-37080299D01*
X98534662Y-36708333D01*
X98392617Y-36364557D01*
X98129827Y-36101308D01*
X97786299Y-35958662D01*
X97414333Y-35958338D01*
X97070557Y-36100383D01*
X96807308Y-36363173D01*
X96664662Y-36706701D01*
X96664338Y-37078667D01*
X95359339Y-37078667D01*
X95359662Y-36708333D01*
X95217617Y-36364557D01*
X94954827Y-36101308D01*
X94611299Y-35958662D01*
X94239333Y-35958338D01*
X93895557Y-36100383D01*
X93632308Y-36363173D01*
X93489662Y-36706701D01*
X93489338Y-37078667D01*
X92184339Y-37078667D01*
X92184662Y-36708333D01*
X92042617Y-36364557D01*
X91779827Y-36101308D01*
X91436299Y-35958662D01*
X91064333Y-35958338D01*
X90720557Y-36100383D01*
X90457308Y-36363173D01*
X90314662Y-36706701D01*
X90314338Y-37078667D01*
X89009339Y-37078667D01*
X89009662Y-36708333D01*
X88867617Y-36364557D01*
X88604827Y-36101308D01*
X88261299Y-35958662D01*
X87889333Y-35958338D01*
X87545557Y-36100383D01*
X87282308Y-36363173D01*
X87139662Y-36706701D01*
X87139338Y-37078667D01*
X85834339Y-37078667D01*
X85834662Y-36708333D01*
X85692617Y-36364557D01*
X85429827Y-36101308D01*
X85086299Y-35958662D01*
X84714333Y-35958338D01*
X84370557Y-36100383D01*
X84107308Y-36363173D01*
X83964662Y-36706701D01*
X83964338Y-37078667D01*
X82659339Y-37078667D01*
X82659662Y-36708333D01*
X82517617Y-36364557D01*
X82254827Y-36101308D01*
X81911299Y-35958662D01*
X81539333Y-35958338D01*
X81195557Y-36100383D01*
X80932308Y-36363173D01*
X80789662Y-36706701D01*
X80789338Y-37078667D01*
X79484339Y-37078667D01*
X79484662Y-36708333D01*
X79342617Y-36364557D01*
X79079827Y-36101308D01*
X78736299Y-35958662D01*
X78364333Y-35958338D01*
X78020557Y-36100383D01*
X77757308Y-36363173D01*
X77614662Y-36706701D01*
X77614338Y-37078667D01*
X76309339Y-37078667D01*
X76309662Y-36708333D01*
X76167617Y-36364557D01*
X75904827Y-36101308D01*
X75561299Y-35958662D01*
X75189333Y-35958338D01*
X74845557Y-36100383D01*
X74582308Y-36363173D01*
X74439662Y-36706701D01*
X74439338Y-37078667D01*
X73134339Y-37078667D01*
X73134662Y-36708333D01*
X72992617Y-36364557D01*
X72729827Y-36101308D01*
X72386299Y-35958662D01*
X72014333Y-35958338D01*
X71670557Y-36100383D01*
X71407308Y-36363173D01*
X71264662Y-36706701D01*
X71264338Y-37078667D01*
X71406383Y-37422443D01*
X71439500Y-37455618D01*
X71439500Y-40776037D01*
X71407308Y-40808173D01*
X71264662Y-41151701D01*
X71264338Y-41523667D01*
X71406383Y-41867443D01*
X71439500Y-41900618D01*
X71439500Y-43586453D01*
X71341617Y-43349557D01*
X71078827Y-43086308D01*
X70735299Y-42943662D01*
X70363333Y-42943338D01*
X70019557Y-43085383D01*
X69946312Y-43158500D01*
X69372893Y-43158500D01*
X69300827Y-43086308D01*
X68957299Y-42943662D01*
X68585333Y-42943338D01*
X68241557Y-43085383D01*
X67978308Y-43348173D01*
X67835662Y-43691701D01*
X67835338Y-44063667D01*
X67977383Y-44407443D01*
X68240173Y-44670692D01*
X68583701Y-44813338D01*
X68955667Y-44813662D01*
X69299443Y-44671617D01*
X69372688Y-44598500D01*
X69946107Y-44598500D01*
X70018173Y-44670692D01*
X70361701Y-44813338D01*
X70733667Y-44813662D01*
X71077443Y-44671617D01*
X71340692Y-44408827D01*
X71439500Y-44170872D01*
X71439500Y-45221037D01*
X71407308Y-45253173D01*
X71264662Y-45596701D01*
X71264338Y-45968667D01*
X71406383Y-46312443D01*
X71439500Y-46345618D01*
X71439500Y-48158453D01*
X71341617Y-47921557D01*
X71078827Y-47658308D01*
X70735299Y-47515662D01*
X70363333Y-47515338D01*
X70019557Y-47657383D01*
X69946312Y-47730500D01*
X68610893Y-47730500D01*
X68538827Y-47658308D01*
X68195299Y-47515662D01*
X67823333Y-47515338D01*
X67479557Y-47657383D01*
X67216308Y-47920173D01*
X67073662Y-48263701D01*
X67073338Y-48635667D01*
X67215383Y-48979443D01*
X67478173Y-49242692D01*
X67821701Y-49385338D01*
X68193667Y-49385662D01*
X68537443Y-49243617D01*
X68610688Y-49170500D01*
X69946107Y-49170500D01*
X70018173Y-49242692D01*
X70361701Y-49385338D01*
X70733667Y-49385662D01*
X71077443Y-49243617D01*
X71340692Y-48980827D01*
X71439500Y-48742872D01*
X71439500Y-49666037D01*
X71407308Y-49698173D01*
X71264662Y-50041701D01*
X71264338Y-50413667D01*
X71406383Y-50757443D01*
X71439500Y-50790618D01*
X71439500Y-52476453D01*
X71341617Y-52239557D01*
X71078827Y-51976308D01*
X70735299Y-51833662D01*
X70363333Y-51833338D01*
X70019557Y-51975383D01*
X69946312Y-52048500D01*
X68102893Y-52048500D01*
X68030827Y-51976308D01*
X67687299Y-51833662D01*
X67315333Y-51833338D01*
X66971557Y-51975383D01*
X66708308Y-52238173D01*
X66565662Y-52581701D01*
X66565338Y-52953667D01*
X66707383Y-53297443D01*
X66970173Y-53560692D01*
X67313701Y-53703338D01*
X67685667Y-53703662D01*
X68029443Y-53561617D01*
X68102688Y-53488500D01*
X69946107Y-53488500D01*
X70018173Y-53560692D01*
X70361701Y-53703338D01*
X70733667Y-53703662D01*
X71077443Y-53561617D01*
X71340692Y-53298827D01*
X71439500Y-53060872D01*
X71439500Y-54111037D01*
X71407308Y-54143173D01*
X71264662Y-54486701D01*
X71264338Y-54858667D01*
X71406383Y-55202443D01*
X71439500Y-55235618D01*
X71439500Y-57048453D01*
X71341617Y-56811557D01*
X71078827Y-56548308D01*
X70735299Y-56405662D01*
X70363333Y-56405338D01*
X70019557Y-56547383D01*
X69946312Y-56620500D01*
X67340893Y-56620500D01*
X67268827Y-56548308D01*
X66925299Y-56405662D01*
X66553333Y-56405338D01*
X66209557Y-56547383D01*
X65946308Y-56810173D01*
X65803662Y-57153701D01*
X65803338Y-57525667D01*
X65945383Y-57869443D01*
X66208173Y-58132692D01*
X66551701Y-58275338D01*
X66923667Y-58275662D01*
X67267443Y-58133617D01*
X67340688Y-58060500D01*
X69946107Y-58060500D01*
X70018173Y-58132692D01*
X70361701Y-58275338D01*
X70733667Y-58275662D01*
X71077443Y-58133617D01*
X71340692Y-57870827D01*
X71439500Y-57632872D01*
X71439500Y-58556037D01*
X71407308Y-58588173D01*
X71264662Y-58931701D01*
X71264338Y-59303667D01*
X71406383Y-59647443D01*
X71439500Y-59680618D01*
X71439500Y-61366453D01*
X71341617Y-61129557D01*
X71078827Y-60866308D01*
X70735299Y-60723662D01*
X70363333Y-60723338D01*
X70019557Y-60865383D01*
X69946312Y-60938500D01*
X66578893Y-60938500D01*
X66506827Y-60866308D01*
X66163299Y-60723662D01*
X65791333Y-60723338D01*
X65447557Y-60865383D01*
X65184308Y-61128173D01*
X65041662Y-61471701D01*
X65041338Y-61843667D01*
X65183383Y-62187443D01*
X65446173Y-62450692D01*
X65789701Y-62593338D01*
X66161667Y-62593662D01*
X66505443Y-62451617D01*
X66578688Y-62378500D01*
X69946107Y-62378500D01*
X70018173Y-62450692D01*
X70361701Y-62593338D01*
X70733667Y-62593662D01*
X71077443Y-62451617D01*
X71340692Y-62188827D01*
X71439500Y-61950872D01*
X71439500Y-63001037D01*
X71407308Y-63033173D01*
X71264662Y-63376701D01*
X71264338Y-63748667D01*
X71406383Y-64092443D01*
X71439500Y-64125618D01*
X71439500Y-65938453D01*
X71341617Y-65701557D01*
X71078827Y-65438308D01*
X70735299Y-65295662D01*
X70363333Y-65295338D01*
X70019557Y-65437383D01*
X69756308Y-65700173D01*
X69729597Y-65764500D01*
X65816893Y-65764500D01*
X65744827Y-65692308D01*
X65401299Y-65549662D01*
X65029333Y-65549338D01*
X64685557Y-65691383D01*
X64422308Y-65954173D01*
X64279662Y-66297701D01*
X64279338Y-66669667D01*
X64421383Y-67013443D01*
X64684173Y-67276692D01*
X65027701Y-67419338D01*
X65399667Y-67419662D01*
X65743443Y-67277617D01*
X65816688Y-67204500D01*
X70294500Y-67204500D01*
X70490814Y-67165450D01*
X70733667Y-67165662D01*
X71077443Y-67023617D01*
X71340692Y-66760827D01*
X71439500Y-66522872D01*
X71439500Y-67446037D01*
X71407308Y-67478173D01*
X71264662Y-67821701D01*
X71264338Y-68193667D01*
X71406383Y-68537443D01*
X71439500Y-68570618D01*
X71439500Y-69738495D01*
X71391662Y-69853701D01*
X71391572Y-69957194D01*
X71229653Y-70119113D01*
X71229662Y-70109333D01*
X71087617Y-69765557D01*
X70824827Y-69502308D01*
X70481299Y-69359662D01*
X70109333Y-69359338D01*
X69765557Y-69501383D01*
X69692312Y-69574500D01*
X65054893Y-69574500D01*
X64982827Y-69502308D01*
X64639299Y-69359662D01*
X64267333Y-69359338D01*
X63923557Y-69501383D01*
X63660308Y-69764173D01*
X63517662Y-70107701D01*
X63517429Y-70375349D01*
X63505333Y-70375338D01*
X63161557Y-70517383D01*
X62898308Y-70780173D01*
X62755662Y-71123701D01*
X62755338Y-71495667D01*
X21216819Y-71495667D01*
X21431009Y-71309539D01*
X22078863Y-70883219D01*
X22641441Y-70623302D01*
X23116060Y-70461992D01*
X23872734Y-70278410D01*
X25203462Y-70062078D01*
X25273400Y-70035952D01*
X25346816Y-70022412D01*
X25397384Y-69989637D01*
X25453837Y-69968548D01*
X25508451Y-69917649D01*
X25571099Y-69877044D01*
X25605276Y-69827411D01*
X25649361Y-69786324D01*
X25680341Y-69718396D01*
X25722679Y-69656910D01*
X25735260Y-69597979D01*
X25760267Y-69543147D01*
X25762894Y-69468535D01*
X25778480Y-69395526D01*
X25767551Y-69336265D01*
X25769671Y-69276039D01*
X25743545Y-69206101D01*
X25730005Y-69132685D01*
X25697230Y-69082117D01*
X25676141Y-69025664D01*
X25625243Y-68971051D01*
X25584637Y-68908402D01*
X25201098Y-68513991D01*
X24827810Y-68006913D01*
X24601956Y-67618490D01*
X24302757Y-66941211D01*
X24129216Y-66374948D01*
X24005283Y-65730752D01*
X23944590Y-64822503D01*
X23949544Y-64589869D01*
X24031103Y-63926904D01*
X24170314Y-63506073D01*
X24418476Y-63105376D01*
X24751673Y-62717264D01*
X24756646Y-62708437D01*
X24764434Y-62701955D01*
X25055695Y-62342010D01*
X25079038Y-62297604D01*
X25112541Y-62260255D01*
X25377048Y-61813762D01*
X25397589Y-61755410D01*
X25429992Y-61702717D01*
X25621011Y-61187409D01*
X25628588Y-61140045D01*
X25647808Y-61096101D01*
X25751548Y-60623210D01*
X25752148Y-60592609D01*
X25761891Y-60563592D01*
X25814646Y-60152372D01*
X25812802Y-60125600D01*
X25819351Y-60099578D01*
X25854129Y-59407327D01*
X25851374Y-59388612D01*
X25854986Y-59370042D01*
X25852994Y-58901981D01*
X25850308Y-58888772D01*
X25852367Y-58875451D01*
X25823629Y-58207518D01*
X25819874Y-58192131D01*
X25821578Y-58176387D01*
X25758302Y-57463660D01*
X25753488Y-57447222D01*
X25754490Y-57430120D01*
X25614375Y-56420004D01*
X25610217Y-56408028D01*
X25610497Y-56395355D01*
X25462231Y-55553154D01*
X25461301Y-55550761D01*
X25461339Y-55548196D01*
X25233188Y-54305795D01*
X25083987Y-53299257D01*
X25023310Y-52668396D01*
X24994919Y-52051569D01*
X25001312Y-51384355D01*
X25057918Y-50604289D01*
X25175614Y-49761643D01*
X25344873Y-48927531D01*
X25549914Y-48132007D01*
X25792106Y-47337971D01*
X26048707Y-46595354D01*
X26149939Y-46334285D01*
X31500760Y-46334285D01*
X31711169Y-46843515D01*
X32100436Y-47233461D01*
X32609298Y-47444759D01*
X33160285Y-47445240D01*
X33669515Y-47234831D01*
X34059461Y-46845564D01*
X34270759Y-46336702D01*
X34270761Y-46334285D01*
X46500760Y-46334285D01*
X46711169Y-46843515D01*
X47100436Y-47233461D01*
X47609298Y-47444759D01*
X48160285Y-47445240D01*
X48669515Y-47234831D01*
X49059461Y-46845564D01*
X49270759Y-46336702D01*
X49271240Y-45785715D01*
X49060831Y-45276485D01*
X48671564Y-44886539D01*
X48162702Y-44675241D01*
X47611715Y-44674760D01*
X47102485Y-44885169D01*
X46712539Y-45274436D01*
X46501241Y-45783298D01*
X46500760Y-46334285D01*
X34270761Y-46334285D01*
X34271240Y-45785715D01*
X34060831Y-45276485D01*
X33671564Y-44886539D01*
X33162702Y-44675241D01*
X32611715Y-44674760D01*
X32102485Y-44885169D01*
X31712539Y-45274436D01*
X31501241Y-45783298D01*
X31500760Y-46334285D01*
X26149939Y-46334285D01*
X26473857Y-45498931D01*
X26670169Y-45033225D01*
X26996601Y-44311094D01*
X27660917Y-43023730D01*
X28088639Y-42311746D01*
X28499008Y-41707444D01*
X29106174Y-40942957D01*
X29729428Y-40305209D01*
X30203998Y-39912993D01*
X30967400Y-39439416D01*
X31812308Y-39123009D01*
X32730900Y-39005204D01*
X33506907Y-39074476D01*
X34654885Y-39425699D01*
X35146363Y-39646436D01*
X35965175Y-40116658D01*
X36476783Y-40585664D01*
X36909905Y-41237741D01*
X37338792Y-41949136D01*
X37351949Y-41963578D01*
X37359601Y-41981554D01*
X37575985Y-42298672D01*
X37928502Y-42833441D01*
X37937327Y-42842376D01*
X37942478Y-42853833D01*
X38183538Y-43192278D01*
X38256754Y-43261247D01*
X38322853Y-43337076D01*
X39312786Y-44101402D01*
X39328571Y-44109245D01*
X39340812Y-44121928D01*
X39447729Y-44168452D01*
X39552141Y-44220331D01*
X39569725Y-44221536D01*
X39585889Y-44228570D01*
X40789157Y-44490171D01*
X40796403Y-44490299D01*
X40803109Y-44493053D01*
X40929763Y-44492664D01*
X41056388Y-44494909D01*
X41063133Y-44492254D01*
X41070381Y-44492232D01*
X42132802Y-44277510D01*
X42150854Y-44269967D01*
X42170385Y-44268806D01*
X42273580Y-44218691D01*
X42379415Y-44174471D01*
X42393205Y-44160596D01*
X42410807Y-44152048D01*
X43508465Y-43320295D01*
X43563148Y-43258697D01*
X43626542Y-43206113D01*
X43874961Y-42900159D01*
X44862505Y-41749693D01*
X45704264Y-40841137D01*
X46899457Y-39646984D01*
X47983605Y-38647752D01*
X49472468Y-37387646D01*
X50857789Y-36317215D01*
X52750787Y-34993114D01*
X54384828Y-33963983D01*
X56131320Y-32967899D01*
X57485848Y-32262760D01*
X59911438Y-31133410D01*
X62641910Y-30046600D01*
X65452245Y-29110192D01*
X67657148Y-28492560D01*
X68029867Y-28397720D01*
X69646121Y-28016979D01*
X70632899Y-27808076D01*
X71987708Y-27549241D01*
X73650848Y-27273988D01*
X75530286Y-27016723D01*
X77306354Y-26823581D01*
X78913534Y-26688804D01*
X80846195Y-26574845D01*
X81887291Y-26534448D01*
X82187525Y-26526912D01*
X81178485Y-26943838D01*
X80197284Y-27923329D01*
X79665606Y-29203749D01*
X79664397Y-30590168D01*
X80193838Y-31871515D01*
X81173329Y-32852716D01*
X82453749Y-33384394D01*
X83840168Y-33385603D01*
X85121515Y-32856162D01*
X86102716Y-31876671D01*
X86634394Y-30596251D01*
X86635603Y-29209832D01*
X86106162Y-27928485D01*
X85126671Y-26947284D01*
X84104652Y-26522904D01*
X84692426Y-26536633D01*
X84692426Y-26536633D01*
G37*
X84692426Y-26536633D02*
X85827501Y-26582396D01*
X87434377Y-26677075D01*
X88724515Y-26779281D01*
X90493685Y-26958840D01*
X91485055Y-27080081D01*
X92312140Y-27192963D01*
X93944437Y-27447993D01*
X95575125Y-27747167D01*
X96989545Y-28044326D01*
X98482564Y-28397778D01*
X99971240Y-28792855D01*
X101621752Y-29283296D01*
X102221313Y-29475734D01*
X103077577Y-29764340D01*
X104907194Y-30437431D01*
X106666551Y-31161641D01*
X107968505Y-31749803D01*
X109350389Y-32426250D01*
X111317031Y-33488998D01*
X112510614Y-34196359D01*
X114147182Y-35250608D01*
X114642773Y-35590588D01*
X115615441Y-36288140D01*
X116870472Y-37251599D01*
X117748684Y-37972262D01*
X118603025Y-38713753D01*
X119444671Y-39486892D01*
X120346714Y-40367640D01*
X121331473Y-41398770D01*
X121870601Y-41998269D01*
X122465166Y-42691969D01*
X122490207Y-42711639D01*
X122508295Y-42737842D01*
X123214713Y-43423175D01*
X123275969Y-43462776D01*
X123329133Y-43512712D01*
X124221472Y-44069369D01*
X124287898Y-44094478D01*
X124348540Y-44131432D01*
X125263256Y-44466300D01*
X125344422Y-44478948D01*
X125422712Y-44503817D01*
X126752329Y-44652314D01*
X126847410Y-44644200D01*
X126942803Y-44646919D01*
X128092567Y-44452090D01*
X128188391Y-44415561D01*
X128287184Y-44388034D01*
X129397045Y-43826928D01*
X129479895Y-43762036D01*
X129567933Y-43704362D01*
X130338926Y-42947256D01*
X130362670Y-42912410D01*
X130394863Y-42885183D01*
X130750657Y-42438325D01*
X131500101Y-41594419D01*
X132218033Y-40886531D01*
X133071502Y-40160631D01*
X134051115Y-39489221D01*
X135075008Y-39019365D01*
X136066972Y-38923769D01*
X136615627Y-39087866D01*
X137775797Y-39761754D01*
X138771766Y-40607100D01*
X139650269Y-41533123D01*
X140197603Y-42196890D01*
X140741899Y-42932310D01*
X141101571Y-43469348D01*
X141507447Y-44145620D01*
X141819247Y-44756346D01*
X142048053Y-45380193D01*
X142240256Y-46397503D01*
X142351619Y-47470834D01*
X142392495Y-48482723D01*
X142387168Y-49368916D01*
X142307284Y-50863760D01*
X142150150Y-52386692D01*
X142019327Y-53333352D01*
X141866450Y-54274109D01*
X141624297Y-55552289D01*
X141417073Y-56510671D01*
X141239964Y-57255823D01*
X140908100Y-58493151D01*
X140690947Y-59161200D01*
X140688127Y-59185004D01*
X140677884Y-59206674D01*
X140598311Y-59524669D01*
X140592213Y-59649417D01*
X140582872Y-59773975D01*
X140648522Y-60311639D01*
X140684414Y-60420731D01*
X140714153Y-60531663D01*
X140997679Y-61106410D01*
X141024556Y-61141428D01*
X141041330Y-61182261D01*
X141344623Y-61639060D01*
X142030044Y-62720827D01*
X142407847Y-63661353D01*
X142566601Y-64870054D01*
X142549103Y-65335949D01*
X142416815Y-66227180D01*
X142086096Y-67249011D01*
X141770575Y-67867180D01*
X141427360Y-68372413D01*
X141319100Y-68506411D01*
X140928019Y-68908125D01*
X140884582Y-68975059D01*
X140831040Y-69034220D01*
X140812516Y-69086109D01*
X140782523Y-69132327D01*
X140768008Y-69210785D01*
X140741180Y-69285935D01*
X140743924Y-69340966D01*
X140733901Y-69395141D01*
X140750516Y-69473184D01*
X140754489Y-69552877D01*
X140778081Y-69602665D01*
X140789554Y-69656556D01*
X140834771Y-69722302D01*
X140868938Y-69794407D01*
X140909788Y-69831378D01*
X140941010Y-69876774D01*
X141007944Y-69920211D01*
X141067105Y-69973753D01*
X141118994Y-69992277D01*
X141165212Y-70022270D01*
X141243670Y-70036785D01*
X141318820Y-70063613D01*
X141664525Y-70114637D01*
X142325578Y-70219784D01*
X143457896Y-70481364D01*
X144146697Y-70740697D01*
X144845721Y-71135723D01*
X145280161Y-71477327D01*
X145813288Y-72037377D01*
X146322169Y-72768231D01*
X146834990Y-73787079D01*
X147199745Y-74771785D01*
X147482479Y-75765889D01*
X147687448Y-76679524D01*
X147952145Y-78264825D01*
X148060002Y-79140283D01*
X148150531Y-80069084D01*
X148205444Y-80807596D01*
X148253875Y-81818975D01*
X148271557Y-83036798D01*
X148243886Y-84290904D01*
X148149168Y-85808331D01*
X148042695Y-86878600D01*
X147923566Y-87811206D01*
X147743323Y-88962509D01*
X147600925Y-89741494D01*
X147322284Y-91064080D01*
X147069590Y-92111374D01*
X146583317Y-93873182D01*
X146208384Y-95079574D01*
X145890983Y-96028474D01*
X145401054Y-97396931D01*
X144849267Y-98836244D01*
X144502639Y-99700479D01*
X143845163Y-101283710D01*
X143430386Y-102260782D01*
X143047348Y-103160297D01*
X142839433Y-103611658D01*
X141818922Y-105174285D01*
X141138850Y-105879783D01*
X140306192Y-106533441D01*
X139585450Y-106968531D01*
X138706402Y-107376664D01*
X137836597Y-107675582D01*
X137028409Y-107875139D01*
X136455442Y-107975472D01*
X135850933Y-108045345D01*
X135039577Y-108075098D01*
X134913982Y-108104903D01*
X134788060Y-108132975D01*
X134784161Y-108135712D01*
X134779526Y-108136812D01*
X134674921Y-108212394D01*
X134569303Y-108286534D01*
X134566749Y-108290554D01*
X134562886Y-108293345D01*
X134495170Y-108403202D01*
X134425962Y-108512119D01*
X134065701Y-109441764D01*
X133719671Y-110186496D01*
X133149563Y-111230573D01*
X132155395Y-112718456D01*
X131062652Y-114033561D01*
X130228086Y-114869742D01*
X129189743Y-115743503D01*
X128105781Y-116485588D01*
X127434317Y-116866559D01*
X126893401Y-117132161D01*
X126003495Y-117493708D01*
X125228697Y-117736913D01*
X125134981Y-117788172D01*
X125037468Y-117831804D01*
X125018467Y-117851901D01*
X124994208Y-117865170D01*
X124927240Y-117948392D01*
X124853848Y-118026018D01*
X124843986Y-118051852D01*
X124826648Y-118073398D01*
X124796624Y-118175920D01*
X124758527Y-118275716D01*
X124664577Y-118828599D01*
X124505621Y-119688054D01*
X124031321Y-122153719D01*
X123793669Y-123366198D01*
X123689793Y-123890749D01*
X123406949Y-124726035D01*
X123091385Y-125442037D01*
X122635624Y-126332252D01*
X122254922Y-127005025D01*
X121491626Y-128233522D01*
X121271067Y-128562201D01*
X121266373Y-128573470D01*
X121258033Y-128582381D01*
X120639879Y-129577273D01*
X120639879Y-129577274D01*
X120250780Y-130203511D01*
X120250780Y-130203512D01*
X119757828Y-130996897D01*
X119757827Y-130996898D01*
X119557876Y-131318712D01*
X119545910Y-131350542D01*
X119525222Y-131377527D01*
X119096857Y-132247138D01*
X118407013Y-133163251D01*
X118219805Y-133385456D01*
X117531851Y-134144276D01*
X116618067Y-134969974D01*
X115291266Y-136052714D01*
X114443025Y-136706978D01*
X113875833Y-137132604D01*
X112996851Y-137774164D01*
X112569521Y-138018183D01*
X112544258Y-138040126D01*
X112513696Y-138053744D01*
X111591958Y-138705556D01*
X111566026Y-138732899D01*
X111533477Y-138751888D01*
X110966991Y-139253249D01*
X110948829Y-139277142D01*
X110924309Y-139294454D01*
X110391869Y-139855015D01*
X110373829Y-139883578D01*
X110348260Y-139905661D01*
X109742036Y-140683446D01*
X109726642Y-140714075D01*
X109703041Y-140738938D01*
X109274062Y-141418608D01*
X109259637Y-141456172D01*
X109235511Y-141488377D01*
X108777487Y-142444889D01*
X108769415Y-142476470D01*
X108752413Y-142504277D01*
X108464699Y-143286543D01*
X108463446Y-143294504D01*
X108459401Y-143301477D01*
X108144976Y-144221520D01*
X108144263Y-144226854D01*
X108141635Y-144231549D01*
X107798318Y-145289198D01*
X107797898Y-145292756D01*
X107796179Y-145295903D01*
X107530249Y-146144749D01*
X107529889Y-146148092D01*
X107528305Y-146151060D01*
X107132796Y-147457527D01*
X107131764Y-147468065D01*
X107127065Y-147477552D01*
X106946665Y-148146117D01*
X106683228Y-148874075D01*
X106433150Y-149457797D01*
X106063317Y-150222776D01*
X105693980Y-150912000D01*
X105340262Y-151515497D01*
X104888665Y-152142208D01*
X104465965Y-152547505D01*
X103921690Y-152948623D01*
X102502810Y-153692001D01*
X100776408Y-154297362D01*
X99136159Y-154698719D01*
X98001006Y-154904021D01*
X96757665Y-155064333D01*
X95358977Y-155239171D01*
X93447326Y-155417148D01*
X92583000Y-155474490D01*
X92583000Y-149098000D01*
X92574315Y-149051841D01*
X92547035Y-149009447D01*
X92505410Y-148981006D01*
X92456000Y-148971000D01*
X73914000Y-148971000D01*
X73867841Y-148979685D01*
X73825447Y-149006965D01*
X73797006Y-149048590D01*
X73787000Y-149098000D01*
X73787000Y-155409036D01*
X73217808Y-155362144D01*
X71198458Y-155154274D01*
X70615005Y-155085314D01*
X70677969Y-155072789D01*
X71159738Y-154750882D01*
X71200881Y-154709738D01*
X71522789Y-154227969D01*
X71635828Y-153659684D01*
X71522789Y-153091400D01*
X71200881Y-152609631D01*
X70719112Y-152287723D01*
X70150828Y-152174684D01*
X69762542Y-152251919D01*
X69839777Y-151863633D01*
X69726738Y-151295349D01*
X69404830Y-150813580D01*
X68923061Y-150491672D01*
X68354777Y-150378633D01*
X67966491Y-150455868D01*
X68043726Y-150067582D01*
X67930687Y-149499298D01*
X67608779Y-149017529D01*
X67127010Y-148695621D01*
X66558726Y-148582582D01*
X66170439Y-148659817D01*
X66247674Y-148271530D01*
X66134635Y-147703246D01*
X65812727Y-147221477D01*
X65330958Y-146899569D01*
X64762674Y-146786530D01*
X64374388Y-146863765D01*
X64451623Y-146475479D01*
X64338584Y-145907195D01*
X64016676Y-145425426D01*
X63534907Y-145103518D01*
X62966623Y-144990479D01*
X62914811Y-145000785D01*
X62987081Y-144826310D01*
X62987082Y-144573691D01*
X62890409Y-144340302D01*
X62402109Y-143852002D01*
X62177603Y-143852002D01*
X61329605Y-144700000D01*
X61343748Y-144714143D01*
X61164143Y-144893748D01*
X61150000Y-144879605D01*
X60302002Y-145727603D01*
X60302002Y-145952109D01*
X60790302Y-146440409D01*
X61023691Y-146537082D01*
X61276310Y-146537081D01*
X61450784Y-146464811D01*
X61440478Y-146516623D01*
X61553518Y-147084908D01*
X61875425Y-147566677D01*
X62357194Y-147888584D01*
X62925479Y-148001624D01*
X63313765Y-147924388D01*
X63236529Y-148312674D01*
X63349569Y-148880959D01*
X63671476Y-149362728D01*
X64153245Y-149684635D01*
X64721530Y-149797675D01*
X65109817Y-149720439D01*
X65032581Y-150108726D01*
X65145621Y-150677011D01*
X65467528Y-151158780D01*
X65949297Y-151480687D01*
X66517582Y-151593727D01*
X66905868Y-151516491D01*
X66828632Y-151904777D01*
X66941672Y-152473062D01*
X67263579Y-152954831D01*
X67745348Y-153276738D01*
X68313633Y-153389778D01*
X68701919Y-153312542D01*
X68624683Y-153700828D01*
X68737723Y-154269113D01*
X69059630Y-154750882D01*
X69328482Y-154930523D01*
X68422465Y-154813043D01*
X67141618Y-154631556D01*
X66278266Y-154453549D01*
X65460555Y-154241822D01*
X64472347Y-153918751D01*
X64097929Y-153772882D01*
X63371129Y-153441956D01*
X62752523Y-153091809D01*
X62436025Y-152865732D01*
X62011829Y-152447882D01*
X61491639Y-151863151D01*
X60918566Y-151089435D01*
X60561545Y-150492621D01*
X60185388Y-149628255D01*
X59933875Y-148989465D01*
X59510093Y-147775118D01*
X59177224Y-146777506D01*
X59011835Y-146273534D01*
X58826561Y-145703965D01*
X58628307Y-145089505D01*
X58544063Y-144826309D01*
X59312918Y-144826309D01*
X59409591Y-145059698D01*
X59897891Y-145547998D01*
X60122397Y-145547998D01*
X60970395Y-144700000D01*
X60122397Y-143852002D01*
X59897891Y-143852002D01*
X59409592Y-144340301D01*
X59312919Y-144573690D01*
X59312918Y-144826309D01*
X58544063Y-144826309D01*
X58392927Y-144354130D01*
X58105504Y-143447891D01*
X60302002Y-143447891D01*
X60302002Y-143672397D01*
X61150000Y-144520395D01*
X61997998Y-143672397D01*
X61997998Y-143447891D01*
X61509698Y-142959591D01*
X61276309Y-142862918D01*
X61023690Y-142862919D01*
X60790301Y-142959592D01*
X60302002Y-143447891D01*
X58105504Y-143447891D01*
X58087821Y-143392137D01*
X57964405Y-142999774D01*
X57947896Y-142969633D01*
X57940809Y-142936006D01*
X57830991Y-142679167D01*
X78312838Y-142679167D01*
X78454883Y-143022943D01*
X78717673Y-143286192D01*
X79061201Y-143428838D01*
X79433167Y-143429162D01*
X79776943Y-143287117D01*
X80040192Y-143024327D01*
X80182838Y-142680799D01*
X80183162Y-142308833D01*
X80041117Y-141965057D01*
X79968000Y-141891812D01*
X79968000Y-141351494D01*
X80077201Y-141396838D01*
X80449167Y-141397162D01*
X80792943Y-141255117D01*
X81056192Y-140992327D01*
X81198838Y-140648799D01*
X81199162Y-140276833D01*
X81057117Y-139933057D01*
X80794327Y-139669808D01*
X80476000Y-139537626D01*
X80476000Y-136885167D01*
X92414838Y-136885167D01*
X92556883Y-137228943D01*
X92819673Y-137492192D01*
X93163201Y-137634838D01*
X93535167Y-137635162D01*
X93878943Y-137493117D01*
X93912118Y-137460000D01*
X98550000Y-137460000D01*
X98756218Y-137418980D01*
X98235198Y-137940000D01*
X93912463Y-137940000D01*
X93880327Y-137907808D01*
X93536799Y-137765162D01*
X93164833Y-137764838D01*
X92821057Y-137906883D01*
X92557808Y-138169673D01*
X92415162Y-138513201D01*
X92414838Y-138885167D01*
X92556883Y-139228943D01*
X92819673Y-139492192D01*
X93163201Y-139634838D01*
X93535167Y-139635162D01*
X93878943Y-139493117D01*
X93912118Y-139460000D01*
X98550000Y-139460000D01*
X98756218Y-139418980D01*
X98235198Y-139940000D01*
X93912463Y-139940000D01*
X93880327Y-139907808D01*
X93536799Y-139765162D01*
X93164833Y-139764838D01*
X92821057Y-139906883D01*
X92557808Y-140169673D01*
X92415162Y-140513201D01*
X92414838Y-140885167D01*
X92556883Y-141228943D01*
X92819673Y-141492192D01*
X93163201Y-141634838D01*
X93535167Y-141635162D01*
X93878943Y-141493117D01*
X93912118Y-141460000D01*
X98550000Y-141460000D01*
X98840839Y-141402148D01*
X99087401Y-141237401D01*
X107264802Y-133060000D01*
X109387537Y-133060000D01*
X109419673Y-133092192D01*
X109763201Y-133234838D01*
X110135167Y-133235162D01*
X110478943Y-133093117D01*
X110742192Y-132830327D01*
X110884838Y-132486799D01*
X110885162Y-132114833D01*
X110743117Y-131771057D01*
X110480327Y-131507808D01*
X110136799Y-131365162D01*
X109764833Y-131364838D01*
X109421057Y-131506883D01*
X109387882Y-131540000D01*
X106950000Y-131540000D01*
X106659161Y-131597852D01*
X106412599Y-131762599D01*
X105885009Y-132290189D01*
X105885162Y-132114833D01*
X105743117Y-131771057D01*
X105480327Y-131507808D01*
X105136799Y-131365162D01*
X104764833Y-131364838D01*
X104421057Y-131506883D01*
X104157808Y-131769673D01*
X104015162Y-132113201D01*
X104015121Y-132160077D01*
X100868980Y-135306218D01*
X100910000Y-135100000D01*
X100910000Y-122062463D01*
X100942192Y-122030327D01*
X101084838Y-121686799D01*
X101085162Y-121314833D01*
X100943117Y-120971057D01*
X100680327Y-120707808D01*
X100336799Y-120565162D01*
X99964833Y-120564838D01*
X99621057Y-120706883D01*
X99357808Y-120969673D01*
X99215162Y-121313201D01*
X99214838Y-121685167D01*
X99356883Y-122028943D01*
X99390000Y-122062118D01*
X99390000Y-134785198D01*
X98235198Y-135940000D01*
X93912463Y-135940000D01*
X93880327Y-135907808D01*
X93536799Y-135765162D01*
X93164833Y-135764838D01*
X92821057Y-135906883D01*
X92557808Y-136169673D01*
X92415162Y-136513201D01*
X92414838Y-136885167D01*
X80476000Y-136885167D01*
X80476000Y-117085167D01*
X81214838Y-117085167D01*
X81356883Y-117428943D01*
X81430000Y-117502188D01*
X81430000Y-128097607D01*
X81357808Y-128169673D01*
X81215162Y-128513201D01*
X81214838Y-128885167D01*
X81356883Y-129228943D01*
X81619673Y-129492192D01*
X81963201Y-129634838D01*
X82335167Y-129635162D01*
X82678943Y-129493117D01*
X82942192Y-129230327D01*
X83084838Y-128886799D01*
X83085162Y-128514833D01*
X82943117Y-128171057D01*
X82870000Y-128097812D01*
X82870000Y-117502393D01*
X82942192Y-117430327D01*
X83015039Y-117254894D01*
X83014838Y-117485167D01*
X83156883Y-117828943D01*
X83419673Y-118092192D01*
X83430000Y-118096480D01*
X83430000Y-128097607D01*
X83357808Y-128169673D01*
X83215162Y-128513201D01*
X83214838Y-128885167D01*
X83356883Y-129228943D01*
X83619673Y-129492192D01*
X83963201Y-129634838D01*
X84335167Y-129635162D01*
X84678943Y-129493117D01*
X84942192Y-129230327D01*
X85084838Y-128886799D01*
X85085162Y-128514833D01*
X84943117Y-128171057D01*
X84870000Y-128097812D01*
X84870000Y-117522533D01*
X84884838Y-117486799D01*
X84885162Y-117114833D01*
X84743117Y-116771057D01*
X84480327Y-116507808D01*
X84136799Y-116365162D01*
X83764833Y-116364838D01*
X83421057Y-116506883D01*
X83157808Y-116769673D01*
X83084961Y-116945106D01*
X83085162Y-116714833D01*
X82943117Y-116371057D01*
X82680327Y-116107808D01*
X82336799Y-115965162D01*
X81964833Y-115964838D01*
X81621057Y-116106883D01*
X81357808Y-116369673D01*
X81215162Y-116713201D01*
X81214838Y-117085167D01*
X80476000Y-117085167D01*
X80476000Y-112820234D01*
X82297117Y-110999117D01*
X82453193Y-110765532D01*
X82508000Y-110490000D01*
X82508000Y-109890075D01*
X82824943Y-109759117D01*
X83088192Y-109496327D01*
X83230838Y-109152799D01*
X83231144Y-108801504D01*
X84581634Y-108808601D01*
X85155500Y-109267748D01*
X85155500Y-115071037D01*
X85123308Y-115103173D01*
X84980662Y-115446701D01*
X84980338Y-115818667D01*
X85122383Y-116162443D01*
X85385173Y-116425692D01*
X85728701Y-116568338D01*
X86100667Y-116568662D01*
X86444443Y-116426617D01*
X86707692Y-116163827D01*
X86850338Y-115820299D01*
X86850662Y-115448333D01*
X86708617Y-115104557D01*
X86675500Y-115071382D01*
X86675500Y-108902500D01*
X86667222Y-108860886D01*
X86670856Y-108818615D01*
X86638524Y-108716613D01*
X86617648Y-108611661D01*
X86594076Y-108576382D01*
X86581256Y-108535938D01*
X86512351Y-108454073D01*
X86452901Y-108365099D01*
X86417623Y-108341527D01*
X86390302Y-108309067D01*
X85324802Y-107456567D01*
X85231553Y-107408204D01*
X85144524Y-107349390D01*
X85100999Y-107340494D01*
X85061563Y-107320041D01*
X84956913Y-107311045D01*
X84853993Y-107290010D01*
X83932336Y-107285167D01*
X88414838Y-107285167D01*
X88556883Y-107628943D01*
X88819673Y-107892192D01*
X89163201Y-108034838D01*
X89266694Y-108034928D01*
X93840883Y-112609117D01*
X94074468Y-112765193D01*
X94350000Y-112820000D01*
X97547607Y-112820000D01*
X97619673Y-112892192D01*
X97963201Y-113034838D01*
X98335167Y-113035162D01*
X98678943Y-112893117D01*
X98942192Y-112630327D01*
X99084838Y-112286799D01*
X99085162Y-111914833D01*
X98943117Y-111571057D01*
X98680327Y-111307808D01*
X98336799Y-111165162D01*
X97964833Y-111164838D01*
X97621057Y-111306883D01*
X97547812Y-111380000D01*
X94648234Y-111380000D01*
X90285073Y-107016839D01*
X90285162Y-106914833D01*
X90143117Y-106571057D01*
X89880327Y-106307808D01*
X89536799Y-106165162D01*
X89164833Y-106164838D01*
X88821057Y-106306883D01*
X88557808Y-106569673D01*
X88415162Y-106913201D01*
X88414838Y-107285167D01*
X83932336Y-107285167D01*
X81293535Y-107271301D01*
X81130327Y-107107808D01*
X80786799Y-106965162D01*
X80414833Y-106964838D01*
X80071057Y-107106883D01*
X79807808Y-107369673D01*
X79665162Y-107713201D01*
X79664838Y-108085167D01*
X79806883Y-108428943D01*
X79920074Y-108542332D01*
X79932783Y-108561570D01*
X79934468Y-108562709D01*
X79935599Y-108564401D01*
X79955137Y-108577456D01*
X80069673Y-108692192D01*
X80208777Y-108749953D01*
X80091162Y-109033201D01*
X80090838Y-109405167D01*
X80232883Y-109748943D01*
X80306000Y-109822188D01*
X80306000Y-110191766D01*
X78738883Y-111758883D01*
X78582807Y-111992468D01*
X78528000Y-112268000D01*
X78528000Y-141891607D01*
X78455808Y-141963673D01*
X78313162Y-142307201D01*
X78312838Y-142679167D01*
X57830991Y-142679167D01*
X57512869Y-141935157D01*
X57484149Y-141893213D01*
X57466473Y-141845552D01*
X56674635Y-140558339D01*
X56644415Y-140525759D01*
X56623743Y-140486422D01*
X56077715Y-139811467D01*
X56057513Y-139794649D01*
X56043556Y-139772370D01*
X55690126Y-139397528D01*
X55668131Y-139381877D01*
X55652063Y-139360184D01*
X55156766Y-138910714D01*
X55116271Y-138886408D01*
X55083247Y-138852649D01*
X54229183Y-138268279D01*
X53038692Y-137427680D01*
X52221885Y-136829358D01*
X51307342Y-136131009D01*
X50638216Y-135588182D01*
X50130604Y-135173703D01*
X49072327Y-134208402D01*
X48309709Y-133397209D01*
X47893694Y-132885167D01*
X65614838Y-132885167D01*
X65756883Y-133228943D01*
X65830000Y-133302188D01*
X65830000Y-135897607D01*
X65757808Y-135969673D01*
X65615162Y-136313201D01*
X65614838Y-136685167D01*
X65756883Y-137028943D01*
X66019673Y-137292192D01*
X66363201Y-137434838D01*
X66735167Y-137435162D01*
X67078943Y-137293117D01*
X67342192Y-137030327D01*
X67484838Y-136686799D01*
X67485162Y-136314833D01*
X67343117Y-135971057D01*
X67270000Y-135897812D01*
X67270000Y-133302393D01*
X67342192Y-133230327D01*
X67484838Y-132886799D01*
X67485162Y-132514833D01*
X67343117Y-132171057D01*
X67080327Y-131907808D01*
X66736799Y-131765162D01*
X66364833Y-131764838D01*
X66021057Y-131906883D01*
X65757808Y-132169673D01*
X65615162Y-132513201D01*
X65614838Y-132885167D01*
X47893694Y-132885167D01*
X47791096Y-132758887D01*
X47269718Y-131973267D01*
X46918152Y-131268516D01*
X46748866Y-130929163D01*
X46727238Y-130901243D01*
X46714519Y-130868298D01*
X46119837Y-129929803D01*
X45486513Y-128920157D01*
X44931704Y-128031790D01*
X44104851Y-126703540D01*
X44104850Y-126703539D01*
X43881659Y-126344187D01*
X43499877Y-125632346D01*
X43046700Y-124424298D01*
X42773073Y-123419192D01*
X42500759Y-122057911D01*
X42434108Y-121605926D01*
X42418516Y-121562232D01*
X42414602Y-121516009D01*
X42405706Y-121485167D01*
X58214838Y-121485167D01*
X58356883Y-121828943D01*
X58619673Y-122092192D01*
X58963201Y-122234838D01*
X59010077Y-122234879D01*
X71014878Y-134239680D01*
X71014838Y-134285167D01*
X71156883Y-134628943D01*
X71419673Y-134892192D01*
X71763201Y-135034838D01*
X72135167Y-135035162D01*
X72478943Y-134893117D01*
X72742192Y-134630327D01*
X72884838Y-134286799D01*
X72885162Y-133914833D01*
X72743117Y-133571057D01*
X72480327Y-133307808D01*
X72136799Y-133165162D01*
X72089923Y-133165121D01*
X60085122Y-121160320D01*
X60085162Y-121114833D01*
X59943117Y-120771057D01*
X59680327Y-120507808D01*
X59336799Y-120365162D01*
X58964833Y-120364838D01*
X58621057Y-120506883D01*
X58357808Y-120769673D01*
X58215162Y-121113201D01*
X58214838Y-121485167D01*
X42405706Y-121485167D01*
X42173177Y-120679038D01*
X42033024Y-120031445D01*
X41838883Y-118916256D01*
X41784599Y-118542931D01*
X41742716Y-118424808D01*
X41703747Y-118305651D01*
X41698151Y-118299125D01*
X41695279Y-118291024D01*
X41611361Y-118197899D01*
X41529778Y-118102747D01*
X41522114Y-118098860D01*
X41516358Y-118092473D01*
X41403187Y-118038550D01*
X41291404Y-117981862D01*
X40375992Y-117725577D01*
X39650329Y-117462936D01*
X39070022Y-117202042D01*
X38724770Y-117012505D01*
X38710495Y-117008000D01*
X38698623Y-116998874D01*
X38098759Y-116702411D01*
X37828786Y-116547205D01*
X37076660Y-116050653D01*
X36321730Y-115465200D01*
X35783714Y-114989369D01*
X35468540Y-114699632D01*
X35053006Y-114285167D01*
X55414838Y-114285167D01*
X55556883Y-114628943D01*
X55819673Y-114892192D01*
X56163201Y-115034838D01*
X56410251Y-115035053D01*
X72214878Y-130839680D01*
X72214838Y-130885167D01*
X72356883Y-131228943D01*
X72619673Y-131492192D01*
X72963201Y-131634838D01*
X73335167Y-131635162D01*
X73678943Y-131493117D01*
X73942192Y-131230327D01*
X74084838Y-130886799D01*
X74085162Y-130514833D01*
X73943117Y-130171057D01*
X73680327Y-129907808D01*
X73336799Y-129765162D01*
X73289923Y-129765121D01*
X57176393Y-113651591D01*
X57143117Y-113571057D01*
X56880327Y-113307808D01*
X56536799Y-113165162D01*
X56164833Y-113164838D01*
X55821057Y-113306883D01*
X55557808Y-113569673D01*
X55415162Y-113913201D01*
X55414838Y-114285167D01*
X35053006Y-114285167D01*
X34966004Y-114198389D01*
X34498786Y-113684084D01*
X34041580Y-113126322D01*
X33654183Y-112591883D01*
X33276238Y-112029898D01*
X32940617Y-111477593D01*
X32620780Y-110897393D01*
X32183105Y-110000426D01*
X31945090Y-109448480D01*
X31773711Y-109011660D01*
X31606583Y-108533586D01*
X31540709Y-108421838D01*
X31476155Y-108309345D01*
X31472927Y-108306854D01*
X31470855Y-108303340D01*
X31367196Y-108225281D01*
X31264542Y-108146081D01*
X31260608Y-108145016D01*
X31257348Y-108142561D01*
X31131735Y-108110120D01*
X31006559Y-108076225D01*
X30619969Y-108049863D01*
X30310274Y-108016086D01*
X29603287Y-107901081D01*
X28830510Y-107716204D01*
X27846627Y-107383564D01*
X27076268Y-107033741D01*
X26285720Y-106572548D01*
X25755881Y-106189890D01*
X25152582Y-105659249D01*
X24488882Y-104915076D01*
X23974368Y-104162615D01*
X23460009Y-103148418D01*
X23113467Y-102334569D01*
X23113466Y-102334567D01*
X22845389Y-101704510D01*
X22517602Y-100928180D01*
X22148414Y-100039580D01*
X21891332Y-99408065D01*
X21861913Y-99334285D01*
X31500760Y-99334285D01*
X31711169Y-99843515D01*
X32100436Y-100233461D01*
X32609298Y-100444759D01*
X33160285Y-100445240D01*
X33669515Y-100234831D01*
X33873183Y-100031517D01*
X47094088Y-100031517D01*
X47162077Y-100272460D01*
X47681171Y-100457201D01*
X48231448Y-100429230D01*
X48609923Y-100272460D01*
X48677912Y-100031517D01*
X47886000Y-99239605D01*
X47094088Y-100031517D01*
X33873183Y-100031517D01*
X34059461Y-99845564D01*
X34270759Y-99336702D01*
X34271179Y-98855171D01*
X46488799Y-98855171D01*
X46516770Y-99405448D01*
X46673540Y-99783923D01*
X46914483Y-99851912D01*
X47706395Y-99060000D01*
X48065605Y-99060000D01*
X48857517Y-99851912D01*
X49098460Y-99783923D01*
X49283201Y-99264829D01*
X49255230Y-98714552D01*
X49098460Y-98336077D01*
X48857517Y-98268088D01*
X48065605Y-99060000D01*
X47706395Y-99060000D01*
X46914483Y-98268088D01*
X46673540Y-98336077D01*
X46488799Y-98855171D01*
X34271179Y-98855171D01*
X34271240Y-98785715D01*
X34060831Y-98276485D01*
X33873157Y-98088483D01*
X47094088Y-98088483D01*
X47886000Y-98880395D01*
X48677912Y-98088483D01*
X48609923Y-97847540D01*
X48090829Y-97662799D01*
X47540552Y-97690770D01*
X47162077Y-97847540D01*
X47094088Y-98088483D01*
X33873157Y-98088483D01*
X33671564Y-97886539D01*
X33162702Y-97675241D01*
X32611715Y-97674760D01*
X32102485Y-97885169D01*
X31712539Y-98274436D01*
X31501241Y-98783298D01*
X31500760Y-99334285D01*
X21861913Y-99334285D01*
X21644483Y-98788997D01*
X21109063Y-97390797D01*
X20641839Y-96087659D01*
X20280740Y-95007638D01*
X19930570Y-93878350D01*
X19651643Y-92901807D01*
X19348246Y-91732473D01*
X18793989Y-89104861D01*
X18617692Y-88011369D01*
X18310241Y-85090305D01*
X18254847Y-83897981D01*
X18240933Y-82776157D01*
X18277187Y-81350862D01*
X18362239Y-80065042D01*
X18422360Y-79423666D01*
X18548321Y-78352559D01*
X18679509Y-77475472D01*
X18982038Y-75961988D01*
X19176944Y-75217164D01*
X19413378Y-74471600D01*
X19898979Y-73303261D01*
X20240315Y-72684797D01*
X20809409Y-71905496D01*
X21116697Y-71582672D01*
X21216819Y-71495667D01*
X62755338Y-71495667D01*
X62897383Y-71839443D01*
X63160173Y-72102692D01*
X63503701Y-72245338D01*
X63875667Y-72245662D01*
X64219443Y-72103617D01*
X64482692Y-71840827D01*
X64509403Y-71776500D01*
X71310500Y-71776500D01*
X71586032Y-71721693D01*
X71655917Y-71674998D01*
X71407308Y-71923173D01*
X71264662Y-72266701D01*
X71264338Y-72638667D01*
X71406383Y-72982443D01*
X71439500Y-73015618D01*
X71439500Y-75701037D01*
X71407308Y-75733173D01*
X71264662Y-76076701D01*
X71264338Y-76448667D01*
X71406383Y-76792443D01*
X71439500Y-76825618D01*
X71439500Y-80146037D01*
X71407308Y-80178173D01*
X71264662Y-80521701D01*
X71264338Y-80893667D01*
X71406383Y-81237443D01*
X71439500Y-81270618D01*
X71439500Y-84591037D01*
X71407308Y-84623173D01*
X71264662Y-84966701D01*
X71264338Y-85338667D01*
X71406383Y-85682443D01*
X71439500Y-85715618D01*
X71439500Y-89036037D01*
X71407308Y-89068173D01*
X71264662Y-89411701D01*
X71264338Y-89783667D01*
X71406383Y-90127443D01*
X71439500Y-90160618D01*
X71439500Y-93481037D01*
X71407308Y-93513173D01*
X71264662Y-93856701D01*
X71264338Y-94228667D01*
X71406383Y-94572443D01*
X71439500Y-94605618D01*
X71439500Y-97926037D01*
X71407308Y-97958173D01*
X71264662Y-98301701D01*
X71264338Y-98673667D01*
X71406383Y-99017443D01*
X71439500Y-99050618D01*
X71439500Y-103006037D01*
X71407308Y-103038173D01*
X71264662Y-103381701D01*
X71264338Y-103753667D01*
X71406383Y-104097443D01*
X71439500Y-104130618D01*
X71439500Y-105044495D01*
X71391662Y-105159701D01*
X71391338Y-105531667D01*
X71533383Y-105875443D01*
X71796173Y-106138692D01*
X72139701Y-106281338D01*
X72511667Y-106281662D01*
X72855443Y-106139617D01*
X73118692Y-105876827D01*
X73261338Y-105533299D01*
X73261662Y-105161333D01*
X73119617Y-104817557D01*
X72959500Y-104657160D01*
X72959500Y-104130963D01*
X72991692Y-104098827D01*
X73134338Y-103755299D01*
X73134662Y-103383333D01*
X72992617Y-103039557D01*
X72959500Y-103006382D01*
X72959500Y-99050963D01*
X72991692Y-99018827D01*
X73134338Y-98675299D01*
X73134662Y-98303333D01*
X72992617Y-97959557D01*
X72959500Y-97926382D01*
X72959500Y-94605963D01*
X72991692Y-94573827D01*
X73134338Y-94230299D01*
X73134662Y-93858333D01*
X72992617Y-93514557D01*
X72959500Y-93481382D01*
X72959500Y-90160963D01*
X72991692Y-90128827D01*
X73134338Y-89785299D01*
X73134662Y-89413333D01*
X72992617Y-89069557D01*
X72959500Y-89036382D01*
X72959500Y-85715963D01*
X72991692Y-85683827D01*
X73134338Y-85340299D01*
X73134662Y-84968333D01*
X72992617Y-84624557D01*
X72959500Y-84591382D01*
X72959500Y-81270963D01*
X72991692Y-81238827D01*
X73134338Y-80895299D01*
X73134662Y-80523333D01*
X72992617Y-80179557D01*
X72959500Y-80146382D01*
X72959500Y-76825963D01*
X72991692Y-76793827D01*
X73134338Y-76450299D01*
X73134662Y-76078333D01*
X72992617Y-75734557D01*
X72959500Y-75701382D01*
X72959500Y-73015963D01*
X72991692Y-72983827D01*
X73134338Y-72640299D01*
X73134339Y-72638667D01*
X74439338Y-72638667D01*
X74581383Y-72982443D01*
X74614500Y-73015618D01*
X74614500Y-75701037D01*
X74582308Y-75733173D01*
X74439662Y-76076701D01*
X74439338Y-76448667D01*
X74581383Y-76792443D01*
X74614500Y-76825618D01*
X74614500Y-80146037D01*
X74582308Y-80178173D01*
X74439662Y-80521701D01*
X74439338Y-80893667D01*
X74581383Y-81237443D01*
X74614500Y-81270618D01*
X74614500Y-84591037D01*
X74582308Y-84623173D01*
X74439662Y-84966701D01*
X74439338Y-85338667D01*
X74581383Y-85682443D01*
X74614500Y-85715618D01*
X74614500Y-89036037D01*
X74582308Y-89068173D01*
X74439662Y-89411701D01*
X74439338Y-89783667D01*
X74581383Y-90127443D01*
X74614500Y-90160618D01*
X74614500Y-93481037D01*
X74582308Y-93513173D01*
X74439662Y-93856701D01*
X74439338Y-94228667D01*
X74581383Y-94572443D01*
X74614500Y-94605618D01*
X74614500Y-97926037D01*
X74582308Y-97958173D01*
X74439662Y-98301701D01*
X74439338Y-98673667D01*
X74581383Y-99017443D01*
X74614500Y-99050618D01*
X74614500Y-103006037D01*
X74582308Y-103038173D01*
X74439662Y-103381701D01*
X74439338Y-103753667D01*
X74581383Y-104097443D01*
X74844173Y-104360692D01*
X75187701Y-104503338D01*
X75559667Y-104503662D01*
X75903443Y-104361617D01*
X76166692Y-104098827D01*
X76309338Y-103755299D01*
X76309662Y-103383333D01*
X76167617Y-103039557D01*
X76134500Y-103006382D01*
X76134500Y-99050963D01*
X76166692Y-99018827D01*
X76309338Y-98675299D01*
X76309662Y-98303333D01*
X76167617Y-97959557D01*
X76134500Y-97926382D01*
X76134500Y-94605963D01*
X76166692Y-94573827D01*
X76309338Y-94230299D01*
X76309662Y-93858333D01*
X76167617Y-93514557D01*
X76134500Y-93481382D01*
X76134500Y-90160963D01*
X76166692Y-90128827D01*
X76309338Y-89785299D01*
X76309662Y-89413333D01*
X76167617Y-89069557D01*
X76134500Y-89036382D01*
X76134500Y-85715963D01*
X76166692Y-85683827D01*
X76309338Y-85340299D01*
X76309662Y-84968333D01*
X76167617Y-84624557D01*
X76134500Y-84591382D01*
X76134500Y-81270963D01*
X76166692Y-81238827D01*
X76309338Y-80895299D01*
X76309662Y-80523333D01*
X76167617Y-80179557D01*
X76134500Y-80146382D01*
X76134500Y-76825963D01*
X76166692Y-76793827D01*
X76309338Y-76450299D01*
X76309662Y-76078333D01*
X76167617Y-75734557D01*
X76134500Y-75701382D01*
X76134500Y-73015963D01*
X76166692Y-72983827D01*
X76309338Y-72640299D01*
X76309339Y-72638667D01*
X77614338Y-72638667D01*
X77756383Y-72982443D01*
X77789500Y-73015618D01*
X77789500Y-75701037D01*
X77757308Y-75733173D01*
X77614662Y-76076701D01*
X77614338Y-76448667D01*
X77756383Y-76792443D01*
X77789500Y-76825618D01*
X77789500Y-80146037D01*
X77757308Y-80178173D01*
X77614662Y-80521701D01*
X77614338Y-80893667D01*
X77756383Y-81237443D01*
X77789500Y-81270618D01*
X77789500Y-84591037D01*
X77757308Y-84623173D01*
X77614662Y-84966701D01*
X77614338Y-85338667D01*
X77756383Y-85682443D01*
X77789500Y-85715618D01*
X77789500Y-89036037D01*
X77757308Y-89068173D01*
X77614662Y-89411701D01*
X77614338Y-89783667D01*
X77756383Y-90127443D01*
X77789500Y-90160618D01*
X77789500Y-93481037D01*
X77757308Y-93513173D01*
X77614662Y-93856701D01*
X77614338Y-94228667D01*
X77756383Y-94572443D01*
X77789500Y-94605618D01*
X77789500Y-97926037D01*
X77757308Y-97958173D01*
X77614662Y-98301701D01*
X77614338Y-98673667D01*
X77756383Y-99017443D01*
X77789500Y-99050618D01*
X77789500Y-103006037D01*
X77757308Y-103038173D01*
X77614662Y-103381701D01*
X77614338Y-103753667D01*
X77756383Y-104097443D01*
X78019173Y-104360692D01*
X78362701Y-104503338D01*
X78734667Y-104503662D01*
X79078443Y-104361617D01*
X79341692Y-104098827D01*
X79484338Y-103755299D01*
X79484662Y-103383333D01*
X79342617Y-103039557D01*
X79309500Y-103006382D01*
X79309500Y-99050963D01*
X79341692Y-99018827D01*
X79484338Y-98675299D01*
X79484662Y-98303333D01*
X79342617Y-97959557D01*
X79309500Y-97926382D01*
X79309500Y-94605963D01*
X79341692Y-94573827D01*
X79484338Y-94230299D01*
X79484662Y-93858333D01*
X79342617Y-93514557D01*
X79309500Y-93481382D01*
X79309500Y-90160963D01*
X79341692Y-90128827D01*
X79484338Y-89785299D01*
X79484662Y-89413333D01*
X79342617Y-89069557D01*
X79309500Y-89036382D01*
X79309500Y-85715963D01*
X79341692Y-85683827D01*
X79484338Y-85340299D01*
X79484662Y-84968333D01*
X79342617Y-84624557D01*
X79309500Y-84591382D01*
X79309500Y-81270963D01*
X79341692Y-81238827D01*
X79484338Y-80895299D01*
X79484662Y-80523333D01*
X79342617Y-80179557D01*
X79309500Y-80146382D01*
X79309500Y-76825963D01*
X79341692Y-76793827D01*
X79484338Y-76450299D01*
X79484662Y-76078333D01*
X79342617Y-75734557D01*
X79309500Y-75701382D01*
X79309500Y-73015963D01*
X79341692Y-72983827D01*
X79484338Y-72640299D01*
X79484339Y-72638667D01*
X80789338Y-72638667D01*
X80931383Y-72982443D01*
X80964500Y-73015618D01*
X80964500Y-75701037D01*
X80932308Y-75733173D01*
X80789662Y-76076701D01*
X80789338Y-76448667D01*
X80931383Y-76792443D01*
X80964500Y-76825618D01*
X80964500Y-80146037D01*
X80932308Y-80178173D01*
X80789662Y-80521701D01*
X80789338Y-80893667D01*
X80931383Y-81237443D01*
X80964500Y-81270618D01*
X80964500Y-84591037D01*
X80932308Y-84623173D01*
X80789662Y-84966701D01*
X80789338Y-85338667D01*
X80931383Y-85682443D01*
X80964500Y-85715618D01*
X80964500Y-89036037D01*
X80932308Y-89068173D01*
X80789662Y-89411701D01*
X80789338Y-89783667D01*
X80931383Y-90127443D01*
X80964500Y-90160618D01*
X80964500Y-93481037D01*
X80932308Y-93513173D01*
X80789662Y-93856701D01*
X80789338Y-94228667D01*
X80931383Y-94572443D01*
X80964500Y-94605618D01*
X80964500Y-97926037D01*
X80932308Y-97958173D01*
X80789662Y-98301701D01*
X80789338Y-98673667D01*
X80931383Y-99017443D01*
X80964500Y-99050618D01*
X80964500Y-103006037D01*
X80932308Y-103038173D01*
X80789662Y-103381701D01*
X80789338Y-103753667D01*
X80931383Y-104097443D01*
X81194173Y-104360692D01*
X81537701Y-104503338D01*
X81909667Y-104503662D01*
X82253443Y-104361617D01*
X82516692Y-104098827D01*
X82659338Y-103755299D01*
X82659662Y-103383333D01*
X82517617Y-103039557D01*
X82484500Y-103006382D01*
X82484500Y-99050963D01*
X82516692Y-99018827D01*
X82659338Y-98675299D01*
X82659662Y-98303333D01*
X82517617Y-97959557D01*
X82484500Y-97926382D01*
X82484500Y-94605963D01*
X82516692Y-94573827D01*
X82659338Y-94230299D01*
X82659662Y-93858333D01*
X82517617Y-93514557D01*
X82484500Y-93481382D01*
X82484500Y-90160963D01*
X82516692Y-90128827D01*
X82659338Y-89785299D01*
X82659662Y-89413333D01*
X82517617Y-89069557D01*
X82484500Y-89036382D01*
X82484500Y-85715963D01*
X82516692Y-85683827D01*
X82659338Y-85340299D01*
X82659662Y-84968333D01*
X82517617Y-84624557D01*
X82484500Y-84591382D01*
X82484500Y-81270963D01*
X82516692Y-81238827D01*
X82659338Y-80895299D01*
X82659662Y-80523333D01*
X82517617Y-80179557D01*
X82484500Y-80146382D01*
X82484500Y-76825963D01*
X82516692Y-76793827D01*
X82659338Y-76450299D01*
X82659662Y-76078333D01*
X82517617Y-75734557D01*
X82484500Y-75701382D01*
X82484500Y-73015963D01*
X82516692Y-72983827D01*
X82659338Y-72640299D01*
X82659339Y-72638667D01*
X83964338Y-72638667D01*
X84106383Y-72982443D01*
X84139500Y-73015618D01*
X84139500Y-75701037D01*
X84107308Y-75733173D01*
X83964662Y-76076701D01*
X83964338Y-76448667D01*
X84106383Y-76792443D01*
X84139500Y-76825618D01*
X84139500Y-80146037D01*
X84107308Y-80178173D01*
X83964662Y-80521701D01*
X83964338Y-80893667D01*
X84106383Y-81237443D01*
X84139500Y-81270618D01*
X84139500Y-84591037D01*
X84107308Y-84623173D01*
X83964662Y-84966701D01*
X83964338Y-85338667D01*
X84106383Y-85682443D01*
X84139500Y-85715618D01*
X84139500Y-89036037D01*
X84107308Y-89068173D01*
X83964662Y-89411701D01*
X83964338Y-89783667D01*
X84106383Y-90127443D01*
X84139500Y-90160618D01*
X84139500Y-93481037D01*
X84107308Y-93513173D01*
X83964662Y-93856701D01*
X83964338Y-94228667D01*
X84106383Y-94572443D01*
X84139500Y-94605618D01*
X84139500Y-97926037D01*
X84107308Y-97958173D01*
X83964662Y-98301701D01*
X83964338Y-98673667D01*
X84106383Y-99017443D01*
X84139500Y-99050618D01*
X84139500Y-103006037D01*
X84107308Y-103038173D01*
X83964662Y-103381701D01*
X83964338Y-103753667D01*
X84106383Y-104097443D01*
X84369173Y-104360692D01*
X84712701Y-104503338D01*
X85084667Y-104503662D01*
X85428443Y-104361617D01*
X85691692Y-104098827D01*
X85834338Y-103755299D01*
X85834662Y-103383333D01*
X85692617Y-103039557D01*
X85659500Y-103006382D01*
X85659500Y-99050963D01*
X85691692Y-99018827D01*
X85834338Y-98675299D01*
X85834662Y-98303333D01*
X85692617Y-97959557D01*
X85659500Y-97926382D01*
X85659500Y-94605963D01*
X85691692Y-94573827D01*
X85834338Y-94230299D01*
X85834662Y-93858333D01*
X85692617Y-93514557D01*
X85659500Y-93481382D01*
X85659500Y-90160963D01*
X85691692Y-90128827D01*
X85834338Y-89785299D01*
X85834662Y-89413333D01*
X85692617Y-89069557D01*
X85659500Y-89036382D01*
X85659500Y-85715963D01*
X85691692Y-85683827D01*
X85834338Y-85340299D01*
X85834662Y-84968333D01*
X85692617Y-84624557D01*
X85659500Y-84591382D01*
X85659500Y-81270963D01*
X85691692Y-81238827D01*
X85834338Y-80895299D01*
X85834662Y-80523333D01*
X85692617Y-80179557D01*
X85659500Y-80146382D01*
X85659500Y-76825963D01*
X85691692Y-76793827D01*
X85834338Y-76450299D01*
X85834662Y-76078333D01*
X85692617Y-75734557D01*
X85659500Y-75701382D01*
X85659500Y-73015963D01*
X85691692Y-72983827D01*
X85834338Y-72640299D01*
X85834339Y-72638667D01*
X87139338Y-72638667D01*
X87281383Y-72982443D01*
X87314500Y-73015618D01*
X87314500Y-75701037D01*
X87282308Y-75733173D01*
X87139662Y-76076701D01*
X87139338Y-76448667D01*
X87281383Y-76792443D01*
X87314500Y-76825618D01*
X87314500Y-80146037D01*
X87282308Y-80178173D01*
X87139662Y-80521701D01*
X87139338Y-80893667D01*
X87281383Y-81237443D01*
X87314500Y-81270618D01*
X87314500Y-84591037D01*
X87282308Y-84623173D01*
X87139662Y-84966701D01*
X87139338Y-85338667D01*
X87281383Y-85682443D01*
X87314500Y-85715618D01*
X87314500Y-89036037D01*
X87282308Y-89068173D01*
X87139662Y-89411701D01*
X87139338Y-89783667D01*
X87281383Y-90127443D01*
X87314500Y-90160618D01*
X87314500Y-93481037D01*
X87282308Y-93513173D01*
X87139662Y-93856701D01*
X87139338Y-94228667D01*
X87281383Y-94572443D01*
X87314500Y-94605618D01*
X87314500Y-97926037D01*
X87282308Y-97958173D01*
X87139662Y-98301701D01*
X87139338Y-98673667D01*
X87281383Y-99017443D01*
X87314500Y-99050618D01*
X87314500Y-103006037D01*
X87282308Y-103038173D01*
X87139662Y-103381701D01*
X87139338Y-103753667D01*
X87281383Y-104097443D01*
X87544173Y-104360692D01*
X87887701Y-104503338D01*
X88259667Y-104503662D01*
X88603443Y-104361617D01*
X88866692Y-104098827D01*
X89009338Y-103755299D01*
X89009662Y-103383333D01*
X88867617Y-103039557D01*
X88834500Y-103006382D01*
X88834500Y-99050963D01*
X88866692Y-99018827D01*
X89009338Y-98675299D01*
X89009662Y-98303333D01*
X88867617Y-97959557D01*
X88834500Y-97926382D01*
X88834500Y-94605963D01*
X88866692Y-94573827D01*
X89009338Y-94230299D01*
X89009662Y-93858333D01*
X88867617Y-93514557D01*
X88834500Y-93481382D01*
X88834500Y-90160963D01*
X88866692Y-90128827D01*
X89009338Y-89785299D01*
X89009662Y-89413333D01*
X88867617Y-89069557D01*
X88834500Y-89036382D01*
X88834500Y-85715963D01*
X88866692Y-85683827D01*
X89009338Y-85340299D01*
X89009662Y-84968333D01*
X88867617Y-84624557D01*
X88834500Y-84591382D01*
X88834500Y-81270963D01*
X88866692Y-81238827D01*
X89009338Y-80895299D01*
X89009662Y-80523333D01*
X88867617Y-80179557D01*
X88834500Y-80146382D01*
X88834500Y-76825963D01*
X88866692Y-76793827D01*
X89009338Y-76450299D01*
X89009662Y-76078333D01*
X88867617Y-75734557D01*
X88834500Y-75701382D01*
X88834500Y-73015963D01*
X88866692Y-72983827D01*
X89009338Y-72640299D01*
X89009339Y-72638667D01*
X90314338Y-72638667D01*
X90456383Y-72982443D01*
X90489500Y-73015618D01*
X90489500Y-75701037D01*
X90457308Y-75733173D01*
X90314662Y-76076701D01*
X90314338Y-76448667D01*
X90456383Y-76792443D01*
X90489500Y-76825618D01*
X90489500Y-80146037D01*
X90457308Y-80178173D01*
X90314662Y-80521701D01*
X90314338Y-80893667D01*
X90456383Y-81237443D01*
X90489500Y-81270618D01*
X90489500Y-84591037D01*
X90457308Y-84623173D01*
X90314662Y-84966701D01*
X90314338Y-85338667D01*
X90456383Y-85682443D01*
X90489500Y-85715618D01*
X90489500Y-89036037D01*
X90457308Y-89068173D01*
X90314662Y-89411701D01*
X90314338Y-89783667D01*
X90456383Y-90127443D01*
X90489500Y-90160618D01*
X90489500Y-93481037D01*
X90457308Y-93513173D01*
X90314662Y-93856701D01*
X90314338Y-94228667D01*
X90456383Y-94572443D01*
X90489500Y-94605618D01*
X90489500Y-97926037D01*
X90457308Y-97958173D01*
X90314662Y-98301701D01*
X90314338Y-98673667D01*
X90456383Y-99017443D01*
X90489500Y-99050618D01*
X90489500Y-103006037D01*
X90457308Y-103038173D01*
X90314662Y-103381701D01*
X90314338Y-103753667D01*
X90456383Y-104097443D01*
X90719173Y-104360692D01*
X91062701Y-104503338D01*
X91434667Y-104503662D01*
X91778443Y-104361617D01*
X92041692Y-104098827D01*
X92184338Y-103755299D01*
X92184662Y-103383333D01*
X92042617Y-103039557D01*
X92009500Y-103006382D01*
X92009500Y-99050963D01*
X92041692Y-99018827D01*
X92184338Y-98675299D01*
X92184662Y-98303333D01*
X92042617Y-97959557D01*
X92009500Y-97926382D01*
X92009500Y-94605963D01*
X92041692Y-94573827D01*
X92184338Y-94230299D01*
X92184662Y-93858333D01*
X92042617Y-93514557D01*
X92009500Y-93481382D01*
X92009500Y-90160963D01*
X92041692Y-90128827D01*
X92184338Y-89785299D01*
X92184662Y-89413333D01*
X92042617Y-89069557D01*
X92009500Y-89036382D01*
X92009500Y-85715963D01*
X92041692Y-85683827D01*
X92184338Y-85340299D01*
X92184662Y-84968333D01*
X92042617Y-84624557D01*
X92009500Y-84591382D01*
X92009500Y-81270963D01*
X92041692Y-81238827D01*
X92184338Y-80895299D01*
X92184662Y-80523333D01*
X92042617Y-80179557D01*
X92009500Y-80146382D01*
X92009500Y-76825963D01*
X92041692Y-76793827D01*
X92184338Y-76450299D01*
X92184662Y-76078333D01*
X92042617Y-75734557D01*
X92009500Y-75701382D01*
X92009500Y-73015963D01*
X92041692Y-72983827D01*
X92184338Y-72640299D01*
X92184339Y-72638667D01*
X93489338Y-72638667D01*
X93631383Y-72982443D01*
X93664500Y-73015618D01*
X93664500Y-75701037D01*
X93632308Y-75733173D01*
X93489662Y-76076701D01*
X93489338Y-76448667D01*
X93631383Y-76792443D01*
X93664500Y-76825618D01*
X93664500Y-80146037D01*
X93632308Y-80178173D01*
X93489662Y-80521701D01*
X93489338Y-80893667D01*
X93631383Y-81237443D01*
X93664500Y-81270618D01*
X93664500Y-84591037D01*
X93632308Y-84623173D01*
X93489662Y-84966701D01*
X93489338Y-85338667D01*
X93631383Y-85682443D01*
X93664500Y-85715618D01*
X93664500Y-89036037D01*
X93632308Y-89068173D01*
X93489662Y-89411701D01*
X93489338Y-89783667D01*
X93631383Y-90127443D01*
X93664500Y-90160618D01*
X93664500Y-93481037D01*
X93632308Y-93513173D01*
X93489662Y-93856701D01*
X93489338Y-94228667D01*
X93631383Y-94572443D01*
X93664500Y-94605618D01*
X93664500Y-97926037D01*
X93632308Y-97958173D01*
X93489662Y-98301701D01*
X93489338Y-98673667D01*
X93631383Y-99017443D01*
X93664500Y-99050618D01*
X93664500Y-103006037D01*
X93632308Y-103038173D01*
X93489662Y-103381701D01*
X93489338Y-103753667D01*
X93631383Y-104097443D01*
X93894173Y-104360692D01*
X94237701Y-104503338D01*
X94609667Y-104503662D01*
X94953443Y-104361617D01*
X95216692Y-104098827D01*
X95359338Y-103755299D01*
X95359662Y-103383333D01*
X95217617Y-103039557D01*
X95184500Y-103006382D01*
X95184500Y-99050963D01*
X95216692Y-99018827D01*
X95359338Y-98675299D01*
X95359662Y-98303333D01*
X95217617Y-97959557D01*
X95184500Y-97926382D01*
X95184500Y-94605963D01*
X95216692Y-94573827D01*
X95359338Y-94230299D01*
X95359662Y-93858333D01*
X95217617Y-93514557D01*
X95184500Y-93481382D01*
X95184500Y-90160963D01*
X95216692Y-90128827D01*
X95359338Y-89785299D01*
X95359662Y-89413333D01*
X95217617Y-89069557D01*
X95184500Y-89036382D01*
X95184500Y-85715963D01*
X95216692Y-85683827D01*
X95359338Y-85340299D01*
X95359662Y-84968333D01*
X95217617Y-84624557D01*
X95184500Y-84591382D01*
X95184500Y-81270963D01*
X95216692Y-81238827D01*
X95359338Y-80895299D01*
X95359662Y-80523333D01*
X95217617Y-80179557D01*
X95184500Y-80146382D01*
X95184500Y-76825963D01*
X95216692Y-76793827D01*
X95359338Y-76450299D01*
X95359662Y-76078333D01*
X95217617Y-75734557D01*
X95184500Y-75701382D01*
X95184500Y-73015963D01*
X95216692Y-72983827D01*
X95359338Y-72640299D01*
X95359339Y-72638667D01*
X96664338Y-72638667D01*
X96806383Y-72982443D01*
X96839500Y-73015618D01*
X96839500Y-75701037D01*
X96807308Y-75733173D01*
X96664662Y-76076701D01*
X96664338Y-76448667D01*
X96806383Y-76792443D01*
X96839500Y-76825618D01*
X96839500Y-80146037D01*
X96807308Y-80178173D01*
X96664662Y-80521701D01*
X96664338Y-80893667D01*
X96806383Y-81237443D01*
X96839500Y-81270618D01*
X96839500Y-84591037D01*
X96807308Y-84623173D01*
X96664662Y-84966701D01*
X96664338Y-85338667D01*
X96806383Y-85682443D01*
X96839500Y-85715618D01*
X96839500Y-89036037D01*
X96807308Y-89068173D01*
X96664662Y-89411701D01*
X96664338Y-89783667D01*
X96806383Y-90127443D01*
X96839500Y-90160618D01*
X96839500Y-93481037D01*
X96807308Y-93513173D01*
X96664662Y-93856701D01*
X96664338Y-94228667D01*
X96806383Y-94572443D01*
X96839500Y-94605618D01*
X96839500Y-97926037D01*
X96807308Y-97958173D01*
X96664662Y-98301701D01*
X96664338Y-98673667D01*
X96806383Y-99017443D01*
X96839500Y-99050618D01*
X96839500Y-103006037D01*
X96807308Y-103038173D01*
X96664662Y-103381701D01*
X96664338Y-103753667D01*
X96806383Y-104097443D01*
X97069173Y-104360692D01*
X97412701Y-104503338D01*
X97784667Y-104503662D01*
X98128443Y-104361617D01*
X98391692Y-104098827D01*
X98534338Y-103755299D01*
X98534662Y-103383333D01*
X98392617Y-103039557D01*
X98359500Y-103006382D01*
X98359500Y-99334285D01*
X117352760Y-99334285D01*
X117563169Y-99843515D01*
X117952436Y-100233461D01*
X118461298Y-100444759D01*
X119012285Y-100445240D01*
X119521515Y-100234831D01*
X119725183Y-100031517D01*
X132946088Y-100031517D01*
X133014077Y-100272460D01*
X133533171Y-100457201D01*
X134083448Y-100429230D01*
X134461923Y-100272460D01*
X134529912Y-100031517D01*
X133738000Y-99239605D01*
X132946088Y-100031517D01*
X119725183Y-100031517D01*
X119911461Y-99845564D01*
X120122759Y-99336702D01*
X120123179Y-98855171D01*
X132340799Y-98855171D01*
X132368770Y-99405448D01*
X132525540Y-99783923D01*
X132766483Y-99851912D01*
X133558395Y-99060000D01*
X133917605Y-99060000D01*
X134709517Y-99851912D01*
X134950460Y-99783923D01*
X135135201Y-99264829D01*
X135107230Y-98714552D01*
X134950460Y-98336077D01*
X134709517Y-98268088D01*
X133917605Y-99060000D01*
X133558395Y-99060000D01*
X132766483Y-98268088D01*
X132525540Y-98336077D01*
X132340799Y-98855171D01*
X120123179Y-98855171D01*
X120123240Y-98785715D01*
X119912831Y-98276485D01*
X119725157Y-98088483D01*
X132946088Y-98088483D01*
X133738000Y-98880395D01*
X134529912Y-98088483D01*
X134461923Y-97847540D01*
X133942829Y-97662799D01*
X133392552Y-97690770D01*
X133014077Y-97847540D01*
X132946088Y-98088483D01*
X119725157Y-98088483D01*
X119523564Y-97886539D01*
X119014702Y-97675241D01*
X118463715Y-97674760D01*
X117954485Y-97885169D01*
X117564539Y-98274436D01*
X117353241Y-98783298D01*
X117352760Y-99334285D01*
X98359500Y-99334285D01*
X98359500Y-99050963D01*
X98391692Y-99018827D01*
X98534338Y-98675299D01*
X98534662Y-98303333D01*
X98392617Y-97959557D01*
X98359500Y-97926382D01*
X98359500Y-94605963D01*
X98391692Y-94573827D01*
X98534338Y-94230299D01*
X98534662Y-93858333D01*
X98392617Y-93514557D01*
X98359500Y-93481382D01*
X98359500Y-90160963D01*
X98391692Y-90128827D01*
X98534338Y-89785299D01*
X98534662Y-89413333D01*
X98392617Y-89069557D01*
X98359500Y-89036382D01*
X98359500Y-85715963D01*
X98391692Y-85683827D01*
X98534338Y-85340299D01*
X98534662Y-84968333D01*
X98392617Y-84624557D01*
X98359500Y-84591382D01*
X98359500Y-81270963D01*
X98391692Y-81238827D01*
X98534338Y-80895299D01*
X98534662Y-80523333D01*
X98392617Y-80179557D01*
X98359500Y-80146382D01*
X98359500Y-76825963D01*
X98391692Y-76793827D01*
X98534338Y-76450299D01*
X98534662Y-76078333D01*
X98392617Y-75734557D01*
X98359500Y-75701382D01*
X98359500Y-73015963D01*
X98391692Y-72983827D01*
X98534338Y-72640299D01*
X98534662Y-72268333D01*
X98392617Y-71924557D01*
X98129827Y-71661308D01*
X97786299Y-71518662D01*
X97414333Y-71518338D01*
X97070557Y-71660383D01*
X96807308Y-71923173D01*
X96664662Y-72266701D01*
X96664338Y-72638667D01*
X95359339Y-72638667D01*
X95359662Y-72268333D01*
X95217617Y-71924557D01*
X94954827Y-71661308D01*
X94611299Y-71518662D01*
X94239333Y-71518338D01*
X93895557Y-71660383D01*
X93632308Y-71923173D01*
X93489662Y-72266701D01*
X93489338Y-72638667D01*
X92184339Y-72638667D01*
X92184662Y-72268333D01*
X92042617Y-71924557D01*
X91779827Y-71661308D01*
X91436299Y-71518662D01*
X91064333Y-71518338D01*
X90720557Y-71660383D01*
X90457308Y-71923173D01*
X90314662Y-72266701D01*
X90314338Y-72638667D01*
X89009339Y-72638667D01*
X89009662Y-72268333D01*
X88867617Y-71924557D01*
X88604827Y-71661308D01*
X88261299Y-71518662D01*
X87889333Y-71518338D01*
X87545557Y-71660383D01*
X87282308Y-71923173D01*
X87139662Y-72266701D01*
X87139338Y-72638667D01*
X85834339Y-72638667D01*
X85834662Y-72268333D01*
X85692617Y-71924557D01*
X85429827Y-71661308D01*
X85086299Y-71518662D01*
X84714333Y-71518338D01*
X84370557Y-71660383D01*
X84107308Y-71923173D01*
X83964662Y-72266701D01*
X83964338Y-72638667D01*
X82659339Y-72638667D01*
X82659662Y-72268333D01*
X82517617Y-71924557D01*
X82254827Y-71661308D01*
X81911299Y-71518662D01*
X81539333Y-71518338D01*
X81195557Y-71660383D01*
X80932308Y-71923173D01*
X80789662Y-72266701D01*
X80789338Y-72638667D01*
X79484339Y-72638667D01*
X79484662Y-72268333D01*
X79342617Y-71924557D01*
X79079827Y-71661308D01*
X78736299Y-71518662D01*
X78364333Y-71518338D01*
X78020557Y-71660383D01*
X77757308Y-71923173D01*
X77614662Y-72266701D01*
X77614338Y-72638667D01*
X76309339Y-72638667D01*
X76309662Y-72268333D01*
X76167617Y-71924557D01*
X75904827Y-71661308D01*
X75561299Y-71518662D01*
X75189333Y-71518338D01*
X74845557Y-71660383D01*
X74582308Y-71923173D01*
X74439662Y-72266701D01*
X74439338Y-72638667D01*
X73134339Y-72638667D01*
X73134662Y-72268333D01*
X72992617Y-71924557D01*
X72729827Y-71661308D01*
X72386299Y-71518662D01*
X72014333Y-71518338D01*
X71689509Y-71652552D01*
X71819617Y-71565617D01*
X72409661Y-70975573D01*
X72511667Y-70975662D01*
X72855443Y-70833617D01*
X73118692Y-70570827D01*
X73261338Y-70227299D01*
X73261662Y-69855333D01*
X73119617Y-69511557D01*
X72959500Y-69351160D01*
X72959500Y-68570963D01*
X72991692Y-68538827D01*
X73134338Y-68195299D01*
X73134662Y-67823333D01*
X72992617Y-67479557D01*
X72959500Y-67446382D01*
X72959500Y-64125963D01*
X72991692Y-64093827D01*
X73134338Y-63750299D01*
X73134662Y-63378333D01*
X72992617Y-63034557D01*
X72959500Y-63001382D01*
X72959500Y-59680963D01*
X72991692Y-59648827D01*
X73134338Y-59305299D01*
X73134662Y-58933333D01*
X72992617Y-58589557D01*
X72959500Y-58556382D01*
X72959500Y-55235963D01*
X72991692Y-55203827D01*
X73134338Y-54860299D01*
X73134662Y-54488333D01*
X72992617Y-54144557D01*
X72959500Y-54111382D01*
X72959500Y-50790963D01*
X72991692Y-50758827D01*
X73134338Y-50415299D01*
X73134662Y-50043333D01*
X72992617Y-49699557D01*
X72959500Y-49666382D01*
X72959500Y-46345963D01*
X72991692Y-46313827D01*
X73134338Y-45970299D01*
X73134662Y-45598333D01*
X72992617Y-45254557D01*
X72959500Y-45221382D01*
X72959500Y-41900963D01*
X72991692Y-41868827D01*
X73134338Y-41525299D01*
X73134662Y-41153333D01*
X72992617Y-40809557D01*
X72959500Y-40776382D01*
X72959500Y-37455963D01*
X72991692Y-37423827D01*
X73134338Y-37080299D01*
X73134339Y-37078667D01*
X74439338Y-37078667D01*
X74581383Y-37422443D01*
X74614500Y-37455618D01*
X74614500Y-40776037D01*
X74582308Y-40808173D01*
X74439662Y-41151701D01*
X74439338Y-41523667D01*
X74581383Y-41867443D01*
X74614500Y-41900618D01*
X74614500Y-45221037D01*
X74582308Y-45253173D01*
X74439662Y-45596701D01*
X74439338Y-45968667D01*
X74581383Y-46312443D01*
X74614500Y-46345618D01*
X74614500Y-49666037D01*
X74582308Y-49698173D01*
X74439662Y-50041701D01*
X74439338Y-50413667D01*
X74581383Y-50757443D01*
X74614500Y-50790618D01*
X74614500Y-54111037D01*
X74582308Y-54143173D01*
X74439662Y-54486701D01*
X74439338Y-54858667D01*
X74581383Y-55202443D01*
X74614500Y-55235618D01*
X74614500Y-58556037D01*
X74582308Y-58588173D01*
X74439662Y-58931701D01*
X74439338Y-59303667D01*
X74581383Y-59647443D01*
X74614500Y-59680618D01*
X74614500Y-63001037D01*
X74582308Y-63033173D01*
X74439662Y-63376701D01*
X74439338Y-63748667D01*
X74581383Y-64092443D01*
X74614500Y-64125618D01*
X74614500Y-67446037D01*
X74582308Y-67478173D01*
X74439662Y-67821701D01*
X74439338Y-68193667D01*
X74581383Y-68537443D01*
X74844173Y-68800692D01*
X75187701Y-68943338D01*
X75559667Y-68943662D01*
X75903443Y-68801617D01*
X76166692Y-68538827D01*
X76309338Y-68195299D01*
X76309662Y-67823333D01*
X76167617Y-67479557D01*
X76134500Y-67446382D01*
X76134500Y-64125963D01*
X76166692Y-64093827D01*
X76309338Y-63750299D01*
X76309662Y-63378333D01*
X76167617Y-63034557D01*
X76134500Y-63001382D01*
X76134500Y-59680963D01*
X76166692Y-59648827D01*
X76309338Y-59305299D01*
X76309662Y-58933333D01*
X76167617Y-58589557D01*
X76134500Y-58556382D01*
X76134500Y-55235963D01*
X76166692Y-55203827D01*
X76309338Y-54860299D01*
X76309662Y-54488333D01*
X76167617Y-54144557D01*
X76134500Y-54111382D01*
X76134500Y-50790963D01*
X76166692Y-50758827D01*
X76309338Y-50415299D01*
X76309662Y-50043333D01*
X76167617Y-49699557D01*
X76134500Y-49666382D01*
X76134500Y-46345963D01*
X76166692Y-46313827D01*
X76309338Y-45970299D01*
X76309662Y-45598333D01*
X76167617Y-45254557D01*
X76134500Y-45221382D01*
X76134500Y-41900963D01*
X76166692Y-41868827D01*
X76309338Y-41525299D01*
X76309662Y-41153333D01*
X76167617Y-40809557D01*
X76134500Y-40776382D01*
X76134500Y-37455963D01*
X76166692Y-37423827D01*
X76309338Y-37080299D01*
X76309339Y-37078667D01*
X77614338Y-37078667D01*
X77756383Y-37422443D01*
X77789500Y-37455618D01*
X77789500Y-40776037D01*
X77757308Y-40808173D01*
X77614662Y-41151701D01*
X77614338Y-41523667D01*
X77756383Y-41867443D01*
X77789500Y-41900618D01*
X77789500Y-45221037D01*
X77757308Y-45253173D01*
X77614662Y-45596701D01*
X77614338Y-45968667D01*
X77756383Y-46312443D01*
X77789500Y-46345618D01*
X77789500Y-49666037D01*
X77757308Y-49698173D01*
X77614662Y-50041701D01*
X77614338Y-50413667D01*
X77756383Y-50757443D01*
X77789500Y-50790618D01*
X77789500Y-54111037D01*
X77757308Y-54143173D01*
X77614662Y-54486701D01*
X77614338Y-54858667D01*
X77756383Y-55202443D01*
X77789500Y-55235618D01*
X77789500Y-58556037D01*
X77757308Y-58588173D01*
X77614662Y-58931701D01*
X77614338Y-59303667D01*
X77756383Y-59647443D01*
X77789500Y-59680618D01*
X77789500Y-63001037D01*
X77757308Y-63033173D01*
X77614662Y-63376701D01*
X77614338Y-63748667D01*
X77756383Y-64092443D01*
X77789500Y-64125618D01*
X77789500Y-67446037D01*
X77757308Y-67478173D01*
X77614662Y-67821701D01*
X77614338Y-68193667D01*
X77756383Y-68537443D01*
X78019173Y-68800692D01*
X78362701Y-68943338D01*
X78734667Y-68943662D01*
X79078443Y-68801617D01*
X79341692Y-68538827D01*
X79484338Y-68195299D01*
X79484662Y-67823333D01*
X79342617Y-67479557D01*
X79309500Y-67446382D01*
X79309500Y-64125963D01*
X79341692Y-64093827D01*
X79484338Y-63750299D01*
X79484662Y-63378333D01*
X79342617Y-63034557D01*
X79309500Y-63001382D01*
X79309500Y-59680963D01*
X79341692Y-59648827D01*
X79484338Y-59305299D01*
X79484662Y-58933333D01*
X79342617Y-58589557D01*
X79309500Y-58556382D01*
X79309500Y-55235963D01*
X79341692Y-55203827D01*
X79484338Y-54860299D01*
X79484662Y-54488333D01*
X79342617Y-54144557D01*
X79309500Y-54111382D01*
X79309500Y-50790963D01*
X79341692Y-50758827D01*
X79484338Y-50415299D01*
X79484662Y-50043333D01*
X79342617Y-49699557D01*
X79309500Y-49666382D01*
X79309500Y-46345963D01*
X79341692Y-46313827D01*
X79484338Y-45970299D01*
X79484662Y-45598333D01*
X79342617Y-45254557D01*
X79309500Y-45221382D01*
X79309500Y-41900963D01*
X79341692Y-41868827D01*
X79484338Y-41525299D01*
X79484662Y-41153333D01*
X79342617Y-40809557D01*
X79309500Y-40776382D01*
X79309500Y-37455963D01*
X79341692Y-37423827D01*
X79484338Y-37080299D01*
X79484339Y-37078667D01*
X80789338Y-37078667D01*
X80931383Y-37422443D01*
X80964500Y-37455618D01*
X80964500Y-40776037D01*
X80932308Y-40808173D01*
X80789662Y-41151701D01*
X80789338Y-41523667D01*
X80931383Y-41867443D01*
X80964500Y-41900618D01*
X80964500Y-45221037D01*
X80932308Y-45253173D01*
X80789662Y-45596701D01*
X80789338Y-45968667D01*
X80931383Y-46312443D01*
X80964500Y-46345618D01*
X80964500Y-49666037D01*
X80932308Y-49698173D01*
X80789662Y-50041701D01*
X80789338Y-50413667D01*
X80931383Y-50757443D01*
X80964500Y-50790618D01*
X80964500Y-54111037D01*
X80932308Y-54143173D01*
X80789662Y-54486701D01*
X80789338Y-54858667D01*
X80931383Y-55202443D01*
X80964500Y-55235618D01*
X80964500Y-58556037D01*
X80932308Y-58588173D01*
X80789662Y-58931701D01*
X80789338Y-59303667D01*
X80931383Y-59647443D01*
X80964500Y-59680618D01*
X80964500Y-63001037D01*
X80932308Y-63033173D01*
X80789662Y-63376701D01*
X80789338Y-63748667D01*
X80931383Y-64092443D01*
X80964500Y-64125618D01*
X80964500Y-67446037D01*
X80932308Y-67478173D01*
X80789662Y-67821701D01*
X80789338Y-68193667D01*
X80931383Y-68537443D01*
X81194173Y-68800692D01*
X81537701Y-68943338D01*
X81909667Y-68943662D01*
X82253443Y-68801617D01*
X82516692Y-68538827D01*
X82659338Y-68195299D01*
X82659662Y-67823333D01*
X82517617Y-67479557D01*
X82484500Y-67446382D01*
X82484500Y-64125963D01*
X82516692Y-64093827D01*
X82659338Y-63750299D01*
X82659662Y-63378333D01*
X82517617Y-63034557D01*
X82484500Y-63001382D01*
X82484500Y-59680963D01*
X82516692Y-59648827D01*
X82659338Y-59305299D01*
X82659662Y-58933333D01*
X82517617Y-58589557D01*
X82484500Y-58556382D01*
X82484500Y-55235963D01*
X82516692Y-55203827D01*
X82659338Y-54860299D01*
X82659662Y-54488333D01*
X82517617Y-54144557D01*
X82484500Y-54111382D01*
X82484500Y-50790963D01*
X82516692Y-50758827D01*
X82659338Y-50415299D01*
X82659662Y-50043333D01*
X82517617Y-49699557D01*
X82484500Y-49666382D01*
X82484500Y-46345963D01*
X82516692Y-46313827D01*
X82659338Y-45970299D01*
X82659662Y-45598333D01*
X82517617Y-45254557D01*
X82484500Y-45221382D01*
X82484500Y-41900963D01*
X82516692Y-41868827D01*
X82659338Y-41525299D01*
X82659662Y-41153333D01*
X82517617Y-40809557D01*
X82484500Y-40776382D01*
X82484500Y-37455963D01*
X82516692Y-37423827D01*
X82659338Y-37080299D01*
X82659339Y-37078667D01*
X83964338Y-37078667D01*
X84106383Y-37422443D01*
X84139500Y-37455618D01*
X84139500Y-40776037D01*
X84107308Y-40808173D01*
X83964662Y-41151701D01*
X83964338Y-41523667D01*
X84106383Y-41867443D01*
X84139500Y-41900618D01*
X84139500Y-45221037D01*
X84107308Y-45253173D01*
X83964662Y-45596701D01*
X83964338Y-45968667D01*
X84106383Y-46312443D01*
X84139500Y-46345618D01*
X84139500Y-49666037D01*
X84107308Y-49698173D01*
X83964662Y-50041701D01*
X83964338Y-50413667D01*
X84106383Y-50757443D01*
X84139500Y-50790618D01*
X84139500Y-54111037D01*
X84107308Y-54143173D01*
X83964662Y-54486701D01*
X83964338Y-54858667D01*
X84106383Y-55202443D01*
X84139500Y-55235618D01*
X84139500Y-58556037D01*
X84107308Y-58588173D01*
X83964662Y-58931701D01*
X83964338Y-59303667D01*
X84106383Y-59647443D01*
X84139500Y-59680618D01*
X84139500Y-63001037D01*
X84107308Y-63033173D01*
X83964662Y-63376701D01*
X83964338Y-63748667D01*
X84106383Y-64092443D01*
X84139500Y-64125618D01*
X84139500Y-67446037D01*
X84107308Y-67478173D01*
X83964662Y-67821701D01*
X83964338Y-68193667D01*
X84106383Y-68537443D01*
X84369173Y-68800692D01*
X84712701Y-68943338D01*
X85084667Y-68943662D01*
X85428443Y-68801617D01*
X85691692Y-68538827D01*
X85834338Y-68195299D01*
X85834662Y-67823333D01*
X85692617Y-67479557D01*
X85659500Y-67446382D01*
X85659500Y-64125963D01*
X85691692Y-64093827D01*
X85834338Y-63750299D01*
X85834662Y-63378333D01*
X85692617Y-63034557D01*
X85659500Y-63001382D01*
X85659500Y-59680963D01*
X85691692Y-59648827D01*
X85834338Y-59305299D01*
X85834662Y-58933333D01*
X85692617Y-58589557D01*
X85659500Y-58556382D01*
X85659500Y-55235963D01*
X85691692Y-55203827D01*
X85834338Y-54860299D01*
X85834662Y-54488333D01*
X85692617Y-54144557D01*
X85659500Y-54111382D01*
X85659500Y-50790963D01*
X85691692Y-50758827D01*
X85834338Y-50415299D01*
X85834662Y-50043333D01*
X85692617Y-49699557D01*
X85659500Y-49666382D01*
X85659500Y-46345963D01*
X85691692Y-46313827D01*
X85834338Y-45970299D01*
X85834662Y-45598333D01*
X85692617Y-45254557D01*
X85659500Y-45221382D01*
X85659500Y-41900963D01*
X85691692Y-41868827D01*
X85834338Y-41525299D01*
X85834662Y-41153333D01*
X85692617Y-40809557D01*
X85659500Y-40776382D01*
X85659500Y-37455963D01*
X85691692Y-37423827D01*
X85834338Y-37080299D01*
X85834339Y-37078667D01*
X87139338Y-37078667D01*
X87281383Y-37422443D01*
X87314500Y-37455618D01*
X87314500Y-40776037D01*
X87282308Y-40808173D01*
X87139662Y-41151701D01*
X87139338Y-41523667D01*
X87281383Y-41867443D01*
X87314500Y-41900618D01*
X87314500Y-45221037D01*
X87282308Y-45253173D01*
X87139662Y-45596701D01*
X87139338Y-45968667D01*
X87281383Y-46312443D01*
X87314500Y-46345618D01*
X87314500Y-49666037D01*
X87282308Y-49698173D01*
X87139662Y-50041701D01*
X87139338Y-50413667D01*
X87281383Y-50757443D01*
X87314500Y-50790618D01*
X87314500Y-54111037D01*
X87282308Y-54143173D01*
X87139662Y-54486701D01*
X87139338Y-54858667D01*
X87281383Y-55202443D01*
X87314500Y-55235618D01*
X87314500Y-58556037D01*
X87282308Y-58588173D01*
X87139662Y-58931701D01*
X87139338Y-59303667D01*
X87281383Y-59647443D01*
X87314500Y-59680618D01*
X87314500Y-63001037D01*
X87282308Y-63033173D01*
X87139662Y-63376701D01*
X87139338Y-63748667D01*
X87281383Y-64092443D01*
X87314500Y-64125618D01*
X87314500Y-67446037D01*
X87282308Y-67478173D01*
X87139662Y-67821701D01*
X87139338Y-68193667D01*
X87281383Y-68537443D01*
X87544173Y-68800692D01*
X87887701Y-68943338D01*
X88259667Y-68943662D01*
X88603443Y-68801617D01*
X88866692Y-68538827D01*
X89009338Y-68195299D01*
X89009662Y-67823333D01*
X88867617Y-67479557D01*
X88834500Y-67446382D01*
X88834500Y-64125963D01*
X88866692Y-64093827D01*
X89009338Y-63750299D01*
X89009662Y-63378333D01*
X88867617Y-63034557D01*
X88834500Y-63001382D01*
X88834500Y-59680963D01*
X88866692Y-59648827D01*
X89009338Y-59305299D01*
X89009662Y-58933333D01*
X88867617Y-58589557D01*
X88834500Y-58556382D01*
X88834500Y-55235963D01*
X88866692Y-55203827D01*
X89009338Y-54860299D01*
X89009662Y-54488333D01*
X88867617Y-54144557D01*
X88834500Y-54111382D01*
X88834500Y-50790963D01*
X88866692Y-50758827D01*
X89009338Y-50415299D01*
X89009662Y-50043333D01*
X88867617Y-49699557D01*
X88834500Y-49666382D01*
X88834500Y-46345963D01*
X88866692Y-46313827D01*
X89009338Y-45970299D01*
X89009662Y-45598333D01*
X88867617Y-45254557D01*
X88834500Y-45221382D01*
X88834500Y-41900963D01*
X88866692Y-41868827D01*
X89009338Y-41525299D01*
X89009662Y-41153333D01*
X88867617Y-40809557D01*
X88834500Y-40776382D01*
X88834500Y-37455963D01*
X88866692Y-37423827D01*
X89009338Y-37080299D01*
X89009339Y-37078667D01*
X90314338Y-37078667D01*
X90456383Y-37422443D01*
X90489500Y-37455618D01*
X90489500Y-40776037D01*
X90457308Y-40808173D01*
X90314662Y-41151701D01*
X90314338Y-41523667D01*
X90456383Y-41867443D01*
X90489500Y-41900618D01*
X90489500Y-45221037D01*
X90457308Y-45253173D01*
X90314662Y-45596701D01*
X90314338Y-45968667D01*
X90456383Y-46312443D01*
X90489500Y-46345618D01*
X90489500Y-49666037D01*
X90457308Y-49698173D01*
X90314662Y-50041701D01*
X90314338Y-50413667D01*
X90456383Y-50757443D01*
X90489500Y-50790618D01*
X90489500Y-54111037D01*
X90457308Y-54143173D01*
X90314662Y-54486701D01*
X90314338Y-54858667D01*
X90456383Y-55202443D01*
X90489500Y-55235618D01*
X90489500Y-58556037D01*
X90457308Y-58588173D01*
X90314662Y-58931701D01*
X90314338Y-59303667D01*
X90456383Y-59647443D01*
X90489500Y-59680618D01*
X90489500Y-63001037D01*
X90457308Y-63033173D01*
X90314662Y-63376701D01*
X90314338Y-63748667D01*
X90456383Y-64092443D01*
X90489500Y-64125618D01*
X90489500Y-67446037D01*
X90457308Y-67478173D01*
X90314662Y-67821701D01*
X90314338Y-68193667D01*
X90456383Y-68537443D01*
X90719173Y-68800692D01*
X91062701Y-68943338D01*
X91434667Y-68943662D01*
X91778443Y-68801617D01*
X92041692Y-68538827D01*
X92184338Y-68195299D01*
X92184662Y-67823333D01*
X92042617Y-67479557D01*
X92009500Y-67446382D01*
X92009500Y-64125963D01*
X92041692Y-64093827D01*
X92184338Y-63750299D01*
X92184662Y-63378333D01*
X92042617Y-63034557D01*
X92009500Y-63001382D01*
X92009500Y-59680963D01*
X92041692Y-59648827D01*
X92184338Y-59305299D01*
X92184662Y-58933333D01*
X92042617Y-58589557D01*
X92009500Y-58556382D01*
X92009500Y-55235963D01*
X92041692Y-55203827D01*
X92184338Y-54860299D01*
X92184662Y-54488333D01*
X92042617Y-54144557D01*
X92009500Y-54111382D01*
X92009500Y-50790963D01*
X92041692Y-50758827D01*
X92184338Y-50415299D01*
X92184662Y-50043333D01*
X92042617Y-49699557D01*
X92009500Y-49666382D01*
X92009500Y-46345963D01*
X92041692Y-46313827D01*
X92184338Y-45970299D01*
X92184662Y-45598333D01*
X92042617Y-45254557D01*
X92009500Y-45221382D01*
X92009500Y-41900963D01*
X92041692Y-41868827D01*
X92184338Y-41525299D01*
X92184662Y-41153333D01*
X92042617Y-40809557D01*
X92009500Y-40776382D01*
X92009500Y-37455963D01*
X92041692Y-37423827D01*
X92184338Y-37080299D01*
X92184339Y-37078667D01*
X93489338Y-37078667D01*
X93631383Y-37422443D01*
X93664500Y-37455618D01*
X93664500Y-40776037D01*
X93632308Y-40808173D01*
X93489662Y-41151701D01*
X93489338Y-41523667D01*
X93631383Y-41867443D01*
X93664500Y-41900618D01*
X93664500Y-45221037D01*
X93632308Y-45253173D01*
X93489662Y-45596701D01*
X93489338Y-45968667D01*
X93631383Y-46312443D01*
X93664500Y-46345618D01*
X93664500Y-49666037D01*
X93632308Y-49698173D01*
X93489662Y-50041701D01*
X93489338Y-50413667D01*
X93631383Y-50757443D01*
X93664500Y-50790618D01*
X93664500Y-54111037D01*
X93632308Y-54143173D01*
X93489662Y-54486701D01*
X93489338Y-54858667D01*
X93631383Y-55202443D01*
X93664500Y-55235618D01*
X93664500Y-58556037D01*
X93632308Y-58588173D01*
X93489662Y-58931701D01*
X93489338Y-59303667D01*
X93631383Y-59647443D01*
X93664500Y-59680618D01*
X93664500Y-63001037D01*
X93632308Y-63033173D01*
X93489662Y-63376701D01*
X93489338Y-63748667D01*
X93631383Y-64092443D01*
X93664500Y-64125618D01*
X93664500Y-67446037D01*
X93632308Y-67478173D01*
X93489662Y-67821701D01*
X93489338Y-68193667D01*
X93631383Y-68537443D01*
X93894173Y-68800692D01*
X94237701Y-68943338D01*
X94609667Y-68943662D01*
X94953443Y-68801617D01*
X95216692Y-68538827D01*
X95359338Y-68195299D01*
X95359662Y-67823333D01*
X95217617Y-67479557D01*
X95184500Y-67446382D01*
X95184500Y-64125963D01*
X95216692Y-64093827D01*
X95359338Y-63750299D01*
X95359662Y-63378333D01*
X95217617Y-63034557D01*
X95184500Y-63001382D01*
X95184500Y-59680963D01*
X95216692Y-59648827D01*
X95359338Y-59305299D01*
X95359662Y-58933333D01*
X95217617Y-58589557D01*
X95184500Y-58556382D01*
X95184500Y-55235963D01*
X95216692Y-55203827D01*
X95359338Y-54860299D01*
X95359662Y-54488333D01*
X95217617Y-54144557D01*
X95184500Y-54111382D01*
X95184500Y-50790963D01*
X95216692Y-50758827D01*
X95359338Y-50415299D01*
X95359662Y-50043333D01*
X95217617Y-49699557D01*
X95184500Y-49666382D01*
X95184500Y-46345963D01*
X95216692Y-46313827D01*
X95359338Y-45970299D01*
X95359662Y-45598333D01*
X95217617Y-45254557D01*
X95184500Y-45221382D01*
X95184500Y-41900963D01*
X95216692Y-41868827D01*
X95359338Y-41525299D01*
X95359662Y-41153333D01*
X95217617Y-40809557D01*
X95184500Y-40776382D01*
X95184500Y-37455963D01*
X95216692Y-37423827D01*
X95359338Y-37080299D01*
X95359339Y-37078667D01*
X96664338Y-37078667D01*
X96806383Y-37422443D01*
X96839500Y-37455618D01*
X96839500Y-40776037D01*
X96807308Y-40808173D01*
X96664662Y-41151701D01*
X96664338Y-41523667D01*
X96806383Y-41867443D01*
X96839500Y-41900618D01*
X96839500Y-45221037D01*
X96807308Y-45253173D01*
X96664662Y-45596701D01*
X96664338Y-45968667D01*
X96806383Y-46312443D01*
X96839500Y-46345618D01*
X96839500Y-49666037D01*
X96807308Y-49698173D01*
X96664662Y-50041701D01*
X96664338Y-50413667D01*
X96806383Y-50757443D01*
X96839500Y-50790618D01*
X96839500Y-54111037D01*
X96807308Y-54143173D01*
X96664662Y-54486701D01*
X96664338Y-54858667D01*
X96806383Y-55202443D01*
X96839500Y-55235618D01*
X96839500Y-58556037D01*
X96807308Y-58588173D01*
X96664662Y-58931701D01*
X96664338Y-59303667D01*
X96806383Y-59647443D01*
X96839500Y-59680618D01*
X96839500Y-63001037D01*
X96807308Y-63033173D01*
X96664662Y-63376701D01*
X96664338Y-63748667D01*
X96806383Y-64092443D01*
X96839500Y-64125618D01*
X96839500Y-67446037D01*
X96807308Y-67478173D01*
X96664662Y-67821701D01*
X96664338Y-68193667D01*
X96806383Y-68537443D01*
X97069173Y-68800692D01*
X97412701Y-68943338D01*
X97784667Y-68943662D01*
X98128443Y-68801617D01*
X98391692Y-68538827D01*
X98534338Y-68195299D01*
X98534662Y-67823333D01*
X98392617Y-67479557D01*
X98359500Y-67446382D01*
X98359500Y-64125963D01*
X98391692Y-64093827D01*
X98534338Y-63750299D01*
X98534662Y-63378333D01*
X98392617Y-63034557D01*
X98359500Y-63001382D01*
X98359500Y-59680963D01*
X98391692Y-59648827D01*
X98534338Y-59305299D01*
X98534662Y-58933333D01*
X98392617Y-58589557D01*
X98359500Y-58556382D01*
X98359500Y-55235963D01*
X98391692Y-55203827D01*
X98534338Y-54860299D01*
X98534662Y-54488333D01*
X98392617Y-54144557D01*
X98359500Y-54111382D01*
X98359500Y-50790963D01*
X98391692Y-50758827D01*
X98534338Y-50415299D01*
X98534662Y-50043333D01*
X98392617Y-49699557D01*
X98359500Y-49666382D01*
X98359500Y-46345963D01*
X98371198Y-46334285D01*
X117352760Y-46334285D01*
X117563169Y-46843515D01*
X117952436Y-47233461D01*
X118461298Y-47444759D01*
X119012285Y-47445240D01*
X119521515Y-47234831D01*
X119911461Y-46845564D01*
X120122759Y-46336702D01*
X120122761Y-46334285D01*
X132352760Y-46334285D01*
X132563169Y-46843515D01*
X132952436Y-47233461D01*
X133461298Y-47444759D01*
X134012285Y-47445240D01*
X134521515Y-47234831D01*
X134911461Y-46845564D01*
X135122759Y-46336702D01*
X135123240Y-45785715D01*
X134912831Y-45276485D01*
X134523564Y-44886539D01*
X134014702Y-44675241D01*
X133463715Y-44674760D01*
X132954485Y-44885169D01*
X132564539Y-45274436D01*
X132353241Y-45783298D01*
X132352760Y-46334285D01*
X120122761Y-46334285D01*
X120123240Y-45785715D01*
X119912831Y-45276485D01*
X119523564Y-44886539D01*
X119014702Y-44675241D01*
X118463715Y-44674760D01*
X117954485Y-44885169D01*
X117564539Y-45274436D01*
X117353241Y-45783298D01*
X117352760Y-46334285D01*
X98371198Y-46334285D01*
X98391692Y-46313827D01*
X98534338Y-45970299D01*
X98534662Y-45598333D01*
X98392617Y-45254557D01*
X98359500Y-45221382D01*
X98359500Y-41900963D01*
X98391692Y-41868827D01*
X98534338Y-41525299D01*
X98534662Y-41153333D01*
X98392617Y-40809557D01*
X98359500Y-40776382D01*
X98359500Y-37455963D01*
X98391692Y-37423827D01*
X98534338Y-37080299D01*
X98534662Y-36708333D01*
X98392617Y-36364557D01*
X98129827Y-36101308D01*
X97786299Y-35958662D01*
X97414333Y-35958338D01*
X97070557Y-36100383D01*
X96807308Y-36363173D01*
X96664662Y-36706701D01*
X96664338Y-37078667D01*
X95359339Y-37078667D01*
X95359662Y-36708333D01*
X95217617Y-36364557D01*
X94954827Y-36101308D01*
X94611299Y-35958662D01*
X94239333Y-35958338D01*
X93895557Y-36100383D01*
X93632308Y-36363173D01*
X93489662Y-36706701D01*
X93489338Y-37078667D01*
X92184339Y-37078667D01*
X92184662Y-36708333D01*
X92042617Y-36364557D01*
X91779827Y-36101308D01*
X91436299Y-35958662D01*
X91064333Y-35958338D01*
X90720557Y-36100383D01*
X90457308Y-36363173D01*
X90314662Y-36706701D01*
X90314338Y-37078667D01*
X89009339Y-37078667D01*
X89009662Y-36708333D01*
X88867617Y-36364557D01*
X88604827Y-36101308D01*
X88261299Y-35958662D01*
X87889333Y-35958338D01*
X87545557Y-36100383D01*
X87282308Y-36363173D01*
X87139662Y-36706701D01*
X87139338Y-37078667D01*
X85834339Y-37078667D01*
X85834662Y-36708333D01*
X85692617Y-36364557D01*
X85429827Y-36101308D01*
X85086299Y-35958662D01*
X84714333Y-35958338D01*
X84370557Y-36100383D01*
X84107308Y-36363173D01*
X83964662Y-36706701D01*
X83964338Y-37078667D01*
X82659339Y-37078667D01*
X82659662Y-36708333D01*
X82517617Y-36364557D01*
X82254827Y-36101308D01*
X81911299Y-35958662D01*
X81539333Y-35958338D01*
X81195557Y-36100383D01*
X80932308Y-36363173D01*
X80789662Y-36706701D01*
X80789338Y-37078667D01*
X79484339Y-37078667D01*
X79484662Y-36708333D01*
X79342617Y-36364557D01*
X79079827Y-36101308D01*
X78736299Y-35958662D01*
X78364333Y-35958338D01*
X78020557Y-36100383D01*
X77757308Y-36363173D01*
X77614662Y-36706701D01*
X77614338Y-37078667D01*
X76309339Y-37078667D01*
X76309662Y-36708333D01*
X76167617Y-36364557D01*
X75904827Y-36101308D01*
X75561299Y-35958662D01*
X75189333Y-35958338D01*
X74845557Y-36100383D01*
X74582308Y-36363173D01*
X74439662Y-36706701D01*
X74439338Y-37078667D01*
X73134339Y-37078667D01*
X73134662Y-36708333D01*
X72992617Y-36364557D01*
X72729827Y-36101308D01*
X72386299Y-35958662D01*
X72014333Y-35958338D01*
X71670557Y-36100383D01*
X71407308Y-36363173D01*
X71264662Y-36706701D01*
X71264338Y-37078667D01*
X71406383Y-37422443D01*
X71439500Y-37455618D01*
X71439500Y-40776037D01*
X71407308Y-40808173D01*
X71264662Y-41151701D01*
X71264338Y-41523667D01*
X71406383Y-41867443D01*
X71439500Y-41900618D01*
X71439500Y-43586453D01*
X71341617Y-43349557D01*
X71078827Y-43086308D01*
X70735299Y-42943662D01*
X70363333Y-42943338D01*
X70019557Y-43085383D01*
X69946312Y-43158500D01*
X69372893Y-43158500D01*
X69300827Y-43086308D01*
X68957299Y-42943662D01*
X68585333Y-42943338D01*
X68241557Y-43085383D01*
X67978308Y-43348173D01*
X67835662Y-43691701D01*
X67835338Y-44063667D01*
X67977383Y-44407443D01*
X68240173Y-44670692D01*
X68583701Y-44813338D01*
X68955667Y-44813662D01*
X69299443Y-44671617D01*
X69372688Y-44598500D01*
X69946107Y-44598500D01*
X70018173Y-44670692D01*
X70361701Y-44813338D01*
X70733667Y-44813662D01*
X71077443Y-44671617D01*
X71340692Y-44408827D01*
X71439500Y-44170872D01*
X71439500Y-45221037D01*
X71407308Y-45253173D01*
X71264662Y-45596701D01*
X71264338Y-45968667D01*
X71406383Y-46312443D01*
X71439500Y-46345618D01*
X71439500Y-48158453D01*
X71341617Y-47921557D01*
X71078827Y-47658308D01*
X70735299Y-47515662D01*
X70363333Y-47515338D01*
X70019557Y-47657383D01*
X69946312Y-47730500D01*
X68610893Y-47730500D01*
X68538827Y-47658308D01*
X68195299Y-47515662D01*
X67823333Y-47515338D01*
X67479557Y-47657383D01*
X67216308Y-47920173D01*
X67073662Y-48263701D01*
X67073338Y-48635667D01*
X67215383Y-48979443D01*
X67478173Y-49242692D01*
X67821701Y-49385338D01*
X68193667Y-49385662D01*
X68537443Y-49243617D01*
X68610688Y-49170500D01*
X69946107Y-49170500D01*
X70018173Y-49242692D01*
X70361701Y-49385338D01*
X70733667Y-49385662D01*
X71077443Y-49243617D01*
X71340692Y-48980827D01*
X71439500Y-48742872D01*
X71439500Y-49666037D01*
X71407308Y-49698173D01*
X71264662Y-50041701D01*
X71264338Y-50413667D01*
X71406383Y-50757443D01*
X71439500Y-50790618D01*
X71439500Y-52476453D01*
X71341617Y-52239557D01*
X71078827Y-51976308D01*
X70735299Y-51833662D01*
X70363333Y-51833338D01*
X70019557Y-51975383D01*
X69946312Y-52048500D01*
X68102893Y-52048500D01*
X68030827Y-51976308D01*
X67687299Y-51833662D01*
X67315333Y-51833338D01*
X66971557Y-51975383D01*
X66708308Y-52238173D01*
X66565662Y-52581701D01*
X66565338Y-52953667D01*
X66707383Y-53297443D01*
X66970173Y-53560692D01*
X67313701Y-53703338D01*
X67685667Y-53703662D01*
X68029443Y-53561617D01*
X68102688Y-53488500D01*
X69946107Y-53488500D01*
X70018173Y-53560692D01*
X70361701Y-53703338D01*
X70733667Y-53703662D01*
X71077443Y-53561617D01*
X71340692Y-53298827D01*
X71439500Y-53060872D01*
X71439500Y-54111037D01*
X71407308Y-54143173D01*
X71264662Y-54486701D01*
X71264338Y-54858667D01*
X71406383Y-55202443D01*
X71439500Y-55235618D01*
X71439500Y-57048453D01*
X71341617Y-56811557D01*
X71078827Y-56548308D01*
X70735299Y-56405662D01*
X70363333Y-56405338D01*
X70019557Y-56547383D01*
X69946312Y-56620500D01*
X67340893Y-56620500D01*
X67268827Y-56548308D01*
X66925299Y-56405662D01*
X66553333Y-56405338D01*
X66209557Y-56547383D01*
X65946308Y-56810173D01*
X65803662Y-57153701D01*
X65803338Y-57525667D01*
X65945383Y-57869443D01*
X66208173Y-58132692D01*
X66551701Y-58275338D01*
X66923667Y-58275662D01*
X67267443Y-58133617D01*
X67340688Y-58060500D01*
X69946107Y-58060500D01*
X70018173Y-58132692D01*
X70361701Y-58275338D01*
X70733667Y-58275662D01*
X71077443Y-58133617D01*
X71340692Y-57870827D01*
X71439500Y-57632872D01*
X71439500Y-58556037D01*
X71407308Y-58588173D01*
X71264662Y-58931701D01*
X71264338Y-59303667D01*
X71406383Y-59647443D01*
X71439500Y-59680618D01*
X71439500Y-61366453D01*
X71341617Y-61129557D01*
X71078827Y-60866308D01*
X70735299Y-60723662D01*
X70363333Y-60723338D01*
X70019557Y-60865383D01*
X69946312Y-60938500D01*
X66578893Y-60938500D01*
X66506827Y-60866308D01*
X66163299Y-60723662D01*
X65791333Y-60723338D01*
X65447557Y-60865383D01*
X65184308Y-61128173D01*
X65041662Y-61471701D01*
X65041338Y-61843667D01*
X65183383Y-62187443D01*
X65446173Y-62450692D01*
X65789701Y-62593338D01*
X66161667Y-62593662D01*
X66505443Y-62451617D01*
X66578688Y-62378500D01*
X69946107Y-62378500D01*
X70018173Y-62450692D01*
X70361701Y-62593338D01*
X70733667Y-62593662D01*
X71077443Y-62451617D01*
X71340692Y-62188827D01*
X71439500Y-61950872D01*
X71439500Y-63001037D01*
X71407308Y-63033173D01*
X71264662Y-63376701D01*
X71264338Y-63748667D01*
X71406383Y-64092443D01*
X71439500Y-64125618D01*
X71439500Y-65938453D01*
X71341617Y-65701557D01*
X71078827Y-65438308D01*
X70735299Y-65295662D01*
X70363333Y-65295338D01*
X70019557Y-65437383D01*
X69756308Y-65700173D01*
X69729597Y-65764500D01*
X65816893Y-65764500D01*
X65744827Y-65692308D01*
X65401299Y-65549662D01*
X65029333Y-65549338D01*
X64685557Y-65691383D01*
X64422308Y-65954173D01*
X64279662Y-66297701D01*
X64279338Y-66669667D01*
X64421383Y-67013443D01*
X64684173Y-67276692D01*
X65027701Y-67419338D01*
X65399667Y-67419662D01*
X65743443Y-67277617D01*
X65816688Y-67204500D01*
X70294500Y-67204500D01*
X70490814Y-67165450D01*
X70733667Y-67165662D01*
X71077443Y-67023617D01*
X71340692Y-66760827D01*
X71439500Y-66522872D01*
X71439500Y-67446037D01*
X71407308Y-67478173D01*
X71264662Y-67821701D01*
X71264338Y-68193667D01*
X71406383Y-68537443D01*
X71439500Y-68570618D01*
X71439500Y-69738495D01*
X71391662Y-69853701D01*
X71391572Y-69957194D01*
X71229653Y-70119113D01*
X71229662Y-70109333D01*
X71087617Y-69765557D01*
X70824827Y-69502308D01*
X70481299Y-69359662D01*
X70109333Y-69359338D01*
X69765557Y-69501383D01*
X69692312Y-69574500D01*
X65054893Y-69574500D01*
X64982827Y-69502308D01*
X64639299Y-69359662D01*
X64267333Y-69359338D01*
X63923557Y-69501383D01*
X63660308Y-69764173D01*
X63517662Y-70107701D01*
X63517429Y-70375349D01*
X63505333Y-70375338D01*
X63161557Y-70517383D01*
X62898308Y-70780173D01*
X62755662Y-71123701D01*
X62755338Y-71495667D01*
X21216819Y-71495667D01*
X21431009Y-71309539D01*
X22078863Y-70883219D01*
X22641441Y-70623302D01*
X23116060Y-70461992D01*
X23872734Y-70278410D01*
X25203462Y-70062078D01*
X25273400Y-70035952D01*
X25346816Y-70022412D01*
X25397384Y-69989637D01*
X25453837Y-69968548D01*
X25508451Y-69917649D01*
X25571099Y-69877044D01*
X25605276Y-69827411D01*
X25649361Y-69786324D01*
X25680341Y-69718396D01*
X25722679Y-69656910D01*
X25735260Y-69597979D01*
X25760267Y-69543147D01*
X25762894Y-69468535D01*
X25778480Y-69395526D01*
X25767551Y-69336265D01*
X25769671Y-69276039D01*
X25743545Y-69206101D01*
X25730005Y-69132685D01*
X25697230Y-69082117D01*
X25676141Y-69025664D01*
X25625243Y-68971051D01*
X25584637Y-68908402D01*
X25201098Y-68513991D01*
X24827810Y-68006913D01*
X24601956Y-67618490D01*
X24302757Y-66941211D01*
X24129216Y-66374948D01*
X24005283Y-65730752D01*
X23944590Y-64822503D01*
X23949544Y-64589869D01*
X24031103Y-63926904D01*
X24170314Y-63506073D01*
X24418476Y-63105376D01*
X24751673Y-62717264D01*
X24756646Y-62708437D01*
X24764434Y-62701955D01*
X25055695Y-62342010D01*
X25079038Y-62297604D01*
X25112541Y-62260255D01*
X25377048Y-61813762D01*
X25397589Y-61755410D01*
X25429992Y-61702717D01*
X25621011Y-61187409D01*
X25628588Y-61140045D01*
X25647808Y-61096101D01*
X25751548Y-60623210D01*
X25752148Y-60592609D01*
X25761891Y-60563592D01*
X25814646Y-60152372D01*
X25812802Y-60125600D01*
X25819351Y-60099578D01*
X25854129Y-59407327D01*
X25851374Y-59388612D01*
X25854986Y-59370042D01*
X25852994Y-58901981D01*
X25850308Y-58888772D01*
X25852367Y-58875451D01*
X25823629Y-58207518D01*
X25819874Y-58192131D01*
X25821578Y-58176387D01*
X25758302Y-57463660D01*
X25753488Y-57447222D01*
X25754490Y-57430120D01*
X25614375Y-56420004D01*
X25610217Y-56408028D01*
X25610497Y-56395355D01*
X25462231Y-55553154D01*
X25461301Y-55550761D01*
X25461339Y-55548196D01*
X25233188Y-54305795D01*
X25083987Y-53299257D01*
X25023310Y-52668396D01*
X24994919Y-52051569D01*
X25001312Y-51384355D01*
X25057918Y-50604289D01*
X25175614Y-49761643D01*
X25344873Y-48927531D01*
X25549914Y-48132007D01*
X25792106Y-47337971D01*
X26048707Y-46595354D01*
X26149939Y-46334285D01*
X31500760Y-46334285D01*
X31711169Y-46843515D01*
X32100436Y-47233461D01*
X32609298Y-47444759D01*
X33160285Y-47445240D01*
X33669515Y-47234831D01*
X34059461Y-46845564D01*
X34270759Y-46336702D01*
X34270761Y-46334285D01*
X46500760Y-46334285D01*
X46711169Y-46843515D01*
X47100436Y-47233461D01*
X47609298Y-47444759D01*
X48160285Y-47445240D01*
X48669515Y-47234831D01*
X49059461Y-46845564D01*
X49270759Y-46336702D01*
X49271240Y-45785715D01*
X49060831Y-45276485D01*
X48671564Y-44886539D01*
X48162702Y-44675241D01*
X47611715Y-44674760D01*
X47102485Y-44885169D01*
X46712539Y-45274436D01*
X46501241Y-45783298D01*
X46500760Y-46334285D01*
X34270761Y-46334285D01*
X34271240Y-45785715D01*
X34060831Y-45276485D01*
X33671564Y-44886539D01*
X33162702Y-44675241D01*
X32611715Y-44674760D01*
X32102485Y-44885169D01*
X31712539Y-45274436D01*
X31501241Y-45783298D01*
X31500760Y-46334285D01*
X26149939Y-46334285D01*
X26473857Y-45498931D01*
X26670169Y-45033225D01*
X26996601Y-44311094D01*
X27660917Y-43023730D01*
X28088639Y-42311746D01*
X28499008Y-41707444D01*
X29106174Y-40942957D01*
X29729428Y-40305209D01*
X30203998Y-39912993D01*
X30967400Y-39439416D01*
X31812308Y-39123009D01*
X32730900Y-39005204D01*
X33506907Y-39074476D01*
X34654885Y-39425699D01*
X35146363Y-39646436D01*
X35965175Y-40116658D01*
X36476783Y-40585664D01*
X36909905Y-41237741D01*
X37338792Y-41949136D01*
X37351949Y-41963578D01*
X37359601Y-41981554D01*
X37575985Y-42298672D01*
X37928502Y-42833441D01*
X37937327Y-42842376D01*
X37942478Y-42853833D01*
X38183538Y-43192278D01*
X38256754Y-43261247D01*
X38322853Y-43337076D01*
X39312786Y-44101402D01*
X39328571Y-44109245D01*
X39340812Y-44121928D01*
X39447729Y-44168452D01*
X39552141Y-44220331D01*
X39569725Y-44221536D01*
X39585889Y-44228570D01*
X40789157Y-44490171D01*
X40796403Y-44490299D01*
X40803109Y-44493053D01*
X40929763Y-44492664D01*
X41056388Y-44494909D01*
X41063133Y-44492254D01*
X41070381Y-44492232D01*
X42132802Y-44277510D01*
X42150854Y-44269967D01*
X42170385Y-44268806D01*
X42273580Y-44218691D01*
X42379415Y-44174471D01*
X42393205Y-44160596D01*
X42410807Y-44152048D01*
X43508465Y-43320295D01*
X43563148Y-43258697D01*
X43626542Y-43206113D01*
X43874961Y-42900159D01*
X44862505Y-41749693D01*
X45704264Y-40841137D01*
X46899457Y-39646984D01*
X47983605Y-38647752D01*
X49472468Y-37387646D01*
X50857789Y-36317215D01*
X52750787Y-34993114D01*
X54384828Y-33963983D01*
X56131320Y-32967899D01*
X57485848Y-32262760D01*
X59911438Y-31133410D01*
X62641910Y-30046600D01*
X65452245Y-29110192D01*
X67657148Y-28492560D01*
X68029867Y-28397720D01*
X69646121Y-28016979D01*
X70632899Y-27808076D01*
X71987708Y-27549241D01*
X73650848Y-27273988D01*
X75530286Y-27016723D01*
X77306354Y-26823581D01*
X78913534Y-26688804D01*
X80846195Y-26574845D01*
X81887291Y-26534448D01*
X82187525Y-26526912D01*
X81178485Y-26943838D01*
X80197284Y-27923329D01*
X79665606Y-29203749D01*
X79664397Y-30590168D01*
X80193838Y-31871515D01*
X81173329Y-32852716D01*
X82453749Y-33384394D01*
X83840168Y-33385603D01*
X85121515Y-32856162D01*
X86102716Y-31876671D01*
X86634394Y-30596251D01*
X86635603Y-29209832D01*
X86106162Y-27928485D01*
X85126671Y-26947284D01*
X84104652Y-26522904D01*
X84692426Y-26536633D01*
M02*
