G04 #@! TF.FileFunction,Legend,Top*
%FSLAX46Y46*%
G04 Gerber Fmt 4.6, Leading zero omitted, Abs format (unit mm)*
G04 Created by KiCad (PCBNEW 4.0.4-stable) date 05/15/17 11:58:30*
%MOMM*%
%LPD*%
G01*
G04 APERTURE LIST*
%ADD10C,0.100000*%
%ADD11C,0.300000*%
%ADD12C,0.250000*%
%ADD13C,0.400000*%
%ADD14C,0.120000*%
%ADD15C,0.152400*%
%ADD16C,0.150000*%
%ADD17C,0.200000*%
%ADD18C,0.350000*%
%ADD19C,0.254000*%
G04 APERTURE END LIST*
D10*
D11*
X94671657Y-146323183D02*
X94941031Y-146188496D01*
X95277748Y-145851778D01*
X95345092Y-145649748D01*
X95345092Y-145515061D01*
X95277749Y-145313030D01*
X95143061Y-145178343D01*
X94941030Y-145111000D01*
X94806343Y-145111000D01*
X94604313Y-145178343D01*
X94267596Y-145380374D01*
X94065566Y-145447717D01*
X93930878Y-145447718D01*
X93728847Y-145380374D01*
X93594160Y-145245687D01*
X93526817Y-145043657D01*
X93526817Y-144908969D01*
X93594161Y-144706939D01*
X93930878Y-144370221D01*
X94200253Y-144235534D01*
X96624618Y-144370221D02*
X96557275Y-144572252D01*
X96287901Y-144841626D01*
X96085870Y-144908970D01*
X95883840Y-144841626D01*
X95345092Y-144302878D01*
X95277748Y-144100848D01*
X95345092Y-143898817D01*
X95614466Y-143629443D01*
X95816496Y-143562100D01*
X96018527Y-143629443D01*
X96153214Y-143764130D01*
X95614465Y-144572252D01*
X97365397Y-143764130D02*
X96422588Y-142821321D01*
X96691962Y-143090695D02*
X96624619Y-142888664D01*
X96624619Y-142753977D01*
X96691962Y-142551947D01*
X96826649Y-142417260D01*
X98240862Y-142888664D02*
X97298053Y-141945856D01*
X96826649Y-141474451D02*
X96826649Y-141609138D01*
X96961336Y-141609138D01*
X96961336Y-141474450D01*
X96826649Y-141474451D01*
X96961336Y-141609138D01*
X99520389Y-141609138D02*
X98779610Y-140868359D01*
X98577580Y-140801016D01*
X98375550Y-140868359D01*
X98106176Y-141137733D01*
X98038832Y-141339764D01*
X99453045Y-141541794D02*
X99385702Y-141743825D01*
X99048985Y-142080542D01*
X98846954Y-142147886D01*
X98644924Y-142080543D01*
X98510236Y-141945855D01*
X98442893Y-141743825D01*
X98510237Y-141541794D01*
X98846954Y-141205076D01*
X98914297Y-141003046D01*
X100395855Y-140733672D02*
X100193825Y-140801015D01*
X99991794Y-140733672D01*
X98779610Y-139521489D01*
X102012099Y-139117428D02*
X100597885Y-137703214D01*
X102820221Y-138309305D01*
X101406008Y-136895092D01*
X103695687Y-137433840D02*
X103493657Y-137501183D01*
X103358969Y-137501184D01*
X103156939Y-137433841D01*
X102752877Y-137029779D01*
X102685534Y-136827749D01*
X102685535Y-136693061D01*
X102752878Y-136491031D01*
X102954908Y-136289001D01*
X103156939Y-136221657D01*
X103291626Y-136221657D01*
X103493656Y-136289001D01*
X103897717Y-136693062D01*
X103965061Y-136895092D01*
X103965061Y-137029779D01*
X103897717Y-137231810D01*
X103695687Y-137433840D01*
X104638496Y-136221657D02*
X104773183Y-136221657D01*
X104773183Y-136356344D01*
X104638496Y-136356344D01*
X104638496Y-136221657D01*
X104773183Y-136356344D01*
D12*
X120207142Y-51927381D02*
X120778571Y-51927381D01*
X120492856Y-52927381D02*
X120492856Y-51927381D01*
X121111904Y-52927381D02*
X121111904Y-51927381D01*
X121540476Y-52927381D02*
X121540476Y-52403571D01*
X121492857Y-52308333D01*
X121397619Y-52260714D01*
X121254761Y-52260714D01*
X121159523Y-52308333D01*
X121111904Y-52355952D01*
X122016666Y-52927381D02*
X122016666Y-52260714D01*
X122016666Y-51927381D02*
X121969047Y-51975000D01*
X122016666Y-52022619D01*
X122064285Y-51975000D01*
X122016666Y-51927381D01*
X122016666Y-52022619D01*
X122445237Y-52879762D02*
X122540475Y-52927381D01*
X122730951Y-52927381D01*
X122826190Y-52879762D01*
X122873809Y-52784524D01*
X122873809Y-52736905D01*
X122826190Y-52641667D01*
X122730951Y-52594048D01*
X122588094Y-52594048D01*
X122492856Y-52546429D01*
X122445237Y-52451190D01*
X122445237Y-52403571D01*
X122492856Y-52308333D01*
X122588094Y-52260714D01*
X122730951Y-52260714D01*
X122826190Y-52308333D01*
X124064285Y-52260714D02*
X124064285Y-53260714D01*
X124064285Y-52308333D02*
X124159523Y-52260714D01*
X124350000Y-52260714D01*
X124445238Y-52308333D01*
X124492857Y-52355952D01*
X124540476Y-52451190D01*
X124540476Y-52736905D01*
X124492857Y-52832143D01*
X124445238Y-52879762D01*
X124350000Y-52927381D01*
X124159523Y-52927381D01*
X124064285Y-52879762D01*
X124969047Y-52927381D02*
X124969047Y-52260714D01*
X124969047Y-52451190D02*
X125016666Y-52355952D01*
X125064285Y-52308333D01*
X125159523Y-52260714D01*
X125254762Y-52260714D01*
X125730952Y-52927381D02*
X125635714Y-52879762D01*
X125588095Y-52832143D01*
X125540476Y-52736905D01*
X125540476Y-52451190D01*
X125588095Y-52355952D01*
X125635714Y-52308333D01*
X125730952Y-52260714D01*
X125873810Y-52260714D01*
X125969048Y-52308333D01*
X126016667Y-52355952D01*
X126064286Y-52451190D01*
X126064286Y-52736905D01*
X126016667Y-52832143D01*
X125969048Y-52879762D01*
X125873810Y-52927381D01*
X125730952Y-52927381D01*
X126492857Y-52260714D02*
X126492857Y-53117857D01*
X126445238Y-53213095D01*
X126350000Y-53260714D01*
X126302381Y-53260714D01*
X126492857Y-51927381D02*
X126445238Y-51975000D01*
X126492857Y-52022619D01*
X126540476Y-51975000D01*
X126492857Y-51927381D01*
X126492857Y-52022619D01*
X127350000Y-52879762D02*
X127254762Y-52927381D01*
X127064285Y-52927381D01*
X126969047Y-52879762D01*
X126921428Y-52784524D01*
X126921428Y-52403571D01*
X126969047Y-52308333D01*
X127064285Y-52260714D01*
X127254762Y-52260714D01*
X127350000Y-52308333D01*
X127397619Y-52403571D01*
X127397619Y-52498810D01*
X126921428Y-52594048D01*
X128254762Y-52879762D02*
X128159524Y-52927381D01*
X127969047Y-52927381D01*
X127873809Y-52879762D01*
X127826190Y-52832143D01*
X127778571Y-52736905D01*
X127778571Y-52451190D01*
X127826190Y-52355952D01*
X127873809Y-52308333D01*
X127969047Y-52260714D01*
X128159524Y-52260714D01*
X128254762Y-52308333D01*
X128540476Y-52260714D02*
X128921428Y-52260714D01*
X128683333Y-51927381D02*
X128683333Y-52784524D01*
X128730952Y-52879762D01*
X128826190Y-52927381D01*
X128921428Y-52927381D01*
X130159524Y-52927381D02*
X130064286Y-52879762D01*
X130016667Y-52784524D01*
X130016667Y-51927381D01*
X130683334Y-52927381D02*
X130588096Y-52879762D01*
X130540477Y-52832143D01*
X130492858Y-52736905D01*
X130492858Y-52451190D01*
X130540477Y-52355952D01*
X130588096Y-52308333D01*
X130683334Y-52260714D01*
X130826192Y-52260714D01*
X130921430Y-52308333D01*
X130969049Y-52355952D01*
X131016668Y-52451190D01*
X131016668Y-52736905D01*
X130969049Y-52832143D01*
X130921430Y-52879762D01*
X130826192Y-52927381D01*
X130683334Y-52927381D01*
X131397620Y-52879762D02*
X131492858Y-52927381D01*
X131683334Y-52927381D01*
X131778573Y-52879762D01*
X131826192Y-52784524D01*
X131826192Y-52736905D01*
X131778573Y-52641667D01*
X131683334Y-52594048D01*
X131540477Y-52594048D01*
X131445239Y-52546429D01*
X131397620Y-52451190D01*
X131397620Y-52403571D01*
X131445239Y-52308333D01*
X131540477Y-52260714D01*
X131683334Y-52260714D01*
X131778573Y-52308333D01*
X132111906Y-52260714D02*
X132492858Y-52260714D01*
X132254763Y-51927381D02*
X132254763Y-52784524D01*
X132302382Y-52879762D01*
X132397620Y-52927381D01*
X132492858Y-52927381D01*
X120849999Y-54010714D02*
X121230951Y-54010714D01*
X120992856Y-53677381D02*
X120992856Y-54534524D01*
X121040475Y-54629762D01*
X121135713Y-54677381D01*
X121230951Y-54677381D01*
X121564285Y-54677381D02*
X121564285Y-53677381D01*
X121992857Y-54677381D02*
X121992857Y-54153571D01*
X121945238Y-54058333D01*
X121850000Y-54010714D01*
X121707142Y-54010714D01*
X121611904Y-54058333D01*
X121564285Y-54105952D01*
X122469047Y-54677381D02*
X122469047Y-54010714D01*
X122469047Y-54201190D02*
X122516666Y-54105952D01*
X122564285Y-54058333D01*
X122659523Y-54010714D01*
X122754762Y-54010714D01*
X123469048Y-54629762D02*
X123373810Y-54677381D01*
X123183333Y-54677381D01*
X123088095Y-54629762D01*
X123040476Y-54534524D01*
X123040476Y-54153571D01*
X123088095Y-54058333D01*
X123183333Y-54010714D01*
X123373810Y-54010714D01*
X123469048Y-54058333D01*
X123516667Y-54153571D01*
X123516667Y-54248810D01*
X123040476Y-54344048D01*
X124326191Y-54629762D02*
X124230953Y-54677381D01*
X124040476Y-54677381D01*
X123945238Y-54629762D01*
X123897619Y-54534524D01*
X123897619Y-54153571D01*
X123945238Y-54058333D01*
X124040476Y-54010714D01*
X124230953Y-54010714D01*
X124326191Y-54058333D01*
X124373810Y-54153571D01*
X124373810Y-54248810D01*
X123897619Y-54344048D01*
X125469048Y-54010714D02*
X125659524Y-54677381D01*
X125850001Y-54201190D01*
X126040477Y-54677381D01*
X126230953Y-54010714D01*
X126992858Y-54629762D02*
X126897620Y-54677381D01*
X126707143Y-54677381D01*
X126611905Y-54629762D01*
X126564286Y-54534524D01*
X126564286Y-54153571D01*
X126611905Y-54058333D01*
X126707143Y-54010714D01*
X126897620Y-54010714D01*
X126992858Y-54058333D01*
X127040477Y-54153571D01*
X127040477Y-54248810D01*
X126564286Y-54344048D01*
X127850001Y-54629762D02*
X127754763Y-54677381D01*
X127564286Y-54677381D01*
X127469048Y-54629762D01*
X127421429Y-54534524D01*
X127421429Y-54153571D01*
X127469048Y-54058333D01*
X127564286Y-54010714D01*
X127754763Y-54010714D01*
X127850001Y-54058333D01*
X127897620Y-54153571D01*
X127897620Y-54248810D01*
X127421429Y-54344048D01*
X128326191Y-54677381D02*
X128326191Y-53677381D01*
X128421429Y-54296429D02*
X128707144Y-54677381D01*
X128707144Y-54010714D02*
X128326191Y-54391667D01*
X129088096Y-54629762D02*
X129183334Y-54677381D01*
X129373810Y-54677381D01*
X129469049Y-54629762D01*
X129516668Y-54534524D01*
X129516668Y-54486905D01*
X129469049Y-54391667D01*
X129373810Y-54344048D01*
X129230953Y-54344048D01*
X129135715Y-54296429D01*
X129088096Y-54201190D01*
X129088096Y-54153571D01*
X129135715Y-54058333D01*
X129230953Y-54010714D01*
X129373810Y-54010714D01*
X129469049Y-54058333D01*
X130850001Y-54677381D02*
X130754763Y-54629762D01*
X130707144Y-54582143D01*
X130659525Y-54486905D01*
X130659525Y-54201190D01*
X130707144Y-54105952D01*
X130754763Y-54058333D01*
X130850001Y-54010714D01*
X130992859Y-54010714D01*
X131088097Y-54058333D01*
X131135716Y-54105952D01*
X131183335Y-54201190D01*
X131183335Y-54486905D01*
X131135716Y-54582143D01*
X131088097Y-54629762D01*
X130992859Y-54677381D01*
X130850001Y-54677381D01*
X131469049Y-54010714D02*
X131850001Y-54010714D01*
X131611906Y-54677381D02*
X131611906Y-53820238D01*
X131659525Y-53725000D01*
X131754763Y-53677381D01*
X131850001Y-53677381D01*
X120326190Y-56427381D02*
X120326190Y-55427381D01*
X120326190Y-56379762D02*
X120230952Y-56427381D01*
X120040475Y-56427381D01*
X119945237Y-56379762D01*
X119897618Y-56332143D01*
X119849999Y-56236905D01*
X119849999Y-55951190D01*
X119897618Y-55855952D01*
X119945237Y-55808333D01*
X120040475Y-55760714D01*
X120230952Y-55760714D01*
X120326190Y-55808333D01*
X121183333Y-56379762D02*
X121088095Y-56427381D01*
X120897618Y-56427381D01*
X120802380Y-56379762D01*
X120754761Y-56284524D01*
X120754761Y-55903571D01*
X120802380Y-55808333D01*
X120897618Y-55760714D01*
X121088095Y-55760714D01*
X121183333Y-55808333D01*
X121230952Y-55903571D01*
X121230952Y-55998810D01*
X120754761Y-56094048D01*
X121564285Y-55760714D02*
X121802380Y-56427381D01*
X122040476Y-55760714D01*
X122802381Y-56379762D02*
X122707143Y-56427381D01*
X122516666Y-56427381D01*
X122421428Y-56379762D01*
X122373809Y-56284524D01*
X122373809Y-55903571D01*
X122421428Y-55808333D01*
X122516666Y-55760714D01*
X122707143Y-55760714D01*
X122802381Y-55808333D01*
X122850000Y-55903571D01*
X122850000Y-55998810D01*
X122373809Y-56094048D01*
X123421428Y-56427381D02*
X123326190Y-56379762D01*
X123278571Y-56284524D01*
X123278571Y-55427381D01*
X123945238Y-56427381D02*
X123850000Y-56379762D01*
X123802381Y-56332143D01*
X123754762Y-56236905D01*
X123754762Y-55951190D01*
X123802381Y-55855952D01*
X123850000Y-55808333D01*
X123945238Y-55760714D01*
X124088096Y-55760714D01*
X124183334Y-55808333D01*
X124230953Y-55855952D01*
X124278572Y-55951190D01*
X124278572Y-56236905D01*
X124230953Y-56332143D01*
X124183334Y-56379762D01*
X124088096Y-56427381D01*
X123945238Y-56427381D01*
X124707143Y-55760714D02*
X124707143Y-56760714D01*
X124707143Y-55808333D02*
X124802381Y-55760714D01*
X124992858Y-55760714D01*
X125088096Y-55808333D01*
X125135715Y-55855952D01*
X125183334Y-55951190D01*
X125183334Y-56236905D01*
X125135715Y-56332143D01*
X125088096Y-56379762D01*
X124992858Y-56427381D01*
X124802381Y-56427381D01*
X124707143Y-56379762D01*
X125611905Y-56427381D02*
X125611905Y-55760714D01*
X125611905Y-55855952D02*
X125659524Y-55808333D01*
X125754762Y-55760714D01*
X125897620Y-55760714D01*
X125992858Y-55808333D01*
X126040477Y-55903571D01*
X126040477Y-56427381D01*
X126040477Y-55903571D02*
X126088096Y-55808333D01*
X126183334Y-55760714D01*
X126326191Y-55760714D01*
X126421429Y-55808333D01*
X126469048Y-55903571D01*
X126469048Y-56427381D01*
X127326191Y-56379762D02*
X127230953Y-56427381D01*
X127040476Y-56427381D01*
X126945238Y-56379762D01*
X126897619Y-56284524D01*
X126897619Y-55903571D01*
X126945238Y-55808333D01*
X127040476Y-55760714D01*
X127230953Y-55760714D01*
X127326191Y-55808333D01*
X127373810Y-55903571D01*
X127373810Y-55998810D01*
X126897619Y-56094048D01*
X127802381Y-55760714D02*
X127802381Y-56427381D01*
X127802381Y-55855952D02*
X127850000Y-55808333D01*
X127945238Y-55760714D01*
X128088096Y-55760714D01*
X128183334Y-55808333D01*
X128230953Y-55903571D01*
X128230953Y-56427381D01*
X128564286Y-55760714D02*
X128945238Y-55760714D01*
X128707143Y-55427381D02*
X128707143Y-56284524D01*
X128754762Y-56379762D01*
X128850000Y-56427381D01*
X128945238Y-56427381D01*
X129897620Y-55760714D02*
X130278572Y-55760714D01*
X130040477Y-55427381D02*
X130040477Y-56284524D01*
X130088096Y-56379762D01*
X130183334Y-56427381D01*
X130278572Y-56427381D01*
X130611906Y-56427381D02*
X130611906Y-55760714D01*
X130611906Y-55427381D02*
X130564287Y-55475000D01*
X130611906Y-55522619D01*
X130659525Y-55475000D01*
X130611906Y-55427381D01*
X130611906Y-55522619D01*
X131088096Y-56427381D02*
X131088096Y-55760714D01*
X131088096Y-55855952D02*
X131135715Y-55808333D01*
X131230953Y-55760714D01*
X131373811Y-55760714D01*
X131469049Y-55808333D01*
X131516668Y-55903571D01*
X131516668Y-56427381D01*
X131516668Y-55903571D02*
X131564287Y-55808333D01*
X131659525Y-55760714D01*
X131802382Y-55760714D01*
X131897620Y-55808333D01*
X131945239Y-55903571D01*
X131945239Y-56427381D01*
X132802382Y-56379762D02*
X132707144Y-56427381D01*
X132516667Y-56427381D01*
X132421429Y-56379762D01*
X132373810Y-56284524D01*
X132373810Y-55903571D01*
X132421429Y-55808333D01*
X132516667Y-55760714D01*
X132707144Y-55760714D01*
X132802382Y-55808333D01*
X132850001Y-55903571D01*
X132850001Y-55998810D01*
X132373810Y-56094048D01*
X120540475Y-58177381D02*
X120540475Y-57177381D01*
X120540475Y-57558333D02*
X120635713Y-57510714D01*
X120826190Y-57510714D01*
X120921428Y-57558333D01*
X120969047Y-57605952D01*
X121016666Y-57701190D01*
X121016666Y-57986905D01*
X120969047Y-58082143D01*
X120921428Y-58129762D01*
X120826190Y-58177381D01*
X120635713Y-58177381D01*
X120540475Y-58129762D01*
X121826190Y-58129762D02*
X121730952Y-58177381D01*
X121540475Y-58177381D01*
X121445237Y-58129762D01*
X121397618Y-58034524D01*
X121397618Y-57653571D01*
X121445237Y-57558333D01*
X121540475Y-57510714D01*
X121730952Y-57510714D01*
X121826190Y-57558333D01*
X121873809Y-57653571D01*
X121873809Y-57748810D01*
X121397618Y-57844048D01*
X122730952Y-58129762D02*
X122635714Y-58177381D01*
X122445237Y-58177381D01*
X122349999Y-58129762D01*
X122302380Y-58082143D01*
X122254761Y-57986905D01*
X122254761Y-57701190D01*
X122302380Y-57605952D01*
X122349999Y-57558333D01*
X122445237Y-57510714D01*
X122635714Y-57510714D01*
X122730952Y-57558333D01*
X123588095Y-58177381D02*
X123588095Y-57653571D01*
X123540476Y-57558333D01*
X123445238Y-57510714D01*
X123254761Y-57510714D01*
X123159523Y-57558333D01*
X123588095Y-58129762D02*
X123492857Y-58177381D01*
X123254761Y-58177381D01*
X123159523Y-58129762D01*
X123111904Y-58034524D01*
X123111904Y-57939286D01*
X123159523Y-57844048D01*
X123254761Y-57796429D01*
X123492857Y-57796429D01*
X123588095Y-57748810D01*
X124492857Y-57510714D02*
X124492857Y-58177381D01*
X124064285Y-57510714D02*
X124064285Y-58034524D01*
X124111904Y-58129762D01*
X124207142Y-58177381D01*
X124350000Y-58177381D01*
X124445238Y-58129762D01*
X124492857Y-58082143D01*
X124921428Y-58129762D02*
X125016666Y-58177381D01*
X125207142Y-58177381D01*
X125302381Y-58129762D01*
X125350000Y-58034524D01*
X125350000Y-57986905D01*
X125302381Y-57891667D01*
X125207142Y-57844048D01*
X125064285Y-57844048D01*
X124969047Y-57796429D01*
X124921428Y-57701190D01*
X124921428Y-57653571D01*
X124969047Y-57558333D01*
X125064285Y-57510714D01*
X125207142Y-57510714D01*
X125302381Y-57558333D01*
X126159524Y-58129762D02*
X126064286Y-58177381D01*
X125873809Y-58177381D01*
X125778571Y-58129762D01*
X125730952Y-58034524D01*
X125730952Y-57653571D01*
X125778571Y-57558333D01*
X125873809Y-57510714D01*
X126064286Y-57510714D01*
X126159524Y-57558333D01*
X126207143Y-57653571D01*
X126207143Y-57748810D01*
X125730952Y-57844048D01*
X127540476Y-58177381D02*
X127445238Y-58129762D01*
X127397619Y-58082143D01*
X127350000Y-57986905D01*
X127350000Y-57701190D01*
X127397619Y-57605952D01*
X127445238Y-57558333D01*
X127540476Y-57510714D01*
X127683334Y-57510714D01*
X127778572Y-57558333D01*
X127826191Y-57605952D01*
X127873810Y-57701190D01*
X127873810Y-57986905D01*
X127826191Y-58082143D01*
X127778572Y-58129762D01*
X127683334Y-58177381D01*
X127540476Y-58177381D01*
X128159524Y-57510714D02*
X128540476Y-57510714D01*
X128302381Y-58177381D02*
X128302381Y-57320238D01*
X128350000Y-57225000D01*
X128445238Y-57177381D01*
X128540476Y-57177381D01*
X129635715Y-57177381D02*
X129635715Y-57986905D01*
X129683334Y-58082143D01*
X129730953Y-58129762D01*
X129826191Y-58177381D01*
X130016668Y-58177381D01*
X130111906Y-58129762D01*
X130159525Y-58082143D01*
X130207144Y-57986905D01*
X130207144Y-57177381D01*
X130683334Y-58177381D02*
X130683334Y-57177381D01*
X131064287Y-57177381D01*
X131159525Y-57225000D01*
X131207144Y-57272619D01*
X131254763Y-57367857D01*
X131254763Y-57510714D01*
X131207144Y-57605952D01*
X131159525Y-57653571D01*
X131064287Y-57701190D01*
X130683334Y-57701190D01*
X131635715Y-58129762D02*
X131778572Y-58177381D01*
X132016668Y-58177381D01*
X132111906Y-58129762D01*
X132159525Y-58082143D01*
X132207144Y-57986905D01*
X132207144Y-57891667D01*
X132159525Y-57796429D01*
X132111906Y-57748810D01*
X132016668Y-57701190D01*
X131826191Y-57653571D01*
X131730953Y-57605952D01*
X131683334Y-57558333D01*
X131635715Y-57463095D01*
X131635715Y-57367857D01*
X131683334Y-57272619D01*
X131730953Y-57225000D01*
X131826191Y-57177381D01*
X132064287Y-57177381D01*
X132207144Y-57225000D01*
D11*
X121414286Y-48792857D02*
X120914286Y-48792857D01*
X120914286Y-49578571D02*
X120914286Y-48078571D01*
X121628572Y-48078571D01*
X122842857Y-48578571D02*
X122842857Y-49578571D01*
X122200000Y-48578571D02*
X122200000Y-49364286D01*
X122271428Y-49507143D01*
X122414286Y-49578571D01*
X122628571Y-49578571D01*
X122771428Y-49507143D01*
X122842857Y-49435714D01*
X124200000Y-49507143D02*
X124057143Y-49578571D01*
X123771429Y-49578571D01*
X123628571Y-49507143D01*
X123557143Y-49435714D01*
X123485714Y-49292857D01*
X123485714Y-48864286D01*
X123557143Y-48721429D01*
X123628571Y-48650000D01*
X123771429Y-48578571D01*
X124057143Y-48578571D01*
X124200000Y-48650000D01*
X124842857Y-49578571D02*
X124842857Y-48078571D01*
X124985714Y-49007143D02*
X125414285Y-49578571D01*
X125414285Y-48578571D02*
X124842857Y-49150000D01*
X127200000Y-48078571D02*
X127200000Y-49292857D01*
X127271428Y-49435714D01*
X127342857Y-49507143D01*
X127485714Y-49578571D01*
X127771428Y-49578571D01*
X127914286Y-49507143D01*
X127985714Y-49435714D01*
X128057143Y-49292857D01*
X128057143Y-48078571D01*
X128771429Y-49578571D02*
X128771429Y-48078571D01*
X129342857Y-48078571D01*
X129485715Y-48150000D01*
X129557143Y-48221429D01*
X129628572Y-48364286D01*
X129628572Y-48578571D01*
X129557143Y-48721429D01*
X129485715Y-48792857D01*
X129342857Y-48864286D01*
X128771429Y-48864286D01*
X130200000Y-49507143D02*
X130414286Y-49578571D01*
X130771429Y-49578571D01*
X130914286Y-49507143D01*
X130985715Y-49435714D01*
X131057143Y-49292857D01*
X131057143Y-49150000D01*
X130985715Y-49007143D01*
X130914286Y-48935714D01*
X130771429Y-48864286D01*
X130485715Y-48792857D01*
X130342857Y-48721429D01*
X130271429Y-48650000D01*
X130200000Y-48507143D01*
X130200000Y-48364286D01*
X130271429Y-48221429D01*
X130342857Y-48150000D01*
X130485715Y-48078571D01*
X130842857Y-48078571D01*
X131057143Y-48150000D01*
X36121429Y-48264286D02*
X36521429Y-48264286D01*
X36692858Y-48892857D02*
X36121429Y-48892857D01*
X36121429Y-47692857D01*
X36692858Y-47692857D01*
X37150000Y-48835714D02*
X37321429Y-48892857D01*
X37607143Y-48892857D01*
X37721429Y-48835714D01*
X37778572Y-48778571D01*
X37835715Y-48664286D01*
X37835715Y-48550000D01*
X37778572Y-48435714D01*
X37721429Y-48378571D01*
X37607143Y-48321429D01*
X37378572Y-48264286D01*
X37264286Y-48207143D01*
X37207143Y-48150000D01*
X37150000Y-48035714D01*
X37150000Y-47921429D01*
X37207143Y-47807143D01*
X37264286Y-47750000D01*
X37378572Y-47692857D01*
X37664286Y-47692857D01*
X37835715Y-47750000D01*
X38350000Y-48892857D02*
X38350000Y-47692857D01*
X38807143Y-47692857D01*
X38921429Y-47750000D01*
X38978572Y-47807143D01*
X39035715Y-47921429D01*
X39035715Y-48092857D01*
X38978572Y-48207143D01*
X38921429Y-48264286D01*
X38807143Y-48321429D01*
X38350000Y-48321429D01*
X39550000Y-48435714D02*
X40464286Y-48435714D01*
X41664286Y-48892857D02*
X40978571Y-48892857D01*
X41321429Y-48892857D02*
X41321429Y-47692857D01*
X41207143Y-47864286D01*
X41092857Y-47978571D01*
X40978571Y-48035714D01*
X42121428Y-47807143D02*
X42178571Y-47750000D01*
X42292857Y-47692857D01*
X42578571Y-47692857D01*
X42692857Y-47750000D01*
X42750000Y-47807143D01*
X42807143Y-47921429D01*
X42807143Y-48035714D01*
X42750000Y-48207143D01*
X42064286Y-48892857D01*
X42807143Y-48892857D01*
X43721428Y-48264286D02*
X43321428Y-48264286D01*
X43321428Y-48892857D02*
X43321428Y-47692857D01*
X43892857Y-47692857D01*
X33350001Y-50992857D02*
X32778572Y-50992857D01*
X32778572Y-49792857D01*
X33578573Y-49792857D02*
X34264287Y-49792857D01*
X33921430Y-50992857D02*
X33921430Y-49792857D01*
X35350002Y-50992857D02*
X34950002Y-50421429D01*
X34664287Y-50992857D02*
X34664287Y-49792857D01*
X35121430Y-49792857D01*
X35235716Y-49850000D01*
X35292859Y-49907143D01*
X35350002Y-50021429D01*
X35350002Y-50192857D01*
X35292859Y-50307143D01*
X35235716Y-50364286D01*
X35121430Y-50421429D01*
X34664287Y-50421429D01*
X35864287Y-50535714D02*
X36778573Y-50535714D01*
X37235716Y-49792857D02*
X37978573Y-49792857D01*
X37578573Y-50250000D01*
X37750001Y-50250000D01*
X37864287Y-50307143D01*
X37921430Y-50364286D01*
X37978573Y-50478571D01*
X37978573Y-50764286D01*
X37921430Y-50878571D01*
X37864287Y-50935714D01*
X37750001Y-50992857D01*
X37407144Y-50992857D01*
X37292858Y-50935714D01*
X37235716Y-50878571D01*
X38435715Y-49907143D02*
X38492858Y-49850000D01*
X38607144Y-49792857D01*
X38892858Y-49792857D01*
X39007144Y-49850000D01*
X39064287Y-49907143D01*
X39121430Y-50021429D01*
X39121430Y-50135714D01*
X39064287Y-50307143D01*
X38378573Y-50992857D01*
X39121430Y-50992857D01*
X39692858Y-50992857D02*
X39921430Y-50992857D01*
X40035715Y-50935714D01*
X40092858Y-50878571D01*
X40207144Y-50707143D01*
X40264287Y-50478571D01*
X40264287Y-50021429D01*
X40207144Y-49907143D01*
X40150001Y-49850000D01*
X40035715Y-49792857D01*
X39807144Y-49792857D01*
X39692858Y-49850000D01*
X39635715Y-49907143D01*
X39578572Y-50021429D01*
X39578572Y-50307143D01*
X39635715Y-50421429D01*
X39692858Y-50478571D01*
X39807144Y-50535714D01*
X40035715Y-50535714D01*
X40150001Y-50478571D01*
X40207144Y-50421429D01*
X40264287Y-50307143D01*
X40721429Y-50650000D02*
X41292858Y-50650000D01*
X40607144Y-50992857D02*
X41007144Y-49792857D01*
X41407144Y-50992857D01*
X42378572Y-50992857D02*
X41807143Y-50992857D01*
X41807143Y-49792857D01*
X42721429Y-50935714D02*
X42892858Y-50992857D01*
X43178572Y-50992857D01*
X43292858Y-50935714D01*
X43350001Y-50878571D01*
X43407144Y-50764286D01*
X43407144Y-50650000D01*
X43350001Y-50535714D01*
X43292858Y-50478571D01*
X43178572Y-50421429D01*
X42950001Y-50364286D01*
X42835715Y-50307143D01*
X42778572Y-50250000D01*
X42721429Y-50135714D01*
X42721429Y-50021429D01*
X42778572Y-49907143D01*
X42835715Y-49850000D01*
X42950001Y-49792857D01*
X43235715Y-49792857D01*
X43407144Y-49850000D01*
X43921429Y-50535714D02*
X44835715Y-50535714D01*
X45635715Y-49792857D02*
X45750000Y-49792857D01*
X45864286Y-49850000D01*
X45921429Y-49907143D01*
X45978572Y-50021429D01*
X46035715Y-50250000D01*
X46035715Y-50535714D01*
X45978572Y-50764286D01*
X45921429Y-50878571D01*
X45864286Y-50935714D01*
X45750000Y-50992857D01*
X45635715Y-50992857D01*
X45521429Y-50935714D01*
X45464286Y-50878571D01*
X45407143Y-50764286D01*
X45350000Y-50535714D01*
X45350000Y-50250000D01*
X45407143Y-50021429D01*
X45464286Y-49907143D01*
X45521429Y-49850000D01*
X45635715Y-49792857D01*
X47178572Y-50992857D02*
X46492857Y-50992857D01*
X46835715Y-50992857D02*
X46835715Y-49792857D01*
X46721429Y-49964286D01*
X46607143Y-50078571D01*
X46492857Y-50135714D01*
X34950000Y-53092857D02*
X34950000Y-51892857D01*
X35464286Y-53035714D02*
X35635715Y-53092857D01*
X35921429Y-53092857D01*
X36035715Y-53035714D01*
X36092858Y-52978571D01*
X36150001Y-52864286D01*
X36150001Y-52750000D01*
X36092858Y-52635714D01*
X36035715Y-52578571D01*
X35921429Y-52521429D01*
X35692858Y-52464286D01*
X35578572Y-52407143D01*
X35521429Y-52350000D01*
X35464286Y-52235714D01*
X35464286Y-52121429D01*
X35521429Y-52007143D01*
X35578572Y-51950000D01*
X35692858Y-51892857D01*
X35978572Y-51892857D01*
X36150001Y-51950000D01*
X36550001Y-51892857D02*
X37292858Y-51892857D01*
X36892858Y-52350000D01*
X37064286Y-52350000D01*
X37178572Y-52407143D01*
X37235715Y-52464286D01*
X37292858Y-52578571D01*
X37292858Y-52864286D01*
X37235715Y-52978571D01*
X37178572Y-53035714D01*
X37064286Y-53092857D01*
X36721429Y-53092857D01*
X36607143Y-53035714D01*
X36550001Y-52978571D01*
X38435715Y-53092857D02*
X37750000Y-53092857D01*
X38092858Y-53092857D02*
X38092858Y-51892857D01*
X37978572Y-52064286D01*
X37864286Y-52178571D01*
X37750000Y-52235714D01*
X39350000Y-52464286D02*
X38950000Y-52464286D01*
X38950000Y-53092857D02*
X38950000Y-51892857D01*
X39521429Y-51892857D01*
X40550000Y-53092857D02*
X39978571Y-53092857D01*
X39978571Y-51892857D01*
X40835715Y-51892857D02*
X41578572Y-51892857D01*
X41178572Y-52350000D01*
X41350000Y-52350000D01*
X41464286Y-52407143D01*
X41521429Y-52464286D01*
X41578572Y-52578571D01*
X41578572Y-52864286D01*
X41521429Y-52978571D01*
X41464286Y-53035714D01*
X41350000Y-53092857D01*
X41007143Y-53092857D01*
X40892857Y-53035714D01*
X40835715Y-52978571D01*
X41978572Y-51892857D02*
X42778572Y-51892857D01*
X42264286Y-53092857D01*
X43121429Y-51892857D02*
X43864286Y-51892857D01*
X43464286Y-52350000D01*
X43635714Y-52350000D01*
X43750000Y-52407143D01*
X43807143Y-52464286D01*
X43864286Y-52578571D01*
X43864286Y-52864286D01*
X43807143Y-52978571D01*
X43750000Y-53035714D01*
X43635714Y-53092857D01*
X43292857Y-53092857D01*
X43178571Y-53035714D01*
X43121429Y-52978571D01*
X45007143Y-53092857D02*
X44321428Y-53092857D01*
X44664286Y-53092857D02*
X44664286Y-51892857D01*
X44550000Y-52064286D01*
X44435714Y-52178571D01*
X44321428Y-52235714D01*
X36064286Y-55192857D02*
X36064286Y-53992857D01*
X36464286Y-54850000D01*
X36864286Y-53992857D01*
X36864286Y-55192857D01*
X38121430Y-55078571D02*
X38064287Y-55135714D01*
X37892858Y-55192857D01*
X37778572Y-55192857D01*
X37607144Y-55135714D01*
X37492858Y-55021429D01*
X37435715Y-54907143D01*
X37378572Y-54678571D01*
X37378572Y-54507143D01*
X37435715Y-54278571D01*
X37492858Y-54164286D01*
X37607144Y-54050000D01*
X37778572Y-53992857D01*
X37892858Y-53992857D01*
X38064287Y-54050000D01*
X38121430Y-54107143D01*
X38635715Y-55192857D02*
X38635715Y-53992857D01*
X39092858Y-53992857D01*
X39207144Y-54050000D01*
X39264287Y-54107143D01*
X39321430Y-54221429D01*
X39321430Y-54392857D01*
X39264287Y-54507143D01*
X39207144Y-54564286D01*
X39092858Y-54621429D01*
X38635715Y-54621429D01*
X40464287Y-55192857D02*
X39778572Y-55192857D01*
X40121430Y-55192857D02*
X40121430Y-53992857D01*
X40007144Y-54164286D01*
X39892858Y-54278571D01*
X39778572Y-54335714D01*
X41492858Y-53992857D02*
X41264287Y-53992857D01*
X41150001Y-54050000D01*
X41092858Y-54107143D01*
X40978572Y-54278571D01*
X40921429Y-54507143D01*
X40921429Y-54964286D01*
X40978572Y-55078571D01*
X41035715Y-55135714D01*
X41150001Y-55192857D01*
X41378572Y-55192857D01*
X41492858Y-55135714D01*
X41550001Y-55078571D01*
X41607144Y-54964286D01*
X41607144Y-54678571D01*
X41550001Y-54564286D01*
X41492858Y-54507143D01*
X41378572Y-54450000D01*
X41150001Y-54450000D01*
X41035715Y-54507143D01*
X40978572Y-54564286D01*
X40921429Y-54678571D01*
X42635715Y-54392857D02*
X42635715Y-55192857D01*
X42350001Y-53935714D02*
X42064286Y-54792857D01*
X42807144Y-54792857D01*
X43492858Y-53992857D02*
X43607143Y-53992857D01*
X43721429Y-54050000D01*
X43778572Y-54107143D01*
X43835715Y-54221429D01*
X43892858Y-54450000D01*
X43892858Y-54735714D01*
X43835715Y-54964286D01*
X43778572Y-55078571D01*
X43721429Y-55135714D01*
X43607143Y-55192857D01*
X43492858Y-55192857D01*
X43378572Y-55135714D01*
X43321429Y-55078571D01*
X43264286Y-54964286D01*
X43207143Y-54735714D01*
X43207143Y-54450000D01*
X43264286Y-54221429D01*
X43321429Y-54107143D01*
X43378572Y-54050000D01*
X43492858Y-53992857D01*
X59610405Y-147520050D02*
X60671066Y-146459390D01*
X60165989Y-146964466D02*
X60772081Y-147570558D01*
X60216497Y-148126141D02*
X61277157Y-147065481D01*
X61176142Y-149085786D02*
X61731726Y-148530203D01*
X61782233Y-148378680D01*
X61731726Y-148227157D01*
X61529696Y-148025126D01*
X61378172Y-147974619D01*
X61226649Y-149035279D02*
X61075127Y-148984771D01*
X60822589Y-148732233D01*
X60772081Y-148580711D01*
X60822588Y-148429188D01*
X60923603Y-148328172D01*
X61075127Y-148277665D01*
X61226649Y-148328172D01*
X61479188Y-148580711D01*
X61630711Y-148631218D01*
X62287310Y-148782741D02*
X61832742Y-149742386D01*
X62792386Y-149287817D01*
X62943908Y-150752538D02*
X62792386Y-150702030D01*
X62590356Y-150500000D01*
X62539848Y-150348478D01*
X62590355Y-150196955D01*
X62994416Y-149792893D01*
X63145939Y-149742386D01*
X63297462Y-149792893D01*
X63499493Y-149994924D01*
X63550000Y-150146447D01*
X63499493Y-150297970D01*
X63398478Y-150398985D01*
X62792386Y-149994924D01*
X65115737Y-151914214D02*
X64762183Y-151560660D01*
X64206600Y-152116244D02*
X65267260Y-151055584D01*
X65772336Y-151560660D01*
X66277412Y-152772843D02*
X65570305Y-153479950D01*
X65822843Y-152318274D02*
X65267259Y-152873859D01*
X65216751Y-153025381D01*
X65267260Y-153176904D01*
X65418782Y-153328426D01*
X65570304Y-153378934D01*
X65671320Y-153378934D01*
X66782488Y-153277919D02*
X66075382Y-153985026D01*
X66681473Y-153378935D02*
X66782488Y-153378934D01*
X66934012Y-153429442D01*
X67085534Y-153580965D01*
X67136041Y-153732488D01*
X67085534Y-153884011D01*
X66529950Y-154439595D01*
X122614286Y-93103571D02*
X122614286Y-94603571D01*
X122614286Y-93175000D02*
X122757143Y-93103571D01*
X123042857Y-93103571D01*
X123185714Y-93175000D01*
X123257143Y-93246429D01*
X123328572Y-93389286D01*
X123328572Y-93817857D01*
X123257143Y-93960714D01*
X123185714Y-94032143D01*
X123042857Y-94103571D01*
X122757143Y-94103571D01*
X122614286Y-94032143D01*
X123971429Y-94103571D02*
X123971429Y-93103571D01*
X123971429Y-93389286D02*
X124042857Y-93246429D01*
X124114286Y-93175000D01*
X124257143Y-93103571D01*
X124400000Y-93103571D01*
X125114286Y-94103571D02*
X124971428Y-94032143D01*
X124900000Y-93960714D01*
X124828571Y-93817857D01*
X124828571Y-93389286D01*
X124900000Y-93246429D01*
X124971428Y-93175000D01*
X125114286Y-93103571D01*
X125328571Y-93103571D01*
X125471428Y-93175000D01*
X125542857Y-93246429D01*
X125614286Y-93389286D01*
X125614286Y-93817857D01*
X125542857Y-93960714D01*
X125471428Y-94032143D01*
X125328571Y-94103571D01*
X125114286Y-94103571D01*
X126257143Y-93103571D02*
X126257143Y-94389286D01*
X126185714Y-94532143D01*
X126042857Y-94603571D01*
X125971429Y-94603571D01*
X126257143Y-92603571D02*
X126185714Y-92675000D01*
X126257143Y-92746429D01*
X126328571Y-92675000D01*
X126257143Y-92603571D01*
X126257143Y-92746429D01*
X127542857Y-94032143D02*
X127400000Y-94103571D01*
X127114286Y-94103571D01*
X126971429Y-94032143D01*
X126900000Y-93889286D01*
X126900000Y-93317857D01*
X126971429Y-93175000D01*
X127114286Y-93103571D01*
X127400000Y-93103571D01*
X127542857Y-93175000D01*
X127614286Y-93317857D01*
X127614286Y-93460714D01*
X126900000Y-93603571D01*
X128900000Y-94032143D02*
X128757143Y-94103571D01*
X128471429Y-94103571D01*
X128328571Y-94032143D01*
X128257143Y-93960714D01*
X128185714Y-93817857D01*
X128185714Y-93389286D01*
X128257143Y-93246429D01*
X128328571Y-93175000D01*
X128471429Y-93103571D01*
X128757143Y-93103571D01*
X128900000Y-93175000D01*
X129328571Y-93103571D02*
X129900000Y-93103571D01*
X129542857Y-92603571D02*
X129542857Y-93889286D01*
X129614285Y-94032143D01*
X129757143Y-94103571D01*
X129900000Y-94103571D01*
X123721430Y-96653571D02*
X122864287Y-96653571D01*
X123292859Y-96653571D02*
X123292859Y-95153571D01*
X123150002Y-95367857D01*
X123007144Y-95510714D01*
X122864287Y-95582143D01*
X124578573Y-95796429D02*
X124435715Y-95725000D01*
X124364287Y-95653571D01*
X124292858Y-95510714D01*
X124292858Y-95439286D01*
X124364287Y-95296429D01*
X124435715Y-95225000D01*
X124578573Y-95153571D01*
X124864287Y-95153571D01*
X125007144Y-95225000D01*
X125078573Y-95296429D01*
X125150001Y-95439286D01*
X125150001Y-95510714D01*
X125078573Y-95653571D01*
X125007144Y-95725000D01*
X124864287Y-95796429D01*
X124578573Y-95796429D01*
X124435715Y-95867857D01*
X124364287Y-95939286D01*
X124292858Y-96082143D01*
X124292858Y-96367857D01*
X124364287Y-96510714D01*
X124435715Y-96582143D01*
X124578573Y-96653571D01*
X124864287Y-96653571D01*
X125007144Y-96582143D01*
X125078573Y-96510714D01*
X125150001Y-96367857D01*
X125150001Y-96082143D01*
X125078573Y-95939286D01*
X125007144Y-95867857D01*
X124864287Y-95796429D01*
X126507144Y-95153571D02*
X125792858Y-95153571D01*
X125721429Y-95867857D01*
X125792858Y-95796429D01*
X125935715Y-95725000D01*
X126292858Y-95725000D01*
X126435715Y-95796429D01*
X126507144Y-95867857D01*
X126578572Y-96010714D01*
X126578572Y-96367857D01*
X126507144Y-96510714D01*
X126435715Y-96582143D01*
X126292858Y-96653571D01*
X125935715Y-96653571D01*
X125792858Y-96582143D01*
X125721429Y-96510714D01*
X127507143Y-95153571D02*
X127650000Y-95153571D01*
X127792857Y-95225000D01*
X127864286Y-95296429D01*
X127935715Y-95439286D01*
X128007143Y-95725000D01*
X128007143Y-96082143D01*
X127935715Y-96367857D01*
X127864286Y-96510714D01*
X127792857Y-96582143D01*
X127650000Y-96653571D01*
X127507143Y-96653571D01*
X127364286Y-96582143D01*
X127292857Y-96510714D01*
X127221429Y-96367857D01*
X127150000Y-96082143D01*
X127150000Y-95725000D01*
X127221429Y-95439286D01*
X127292857Y-95296429D01*
X127364286Y-95225000D01*
X127507143Y-95153571D01*
X128864286Y-95796429D02*
X128721428Y-95725000D01*
X128650000Y-95653571D01*
X128578571Y-95510714D01*
X128578571Y-95439286D01*
X128650000Y-95296429D01*
X128721428Y-95225000D01*
X128864286Y-95153571D01*
X129150000Y-95153571D01*
X129292857Y-95225000D01*
X129364286Y-95296429D01*
X129435714Y-95439286D01*
X129435714Y-95510714D01*
X129364286Y-95653571D01*
X129292857Y-95725000D01*
X129150000Y-95796429D01*
X128864286Y-95796429D01*
X128721428Y-95867857D01*
X128650000Y-95939286D01*
X128578571Y-96082143D01*
X128578571Y-96367857D01*
X128650000Y-96510714D01*
X128721428Y-96582143D01*
X128864286Y-96653571D01*
X129150000Y-96653571D01*
X129292857Y-96582143D01*
X129364286Y-96510714D01*
X129435714Y-96367857D01*
X129435714Y-96082143D01*
X129364286Y-95939286D01*
X129292857Y-95867857D01*
X129150000Y-95796429D01*
D12*
X62988096Y-142800000D02*
X62892858Y-142752381D01*
X62750001Y-142752381D01*
X62607143Y-142800000D01*
X62511905Y-142895238D01*
X62464286Y-142990476D01*
X62416667Y-143180952D01*
X62416667Y-143323810D01*
X62464286Y-143514286D01*
X62511905Y-143609524D01*
X62607143Y-143704762D01*
X62750001Y-143752381D01*
X62845239Y-143752381D01*
X62988096Y-143704762D01*
X63035715Y-143657143D01*
X63035715Y-143323810D01*
X62845239Y-143323810D01*
X63464286Y-143752381D02*
X63464286Y-142752381D01*
X64035715Y-143752381D01*
X64035715Y-142752381D01*
X64511905Y-143752381D02*
X64511905Y-142752381D01*
X64750000Y-142752381D01*
X64892858Y-142800000D01*
X64988096Y-142895238D01*
X65035715Y-142990476D01*
X65083334Y-143180952D01*
X65083334Y-143323810D01*
X65035715Y-143514286D01*
X64988096Y-143609524D01*
X64892858Y-143704762D01*
X64750000Y-143752381D01*
X64511905Y-143752381D01*
X65287310Y-146788240D02*
X65725043Y-146350507D01*
X65758714Y-146855584D01*
X65859729Y-146754568D01*
X65960745Y-146720896D01*
X66028088Y-146720896D01*
X66129104Y-146754569D01*
X66297462Y-146922927D01*
X66331134Y-147023942D01*
X66331134Y-147091286D01*
X66297462Y-147192301D01*
X66095431Y-147394332D01*
X65994416Y-147428004D01*
X65927073Y-147428004D01*
X65927073Y-146148477D02*
X66869882Y-146619882D01*
X66398478Y-145677072D01*
X66566836Y-145508714D02*
X67004569Y-145070981D01*
X67038240Y-145576057D01*
X67139256Y-145475041D01*
X67240271Y-145441369D01*
X67307615Y-145441369D01*
X67408631Y-145475042D01*
X67576989Y-145643400D01*
X67610661Y-145744416D01*
X67610661Y-145811759D01*
X67576989Y-145912774D01*
X67374958Y-146114805D01*
X67273943Y-146148477D01*
X67206600Y-146148477D01*
D13*
X68409524Y-123955952D02*
X68409524Y-121455952D01*
X69242857Y-123241667D01*
X70076191Y-121455952D01*
X70076191Y-123955952D01*
X71266667Y-123955952D02*
X71266667Y-122289286D01*
X71266667Y-122765476D02*
X71385715Y-122527381D01*
X71504762Y-122408333D01*
X71742858Y-122289286D01*
X71980953Y-122289286D01*
X74242858Y-123955952D02*
X73409524Y-122765476D01*
X72814286Y-123955952D02*
X72814286Y-121455952D01*
X73766667Y-121455952D01*
X74004762Y-121575000D01*
X74123810Y-121694048D01*
X74242858Y-121932143D01*
X74242858Y-122289286D01*
X74123810Y-122527381D01*
X74004762Y-122646429D01*
X73766667Y-122765476D01*
X72814286Y-122765476D01*
X75671429Y-123955952D02*
X75433334Y-123836905D01*
X75314286Y-123717857D01*
X75195238Y-123479762D01*
X75195238Y-122765476D01*
X75314286Y-122527381D01*
X75433334Y-122408333D01*
X75671429Y-122289286D01*
X76028572Y-122289286D01*
X76266667Y-122408333D01*
X76385715Y-122527381D01*
X76504762Y-122765476D01*
X76504762Y-123479762D01*
X76385715Y-123717857D01*
X76266667Y-123836905D01*
X76028572Y-123955952D01*
X75671429Y-123955952D01*
X77576191Y-123955952D02*
X77576191Y-121455952D01*
X77576191Y-122408333D02*
X77814286Y-122289286D01*
X78290477Y-122289286D01*
X78528572Y-122408333D01*
X78647620Y-122527381D01*
X78766667Y-122765476D01*
X78766667Y-123479762D01*
X78647620Y-123717857D01*
X78528572Y-123836905D01*
X78290477Y-123955952D01*
X77814286Y-123955952D01*
X77576191Y-123836905D01*
X80195239Y-123955952D02*
X79957144Y-123836905D01*
X79838096Y-123717857D01*
X79719048Y-123479762D01*
X79719048Y-122765476D01*
X79838096Y-122527381D01*
X79957144Y-122408333D01*
X80195239Y-122289286D01*
X80552382Y-122289286D01*
X80790477Y-122408333D01*
X80909525Y-122527381D01*
X81028572Y-122765476D01*
X81028572Y-123479762D01*
X80909525Y-123717857D01*
X80790477Y-123836905D01*
X80552382Y-123955952D01*
X80195239Y-123955952D01*
X81742858Y-122289286D02*
X82695239Y-122289286D01*
X82100001Y-121455952D02*
X82100001Y-123598810D01*
X82219049Y-123836905D01*
X82457144Y-123955952D01*
X82695239Y-123955952D01*
X84361905Y-122646429D02*
X84719048Y-122765476D01*
X84838096Y-122884524D01*
X84957144Y-123122619D01*
X84957144Y-123479762D01*
X84838096Y-123717857D01*
X84719048Y-123836905D01*
X84480953Y-123955952D01*
X83528572Y-123955952D01*
X83528572Y-121455952D01*
X84361905Y-121455952D01*
X84600001Y-121575000D01*
X84719048Y-121694048D01*
X84838096Y-121932143D01*
X84838096Y-122170238D01*
X84719048Y-122408333D01*
X84600001Y-122527381D01*
X84361905Y-122646429D01*
X83528572Y-122646429D01*
X87100001Y-123955952D02*
X87100001Y-122646429D01*
X86980953Y-122408333D01*
X86742858Y-122289286D01*
X86266667Y-122289286D01*
X86028572Y-122408333D01*
X87100001Y-123836905D02*
X86861905Y-123955952D01*
X86266667Y-123955952D01*
X86028572Y-123836905D01*
X85909524Y-123598810D01*
X85909524Y-123360714D01*
X86028572Y-123122619D01*
X86266667Y-123003571D01*
X86861905Y-123003571D01*
X87100001Y-122884524D01*
X89361906Y-123955952D02*
X89361906Y-121455952D01*
X89361906Y-123836905D02*
X89123810Y-123955952D01*
X88647620Y-123955952D01*
X88409525Y-123836905D01*
X88290477Y-123717857D01*
X88171429Y-123479762D01*
X88171429Y-122765476D01*
X88290477Y-122527381D01*
X88409525Y-122408333D01*
X88647620Y-122289286D01*
X89123810Y-122289286D01*
X89361906Y-122408333D01*
X91623811Y-122289286D02*
X91623811Y-124313095D01*
X91504763Y-124551190D01*
X91385715Y-124670238D01*
X91147620Y-124789286D01*
X90790477Y-124789286D01*
X90552382Y-124670238D01*
X91623811Y-123836905D02*
X91385715Y-123955952D01*
X90909525Y-123955952D01*
X90671430Y-123836905D01*
X90552382Y-123717857D01*
X90433334Y-123479762D01*
X90433334Y-122765476D01*
X90552382Y-122527381D01*
X90671430Y-122408333D01*
X90909525Y-122289286D01*
X91385715Y-122289286D01*
X91623811Y-122408333D01*
X93766668Y-123836905D02*
X93528573Y-123955952D01*
X93052382Y-123955952D01*
X92814287Y-123836905D01*
X92695239Y-123598810D01*
X92695239Y-122646429D01*
X92814287Y-122408333D01*
X93052382Y-122289286D01*
X93528573Y-122289286D01*
X93766668Y-122408333D01*
X93885716Y-122646429D01*
X93885716Y-122884524D01*
X92695239Y-123122619D01*
X94957144Y-123717857D02*
X95076192Y-123836905D01*
X94957144Y-123955952D01*
X94838096Y-123836905D01*
X94957144Y-123717857D01*
X94957144Y-123955952D01*
X95790477Y-122289286D02*
X96742858Y-122289286D01*
X96147620Y-121455952D02*
X96147620Y-123598810D01*
X96266668Y-123836905D01*
X96504763Y-123955952D01*
X96742858Y-123955952D01*
X97338096Y-122289286D02*
X97933334Y-123955952D01*
X98528572Y-122289286D01*
X70611904Y-126915476D02*
X70492857Y-126796429D01*
X70254761Y-126677381D01*
X70016666Y-126677381D01*
X69778571Y-126796429D01*
X69659523Y-126915476D01*
X69540476Y-127153571D01*
X69540476Y-127391667D01*
X69659523Y-127629762D01*
X69778571Y-127748810D01*
X70016666Y-127867857D01*
X70254761Y-127867857D01*
X70492857Y-127748810D01*
X70611904Y-127629762D01*
X70611904Y-126677381D02*
X70611904Y-127629762D01*
X70730952Y-127748810D01*
X70849999Y-127748810D01*
X71088095Y-127629762D01*
X71207142Y-127391667D01*
X71207142Y-126796429D01*
X70969047Y-126439286D01*
X70611904Y-126201190D01*
X70135714Y-126082143D01*
X69659523Y-126201190D01*
X69302380Y-126439286D01*
X69064285Y-126796429D01*
X68945237Y-127272619D01*
X69064285Y-127748810D01*
X69302380Y-128105952D01*
X69659523Y-128344048D01*
X70135714Y-128463095D01*
X70611904Y-128344048D01*
X70969047Y-128105952D01*
X72278571Y-128105952D02*
X72278571Y-125605952D01*
X73111904Y-127391667D01*
X73945238Y-125605952D01*
X73945238Y-128105952D01*
X75135714Y-128105952D02*
X75135714Y-126439286D01*
X75135714Y-126915476D02*
X75254762Y-126677381D01*
X75373809Y-126558333D01*
X75611905Y-126439286D01*
X75850000Y-126439286D01*
X78111905Y-128105952D02*
X77278571Y-126915476D01*
X76683333Y-128105952D02*
X76683333Y-125605952D01*
X77635714Y-125605952D01*
X77873809Y-125725000D01*
X77992857Y-125844048D01*
X78111905Y-126082143D01*
X78111905Y-126439286D01*
X77992857Y-126677381D01*
X77873809Y-126796429D01*
X77635714Y-126915476D01*
X76683333Y-126915476D01*
X79540476Y-128105952D02*
X79302381Y-127986905D01*
X79183333Y-127867857D01*
X79064285Y-127629762D01*
X79064285Y-126915476D01*
X79183333Y-126677381D01*
X79302381Y-126558333D01*
X79540476Y-126439286D01*
X79897619Y-126439286D01*
X80135714Y-126558333D01*
X80254762Y-126677381D01*
X80373809Y-126915476D01*
X80373809Y-127629762D01*
X80254762Y-127867857D01*
X80135714Y-127986905D01*
X79897619Y-128105952D01*
X79540476Y-128105952D01*
X81445238Y-128105952D02*
X81445238Y-125605952D01*
X81445238Y-126558333D02*
X81683333Y-126439286D01*
X82159524Y-126439286D01*
X82397619Y-126558333D01*
X82516667Y-126677381D01*
X82635714Y-126915476D01*
X82635714Y-127629762D01*
X82516667Y-127867857D01*
X82397619Y-127986905D01*
X82159524Y-128105952D01*
X81683333Y-128105952D01*
X81445238Y-127986905D01*
X84064286Y-128105952D02*
X83826191Y-127986905D01*
X83707143Y-127867857D01*
X83588095Y-127629762D01*
X83588095Y-126915476D01*
X83707143Y-126677381D01*
X83826191Y-126558333D01*
X84064286Y-126439286D01*
X84421429Y-126439286D01*
X84659524Y-126558333D01*
X84778572Y-126677381D01*
X84897619Y-126915476D01*
X84897619Y-127629762D01*
X84778572Y-127867857D01*
X84659524Y-127986905D01*
X84421429Y-128105952D01*
X84064286Y-128105952D01*
X85611905Y-126439286D02*
X86564286Y-126439286D01*
X85969048Y-125605952D02*
X85969048Y-127748810D01*
X86088096Y-127986905D01*
X86326191Y-128105952D01*
X86564286Y-128105952D01*
X88230952Y-126796429D02*
X88588095Y-126915476D01*
X88707143Y-127034524D01*
X88826191Y-127272619D01*
X88826191Y-127629762D01*
X88707143Y-127867857D01*
X88588095Y-127986905D01*
X88350000Y-128105952D01*
X87397619Y-128105952D01*
X87397619Y-125605952D01*
X88230952Y-125605952D01*
X88469048Y-125725000D01*
X88588095Y-125844048D01*
X88707143Y-126082143D01*
X88707143Y-126320238D01*
X88588095Y-126558333D01*
X88469048Y-126677381D01*
X88230952Y-126796429D01*
X87397619Y-126796429D01*
X90969048Y-128105952D02*
X90969048Y-126796429D01*
X90850000Y-126558333D01*
X90611905Y-126439286D01*
X90135714Y-126439286D01*
X89897619Y-126558333D01*
X90969048Y-127986905D02*
X90730952Y-128105952D01*
X90135714Y-128105952D01*
X89897619Y-127986905D01*
X89778571Y-127748810D01*
X89778571Y-127510714D01*
X89897619Y-127272619D01*
X90135714Y-127153571D01*
X90730952Y-127153571D01*
X90969048Y-127034524D01*
X93230953Y-128105952D02*
X93230953Y-125605952D01*
X93230953Y-127986905D02*
X92992857Y-128105952D01*
X92516667Y-128105952D01*
X92278572Y-127986905D01*
X92159524Y-127867857D01*
X92040476Y-127629762D01*
X92040476Y-126915476D01*
X92159524Y-126677381D01*
X92278572Y-126558333D01*
X92516667Y-126439286D01*
X92992857Y-126439286D01*
X93230953Y-126558333D01*
X95492858Y-126439286D02*
X95492858Y-128463095D01*
X95373810Y-128701190D01*
X95254762Y-128820238D01*
X95016667Y-128939286D01*
X94659524Y-128939286D01*
X94421429Y-128820238D01*
X95492858Y-127986905D02*
X95254762Y-128105952D01*
X94778572Y-128105952D01*
X94540477Y-127986905D01*
X94421429Y-127867857D01*
X94302381Y-127629762D01*
X94302381Y-126915476D01*
X94421429Y-126677381D01*
X94540477Y-126558333D01*
X94778572Y-126439286D01*
X95254762Y-126439286D01*
X95492858Y-126558333D01*
X97635715Y-127986905D02*
X97397620Y-128105952D01*
X96921429Y-128105952D01*
X96683334Y-127986905D01*
X96564286Y-127748810D01*
X96564286Y-126796429D01*
X96683334Y-126558333D01*
X96921429Y-126439286D01*
X97397620Y-126439286D01*
X97635715Y-126558333D01*
X97754763Y-126796429D01*
X97754763Y-127034524D01*
X96564286Y-127272619D01*
D12*
X70152031Y-150537732D02*
X69579610Y-150436717D01*
X69747970Y-150941794D02*
X69040863Y-150234687D01*
X69310237Y-149965312D01*
X69411253Y-149931641D01*
X69478596Y-149931641D01*
X69579611Y-149965312D01*
X69680626Y-150066328D01*
X69714298Y-150167343D01*
X69714298Y-150234686D01*
X69680626Y-150335701D01*
X69411252Y-150605076D01*
X69680626Y-149594924D02*
X70859138Y-149830626D01*
X70152031Y-149123519D02*
X70387733Y-150302030D01*
X67424027Y-148451523D02*
X67828088Y-148047462D01*
X68333164Y-148956600D02*
X67626057Y-148249493D01*
X67996447Y-147879103D02*
X69174958Y-148114805D01*
X68467851Y-147407698D02*
X68703553Y-148586210D01*
D14*
X50621359Y-115837025D02*
X50303161Y-116155223D01*
X50303161Y-116155223D02*
X55040777Y-120892839D01*
X55040777Y-120892839D02*
X55323619Y-120609996D01*
X51540598Y-114917786D02*
X53449786Y-113008598D01*
X58187402Y-117746214D02*
X56278214Y-119655402D01*
X54687223Y-111771161D02*
X59424839Y-116508777D01*
X59424839Y-116508777D02*
X59106641Y-116826975D01*
X54369025Y-112089359D02*
X54687223Y-111771161D01*
X96878000Y-35971000D02*
X95878000Y-35971000D01*
X95878000Y-35971000D02*
X95878000Y-38071000D01*
X96878000Y-35971000D02*
X96878000Y-38071000D01*
X96878000Y-40416000D02*
X95878000Y-40416000D01*
X95878000Y-40416000D02*
X95878000Y-42516000D01*
X96878000Y-40416000D02*
X96878000Y-42516000D01*
X96878000Y-44861000D02*
X95878000Y-44861000D01*
X95878000Y-44861000D02*
X95878000Y-46961000D01*
X96878000Y-44861000D02*
X96878000Y-46961000D01*
X96878000Y-49306000D02*
X95878000Y-49306000D01*
X95878000Y-49306000D02*
X95878000Y-51406000D01*
X96878000Y-49306000D02*
X96878000Y-51406000D01*
X96878000Y-53751000D02*
X95878000Y-53751000D01*
X95878000Y-53751000D02*
X95878000Y-55851000D01*
X96878000Y-53751000D02*
X96878000Y-55851000D01*
X96878000Y-58196000D02*
X95878000Y-58196000D01*
X95878000Y-58196000D02*
X95878000Y-60296000D01*
X96878000Y-58196000D02*
X96878000Y-60296000D01*
X96878000Y-62641000D02*
X95878000Y-62641000D01*
X95878000Y-62641000D02*
X95878000Y-64741000D01*
X96878000Y-62641000D02*
X96878000Y-64741000D01*
X96878000Y-67086000D02*
X95878000Y-67086000D01*
X95878000Y-67086000D02*
X95878000Y-69186000D01*
X96878000Y-67086000D02*
X96878000Y-69186000D01*
X96878000Y-71531000D02*
X95878000Y-71531000D01*
X95878000Y-71531000D02*
X95878000Y-73631000D01*
X96878000Y-71531000D02*
X96878000Y-73631000D01*
X96878000Y-75976000D02*
X95878000Y-75976000D01*
X95878000Y-75976000D02*
X95878000Y-78076000D01*
X96878000Y-75976000D02*
X96878000Y-78076000D01*
X96878000Y-80421000D02*
X95878000Y-80421000D01*
X95878000Y-80421000D02*
X95878000Y-82521000D01*
X96878000Y-80421000D02*
X96878000Y-82521000D01*
X96878000Y-84866000D02*
X95878000Y-84866000D01*
X95878000Y-84866000D02*
X95878000Y-86966000D01*
X96878000Y-84866000D02*
X96878000Y-86966000D01*
X96878000Y-89311000D02*
X95878000Y-89311000D01*
X95878000Y-89311000D02*
X95878000Y-91411000D01*
X96878000Y-89311000D02*
X96878000Y-91411000D01*
X96878000Y-93756000D02*
X95878000Y-93756000D01*
X95878000Y-93756000D02*
X95878000Y-95856000D01*
X96878000Y-93756000D02*
X96878000Y-95856000D01*
X96878000Y-98201000D02*
X95878000Y-98201000D01*
X95878000Y-98201000D02*
X95878000Y-100301000D01*
X96878000Y-98201000D02*
X96878000Y-100301000D01*
X96878000Y-102646000D02*
X95878000Y-102646000D01*
X95878000Y-102646000D02*
X95878000Y-104746000D01*
X96878000Y-102646000D02*
X96878000Y-104746000D01*
X93908500Y-106020500D02*
X92908500Y-106020500D01*
X92908500Y-107720500D02*
X93908500Y-107720500D01*
X93703000Y-35971000D02*
X92703000Y-35971000D01*
X92703000Y-35971000D02*
X92703000Y-38071000D01*
X93703000Y-35971000D02*
X93703000Y-38071000D01*
X93703000Y-40416000D02*
X92703000Y-40416000D01*
X92703000Y-40416000D02*
X92703000Y-42516000D01*
X93703000Y-40416000D02*
X93703000Y-42516000D01*
X93703000Y-44861000D02*
X92703000Y-44861000D01*
X92703000Y-44861000D02*
X92703000Y-46961000D01*
X93703000Y-44861000D02*
X93703000Y-46961000D01*
X93703000Y-49306000D02*
X92703000Y-49306000D01*
X92703000Y-49306000D02*
X92703000Y-51406000D01*
X93703000Y-49306000D02*
X93703000Y-51406000D01*
X93703000Y-53751000D02*
X92703000Y-53751000D01*
X92703000Y-53751000D02*
X92703000Y-55851000D01*
X93703000Y-53751000D02*
X93703000Y-55851000D01*
X93703000Y-58196000D02*
X92703000Y-58196000D01*
X92703000Y-58196000D02*
X92703000Y-60296000D01*
X93703000Y-58196000D02*
X93703000Y-60296000D01*
X93703000Y-62641000D02*
X92703000Y-62641000D01*
X92703000Y-62641000D02*
X92703000Y-64741000D01*
X93703000Y-62641000D02*
X93703000Y-64741000D01*
X93703000Y-67086000D02*
X92703000Y-67086000D01*
X92703000Y-67086000D02*
X92703000Y-69186000D01*
X93703000Y-67086000D02*
X93703000Y-69186000D01*
X93703000Y-71531000D02*
X92703000Y-71531000D01*
X92703000Y-71531000D02*
X92703000Y-73631000D01*
X93703000Y-71531000D02*
X93703000Y-73631000D01*
X93703000Y-75976000D02*
X92703000Y-75976000D01*
X92703000Y-75976000D02*
X92703000Y-78076000D01*
X93703000Y-75976000D02*
X93703000Y-78076000D01*
X93703000Y-80421000D02*
X92703000Y-80421000D01*
X92703000Y-80421000D02*
X92703000Y-82521000D01*
X93703000Y-80421000D02*
X93703000Y-82521000D01*
X93703000Y-84866000D02*
X92703000Y-84866000D01*
X92703000Y-84866000D02*
X92703000Y-86966000D01*
X93703000Y-84866000D02*
X93703000Y-86966000D01*
X93703000Y-89311000D02*
X92703000Y-89311000D01*
X92703000Y-89311000D02*
X92703000Y-91411000D01*
X93703000Y-89311000D02*
X93703000Y-91411000D01*
X93703000Y-93756000D02*
X92703000Y-93756000D01*
X92703000Y-93756000D02*
X92703000Y-95856000D01*
X93703000Y-93756000D02*
X93703000Y-95856000D01*
X93703000Y-98201000D02*
X92703000Y-98201000D01*
X92703000Y-98201000D02*
X92703000Y-100301000D01*
X93703000Y-98201000D02*
X93703000Y-100301000D01*
X93703000Y-102646000D02*
X92703000Y-102646000D01*
X92703000Y-102646000D02*
X92703000Y-104746000D01*
X93703000Y-102646000D02*
X93703000Y-104746000D01*
X83256500Y-107720500D02*
X84256500Y-107720500D01*
X84256500Y-106020500D02*
X83256500Y-106020500D01*
X90528000Y-35971000D02*
X89528000Y-35971000D01*
X89528000Y-35971000D02*
X89528000Y-38071000D01*
X90528000Y-35971000D02*
X90528000Y-38071000D01*
X90528000Y-40416000D02*
X89528000Y-40416000D01*
X89528000Y-40416000D02*
X89528000Y-42516000D01*
X90528000Y-40416000D02*
X90528000Y-42516000D01*
X90528000Y-44861000D02*
X89528000Y-44861000D01*
X89528000Y-44861000D02*
X89528000Y-46961000D01*
X90528000Y-44861000D02*
X90528000Y-46961000D01*
X90528000Y-49306000D02*
X89528000Y-49306000D01*
X89528000Y-49306000D02*
X89528000Y-51406000D01*
X90528000Y-49306000D02*
X90528000Y-51406000D01*
X90528000Y-53751000D02*
X89528000Y-53751000D01*
X89528000Y-53751000D02*
X89528000Y-55851000D01*
X90528000Y-53751000D02*
X90528000Y-55851000D01*
X90528000Y-58196000D02*
X89528000Y-58196000D01*
X89528000Y-58196000D02*
X89528000Y-60296000D01*
X90528000Y-58196000D02*
X90528000Y-60296000D01*
X90528000Y-62641000D02*
X89528000Y-62641000D01*
X89528000Y-62641000D02*
X89528000Y-64741000D01*
X90528000Y-62641000D02*
X90528000Y-64741000D01*
X90528000Y-67086000D02*
X89528000Y-67086000D01*
X89528000Y-67086000D02*
X89528000Y-69186000D01*
X90528000Y-67086000D02*
X90528000Y-69186000D01*
X90528000Y-71531000D02*
X89528000Y-71531000D01*
X89528000Y-71531000D02*
X89528000Y-73631000D01*
X90528000Y-71531000D02*
X90528000Y-73631000D01*
X90528000Y-75976000D02*
X89528000Y-75976000D01*
X89528000Y-75976000D02*
X89528000Y-78076000D01*
X90528000Y-75976000D02*
X90528000Y-78076000D01*
X90528000Y-80421000D02*
X89528000Y-80421000D01*
X89528000Y-80421000D02*
X89528000Y-82521000D01*
X90528000Y-80421000D02*
X90528000Y-82521000D01*
X90528000Y-84866000D02*
X89528000Y-84866000D01*
X89528000Y-84866000D02*
X89528000Y-86966000D01*
X90528000Y-84866000D02*
X90528000Y-86966000D01*
X90528000Y-89311000D02*
X89528000Y-89311000D01*
X89528000Y-89311000D02*
X89528000Y-91411000D01*
X90528000Y-89311000D02*
X90528000Y-91411000D01*
X90528000Y-93756000D02*
X89528000Y-93756000D01*
X89528000Y-93756000D02*
X89528000Y-95856000D01*
X90528000Y-93756000D02*
X90528000Y-95856000D01*
X90528000Y-98201000D02*
X89528000Y-98201000D01*
X89528000Y-98201000D02*
X89528000Y-100301000D01*
X90528000Y-98201000D02*
X90528000Y-100301000D01*
X90528000Y-102646000D02*
X89528000Y-102646000D01*
X89528000Y-102646000D02*
X89528000Y-104746000D01*
X90528000Y-102646000D02*
X90528000Y-104746000D01*
X87353000Y-35971000D02*
X86353000Y-35971000D01*
X86353000Y-35971000D02*
X86353000Y-38071000D01*
X87353000Y-35971000D02*
X87353000Y-38071000D01*
X87353000Y-40416000D02*
X86353000Y-40416000D01*
X86353000Y-40416000D02*
X86353000Y-42516000D01*
X87353000Y-40416000D02*
X87353000Y-42516000D01*
X87353000Y-44861000D02*
X86353000Y-44861000D01*
X86353000Y-44861000D02*
X86353000Y-46961000D01*
X87353000Y-44861000D02*
X87353000Y-46961000D01*
X87353000Y-49306000D02*
X86353000Y-49306000D01*
X86353000Y-49306000D02*
X86353000Y-51406000D01*
X87353000Y-49306000D02*
X87353000Y-51406000D01*
X87353000Y-53751000D02*
X86353000Y-53751000D01*
X86353000Y-53751000D02*
X86353000Y-55851000D01*
X87353000Y-53751000D02*
X87353000Y-55851000D01*
X87353000Y-58196000D02*
X86353000Y-58196000D01*
X86353000Y-58196000D02*
X86353000Y-60296000D01*
X87353000Y-58196000D02*
X87353000Y-60296000D01*
X87353000Y-62641000D02*
X86353000Y-62641000D01*
X86353000Y-62641000D02*
X86353000Y-64741000D01*
X87353000Y-62641000D02*
X87353000Y-64741000D01*
X87353000Y-67086000D02*
X86353000Y-67086000D01*
X86353000Y-67086000D02*
X86353000Y-69186000D01*
X87353000Y-67086000D02*
X87353000Y-69186000D01*
X87353000Y-71531000D02*
X86353000Y-71531000D01*
X86353000Y-71531000D02*
X86353000Y-73631000D01*
X87353000Y-71531000D02*
X87353000Y-73631000D01*
X87353000Y-75976000D02*
X86353000Y-75976000D01*
X86353000Y-75976000D02*
X86353000Y-78076000D01*
X87353000Y-75976000D02*
X87353000Y-78076000D01*
X87353000Y-80421000D02*
X86353000Y-80421000D01*
X86353000Y-80421000D02*
X86353000Y-82521000D01*
X87353000Y-80421000D02*
X87353000Y-82521000D01*
X87353000Y-84866000D02*
X86353000Y-84866000D01*
X86353000Y-84866000D02*
X86353000Y-86966000D01*
X87353000Y-84866000D02*
X87353000Y-86966000D01*
X87353000Y-89311000D02*
X86353000Y-89311000D01*
X86353000Y-89311000D02*
X86353000Y-91411000D01*
X87353000Y-89311000D02*
X87353000Y-91411000D01*
X87353000Y-93756000D02*
X86353000Y-93756000D01*
X86353000Y-93756000D02*
X86353000Y-95856000D01*
X87353000Y-93756000D02*
X87353000Y-95856000D01*
X87353000Y-98201000D02*
X86353000Y-98201000D01*
X86353000Y-98201000D02*
X86353000Y-100301000D01*
X87353000Y-98201000D02*
X87353000Y-100301000D01*
X87353000Y-102646000D02*
X86353000Y-102646000D01*
X86353000Y-102646000D02*
X86353000Y-104746000D01*
X87353000Y-102646000D02*
X87353000Y-104746000D01*
X84178000Y-35971000D02*
X83178000Y-35971000D01*
X83178000Y-35971000D02*
X83178000Y-38071000D01*
X84178000Y-35971000D02*
X84178000Y-38071000D01*
X84178000Y-40416000D02*
X83178000Y-40416000D01*
X83178000Y-40416000D02*
X83178000Y-42516000D01*
X84178000Y-40416000D02*
X84178000Y-42516000D01*
X84178000Y-44861000D02*
X83178000Y-44861000D01*
X83178000Y-44861000D02*
X83178000Y-46961000D01*
X84178000Y-44861000D02*
X84178000Y-46961000D01*
X84178000Y-49306000D02*
X83178000Y-49306000D01*
X83178000Y-49306000D02*
X83178000Y-51406000D01*
X84178000Y-49306000D02*
X84178000Y-51406000D01*
X84178000Y-53751000D02*
X83178000Y-53751000D01*
X83178000Y-53751000D02*
X83178000Y-55851000D01*
X84178000Y-53751000D02*
X84178000Y-55851000D01*
X84178000Y-58196000D02*
X83178000Y-58196000D01*
X83178000Y-58196000D02*
X83178000Y-60296000D01*
X84178000Y-58196000D02*
X84178000Y-60296000D01*
X84178000Y-62641000D02*
X83178000Y-62641000D01*
X83178000Y-62641000D02*
X83178000Y-64741000D01*
X84178000Y-62641000D02*
X84178000Y-64741000D01*
X84178000Y-67086000D02*
X83178000Y-67086000D01*
X83178000Y-67086000D02*
X83178000Y-69186000D01*
X84178000Y-67086000D02*
X84178000Y-69186000D01*
X84178000Y-71531000D02*
X83178000Y-71531000D01*
X83178000Y-71531000D02*
X83178000Y-73631000D01*
X84178000Y-71531000D02*
X84178000Y-73631000D01*
X84178000Y-75976000D02*
X83178000Y-75976000D01*
X83178000Y-75976000D02*
X83178000Y-78076000D01*
X84178000Y-75976000D02*
X84178000Y-78076000D01*
X84178000Y-80421000D02*
X83178000Y-80421000D01*
X83178000Y-80421000D02*
X83178000Y-82521000D01*
X84178000Y-80421000D02*
X84178000Y-82521000D01*
X84178000Y-84866000D02*
X83178000Y-84866000D01*
X83178000Y-84866000D02*
X83178000Y-86966000D01*
X84178000Y-84866000D02*
X84178000Y-86966000D01*
X84178000Y-89311000D02*
X83178000Y-89311000D01*
X83178000Y-89311000D02*
X83178000Y-91411000D01*
X84178000Y-89311000D02*
X84178000Y-91411000D01*
X84178000Y-93756000D02*
X83178000Y-93756000D01*
X83178000Y-93756000D02*
X83178000Y-95856000D01*
X84178000Y-93756000D02*
X84178000Y-95856000D01*
X84178000Y-98201000D02*
X83178000Y-98201000D01*
X83178000Y-98201000D02*
X83178000Y-100301000D01*
X84178000Y-98201000D02*
X84178000Y-100301000D01*
X84178000Y-102646000D02*
X83178000Y-102646000D01*
X83178000Y-102646000D02*
X83178000Y-104746000D01*
X84178000Y-102646000D02*
X84178000Y-104746000D01*
X81003000Y-35971000D02*
X80003000Y-35971000D01*
X80003000Y-35971000D02*
X80003000Y-38071000D01*
X81003000Y-35971000D02*
X81003000Y-38071000D01*
X81003000Y-40416000D02*
X80003000Y-40416000D01*
X80003000Y-40416000D02*
X80003000Y-42516000D01*
X81003000Y-40416000D02*
X81003000Y-42516000D01*
X81003000Y-44861000D02*
X80003000Y-44861000D01*
X80003000Y-44861000D02*
X80003000Y-46961000D01*
X81003000Y-44861000D02*
X81003000Y-46961000D01*
X81003000Y-49306000D02*
X80003000Y-49306000D01*
X80003000Y-49306000D02*
X80003000Y-51406000D01*
X81003000Y-49306000D02*
X81003000Y-51406000D01*
X81003000Y-53751000D02*
X80003000Y-53751000D01*
X80003000Y-53751000D02*
X80003000Y-55851000D01*
X81003000Y-53751000D02*
X81003000Y-55851000D01*
X81003000Y-58196000D02*
X80003000Y-58196000D01*
X80003000Y-58196000D02*
X80003000Y-60296000D01*
X81003000Y-58196000D02*
X81003000Y-60296000D01*
X81003000Y-62641000D02*
X80003000Y-62641000D01*
X80003000Y-62641000D02*
X80003000Y-64741000D01*
X81003000Y-62641000D02*
X81003000Y-64741000D01*
X81003000Y-67086000D02*
X80003000Y-67086000D01*
X80003000Y-67086000D02*
X80003000Y-69186000D01*
X81003000Y-67086000D02*
X81003000Y-69186000D01*
X81003000Y-71531000D02*
X80003000Y-71531000D01*
X80003000Y-71531000D02*
X80003000Y-73631000D01*
X81003000Y-71531000D02*
X81003000Y-73631000D01*
X81003000Y-75976000D02*
X80003000Y-75976000D01*
X80003000Y-75976000D02*
X80003000Y-78076000D01*
X81003000Y-75976000D02*
X81003000Y-78076000D01*
X81003000Y-80421000D02*
X80003000Y-80421000D01*
X80003000Y-80421000D02*
X80003000Y-82521000D01*
X81003000Y-80421000D02*
X81003000Y-82521000D01*
X81003000Y-84866000D02*
X80003000Y-84866000D01*
X80003000Y-84866000D02*
X80003000Y-86966000D01*
X81003000Y-84866000D02*
X81003000Y-86966000D01*
X81003000Y-89311000D02*
X80003000Y-89311000D01*
X80003000Y-89311000D02*
X80003000Y-91411000D01*
X81003000Y-89311000D02*
X81003000Y-91411000D01*
X81003000Y-93756000D02*
X80003000Y-93756000D01*
X80003000Y-93756000D02*
X80003000Y-95856000D01*
X81003000Y-93756000D02*
X81003000Y-95856000D01*
X81003000Y-98201000D02*
X80003000Y-98201000D01*
X80003000Y-98201000D02*
X80003000Y-100301000D01*
X81003000Y-98201000D02*
X81003000Y-100301000D01*
X81003000Y-102646000D02*
X80003000Y-102646000D01*
X80003000Y-102646000D02*
X80003000Y-104746000D01*
X81003000Y-102646000D02*
X81003000Y-104746000D01*
X77828000Y-35971000D02*
X76828000Y-35971000D01*
X76828000Y-35971000D02*
X76828000Y-38071000D01*
X77828000Y-35971000D02*
X77828000Y-38071000D01*
X77828000Y-40416000D02*
X76828000Y-40416000D01*
X76828000Y-40416000D02*
X76828000Y-42516000D01*
X77828000Y-40416000D02*
X77828000Y-42516000D01*
X77828000Y-44861000D02*
X76828000Y-44861000D01*
X76828000Y-44861000D02*
X76828000Y-46961000D01*
X77828000Y-44861000D02*
X77828000Y-46961000D01*
X77828000Y-49306000D02*
X76828000Y-49306000D01*
X76828000Y-49306000D02*
X76828000Y-51406000D01*
X77828000Y-49306000D02*
X77828000Y-51406000D01*
X77828000Y-53751000D02*
X76828000Y-53751000D01*
X76828000Y-53751000D02*
X76828000Y-55851000D01*
X77828000Y-53751000D02*
X77828000Y-55851000D01*
X77828000Y-58196000D02*
X76828000Y-58196000D01*
X76828000Y-58196000D02*
X76828000Y-60296000D01*
X77828000Y-58196000D02*
X77828000Y-60296000D01*
X77828000Y-62641000D02*
X76828000Y-62641000D01*
X76828000Y-62641000D02*
X76828000Y-64741000D01*
X77828000Y-62641000D02*
X77828000Y-64741000D01*
X77828000Y-67086000D02*
X76828000Y-67086000D01*
X76828000Y-67086000D02*
X76828000Y-69186000D01*
X77828000Y-67086000D02*
X77828000Y-69186000D01*
X77828000Y-71531000D02*
X76828000Y-71531000D01*
X76828000Y-71531000D02*
X76828000Y-73631000D01*
X77828000Y-71531000D02*
X77828000Y-73631000D01*
X77828000Y-75976000D02*
X76828000Y-75976000D01*
X76828000Y-75976000D02*
X76828000Y-78076000D01*
X77828000Y-75976000D02*
X77828000Y-78076000D01*
X77828000Y-80421000D02*
X76828000Y-80421000D01*
X76828000Y-80421000D02*
X76828000Y-82521000D01*
X77828000Y-80421000D02*
X77828000Y-82521000D01*
X77828000Y-84866000D02*
X76828000Y-84866000D01*
X76828000Y-84866000D02*
X76828000Y-86966000D01*
X77828000Y-84866000D02*
X77828000Y-86966000D01*
X77828000Y-89311000D02*
X76828000Y-89311000D01*
X76828000Y-89311000D02*
X76828000Y-91411000D01*
X77828000Y-89311000D02*
X77828000Y-91411000D01*
X77828000Y-93756000D02*
X76828000Y-93756000D01*
X76828000Y-93756000D02*
X76828000Y-95856000D01*
X77828000Y-93756000D02*
X77828000Y-95856000D01*
X77828000Y-98201000D02*
X76828000Y-98201000D01*
X76828000Y-98201000D02*
X76828000Y-100301000D01*
X77828000Y-98201000D02*
X77828000Y-100301000D01*
X77828000Y-102646000D02*
X76828000Y-102646000D01*
X76828000Y-102646000D02*
X76828000Y-104746000D01*
X77828000Y-102646000D02*
X77828000Y-104746000D01*
X74653000Y-35971000D02*
X73653000Y-35971000D01*
X73653000Y-35971000D02*
X73653000Y-38071000D01*
X74653000Y-35971000D02*
X74653000Y-38071000D01*
X74653000Y-40416000D02*
X73653000Y-40416000D01*
X73653000Y-40416000D02*
X73653000Y-42516000D01*
X74653000Y-40416000D02*
X74653000Y-42516000D01*
X74653000Y-44861000D02*
X73653000Y-44861000D01*
X73653000Y-44861000D02*
X73653000Y-46961000D01*
X74653000Y-44861000D02*
X74653000Y-46961000D01*
X74653000Y-49306000D02*
X73653000Y-49306000D01*
X73653000Y-49306000D02*
X73653000Y-51406000D01*
X74653000Y-49306000D02*
X74653000Y-51406000D01*
X74653000Y-53751000D02*
X73653000Y-53751000D01*
X73653000Y-53751000D02*
X73653000Y-55851000D01*
X74653000Y-53751000D02*
X74653000Y-55851000D01*
X74653000Y-58196000D02*
X73653000Y-58196000D01*
X73653000Y-58196000D02*
X73653000Y-60296000D01*
X74653000Y-58196000D02*
X74653000Y-60296000D01*
X74653000Y-62641000D02*
X73653000Y-62641000D01*
X73653000Y-62641000D02*
X73653000Y-64741000D01*
X74653000Y-62641000D02*
X74653000Y-64741000D01*
X74653000Y-67086000D02*
X73653000Y-67086000D01*
X73653000Y-67086000D02*
X73653000Y-69186000D01*
X74653000Y-67086000D02*
X74653000Y-69186000D01*
X74653000Y-71531000D02*
X73653000Y-71531000D01*
X73653000Y-71531000D02*
X73653000Y-73631000D01*
X74653000Y-71531000D02*
X74653000Y-73631000D01*
X74653000Y-75976000D02*
X73653000Y-75976000D01*
X73653000Y-75976000D02*
X73653000Y-78076000D01*
X74653000Y-75976000D02*
X74653000Y-78076000D01*
X74653000Y-80421000D02*
X73653000Y-80421000D01*
X73653000Y-80421000D02*
X73653000Y-82521000D01*
X74653000Y-80421000D02*
X74653000Y-82521000D01*
X74653000Y-84866000D02*
X73653000Y-84866000D01*
X73653000Y-84866000D02*
X73653000Y-86966000D01*
X74653000Y-84866000D02*
X74653000Y-86966000D01*
X74653000Y-89311000D02*
X73653000Y-89311000D01*
X73653000Y-89311000D02*
X73653000Y-91411000D01*
X74653000Y-89311000D02*
X74653000Y-91411000D01*
X74653000Y-93756000D02*
X73653000Y-93756000D01*
X73653000Y-93756000D02*
X73653000Y-95856000D01*
X74653000Y-93756000D02*
X74653000Y-95856000D01*
X74653000Y-98201000D02*
X73653000Y-98201000D01*
X73653000Y-98201000D02*
X73653000Y-100301000D01*
X74653000Y-98201000D02*
X74653000Y-100301000D01*
X74653000Y-102646000D02*
X73653000Y-102646000D01*
X73653000Y-102646000D02*
X73653000Y-104746000D01*
X74653000Y-102646000D02*
X74653000Y-104746000D01*
X71478000Y-35971000D02*
X70478000Y-35971000D01*
X70478000Y-35971000D02*
X70478000Y-38071000D01*
X71478000Y-35971000D02*
X71478000Y-38071000D01*
X71478000Y-40416000D02*
X70478000Y-40416000D01*
X70478000Y-40416000D02*
X70478000Y-42516000D01*
X71478000Y-40416000D02*
X71478000Y-42516000D01*
X71478000Y-44861000D02*
X70478000Y-44861000D01*
X70478000Y-44861000D02*
X70478000Y-46961000D01*
X71478000Y-44861000D02*
X71478000Y-46961000D01*
X71478000Y-49306000D02*
X70478000Y-49306000D01*
X70478000Y-49306000D02*
X70478000Y-51406000D01*
X71478000Y-49306000D02*
X71478000Y-51406000D01*
X71478000Y-53751000D02*
X70478000Y-53751000D01*
X70478000Y-53751000D02*
X70478000Y-55851000D01*
X71478000Y-53751000D02*
X71478000Y-55851000D01*
X71478000Y-58196000D02*
X70478000Y-58196000D01*
X70478000Y-58196000D02*
X70478000Y-60296000D01*
X71478000Y-58196000D02*
X71478000Y-60296000D01*
X71478000Y-62641000D02*
X70478000Y-62641000D01*
X70478000Y-62641000D02*
X70478000Y-64741000D01*
X71478000Y-62641000D02*
X71478000Y-64741000D01*
X71478000Y-67086000D02*
X70478000Y-67086000D01*
X70478000Y-67086000D02*
X70478000Y-69186000D01*
X71478000Y-67086000D02*
X71478000Y-69186000D01*
X71478000Y-71531000D02*
X70478000Y-71531000D01*
X70478000Y-71531000D02*
X70478000Y-73631000D01*
X71478000Y-71531000D02*
X71478000Y-73631000D01*
X71478000Y-75976000D02*
X70478000Y-75976000D01*
X70478000Y-75976000D02*
X70478000Y-78076000D01*
X71478000Y-75976000D02*
X71478000Y-78076000D01*
X71478000Y-80421000D02*
X70478000Y-80421000D01*
X70478000Y-80421000D02*
X70478000Y-82521000D01*
X71478000Y-80421000D02*
X71478000Y-82521000D01*
X71478000Y-84866000D02*
X70478000Y-84866000D01*
X70478000Y-84866000D02*
X70478000Y-86966000D01*
X71478000Y-84866000D02*
X71478000Y-86966000D01*
X71478000Y-89311000D02*
X70478000Y-89311000D01*
X70478000Y-89311000D02*
X70478000Y-91411000D01*
X71478000Y-89311000D02*
X71478000Y-91411000D01*
X71478000Y-93756000D02*
X70478000Y-93756000D01*
X70478000Y-93756000D02*
X70478000Y-95856000D01*
X71478000Y-93756000D02*
X71478000Y-95856000D01*
X71478000Y-98201000D02*
X70478000Y-98201000D01*
X70478000Y-98201000D02*
X70478000Y-100301000D01*
X71478000Y-98201000D02*
X71478000Y-100301000D01*
X71478000Y-102646000D02*
X70478000Y-102646000D01*
X70478000Y-102646000D02*
X70478000Y-104746000D01*
X71478000Y-102646000D02*
X71478000Y-104746000D01*
X74704500Y-107750500D02*
X73504500Y-107750500D01*
X73504500Y-105990500D02*
X74704500Y-105990500D01*
X60251974Y-143801974D02*
X61150000Y-142903949D01*
X61150000Y-142903949D02*
X62048026Y-143801974D01*
X85436000Y-29900000D02*
G75*
G03X85436000Y-29900000I-2286000J0D01*
G01*
D15*
X91186000Y-131826000D02*
X91186000Y-131064000D01*
X91186000Y-131064000D02*
X75184000Y-131064000D01*
X75184000Y-131064000D02*
X75184000Y-131826000D01*
D14*
X63746000Y-135040000D02*
X62746000Y-135040000D01*
X62746000Y-136740000D02*
X63746000Y-136740000D01*
X64608000Y-142358000D02*
X63408000Y-142358000D01*
X63408000Y-140598000D02*
X64608000Y-140598000D01*
X61078000Y-139354000D02*
X61078000Y-140554000D01*
X59318000Y-140554000D02*
X59318000Y-139354000D01*
D16*
X81606500Y-110689500D02*
X82231500Y-110689500D01*
X85906500Y-114989500D02*
X85281500Y-114989500D01*
X85906500Y-110689500D02*
X85281500Y-110689500D01*
X81606500Y-114989500D02*
X81606500Y-114364500D01*
X85906500Y-114989500D02*
X85906500Y-114364500D01*
X85906500Y-110689500D02*
X85906500Y-111314500D01*
X81606500Y-110689500D02*
X81606500Y-111314500D01*
X65262000Y-137684000D02*
X65462000Y-137684000D01*
X65462000Y-137684000D02*
X65262000Y-137684000D01*
X65262000Y-137684000D02*
X65262000Y-137484000D01*
X65262000Y-138084000D02*
X65262000Y-137784000D01*
X65262000Y-137784000D02*
X65262000Y-137684000D01*
X65262000Y-137684000D02*
X65062000Y-137684000D01*
X65262000Y-139684000D02*
X65262000Y-137984000D01*
X65062000Y-137684000D02*
X63262000Y-137684000D01*
X64262000Y-139684000D02*
X65262000Y-139684000D01*
X65262000Y-139684000D02*
X63262000Y-139684000D01*
X63262000Y-139684000D02*
X63262000Y-137684000D01*
D14*
X64713990Y-116809482D02*
X65562518Y-117658010D01*
X64318010Y-118902518D02*
X63469482Y-118053990D01*
X46004518Y-118053990D02*
X45155990Y-118902518D01*
X43911482Y-117658010D02*
X44760010Y-116809482D01*
X51364010Y-131602518D02*
X50515482Y-130753990D01*
X51759990Y-129509482D02*
X52608518Y-130358010D01*
X99870000Y-114952000D02*
X99870000Y-114502000D01*
X99870000Y-114502000D02*
X93170000Y-114502000D01*
X93170000Y-114502000D02*
X93170000Y-114902000D01*
X99870000Y-116252000D02*
X99870000Y-118952000D01*
X93170000Y-118952000D02*
X93170000Y-116252000D01*
X99870000Y-120702000D02*
X93170000Y-120702000D01*
X93170000Y-120702000D02*
X93170000Y-120252000D01*
X99870000Y-120252000D02*
X99870000Y-120702000D01*
X60946975Y-117677359D02*
X60628777Y-117359161D01*
X60628777Y-117359161D02*
X55891161Y-122096777D01*
X55891161Y-122096777D02*
X56174004Y-122379619D01*
X61866214Y-118596598D02*
X63775402Y-120505786D01*
X59037786Y-125243402D02*
X57128598Y-123334214D01*
X65012839Y-121743223D02*
X60275223Y-126480839D01*
X60275223Y-126480839D02*
X59957025Y-126162641D01*
X64694641Y-121425025D02*
X65012839Y-121743223D01*
X48781025Y-126162641D02*
X49099223Y-126480839D01*
X49099223Y-126480839D02*
X53836839Y-121743223D01*
X53836839Y-121743223D02*
X53553996Y-121460381D01*
X47861786Y-125243402D02*
X45952598Y-123334214D01*
X50690214Y-118596598D02*
X52599402Y-120505786D01*
X44715161Y-122096777D02*
X49452777Y-117359161D01*
X49452777Y-117359161D02*
X49770975Y-117677359D01*
X45033359Y-122414975D02*
X44715161Y-122096777D01*
X59106641Y-128002975D02*
X59424839Y-127684777D01*
X59424839Y-127684777D02*
X54687223Y-122947161D01*
X54687223Y-122947161D02*
X54404381Y-123230004D01*
X58187402Y-128922214D02*
X56278214Y-130831402D01*
X51540598Y-126093786D02*
X53449786Y-124184598D01*
X55040777Y-132068839D02*
X50303161Y-127331223D01*
X50303161Y-127331223D02*
X50621359Y-127013025D01*
X55358975Y-131750641D02*
X55040777Y-132068839D01*
X108633000Y-125620000D02*
X108633000Y-125170000D01*
X108633000Y-125170000D02*
X101933000Y-125170000D01*
X101933000Y-125170000D02*
X101933000Y-125570000D01*
X108633000Y-126920000D02*
X108633000Y-129620000D01*
X101933000Y-129620000D02*
X101933000Y-126920000D01*
X108633000Y-131370000D02*
X101933000Y-131370000D01*
X101933000Y-131370000D02*
X101933000Y-130920000D01*
X108633000Y-130920000D02*
X108633000Y-131370000D01*
X118285000Y-125620000D02*
X118285000Y-125170000D01*
X118285000Y-125170000D02*
X111585000Y-125170000D01*
X111585000Y-125170000D02*
X111585000Y-125570000D01*
X118285000Y-126920000D02*
X118285000Y-129620000D01*
X111585000Y-129620000D02*
X111585000Y-126920000D01*
X118285000Y-131370000D02*
X111585000Y-131370000D01*
X111585000Y-131370000D02*
X111585000Y-130920000D01*
X118285000Y-130920000D02*
X118285000Y-131370000D01*
X118958000Y-109866000D02*
X118958000Y-108066000D01*
X115738000Y-108066000D02*
X115738000Y-110516000D01*
X115070000Y-113626000D02*
X116070000Y-113626000D01*
X116070000Y-111926000D02*
X115070000Y-111926000D01*
X123356000Y-108720000D02*
X123356000Y-109720000D01*
X125056000Y-109720000D02*
X125056000Y-108720000D01*
D16*
X114350800Y-108000800D02*
X114350800Y-109982000D01*
X114350800Y-109982000D02*
X114350800Y-110032800D01*
X114350800Y-110032800D02*
X112268000Y-110032800D01*
X112268000Y-110032800D02*
X112268000Y-107950000D01*
X112268000Y-107950000D02*
X112268000Y-107899200D01*
X112268000Y-107899200D02*
X114350800Y-107899200D01*
X114350800Y-107899200D02*
X114350800Y-108000800D01*
D14*
X117948000Y-105528000D02*
X116748000Y-105528000D01*
X116748000Y-103768000D02*
X117948000Y-103768000D01*
X121784000Y-108366000D02*
X121784000Y-109566000D01*
X120024000Y-109566000D02*
X120024000Y-108366000D01*
D16*
D17*
X116452286Y-100202857D02*
X116452286Y-97917143D01*
X117595143Y-99060000D02*
X115309429Y-99060000D01*
X135595143Y-98774286D02*
X137880857Y-98774286D01*
D16*
D17*
X30600286Y-100202857D02*
X30600286Y-97917143D01*
X31743143Y-99060000D02*
X29457429Y-99060000D01*
X49743143Y-98774286D02*
X52028857Y-98774286D01*
D16*
D18*
X94111905Y-113909524D02*
X94397620Y-114004762D01*
X94873810Y-114004762D01*
X95064286Y-113909524D01*
X95159524Y-113814286D01*
X95254763Y-113623810D01*
X95254763Y-113433333D01*
X95159524Y-113242857D01*
X95064286Y-113147619D01*
X94873810Y-113052381D01*
X94492858Y-112957143D01*
X94302382Y-112861905D01*
X94207143Y-112766667D01*
X94111905Y-112576190D01*
X94111905Y-112385714D01*
X94207143Y-112195238D01*
X94302382Y-112100000D01*
X94492858Y-112004762D01*
X94969048Y-112004762D01*
X95254763Y-112100000D01*
X95826191Y-112671429D02*
X96588096Y-112671429D01*
X96111905Y-112004762D02*
X96111905Y-113719048D01*
X96207144Y-113909524D01*
X96397620Y-114004762D01*
X96588096Y-114004762D01*
X98111905Y-114004762D02*
X98111905Y-112957143D01*
X98016667Y-112766667D01*
X97826191Y-112671429D01*
X97445239Y-112671429D01*
X97254762Y-112766667D01*
X98111905Y-113909524D02*
X97921429Y-114004762D01*
X97445239Y-114004762D01*
X97254762Y-113909524D01*
X97159524Y-113719048D01*
X97159524Y-113528571D01*
X97254762Y-113338095D01*
X97445239Y-113242857D01*
X97921429Y-113242857D01*
X98111905Y-113147619D01*
X99064286Y-114004762D02*
X99064286Y-112671429D01*
X99064286Y-113052381D02*
X99159525Y-112861905D01*
X99254763Y-112766667D01*
X99445239Y-112671429D01*
X99635715Y-112671429D01*
X100016667Y-112671429D02*
X100778572Y-112671429D01*
X100302381Y-112004762D02*
X100302381Y-113719048D01*
X100397620Y-113909524D01*
X100588096Y-114004762D01*
X100778572Y-114004762D01*
D16*
D18*
X108928571Y-123321429D02*
X109285714Y-123440476D01*
X109404762Y-123559524D01*
X109523810Y-123797619D01*
X109523810Y-124154762D01*
X109404762Y-124392857D01*
X109285714Y-124511905D01*
X109047619Y-124630952D01*
X108095238Y-124630952D01*
X108095238Y-122130952D01*
X108928571Y-122130952D01*
X109166667Y-122250000D01*
X109285714Y-122369048D01*
X109404762Y-122607143D01*
X109404762Y-122845238D01*
X109285714Y-123083333D01*
X109166667Y-123202381D01*
X108928571Y-123321429D01*
X108095238Y-123321429D01*
D16*
D18*
X117354762Y-123916667D02*
X118545239Y-123916667D01*
X117116667Y-124630952D02*
X117950001Y-122130952D01*
X118783334Y-124630952D01*
D16*
D19*
G36*
X109370394Y-139100000D02*
X97950000Y-150520394D01*
X94877000Y-147447394D01*
X94877000Y-147427000D01*
X94950000Y-147427000D01*
X94999410Y-147416994D01*
X95039803Y-147389803D01*
X106350000Y-136079606D01*
X109370394Y-139100000D01*
X109370394Y-139100000D01*
G37*
X109370394Y-139100000D02*
X97950000Y-150520394D01*
X94877000Y-147447394D01*
X94877000Y-147427000D01*
X94950000Y-147427000D01*
X94999410Y-147416994D01*
X95039803Y-147389803D01*
X106350000Y-136079606D01*
X109370394Y-139100000D01*
M02*
