M48
;DRILL file {KiCad 4.0.4-stable} date 05/15/17 11:58:35
;FORMAT={-:-/ absolute / inch / decimal}
FMAT,2
INCH,TZ
T1C0.016
T2C0.039
T3C0.217
%
G90
G05
M72
T1
X2.0689Y-4.4921
X2.2185Y-4.4921
X2.3287Y-4.7756
X2.3602Y-5.3504
X2.5075Y-2.8075
X2.5375Y-2.7675
X2.5675Y-2.6175
X2.5975Y-2.4275
X2.6201Y-5.2244
X2.6201Y-5.374
X2.6275Y-2.2575
X2.6575Y-2.0775
X2.6775Y-1.9075
X2.6988Y-4.6732
X2.7075Y-1.7275
X2.7675Y-2.7675
X2.7775Y-1.7275
X2.7775Y-1.9075
X2.7775Y-2.0775
X2.7775Y-2.2575
X2.7775Y-2.4275
X2.7775Y-2.6075
X2.8327Y-5.2795
X2.8425Y-1.4525
X2.8425Y-1.6275
X2.8425Y-1.8025
X2.8425Y-1.9775
X2.8425Y-2.1525
X2.8425Y-2.3275
X2.8425Y-2.5025
X2.8425Y-2.6775
X2.8425Y-2.8525
X2.8425Y-3.0025
X2.8425Y-3.1775
X2.8425Y-3.3525
X2.8425Y-3.5275
X2.8425Y-3.7025
X2.8425Y-3.8775
X2.8425Y-4.0775
X2.8475Y-2.7575
X2.8475Y-4.1475
X2.8799Y-5.1457
X2.8799Y-5.2244
X2.9675Y-1.4525
X2.9675Y-1.6275
X2.9675Y-1.8025
X2.9675Y-1.9775
X2.9675Y-2.1525
X2.9675Y-2.3275
X2.9675Y-2.5025
X2.9675Y-2.6775
X2.9675Y-2.8525
X2.9675Y-3.0025
X2.9675Y-3.1775
X2.9675Y-3.3525
X2.9675Y-3.5275
X2.9675Y-3.7025
X2.9675Y-3.8775
X2.9675Y-4.0775
X3.042Y-4.208
X3.0925Y-1.4525
X3.0925Y-1.6275
X3.0925Y-1.8025
X3.0925Y-1.9775
X3.0925Y-2.1525
X3.0925Y-2.3275
X3.0925Y-2.5025
X3.0925Y-2.6775
X3.0925Y-2.8525
X3.0925Y-3.0025
X3.0925Y-3.1775
X3.0925Y-3.3525
X3.0925Y-3.5275
X3.0925Y-3.7025
X3.0925Y-3.8775
X3.0925Y-4.0775
X3.12Y-5.61
X3.16Y-5.53
X3.1732Y-4.248
X3.19Y-4.3
X3.2175Y-1.4525
X3.2175Y-1.6275
X3.2175Y-1.8025
X3.2175Y-1.9775
X3.2175Y-2.1525
X3.2175Y-2.3275
X3.2175Y-2.5025
X3.2175Y-2.6775
X3.2175Y-2.8525
X3.2175Y-3.0025
X3.2175Y-3.1775
X3.2175Y-3.3525
X3.2175Y-3.5275
X3.2175Y-3.7025
X3.2175Y-3.8775
X3.2175Y-4.0775
X3.2343Y-4.6024
X3.2343Y-5.0669
X3.24Y-4.29
X3.3051Y-4.6181
X3.313Y-5.0669
X3.3366Y-4.5945
X3.3425Y-1.4525
X3.3425Y-1.6275
X3.3425Y-1.8025
X3.3425Y-1.9775
X3.3425Y-2.1525
X3.3425Y-2.3275
X3.3425Y-2.5025
X3.3425Y-2.6775
X3.3425Y-2.8525
X3.3425Y-3.0025
X3.3425Y-3.1775
X3.3425Y-3.3525
X3.3425Y-3.5275
X3.3425Y-3.7025
X3.3425Y-3.8775
X3.3425Y-4.0775
X3.3825Y-4.5525
X3.4675Y-1.4525
X3.4675Y-1.6275
X3.4675Y-1.8025
X3.4675Y-1.9775
X3.4675Y-2.1525
X3.4675Y-2.3275
X3.4675Y-2.5025
X3.4675Y-2.6775
X3.4675Y-2.8525
X3.4675Y-3.0025
X3.4675Y-3.1775
X3.4675Y-3.3525
X3.4675Y-3.5275
X3.4675Y-3.7025
X3.4675Y-3.8775
X3.4675Y-4.0775
X3.5177Y-4.2165
X3.5925Y-1.4525
X3.5925Y-1.6275
X3.5925Y-1.8025
X3.5925Y-1.9775
X3.5925Y-2.1525
X3.5925Y-2.3275
X3.5925Y-2.5025
X3.5925Y-2.6775
X3.5925Y-2.8525
X3.5925Y-3.0025
X3.5925Y-3.1775
X3.5925Y-3.3525
X3.5925Y-3.5275
X3.5925Y-3.7025
X3.5925Y-3.8775
X3.5925Y-4.0775
X3.6752Y-5.3819
X3.6752Y-5.4606
X3.6752Y-5.5394
X3.7175Y-1.4525
X3.7175Y-1.6275
X3.7175Y-1.8025
X3.7175Y-1.9775
X3.7175Y-2.1525
X3.7175Y-2.3275
X3.7175Y-2.5025
X3.7175Y-2.6775
X3.7175Y-2.8525
X3.7175Y-3.0025
X3.7175Y-3.1775
X3.7175Y-3.3525
X3.7175Y-3.5275
X3.7175Y-3.7025
X3.7175Y-3.8775
X3.7175Y-4.0775
X3.8425Y-1.4525
X3.8425Y-1.6275
X3.8425Y-1.8025
X3.8425Y-1.9775
X3.8425Y-2.1525
X3.8425Y-2.3275
X3.8425Y-2.5025
X3.8425Y-2.6775
X3.8425Y-2.8525
X3.8425Y-3.0025
X3.8425Y-3.1775
X3.8425Y-3.3525
X3.8425Y-3.5275
X3.8425Y-3.7025
X3.8425Y-3.8775
X3.8425Y-4.0775
X3.8642Y-4.4134
X3.9429Y-4.7835
X4.1319Y-5.2087
X4.3287Y-5.2087
X4.6909Y-4.3898
X4.7854Y-4.9724
T2
X1.2947Y-1.8134
X1.2947Y-3.9
X1.8853Y-1.8134
X1.8853Y-3.9
X2.4075Y-5.6969
X2.4782Y-5.7676
X2.5489Y-5.8383
X2.6196Y-5.909
X2.6903Y-5.9797
X2.761Y-6.0504
X4.6747Y-1.8134
X4.6747Y-3.9
X5.2653Y-1.8134
X5.2653Y-3.9
T3
X3.2736Y-1.1772
T0
M30
