G04 #@! TF.FileFunction,Paste,Top*
%FSLAX46Y46*%
G04 Gerber Fmt 4.6, Leading zero omitted, Abs format (unit mm)*
G04 Created by KiCad (PCBNEW 4.0.4-stable) date 05/15/17 11:58:30*
%MOMM*%
%LPD*%
G01*
G04 APERTURE LIST*
%ADD10C,0.100000*%
%ADD11R,0.800000X0.800000*%
%ADD12R,1.500000X1.250000*%
%ADD13R,1.500000X1.300000*%
%ADD14R,2.500000X1.100000*%
%ADD15O,2.500000X1.100000*%
%ADD16O,1.100000X2.400000*%
%ADD17R,1.300000X1.500000*%
%ADD18R,0.200000X0.800000*%
%ADD19R,0.800000X0.200000*%
%ADD20R,0.720000X0.720000*%
%ADD21R,0.600000X0.450000*%
%ADD22R,2.750000X1.000000*%
%ADD23R,0.650000X1.060000*%
%ADD24R,1.250000X1.500000*%
%ADD25R,1.800000X0.600000*%
G04 APERTURE END LIST*
D10*
G36*
X57398978Y-115925414D02*
X58106085Y-115218307D01*
X60050628Y-117162850D01*
X59343521Y-117869957D01*
X57398978Y-115925414D01*
X57398978Y-115925414D01*
G37*
G36*
X53207249Y-111733685D02*
X53914356Y-111026578D01*
X55858899Y-112971121D01*
X55151792Y-113678228D01*
X53207249Y-111733685D01*
X53207249Y-111733685D01*
G37*
G36*
X49558578Y-115382356D02*
X50265685Y-114675249D01*
X52210228Y-116619792D01*
X51503121Y-117326899D01*
X49558578Y-115382356D01*
X49558578Y-115382356D01*
G37*
G36*
X53750307Y-119574085D02*
X54457414Y-118866978D01*
X56401957Y-120811521D01*
X55694850Y-121518628D01*
X53750307Y-119574085D01*
X53750307Y-119574085D01*
G37*
D11*
X96378000Y-38071000D03*
X96378000Y-36471000D03*
X96378000Y-42516000D03*
X96378000Y-40916000D03*
X96378000Y-46961000D03*
X96378000Y-45361000D03*
X96378000Y-51406000D03*
X96378000Y-49806000D03*
X96378000Y-55851000D03*
X96378000Y-54251000D03*
X96378000Y-60296000D03*
X96378000Y-58696000D03*
X96378000Y-64741000D03*
X96378000Y-63141000D03*
X96378000Y-69186000D03*
X96378000Y-67586000D03*
X96378000Y-73631000D03*
X96378000Y-72031000D03*
X96378000Y-78076000D03*
X96378000Y-76476000D03*
X96378000Y-82521000D03*
X96378000Y-80921000D03*
X96378000Y-86966000D03*
X96378000Y-85366000D03*
X96378000Y-91411000D03*
X96378000Y-89811000D03*
X96378000Y-95856000D03*
X96378000Y-94256000D03*
X96378000Y-100301000D03*
X96378000Y-98701000D03*
X96378000Y-104746000D03*
X96378000Y-103146000D03*
D12*
X92158500Y-106870500D03*
X94658500Y-106870500D03*
D11*
X93203000Y-38071000D03*
X93203000Y-36471000D03*
X93203000Y-42516000D03*
X93203000Y-40916000D03*
X93203000Y-46961000D03*
X93203000Y-45361000D03*
X93203000Y-51406000D03*
X93203000Y-49806000D03*
X93203000Y-55851000D03*
X93203000Y-54251000D03*
X93203000Y-60296000D03*
X93203000Y-58696000D03*
X93203000Y-64741000D03*
X93203000Y-63141000D03*
X93203000Y-69186000D03*
X93203000Y-67586000D03*
X93203000Y-73631000D03*
X93203000Y-72031000D03*
X93203000Y-78076000D03*
X93203000Y-76476000D03*
X93203000Y-82521000D03*
X93203000Y-80921000D03*
X93203000Y-86966000D03*
X93203000Y-85366000D03*
X93203000Y-91411000D03*
X93203000Y-89811000D03*
X93203000Y-95856000D03*
X93203000Y-94256000D03*
X93203000Y-100301000D03*
X93203000Y-98701000D03*
X93203000Y-104746000D03*
X93203000Y-103146000D03*
D12*
X85006500Y-106870500D03*
X82506500Y-106870500D03*
D11*
X90028000Y-38071000D03*
X90028000Y-36471000D03*
X90028000Y-42516000D03*
X90028000Y-40916000D03*
X90028000Y-46961000D03*
X90028000Y-45361000D03*
X90028000Y-51406000D03*
X90028000Y-49806000D03*
X90028000Y-55851000D03*
X90028000Y-54251000D03*
X90028000Y-60296000D03*
X90028000Y-58696000D03*
X90028000Y-64741000D03*
X90028000Y-63141000D03*
X90028000Y-69186000D03*
X90028000Y-67586000D03*
X90028000Y-73631000D03*
X90028000Y-72031000D03*
X90028000Y-78076000D03*
X90028000Y-76476000D03*
X90028000Y-82521000D03*
X90028000Y-80921000D03*
X90028000Y-86966000D03*
X90028000Y-85366000D03*
X90028000Y-91411000D03*
X90028000Y-89811000D03*
X90028000Y-95856000D03*
X90028000Y-94256000D03*
X90028000Y-100301000D03*
X90028000Y-98701000D03*
X90028000Y-104746000D03*
X90028000Y-103146000D03*
X86853000Y-38071000D03*
X86853000Y-36471000D03*
X86853000Y-42516000D03*
X86853000Y-40916000D03*
X86853000Y-46961000D03*
X86853000Y-45361000D03*
X86853000Y-51406000D03*
X86853000Y-49806000D03*
X86853000Y-55851000D03*
X86853000Y-54251000D03*
X86853000Y-60296000D03*
X86853000Y-58696000D03*
X86853000Y-64741000D03*
X86853000Y-63141000D03*
X86853000Y-69186000D03*
X86853000Y-67586000D03*
X86853000Y-73631000D03*
X86853000Y-72031000D03*
X86853000Y-78076000D03*
X86853000Y-76476000D03*
X86853000Y-82521000D03*
X86853000Y-80921000D03*
X86853000Y-86966000D03*
X86853000Y-85366000D03*
X86853000Y-91411000D03*
X86853000Y-89811000D03*
X86853000Y-95856000D03*
X86853000Y-94256000D03*
X86853000Y-100301000D03*
X86853000Y-98701000D03*
X86853000Y-104746000D03*
X86853000Y-103146000D03*
X83678000Y-38071000D03*
X83678000Y-36471000D03*
X83678000Y-42516000D03*
X83678000Y-40916000D03*
X83678000Y-46961000D03*
X83678000Y-45361000D03*
X83678000Y-51406000D03*
X83678000Y-49806000D03*
X83678000Y-55851000D03*
X83678000Y-54251000D03*
X83678000Y-60296000D03*
X83678000Y-58696000D03*
X83678000Y-64741000D03*
X83678000Y-63141000D03*
X83678000Y-69186000D03*
X83678000Y-67586000D03*
X83678000Y-73631000D03*
X83678000Y-72031000D03*
X83678000Y-78076000D03*
X83678000Y-76476000D03*
X83678000Y-82521000D03*
X83678000Y-80921000D03*
X83678000Y-86966000D03*
X83678000Y-85366000D03*
X83678000Y-91411000D03*
X83678000Y-89811000D03*
X83678000Y-95856000D03*
X83678000Y-94256000D03*
X83678000Y-100301000D03*
X83678000Y-98701000D03*
X83678000Y-104746000D03*
X83678000Y-103146000D03*
X80503000Y-38071000D03*
X80503000Y-36471000D03*
X80503000Y-42516000D03*
X80503000Y-40916000D03*
X80503000Y-46961000D03*
X80503000Y-45361000D03*
X80503000Y-51406000D03*
X80503000Y-49806000D03*
X80503000Y-55851000D03*
X80503000Y-54251000D03*
X80503000Y-60296000D03*
X80503000Y-58696000D03*
X80503000Y-64741000D03*
X80503000Y-63141000D03*
X80503000Y-69186000D03*
X80503000Y-67586000D03*
X80503000Y-73631000D03*
X80503000Y-72031000D03*
X80503000Y-78076000D03*
X80503000Y-76476000D03*
X80503000Y-82521000D03*
X80503000Y-80921000D03*
X80503000Y-86966000D03*
X80503000Y-85366000D03*
X80503000Y-91411000D03*
X80503000Y-89811000D03*
X80503000Y-95856000D03*
X80503000Y-94256000D03*
X80503000Y-100301000D03*
X80503000Y-98701000D03*
X80503000Y-104746000D03*
X80503000Y-103146000D03*
X77328000Y-38071000D03*
X77328000Y-36471000D03*
X77328000Y-42516000D03*
X77328000Y-40916000D03*
X77328000Y-46961000D03*
X77328000Y-45361000D03*
X77328000Y-51406000D03*
X77328000Y-49806000D03*
X77328000Y-55851000D03*
X77328000Y-54251000D03*
X77328000Y-60296000D03*
X77328000Y-58696000D03*
X77328000Y-64741000D03*
X77328000Y-63141000D03*
X77328000Y-69186000D03*
X77328000Y-67586000D03*
X77328000Y-73631000D03*
X77328000Y-72031000D03*
X77328000Y-78076000D03*
X77328000Y-76476000D03*
X77328000Y-82521000D03*
X77328000Y-80921000D03*
X77328000Y-86966000D03*
X77328000Y-85366000D03*
X77328000Y-91411000D03*
X77328000Y-89811000D03*
X77328000Y-95856000D03*
X77328000Y-94256000D03*
X77328000Y-100301000D03*
X77328000Y-98701000D03*
X77328000Y-104746000D03*
X77328000Y-103146000D03*
X74153000Y-38071000D03*
X74153000Y-36471000D03*
X74153000Y-42516000D03*
X74153000Y-40916000D03*
X74153000Y-46961000D03*
X74153000Y-45361000D03*
X74153000Y-51406000D03*
X74153000Y-49806000D03*
X74153000Y-55851000D03*
X74153000Y-54251000D03*
X74153000Y-60296000D03*
X74153000Y-58696000D03*
X74153000Y-64741000D03*
X74153000Y-63141000D03*
X74153000Y-69186000D03*
X74153000Y-67586000D03*
X74153000Y-73631000D03*
X74153000Y-72031000D03*
X74153000Y-78076000D03*
X74153000Y-76476000D03*
X74153000Y-82521000D03*
X74153000Y-80921000D03*
X74153000Y-86966000D03*
X74153000Y-85366000D03*
X74153000Y-91411000D03*
X74153000Y-89811000D03*
X74153000Y-95856000D03*
X74153000Y-94256000D03*
X74153000Y-100301000D03*
X74153000Y-98701000D03*
X74153000Y-104746000D03*
X74153000Y-103146000D03*
X70978000Y-38071000D03*
X70978000Y-36471000D03*
X70978000Y-42516000D03*
X70978000Y-40916000D03*
X70978000Y-46961000D03*
X70978000Y-45361000D03*
X70978000Y-51406000D03*
X70978000Y-49806000D03*
X70978000Y-55851000D03*
X70978000Y-54251000D03*
X70978000Y-60296000D03*
X70978000Y-58696000D03*
X70978000Y-64741000D03*
X70978000Y-63141000D03*
X70978000Y-69186000D03*
X70978000Y-67586000D03*
X70978000Y-73631000D03*
X70978000Y-72031000D03*
X70978000Y-78076000D03*
X70978000Y-76476000D03*
X70978000Y-82521000D03*
X70978000Y-80921000D03*
X70978000Y-86966000D03*
X70978000Y-85366000D03*
X70978000Y-91411000D03*
X70978000Y-89811000D03*
X70978000Y-95856000D03*
X70978000Y-94256000D03*
X70978000Y-100301000D03*
X70978000Y-98701000D03*
X70978000Y-104746000D03*
X70978000Y-103146000D03*
D13*
X72754500Y-106870500D03*
X75454500Y-106870500D03*
D14*
X90870000Y-146685000D03*
D15*
X90870000Y-144685000D03*
X90870000Y-142685000D03*
X90870000Y-140685000D03*
X90870000Y-138685000D03*
X90870000Y-136685000D03*
X90870000Y-134685000D03*
X90870000Y-132685000D03*
X75470000Y-132685000D03*
X75570000Y-134685000D03*
X75470000Y-136685000D03*
X75470000Y-138685000D03*
X75470000Y-140685000D03*
X75470000Y-142685000D03*
X75470000Y-144685000D03*
X75470000Y-146685000D03*
D16*
X88180000Y-130935000D03*
X86180000Y-130935000D03*
X84180000Y-130935000D03*
X82180000Y-130935000D03*
X80180000Y-130935000D03*
X78180000Y-130935000D03*
D12*
X61996000Y-135890000D03*
X64496000Y-135890000D03*
D13*
X62658000Y-141478000D03*
X65358000Y-141478000D03*
D17*
X60198000Y-141304000D03*
X60198000Y-138604000D03*
D18*
X82556500Y-114789500D03*
X82956500Y-114789500D03*
X83356500Y-114789500D03*
X83756500Y-114789500D03*
X84156500Y-114789500D03*
X84556500Y-114789500D03*
X84956500Y-114789500D03*
D19*
X85706500Y-114039500D03*
X85706500Y-113639500D03*
X85706500Y-113239500D03*
X85706500Y-112839500D03*
X85706500Y-112439500D03*
X85706500Y-112039500D03*
X85706500Y-111639500D03*
D18*
X84956500Y-110889500D03*
X84556500Y-110889500D03*
X84156500Y-110889500D03*
X83756500Y-110889500D03*
X83356500Y-110889500D03*
X82956500Y-110889500D03*
X82556500Y-110889500D03*
D19*
X81806500Y-111639500D03*
X81806500Y-112039500D03*
X81806500Y-112439500D03*
X81806500Y-112839500D03*
X81806500Y-113239500D03*
X81806500Y-113639500D03*
X81806500Y-114039500D03*
D20*
X84356500Y-112239500D03*
X83156500Y-112239500D03*
X84356500Y-113439500D03*
X83156500Y-113439500D03*
D21*
X64862000Y-137984000D03*
X63662000Y-137984000D03*
X63662000Y-139384000D03*
X64862000Y-139384000D03*
D10*
G36*
X66460543Y-118881305D02*
X65541305Y-119800543D01*
X64480645Y-118739883D01*
X65399883Y-117820645D01*
X66460543Y-118881305D01*
X66460543Y-118881305D01*
G37*
G36*
X64551355Y-116972117D02*
X63632117Y-117891355D01*
X62571457Y-116830695D01*
X63490695Y-115911457D01*
X64551355Y-116972117D01*
X64551355Y-116972117D01*
G37*
G36*
X43932695Y-119800543D02*
X43013457Y-118881305D01*
X44074117Y-117820645D01*
X44993355Y-118739883D01*
X43932695Y-119800543D01*
X43932695Y-119800543D01*
G37*
G36*
X45841883Y-117891355D02*
X44922645Y-116972117D01*
X45983305Y-115911457D01*
X46902543Y-116830695D01*
X45841883Y-117891355D01*
X45841883Y-117891355D01*
G37*
G36*
X49617457Y-129530695D02*
X50536695Y-128611457D01*
X51597355Y-129672117D01*
X50678117Y-130591355D01*
X49617457Y-129530695D01*
X49617457Y-129530695D01*
G37*
G36*
X51526645Y-131439883D02*
X52445883Y-130520645D01*
X53506543Y-131581305D01*
X52587305Y-132500543D01*
X51526645Y-131439883D01*
X51526645Y-131439883D01*
G37*
D22*
X93640000Y-119602000D03*
X99400000Y-119602000D03*
X99400000Y-115602000D03*
X93640000Y-115602000D03*
D10*
G36*
X60448464Y-124044856D02*
X61155571Y-124751963D01*
X59211028Y-126696506D01*
X58503921Y-125989399D01*
X60448464Y-124044856D01*
X60448464Y-124044856D01*
G37*
G36*
X64521399Y-119971921D02*
X65228506Y-120679028D01*
X63283963Y-122623571D01*
X62576856Y-121916464D01*
X64521399Y-119971921D01*
X64521399Y-119971921D01*
G37*
G36*
X61692972Y-117143494D02*
X62400079Y-117850601D01*
X60455536Y-119795144D01*
X59748429Y-119088037D01*
X61692972Y-117143494D01*
X61692972Y-117143494D01*
G37*
G36*
X57620037Y-121216429D02*
X58327144Y-121923536D01*
X56382601Y-123868079D01*
X55675494Y-123160972D01*
X57620037Y-121216429D01*
X57620037Y-121216429D01*
G37*
G36*
X49279536Y-119795144D02*
X48572429Y-119088037D01*
X50516972Y-117143494D01*
X51224079Y-117850601D01*
X49279536Y-119795144D01*
X49279536Y-119795144D01*
G37*
G36*
X45206601Y-123868079D02*
X44499494Y-123160972D01*
X46444037Y-121216429D01*
X47151144Y-121923536D01*
X45206601Y-123868079D01*
X45206601Y-123868079D01*
G37*
G36*
X48035028Y-126696506D02*
X47327921Y-125989399D01*
X49272464Y-124044856D01*
X49979571Y-124751963D01*
X48035028Y-126696506D01*
X48035028Y-126696506D01*
G37*
G36*
X52107963Y-122623571D02*
X51400856Y-121916464D01*
X53345399Y-119971921D01*
X54052506Y-120679028D01*
X52107963Y-122623571D01*
X52107963Y-122623571D01*
G37*
G36*
X52739144Y-127504464D02*
X52032037Y-128211571D01*
X50087494Y-126267028D01*
X50794601Y-125559921D01*
X52739144Y-127504464D01*
X52739144Y-127504464D01*
G37*
G36*
X56812079Y-131577399D02*
X56104972Y-132284506D01*
X54160429Y-130339963D01*
X54867536Y-129632856D01*
X56812079Y-131577399D01*
X56812079Y-131577399D01*
G37*
G36*
X59640506Y-128748972D02*
X58933399Y-129456079D01*
X56988856Y-127511536D01*
X57695963Y-126804429D01*
X59640506Y-128748972D01*
X59640506Y-128748972D01*
G37*
G36*
X55567571Y-124676037D02*
X54860464Y-125383144D01*
X52915921Y-123438601D01*
X53623028Y-122731494D01*
X55567571Y-124676037D01*
X55567571Y-124676037D01*
G37*
D22*
X102403000Y-130270000D03*
X108163000Y-130270000D03*
X108163000Y-126270000D03*
X102403000Y-126270000D03*
X112055000Y-130270000D03*
X117815000Y-130270000D03*
X117815000Y-126270000D03*
X112055000Y-126270000D03*
D23*
X116398000Y-110066000D03*
X117348000Y-110066000D03*
X118298000Y-110066000D03*
X118298000Y-107866000D03*
X116398000Y-107866000D03*
X117348000Y-107866000D03*
D12*
X116820000Y-112776000D03*
X114320000Y-112776000D03*
D24*
X124206000Y-110470000D03*
X124206000Y-107970000D03*
D25*
X113284000Y-109591000D03*
X113284000Y-108341000D03*
D13*
X115998000Y-104648000D03*
X118698000Y-104648000D03*
D17*
X120904000Y-110316000D03*
X120904000Y-107616000D03*
M02*
