G04 #@! TF.FileFunction,Copper,L1,Top,Signal*
%FSLAX46Y46*%
G04 Gerber Fmt 4.6, Leading zero omitted, Abs format (unit mm)*
G04 Created by KiCad (PCBNEW 4.0.4-stable) date 05/15/17 11:58:30*
%MOMM*%
%LPD*%
G01*
G04 APERTURE LIST*
%ADD10C,0.100000*%
%ADD11C,1.500000*%
%ADD12R,0.800000X0.800000*%
%ADD13R,1.500000X1.250000*%
%ADD14R,1.500000X1.300000*%
%ADD15C,1.700000*%
%ADD16C,5.700000*%
%ADD17R,2.500000X1.100000*%
%ADD18O,2.500000X1.100000*%
%ADD19O,1.100000X2.400000*%
%ADD20R,1.300000X1.500000*%
%ADD21R,0.200000X0.800000*%
%ADD22R,0.800000X0.200000*%
%ADD23R,1.200000X1.200000*%
%ADD24R,0.600000X0.450000*%
%ADD25R,2.750000X1.000000*%
%ADD26R,0.650000X1.060000*%
%ADD27R,1.250000X1.500000*%
%ADD28R,1.800000X0.600000*%
%ADD29C,0.600000*%
%ADD30C,0.250000*%
%ADD31C,0.170000*%
%ADD32C,0.200000*%
%ADD33C,0.500000*%
%ADD34C,0.254000*%
G04 APERTURE END LIST*
D10*
G36*
X57398978Y-115925414D02*
X58106085Y-115218307D01*
X60050628Y-117162850D01*
X59343521Y-117869957D01*
X57398978Y-115925414D01*
X57398978Y-115925414D01*
G37*
G36*
X53207249Y-111733685D02*
X53914356Y-111026578D01*
X55858899Y-112971121D01*
X55151792Y-113678228D01*
X53207249Y-111733685D01*
X53207249Y-111733685D01*
G37*
G36*
X49558578Y-115382356D02*
X50265685Y-114675249D01*
X52210228Y-116619792D01*
X51503121Y-117326899D01*
X49558578Y-115382356D01*
X49558578Y-115382356D01*
G37*
G36*
X53750307Y-119574085D02*
X54457414Y-118866978D01*
X56401957Y-120811521D01*
X55694850Y-121518628D01*
X53750307Y-119574085D01*
X53750307Y-119574085D01*
G37*
D11*
X118738000Y-46060000D03*
X133738000Y-46060000D03*
X133738000Y-99060000D03*
X118738000Y-99060000D03*
X32886000Y-46060000D03*
X47886000Y-46060000D03*
X47886000Y-99060000D03*
X32886000Y-99060000D03*
D12*
X96378000Y-38071000D03*
X96378000Y-36471000D03*
X96378000Y-42516000D03*
X96378000Y-40916000D03*
X96378000Y-46961000D03*
X96378000Y-45361000D03*
X96378000Y-51406000D03*
X96378000Y-49806000D03*
X96378000Y-55851000D03*
X96378000Y-54251000D03*
X96378000Y-60296000D03*
X96378000Y-58696000D03*
X96378000Y-64741000D03*
X96378000Y-63141000D03*
X96378000Y-69186000D03*
X96378000Y-67586000D03*
X96378000Y-73631000D03*
X96378000Y-72031000D03*
X96378000Y-78076000D03*
X96378000Y-76476000D03*
X96378000Y-82521000D03*
X96378000Y-80921000D03*
X96378000Y-86966000D03*
X96378000Y-85366000D03*
X96378000Y-91411000D03*
X96378000Y-89811000D03*
X96378000Y-95856000D03*
X96378000Y-94256000D03*
X96378000Y-100301000D03*
X96378000Y-98701000D03*
X96378000Y-104746000D03*
X96378000Y-103146000D03*
D13*
X92158500Y-106870500D03*
X94658500Y-106870500D03*
D12*
X93203000Y-38071000D03*
X93203000Y-36471000D03*
X93203000Y-42516000D03*
X93203000Y-40916000D03*
X93203000Y-46961000D03*
X93203000Y-45361000D03*
X93203000Y-51406000D03*
X93203000Y-49806000D03*
X93203000Y-55851000D03*
X93203000Y-54251000D03*
X93203000Y-60296000D03*
X93203000Y-58696000D03*
X93203000Y-64741000D03*
X93203000Y-63141000D03*
X93203000Y-69186000D03*
X93203000Y-67586000D03*
X93203000Y-73631000D03*
X93203000Y-72031000D03*
X93203000Y-78076000D03*
X93203000Y-76476000D03*
X93203000Y-82521000D03*
X93203000Y-80921000D03*
X93203000Y-86966000D03*
X93203000Y-85366000D03*
X93203000Y-91411000D03*
X93203000Y-89811000D03*
X93203000Y-95856000D03*
X93203000Y-94256000D03*
X93203000Y-100301000D03*
X93203000Y-98701000D03*
X93203000Y-104746000D03*
X93203000Y-103146000D03*
D13*
X85006500Y-106870500D03*
X82506500Y-106870500D03*
D12*
X90028000Y-38071000D03*
X90028000Y-36471000D03*
X90028000Y-42516000D03*
X90028000Y-40916000D03*
X90028000Y-46961000D03*
X90028000Y-45361000D03*
X90028000Y-51406000D03*
X90028000Y-49806000D03*
X90028000Y-55851000D03*
X90028000Y-54251000D03*
X90028000Y-60296000D03*
X90028000Y-58696000D03*
X90028000Y-64741000D03*
X90028000Y-63141000D03*
X90028000Y-69186000D03*
X90028000Y-67586000D03*
X90028000Y-73631000D03*
X90028000Y-72031000D03*
X90028000Y-78076000D03*
X90028000Y-76476000D03*
X90028000Y-82521000D03*
X90028000Y-80921000D03*
X90028000Y-86966000D03*
X90028000Y-85366000D03*
X90028000Y-91411000D03*
X90028000Y-89811000D03*
X90028000Y-95856000D03*
X90028000Y-94256000D03*
X90028000Y-100301000D03*
X90028000Y-98701000D03*
X90028000Y-104746000D03*
X90028000Y-103146000D03*
X86853000Y-38071000D03*
X86853000Y-36471000D03*
X86853000Y-42516000D03*
X86853000Y-40916000D03*
X86853000Y-46961000D03*
X86853000Y-45361000D03*
X86853000Y-51406000D03*
X86853000Y-49806000D03*
X86853000Y-55851000D03*
X86853000Y-54251000D03*
X86853000Y-60296000D03*
X86853000Y-58696000D03*
X86853000Y-64741000D03*
X86853000Y-63141000D03*
X86853000Y-69186000D03*
X86853000Y-67586000D03*
X86853000Y-73631000D03*
X86853000Y-72031000D03*
X86853000Y-78076000D03*
X86853000Y-76476000D03*
X86853000Y-82521000D03*
X86853000Y-80921000D03*
X86853000Y-86966000D03*
X86853000Y-85366000D03*
X86853000Y-91411000D03*
X86853000Y-89811000D03*
X86853000Y-95856000D03*
X86853000Y-94256000D03*
X86853000Y-100301000D03*
X86853000Y-98701000D03*
X86853000Y-104746000D03*
X86853000Y-103146000D03*
X83678000Y-38071000D03*
X83678000Y-36471000D03*
X83678000Y-42516000D03*
X83678000Y-40916000D03*
X83678000Y-46961000D03*
X83678000Y-45361000D03*
X83678000Y-51406000D03*
X83678000Y-49806000D03*
X83678000Y-55851000D03*
X83678000Y-54251000D03*
X83678000Y-60296000D03*
X83678000Y-58696000D03*
X83678000Y-64741000D03*
X83678000Y-63141000D03*
X83678000Y-69186000D03*
X83678000Y-67586000D03*
X83678000Y-73631000D03*
X83678000Y-72031000D03*
X83678000Y-78076000D03*
X83678000Y-76476000D03*
X83678000Y-82521000D03*
X83678000Y-80921000D03*
X83678000Y-86966000D03*
X83678000Y-85366000D03*
X83678000Y-91411000D03*
X83678000Y-89811000D03*
X83678000Y-95856000D03*
X83678000Y-94256000D03*
X83678000Y-100301000D03*
X83678000Y-98701000D03*
X83678000Y-104746000D03*
X83678000Y-103146000D03*
X80503000Y-38071000D03*
X80503000Y-36471000D03*
X80503000Y-42516000D03*
X80503000Y-40916000D03*
X80503000Y-46961000D03*
X80503000Y-45361000D03*
X80503000Y-51406000D03*
X80503000Y-49806000D03*
X80503000Y-55851000D03*
X80503000Y-54251000D03*
X80503000Y-60296000D03*
X80503000Y-58696000D03*
X80503000Y-64741000D03*
X80503000Y-63141000D03*
X80503000Y-69186000D03*
X80503000Y-67586000D03*
X80503000Y-73631000D03*
X80503000Y-72031000D03*
X80503000Y-78076000D03*
X80503000Y-76476000D03*
X80503000Y-82521000D03*
X80503000Y-80921000D03*
X80503000Y-86966000D03*
X80503000Y-85366000D03*
X80503000Y-91411000D03*
X80503000Y-89811000D03*
X80503000Y-95856000D03*
X80503000Y-94256000D03*
X80503000Y-100301000D03*
X80503000Y-98701000D03*
X80503000Y-104746000D03*
X80503000Y-103146000D03*
X77328000Y-38071000D03*
X77328000Y-36471000D03*
X77328000Y-42516000D03*
X77328000Y-40916000D03*
X77328000Y-46961000D03*
X77328000Y-45361000D03*
X77328000Y-51406000D03*
X77328000Y-49806000D03*
X77328000Y-55851000D03*
X77328000Y-54251000D03*
X77328000Y-60296000D03*
X77328000Y-58696000D03*
X77328000Y-64741000D03*
X77328000Y-63141000D03*
X77328000Y-69186000D03*
X77328000Y-67586000D03*
X77328000Y-73631000D03*
X77328000Y-72031000D03*
X77328000Y-78076000D03*
X77328000Y-76476000D03*
X77328000Y-82521000D03*
X77328000Y-80921000D03*
X77328000Y-86966000D03*
X77328000Y-85366000D03*
X77328000Y-91411000D03*
X77328000Y-89811000D03*
X77328000Y-95856000D03*
X77328000Y-94256000D03*
X77328000Y-100301000D03*
X77328000Y-98701000D03*
X77328000Y-104746000D03*
X77328000Y-103146000D03*
X74153000Y-38071000D03*
X74153000Y-36471000D03*
X74153000Y-42516000D03*
X74153000Y-40916000D03*
X74153000Y-46961000D03*
X74153000Y-45361000D03*
X74153000Y-51406000D03*
X74153000Y-49806000D03*
X74153000Y-55851000D03*
X74153000Y-54251000D03*
X74153000Y-60296000D03*
X74153000Y-58696000D03*
X74153000Y-64741000D03*
X74153000Y-63141000D03*
X74153000Y-69186000D03*
X74153000Y-67586000D03*
X74153000Y-73631000D03*
X74153000Y-72031000D03*
X74153000Y-78076000D03*
X74153000Y-76476000D03*
X74153000Y-82521000D03*
X74153000Y-80921000D03*
X74153000Y-86966000D03*
X74153000Y-85366000D03*
X74153000Y-91411000D03*
X74153000Y-89811000D03*
X74153000Y-95856000D03*
X74153000Y-94256000D03*
X74153000Y-100301000D03*
X74153000Y-98701000D03*
X74153000Y-104746000D03*
X74153000Y-103146000D03*
X70978000Y-38071000D03*
X70978000Y-36471000D03*
X70978000Y-42516000D03*
X70978000Y-40916000D03*
X70978000Y-46961000D03*
X70978000Y-45361000D03*
X70978000Y-51406000D03*
X70978000Y-49806000D03*
X70978000Y-55851000D03*
X70978000Y-54251000D03*
X70978000Y-60296000D03*
X70978000Y-58696000D03*
X70978000Y-64741000D03*
X70978000Y-63141000D03*
X70978000Y-69186000D03*
X70978000Y-67586000D03*
X70978000Y-73631000D03*
X70978000Y-72031000D03*
X70978000Y-78076000D03*
X70978000Y-76476000D03*
X70978000Y-82521000D03*
X70978000Y-80921000D03*
X70978000Y-86966000D03*
X70978000Y-85366000D03*
X70978000Y-91411000D03*
X70978000Y-89811000D03*
X70978000Y-95856000D03*
X70978000Y-94256000D03*
X70978000Y-100301000D03*
X70978000Y-98701000D03*
X70978000Y-104746000D03*
X70978000Y-103146000D03*
D14*
X72754500Y-106870500D03*
X75454500Y-106870500D03*
D10*
G36*
X61150000Y-145902082D02*
X59947918Y-144700000D01*
X61150000Y-143497918D01*
X62352082Y-144700000D01*
X61150000Y-145902082D01*
X61150000Y-145902082D01*
G37*
D15*
X62946051Y-146496051D02*
X62946051Y-146496051D01*
X64742102Y-148292102D02*
X64742102Y-148292102D01*
X66538154Y-150088154D02*
X66538154Y-150088154D01*
X68334205Y-151884205D02*
X68334205Y-151884205D01*
X70130256Y-153680256D02*
X70130256Y-153680256D01*
D16*
X83150000Y-29900000D03*
D17*
X90870000Y-146685000D03*
D18*
X90870000Y-144685000D03*
X90870000Y-142685000D03*
X90870000Y-140685000D03*
X90870000Y-138685000D03*
X90870000Y-136685000D03*
X90870000Y-134685000D03*
X90870000Y-132685000D03*
X75470000Y-132685000D03*
X75570000Y-134685000D03*
X75470000Y-136685000D03*
X75470000Y-138685000D03*
X75470000Y-140685000D03*
X75470000Y-142685000D03*
X75470000Y-144685000D03*
X75470000Y-146685000D03*
D19*
X88180000Y-130935000D03*
X86180000Y-130935000D03*
X84180000Y-130935000D03*
X82180000Y-130935000D03*
X80180000Y-130935000D03*
X78180000Y-130935000D03*
D13*
X61996000Y-135890000D03*
X64496000Y-135890000D03*
D14*
X62658000Y-141478000D03*
X65358000Y-141478000D03*
D20*
X60198000Y-141304000D03*
X60198000Y-138604000D03*
D21*
X82556500Y-114789500D03*
X82956500Y-114789500D03*
X83356500Y-114789500D03*
X83756500Y-114789500D03*
X84156500Y-114789500D03*
X84556500Y-114789500D03*
X84956500Y-114789500D03*
D22*
X85706500Y-114039500D03*
X85706500Y-113639500D03*
X85706500Y-113239500D03*
X85706500Y-112839500D03*
X85706500Y-112439500D03*
X85706500Y-112039500D03*
X85706500Y-111639500D03*
D21*
X84956500Y-110889500D03*
X84556500Y-110889500D03*
X84156500Y-110889500D03*
X83756500Y-110889500D03*
X83356500Y-110889500D03*
X82956500Y-110889500D03*
X82556500Y-110889500D03*
D22*
X81806500Y-111639500D03*
X81806500Y-112039500D03*
X81806500Y-112439500D03*
X81806500Y-112839500D03*
X81806500Y-113239500D03*
X81806500Y-113639500D03*
X81806500Y-114039500D03*
D23*
X84356500Y-112239500D03*
X83156500Y-112239500D03*
X84356500Y-113439500D03*
X83156500Y-113439500D03*
D24*
X64862000Y-137984000D03*
X63662000Y-137984000D03*
X63662000Y-139384000D03*
X64862000Y-139384000D03*
D10*
G36*
X66460543Y-118881305D02*
X65541305Y-119800543D01*
X64480645Y-118739883D01*
X65399883Y-117820645D01*
X66460543Y-118881305D01*
X66460543Y-118881305D01*
G37*
G36*
X64551355Y-116972117D02*
X63632117Y-117891355D01*
X62571457Y-116830695D01*
X63490695Y-115911457D01*
X64551355Y-116972117D01*
X64551355Y-116972117D01*
G37*
G36*
X43932695Y-119800543D02*
X43013457Y-118881305D01*
X44074117Y-117820645D01*
X44993355Y-118739883D01*
X43932695Y-119800543D01*
X43932695Y-119800543D01*
G37*
G36*
X45841883Y-117891355D02*
X44922645Y-116972117D01*
X45983305Y-115911457D01*
X46902543Y-116830695D01*
X45841883Y-117891355D01*
X45841883Y-117891355D01*
G37*
G36*
X49617457Y-129530695D02*
X50536695Y-128611457D01*
X51597355Y-129672117D01*
X50678117Y-130591355D01*
X49617457Y-129530695D01*
X49617457Y-129530695D01*
G37*
G36*
X51526645Y-131439883D02*
X52445883Y-130520645D01*
X53506543Y-131581305D01*
X52587305Y-132500543D01*
X51526645Y-131439883D01*
X51526645Y-131439883D01*
G37*
D25*
X93640000Y-119602000D03*
X99400000Y-119602000D03*
X99400000Y-115602000D03*
X93640000Y-115602000D03*
D10*
G36*
X60448464Y-124044856D02*
X61155571Y-124751963D01*
X59211028Y-126696506D01*
X58503921Y-125989399D01*
X60448464Y-124044856D01*
X60448464Y-124044856D01*
G37*
G36*
X64521399Y-119971921D02*
X65228506Y-120679028D01*
X63283963Y-122623571D01*
X62576856Y-121916464D01*
X64521399Y-119971921D01*
X64521399Y-119971921D01*
G37*
G36*
X61692972Y-117143494D02*
X62400079Y-117850601D01*
X60455536Y-119795144D01*
X59748429Y-119088037D01*
X61692972Y-117143494D01*
X61692972Y-117143494D01*
G37*
G36*
X57620037Y-121216429D02*
X58327144Y-121923536D01*
X56382601Y-123868079D01*
X55675494Y-123160972D01*
X57620037Y-121216429D01*
X57620037Y-121216429D01*
G37*
G36*
X49279536Y-119795144D02*
X48572429Y-119088037D01*
X50516972Y-117143494D01*
X51224079Y-117850601D01*
X49279536Y-119795144D01*
X49279536Y-119795144D01*
G37*
G36*
X45206601Y-123868079D02*
X44499494Y-123160972D01*
X46444037Y-121216429D01*
X47151144Y-121923536D01*
X45206601Y-123868079D01*
X45206601Y-123868079D01*
G37*
G36*
X48035028Y-126696506D02*
X47327921Y-125989399D01*
X49272464Y-124044856D01*
X49979571Y-124751963D01*
X48035028Y-126696506D01*
X48035028Y-126696506D01*
G37*
G36*
X52107963Y-122623571D02*
X51400856Y-121916464D01*
X53345399Y-119971921D01*
X54052506Y-120679028D01*
X52107963Y-122623571D01*
X52107963Y-122623571D01*
G37*
G36*
X52739144Y-127504464D02*
X52032037Y-128211571D01*
X50087494Y-126267028D01*
X50794601Y-125559921D01*
X52739144Y-127504464D01*
X52739144Y-127504464D01*
G37*
G36*
X56812079Y-131577399D02*
X56104972Y-132284506D01*
X54160429Y-130339963D01*
X54867536Y-129632856D01*
X56812079Y-131577399D01*
X56812079Y-131577399D01*
G37*
G36*
X59640506Y-128748972D02*
X58933399Y-129456079D01*
X56988856Y-127511536D01*
X57695963Y-126804429D01*
X59640506Y-128748972D01*
X59640506Y-128748972D01*
G37*
G36*
X55567571Y-124676037D02*
X54860464Y-125383144D01*
X52915921Y-123438601D01*
X53623028Y-122731494D01*
X55567571Y-124676037D01*
X55567571Y-124676037D01*
G37*
D25*
X102403000Y-130270000D03*
X108163000Y-130270000D03*
X108163000Y-126270000D03*
X102403000Y-126270000D03*
X112055000Y-130270000D03*
X117815000Y-130270000D03*
X117815000Y-126270000D03*
X112055000Y-126270000D03*
D26*
X116398000Y-110066000D03*
X117348000Y-110066000D03*
X118298000Y-110066000D03*
X118298000Y-107866000D03*
X116398000Y-107866000D03*
X117348000Y-107866000D03*
D13*
X116820000Y-112776000D03*
X114320000Y-112776000D03*
D27*
X124206000Y-110470000D03*
X124206000Y-107970000D03*
D28*
X113284000Y-109591000D03*
X113284000Y-108341000D03*
D14*
X115998000Y-104648000D03*
X118698000Y-104648000D03*
D20*
X120904000Y-110316000D03*
X120904000Y-107616000D03*
D29*
X52550000Y-114100000D03*
X68550000Y-118700000D03*
X73150000Y-132700000D03*
X59950000Y-135900000D03*
X121550000Y-126300000D03*
X84750000Y-116700000D03*
X77266800Y-106883200D03*
X119150000Y-111500000D03*
X109950000Y-132300000D03*
X93350000Y-140700000D03*
X104950000Y-132300000D03*
X93350000Y-138700000D03*
X89350000Y-107100000D03*
X98150000Y-112100000D03*
X66550000Y-132700000D03*
X66550000Y-136500000D03*
X70548500Y-43878500D03*
X68770500Y-43878500D03*
X94424500Y-41338500D03*
X94424500Y-45783500D03*
X94424500Y-50228500D03*
X94424500Y-54673500D03*
X94424500Y-59118500D03*
X94424500Y-63563500D03*
X94424500Y-68008500D03*
X94424500Y-36893500D03*
X97599500Y-41338500D03*
X97599500Y-45783500D03*
X97599500Y-50228500D03*
X97599500Y-54673500D03*
X97599500Y-59118500D03*
X97599500Y-63563500D03*
X97599500Y-68008500D03*
X97599500Y-36893500D03*
X68008500Y-48450500D03*
X70548500Y-48450500D03*
X91249500Y-41338500D03*
X91249500Y-45783500D03*
X91249500Y-50228500D03*
X91249500Y-54673500D03*
X91249500Y-59118500D03*
X91249500Y-63563500D03*
X91249500Y-68008500D03*
X91249500Y-36893500D03*
X70548500Y-52768500D03*
X67500500Y-52768500D03*
X88074500Y-41338500D03*
X88074500Y-45783500D03*
X88074500Y-50228500D03*
X88074500Y-54673500D03*
X88074500Y-59118500D03*
X88074500Y-63563500D03*
X88074500Y-68008500D03*
X88074500Y-36893500D03*
X70548500Y-57340500D03*
X66738500Y-57340500D03*
X84899500Y-41338500D03*
X84899500Y-45783500D03*
X84899500Y-50228500D03*
X84899500Y-54673500D03*
X84899500Y-59118500D03*
X84899500Y-63563500D03*
X84899500Y-68008500D03*
X84899500Y-36893500D03*
X70548500Y-61658500D03*
X65976500Y-61658500D03*
X81724500Y-41338500D03*
X81724500Y-45783500D03*
X81724500Y-50228500D03*
X81724500Y-54673500D03*
X81724500Y-59118500D03*
X81724500Y-63563500D03*
X81724500Y-68008500D03*
X81724500Y-36893500D03*
X70548500Y-66230500D03*
X65214500Y-66484500D03*
X78549500Y-41338500D03*
X78549500Y-45783500D03*
X78549500Y-50228500D03*
X78549500Y-54673500D03*
X78549500Y-59118500D03*
X78549500Y-63563500D03*
X78549500Y-68008500D03*
X78549500Y-36893500D03*
X70294500Y-70294500D03*
X64452500Y-70294500D03*
X75374500Y-41338500D03*
X75374500Y-45783500D03*
X75374500Y-50228500D03*
X75374500Y-54673500D03*
X75374500Y-59118500D03*
X75374500Y-63563500D03*
X75374500Y-68008500D03*
X75374500Y-36893500D03*
X63690500Y-71310500D03*
X72326500Y-70040500D03*
X72199500Y-41338500D03*
X72199500Y-45783500D03*
X72199500Y-50228500D03*
X72199500Y-54673500D03*
X72199500Y-59118500D03*
X72199500Y-63563500D03*
X72199500Y-68008500D03*
X72199500Y-36893500D03*
X94424500Y-76263500D03*
X94424500Y-80708500D03*
X94424500Y-85153500D03*
X94424500Y-89598500D03*
X94424500Y-94043500D03*
X94424500Y-98488500D03*
X94424500Y-72453500D03*
X94424500Y-103568500D03*
X97599500Y-76263500D03*
X97599500Y-80708500D03*
X97599500Y-85153500D03*
X97599500Y-89598500D03*
X97599500Y-94043500D03*
X97599500Y-98488500D03*
X97599500Y-103568500D03*
X97599500Y-72453500D03*
X91249500Y-76263500D03*
X91249500Y-80708500D03*
X91249500Y-85153500D03*
X91249500Y-89598500D03*
X91249500Y-94043500D03*
X91249500Y-98488500D03*
X91249500Y-72453500D03*
X91249500Y-103568500D03*
X88074500Y-76263500D03*
X88074500Y-80708500D03*
X88074500Y-85153500D03*
X88074500Y-89598500D03*
X88074500Y-94043500D03*
X88074500Y-98488500D03*
X88074500Y-72453500D03*
X88074500Y-103568500D03*
X84899500Y-76263500D03*
X84899500Y-80708500D03*
X84899500Y-85153500D03*
X84899500Y-89598500D03*
X84899500Y-94043500D03*
X84899500Y-98488500D03*
X84899500Y-72453500D03*
X84899500Y-103568500D03*
X81724500Y-76263500D03*
X81724500Y-80708500D03*
X81724500Y-85153500D03*
X81724500Y-89598500D03*
X81724500Y-94043500D03*
X81724500Y-98488500D03*
X81724500Y-72453500D03*
X81724500Y-103568500D03*
X78549500Y-76263500D03*
X78549500Y-80708500D03*
X78549500Y-85153500D03*
X78549500Y-89598500D03*
X78549500Y-94043500D03*
X78549500Y-98488500D03*
X78549500Y-72453500D03*
X78549500Y-103568500D03*
X75374500Y-76263500D03*
X75374500Y-80708500D03*
X75374500Y-85153500D03*
X75374500Y-89598500D03*
X75374500Y-94043500D03*
X75374500Y-98488500D03*
X75374500Y-103568500D03*
X75374500Y-72453500D03*
X72326500Y-105346500D03*
X72199500Y-76263500D03*
X72199500Y-80708500D03*
X72199500Y-85153500D03*
X72199500Y-89598500D03*
X72199500Y-94043500D03*
X72199500Y-98488500D03*
X72199500Y-103568500D03*
X72199500Y-72453500D03*
X81026000Y-109220000D03*
X79248000Y-142494000D03*
X80264000Y-140462000D03*
X82296000Y-108966000D03*
X80600000Y-107900000D03*
X85915500Y-115633500D03*
X59150000Y-121300000D03*
X71950000Y-134100000D03*
X100150000Y-121500000D03*
X93350000Y-136700000D03*
X56350000Y-114100000D03*
X73150000Y-130700000D03*
X84150000Y-128700000D03*
X83950000Y-117300000D03*
X82150000Y-128700000D03*
X82150000Y-116900000D03*
D30*
X50884403Y-116001074D02*
X50884403Y-115765597D01*
X50884403Y-115765597D02*
X52550000Y-114100000D01*
X52726681Y-121297746D02*
X52547746Y-121297746D01*
X65470594Y-118810594D02*
X68439406Y-118810594D01*
X68439406Y-118810594D02*
X68550000Y-118700000D01*
D31*
X76170000Y-132685000D02*
X73365000Y-132685000D01*
X73350000Y-132700000D02*
X73150000Y-132700000D01*
X73365000Y-132685000D02*
X73350000Y-132700000D01*
D30*
X93640000Y-115602000D02*
X99400000Y-115602000D01*
D32*
X108163000Y-126270000D02*
X112055000Y-126270000D01*
D31*
X61996000Y-135890000D02*
X59960000Y-135890000D01*
X59960000Y-135890000D02*
X59950000Y-135900000D01*
X63662000Y-137984000D02*
X62834000Y-137984000D01*
X61996000Y-137146000D02*
X61996000Y-135890000D01*
X62834000Y-137984000D02*
X61996000Y-137146000D01*
X117815000Y-126270000D02*
X121520000Y-126270000D01*
X121520000Y-126270000D02*
X121550000Y-126300000D01*
X93640000Y-115602000D02*
X87648000Y-115602000D01*
X86550000Y-116700000D02*
X84750000Y-116700000D01*
X87648000Y-115602000D02*
X86550000Y-116700000D01*
X84750000Y-116700000D02*
X84950000Y-116700000D01*
D30*
X75454500Y-106870500D02*
X77304900Y-106870500D01*
X77292200Y-106883200D02*
X77266800Y-106883200D01*
X77304900Y-106870500D02*
X77292200Y-106883200D01*
D31*
X83756500Y-110889500D02*
X83756500Y-108120500D01*
X83756500Y-108120500D02*
X82506500Y-106870500D01*
D30*
X112055000Y-126270000D02*
X117815000Y-126270000D01*
X102403000Y-126270000D02*
X108163000Y-126270000D01*
D33*
X58314681Y-128130254D02*
X55884427Y-125700000D01*
X55884427Y-125700000D02*
X54241746Y-124057319D01*
X51413319Y-115709746D02*
X55486254Y-119782681D01*
X48653746Y-125370681D02*
X52726681Y-121297746D01*
X52726681Y-121297746D02*
X52726681Y-122542254D01*
X52726681Y-122542254D02*
X54241746Y-124057319D01*
X55486254Y-119782681D02*
X54241746Y-119782681D01*
X54241746Y-119782681D02*
X52726681Y-121297746D01*
X82506500Y-106870500D02*
X82506500Y-105727500D01*
X82506500Y-105727500D02*
X82613500Y-105727500D01*
X90487500Y-105727500D02*
X82613500Y-105727500D01*
X82613500Y-105727500D02*
X76597500Y-105727500D01*
X94043500Y-105727500D02*
X90487500Y-105727500D01*
X94658500Y-106342500D02*
X94043500Y-105727500D01*
X76597500Y-105727500D02*
X75454500Y-106870500D01*
X94658500Y-106870500D02*
X94658500Y-106342500D01*
D31*
X83156500Y-113439500D02*
X83156500Y-112239500D01*
X84356500Y-113439500D02*
X83156500Y-113439500D01*
X84156500Y-114789500D02*
X84156500Y-113639500D01*
X84156500Y-113639500D02*
X84356500Y-113439500D01*
X83756500Y-110889500D02*
X83756500Y-111639500D01*
X83756500Y-111639500D02*
X84356500Y-112239500D01*
X117348000Y-110066000D02*
X117348000Y-111498000D01*
X117350000Y-111500000D02*
X119150000Y-111500000D01*
X117348000Y-111498000D02*
X117350000Y-111500000D01*
D32*
X116820000Y-112776000D02*
X120396000Y-112776000D01*
X120904000Y-112268000D02*
X120904000Y-110316000D01*
X120396000Y-112776000D02*
X120904000Y-112268000D01*
X123952000Y-110216000D02*
X121004000Y-110216000D01*
X121004000Y-110216000D02*
X120904000Y-110316000D01*
X117348000Y-110066000D02*
X117348000Y-112248000D01*
X117348000Y-112248000D02*
X116820000Y-112776000D01*
X117348000Y-112248000D02*
X116820000Y-112776000D01*
D30*
X90170000Y-140685000D02*
X93335000Y-140685000D01*
X109950000Y-132300000D02*
X111980000Y-130270000D01*
X93335000Y-140685000D02*
X93350000Y-140700000D01*
X111980000Y-130270000D02*
X112055000Y-130270000D01*
X112055000Y-130270000D02*
X117815000Y-130270000D01*
X90170000Y-138685000D02*
X93335000Y-138685000D01*
X104950000Y-132300000D02*
X106980000Y-130270000D01*
X93335000Y-138685000D02*
X93350000Y-138700000D01*
X106980000Y-130270000D02*
X108163000Y-130270000D01*
X102403000Y-130270000D02*
X108163000Y-130270000D01*
D31*
X98150000Y-112100000D02*
X98236000Y-112014000D01*
X98236000Y-112014000D02*
X98150000Y-112100000D01*
X65940000Y-135890000D02*
X66550000Y-136500000D01*
X65940000Y-135890000D02*
X64496000Y-135890000D01*
D30*
X76950000Y-113700000D02*
X79350000Y-116100000D01*
X79350000Y-116100000D02*
X80750000Y-116100000D01*
D31*
X82550000Y-116100000D02*
X80750000Y-116100000D01*
X80750000Y-116100000D02*
X79350000Y-116100000D01*
X82956500Y-114789500D02*
X82956500Y-115693500D01*
X82956500Y-115693500D02*
X82550000Y-116100000D01*
X85006500Y-106870500D02*
X89120500Y-106870500D01*
X89120500Y-106870500D02*
X89350000Y-107100000D01*
X82956500Y-115893500D02*
X82750000Y-116100000D01*
X82750000Y-116100000D02*
X82550000Y-116100000D01*
X82956500Y-114789500D02*
X82956500Y-115893500D01*
X82956500Y-115693500D02*
X82550000Y-116100000D01*
X63902681Y-121297746D02*
X63947746Y-121297746D01*
X64862000Y-137984000D02*
X64862000Y-136256000D01*
X64862000Y-136256000D02*
X64496000Y-135890000D01*
X92158500Y-106870500D02*
X89579500Y-106870500D01*
X89579500Y-106870500D02*
X89350000Y-107100000D01*
X62484000Y-141304000D02*
X62658000Y-141478000D01*
X84556500Y-107320500D02*
X85006500Y-106870500D01*
D33*
X63902681Y-121297746D02*
X59829746Y-125370681D01*
D32*
X115998000Y-104648000D02*
X115998000Y-103458000D01*
X122408000Y-106172000D02*
X123952000Y-107716000D01*
X121412000Y-106172000D02*
X122408000Y-106172000D01*
X120650000Y-105410000D02*
X121412000Y-106172000D01*
X120650000Y-103886000D02*
X120650000Y-105410000D01*
X120142000Y-103378000D02*
X120650000Y-103886000D01*
X116078000Y-103378000D02*
X120142000Y-103378000D01*
X115998000Y-103458000D02*
X116078000Y-103378000D01*
X115998000Y-104648000D02*
X115998000Y-105330000D01*
X117348000Y-106680000D02*
X117348000Y-107866000D01*
X115998000Y-105330000D02*
X117348000Y-106680000D01*
D31*
X70978000Y-43449000D02*
X70548500Y-43878500D01*
X70978000Y-42516000D02*
X70978000Y-43449000D01*
X68897500Y-44005500D02*
X68770500Y-43878500D01*
X71813001Y-109786001D02*
X79189999Y-109786001D01*
X71813001Y-109786001D02*
X68897500Y-106870500D01*
X68897500Y-106870500D02*
X68897500Y-44005500D01*
X81806500Y-111639500D02*
X81043498Y-111639500D01*
X81043498Y-111639500D02*
X79189999Y-109786001D01*
X79189999Y-109786001D02*
X79184500Y-109780502D01*
D30*
X93203000Y-40916000D02*
X92942000Y-40916000D01*
X92942000Y-40916000D02*
X91342000Y-42516000D01*
X91342000Y-42516000D02*
X90028000Y-42516000D01*
X96378000Y-38071000D02*
X96378000Y-39385000D01*
X96378000Y-39385000D02*
X94424500Y-41338500D01*
X93203000Y-40916000D02*
X94002000Y-40916000D01*
X94002000Y-40916000D02*
X94424500Y-41338500D01*
X93203000Y-45361000D02*
X94002000Y-45361000D01*
X94002000Y-45361000D02*
X94424500Y-45783500D01*
X93203000Y-49806000D02*
X94002000Y-49806000D01*
X94002000Y-49806000D02*
X94424500Y-50228500D01*
X93203000Y-54251000D02*
X94002000Y-54251000D01*
X94002000Y-54251000D02*
X94424500Y-54673500D01*
X93203000Y-58696000D02*
X94002000Y-58696000D01*
X94002000Y-58696000D02*
X94424500Y-59118500D01*
X93203000Y-63141000D02*
X94002000Y-63141000D01*
X94002000Y-63141000D02*
X94424500Y-63563500D01*
X93203000Y-36471000D02*
X94002000Y-36471000D01*
X94002000Y-67586000D02*
X93203000Y-67586000D01*
X94424500Y-68008500D02*
X94002000Y-67586000D01*
X94002000Y-36471000D02*
X94424500Y-36893500D01*
X96378000Y-38071000D02*
X96048000Y-38071000D01*
X74153000Y-42516000D02*
X70978000Y-42516000D01*
X77328000Y-42516000D02*
X74153000Y-42516000D01*
X77328000Y-42516000D02*
X80503000Y-42516000D01*
X83678000Y-42516000D02*
X80503000Y-42516000D01*
X86853000Y-42516000D02*
X83678000Y-42516000D01*
X90028000Y-42516000D02*
X86853000Y-42516000D01*
D31*
X79692500Y-109410500D02*
X81216500Y-110934500D01*
X81216500Y-110934500D02*
X82511500Y-110934500D01*
X82511500Y-110934500D02*
X82556500Y-110889500D01*
X70978000Y-38071000D02*
X70768000Y-38071000D01*
X70768000Y-38071000D02*
X69532500Y-39306500D01*
X72072500Y-109410500D02*
X79692500Y-109410500D01*
X69532500Y-106870500D02*
X72072500Y-109410500D01*
X69532500Y-39306500D02*
X69532500Y-106870500D01*
D30*
X96378000Y-36471000D02*
X96117000Y-36471000D01*
X96117000Y-36471000D02*
X94517000Y-38071000D01*
X94517000Y-38071000D02*
X93203000Y-38071000D01*
X96378000Y-40916000D02*
X97177000Y-40916000D01*
X97177000Y-40916000D02*
X97599500Y-41338500D01*
X96378000Y-45361000D02*
X97177000Y-45361000D01*
X97177000Y-45361000D02*
X97599500Y-45783500D01*
X96378000Y-49806000D02*
X97177000Y-49806000D01*
X97177000Y-49806000D02*
X97599500Y-50228500D01*
X96378000Y-54251000D02*
X97177000Y-54251000D01*
X97177000Y-54251000D02*
X97599500Y-54673500D01*
X96378000Y-58696000D02*
X97177000Y-58696000D01*
X97177000Y-58696000D02*
X97599500Y-59118500D01*
X96378000Y-63141000D02*
X97177000Y-63141000D01*
X97177000Y-63141000D02*
X97599500Y-63563500D01*
X96378000Y-36471000D02*
X97177000Y-36471000D01*
X97177000Y-67586000D02*
X96378000Y-67586000D01*
X97599500Y-68008500D02*
X97177000Y-67586000D01*
X97177000Y-36471000D02*
X97599500Y-36893500D01*
X70978000Y-38071000D02*
X74153000Y-38071000D01*
X74153000Y-38071000D02*
X77328000Y-38071000D01*
X77328000Y-38071000D02*
X80503000Y-38071000D01*
X80503000Y-38071000D02*
X83678000Y-38071000D01*
X86853000Y-38071000D02*
X83678000Y-38071000D01*
X90028000Y-38071000D02*
X86853000Y-38071000D01*
X93203000Y-38071000D02*
X90028000Y-38071000D01*
D31*
X68262500Y-50736500D02*
X68262500Y-106870500D01*
X71564500Y-110172500D02*
X68262500Y-106870500D01*
X81806500Y-112039500D02*
X80797500Y-112039500D01*
X80797500Y-112039500D02*
X78930500Y-110172500D01*
X78930500Y-110172500D02*
X71564500Y-110172500D01*
X68008500Y-48450500D02*
X68262500Y-48704500D01*
X68262500Y-48704500D02*
X68262500Y-50736500D01*
X70978000Y-48021000D02*
X70978000Y-46961000D01*
X70978000Y-48021000D02*
X70548500Y-48450500D01*
D30*
X90028000Y-45361000D02*
X89767000Y-45361000D01*
X89767000Y-45361000D02*
X88167000Y-46961000D01*
X88167000Y-46961000D02*
X86853000Y-46961000D01*
X93203000Y-42516000D02*
X93203000Y-43830000D01*
X93203000Y-43830000D02*
X91249500Y-45783500D01*
X90028000Y-40916000D02*
X90827000Y-40916000D01*
X90827000Y-40916000D02*
X91249500Y-41338500D01*
X90028000Y-45361000D02*
X90827000Y-45361000D01*
X90827000Y-45361000D02*
X91249500Y-45783500D01*
X90028000Y-49806000D02*
X90827000Y-49806000D01*
X90827000Y-49806000D02*
X91249500Y-50228500D01*
X90028000Y-54251000D02*
X90827000Y-54251000D01*
X90827000Y-54251000D02*
X91249500Y-54673500D01*
X90028000Y-58696000D02*
X90827000Y-58696000D01*
X90827000Y-58696000D02*
X91249500Y-59118500D01*
X90028000Y-63141000D02*
X90827000Y-63141000D01*
X90827000Y-63141000D02*
X91249500Y-63563500D01*
X90028000Y-36471000D02*
X90827000Y-36471000D01*
X90827000Y-67586000D02*
X90028000Y-67586000D01*
X91249500Y-68008500D02*
X90827000Y-67586000D01*
X90827000Y-36471000D02*
X91249500Y-36893500D01*
X93203000Y-42516000D02*
X92873000Y-42516000D01*
X96378000Y-42516000D02*
X93203000Y-42516000D01*
X74153000Y-46961000D02*
X70978000Y-46961000D01*
X77328000Y-46961000D02*
X74153000Y-46961000D01*
X80503000Y-46961000D02*
X77328000Y-46961000D01*
X83678000Y-46961000D02*
X80503000Y-46961000D01*
X86853000Y-46961000D02*
X83678000Y-46961000D01*
D31*
X67500500Y-58864500D02*
X67500500Y-106870500D01*
X71172502Y-110542502D02*
X67500500Y-106870500D01*
X81806500Y-112439500D02*
X80827498Y-112439500D01*
X80592498Y-112458500D02*
X78676500Y-110542502D01*
X80808498Y-112458500D02*
X80592498Y-112458500D01*
X80827498Y-112439500D02*
X80808498Y-112458500D01*
X78676500Y-110542502D02*
X71172502Y-110542502D01*
X70978000Y-52339000D02*
X70548500Y-52768500D01*
X67500500Y-52768500D02*
X67500500Y-58864500D01*
X70978000Y-52339000D02*
X70978000Y-51406000D01*
D30*
X86853000Y-49806000D02*
X86592000Y-49806000D01*
X86592000Y-49806000D02*
X84992000Y-51406000D01*
X84992000Y-51406000D02*
X83678000Y-51406000D01*
X90028000Y-46961000D02*
X90028000Y-48275000D01*
X90028000Y-48275000D02*
X88074500Y-50228500D01*
X86853000Y-40916000D02*
X87652000Y-40916000D01*
X87652000Y-40916000D02*
X88074500Y-41338500D01*
X86853000Y-45361000D02*
X87652000Y-45361000D01*
X87652000Y-45361000D02*
X88074500Y-45783500D01*
X86853000Y-49806000D02*
X87652000Y-49806000D01*
X87652000Y-49806000D02*
X88074500Y-50228500D01*
X86853000Y-54251000D02*
X87652000Y-54251000D01*
X87652000Y-54251000D02*
X88074500Y-54673500D01*
X86853000Y-58696000D02*
X87652000Y-58696000D01*
X87652000Y-58696000D02*
X88074500Y-59118500D01*
X86853000Y-63141000D02*
X87652000Y-63141000D01*
X87652000Y-63141000D02*
X88074500Y-63563500D01*
X86853000Y-36471000D02*
X87652000Y-36471000D01*
X87652000Y-67586000D02*
X86853000Y-67586000D01*
X88074500Y-68008500D02*
X87652000Y-67586000D01*
X87652000Y-36471000D02*
X88074500Y-36893500D01*
X90028000Y-46961000D02*
X89698000Y-46961000D01*
X96378000Y-46961000D02*
X93203000Y-46961000D01*
X93203000Y-46961000D02*
X90028000Y-46961000D01*
X74153000Y-51406000D02*
X70978000Y-51406000D01*
X77328000Y-51406000D02*
X74153000Y-51406000D01*
X80503000Y-51406000D02*
X77328000Y-51406000D01*
X83678000Y-51406000D02*
X80503000Y-51406000D01*
D31*
X66738500Y-60134500D02*
X66738500Y-106870500D01*
X70780504Y-110912504D02*
X66738500Y-106870500D01*
X78422500Y-110912504D02*
X70780504Y-110912504D01*
X70978000Y-56911000D02*
X70548500Y-57340500D01*
X66738500Y-57340500D02*
X66738500Y-60134500D01*
X70978000Y-56911000D02*
X70978000Y-55851000D01*
X81806500Y-112839500D02*
X80349496Y-112839500D01*
X80349496Y-112839500D02*
X78422500Y-110912504D01*
X78422500Y-110912504D02*
X78422500Y-110912504D01*
D30*
X93203000Y-51406000D02*
X90028000Y-51406000D01*
X83678000Y-54251000D02*
X83417000Y-54251000D01*
X83417000Y-54251000D02*
X81817000Y-55851000D01*
X81817000Y-55851000D02*
X80503000Y-55851000D01*
X86853000Y-51406000D02*
X86853000Y-52720000D01*
X86853000Y-52720000D02*
X84899500Y-54673500D01*
X83678000Y-40916000D02*
X84477000Y-40916000D01*
X84477000Y-40916000D02*
X84899500Y-41338500D01*
X83678000Y-45361000D02*
X84477000Y-45361000D01*
X84477000Y-45361000D02*
X84899500Y-45783500D01*
X83678000Y-49806000D02*
X84477000Y-49806000D01*
X84477000Y-49806000D02*
X84899500Y-50228500D01*
X83678000Y-54251000D02*
X84477000Y-54251000D01*
X84477000Y-54251000D02*
X84899500Y-54673500D01*
X83678000Y-58696000D02*
X84477000Y-58696000D01*
X84477000Y-58696000D02*
X84899500Y-59118500D01*
X83678000Y-63141000D02*
X84477000Y-63141000D01*
X84477000Y-63141000D02*
X84899500Y-63563500D01*
X83678000Y-36471000D02*
X84477000Y-36471000D01*
X84477000Y-67586000D02*
X83678000Y-67586000D01*
X84899500Y-68008500D02*
X84477000Y-67586000D01*
X84477000Y-36471000D02*
X84899500Y-36893500D01*
X86853000Y-51406000D02*
X86523000Y-51406000D01*
X96378000Y-51406000D02*
X93203000Y-51406000D01*
X93203000Y-51406000D02*
X93110500Y-51498500D01*
X93110500Y-51498500D02*
X86945500Y-51498500D01*
X86945500Y-51498500D02*
X86853000Y-51406000D01*
X74153000Y-55851000D02*
X70978000Y-55851000D01*
X77328000Y-55851000D02*
X74153000Y-55851000D01*
X80503000Y-55851000D02*
X77328000Y-55851000D01*
D31*
X65976500Y-63436500D02*
X65976500Y-106870500D01*
X70388506Y-111282506D02*
X65976500Y-106870500D01*
X81806500Y-113239500D02*
X80125494Y-113239500D01*
X80125494Y-113239500D02*
X78168500Y-111282506D01*
X78168500Y-111282506D02*
X70388506Y-111282506D01*
X70978000Y-61229000D02*
X70548500Y-61658500D01*
X65976500Y-61658500D02*
X65976500Y-63436500D01*
X70978000Y-61229000D02*
X70978000Y-60296000D01*
D30*
X80503000Y-58696000D02*
X80242000Y-58696000D01*
X80242000Y-58696000D02*
X78642000Y-60296000D01*
X78642000Y-60296000D02*
X77328000Y-60296000D01*
X83678000Y-55851000D02*
X83678000Y-57165000D01*
X83678000Y-57165000D02*
X81724500Y-59118500D01*
X80503000Y-40916000D02*
X81302000Y-40916000D01*
X81302000Y-40916000D02*
X81724500Y-41338500D01*
X80503000Y-45361000D02*
X81302000Y-45361000D01*
X81302000Y-45361000D02*
X81724500Y-45783500D01*
X80503000Y-49806000D02*
X81302000Y-49806000D01*
X81302000Y-49806000D02*
X81724500Y-50228500D01*
X80503000Y-54251000D02*
X81302000Y-54251000D01*
X81302000Y-54251000D02*
X81724500Y-54673500D01*
X80503000Y-58696000D02*
X81302000Y-58696000D01*
X81302000Y-58696000D02*
X81724500Y-59118500D01*
X80503000Y-63141000D02*
X81302000Y-63141000D01*
X81302000Y-63141000D02*
X81724500Y-63563500D01*
X80503000Y-36471000D02*
X81302000Y-36471000D01*
X81302000Y-67586000D02*
X80503000Y-67586000D01*
X81724500Y-68008500D02*
X81302000Y-67586000D01*
X81302000Y-36471000D02*
X81724500Y-36893500D01*
X83678000Y-55851000D02*
X83348000Y-55851000D01*
X93203000Y-55851000D02*
X90028000Y-55851000D01*
X90028000Y-55851000D02*
X86853000Y-55851000D01*
X86853000Y-55851000D02*
X83678000Y-55851000D01*
X96378000Y-55851000D02*
X93203000Y-55851000D01*
X74153000Y-60296000D02*
X70978000Y-60296000D01*
X77328000Y-60296000D02*
X74153000Y-60296000D01*
D31*
X65214500Y-69278500D02*
X65214500Y-106870500D01*
X70018504Y-111674504D02*
X65214500Y-106870500D01*
X77936496Y-111674504D02*
X70018504Y-111674504D01*
X70978000Y-65801000D02*
X70548500Y-66230500D01*
X65214500Y-66484500D02*
X65214500Y-69278500D01*
X70978000Y-65801000D02*
X70978000Y-64741000D01*
X81806500Y-113639500D02*
X79901492Y-113639500D01*
X79901492Y-113639500D02*
X77936496Y-111674504D01*
X77936496Y-111674504D02*
X77914500Y-111652508D01*
D30*
X77328000Y-63141000D02*
X77067000Y-63141000D01*
X77067000Y-63141000D02*
X75467000Y-64741000D01*
X75467000Y-64741000D02*
X74153000Y-64741000D01*
X80503000Y-60296000D02*
X80503000Y-61610000D01*
X80503000Y-61610000D02*
X78549500Y-63563500D01*
X77328000Y-40916000D02*
X78127000Y-40916000D01*
X78127000Y-40916000D02*
X78549500Y-41338500D01*
X77328000Y-45361000D02*
X78127000Y-45361000D01*
X78127000Y-45361000D02*
X78549500Y-45783500D01*
X77328000Y-49806000D02*
X78127000Y-49806000D01*
X78127000Y-49806000D02*
X78549500Y-50228500D01*
X77328000Y-54251000D02*
X78127000Y-54251000D01*
X78127000Y-54251000D02*
X78549500Y-54673500D01*
X77328000Y-58696000D02*
X78127000Y-58696000D01*
X78127000Y-58696000D02*
X78549500Y-59118500D01*
X77328000Y-63141000D02*
X78127000Y-63141000D01*
X78127000Y-63141000D02*
X78549500Y-63563500D01*
X77328000Y-36471000D02*
X78127000Y-36471000D01*
X78127000Y-67586000D02*
X77328000Y-67586000D01*
X78549500Y-68008500D02*
X78127000Y-67586000D01*
X78127000Y-36471000D02*
X78549500Y-36893500D01*
X80503000Y-60296000D02*
X80173000Y-60296000D01*
X96378000Y-60296000D02*
X93203000Y-60296000D01*
X93203000Y-60296000D02*
X90028000Y-60296000D01*
X90028000Y-60296000D02*
X86853000Y-60296000D01*
X86853000Y-60296000D02*
X86760500Y-60388500D01*
X86760500Y-60388500D02*
X83770500Y-60388500D01*
X83770500Y-60388500D02*
X83678000Y-60296000D01*
X83678000Y-60296000D02*
X80503000Y-60296000D01*
X74153000Y-64741000D02*
X70978000Y-64741000D01*
D31*
X64452500Y-72834500D02*
X64452500Y-106870500D01*
X69626506Y-112044506D02*
X64452500Y-106870500D01*
X81806500Y-114039500D02*
X79655494Y-114039500D01*
X79655494Y-114039500D02*
X77660500Y-112044506D01*
X77660500Y-112044506D02*
X69626506Y-112044506D01*
X70978000Y-69611000D02*
X70294500Y-70294500D01*
X64452500Y-70294500D02*
X64452500Y-72834500D01*
X70978000Y-69611000D02*
X70978000Y-69186000D01*
D30*
X74153000Y-67586000D02*
X73892000Y-67586000D01*
X73892000Y-67586000D02*
X72292000Y-69186000D01*
X72292000Y-69186000D02*
X70978000Y-69186000D01*
X77328000Y-64741000D02*
X77328000Y-66055000D01*
X77328000Y-66055000D02*
X75374500Y-68008500D01*
X74153000Y-40916000D02*
X74952000Y-40916000D01*
X74952000Y-40916000D02*
X75374500Y-41338500D01*
X74153000Y-45361000D02*
X74952000Y-45361000D01*
X74952000Y-45361000D02*
X75374500Y-45783500D01*
X74153000Y-49806000D02*
X74952000Y-49806000D01*
X74952000Y-49806000D02*
X75374500Y-50228500D01*
X74153000Y-54251000D02*
X74952000Y-54251000D01*
X74952000Y-54251000D02*
X75374500Y-54673500D01*
X74153000Y-58696000D02*
X74952000Y-58696000D01*
X74952000Y-58696000D02*
X75374500Y-59118500D01*
X74153000Y-63141000D02*
X74952000Y-63141000D01*
X74952000Y-63141000D02*
X75374500Y-63563500D01*
X74153000Y-36471000D02*
X74952000Y-36471000D01*
X74952000Y-67586000D02*
X74153000Y-67586000D01*
X75374500Y-68008500D02*
X74952000Y-67586000D01*
X74952000Y-36471000D02*
X75374500Y-36893500D01*
X77328000Y-64741000D02*
X76998000Y-64741000D01*
X96378000Y-64741000D02*
X93203000Y-64741000D01*
X93203000Y-64741000D02*
X90028000Y-64741000D01*
X90028000Y-64741000D02*
X86853000Y-64741000D01*
X86853000Y-64741000D02*
X83678000Y-64741000D01*
X83678000Y-64741000D02*
X80503000Y-64741000D01*
X80503000Y-64741000D02*
X77328000Y-64741000D01*
D31*
X79587496Y-114595504D02*
X82362504Y-114595504D01*
X82362504Y-114595504D02*
X82556500Y-114789500D01*
X69234508Y-112414508D02*
X63690500Y-106870500D01*
X77406500Y-112414508D02*
X77152500Y-112414508D01*
X79587496Y-114595504D02*
X77406500Y-112414508D01*
X77152500Y-112414508D02*
X69234508Y-112414508D01*
X63690500Y-71310500D02*
X63690500Y-106870500D01*
D30*
X74153000Y-69186000D02*
X73181000Y-69186000D01*
X73181000Y-69186000D02*
X72326500Y-70040500D01*
X70978000Y-40916000D02*
X71777000Y-40916000D01*
X71777000Y-40916000D02*
X72199500Y-41338500D01*
X70978000Y-45361000D02*
X71777000Y-45361000D01*
X71777000Y-45361000D02*
X72199500Y-45783500D01*
X70978000Y-49806000D02*
X71777000Y-49806000D01*
X71777000Y-49806000D02*
X72199500Y-50228500D01*
X70978000Y-54251000D02*
X71777000Y-54251000D01*
X71777000Y-54251000D02*
X72199500Y-54673500D01*
X70978000Y-58696000D02*
X71777000Y-58696000D01*
X71777000Y-58696000D02*
X72199500Y-59118500D01*
X70978000Y-63141000D02*
X71777000Y-63141000D01*
X71777000Y-63141000D02*
X72199500Y-63563500D01*
X70978000Y-36471000D02*
X71777000Y-36471000D01*
X71777000Y-67586000D02*
X70978000Y-67586000D01*
X72199500Y-68008500D02*
X71777000Y-67586000D01*
X71777000Y-36471000D02*
X72199500Y-36893500D01*
X96378000Y-69186000D02*
X93203000Y-69186000D01*
X93203000Y-69186000D02*
X90028000Y-69186000D01*
X90028000Y-69186000D02*
X86853000Y-69186000D01*
X86853000Y-69186000D02*
X83678000Y-69186000D01*
X83678000Y-69186000D02*
X80503000Y-69186000D01*
X80503000Y-69186000D02*
X77328000Y-69186000D01*
X77328000Y-69186000D02*
X74153000Y-69186000D01*
D31*
X98615500Y-78422500D02*
X98615500Y-74739500D01*
X99250500Y-79057500D02*
X98615500Y-78422500D01*
X99885500Y-87439500D02*
X99885500Y-83502500D01*
X100520500Y-88074500D02*
X99885500Y-87439500D01*
X101155500Y-96202500D02*
X101155500Y-92519500D01*
X101790500Y-96837500D02*
X101155500Y-96202500D01*
X102425500Y-106108500D02*
X102425500Y-100901500D01*
X96461999Y-112072001D02*
X102425500Y-106108500D01*
X91752001Y-112072001D02*
X96461999Y-112072001D01*
X102425500Y-100901500D02*
X101790500Y-100266500D01*
X101790500Y-100266500D02*
X101790500Y-96837500D01*
X101155500Y-92519500D02*
X100520500Y-91884500D01*
X100520500Y-91884500D02*
X100520500Y-88074500D01*
X99885500Y-83502500D02*
X99250500Y-82867500D01*
X99250500Y-82867500D02*
X99250500Y-79057500D01*
X97507000Y-73631000D02*
X96378000Y-73631000D01*
X98615500Y-74739500D02*
X97507000Y-73631000D01*
X85706500Y-114039500D02*
X89784502Y-114039500D01*
X89784502Y-114039500D02*
X91752001Y-112072001D01*
X91752001Y-112072001D02*
X91757500Y-112066502D01*
D30*
X90028000Y-78076000D02*
X86853000Y-78076000D01*
X93203000Y-76476000D02*
X92815000Y-76476000D01*
X92815000Y-76476000D02*
X91215000Y-78076000D01*
X91215000Y-78076000D02*
X90028000Y-78076000D01*
X96378000Y-73631000D02*
X96378000Y-74310000D01*
X96378000Y-74310000D02*
X94424500Y-76263500D01*
X93203000Y-76476000D02*
X94212000Y-76476000D01*
X94212000Y-76476000D02*
X94424500Y-76263500D01*
X93203000Y-80921000D02*
X94212000Y-80921000D01*
X94212000Y-80921000D02*
X94424500Y-80708500D01*
X93203000Y-85366000D02*
X94212000Y-85366000D01*
X94212000Y-85366000D02*
X94424500Y-85153500D01*
X93203000Y-89811000D02*
X94212000Y-89811000D01*
X94212000Y-89811000D02*
X94424500Y-89598500D01*
X93203000Y-94256000D02*
X94212000Y-94256000D01*
X94212000Y-94256000D02*
X94424500Y-94043500D01*
X93203000Y-98701000D02*
X94212000Y-98701000D01*
X94212000Y-98701000D02*
X94424500Y-98488500D01*
X93203000Y-72031000D02*
X94002000Y-72031000D01*
X94002000Y-72031000D02*
X94424500Y-72453500D01*
X94002000Y-103146000D02*
X93203000Y-103146000D01*
X94424500Y-103568500D02*
X94002000Y-103146000D01*
X96378000Y-73631000D02*
X96048000Y-73631000D01*
X90028000Y-78076000D02*
X83678000Y-78076000D01*
X83678000Y-78076000D02*
X80503000Y-78076000D01*
X80503000Y-78076000D02*
X77328000Y-78076000D01*
X77328000Y-78076000D02*
X74153000Y-78076000D01*
X74153000Y-78076000D02*
X70978000Y-78076000D01*
D31*
X88328500Y-114490500D02*
X85255500Y-114490500D01*
X85255500Y-114490500D02*
X84956500Y-114789500D01*
X88328500Y-114490500D02*
X89725500Y-114490500D01*
X99250500Y-78422500D02*
X99250500Y-74104500D01*
X99885500Y-79057500D02*
X99250500Y-78422500D01*
X100520500Y-87439500D02*
X100520500Y-83502500D01*
X101155500Y-88074500D02*
X100520500Y-87439500D01*
X101790500Y-96202500D02*
X101790500Y-92519500D01*
X102425500Y-96837500D02*
X101790500Y-96202500D01*
X103060500Y-106108500D02*
X103060500Y-100901500D01*
X96702252Y-112450252D02*
X103044004Y-106108500D01*
X103044004Y-106108500D02*
X103060500Y-106108500D01*
X92003251Y-112450252D02*
X96702252Y-112450252D01*
X103060500Y-100901500D02*
X102425500Y-100266500D01*
X102425500Y-100266500D02*
X102425500Y-96837500D01*
X101790500Y-92519500D02*
X101155500Y-91884500D01*
X101155500Y-91884500D02*
X101155500Y-88074500D01*
X100520500Y-83502500D02*
X99885500Y-82867500D01*
X99885500Y-82867500D02*
X99885500Y-79057500D01*
X99250500Y-74104500D02*
X97599500Y-72453500D01*
X89725500Y-114490500D02*
X89963003Y-114490500D01*
X89963003Y-114490500D02*
X92003251Y-112450252D01*
X92003251Y-112450252D02*
X92011500Y-112442003D01*
D30*
X96378000Y-72031000D02*
X95990000Y-72031000D01*
X95990000Y-72031000D02*
X94390000Y-73631000D01*
X94390000Y-73631000D02*
X93203000Y-73631000D01*
X96378000Y-76476000D02*
X97387000Y-76476000D01*
X97387000Y-76476000D02*
X97599500Y-76263500D01*
X96378000Y-80921000D02*
X97387000Y-80921000D01*
X97387000Y-80921000D02*
X97599500Y-80708500D01*
X96378000Y-85366000D02*
X97387000Y-85366000D01*
X97387000Y-85366000D02*
X97599500Y-85153500D01*
X96378000Y-89811000D02*
X97387000Y-89811000D01*
X97387000Y-89811000D02*
X97599500Y-89598500D01*
X96378000Y-94256000D02*
X97387000Y-94256000D01*
X97387000Y-94256000D02*
X97599500Y-94043500D01*
X96378000Y-98701000D02*
X97387000Y-98701000D01*
X97387000Y-98701000D02*
X97599500Y-98488500D01*
X96378000Y-72031000D02*
X97177000Y-72031000D01*
X97177000Y-72031000D02*
X97599500Y-72453500D01*
X97177000Y-103146000D02*
X96378000Y-103146000D01*
X97599500Y-103568500D02*
X97177000Y-103146000D01*
X93203000Y-73631000D02*
X90028000Y-73631000D01*
X90028000Y-73631000D02*
X86853000Y-73631000D01*
X86853000Y-73631000D02*
X83678000Y-73631000D01*
X83678000Y-73631000D02*
X80503000Y-73631000D01*
X80503000Y-73631000D02*
X77328000Y-73631000D01*
X77328000Y-73631000D02*
X74153000Y-73631000D01*
X74153000Y-73631000D02*
X70978000Y-73631000D01*
D31*
X98615500Y-82867500D02*
X98615500Y-79057500D01*
X99250500Y-83502500D02*
X98615500Y-82867500D01*
X99885500Y-91884500D02*
X99885500Y-88074500D01*
X100520500Y-92519500D02*
X99885500Y-91884500D01*
X101155500Y-100266500D02*
X101155500Y-96837500D01*
X101790500Y-100901500D02*
X101155500Y-100266500D01*
X95440500Y-111696500D02*
X96202500Y-111696500D01*
X89422502Y-113639500D02*
X91365502Y-111696500D01*
X91365502Y-111696500D02*
X95440500Y-111696500D01*
X85706500Y-113639500D02*
X89422502Y-113639500D01*
X96202500Y-111696500D02*
X101790500Y-106108500D01*
X101790500Y-106108500D02*
X101790500Y-100901500D01*
X101155500Y-96837500D02*
X100520500Y-96202500D01*
X100520500Y-96202500D02*
X100520500Y-92519500D01*
X99885500Y-88074500D02*
X99250500Y-87439500D01*
X99250500Y-87439500D02*
X99250500Y-83502500D01*
X97634000Y-78076000D02*
X96378000Y-78076000D01*
X98615500Y-79057500D02*
X97634000Y-78076000D01*
D30*
X83678000Y-82521000D02*
X80503000Y-82521000D01*
X90028000Y-80921000D02*
X89640000Y-80921000D01*
X89640000Y-80921000D02*
X88040000Y-82521000D01*
X88040000Y-82521000D02*
X86853000Y-82521000D01*
X93203000Y-78076000D02*
X93203000Y-78755000D01*
X93203000Y-78755000D02*
X91249500Y-80708500D01*
X90028000Y-76476000D02*
X91037000Y-76476000D01*
X91037000Y-76476000D02*
X91249500Y-76263500D01*
X90028000Y-80921000D02*
X91037000Y-80921000D01*
X91037000Y-80921000D02*
X91249500Y-80708500D01*
X90028000Y-85366000D02*
X91037000Y-85366000D01*
X91037000Y-85366000D02*
X91249500Y-85153500D01*
X90028000Y-89811000D02*
X91037000Y-89811000D01*
X91037000Y-89811000D02*
X91249500Y-89598500D01*
X90028000Y-94256000D02*
X91037000Y-94256000D01*
X91037000Y-94256000D02*
X91249500Y-94043500D01*
X90028000Y-98701000D02*
X91037000Y-98701000D01*
X91037000Y-98701000D02*
X91249500Y-98488500D01*
X90028000Y-72031000D02*
X90827000Y-72031000D01*
X90827000Y-72031000D02*
X91249500Y-72453500D01*
X90827000Y-103146000D02*
X90028000Y-103146000D01*
X91249500Y-103568500D02*
X90827000Y-103146000D01*
X93203000Y-78076000D02*
X92873000Y-78076000D01*
X96378000Y-78076000D02*
X93203000Y-78076000D01*
X70978000Y-82521000D02*
X74153000Y-82521000D01*
X77328000Y-82521000D02*
X74153000Y-82521000D01*
X86853000Y-82521000D02*
X80503000Y-82521000D01*
X80503000Y-82521000D02*
X77328000Y-82521000D01*
D31*
X98615500Y-87439500D02*
X98615500Y-83502500D01*
X99250500Y-88074500D02*
X98615500Y-87439500D01*
X99885500Y-96202500D02*
X99885500Y-92519500D01*
X100520500Y-96837500D02*
X99885500Y-96202500D01*
X101155500Y-106108500D02*
X101155500Y-100901500D01*
X90990001Y-111310001D02*
X95953999Y-111310001D01*
X95953999Y-111310001D02*
X97091500Y-110172500D01*
X101155500Y-106108500D02*
X97091500Y-110172500D01*
X100520500Y-100266500D02*
X100520500Y-98615500D01*
X101155500Y-100901500D02*
X100520500Y-100266500D01*
X100520500Y-98615500D02*
X100520500Y-96837500D01*
X99885500Y-92519500D02*
X99250500Y-91884500D01*
X99250500Y-91884500D02*
X99250500Y-88074500D01*
X97634000Y-82521000D02*
X96378000Y-82521000D01*
X98615500Y-83502500D02*
X97634000Y-82521000D01*
X85706500Y-113239500D02*
X89060502Y-113239500D01*
X89060502Y-113239500D02*
X90990001Y-111310001D01*
X90990001Y-111310001D02*
X90995500Y-111304502D01*
D30*
X86853000Y-85366000D02*
X86465000Y-85366000D01*
X86465000Y-85366000D02*
X84865000Y-86966000D01*
X84865000Y-86966000D02*
X83678000Y-86966000D01*
X90028000Y-82521000D02*
X90028000Y-83200000D01*
X90028000Y-83200000D02*
X88074500Y-85153500D01*
X86853000Y-76476000D02*
X87862000Y-76476000D01*
X87862000Y-76476000D02*
X88074500Y-76263500D01*
X86853000Y-80921000D02*
X87862000Y-80921000D01*
X87862000Y-80921000D02*
X88074500Y-80708500D01*
X86853000Y-85366000D02*
X87862000Y-85366000D01*
X87862000Y-85366000D02*
X88074500Y-85153500D01*
X86853000Y-89811000D02*
X87862000Y-89811000D01*
X87862000Y-89811000D02*
X88074500Y-89598500D01*
X86853000Y-94256000D02*
X87862000Y-94256000D01*
X87862000Y-94256000D02*
X88074500Y-94043500D01*
X86853000Y-98701000D02*
X87862000Y-98701000D01*
X87862000Y-98701000D02*
X88074500Y-98488500D01*
X86853000Y-103146000D02*
X87652000Y-103146000D01*
X87652000Y-72031000D02*
X86853000Y-72031000D01*
X88074500Y-72453500D02*
X87652000Y-72031000D01*
X87652000Y-103146000D02*
X88074500Y-103568500D01*
X90028000Y-82521000D02*
X89698000Y-82521000D01*
X96378000Y-82521000D02*
X93203000Y-82521000D01*
X93203000Y-82521000D02*
X90028000Y-82521000D01*
X74153000Y-86966000D02*
X70978000Y-86966000D01*
X80503000Y-86966000D02*
X77328000Y-86966000D01*
X77328000Y-86966000D02*
X74153000Y-86966000D01*
X80503000Y-86966000D02*
X83678000Y-86966000D01*
D31*
X98615500Y-91884500D02*
X98615500Y-88074500D01*
X99250500Y-92519500D02*
X98615500Y-91884500D01*
X99885500Y-100266500D02*
X99885500Y-96837500D01*
X100520500Y-100901500D02*
X99885500Y-100266500D01*
X85706500Y-112839500D02*
X88836500Y-112839500D01*
X95694500Y-110934500D02*
X100520500Y-106108500D01*
X90741500Y-110934500D02*
X95694500Y-110934500D01*
X88836500Y-112839500D02*
X90741500Y-110934500D01*
X100520500Y-106108500D02*
X100520500Y-100901500D01*
X99885500Y-96837500D02*
X99250500Y-96202500D01*
X99250500Y-96202500D02*
X99250500Y-92519500D01*
X97507000Y-86966000D02*
X96378000Y-86966000D01*
X98615500Y-88074500D02*
X97507000Y-86966000D01*
D30*
X77328000Y-91411000D02*
X74153000Y-91411000D01*
X83678000Y-89811000D02*
X83290000Y-89811000D01*
X83290000Y-89811000D02*
X81690000Y-91411000D01*
X81690000Y-91411000D02*
X80503000Y-91411000D01*
X86853000Y-86966000D02*
X86853000Y-87645000D01*
X86853000Y-87645000D02*
X84899500Y-89598500D01*
X83678000Y-76476000D02*
X84687000Y-76476000D01*
X84687000Y-76476000D02*
X84899500Y-76263500D01*
X83678000Y-80921000D02*
X84687000Y-80921000D01*
X84687000Y-80921000D02*
X84899500Y-80708500D01*
X83678000Y-85366000D02*
X84687000Y-85366000D01*
X84687000Y-85366000D02*
X84899500Y-85153500D01*
X83678000Y-89811000D02*
X84687000Y-89811000D01*
X84687000Y-89811000D02*
X84899500Y-89598500D01*
X83678000Y-94256000D02*
X84687000Y-94256000D01*
X84687000Y-94256000D02*
X84899500Y-94043500D01*
X83678000Y-98701000D02*
X84687000Y-98701000D01*
X84687000Y-98701000D02*
X84899500Y-98488500D01*
X83678000Y-72031000D02*
X84477000Y-72031000D01*
X84477000Y-72031000D02*
X84899500Y-72453500D01*
X84477000Y-103146000D02*
X83678000Y-103146000D01*
X84899500Y-103568500D02*
X84477000Y-103146000D01*
X86853000Y-86966000D02*
X86523000Y-86966000D01*
X96378000Y-86966000D02*
X93203000Y-86966000D01*
X93203000Y-86966000D02*
X90028000Y-86966000D01*
X90028000Y-86966000D02*
X86853000Y-86966000D01*
X80503000Y-91411000D02*
X74153000Y-91411000D01*
X74153000Y-91411000D02*
X70978000Y-91411000D01*
D31*
X98615500Y-95440500D02*
X98615500Y-92519500D01*
X99250500Y-96837500D02*
X98615500Y-96202500D01*
X98615500Y-96202500D02*
X98615500Y-95440500D01*
X90349502Y-110542502D02*
X95451498Y-110542502D01*
X99885500Y-100901500D02*
X99250500Y-100266500D01*
X99885500Y-106108500D02*
X99885500Y-100901500D01*
X95821500Y-110172500D02*
X99885500Y-106108500D01*
X95451498Y-110542502D02*
X95821500Y-110172500D01*
X99250500Y-100266500D02*
X99250500Y-96837500D01*
X97507000Y-91411000D02*
X96378000Y-91411000D01*
X98615500Y-92519500D02*
X97507000Y-91411000D01*
X85706500Y-112439500D02*
X88452504Y-112439500D01*
X88452504Y-112439500D02*
X90349502Y-110542502D01*
X90349502Y-110542502D02*
X90360500Y-110531504D01*
D30*
X80503000Y-94256000D02*
X80115000Y-94256000D01*
X80115000Y-94256000D02*
X78515000Y-95856000D01*
X78515000Y-95856000D02*
X77328000Y-95856000D01*
X83678000Y-91411000D02*
X83678000Y-92090000D01*
X83678000Y-92090000D02*
X81724500Y-94043500D01*
X80503000Y-76476000D02*
X81512000Y-76476000D01*
X81512000Y-76476000D02*
X81724500Y-76263500D01*
X80503000Y-80921000D02*
X81512000Y-80921000D01*
X81512000Y-80921000D02*
X81724500Y-80708500D01*
X80503000Y-85366000D02*
X81512000Y-85366000D01*
X81512000Y-85366000D02*
X81724500Y-85153500D01*
X80503000Y-89811000D02*
X81512000Y-89811000D01*
X81512000Y-89811000D02*
X81724500Y-89598500D01*
X80503000Y-94256000D02*
X81512000Y-94256000D01*
X81512000Y-94256000D02*
X81724500Y-94043500D01*
X80503000Y-98701000D02*
X81512000Y-98701000D01*
X81512000Y-98701000D02*
X81724500Y-98488500D01*
X80503000Y-72031000D02*
X81302000Y-72031000D01*
X81302000Y-72031000D02*
X81724500Y-72453500D01*
X81302000Y-103146000D02*
X80503000Y-103146000D01*
X81724500Y-103568500D02*
X81302000Y-103146000D01*
X83678000Y-91411000D02*
X83348000Y-91411000D01*
X96378000Y-91411000D02*
X93203000Y-91411000D01*
X93203000Y-91411000D02*
X90028000Y-91411000D01*
X90028000Y-91411000D02*
X86853000Y-91411000D01*
X86853000Y-91411000D02*
X83678000Y-91411000D01*
X77328000Y-95856000D02*
X74153000Y-95856000D01*
X74153000Y-95856000D02*
X70978000Y-95856000D01*
D31*
X98615500Y-100393500D02*
X98615500Y-96837500D01*
X99250500Y-101028500D02*
X98615500Y-100393500D01*
X95175502Y-110161502D02*
X95197498Y-110161502D01*
X95197498Y-110161502D02*
X99250500Y-106108500D01*
X99250500Y-106108500D02*
X99250500Y-101028500D01*
X97634000Y-95856000D02*
X96378000Y-95856000D01*
X98615500Y-96837500D02*
X97634000Y-95856000D01*
X89968502Y-110161502D02*
X95175502Y-110161502D01*
X95175502Y-110161502D02*
X95186500Y-110172500D01*
X85706500Y-112039500D02*
X88090504Y-112039500D01*
X88090504Y-112039500D02*
X89968502Y-110161502D01*
X89968502Y-110161502D02*
X89979500Y-110150504D01*
D30*
X77328000Y-98701000D02*
X76940000Y-98701000D01*
X76940000Y-98701000D02*
X75340000Y-100301000D01*
X75340000Y-100301000D02*
X74153000Y-100301000D01*
X80503000Y-95856000D02*
X80503000Y-96535000D01*
X80503000Y-96535000D02*
X78549500Y-98488500D01*
X77328000Y-76476000D02*
X78337000Y-76476000D01*
X78337000Y-76476000D02*
X78549500Y-76263500D01*
X77328000Y-80921000D02*
X78337000Y-80921000D01*
X78337000Y-80921000D02*
X78549500Y-80708500D01*
X77328000Y-85366000D02*
X78337000Y-85366000D01*
X78337000Y-85366000D02*
X78549500Y-85153500D01*
X77328000Y-89811000D02*
X78337000Y-89811000D01*
X78337000Y-89811000D02*
X78549500Y-89598500D01*
X77328000Y-94256000D02*
X78337000Y-94256000D01*
X78337000Y-94256000D02*
X78549500Y-94043500D01*
X77328000Y-98701000D02*
X78337000Y-98701000D01*
X78337000Y-98701000D02*
X78549500Y-98488500D01*
X77328000Y-72031000D02*
X78127000Y-72031000D01*
X78127000Y-72031000D02*
X78549500Y-72453500D01*
X78127000Y-103146000D02*
X77328000Y-103146000D01*
X78549500Y-103568500D02*
X78127000Y-103146000D01*
X80503000Y-95856000D02*
X80173000Y-95856000D01*
X96378000Y-95856000D02*
X93203000Y-95856000D01*
X93203000Y-95856000D02*
X90028000Y-95856000D01*
X90028000Y-95856000D02*
X86853000Y-95856000D01*
X86853000Y-95856000D02*
X83678000Y-95856000D01*
X83678000Y-95856000D02*
X80503000Y-95856000D01*
X74153000Y-100301000D02*
X70978000Y-100301000D01*
D31*
X98615500Y-106108500D02*
X98615500Y-101155500D01*
X98615500Y-101155500D02*
X97761000Y-100301000D01*
X97761000Y-100301000D02*
X96378000Y-100301000D01*
X94678500Y-109791500D02*
X94932500Y-109791500D01*
X87866502Y-111639500D02*
X89725500Y-109780502D01*
X89725500Y-109780502D02*
X92519500Y-109780502D01*
X92519500Y-109780502D02*
X92530498Y-109791500D01*
X92530498Y-109791500D02*
X94678500Y-109791500D01*
X85706500Y-111639500D02*
X87866502Y-111639500D01*
X94932500Y-109791500D02*
X98615500Y-106108500D01*
D30*
X74153000Y-103146000D02*
X73511000Y-103146000D01*
X71911000Y-104746000D02*
X70978000Y-104746000D01*
X73511000Y-103146000D02*
X71911000Y-104746000D01*
X74153000Y-103146000D02*
X73765000Y-103146000D01*
X77328000Y-100301000D02*
X77328000Y-101615000D01*
X77328000Y-101615000D02*
X75374500Y-103568500D01*
X74153000Y-76476000D02*
X75162000Y-76476000D01*
X75162000Y-76476000D02*
X75374500Y-76263500D01*
X74153000Y-80921000D02*
X75162000Y-80921000D01*
X75162000Y-80921000D02*
X75374500Y-80708500D01*
X74153000Y-85366000D02*
X75162000Y-85366000D01*
X75162000Y-85366000D02*
X75374500Y-85153500D01*
X74153000Y-89811000D02*
X75162000Y-89811000D01*
X75162000Y-89811000D02*
X75374500Y-89598500D01*
X74153000Y-94256000D02*
X75162000Y-94256000D01*
X75162000Y-94256000D02*
X75374500Y-94043500D01*
X74153000Y-98701000D02*
X75162000Y-98701000D01*
X75162000Y-98701000D02*
X75374500Y-98488500D01*
X74153000Y-72031000D02*
X74952000Y-72031000D01*
X74952000Y-103146000D02*
X74153000Y-103146000D01*
X75374500Y-103568500D02*
X74952000Y-103146000D01*
X74952000Y-72031000D02*
X75374500Y-72453500D01*
X77328000Y-100301000D02*
X76998000Y-100301000D01*
X96378000Y-100301000D02*
X93203000Y-100301000D01*
X93203000Y-100301000D02*
X90028000Y-100301000D01*
X90028000Y-100301000D02*
X86853000Y-100301000D01*
X86853000Y-100301000D02*
X83678000Y-100301000D01*
X83678000Y-100301000D02*
X80503000Y-100301000D01*
X80503000Y-100301000D02*
X77328000Y-100301000D01*
D31*
X90360500Y-109410500D02*
X89344500Y-109410500D01*
X85235500Y-110889500D02*
X84956500Y-110889500D01*
X85280500Y-110934500D02*
X85235500Y-110889500D01*
X86804500Y-110934500D02*
X85280500Y-110934500D01*
X87820500Y-110934500D02*
X86804500Y-110934500D01*
X89344500Y-109410500D02*
X87820500Y-110934500D01*
X97980500Y-106108500D02*
X97980500Y-105092500D01*
X97980500Y-105092500D02*
X97634000Y-104746000D01*
X97634000Y-104746000D02*
X96378000Y-104746000D01*
X93916500Y-109410500D02*
X94678500Y-109410500D01*
X90360500Y-109410500D02*
X93916500Y-109410500D01*
X94678500Y-109410500D02*
X97980500Y-106108500D01*
D30*
X72927000Y-104746000D02*
X74153000Y-104746000D01*
X72326500Y-105346500D02*
X72927000Y-104746000D01*
X70978000Y-76476000D02*
X71987000Y-76476000D01*
X71987000Y-76476000D02*
X72199500Y-76263500D01*
X70978000Y-80921000D02*
X71987000Y-80921000D01*
X71987000Y-80921000D02*
X72199500Y-80708500D01*
X70978000Y-85366000D02*
X71987000Y-85366000D01*
X71987000Y-85366000D02*
X72199500Y-85153500D01*
X70978000Y-89811000D02*
X71987000Y-89811000D01*
X71987000Y-89811000D02*
X72199500Y-89598500D01*
X70978000Y-94256000D02*
X71987000Y-94256000D01*
X71987000Y-94256000D02*
X72199500Y-94043500D01*
X70978000Y-98701000D02*
X71987000Y-98701000D01*
X71987000Y-98701000D02*
X72199500Y-98488500D01*
X71777000Y-72031000D02*
X72199500Y-72453500D01*
X70978000Y-72031000D02*
X71777000Y-72031000D01*
X71777000Y-103146000D02*
X70978000Y-103146000D01*
X72199500Y-103568500D02*
X71777000Y-103146000D01*
X96378000Y-104746000D02*
X93203000Y-104746000D01*
X93203000Y-104746000D02*
X90028000Y-104746000D01*
X90028000Y-104746000D02*
X86853000Y-104746000D01*
X86853000Y-104746000D02*
X83678000Y-104746000D01*
X83678000Y-104746000D02*
X80503000Y-104746000D01*
X80503000Y-104746000D02*
X77328000Y-104746000D01*
X77328000Y-104746000D02*
X74153000Y-104746000D01*
X59750000Y-134100000D02*
X52750000Y-134100000D01*
X52750000Y-134100000D02*
X50607406Y-131957406D01*
X50607406Y-131957406D02*
X50607406Y-129601406D01*
X76170000Y-136685000D02*
X69335000Y-136685000D01*
X66750000Y-134100000D02*
X59750000Y-134100000D01*
X69335000Y-136685000D02*
X66750000Y-134100000D01*
X76137000Y-136652000D02*
X76170000Y-136685000D01*
X50607406Y-129601406D02*
X50607406Y-127691659D01*
X50607406Y-127691659D02*
X51413319Y-126885746D01*
D33*
X51413319Y-126885746D02*
X55486254Y-130958681D01*
D30*
X76170000Y-138685000D02*
X70550000Y-138700000D01*
X46228000Y-122944935D02*
X45825319Y-122542254D01*
X46228000Y-128270000D02*
X46228000Y-122944935D01*
X46736000Y-128778000D02*
X46228000Y-128270000D01*
X52250142Y-134594664D02*
X46736000Y-128778000D01*
X66456387Y-134601102D02*
X52250142Y-134594664D01*
X70550000Y-138700000D02*
X66456387Y-134601102D01*
X45825319Y-122542254D02*
X45825319Y-120632507D01*
X45825319Y-120632507D02*
X44003406Y-118810594D01*
D33*
X49898254Y-118469319D02*
X45825319Y-122542254D01*
D31*
X76170000Y-142685000D02*
X79057000Y-142685000D01*
X82956500Y-109880500D02*
X82956500Y-110889500D01*
X82804000Y-109728000D02*
X82956500Y-109880500D01*
X81534000Y-109728000D02*
X82804000Y-109728000D01*
X81026000Y-109220000D02*
X81534000Y-109728000D01*
X79057000Y-142685000D02*
X79248000Y-142494000D01*
X64862000Y-139384000D02*
X64862000Y-140982000D01*
X64862000Y-140982000D02*
X65358000Y-141478000D01*
D30*
X65358000Y-141478000D02*
X72390000Y-141478000D01*
X73597000Y-142685000D02*
X76170000Y-142685000D01*
X72390000Y-141478000D02*
X73597000Y-142685000D01*
D31*
X83356500Y-110889500D02*
X83356500Y-109518500D01*
X80041000Y-140685000D02*
X76170000Y-140685000D01*
X80264000Y-140462000D02*
X80041000Y-140685000D01*
X82804000Y-108966000D02*
X82296000Y-108966000D01*
X83356500Y-109518500D02*
X82804000Y-108966000D01*
X63662000Y-139384000D02*
X60978000Y-139384000D01*
X60978000Y-139384000D02*
X60198000Y-138604000D01*
X76170000Y-140685000D02*
X69057000Y-140685000D01*
X64362000Y-138684000D02*
X63662000Y-139384000D01*
X67056000Y-138684000D02*
X64362000Y-138684000D01*
X69057000Y-140685000D02*
X67056000Y-138684000D01*
D30*
X80200500Y-108013500D02*
X80600000Y-107900000D01*
D31*
X84556500Y-114789500D02*
X84556500Y-115544500D01*
X84645500Y-115633500D02*
X85915500Y-115633500D01*
X84556500Y-115544500D02*
X84645500Y-115633500D01*
D30*
X80200500Y-108013500D02*
X80200500Y-108013500D01*
X72754500Y-107552500D02*
X73215500Y-108013500D01*
X73215500Y-108013500D02*
X80200500Y-108013500D01*
X72754500Y-106870500D02*
X72754500Y-107552500D01*
X76170000Y-134685000D02*
X72535000Y-134685000D01*
X58796787Y-120946787D02*
X58596786Y-120946787D01*
X59150000Y-121300000D02*
X58796787Y-120946787D01*
X72535000Y-134685000D02*
X71950000Y-134100000D01*
X63561406Y-116901406D02*
X62642167Y-116901406D01*
X62642167Y-116901406D02*
X61074254Y-118469319D01*
X61074254Y-118469319D02*
X58596786Y-120946787D01*
X58596786Y-120946787D02*
X57001319Y-122542254D01*
X90170000Y-136685000D02*
X93335000Y-136685000D01*
X100150000Y-120500000D02*
X99400000Y-119750000D01*
X100150000Y-121500000D02*
X100150000Y-120500000D01*
X93335000Y-136685000D02*
X93350000Y-136700000D01*
X99400000Y-119750000D02*
X99400000Y-119602000D01*
D31*
X99400000Y-119602000D02*
X93640000Y-119602000D01*
D30*
X58724803Y-116544132D02*
X58724803Y-116474803D01*
X58724803Y-116474803D02*
X56350000Y-114100000D01*
X54533074Y-112352403D02*
X54602403Y-112352403D01*
X54602403Y-112352403D02*
X56350000Y-114100000D01*
X78180000Y-130935000D02*
X73385000Y-130935000D01*
X73385000Y-130935000D02*
X73150000Y-130700000D01*
D33*
X76170000Y-144685000D02*
X71941308Y-144685000D01*
X71941308Y-144685000D02*
X66538154Y-150088154D01*
X76170000Y-146685000D02*
X73533410Y-146685000D01*
X73533410Y-146685000D02*
X68334205Y-151884205D01*
D31*
X83756500Y-114789500D02*
X83756500Y-117106500D01*
X84180000Y-128730000D02*
X84180000Y-130935000D01*
X84150000Y-128700000D02*
X84180000Y-128730000D01*
X83756500Y-117106500D02*
X83950000Y-117300000D01*
X83756500Y-130511500D02*
X84180000Y-130935000D01*
X83356500Y-114789500D02*
X83356500Y-116293500D01*
X82180000Y-128730000D02*
X82180000Y-130935000D01*
X82150000Y-128700000D02*
X82180000Y-128730000D01*
X82750000Y-116900000D02*
X82150000Y-116900000D01*
X83356500Y-116293500D02*
X82750000Y-116900000D01*
D33*
X32886000Y-46060000D02*
X47886000Y-46060000D01*
X118738000Y-46060000D02*
X133738000Y-46060000D01*
D32*
X116398000Y-110066000D02*
X113759000Y-110066000D01*
X113759000Y-110066000D02*
X113284000Y-109591000D01*
X116148000Y-110316000D02*
X116398000Y-110066000D01*
D33*
X110050000Y-95600000D02*
X115278000Y-95600000D01*
X115278000Y-95600000D02*
X118738000Y-99060000D01*
X100050000Y-35600000D02*
X99350000Y-34900000D01*
X102550000Y-93100000D02*
X102550000Y-38100000D01*
X105050000Y-95600000D02*
X102550000Y-93100000D01*
X110050000Y-95600000D02*
X105050000Y-95600000D01*
X100050000Y-35600000D02*
X102550000Y-38100000D01*
X65750000Y-34900000D02*
X82750000Y-34900000D01*
X65750000Y-34900000D02*
X64550000Y-36100000D01*
X99350000Y-34900000D02*
X82750000Y-34900000D01*
X32886000Y-99060000D02*
X32886000Y-97764000D01*
X32886000Y-97764000D02*
X35050000Y-95600000D01*
X35050000Y-95600000D02*
X60050000Y-95600000D01*
X60050000Y-95600000D02*
X62550000Y-93100000D01*
X62550000Y-93100000D02*
X62550000Y-38100000D01*
X62550000Y-38100000D02*
X64550000Y-36100000D01*
X64550000Y-36100000D02*
X65050000Y-35600000D01*
D30*
X113284000Y-104648000D02*
X113284000Y-102108000D01*
X113284000Y-102108000D02*
X116332000Y-99060000D01*
X116332000Y-99060000D02*
X118738000Y-99060000D01*
X113284000Y-108341000D02*
X113284000Y-104648000D01*
X113284000Y-104648000D02*
X113284000Y-104902000D01*
D32*
X114320000Y-112776000D02*
X112776000Y-112776000D01*
X112131000Y-108341000D02*
X113284000Y-108341000D01*
X111760000Y-108712000D02*
X112131000Y-108341000D01*
X111760000Y-111760000D02*
X111760000Y-108712000D01*
X112776000Y-112776000D02*
X111760000Y-111760000D01*
X116398000Y-107866000D02*
X113759000Y-107866000D01*
X113759000Y-107866000D02*
X113284000Y-108341000D01*
X118298000Y-110066000D02*
X118298000Y-109154000D01*
X116398000Y-108524000D02*
X116398000Y-107866000D01*
X116840000Y-108966000D02*
X116398000Y-108524000D01*
X118110000Y-108966000D02*
X116840000Y-108966000D01*
X118298000Y-109154000D02*
X118110000Y-108966000D01*
X116148000Y-107616000D02*
X116398000Y-107866000D01*
X118698000Y-104648000D02*
X118698000Y-107466000D01*
X118698000Y-107466000D02*
X118298000Y-107866000D01*
X118298000Y-107866000D02*
X120654000Y-107866000D01*
X120654000Y-107866000D02*
X120904000Y-107616000D01*
D34*
G36*
X84692426Y-26536633D02*
X85827501Y-26582396D01*
X87434377Y-26677075D01*
X88724515Y-26779281D01*
X90493685Y-26958840D01*
X91485055Y-27080081D01*
X92312140Y-27192963D01*
X93944437Y-27447993D01*
X95575125Y-27747167D01*
X96989545Y-28044326D01*
X98482564Y-28397778D01*
X99971240Y-28792855D01*
X101621752Y-29283296D01*
X102221313Y-29475734D01*
X103077577Y-29764340D01*
X104907194Y-30437431D01*
X106666551Y-31161641D01*
X107968505Y-31749803D01*
X109350389Y-32426250D01*
X111317031Y-33488998D01*
X112510614Y-34196359D01*
X114147182Y-35250608D01*
X114642773Y-35590588D01*
X115615441Y-36288140D01*
X116870472Y-37251599D01*
X117748684Y-37972262D01*
X118603025Y-38713753D01*
X119444671Y-39486892D01*
X120346714Y-40367640D01*
X121331473Y-41398770D01*
X121870601Y-41998269D01*
X122465166Y-42691969D01*
X122490207Y-42711639D01*
X122508295Y-42737842D01*
X123214713Y-43423175D01*
X123275969Y-43462776D01*
X123329133Y-43512712D01*
X124221472Y-44069369D01*
X124287898Y-44094478D01*
X124348540Y-44131432D01*
X125263256Y-44466300D01*
X125344422Y-44478948D01*
X125422712Y-44503817D01*
X126752329Y-44652314D01*
X126847410Y-44644200D01*
X126942803Y-44646919D01*
X128092567Y-44452090D01*
X128188391Y-44415561D01*
X128287184Y-44388034D01*
X129397045Y-43826928D01*
X129479895Y-43762036D01*
X129567933Y-43704362D01*
X130338926Y-42947256D01*
X130362670Y-42912410D01*
X130394863Y-42885183D01*
X130750657Y-42438325D01*
X131500101Y-41594419D01*
X132218033Y-40886531D01*
X133071502Y-40160631D01*
X134051115Y-39489221D01*
X135075008Y-39019365D01*
X136066972Y-38923769D01*
X136615627Y-39087866D01*
X137775797Y-39761754D01*
X138771766Y-40607100D01*
X139650269Y-41533123D01*
X140197603Y-42196890D01*
X140741899Y-42932310D01*
X141101571Y-43469348D01*
X141507447Y-44145620D01*
X141819247Y-44756346D01*
X142048053Y-45380193D01*
X142240256Y-46397503D01*
X142351619Y-47470834D01*
X142392495Y-48482723D01*
X142387168Y-49368916D01*
X142307284Y-50863760D01*
X142150150Y-52386692D01*
X142019327Y-53333352D01*
X141866450Y-54274109D01*
X141624297Y-55552289D01*
X141417073Y-56510671D01*
X141239964Y-57255823D01*
X140908100Y-58493151D01*
X140690947Y-59161200D01*
X140688127Y-59185004D01*
X140677884Y-59206674D01*
X140598311Y-59524669D01*
X140592213Y-59649417D01*
X140582872Y-59773975D01*
X140648522Y-60311639D01*
X140684414Y-60420731D01*
X140714153Y-60531663D01*
X140997679Y-61106410D01*
X141024556Y-61141428D01*
X141041330Y-61182261D01*
X141344623Y-61639060D01*
X142030044Y-62720827D01*
X142407847Y-63661353D01*
X142566601Y-64870054D01*
X142549103Y-65335949D01*
X142416815Y-66227180D01*
X142086096Y-67249011D01*
X141770575Y-67867180D01*
X141427360Y-68372413D01*
X141319100Y-68506411D01*
X140928019Y-68908125D01*
X140884582Y-68975059D01*
X140831040Y-69034220D01*
X140812516Y-69086109D01*
X140782523Y-69132327D01*
X140768008Y-69210785D01*
X140741180Y-69285935D01*
X140743924Y-69340966D01*
X140733901Y-69395141D01*
X140750516Y-69473184D01*
X140754489Y-69552877D01*
X140778081Y-69602665D01*
X140789554Y-69656556D01*
X140834771Y-69722302D01*
X140868938Y-69794407D01*
X140909788Y-69831378D01*
X140941010Y-69876774D01*
X141007944Y-69920211D01*
X141067105Y-69973753D01*
X141118994Y-69992277D01*
X141165212Y-70022270D01*
X141243670Y-70036785D01*
X141318820Y-70063613D01*
X141664525Y-70114637D01*
X142325578Y-70219784D01*
X143457896Y-70481364D01*
X144146697Y-70740697D01*
X144845721Y-71135723D01*
X145280161Y-71477327D01*
X145813288Y-72037377D01*
X146322169Y-72768231D01*
X146834990Y-73787079D01*
X147199745Y-74771785D01*
X147482479Y-75765889D01*
X147687448Y-76679524D01*
X147952145Y-78264825D01*
X148060002Y-79140283D01*
X148150531Y-80069084D01*
X148205444Y-80807596D01*
X148253875Y-81818975D01*
X148271557Y-83036798D01*
X148243886Y-84290904D01*
X148149168Y-85808331D01*
X148042695Y-86878600D01*
X147923566Y-87811206D01*
X147743323Y-88962509D01*
X147600925Y-89741494D01*
X147322284Y-91064080D01*
X147069590Y-92111374D01*
X146583317Y-93873182D01*
X146208384Y-95079574D01*
X145890983Y-96028474D01*
X145401054Y-97396931D01*
X144849267Y-98836244D01*
X144502639Y-99700479D01*
X143845163Y-101283710D01*
X143430386Y-102260782D01*
X143047348Y-103160297D01*
X142839433Y-103611658D01*
X141818922Y-105174285D01*
X141138850Y-105879783D01*
X140306192Y-106533441D01*
X139585450Y-106968531D01*
X138706402Y-107376664D01*
X137836597Y-107675582D01*
X137028409Y-107875139D01*
X136455442Y-107975472D01*
X135850933Y-108045345D01*
X135039577Y-108075098D01*
X134913982Y-108104903D01*
X134788060Y-108132975D01*
X134784161Y-108135712D01*
X134779526Y-108136812D01*
X134674921Y-108212394D01*
X134569303Y-108286534D01*
X134566749Y-108290554D01*
X134562886Y-108293345D01*
X134495170Y-108403202D01*
X134425962Y-108512119D01*
X134065701Y-109441764D01*
X133719671Y-110186496D01*
X133149563Y-111230573D01*
X132155395Y-112718456D01*
X131062652Y-114033561D01*
X130228086Y-114869742D01*
X129189743Y-115743503D01*
X128105781Y-116485588D01*
X127434317Y-116866559D01*
X126893401Y-117132161D01*
X126003495Y-117493708D01*
X125228697Y-117736913D01*
X125134981Y-117788172D01*
X125037468Y-117831804D01*
X125018467Y-117851901D01*
X124994208Y-117865170D01*
X124927240Y-117948392D01*
X124853848Y-118026018D01*
X124843986Y-118051852D01*
X124826648Y-118073398D01*
X124796624Y-118175920D01*
X124758527Y-118275716D01*
X124664577Y-118828599D01*
X124505621Y-119688054D01*
X124031321Y-122153719D01*
X123793669Y-123366198D01*
X123689793Y-123890749D01*
X123406949Y-124726035D01*
X123091385Y-125442037D01*
X122635624Y-126332252D01*
X122254922Y-127005025D01*
X121491626Y-128233522D01*
X121271067Y-128562201D01*
X121266373Y-128573470D01*
X121258033Y-128582381D01*
X120639879Y-129577273D01*
X120639879Y-129577274D01*
X120250780Y-130203511D01*
X120250780Y-130203512D01*
X119807769Y-130916519D01*
X119837440Y-130770000D01*
X119837440Y-129770000D01*
X119793162Y-129534683D01*
X119654090Y-129318559D01*
X119441890Y-129173569D01*
X119190000Y-129122560D01*
X116440000Y-129122560D01*
X116204683Y-129166838D01*
X115988559Y-129305910D01*
X115849110Y-129510000D01*
X114017279Y-129510000D01*
X113894090Y-129318559D01*
X113681890Y-129173569D01*
X113430000Y-129122560D01*
X110680000Y-129122560D01*
X110444683Y-129166838D01*
X110228559Y-129305910D01*
X110107737Y-129482739D01*
X110002090Y-129318559D01*
X109789890Y-129173569D01*
X109538000Y-129122560D01*
X106788000Y-129122560D01*
X106552683Y-129166838D01*
X106336559Y-129305910D01*
X106197110Y-129510000D01*
X104365279Y-129510000D01*
X104242090Y-129318559D01*
X104029890Y-129173569D01*
X103778000Y-129122560D01*
X101028000Y-129122560D01*
X100792683Y-129166838D01*
X100576559Y-129305910D01*
X100431569Y-129518110D01*
X100380560Y-129770000D01*
X100380560Y-130770000D01*
X100424838Y-131005317D01*
X100563910Y-131221441D01*
X100776110Y-131366431D01*
X101028000Y-131417440D01*
X103778000Y-131417440D01*
X104013317Y-131373162D01*
X104229441Y-131234090D01*
X104368890Y-131030000D01*
X105145198Y-131030000D01*
X104810320Y-131364878D01*
X104764833Y-131364838D01*
X104421057Y-131506883D01*
X104157808Y-131769673D01*
X104015162Y-132113201D01*
X104014838Y-132485167D01*
X104156883Y-132828943D01*
X104419673Y-133092192D01*
X104763201Y-133234838D01*
X105135167Y-133235162D01*
X105478943Y-133093117D01*
X105742192Y-132830327D01*
X105884838Y-132486799D01*
X105884879Y-132439923D01*
X106907362Y-131417440D01*
X109538000Y-131417440D01*
X109720748Y-131383054D01*
X109421057Y-131506883D01*
X109157808Y-131769673D01*
X109015162Y-132113201D01*
X109014838Y-132485167D01*
X109156883Y-132828943D01*
X109419673Y-133092192D01*
X109763201Y-133234838D01*
X110135167Y-133235162D01*
X110478943Y-133093117D01*
X110742192Y-132830327D01*
X110884838Y-132486799D01*
X110884879Y-132439923D01*
X111907362Y-131417440D01*
X113430000Y-131417440D01*
X113665317Y-131373162D01*
X113881441Y-131234090D01*
X114020890Y-131030000D01*
X115852721Y-131030000D01*
X115975910Y-131221441D01*
X116188110Y-131366431D01*
X116440000Y-131417440D01*
X119190000Y-131417440D01*
X119425317Y-131373162D01*
X119589812Y-131267312D01*
X119557876Y-131318712D01*
X119545910Y-131350542D01*
X119525222Y-131377527D01*
X119096857Y-132247138D01*
X118407013Y-133163251D01*
X118219805Y-133385456D01*
X117531851Y-134144276D01*
X116618067Y-134969974D01*
X115291266Y-136052714D01*
X114443025Y-136706978D01*
X113875833Y-137132604D01*
X112996851Y-137774164D01*
X112569521Y-138018183D01*
X112544258Y-138040126D01*
X112513696Y-138053744D01*
X111591958Y-138705556D01*
X111566026Y-138732899D01*
X111533477Y-138751888D01*
X110966991Y-139253249D01*
X110948829Y-139277142D01*
X110924309Y-139294454D01*
X110391869Y-139855015D01*
X110373829Y-139883578D01*
X110348260Y-139905661D01*
X109742036Y-140683446D01*
X109726642Y-140714075D01*
X109703041Y-140738938D01*
X109274062Y-141418608D01*
X109259637Y-141456172D01*
X109235511Y-141488377D01*
X108777487Y-142444889D01*
X108769415Y-142476470D01*
X108752413Y-142504277D01*
X108464699Y-143286543D01*
X108463446Y-143294504D01*
X108459401Y-143301477D01*
X108144976Y-144221520D01*
X108144263Y-144226854D01*
X108141635Y-144231549D01*
X107798318Y-145289198D01*
X107797898Y-145292756D01*
X107796179Y-145295903D01*
X107530249Y-146144749D01*
X107529889Y-146148092D01*
X107528305Y-146151060D01*
X107132796Y-147457527D01*
X107131764Y-147468065D01*
X107127065Y-147477552D01*
X106946665Y-148146117D01*
X106683228Y-148874075D01*
X106433150Y-149457797D01*
X106063317Y-150222776D01*
X105693980Y-150912000D01*
X105340262Y-151515497D01*
X104888665Y-152142208D01*
X104465965Y-152547505D01*
X103921690Y-152948623D01*
X102502810Y-153692001D01*
X100776408Y-154297362D01*
X99136159Y-154698719D01*
X98001006Y-154904021D01*
X96757665Y-155064333D01*
X95358977Y-155239171D01*
X93447326Y-155417148D01*
X92583000Y-155474490D01*
X92583000Y-149098000D01*
X92574315Y-149051841D01*
X92547035Y-149009447D01*
X92505410Y-148981006D01*
X92456000Y-148971000D01*
X73914000Y-148971000D01*
X73867841Y-148979685D01*
X73825447Y-149006965D01*
X73797006Y-149048590D01*
X73787000Y-149098000D01*
X73787000Y-155409036D01*
X73217808Y-155362144D01*
X71198458Y-155154274D01*
X70615005Y-155085314D01*
X70677969Y-155072789D01*
X71159738Y-154750882D01*
X71200881Y-154709738D01*
X71522789Y-154227969D01*
X71635828Y-153659684D01*
X71522789Y-153091400D01*
X71200881Y-152609631D01*
X70719112Y-152287723D01*
X70150828Y-152174684D01*
X69762542Y-152251919D01*
X69839777Y-151863633D01*
X69801050Y-151668940D01*
X73899989Y-147570000D01*
X73965606Y-147570000D01*
X74279591Y-147779797D01*
X74733071Y-147870000D01*
X76206929Y-147870000D01*
X76660409Y-147779797D01*
X77044851Y-147522922D01*
X77301726Y-147138480D01*
X77391929Y-146685000D01*
X77301726Y-146231520D01*
X77044851Y-145847078D01*
X76802283Y-145685000D01*
X77044851Y-145522922D01*
X77301726Y-145138480D01*
X77391929Y-144685000D01*
X88948071Y-144685000D01*
X89038274Y-145138480D01*
X89295149Y-145522922D01*
X89345871Y-145556813D01*
X89168559Y-145670910D01*
X89023569Y-145883110D01*
X88972560Y-146135000D01*
X88972560Y-147235000D01*
X89016838Y-147470317D01*
X89155910Y-147686441D01*
X89368110Y-147831431D01*
X89620000Y-147882440D01*
X92120000Y-147882440D01*
X92355317Y-147838162D01*
X92571441Y-147699090D01*
X92716431Y-147486890D01*
X92767440Y-147235000D01*
X92767440Y-146135000D01*
X92723162Y-145899683D01*
X92584090Y-145683559D01*
X92396385Y-145555306D01*
X92444851Y-145522922D01*
X92701726Y-145138480D01*
X92791929Y-144685000D01*
X92701726Y-144231520D01*
X92444851Y-143847078D01*
X92198863Y-143682715D01*
X92497724Y-143433118D01*
X92713398Y-143021146D01*
X92713803Y-142994744D01*
X92588361Y-142812000D01*
X90997000Y-142812000D01*
X90997000Y-142832000D01*
X90743000Y-142832000D01*
X90743000Y-142812000D01*
X89151639Y-142812000D01*
X89026197Y-142994744D01*
X89026602Y-143021146D01*
X89242276Y-143433118D01*
X89541137Y-143682715D01*
X89295149Y-143847078D01*
X89038274Y-144231520D01*
X88948071Y-144685000D01*
X77391929Y-144685000D01*
X77301726Y-144231520D01*
X77044851Y-143847078D01*
X76802283Y-143685000D01*
X77044851Y-143522922D01*
X77123644Y-143405000D01*
X79003793Y-143405000D01*
X79061201Y-143428838D01*
X79433167Y-143429162D01*
X79776943Y-143287117D01*
X80040192Y-143024327D01*
X80182838Y-142680799D01*
X80183162Y-142308833D01*
X80041117Y-141965057D01*
X79778327Y-141701808D01*
X79434799Y-141559162D01*
X79062833Y-141558838D01*
X78719057Y-141700883D01*
X78455808Y-141963673D01*
X78455257Y-141965000D01*
X77123644Y-141965000D01*
X77044851Y-141847078D01*
X76802283Y-141685000D01*
X77044851Y-141522922D01*
X77123644Y-141405000D01*
X80041000Y-141405000D01*
X80082012Y-141396842D01*
X80449167Y-141397162D01*
X80792943Y-141255117D01*
X81056192Y-140992327D01*
X81198838Y-140648799D01*
X81199162Y-140276833D01*
X81057117Y-139933057D01*
X80794327Y-139669808D01*
X80450799Y-139527162D01*
X80078833Y-139526838D01*
X79735057Y-139668883D01*
X79471808Y-139931673D01*
X79457969Y-139965000D01*
X77123644Y-139965000D01*
X77044851Y-139847078D01*
X76802283Y-139685000D01*
X77044851Y-139522922D01*
X77301726Y-139138480D01*
X77391929Y-138685000D01*
X77301726Y-138231520D01*
X77044851Y-137847078D01*
X76802283Y-137685000D01*
X77044851Y-137522922D01*
X77301726Y-137138480D01*
X77391929Y-136685000D01*
X77301726Y-136231520D01*
X77044851Y-135847078D01*
X76852283Y-135718409D01*
X77144851Y-135522922D01*
X77401726Y-135138480D01*
X77491929Y-134685000D01*
X88948071Y-134685000D01*
X89038274Y-135138480D01*
X89295149Y-135522922D01*
X89537717Y-135685000D01*
X89295149Y-135847078D01*
X89038274Y-136231520D01*
X88948071Y-136685000D01*
X89038274Y-137138480D01*
X89295149Y-137522922D01*
X89537717Y-137685000D01*
X89295149Y-137847078D01*
X89038274Y-138231520D01*
X88948071Y-138685000D01*
X89038274Y-139138480D01*
X89295149Y-139522922D01*
X89537717Y-139685000D01*
X89295149Y-139847078D01*
X89038274Y-140231520D01*
X88948071Y-140685000D01*
X89038274Y-141138480D01*
X89295149Y-141522922D01*
X89541137Y-141687285D01*
X89242276Y-141936882D01*
X89026602Y-142348854D01*
X89026197Y-142375256D01*
X89151639Y-142558000D01*
X90743000Y-142558000D01*
X90743000Y-142538000D01*
X90997000Y-142538000D01*
X90997000Y-142558000D01*
X92588361Y-142558000D01*
X92713803Y-142375256D01*
X92713398Y-142348854D01*
X92497724Y-141936882D01*
X92198863Y-141687285D01*
X92444851Y-141522922D01*
X92496917Y-141445000D01*
X92772563Y-141445000D01*
X92819673Y-141492192D01*
X93163201Y-141634838D01*
X93535167Y-141635162D01*
X93878943Y-141493117D01*
X94142192Y-141230327D01*
X94284838Y-140886799D01*
X94285162Y-140514833D01*
X94143117Y-140171057D01*
X93880327Y-139907808D01*
X93536799Y-139765162D01*
X93164833Y-139764838D01*
X92821057Y-139906883D01*
X92802908Y-139925000D01*
X92496917Y-139925000D01*
X92444851Y-139847078D01*
X92202283Y-139685000D01*
X92444851Y-139522922D01*
X92496917Y-139445000D01*
X92772563Y-139445000D01*
X92819673Y-139492192D01*
X93163201Y-139634838D01*
X93535167Y-139635162D01*
X93878943Y-139493117D01*
X94142192Y-139230327D01*
X94284838Y-138886799D01*
X94285162Y-138514833D01*
X94143117Y-138171057D01*
X93880327Y-137907808D01*
X93536799Y-137765162D01*
X93164833Y-137764838D01*
X92821057Y-137906883D01*
X92802908Y-137925000D01*
X92496917Y-137925000D01*
X92444851Y-137847078D01*
X92202283Y-137685000D01*
X92444851Y-137522922D01*
X92496917Y-137445000D01*
X92772563Y-137445000D01*
X92819673Y-137492192D01*
X93163201Y-137634838D01*
X93535167Y-137635162D01*
X93878943Y-137493117D01*
X94142192Y-137230327D01*
X94284838Y-136886799D01*
X94285162Y-136514833D01*
X94143117Y-136171057D01*
X93880327Y-135907808D01*
X93536799Y-135765162D01*
X93164833Y-135764838D01*
X92821057Y-135906883D01*
X92802908Y-135925000D01*
X92496917Y-135925000D01*
X92444851Y-135847078D01*
X92202283Y-135685000D01*
X92444851Y-135522922D01*
X92701726Y-135138480D01*
X92791929Y-134685000D01*
X92701726Y-134231520D01*
X92444851Y-133847078D01*
X92198863Y-133682715D01*
X92497724Y-133433118D01*
X92713398Y-133021146D01*
X92713803Y-132994744D01*
X92588361Y-132812000D01*
X90997000Y-132812000D01*
X90997000Y-132832000D01*
X90743000Y-132832000D01*
X90743000Y-132812000D01*
X89151639Y-132812000D01*
X89026197Y-132994744D01*
X89026602Y-133021146D01*
X89242276Y-133433118D01*
X89541137Y-133682715D01*
X89295149Y-133847078D01*
X89038274Y-134231520D01*
X88948071Y-134685000D01*
X77491929Y-134685000D01*
X77401726Y-134231520D01*
X77144851Y-133847078D01*
X76852283Y-133651591D01*
X77044851Y-133522922D01*
X77301726Y-133138480D01*
X77391929Y-132685000D01*
X77347696Y-132462626D01*
X77726520Y-132715747D01*
X78180000Y-132805950D01*
X78633480Y-132715747D01*
X79017922Y-132458872D01*
X79180000Y-132216304D01*
X79342078Y-132458872D01*
X79726520Y-132715747D01*
X80180000Y-132805950D01*
X80633480Y-132715747D01*
X81017922Y-132458872D01*
X81180000Y-132216304D01*
X81342078Y-132458872D01*
X81726520Y-132715747D01*
X82180000Y-132805950D01*
X82633480Y-132715747D01*
X83017922Y-132458872D01*
X83180000Y-132216304D01*
X83342078Y-132458872D01*
X83726520Y-132715747D01*
X84180000Y-132805950D01*
X84633480Y-132715747D01*
X85017922Y-132458872D01*
X85180000Y-132216304D01*
X85342078Y-132458872D01*
X85726520Y-132715747D01*
X86180000Y-132805950D01*
X86633480Y-132715747D01*
X87017922Y-132458872D01*
X87180000Y-132216304D01*
X87342078Y-132458872D01*
X87726520Y-132715747D01*
X88180000Y-132805950D01*
X88633480Y-132715747D01*
X89017922Y-132458872D01*
X89050315Y-132410392D01*
X89151639Y-132558000D01*
X90743000Y-132558000D01*
X90743000Y-131500000D01*
X90997000Y-131500000D01*
X90997000Y-132558000D01*
X92588361Y-132558000D01*
X92713803Y-132375256D01*
X92713398Y-132348854D01*
X92497724Y-131936882D01*
X92140813Y-131638804D01*
X91697000Y-131500000D01*
X90997000Y-131500000D01*
X90743000Y-131500000D01*
X90043000Y-131500000D01*
X89599187Y-131638804D01*
X89314087Y-131876909D01*
X89365000Y-131620950D01*
X89365000Y-130249050D01*
X89274797Y-129795570D01*
X89017922Y-129411128D01*
X88633480Y-129154253D01*
X88180000Y-129064050D01*
X87726520Y-129154253D01*
X87342078Y-129411128D01*
X87180000Y-129653696D01*
X87017922Y-129411128D01*
X86633480Y-129154253D01*
X86180000Y-129064050D01*
X85726520Y-129154253D01*
X85342078Y-129411128D01*
X85180000Y-129653696D01*
X85017922Y-129411128D01*
X84900000Y-129332335D01*
X84900000Y-129272445D01*
X84942192Y-129230327D01*
X85084838Y-128886799D01*
X85085162Y-128514833D01*
X84943117Y-128171057D01*
X84680327Y-127907808D01*
X84336799Y-127765162D01*
X83964833Y-127764838D01*
X83621057Y-127906883D01*
X83357808Y-128169673D01*
X83215162Y-128513201D01*
X83214838Y-128885167D01*
X83356883Y-129228943D01*
X83460000Y-129332240D01*
X83460000Y-129332335D01*
X83342078Y-129411128D01*
X83180000Y-129653696D01*
X83017922Y-129411128D01*
X82900000Y-129332335D01*
X82900000Y-129272445D01*
X82942192Y-129230327D01*
X83084838Y-128886799D01*
X83085162Y-128514833D01*
X82943117Y-128171057D01*
X82680327Y-127907808D01*
X82336799Y-127765162D01*
X81964833Y-127764838D01*
X81621057Y-127906883D01*
X81357808Y-128169673D01*
X81215162Y-128513201D01*
X81214838Y-128885167D01*
X81356883Y-129228943D01*
X81460000Y-129332240D01*
X81460000Y-129332335D01*
X81342078Y-129411128D01*
X81180000Y-129653696D01*
X81017922Y-129411128D01*
X80633480Y-129154253D01*
X80180000Y-129064050D01*
X79726520Y-129154253D01*
X79342078Y-129411128D01*
X79180000Y-129653696D01*
X79017922Y-129411128D01*
X78633480Y-129154253D01*
X78180000Y-129064050D01*
X77726520Y-129154253D01*
X77342078Y-129411128D01*
X77085203Y-129795570D01*
X77009729Y-130175000D01*
X73944746Y-130175000D01*
X73943117Y-130171057D01*
X73680327Y-129907808D01*
X73336799Y-129765162D01*
X72964833Y-129764838D01*
X72621057Y-129906883D01*
X72357808Y-130169673D01*
X72215162Y-130513201D01*
X72214838Y-130885167D01*
X72356883Y-131228943D01*
X72619673Y-131492192D01*
X72963201Y-131634838D01*
X73090869Y-131634949D01*
X73094160Y-131637148D01*
X73385000Y-131695000D01*
X74122751Y-131695000D01*
X73895149Y-131847078D01*
X73816356Y-131965000D01*
X73737419Y-131965000D01*
X73680327Y-131907808D01*
X73336799Y-131765162D01*
X72964833Y-131764838D01*
X72621057Y-131906883D01*
X72357808Y-132169673D01*
X72215162Y-132513201D01*
X72214838Y-132885167D01*
X72356883Y-133228943D01*
X72403952Y-133276094D01*
X72136799Y-133165162D01*
X71764833Y-133164838D01*
X71421057Y-133306883D01*
X71157808Y-133569673D01*
X71015162Y-133913201D01*
X71014838Y-134285167D01*
X71156883Y-134628943D01*
X71419673Y-134892192D01*
X71763201Y-135034838D01*
X71810077Y-135034879D01*
X71997599Y-135222401D01*
X72244161Y-135387148D01*
X72535000Y-135445000D01*
X73943083Y-135445000D01*
X73995149Y-135522922D01*
X74187717Y-135651591D01*
X73895149Y-135847078D01*
X73816356Y-135965000D01*
X69633234Y-135965000D01*
X67259117Y-133590883D01*
X67025532Y-133434807D01*
X66750000Y-133380000D01*
X53048234Y-133380000D01*
X52777370Y-133109136D01*
X52947003Y-133038871D01*
X53125631Y-132860242D01*
X53293881Y-132691993D01*
X53293881Y-132467486D01*
X52516594Y-131690199D01*
X52502452Y-131704342D01*
X52322846Y-131524736D01*
X52336989Y-131510594D01*
X52696199Y-131510594D01*
X53473486Y-132287881D01*
X53697993Y-132287881D01*
X53866242Y-132119631D01*
X54044871Y-131941003D01*
X54141544Y-131707614D01*
X54141543Y-131454995D01*
X54044870Y-131221606D01*
X53627282Y-130804018D01*
X53402776Y-130804018D01*
X52696199Y-131510594D01*
X52336989Y-131510594D01*
X52322847Y-131496452D01*
X52502452Y-131316847D01*
X52516594Y-131330989D01*
X53223170Y-130624412D01*
X53223170Y-130399906D01*
X52805582Y-129982318D01*
X52572193Y-129885645D01*
X52319574Y-129885644D01*
X52183588Y-129941971D01*
X52190249Y-129932223D01*
X52244733Y-129681061D01*
X52197209Y-129428490D01*
X52055164Y-129214308D01*
X51367406Y-128526550D01*
X51367406Y-128462558D01*
X51574228Y-128669380D01*
X51771931Y-128804465D01*
X52023093Y-128858949D01*
X52117230Y-128841236D01*
X53529800Y-130253807D01*
X53513051Y-130331019D01*
X53560575Y-130583590D01*
X53702620Y-130797772D01*
X55647163Y-132742315D01*
X55844866Y-132877400D01*
X56096028Y-132931884D01*
X56348599Y-132884360D01*
X56562781Y-132742315D01*
X57269888Y-132035208D01*
X57404973Y-131837505D01*
X57459457Y-131586343D01*
X57411933Y-131333772D01*
X57269888Y-131119590D01*
X55325345Y-129175047D01*
X55127642Y-129039962D01*
X54876480Y-128985478D01*
X54782343Y-129003191D01*
X53369773Y-127590620D01*
X53386522Y-127513408D01*
X53338998Y-127260837D01*
X53196953Y-127046655D01*
X51252410Y-125102112D01*
X51054707Y-124967027D01*
X50803545Y-124912543D01*
X50585140Y-124953638D01*
X50626949Y-124760907D01*
X50609236Y-124666770D01*
X52021807Y-123254200D01*
X52099019Y-123270949D01*
X52187203Y-123254356D01*
X52285292Y-123352445D01*
X52268543Y-123429657D01*
X52316067Y-123682228D01*
X52458112Y-123896410D01*
X54402655Y-125840953D01*
X54600358Y-125976038D01*
X54851520Y-126030522D01*
X54945657Y-126012809D01*
X55258635Y-126325787D01*
X55258637Y-126325790D01*
X56358227Y-127425380D01*
X56341478Y-127502592D01*
X56389002Y-127755163D01*
X56531047Y-127969345D01*
X58475590Y-129913888D01*
X58673293Y-130048973D01*
X58924455Y-130103457D01*
X59177026Y-130055933D01*
X59391208Y-129913888D01*
X60098315Y-129206781D01*
X60233400Y-129009078D01*
X60287884Y-128757916D01*
X60240360Y-128505345D01*
X60098315Y-128291163D01*
X59138658Y-127331506D01*
X59337337Y-127331506D01*
X59570726Y-127234833D01*
X60430256Y-126375303D01*
X60430256Y-126150797D01*
X59829746Y-125550286D01*
X59815604Y-125564429D01*
X59635999Y-125384824D01*
X59650141Y-125370681D01*
X60009351Y-125370681D01*
X60609862Y-125971191D01*
X60834368Y-125971191D01*
X61035559Y-125770000D01*
X100380560Y-125770000D01*
X100380560Y-126770000D01*
X100424838Y-127005317D01*
X100563910Y-127221441D01*
X100776110Y-127366431D01*
X101028000Y-127417440D01*
X103778000Y-127417440D01*
X104013317Y-127373162D01*
X104229441Y-127234090D01*
X104368890Y-127030000D01*
X106200721Y-127030000D01*
X106323910Y-127221441D01*
X106536110Y-127366431D01*
X106788000Y-127417440D01*
X109538000Y-127417440D01*
X109773317Y-127373162D01*
X109989441Y-127234090D01*
X110110263Y-127057261D01*
X110215910Y-127221441D01*
X110428110Y-127366431D01*
X110680000Y-127417440D01*
X113430000Y-127417440D01*
X113665317Y-127373162D01*
X113881441Y-127234090D01*
X114020890Y-127030000D01*
X115852721Y-127030000D01*
X115975910Y-127221441D01*
X116188110Y-127366431D01*
X116440000Y-127417440D01*
X119190000Y-127417440D01*
X119425317Y-127373162D01*
X119641441Y-127234090D01*
X119786431Y-127021890D01*
X119792889Y-126990000D01*
X120917659Y-126990000D01*
X121019673Y-127092192D01*
X121363201Y-127234838D01*
X121735167Y-127235162D01*
X122078943Y-127093117D01*
X122342192Y-126830327D01*
X122484838Y-126486799D01*
X122485162Y-126114833D01*
X122343117Y-125771057D01*
X122080327Y-125507808D01*
X121736799Y-125365162D01*
X121364833Y-125364838D01*
X121021057Y-125506883D01*
X120977865Y-125550000D01*
X119796044Y-125550000D01*
X119793162Y-125534683D01*
X119654090Y-125318559D01*
X119441890Y-125173569D01*
X119190000Y-125122560D01*
X116440000Y-125122560D01*
X116204683Y-125166838D01*
X115988559Y-125305910D01*
X115849110Y-125510000D01*
X114017279Y-125510000D01*
X113894090Y-125318559D01*
X113681890Y-125173569D01*
X113430000Y-125122560D01*
X110680000Y-125122560D01*
X110444683Y-125166838D01*
X110228559Y-125305910D01*
X110107737Y-125482739D01*
X110002090Y-125318559D01*
X109789890Y-125173569D01*
X109538000Y-125122560D01*
X106788000Y-125122560D01*
X106552683Y-125166838D01*
X106336559Y-125305910D01*
X106197110Y-125510000D01*
X104365279Y-125510000D01*
X104242090Y-125318559D01*
X104029890Y-125173569D01*
X103778000Y-125122560D01*
X101028000Y-125122560D01*
X100792683Y-125166838D01*
X100576559Y-125305910D01*
X100431569Y-125518110D01*
X100380560Y-125770000D01*
X61035559Y-125770000D01*
X61693898Y-125111661D01*
X61790571Y-124878272D01*
X61790571Y-124625653D01*
X61693899Y-124392264D01*
X61515270Y-124213636D01*
X61453086Y-124151452D01*
X61228580Y-124151452D01*
X60009351Y-125370681D01*
X59650141Y-125370681D01*
X59049630Y-124770171D01*
X58825124Y-124770171D01*
X57965594Y-125629701D01*
X57868921Y-125863090D01*
X57868921Y-126115709D01*
X57903928Y-126200224D01*
X57704907Y-126157051D01*
X57610770Y-126174764D01*
X56510217Y-125074210D01*
X56510214Y-125074208D01*
X56198200Y-124762193D01*
X56214949Y-124684981D01*
X56174940Y-124472350D01*
X56373657Y-124515457D01*
X56626228Y-124467933D01*
X56779838Y-124366059D01*
X59229236Y-124366059D01*
X59229236Y-124590565D01*
X59829746Y-125191076D01*
X61048975Y-123971847D01*
X61048975Y-123747341D01*
X60986791Y-123685157D01*
X60808163Y-123506528D01*
X60574774Y-123409856D01*
X60322155Y-123409856D01*
X60088766Y-123506529D01*
X59229236Y-124366059D01*
X56779838Y-124366059D01*
X56840410Y-124325888D01*
X58469718Y-122696580D01*
X62683452Y-122696580D01*
X62683452Y-122921086D01*
X62745636Y-122983270D01*
X62924264Y-123161899D01*
X63157653Y-123258571D01*
X63410272Y-123258571D01*
X63643661Y-123161898D01*
X64503191Y-122302368D01*
X64503191Y-122077862D01*
X63902681Y-121477351D01*
X62683452Y-122696580D01*
X58469718Y-122696580D01*
X58784953Y-122381345D01*
X58902328Y-122209561D01*
X58963201Y-122234838D01*
X59335167Y-122235162D01*
X59678943Y-122093117D01*
X59942192Y-121830327D01*
X59958872Y-121790155D01*
X61941856Y-121790155D01*
X61941856Y-122042774D01*
X62038528Y-122276163D01*
X62217157Y-122454791D01*
X62279341Y-122516975D01*
X62503847Y-122516975D01*
X63723076Y-121297746D01*
X63122565Y-120697236D01*
X62898059Y-120697236D01*
X62038529Y-121556766D01*
X61941856Y-121790155D01*
X59958872Y-121790155D01*
X60084838Y-121486799D01*
X60085162Y-121114833D01*
X59943117Y-120771057D01*
X59895259Y-120723116D01*
X60224115Y-120394260D01*
X60446592Y-120442522D01*
X60699163Y-120394998D01*
X60913345Y-120252953D01*
X62857888Y-118308410D01*
X62969786Y-118144642D01*
X63174308Y-118349164D01*
X63372011Y-118484249D01*
X63623173Y-118538733D01*
X63875744Y-118491209D01*
X63886872Y-118483829D01*
X63833267Y-118730939D01*
X63880791Y-118983510D01*
X64022836Y-119197692D01*
X64230316Y-119405172D01*
X64161701Y-119433594D01*
X63302171Y-120293124D01*
X63302171Y-120517630D01*
X63902681Y-121118141D01*
X63916824Y-121103999D01*
X64096429Y-121283604D01*
X64082286Y-121297746D01*
X64682797Y-121898256D01*
X64907303Y-121898256D01*
X65766833Y-121038726D01*
X65863506Y-120805337D01*
X65863506Y-120552718D01*
X65797077Y-120392343D01*
X65999114Y-120258352D01*
X66686872Y-119570594D01*
X68208485Y-119570594D01*
X68363201Y-119634838D01*
X68735167Y-119635162D01*
X69078943Y-119493117D01*
X69342192Y-119230327D01*
X69395478Y-119102000D01*
X91617560Y-119102000D01*
X91617560Y-120102000D01*
X91661838Y-120337317D01*
X91800910Y-120553441D01*
X92013110Y-120698431D01*
X92265000Y-120749440D01*
X95015000Y-120749440D01*
X95250317Y-120705162D01*
X95466441Y-120566090D01*
X95611431Y-120353890D01*
X95617889Y-120322000D01*
X97418956Y-120322000D01*
X97421838Y-120337317D01*
X97560910Y-120553441D01*
X97773110Y-120698431D01*
X98025000Y-120749440D01*
X99324638Y-120749440D01*
X99390000Y-120814802D01*
X99390000Y-120937537D01*
X99357808Y-120969673D01*
X99215162Y-121313201D01*
X99214838Y-121685167D01*
X99356883Y-122028943D01*
X99619673Y-122292192D01*
X99963201Y-122434838D01*
X100335167Y-122435162D01*
X100678943Y-122293117D01*
X100942192Y-122030327D01*
X101084838Y-121686799D01*
X101085162Y-121314833D01*
X100943117Y-120971057D01*
X100910000Y-120937882D01*
X100910000Y-120724038D01*
X101010317Y-120705162D01*
X101226441Y-120566090D01*
X101371431Y-120353890D01*
X101422440Y-120102000D01*
X101422440Y-119102000D01*
X101378162Y-118866683D01*
X101239090Y-118650559D01*
X101026890Y-118505569D01*
X100775000Y-118454560D01*
X98025000Y-118454560D01*
X97789683Y-118498838D01*
X97573559Y-118637910D01*
X97428569Y-118850110D01*
X97422111Y-118882000D01*
X95621044Y-118882000D01*
X95618162Y-118866683D01*
X95479090Y-118650559D01*
X95266890Y-118505569D01*
X95015000Y-118454560D01*
X92265000Y-118454560D01*
X92029683Y-118498838D01*
X91813559Y-118637910D01*
X91668569Y-118850110D01*
X91617560Y-119102000D01*
X69395478Y-119102000D01*
X69484838Y-118886799D01*
X69485162Y-118514833D01*
X69343117Y-118171057D01*
X69080327Y-117907808D01*
X68736799Y-117765162D01*
X68364833Y-117764838D01*
X68021057Y-117906883D01*
X67877095Y-118050594D01*
X66545450Y-118050594D01*
X65857692Y-117362836D01*
X65659989Y-117227751D01*
X65408827Y-117173267D01*
X65156256Y-117220791D01*
X65145128Y-117228171D01*
X65198733Y-116981061D01*
X65151209Y-116728490D01*
X65009164Y-116514308D01*
X63948504Y-115453648D01*
X63750801Y-115318563D01*
X63499639Y-115264079D01*
X63247068Y-115311603D01*
X63032886Y-115453648D01*
X62158298Y-116328236D01*
X62104766Y-116364005D01*
X61924393Y-116544378D01*
X61701916Y-116496116D01*
X61449345Y-116543640D01*
X61235163Y-116685685D01*
X60683865Y-117236983D01*
X60698006Y-117171794D01*
X60650482Y-116919223D01*
X60508437Y-116705041D01*
X58563894Y-114760498D01*
X58366191Y-114625413D01*
X58115029Y-114570929D01*
X57930460Y-114605658D01*
X57285122Y-113960320D01*
X57285162Y-113914833D01*
X57143117Y-113571057D01*
X56880327Y-113307808D01*
X56536799Y-113165162D01*
X56489923Y-113165121D01*
X56470374Y-113145572D01*
X56506277Y-112980065D01*
X56458753Y-112727494D01*
X56316708Y-112513312D01*
X54372165Y-110568769D01*
X54174462Y-110433684D01*
X53923300Y-110379200D01*
X53670729Y-110426724D01*
X53456547Y-110568769D01*
X52749440Y-111275876D01*
X52614355Y-111473579D01*
X52559871Y-111724741D01*
X52607395Y-111977312D01*
X52749440Y-112191494D01*
X54693983Y-114136037D01*
X54891686Y-114271122D01*
X55142848Y-114325606D01*
X55395419Y-114278082D01*
X55414855Y-114265192D01*
X55414838Y-114285167D01*
X55556883Y-114628943D01*
X55819673Y-114892192D01*
X56163201Y-115034838D01*
X56210077Y-115034879D01*
X56820057Y-115644859D01*
X56806084Y-115665308D01*
X56751600Y-115916470D01*
X56799124Y-116169041D01*
X56941169Y-116383223D01*
X58885712Y-118327766D01*
X59083415Y-118462851D01*
X59334577Y-118517335D01*
X59419490Y-118501358D01*
X59290620Y-118630228D01*
X59155535Y-118827931D01*
X59101051Y-119079093D01*
X59146759Y-119322012D01*
X57851458Y-120617313D01*
X57628981Y-120569051D01*
X57376410Y-120616575D01*
X57162228Y-120758620D01*
X57035194Y-120885654D01*
X57049335Y-120820465D01*
X57001811Y-120567894D01*
X56859766Y-120353712D01*
X56357564Y-119851510D01*
X56371255Y-119782681D01*
X56312777Y-119488699D01*
X56303887Y-119444006D01*
X56246254Y-119357752D01*
X56246254Y-117665454D01*
X56188402Y-117374615D01*
X56023655Y-117128053D01*
X55697522Y-116801920D01*
X55697562Y-116756433D01*
X55555517Y-116412657D01*
X55292727Y-116149408D01*
X55000284Y-116027974D01*
X54880327Y-115907808D01*
X54536799Y-115765162D01*
X54164833Y-115764838D01*
X53821057Y-115906883D01*
X53557808Y-116169673D01*
X53430769Y-116475616D01*
X52039109Y-115083956D01*
X51751993Y-114892113D01*
X51413319Y-114824745D01*
X51344490Y-114838436D01*
X50723494Y-114217440D01*
X50525791Y-114082355D01*
X50274629Y-114027871D01*
X50022058Y-114075395D01*
X49807876Y-114217440D01*
X49100769Y-114924547D01*
X48965684Y-115122250D01*
X48911200Y-115373412D01*
X48958724Y-115625983D01*
X49100769Y-115840165D01*
X50002726Y-116742122D01*
X48114620Y-118630228D01*
X47979535Y-118827931D01*
X47925051Y-119079093D01*
X47942764Y-119173230D01*
X46568424Y-120547570D01*
X46527467Y-120341668D01*
X46362720Y-120095106D01*
X45456905Y-119189291D01*
X45586249Y-118999989D01*
X45640733Y-118748827D01*
X45593209Y-118496256D01*
X45574386Y-118467874D01*
X45715574Y-118526356D01*
X45968193Y-118526355D01*
X46201582Y-118429682D01*
X46619170Y-118012094D01*
X46619170Y-117787588D01*
X45912594Y-117081011D01*
X45898452Y-117095154D01*
X45718847Y-116915549D01*
X45732989Y-116901406D01*
X46092199Y-116901406D01*
X46798776Y-117607982D01*
X47023282Y-117607982D01*
X47440870Y-117190394D01*
X47537543Y-116957005D01*
X47537544Y-116704386D01*
X47440871Y-116470997D01*
X47262242Y-116292369D01*
X47093993Y-116124119D01*
X46869486Y-116124119D01*
X46092199Y-116901406D01*
X45732989Y-116901406D01*
X45026412Y-116194830D01*
X44801906Y-116194830D01*
X44384318Y-116612418D01*
X44287645Y-116845807D01*
X44287644Y-117098426D01*
X44343971Y-117234412D01*
X44334223Y-117227751D01*
X44083061Y-117173267D01*
X43830490Y-117220791D01*
X43616308Y-117362836D01*
X42555648Y-118423496D01*
X42420563Y-118621199D01*
X42366079Y-118872361D01*
X42413603Y-119124932D01*
X42555648Y-119339114D01*
X43474886Y-120258352D01*
X43672589Y-120393437D01*
X43923751Y-120447921D01*
X44176322Y-120400397D01*
X44382001Y-120263991D01*
X45065319Y-120947309D01*
X45065319Y-121679529D01*
X44041685Y-122703163D01*
X43906600Y-122900866D01*
X43852116Y-123152028D01*
X43899640Y-123404599D01*
X44041685Y-123618781D01*
X44748792Y-124325888D01*
X44946495Y-124460973D01*
X45197657Y-124515457D01*
X45450228Y-124467933D01*
X45468000Y-124456147D01*
X45468000Y-128270000D01*
X45525852Y-128560839D01*
X45690599Y-128807401D01*
X46191410Y-129308212D01*
X51698589Y-135117531D01*
X51706870Y-135123390D01*
X51712498Y-135131821D01*
X51827592Y-135208800D01*
X51940666Y-135288799D01*
X51950556Y-135291042D01*
X51958985Y-135296680D01*
X52094807Y-135323761D01*
X52229858Y-135354393D01*
X52239852Y-135352681D01*
X52249798Y-135354664D01*
X59169702Y-135357800D01*
X59157808Y-135369673D01*
X59015162Y-135713201D01*
X59014838Y-136085167D01*
X59156883Y-136428943D01*
X59419673Y-136692192D01*
X59763201Y-136834838D01*
X60135167Y-136835162D01*
X60478943Y-136693117D01*
X60562205Y-136610000D01*
X60616436Y-136610000D01*
X60642838Y-136750317D01*
X60781910Y-136966441D01*
X60994110Y-137111431D01*
X61246000Y-137162440D01*
X61279270Y-137162440D01*
X61330807Y-137421532D01*
X61486883Y-137655117D01*
X62324883Y-138493117D01*
X62558468Y-138649193D01*
X62632907Y-138664000D01*
X61495440Y-138664000D01*
X61495440Y-137854000D01*
X61451162Y-137618683D01*
X61312090Y-137402559D01*
X61099890Y-137257569D01*
X60848000Y-137206560D01*
X59548000Y-137206560D01*
X59312683Y-137250838D01*
X59096559Y-137389910D01*
X58951569Y-137602110D01*
X58900560Y-137854000D01*
X58900560Y-139354000D01*
X58944838Y-139589317D01*
X59083910Y-139805441D01*
X59296110Y-139950431D01*
X59329490Y-139957191D01*
X59188301Y-140015673D01*
X59009673Y-140194302D01*
X58913000Y-140427691D01*
X58913000Y-141018250D01*
X59071750Y-141177000D01*
X60071000Y-141177000D01*
X60071000Y-141157000D01*
X60325000Y-141157000D01*
X60325000Y-141177000D01*
X60345000Y-141177000D01*
X60345000Y-141431000D01*
X60325000Y-141431000D01*
X60325000Y-142530250D01*
X60483750Y-142689000D01*
X60974310Y-142689000D01*
X61207699Y-142592327D01*
X61352876Y-142447149D01*
X61369673Y-142487699D01*
X61548302Y-142666327D01*
X61781691Y-142763000D01*
X62372250Y-142763000D01*
X62531000Y-142604250D01*
X62531000Y-141605000D01*
X62511000Y-141605000D01*
X62511000Y-141351000D01*
X62531000Y-141351000D01*
X62531000Y-140351750D01*
X62372250Y-140193000D01*
X61781691Y-140193000D01*
X61548302Y-140289673D01*
X61461702Y-140376273D01*
X61386327Y-140194302D01*
X61296026Y-140104000D01*
X62961661Y-140104000D01*
X63091917Y-140193000D01*
X62943750Y-140193000D01*
X62785000Y-140351750D01*
X62785000Y-141351000D01*
X62805000Y-141351000D01*
X62805000Y-141605000D01*
X62785000Y-141605000D01*
X62785000Y-142604250D01*
X62943750Y-142763000D01*
X63534309Y-142763000D01*
X63767698Y-142666327D01*
X63946327Y-142487699D01*
X64002654Y-142351713D01*
X64004838Y-142363317D01*
X64143910Y-142579441D01*
X64356110Y-142724431D01*
X64608000Y-142775440D01*
X66108000Y-142775440D01*
X66343317Y-142731162D01*
X66559441Y-142592090D01*
X66704431Y-142379890D01*
X66741265Y-142198000D01*
X72091766Y-142198000D01*
X73087883Y-143194117D01*
X73321468Y-143350193D01*
X73597000Y-143405000D01*
X73816356Y-143405000D01*
X73895149Y-143522922D01*
X74137717Y-143685000D01*
X73965606Y-143800000D01*
X71941313Y-143800000D01*
X71941308Y-143799999D01*
X71658824Y-143856190D01*
X71602633Y-143867367D01*
X71315518Y-144059210D01*
X71315516Y-144059213D01*
X66753419Y-148621309D01*
X66558726Y-148582582D01*
X66156842Y-148662522D01*
X66210438Y-148514010D01*
X66183588Y-147935210D01*
X66013739Y-147525184D01*
X65765395Y-147448414D01*
X64921707Y-148292102D01*
X64935850Y-148306245D01*
X64756245Y-148485850D01*
X64742102Y-148471707D01*
X63898414Y-149315395D01*
X63975184Y-149563739D01*
X64385210Y-149733588D01*
X64964010Y-149760438D01*
X65112522Y-149706842D01*
X65032581Y-150108726D01*
X65145621Y-150677011D01*
X65467528Y-151158780D01*
X65949297Y-151480687D01*
X66517582Y-151593727D01*
X66905868Y-151516491D01*
X66828632Y-151904777D01*
X66941672Y-152473062D01*
X67263579Y-152954831D01*
X67745348Y-153276738D01*
X68313633Y-153389778D01*
X68701919Y-153312542D01*
X68624683Y-153700828D01*
X68737723Y-154269113D01*
X69059630Y-154750882D01*
X69328482Y-154930523D01*
X68422465Y-154813043D01*
X67141618Y-154631556D01*
X66278266Y-154453549D01*
X65460555Y-154241822D01*
X64472347Y-153918751D01*
X64097929Y-153772882D01*
X63371129Y-153441956D01*
X62752523Y-153091809D01*
X62436025Y-152865732D01*
X62011829Y-152447882D01*
X61491639Y-151863151D01*
X60918566Y-151089435D01*
X60561545Y-150492621D01*
X60185388Y-149628255D01*
X59933875Y-148989465D01*
X59510093Y-147775118D01*
X59177224Y-146777506D01*
X59011835Y-146273534D01*
X58826561Y-145703965D01*
X58628307Y-145089505D01*
X58500771Y-144691056D01*
X59300540Y-144691056D01*
X59348064Y-144943627D01*
X59490109Y-145157809D01*
X60692191Y-146359891D01*
X60889894Y-146494976D01*
X61141056Y-146549460D01*
X61393627Y-146501936D01*
X61450963Y-146463911D01*
X61440478Y-146516623D01*
X61553518Y-147084908D01*
X61875425Y-147566677D01*
X62357194Y-147888584D01*
X62925479Y-148001624D01*
X63327362Y-147921684D01*
X63273766Y-148070194D01*
X63300616Y-148648994D01*
X63470465Y-149059020D01*
X63718809Y-149135790D01*
X64562497Y-148292102D01*
X64548355Y-148277960D01*
X64727960Y-148098355D01*
X64742102Y-148112497D01*
X65585790Y-147268809D01*
X65509020Y-147020465D01*
X65098994Y-146850616D01*
X64520194Y-146823766D01*
X64371683Y-146877362D01*
X64451623Y-146475479D01*
X64338584Y-145907195D01*
X64016676Y-145425426D01*
X63534907Y-145103518D01*
X62966623Y-144990479D01*
X62917554Y-145000239D01*
X62944976Y-144960106D01*
X62999460Y-144708944D01*
X62951936Y-144456373D01*
X62809891Y-144242191D01*
X61607809Y-143040109D01*
X61410106Y-142905024D01*
X61158944Y-142850540D01*
X60906373Y-142898064D01*
X60692191Y-143040109D01*
X59490109Y-144242191D01*
X59355024Y-144439894D01*
X59300540Y-144691056D01*
X58500771Y-144691056D01*
X58392927Y-144354130D01*
X58087821Y-143392137D01*
X57964405Y-142999774D01*
X57947896Y-142969633D01*
X57940809Y-142936006D01*
X57512869Y-141935157D01*
X57484149Y-141893213D01*
X57466473Y-141845552D01*
X57309115Y-141589750D01*
X58913000Y-141589750D01*
X58913000Y-142180309D01*
X59009673Y-142413698D01*
X59188301Y-142592327D01*
X59421690Y-142689000D01*
X59912250Y-142689000D01*
X60071000Y-142530250D01*
X60071000Y-141431000D01*
X59071750Y-141431000D01*
X58913000Y-141589750D01*
X57309115Y-141589750D01*
X56674635Y-140558339D01*
X56644415Y-140525759D01*
X56623743Y-140486422D01*
X56077715Y-139811467D01*
X56057513Y-139794649D01*
X56043556Y-139772370D01*
X55690126Y-139397528D01*
X55668131Y-139381877D01*
X55652063Y-139360184D01*
X55156766Y-138910714D01*
X55116271Y-138886408D01*
X55083247Y-138852649D01*
X54229183Y-138268279D01*
X53038692Y-137427680D01*
X52221885Y-136829358D01*
X51307342Y-136131009D01*
X50638216Y-135588182D01*
X50130604Y-135173703D01*
X49072327Y-134208402D01*
X48309709Y-133397209D01*
X47791096Y-132758887D01*
X47269718Y-131973267D01*
X46918152Y-131268516D01*
X46748866Y-130929163D01*
X46727238Y-130901243D01*
X46714519Y-130868298D01*
X46119837Y-129929803D01*
X45486513Y-128920157D01*
X44931704Y-128031790D01*
X44104851Y-126703540D01*
X44104850Y-126703539D01*
X43881659Y-126344187D01*
X43499877Y-125632346D01*
X43046700Y-124424298D01*
X42773073Y-123419192D01*
X42500759Y-122057911D01*
X42434108Y-121605926D01*
X42418516Y-121562232D01*
X42414602Y-121516009D01*
X42173177Y-120679038D01*
X42033024Y-120031445D01*
X41838883Y-118916256D01*
X41784599Y-118542931D01*
X41742716Y-118424808D01*
X41703747Y-118305651D01*
X41698151Y-118299125D01*
X41695279Y-118291024D01*
X41611361Y-118197899D01*
X41529778Y-118102747D01*
X41522114Y-118098860D01*
X41516358Y-118092473D01*
X41403187Y-118038550D01*
X41291404Y-117981862D01*
X40375992Y-117725577D01*
X39650329Y-117462936D01*
X39070022Y-117202042D01*
X38724770Y-117012505D01*
X38710495Y-117008000D01*
X38698623Y-116998874D01*
X38098759Y-116702411D01*
X37828786Y-116547205D01*
X37076660Y-116050653D01*
X36741479Y-115790718D01*
X45206018Y-115790718D01*
X45206018Y-116015224D01*
X45912594Y-116721801D01*
X46689881Y-115944514D01*
X46689881Y-115720007D01*
X46521631Y-115551758D01*
X46343003Y-115373129D01*
X46109614Y-115276456D01*
X45856995Y-115276457D01*
X45623606Y-115373130D01*
X45206018Y-115790718D01*
X36741479Y-115790718D01*
X36321730Y-115465200D01*
X35783714Y-114989369D01*
X35468540Y-114699632D01*
X34966004Y-114198389D01*
X34498786Y-113684084D01*
X34041580Y-113126322D01*
X33654183Y-112591883D01*
X33276238Y-112029898D01*
X32940617Y-111477593D01*
X32620780Y-110897393D01*
X32183105Y-110000426D01*
X31945090Y-109448480D01*
X31773711Y-109011660D01*
X31606583Y-108533586D01*
X31540709Y-108421838D01*
X31476155Y-108309345D01*
X31472927Y-108306854D01*
X31470855Y-108303340D01*
X31367196Y-108225281D01*
X31264542Y-108146081D01*
X31260608Y-108145016D01*
X31257348Y-108142561D01*
X31131735Y-108110120D01*
X31006559Y-108076225D01*
X30619969Y-108049863D01*
X30310274Y-108016086D01*
X29603287Y-107901081D01*
X28830510Y-107716204D01*
X27846627Y-107383564D01*
X27076268Y-107033741D01*
X26285720Y-106572548D01*
X25755881Y-106189890D01*
X25152582Y-105659249D01*
X24488882Y-104915076D01*
X23974368Y-104162615D01*
X23460009Y-103148418D01*
X23113467Y-102334569D01*
X23113466Y-102334567D01*
X22845389Y-101704510D01*
X22517602Y-100928180D01*
X22148414Y-100039580D01*
X21891332Y-99408065D01*
X21861913Y-99334285D01*
X31500760Y-99334285D01*
X31711169Y-99843515D01*
X32100436Y-100233461D01*
X32609298Y-100444759D01*
X33160285Y-100445240D01*
X33669515Y-100234831D01*
X34059461Y-99845564D01*
X34270759Y-99336702D01*
X34270761Y-99334285D01*
X46500760Y-99334285D01*
X46711169Y-99843515D01*
X47100436Y-100233461D01*
X47609298Y-100444759D01*
X48160285Y-100445240D01*
X48669515Y-100234831D01*
X49059461Y-99845564D01*
X49270759Y-99336702D01*
X49271240Y-98785715D01*
X49060831Y-98276485D01*
X48671564Y-97886539D01*
X48162702Y-97675241D01*
X47611715Y-97674760D01*
X47102485Y-97885169D01*
X46712539Y-98274436D01*
X46501241Y-98783298D01*
X46500760Y-99334285D01*
X34270761Y-99334285D01*
X34271240Y-98785715D01*
X34060831Y-98276485D01*
X33843153Y-98058427D01*
X35416579Y-96485000D01*
X60049995Y-96485000D01*
X60050000Y-96485001D01*
X60332484Y-96428810D01*
X60388675Y-96417633D01*
X60675790Y-96225790D01*
X62970500Y-93931079D01*
X62970500Y-106870500D01*
X63025307Y-107146032D01*
X63181383Y-107379617D01*
X68725391Y-112923625D01*
X68958976Y-113079701D01*
X69234508Y-113134508D01*
X77108266Y-113134508D01*
X79078379Y-115104621D01*
X79311964Y-115260697D01*
X79587496Y-115315504D01*
X81832769Y-115315504D01*
X81853338Y-115424817D01*
X81992410Y-115640941D01*
X82204610Y-115785931D01*
X82456500Y-115836940D01*
X82636500Y-115836940D01*
X82636500Y-115995266D01*
X82569837Y-116061929D01*
X82336799Y-115965162D01*
X81964833Y-115964838D01*
X81621057Y-116106883D01*
X81357808Y-116369673D01*
X81215162Y-116713201D01*
X81214838Y-117085167D01*
X81356883Y-117428943D01*
X81619673Y-117692192D01*
X81963201Y-117834838D01*
X82335167Y-117835162D01*
X82678943Y-117693117D01*
X82752732Y-117619457D01*
X83025532Y-117565193D01*
X83043064Y-117553479D01*
X83156883Y-117828943D01*
X83419673Y-118092192D01*
X83763201Y-118234838D01*
X84135167Y-118235162D01*
X84478943Y-118093117D01*
X84742192Y-117830327D01*
X84823272Y-117635065D01*
X84935167Y-117635162D01*
X85278943Y-117493117D01*
X85352188Y-117420000D01*
X86550000Y-117420000D01*
X86825532Y-117365193D01*
X87059117Y-117209117D01*
X87946234Y-116322000D01*
X91658956Y-116322000D01*
X91661838Y-116337317D01*
X91800910Y-116553441D01*
X92013110Y-116698431D01*
X92265000Y-116749440D01*
X95015000Y-116749440D01*
X95250317Y-116705162D01*
X95466441Y-116566090D01*
X95605890Y-116362000D01*
X97437721Y-116362000D01*
X97560910Y-116553441D01*
X97773110Y-116698431D01*
X98025000Y-116749440D01*
X100775000Y-116749440D01*
X101010317Y-116705162D01*
X101226441Y-116566090D01*
X101371431Y-116353890D01*
X101422440Y-116102000D01*
X101422440Y-115102000D01*
X101378162Y-114866683D01*
X101239090Y-114650559D01*
X101026890Y-114505569D01*
X100775000Y-114454560D01*
X98025000Y-114454560D01*
X97789683Y-114498838D01*
X97573559Y-114637910D01*
X97434110Y-114842000D01*
X95602279Y-114842000D01*
X95479090Y-114650559D01*
X95266890Y-114505569D01*
X95015000Y-114454560D01*
X92265000Y-114454560D01*
X92029683Y-114498838D01*
X91813559Y-114637910D01*
X91668569Y-114850110D01*
X91662111Y-114882000D01*
X90589737Y-114882000D01*
X92301485Y-113170252D01*
X96702252Y-113170252D01*
X96977784Y-113115445D01*
X97211369Y-112959369D01*
X103519904Y-106650834D01*
X103569617Y-106617617D01*
X103725693Y-106384032D01*
X103780500Y-106108500D01*
X103780500Y-100901500D01*
X103725693Y-100625968D01*
X103569617Y-100392383D01*
X103145500Y-99968266D01*
X103145500Y-96837500D01*
X103090693Y-96561968D01*
X102934617Y-96328383D01*
X102510500Y-95904266D01*
X102510500Y-94312080D01*
X104424208Y-96225787D01*
X104424210Y-96225790D01*
X104711325Y-96417633D01*
X104767516Y-96428810D01*
X105050000Y-96485001D01*
X105050005Y-96485000D01*
X114911420Y-96485000D01*
X116726421Y-98300000D01*
X116332000Y-98300000D01*
X116041161Y-98357852D01*
X115794599Y-98522599D01*
X112746599Y-101570599D01*
X112581852Y-101817161D01*
X112524000Y-102108000D01*
X112524000Y-107393560D01*
X112384000Y-107393560D01*
X112148683Y-107437838D01*
X111932559Y-107576910D01*
X111878343Y-107656257D01*
X111849728Y-107661949D01*
X111611276Y-107821277D01*
X111240277Y-108192277D01*
X111080949Y-108430728D01*
X111025000Y-108712000D01*
X111025000Y-111760000D01*
X111078497Y-112028943D01*
X111080949Y-112041272D01*
X111240277Y-112279723D01*
X112256277Y-113295723D01*
X112494728Y-113455051D01*
X112776000Y-113511000D01*
X112943258Y-113511000D01*
X112966838Y-113636317D01*
X113105910Y-113852441D01*
X113318110Y-113997431D01*
X113570000Y-114048440D01*
X115070000Y-114048440D01*
X115305317Y-114004162D01*
X115521441Y-113865090D01*
X115569134Y-113795289D01*
X115605910Y-113852441D01*
X115818110Y-113997431D01*
X116070000Y-114048440D01*
X117570000Y-114048440D01*
X117805317Y-114004162D01*
X118021441Y-113865090D01*
X118166431Y-113652890D01*
X118195164Y-113511000D01*
X120396000Y-113511000D01*
X120677272Y-113455051D01*
X120915723Y-113295723D01*
X121423723Y-112787724D01*
X121583051Y-112549273D01*
X121604886Y-112439500D01*
X121639000Y-112268000D01*
X121639000Y-111697446D01*
X121789317Y-111669162D01*
X122005441Y-111530090D01*
X122150431Y-111317890D01*
X122201440Y-111066000D01*
X122201440Y-110951000D01*
X122933560Y-110951000D01*
X122933560Y-111220000D01*
X122977838Y-111455317D01*
X123116910Y-111671441D01*
X123329110Y-111816431D01*
X123581000Y-111867440D01*
X124831000Y-111867440D01*
X125066317Y-111823162D01*
X125282441Y-111684090D01*
X125427431Y-111471890D01*
X125478440Y-111220000D01*
X125478440Y-109720000D01*
X125434162Y-109484683D01*
X125295090Y-109268559D01*
X125226994Y-109222031D01*
X125369327Y-109079698D01*
X125466000Y-108846309D01*
X125466000Y-108255750D01*
X125307250Y-108097000D01*
X124333000Y-108097000D01*
X124333000Y-108117000D01*
X124079000Y-108117000D01*
X124079000Y-108097000D01*
X124059000Y-108097000D01*
X124059000Y-107843000D01*
X124079000Y-107843000D01*
X124079000Y-106743750D01*
X124333000Y-106743750D01*
X124333000Y-107843000D01*
X125307250Y-107843000D01*
X125466000Y-107684250D01*
X125466000Y-107093691D01*
X125369327Y-106860302D01*
X125190699Y-106681673D01*
X124957310Y-106585000D01*
X124491750Y-106585000D01*
X124333000Y-106743750D01*
X124079000Y-106743750D01*
X123920250Y-106585000D01*
X123454690Y-106585000D01*
X123221301Y-106681673D01*
X123077000Y-106825975D01*
X123077000Y-105700000D01*
X123068315Y-105653841D01*
X123041035Y-105611447D01*
X122999410Y-105583006D01*
X122950000Y-105573000D01*
X121602606Y-105573000D01*
X121077000Y-105047394D01*
X121077000Y-103100000D01*
X121068315Y-103053841D01*
X121041035Y-103011447D01*
X120999410Y-102983006D01*
X120950000Y-102973000D01*
X114550000Y-102973000D01*
X114503841Y-102981685D01*
X114461447Y-103008965D01*
X114433006Y-103050590D01*
X114423000Y-103100000D01*
X114423000Y-105700000D01*
X114431685Y-105746159D01*
X114458965Y-105788553D01*
X114500590Y-105816994D01*
X114550000Y-105827000D01*
X114878975Y-105827000D01*
X114888302Y-105836327D01*
X115121691Y-105933000D01*
X115712250Y-105933000D01*
X115818250Y-105827000D01*
X116177750Y-105827000D01*
X116283750Y-105933000D01*
X116874309Y-105933000D01*
X117107698Y-105836327D01*
X117117025Y-105827000D01*
X117597421Y-105827000D01*
X117696110Y-105894431D01*
X117948000Y-105945440D01*
X117963000Y-105945440D01*
X117963000Y-106690442D01*
X117832914Y-106714919D01*
X117799310Y-106701000D01*
X117633750Y-106701000D01*
X117475000Y-106859750D01*
X117475000Y-106940051D01*
X117376569Y-107084110D01*
X117348824Y-107221120D01*
X117326162Y-107100683D01*
X117221000Y-106937257D01*
X117221000Y-106859750D01*
X117062250Y-106701000D01*
X116896690Y-106701000D01*
X116859829Y-106716268D01*
X116723000Y-106688560D01*
X116073000Y-106688560D01*
X115837683Y-106732838D01*
X115621559Y-106871910D01*
X115476569Y-107084110D01*
X115467074Y-107131000D01*
X114044000Y-107131000D01*
X114044000Y-102422802D01*
X116646802Y-99820000D01*
X117553453Y-99820000D01*
X117563169Y-99843515D01*
X117952436Y-100233461D01*
X118461298Y-100444759D01*
X119012285Y-100445240D01*
X119521515Y-100234831D01*
X119911461Y-99845564D01*
X120122759Y-99336702D01*
X120122761Y-99334285D01*
X132352760Y-99334285D01*
X132563169Y-99843515D01*
X132952436Y-100233461D01*
X133461298Y-100444759D01*
X134012285Y-100445240D01*
X134521515Y-100234831D01*
X134911461Y-99845564D01*
X135122759Y-99336702D01*
X135123240Y-98785715D01*
X134912831Y-98276485D01*
X134523564Y-97886539D01*
X134014702Y-97675241D01*
X133463715Y-97674760D01*
X132954485Y-97885169D01*
X132564539Y-98274436D01*
X132353241Y-98783298D01*
X132352760Y-99334285D01*
X120122761Y-99334285D01*
X120123240Y-98785715D01*
X119912831Y-98276485D01*
X119523564Y-97886539D01*
X119014702Y-97675241D01*
X118604462Y-97674883D01*
X115903790Y-94974210D01*
X115810587Y-94911934D01*
X115616675Y-94782367D01*
X115560484Y-94771190D01*
X115278000Y-94714999D01*
X115277995Y-94715000D01*
X105416579Y-94715000D01*
X103435000Y-92733420D01*
X103435000Y-46334285D01*
X117352760Y-46334285D01*
X117563169Y-46843515D01*
X117952436Y-47233461D01*
X118461298Y-47444759D01*
X119012285Y-47445240D01*
X119521515Y-47234831D01*
X119811852Y-46945000D01*
X132664477Y-46945000D01*
X132952436Y-47233461D01*
X133461298Y-47444759D01*
X134012285Y-47445240D01*
X134521515Y-47234831D01*
X134911461Y-46845564D01*
X135122759Y-46336702D01*
X135123240Y-45785715D01*
X134912831Y-45276485D01*
X134523564Y-44886539D01*
X134014702Y-44675241D01*
X133463715Y-44674760D01*
X132954485Y-44885169D01*
X132664148Y-45175000D01*
X119811523Y-45175000D01*
X119523564Y-44886539D01*
X119014702Y-44675241D01*
X118463715Y-44674760D01*
X117954485Y-44885169D01*
X117564539Y-45274436D01*
X117353241Y-45783298D01*
X117352760Y-46334285D01*
X103435000Y-46334285D01*
X103435000Y-38100005D01*
X103435001Y-38100000D01*
X103374644Y-37796572D01*
X103367633Y-37761325D01*
X103175790Y-37474210D01*
X103175787Y-37474208D01*
X100675790Y-34974210D01*
X100675787Y-34974208D01*
X99975790Y-34274210D01*
X99970368Y-34270587D01*
X99688675Y-34082367D01*
X99632484Y-34071190D01*
X99350000Y-34014999D01*
X99349995Y-34015000D01*
X65750005Y-34015000D01*
X65750000Y-34014999D01*
X65411325Y-34082367D01*
X65124210Y-34274210D01*
X65124208Y-34274213D01*
X64159746Y-35238674D01*
X63924210Y-35474210D01*
X63924208Y-35474213D01*
X61924210Y-37474210D01*
X61732367Y-37761325D01*
X61725356Y-37796572D01*
X61664999Y-38100000D01*
X61665000Y-38100005D01*
X61665000Y-92733421D01*
X59683420Y-94715000D01*
X35050005Y-94715000D01*
X35050000Y-94714999D01*
X34711325Y-94782367D01*
X34424210Y-94974210D01*
X34424208Y-94974213D01*
X32260210Y-97138210D01*
X32068367Y-97425325D01*
X32068367Y-97425326D01*
X32000999Y-97764000D01*
X32001000Y-97764005D01*
X32001000Y-97986477D01*
X31712539Y-98274436D01*
X31501241Y-98783298D01*
X31500760Y-99334285D01*
X21861913Y-99334285D01*
X21644483Y-98788997D01*
X21109063Y-97390797D01*
X20641839Y-96087659D01*
X20280740Y-95007638D01*
X19930570Y-93878350D01*
X19651643Y-92901807D01*
X19348246Y-91732473D01*
X18793989Y-89104861D01*
X18617692Y-88011369D01*
X18310241Y-85090305D01*
X18254847Y-83897981D01*
X18240933Y-82776157D01*
X18277187Y-81350862D01*
X18362239Y-80065042D01*
X18422360Y-79423666D01*
X18548321Y-78352559D01*
X18679509Y-77475472D01*
X18982038Y-75961988D01*
X19176944Y-75217164D01*
X19413378Y-74471600D01*
X19898979Y-73303261D01*
X20240315Y-72684797D01*
X20809409Y-71905496D01*
X21116697Y-71582672D01*
X21431009Y-71309539D01*
X22078863Y-70883219D01*
X22641441Y-70623302D01*
X23116060Y-70461992D01*
X23872734Y-70278410D01*
X25203462Y-70062078D01*
X25273400Y-70035952D01*
X25346816Y-70022412D01*
X25397384Y-69989637D01*
X25453837Y-69968548D01*
X25508451Y-69917649D01*
X25571099Y-69877044D01*
X25605276Y-69827411D01*
X25649361Y-69786324D01*
X25680341Y-69718396D01*
X25722679Y-69656910D01*
X25735260Y-69597979D01*
X25760267Y-69543147D01*
X25762894Y-69468535D01*
X25778480Y-69395526D01*
X25767551Y-69336265D01*
X25769671Y-69276039D01*
X25743545Y-69206101D01*
X25730005Y-69132685D01*
X25697230Y-69082117D01*
X25676141Y-69025664D01*
X25625243Y-68971051D01*
X25584637Y-68908402D01*
X25201098Y-68513991D01*
X24827810Y-68006913D01*
X24601956Y-67618490D01*
X24302757Y-66941211D01*
X24129216Y-66374948D01*
X24005283Y-65730752D01*
X23944590Y-64822503D01*
X23949544Y-64589869D01*
X24031103Y-63926904D01*
X24170314Y-63506073D01*
X24418476Y-63105376D01*
X24751673Y-62717264D01*
X24756646Y-62708437D01*
X24764434Y-62701955D01*
X25055695Y-62342010D01*
X25079038Y-62297604D01*
X25112541Y-62260255D01*
X25377048Y-61813762D01*
X25397589Y-61755410D01*
X25429992Y-61702717D01*
X25621011Y-61187409D01*
X25628588Y-61140045D01*
X25647808Y-61096101D01*
X25751548Y-60623210D01*
X25752148Y-60592609D01*
X25761891Y-60563592D01*
X25814646Y-60152372D01*
X25812802Y-60125600D01*
X25819351Y-60099578D01*
X25854129Y-59407327D01*
X25851374Y-59388612D01*
X25854986Y-59370042D01*
X25852994Y-58901981D01*
X25850308Y-58888772D01*
X25852367Y-58875451D01*
X25823629Y-58207518D01*
X25819874Y-58192131D01*
X25821578Y-58176387D01*
X25758302Y-57463660D01*
X25753488Y-57447222D01*
X25754490Y-57430120D01*
X25614375Y-56420004D01*
X25610217Y-56408028D01*
X25610497Y-56395355D01*
X25462231Y-55553154D01*
X25461301Y-55550761D01*
X25461339Y-55548196D01*
X25233188Y-54305795D01*
X25083987Y-53299257D01*
X25023310Y-52668396D01*
X24994919Y-52051569D01*
X25001312Y-51384355D01*
X25057918Y-50604289D01*
X25175614Y-49761643D01*
X25344873Y-48927531D01*
X25549914Y-48132007D01*
X25792106Y-47337971D01*
X26048707Y-46595354D01*
X26149939Y-46334285D01*
X31500760Y-46334285D01*
X31711169Y-46843515D01*
X32100436Y-47233461D01*
X32609298Y-47444759D01*
X33160285Y-47445240D01*
X33669515Y-47234831D01*
X33959852Y-46945000D01*
X46812477Y-46945000D01*
X47100436Y-47233461D01*
X47609298Y-47444759D01*
X48160285Y-47445240D01*
X48669515Y-47234831D01*
X49059461Y-46845564D01*
X49270759Y-46336702D01*
X49271240Y-45785715D01*
X49060831Y-45276485D01*
X48671564Y-44886539D01*
X48162702Y-44675241D01*
X47611715Y-44674760D01*
X47102485Y-44885169D01*
X46812148Y-45175000D01*
X33959523Y-45175000D01*
X33671564Y-44886539D01*
X33162702Y-44675241D01*
X32611715Y-44674760D01*
X32102485Y-44885169D01*
X31712539Y-45274436D01*
X31501241Y-45783298D01*
X31500760Y-46334285D01*
X26149939Y-46334285D01*
X26473857Y-45498931D01*
X26670169Y-45033225D01*
X26996601Y-44311094D01*
X27660917Y-43023730D01*
X28088639Y-42311746D01*
X28499008Y-41707444D01*
X29106174Y-40942957D01*
X29729428Y-40305209D01*
X30203998Y-39912993D01*
X30967400Y-39439416D01*
X31812308Y-39123009D01*
X32730900Y-39005204D01*
X33506907Y-39074476D01*
X34654885Y-39425699D01*
X35146363Y-39646436D01*
X35965175Y-40116658D01*
X36476783Y-40585664D01*
X36909905Y-41237741D01*
X37338792Y-41949136D01*
X37351949Y-41963578D01*
X37359601Y-41981554D01*
X37575985Y-42298672D01*
X37928502Y-42833441D01*
X37937327Y-42842376D01*
X37942478Y-42853833D01*
X38183538Y-43192278D01*
X38256754Y-43261247D01*
X38322853Y-43337076D01*
X39312786Y-44101402D01*
X39328571Y-44109245D01*
X39340812Y-44121928D01*
X39447729Y-44168452D01*
X39552141Y-44220331D01*
X39569725Y-44221536D01*
X39585889Y-44228570D01*
X40789157Y-44490171D01*
X40796403Y-44490299D01*
X40803109Y-44493053D01*
X40929763Y-44492664D01*
X41056388Y-44494909D01*
X41063133Y-44492254D01*
X41070381Y-44492232D01*
X42132802Y-44277510D01*
X42150854Y-44269967D01*
X42170385Y-44268806D01*
X42273580Y-44218691D01*
X42379415Y-44174471D01*
X42393205Y-44160596D01*
X42410807Y-44152048D01*
X43508465Y-43320295D01*
X43563148Y-43258697D01*
X43626542Y-43206113D01*
X43874961Y-42900159D01*
X44862505Y-41749693D01*
X45704264Y-40841137D01*
X46899457Y-39646984D01*
X47983605Y-38647752D01*
X49472468Y-37387646D01*
X50857789Y-36317215D01*
X52750787Y-34993114D01*
X54384828Y-33963983D01*
X56131320Y-32967899D01*
X57485848Y-32262760D01*
X59911438Y-31133410D01*
X62641910Y-30046600D01*
X65452245Y-29110192D01*
X67657148Y-28492560D01*
X68029867Y-28397720D01*
X69646121Y-28016979D01*
X70632899Y-27808076D01*
X71987708Y-27549241D01*
X73650848Y-27273988D01*
X75530286Y-27016723D01*
X77306354Y-26823581D01*
X78913534Y-26688804D01*
X80846195Y-26574845D01*
X81887291Y-26534448D01*
X82187525Y-26526912D01*
X81178485Y-26943838D01*
X80197284Y-27923329D01*
X79665606Y-29203749D01*
X79664397Y-30590168D01*
X80193838Y-31871515D01*
X81173329Y-32852716D01*
X82453749Y-33384394D01*
X83840168Y-33385603D01*
X85121515Y-32856162D01*
X86102716Y-31876671D01*
X86634394Y-30596251D01*
X86635603Y-29209832D01*
X86106162Y-27928485D01*
X85126671Y-26947284D01*
X84104652Y-26522904D01*
X84692426Y-26536633D01*
X84692426Y-26536633D01*
G37*
X84692426Y-26536633D02*
X85827501Y-26582396D01*
X87434377Y-26677075D01*
X88724515Y-26779281D01*
X90493685Y-26958840D01*
X91485055Y-27080081D01*
X92312140Y-27192963D01*
X93944437Y-27447993D01*
X95575125Y-27747167D01*
X96989545Y-28044326D01*
X98482564Y-28397778D01*
X99971240Y-28792855D01*
X101621752Y-29283296D01*
X102221313Y-29475734D01*
X103077577Y-29764340D01*
X104907194Y-30437431D01*
X106666551Y-31161641D01*
X107968505Y-31749803D01*
X109350389Y-32426250D01*
X111317031Y-33488998D01*
X112510614Y-34196359D01*
X114147182Y-35250608D01*
X114642773Y-35590588D01*
X115615441Y-36288140D01*
X116870472Y-37251599D01*
X117748684Y-37972262D01*
X118603025Y-38713753D01*
X119444671Y-39486892D01*
X120346714Y-40367640D01*
X121331473Y-41398770D01*
X121870601Y-41998269D01*
X122465166Y-42691969D01*
X122490207Y-42711639D01*
X122508295Y-42737842D01*
X123214713Y-43423175D01*
X123275969Y-43462776D01*
X123329133Y-43512712D01*
X124221472Y-44069369D01*
X124287898Y-44094478D01*
X124348540Y-44131432D01*
X125263256Y-44466300D01*
X125344422Y-44478948D01*
X125422712Y-44503817D01*
X126752329Y-44652314D01*
X126847410Y-44644200D01*
X126942803Y-44646919D01*
X128092567Y-44452090D01*
X128188391Y-44415561D01*
X128287184Y-44388034D01*
X129397045Y-43826928D01*
X129479895Y-43762036D01*
X129567933Y-43704362D01*
X130338926Y-42947256D01*
X130362670Y-42912410D01*
X130394863Y-42885183D01*
X130750657Y-42438325D01*
X131500101Y-41594419D01*
X132218033Y-40886531D01*
X133071502Y-40160631D01*
X134051115Y-39489221D01*
X135075008Y-39019365D01*
X136066972Y-38923769D01*
X136615627Y-39087866D01*
X137775797Y-39761754D01*
X138771766Y-40607100D01*
X139650269Y-41533123D01*
X140197603Y-42196890D01*
X140741899Y-42932310D01*
X141101571Y-43469348D01*
X141507447Y-44145620D01*
X141819247Y-44756346D01*
X142048053Y-45380193D01*
X142240256Y-46397503D01*
X142351619Y-47470834D01*
X142392495Y-48482723D01*
X142387168Y-49368916D01*
X142307284Y-50863760D01*
X142150150Y-52386692D01*
X142019327Y-53333352D01*
X141866450Y-54274109D01*
X141624297Y-55552289D01*
X141417073Y-56510671D01*
X141239964Y-57255823D01*
X140908100Y-58493151D01*
X140690947Y-59161200D01*
X140688127Y-59185004D01*
X140677884Y-59206674D01*
X140598311Y-59524669D01*
X140592213Y-59649417D01*
X140582872Y-59773975D01*
X140648522Y-60311639D01*
X140684414Y-60420731D01*
X140714153Y-60531663D01*
X140997679Y-61106410D01*
X141024556Y-61141428D01*
X141041330Y-61182261D01*
X141344623Y-61639060D01*
X142030044Y-62720827D01*
X142407847Y-63661353D01*
X142566601Y-64870054D01*
X142549103Y-65335949D01*
X142416815Y-66227180D01*
X142086096Y-67249011D01*
X141770575Y-67867180D01*
X141427360Y-68372413D01*
X141319100Y-68506411D01*
X140928019Y-68908125D01*
X140884582Y-68975059D01*
X140831040Y-69034220D01*
X140812516Y-69086109D01*
X140782523Y-69132327D01*
X140768008Y-69210785D01*
X140741180Y-69285935D01*
X140743924Y-69340966D01*
X140733901Y-69395141D01*
X140750516Y-69473184D01*
X140754489Y-69552877D01*
X140778081Y-69602665D01*
X140789554Y-69656556D01*
X140834771Y-69722302D01*
X140868938Y-69794407D01*
X140909788Y-69831378D01*
X140941010Y-69876774D01*
X141007944Y-69920211D01*
X141067105Y-69973753D01*
X141118994Y-69992277D01*
X141165212Y-70022270D01*
X141243670Y-70036785D01*
X141318820Y-70063613D01*
X141664525Y-70114637D01*
X142325578Y-70219784D01*
X143457896Y-70481364D01*
X144146697Y-70740697D01*
X144845721Y-71135723D01*
X145280161Y-71477327D01*
X145813288Y-72037377D01*
X146322169Y-72768231D01*
X146834990Y-73787079D01*
X147199745Y-74771785D01*
X147482479Y-75765889D01*
X147687448Y-76679524D01*
X147952145Y-78264825D01*
X148060002Y-79140283D01*
X148150531Y-80069084D01*
X148205444Y-80807596D01*
X148253875Y-81818975D01*
X148271557Y-83036798D01*
X148243886Y-84290904D01*
X148149168Y-85808331D01*
X148042695Y-86878600D01*
X147923566Y-87811206D01*
X147743323Y-88962509D01*
X147600925Y-89741494D01*
X147322284Y-91064080D01*
X147069590Y-92111374D01*
X146583317Y-93873182D01*
X146208384Y-95079574D01*
X145890983Y-96028474D01*
X145401054Y-97396931D01*
X144849267Y-98836244D01*
X144502639Y-99700479D01*
X143845163Y-101283710D01*
X143430386Y-102260782D01*
X143047348Y-103160297D01*
X142839433Y-103611658D01*
X141818922Y-105174285D01*
X141138850Y-105879783D01*
X140306192Y-106533441D01*
X139585450Y-106968531D01*
X138706402Y-107376664D01*
X137836597Y-107675582D01*
X137028409Y-107875139D01*
X136455442Y-107975472D01*
X135850933Y-108045345D01*
X135039577Y-108075098D01*
X134913982Y-108104903D01*
X134788060Y-108132975D01*
X134784161Y-108135712D01*
X134779526Y-108136812D01*
X134674921Y-108212394D01*
X134569303Y-108286534D01*
X134566749Y-108290554D01*
X134562886Y-108293345D01*
X134495170Y-108403202D01*
X134425962Y-108512119D01*
X134065701Y-109441764D01*
X133719671Y-110186496D01*
X133149563Y-111230573D01*
X132155395Y-112718456D01*
X131062652Y-114033561D01*
X130228086Y-114869742D01*
X129189743Y-115743503D01*
X128105781Y-116485588D01*
X127434317Y-116866559D01*
X126893401Y-117132161D01*
X126003495Y-117493708D01*
X125228697Y-117736913D01*
X125134981Y-117788172D01*
X125037468Y-117831804D01*
X125018467Y-117851901D01*
X124994208Y-117865170D01*
X124927240Y-117948392D01*
X124853848Y-118026018D01*
X124843986Y-118051852D01*
X124826648Y-118073398D01*
X124796624Y-118175920D01*
X124758527Y-118275716D01*
X124664577Y-118828599D01*
X124505621Y-119688054D01*
X124031321Y-122153719D01*
X123793669Y-123366198D01*
X123689793Y-123890749D01*
X123406949Y-124726035D01*
X123091385Y-125442037D01*
X122635624Y-126332252D01*
X122254922Y-127005025D01*
X121491626Y-128233522D01*
X121271067Y-128562201D01*
X121266373Y-128573470D01*
X121258033Y-128582381D01*
X120639879Y-129577273D01*
X120639879Y-129577274D01*
X120250780Y-130203511D01*
X120250780Y-130203512D01*
X119807769Y-130916519D01*
X119837440Y-130770000D01*
X119837440Y-129770000D01*
X119793162Y-129534683D01*
X119654090Y-129318559D01*
X119441890Y-129173569D01*
X119190000Y-129122560D01*
X116440000Y-129122560D01*
X116204683Y-129166838D01*
X115988559Y-129305910D01*
X115849110Y-129510000D01*
X114017279Y-129510000D01*
X113894090Y-129318559D01*
X113681890Y-129173569D01*
X113430000Y-129122560D01*
X110680000Y-129122560D01*
X110444683Y-129166838D01*
X110228559Y-129305910D01*
X110107737Y-129482739D01*
X110002090Y-129318559D01*
X109789890Y-129173569D01*
X109538000Y-129122560D01*
X106788000Y-129122560D01*
X106552683Y-129166838D01*
X106336559Y-129305910D01*
X106197110Y-129510000D01*
X104365279Y-129510000D01*
X104242090Y-129318559D01*
X104029890Y-129173569D01*
X103778000Y-129122560D01*
X101028000Y-129122560D01*
X100792683Y-129166838D01*
X100576559Y-129305910D01*
X100431569Y-129518110D01*
X100380560Y-129770000D01*
X100380560Y-130770000D01*
X100424838Y-131005317D01*
X100563910Y-131221441D01*
X100776110Y-131366431D01*
X101028000Y-131417440D01*
X103778000Y-131417440D01*
X104013317Y-131373162D01*
X104229441Y-131234090D01*
X104368890Y-131030000D01*
X105145198Y-131030000D01*
X104810320Y-131364878D01*
X104764833Y-131364838D01*
X104421057Y-131506883D01*
X104157808Y-131769673D01*
X104015162Y-132113201D01*
X104014838Y-132485167D01*
X104156883Y-132828943D01*
X104419673Y-133092192D01*
X104763201Y-133234838D01*
X105135167Y-133235162D01*
X105478943Y-133093117D01*
X105742192Y-132830327D01*
X105884838Y-132486799D01*
X105884879Y-132439923D01*
X106907362Y-131417440D01*
X109538000Y-131417440D01*
X109720748Y-131383054D01*
X109421057Y-131506883D01*
X109157808Y-131769673D01*
X109015162Y-132113201D01*
X109014838Y-132485167D01*
X109156883Y-132828943D01*
X109419673Y-133092192D01*
X109763201Y-133234838D01*
X110135167Y-133235162D01*
X110478943Y-133093117D01*
X110742192Y-132830327D01*
X110884838Y-132486799D01*
X110884879Y-132439923D01*
X111907362Y-131417440D01*
X113430000Y-131417440D01*
X113665317Y-131373162D01*
X113881441Y-131234090D01*
X114020890Y-131030000D01*
X115852721Y-131030000D01*
X115975910Y-131221441D01*
X116188110Y-131366431D01*
X116440000Y-131417440D01*
X119190000Y-131417440D01*
X119425317Y-131373162D01*
X119589812Y-131267312D01*
X119557876Y-131318712D01*
X119545910Y-131350542D01*
X119525222Y-131377527D01*
X119096857Y-132247138D01*
X118407013Y-133163251D01*
X118219805Y-133385456D01*
X117531851Y-134144276D01*
X116618067Y-134969974D01*
X115291266Y-136052714D01*
X114443025Y-136706978D01*
X113875833Y-137132604D01*
X112996851Y-137774164D01*
X112569521Y-138018183D01*
X112544258Y-138040126D01*
X112513696Y-138053744D01*
X111591958Y-138705556D01*
X111566026Y-138732899D01*
X111533477Y-138751888D01*
X110966991Y-139253249D01*
X110948829Y-139277142D01*
X110924309Y-139294454D01*
X110391869Y-139855015D01*
X110373829Y-139883578D01*
X110348260Y-139905661D01*
X109742036Y-140683446D01*
X109726642Y-140714075D01*
X109703041Y-140738938D01*
X109274062Y-141418608D01*
X109259637Y-141456172D01*
X109235511Y-141488377D01*
X108777487Y-142444889D01*
X108769415Y-142476470D01*
X108752413Y-142504277D01*
X108464699Y-143286543D01*
X108463446Y-143294504D01*
X108459401Y-143301477D01*
X108144976Y-144221520D01*
X108144263Y-144226854D01*
X108141635Y-144231549D01*
X107798318Y-145289198D01*
X107797898Y-145292756D01*
X107796179Y-145295903D01*
X107530249Y-146144749D01*
X107529889Y-146148092D01*
X107528305Y-146151060D01*
X107132796Y-147457527D01*
X107131764Y-147468065D01*
X107127065Y-147477552D01*
X106946665Y-148146117D01*
X106683228Y-148874075D01*
X106433150Y-149457797D01*
X106063317Y-150222776D01*
X105693980Y-150912000D01*
X105340262Y-151515497D01*
X104888665Y-152142208D01*
X104465965Y-152547505D01*
X103921690Y-152948623D01*
X102502810Y-153692001D01*
X100776408Y-154297362D01*
X99136159Y-154698719D01*
X98001006Y-154904021D01*
X96757665Y-155064333D01*
X95358977Y-155239171D01*
X93447326Y-155417148D01*
X92583000Y-155474490D01*
X92583000Y-149098000D01*
X92574315Y-149051841D01*
X92547035Y-149009447D01*
X92505410Y-148981006D01*
X92456000Y-148971000D01*
X73914000Y-148971000D01*
X73867841Y-148979685D01*
X73825447Y-149006965D01*
X73797006Y-149048590D01*
X73787000Y-149098000D01*
X73787000Y-155409036D01*
X73217808Y-155362144D01*
X71198458Y-155154274D01*
X70615005Y-155085314D01*
X70677969Y-155072789D01*
X71159738Y-154750882D01*
X71200881Y-154709738D01*
X71522789Y-154227969D01*
X71635828Y-153659684D01*
X71522789Y-153091400D01*
X71200881Y-152609631D01*
X70719112Y-152287723D01*
X70150828Y-152174684D01*
X69762542Y-152251919D01*
X69839777Y-151863633D01*
X69801050Y-151668940D01*
X73899989Y-147570000D01*
X73965606Y-147570000D01*
X74279591Y-147779797D01*
X74733071Y-147870000D01*
X76206929Y-147870000D01*
X76660409Y-147779797D01*
X77044851Y-147522922D01*
X77301726Y-147138480D01*
X77391929Y-146685000D01*
X77301726Y-146231520D01*
X77044851Y-145847078D01*
X76802283Y-145685000D01*
X77044851Y-145522922D01*
X77301726Y-145138480D01*
X77391929Y-144685000D01*
X88948071Y-144685000D01*
X89038274Y-145138480D01*
X89295149Y-145522922D01*
X89345871Y-145556813D01*
X89168559Y-145670910D01*
X89023569Y-145883110D01*
X88972560Y-146135000D01*
X88972560Y-147235000D01*
X89016838Y-147470317D01*
X89155910Y-147686441D01*
X89368110Y-147831431D01*
X89620000Y-147882440D01*
X92120000Y-147882440D01*
X92355317Y-147838162D01*
X92571441Y-147699090D01*
X92716431Y-147486890D01*
X92767440Y-147235000D01*
X92767440Y-146135000D01*
X92723162Y-145899683D01*
X92584090Y-145683559D01*
X92396385Y-145555306D01*
X92444851Y-145522922D01*
X92701726Y-145138480D01*
X92791929Y-144685000D01*
X92701726Y-144231520D01*
X92444851Y-143847078D01*
X92198863Y-143682715D01*
X92497724Y-143433118D01*
X92713398Y-143021146D01*
X92713803Y-142994744D01*
X92588361Y-142812000D01*
X90997000Y-142812000D01*
X90997000Y-142832000D01*
X90743000Y-142832000D01*
X90743000Y-142812000D01*
X89151639Y-142812000D01*
X89026197Y-142994744D01*
X89026602Y-143021146D01*
X89242276Y-143433118D01*
X89541137Y-143682715D01*
X89295149Y-143847078D01*
X89038274Y-144231520D01*
X88948071Y-144685000D01*
X77391929Y-144685000D01*
X77301726Y-144231520D01*
X77044851Y-143847078D01*
X76802283Y-143685000D01*
X77044851Y-143522922D01*
X77123644Y-143405000D01*
X79003793Y-143405000D01*
X79061201Y-143428838D01*
X79433167Y-143429162D01*
X79776943Y-143287117D01*
X80040192Y-143024327D01*
X80182838Y-142680799D01*
X80183162Y-142308833D01*
X80041117Y-141965057D01*
X79778327Y-141701808D01*
X79434799Y-141559162D01*
X79062833Y-141558838D01*
X78719057Y-141700883D01*
X78455808Y-141963673D01*
X78455257Y-141965000D01*
X77123644Y-141965000D01*
X77044851Y-141847078D01*
X76802283Y-141685000D01*
X77044851Y-141522922D01*
X77123644Y-141405000D01*
X80041000Y-141405000D01*
X80082012Y-141396842D01*
X80449167Y-141397162D01*
X80792943Y-141255117D01*
X81056192Y-140992327D01*
X81198838Y-140648799D01*
X81199162Y-140276833D01*
X81057117Y-139933057D01*
X80794327Y-139669808D01*
X80450799Y-139527162D01*
X80078833Y-139526838D01*
X79735057Y-139668883D01*
X79471808Y-139931673D01*
X79457969Y-139965000D01*
X77123644Y-139965000D01*
X77044851Y-139847078D01*
X76802283Y-139685000D01*
X77044851Y-139522922D01*
X77301726Y-139138480D01*
X77391929Y-138685000D01*
X77301726Y-138231520D01*
X77044851Y-137847078D01*
X76802283Y-137685000D01*
X77044851Y-137522922D01*
X77301726Y-137138480D01*
X77391929Y-136685000D01*
X77301726Y-136231520D01*
X77044851Y-135847078D01*
X76852283Y-135718409D01*
X77144851Y-135522922D01*
X77401726Y-135138480D01*
X77491929Y-134685000D01*
X88948071Y-134685000D01*
X89038274Y-135138480D01*
X89295149Y-135522922D01*
X89537717Y-135685000D01*
X89295149Y-135847078D01*
X89038274Y-136231520D01*
X88948071Y-136685000D01*
X89038274Y-137138480D01*
X89295149Y-137522922D01*
X89537717Y-137685000D01*
X89295149Y-137847078D01*
X89038274Y-138231520D01*
X88948071Y-138685000D01*
X89038274Y-139138480D01*
X89295149Y-139522922D01*
X89537717Y-139685000D01*
X89295149Y-139847078D01*
X89038274Y-140231520D01*
X88948071Y-140685000D01*
X89038274Y-141138480D01*
X89295149Y-141522922D01*
X89541137Y-141687285D01*
X89242276Y-141936882D01*
X89026602Y-142348854D01*
X89026197Y-142375256D01*
X89151639Y-142558000D01*
X90743000Y-142558000D01*
X90743000Y-142538000D01*
X90997000Y-142538000D01*
X90997000Y-142558000D01*
X92588361Y-142558000D01*
X92713803Y-142375256D01*
X92713398Y-142348854D01*
X92497724Y-141936882D01*
X92198863Y-141687285D01*
X92444851Y-141522922D01*
X92496917Y-141445000D01*
X92772563Y-141445000D01*
X92819673Y-141492192D01*
X93163201Y-141634838D01*
X93535167Y-141635162D01*
X93878943Y-141493117D01*
X94142192Y-141230327D01*
X94284838Y-140886799D01*
X94285162Y-140514833D01*
X94143117Y-140171057D01*
X93880327Y-139907808D01*
X93536799Y-139765162D01*
X93164833Y-139764838D01*
X92821057Y-139906883D01*
X92802908Y-139925000D01*
X92496917Y-139925000D01*
X92444851Y-139847078D01*
X92202283Y-139685000D01*
X92444851Y-139522922D01*
X92496917Y-139445000D01*
X92772563Y-139445000D01*
X92819673Y-139492192D01*
X93163201Y-139634838D01*
X93535167Y-139635162D01*
X93878943Y-139493117D01*
X94142192Y-139230327D01*
X94284838Y-138886799D01*
X94285162Y-138514833D01*
X94143117Y-138171057D01*
X93880327Y-137907808D01*
X93536799Y-137765162D01*
X93164833Y-137764838D01*
X92821057Y-137906883D01*
X92802908Y-137925000D01*
X92496917Y-137925000D01*
X92444851Y-137847078D01*
X92202283Y-137685000D01*
X92444851Y-137522922D01*
X92496917Y-137445000D01*
X92772563Y-137445000D01*
X92819673Y-137492192D01*
X93163201Y-137634838D01*
X93535167Y-137635162D01*
X93878943Y-137493117D01*
X94142192Y-137230327D01*
X94284838Y-136886799D01*
X94285162Y-136514833D01*
X94143117Y-136171057D01*
X93880327Y-135907808D01*
X93536799Y-135765162D01*
X93164833Y-135764838D01*
X92821057Y-135906883D01*
X92802908Y-135925000D01*
X92496917Y-135925000D01*
X92444851Y-135847078D01*
X92202283Y-135685000D01*
X92444851Y-135522922D01*
X92701726Y-135138480D01*
X92791929Y-134685000D01*
X92701726Y-134231520D01*
X92444851Y-133847078D01*
X92198863Y-133682715D01*
X92497724Y-133433118D01*
X92713398Y-133021146D01*
X92713803Y-132994744D01*
X92588361Y-132812000D01*
X90997000Y-132812000D01*
X90997000Y-132832000D01*
X90743000Y-132832000D01*
X90743000Y-132812000D01*
X89151639Y-132812000D01*
X89026197Y-132994744D01*
X89026602Y-133021146D01*
X89242276Y-133433118D01*
X89541137Y-133682715D01*
X89295149Y-133847078D01*
X89038274Y-134231520D01*
X88948071Y-134685000D01*
X77491929Y-134685000D01*
X77401726Y-134231520D01*
X77144851Y-133847078D01*
X76852283Y-133651591D01*
X77044851Y-133522922D01*
X77301726Y-133138480D01*
X77391929Y-132685000D01*
X77347696Y-132462626D01*
X77726520Y-132715747D01*
X78180000Y-132805950D01*
X78633480Y-132715747D01*
X79017922Y-132458872D01*
X79180000Y-132216304D01*
X79342078Y-132458872D01*
X79726520Y-132715747D01*
X80180000Y-132805950D01*
X80633480Y-132715747D01*
X81017922Y-132458872D01*
X81180000Y-132216304D01*
X81342078Y-132458872D01*
X81726520Y-132715747D01*
X82180000Y-132805950D01*
X82633480Y-132715747D01*
X83017922Y-132458872D01*
X83180000Y-132216304D01*
X83342078Y-132458872D01*
X83726520Y-132715747D01*
X84180000Y-132805950D01*
X84633480Y-132715747D01*
X85017922Y-132458872D01*
X85180000Y-132216304D01*
X85342078Y-132458872D01*
X85726520Y-132715747D01*
X86180000Y-132805950D01*
X86633480Y-132715747D01*
X87017922Y-132458872D01*
X87180000Y-132216304D01*
X87342078Y-132458872D01*
X87726520Y-132715747D01*
X88180000Y-132805950D01*
X88633480Y-132715747D01*
X89017922Y-132458872D01*
X89050315Y-132410392D01*
X89151639Y-132558000D01*
X90743000Y-132558000D01*
X90743000Y-131500000D01*
X90997000Y-131500000D01*
X90997000Y-132558000D01*
X92588361Y-132558000D01*
X92713803Y-132375256D01*
X92713398Y-132348854D01*
X92497724Y-131936882D01*
X92140813Y-131638804D01*
X91697000Y-131500000D01*
X90997000Y-131500000D01*
X90743000Y-131500000D01*
X90043000Y-131500000D01*
X89599187Y-131638804D01*
X89314087Y-131876909D01*
X89365000Y-131620950D01*
X89365000Y-130249050D01*
X89274797Y-129795570D01*
X89017922Y-129411128D01*
X88633480Y-129154253D01*
X88180000Y-129064050D01*
X87726520Y-129154253D01*
X87342078Y-129411128D01*
X87180000Y-129653696D01*
X87017922Y-129411128D01*
X86633480Y-129154253D01*
X86180000Y-129064050D01*
X85726520Y-129154253D01*
X85342078Y-129411128D01*
X85180000Y-129653696D01*
X85017922Y-129411128D01*
X84900000Y-129332335D01*
X84900000Y-129272445D01*
X84942192Y-129230327D01*
X85084838Y-128886799D01*
X85085162Y-128514833D01*
X84943117Y-128171057D01*
X84680327Y-127907808D01*
X84336799Y-127765162D01*
X83964833Y-127764838D01*
X83621057Y-127906883D01*
X83357808Y-128169673D01*
X83215162Y-128513201D01*
X83214838Y-128885167D01*
X83356883Y-129228943D01*
X83460000Y-129332240D01*
X83460000Y-129332335D01*
X83342078Y-129411128D01*
X83180000Y-129653696D01*
X83017922Y-129411128D01*
X82900000Y-129332335D01*
X82900000Y-129272445D01*
X82942192Y-129230327D01*
X83084838Y-128886799D01*
X83085162Y-128514833D01*
X82943117Y-128171057D01*
X82680327Y-127907808D01*
X82336799Y-127765162D01*
X81964833Y-127764838D01*
X81621057Y-127906883D01*
X81357808Y-128169673D01*
X81215162Y-128513201D01*
X81214838Y-128885167D01*
X81356883Y-129228943D01*
X81460000Y-129332240D01*
X81460000Y-129332335D01*
X81342078Y-129411128D01*
X81180000Y-129653696D01*
X81017922Y-129411128D01*
X80633480Y-129154253D01*
X80180000Y-129064050D01*
X79726520Y-129154253D01*
X79342078Y-129411128D01*
X79180000Y-129653696D01*
X79017922Y-129411128D01*
X78633480Y-129154253D01*
X78180000Y-129064050D01*
X77726520Y-129154253D01*
X77342078Y-129411128D01*
X77085203Y-129795570D01*
X77009729Y-130175000D01*
X73944746Y-130175000D01*
X73943117Y-130171057D01*
X73680327Y-129907808D01*
X73336799Y-129765162D01*
X72964833Y-129764838D01*
X72621057Y-129906883D01*
X72357808Y-130169673D01*
X72215162Y-130513201D01*
X72214838Y-130885167D01*
X72356883Y-131228943D01*
X72619673Y-131492192D01*
X72963201Y-131634838D01*
X73090869Y-131634949D01*
X73094160Y-131637148D01*
X73385000Y-131695000D01*
X74122751Y-131695000D01*
X73895149Y-131847078D01*
X73816356Y-131965000D01*
X73737419Y-131965000D01*
X73680327Y-131907808D01*
X73336799Y-131765162D01*
X72964833Y-131764838D01*
X72621057Y-131906883D01*
X72357808Y-132169673D01*
X72215162Y-132513201D01*
X72214838Y-132885167D01*
X72356883Y-133228943D01*
X72403952Y-133276094D01*
X72136799Y-133165162D01*
X71764833Y-133164838D01*
X71421057Y-133306883D01*
X71157808Y-133569673D01*
X71015162Y-133913201D01*
X71014838Y-134285167D01*
X71156883Y-134628943D01*
X71419673Y-134892192D01*
X71763201Y-135034838D01*
X71810077Y-135034879D01*
X71997599Y-135222401D01*
X72244161Y-135387148D01*
X72535000Y-135445000D01*
X73943083Y-135445000D01*
X73995149Y-135522922D01*
X74187717Y-135651591D01*
X73895149Y-135847078D01*
X73816356Y-135965000D01*
X69633234Y-135965000D01*
X67259117Y-133590883D01*
X67025532Y-133434807D01*
X66750000Y-133380000D01*
X53048234Y-133380000D01*
X52777370Y-133109136D01*
X52947003Y-133038871D01*
X53125631Y-132860242D01*
X53293881Y-132691993D01*
X53293881Y-132467486D01*
X52516594Y-131690199D01*
X52502452Y-131704342D01*
X52322846Y-131524736D01*
X52336989Y-131510594D01*
X52696199Y-131510594D01*
X53473486Y-132287881D01*
X53697993Y-132287881D01*
X53866242Y-132119631D01*
X54044871Y-131941003D01*
X54141544Y-131707614D01*
X54141543Y-131454995D01*
X54044870Y-131221606D01*
X53627282Y-130804018D01*
X53402776Y-130804018D01*
X52696199Y-131510594D01*
X52336989Y-131510594D01*
X52322847Y-131496452D01*
X52502452Y-131316847D01*
X52516594Y-131330989D01*
X53223170Y-130624412D01*
X53223170Y-130399906D01*
X52805582Y-129982318D01*
X52572193Y-129885645D01*
X52319574Y-129885644D01*
X52183588Y-129941971D01*
X52190249Y-129932223D01*
X52244733Y-129681061D01*
X52197209Y-129428490D01*
X52055164Y-129214308D01*
X51367406Y-128526550D01*
X51367406Y-128462558D01*
X51574228Y-128669380D01*
X51771931Y-128804465D01*
X52023093Y-128858949D01*
X52117230Y-128841236D01*
X53529800Y-130253807D01*
X53513051Y-130331019D01*
X53560575Y-130583590D01*
X53702620Y-130797772D01*
X55647163Y-132742315D01*
X55844866Y-132877400D01*
X56096028Y-132931884D01*
X56348599Y-132884360D01*
X56562781Y-132742315D01*
X57269888Y-132035208D01*
X57404973Y-131837505D01*
X57459457Y-131586343D01*
X57411933Y-131333772D01*
X57269888Y-131119590D01*
X55325345Y-129175047D01*
X55127642Y-129039962D01*
X54876480Y-128985478D01*
X54782343Y-129003191D01*
X53369773Y-127590620D01*
X53386522Y-127513408D01*
X53338998Y-127260837D01*
X53196953Y-127046655D01*
X51252410Y-125102112D01*
X51054707Y-124967027D01*
X50803545Y-124912543D01*
X50585140Y-124953638D01*
X50626949Y-124760907D01*
X50609236Y-124666770D01*
X52021807Y-123254200D01*
X52099019Y-123270949D01*
X52187203Y-123254356D01*
X52285292Y-123352445D01*
X52268543Y-123429657D01*
X52316067Y-123682228D01*
X52458112Y-123896410D01*
X54402655Y-125840953D01*
X54600358Y-125976038D01*
X54851520Y-126030522D01*
X54945657Y-126012809D01*
X55258635Y-126325787D01*
X55258637Y-126325790D01*
X56358227Y-127425380D01*
X56341478Y-127502592D01*
X56389002Y-127755163D01*
X56531047Y-127969345D01*
X58475590Y-129913888D01*
X58673293Y-130048973D01*
X58924455Y-130103457D01*
X59177026Y-130055933D01*
X59391208Y-129913888D01*
X60098315Y-129206781D01*
X60233400Y-129009078D01*
X60287884Y-128757916D01*
X60240360Y-128505345D01*
X60098315Y-128291163D01*
X59138658Y-127331506D01*
X59337337Y-127331506D01*
X59570726Y-127234833D01*
X60430256Y-126375303D01*
X60430256Y-126150797D01*
X59829746Y-125550286D01*
X59815604Y-125564429D01*
X59635999Y-125384824D01*
X59650141Y-125370681D01*
X60009351Y-125370681D01*
X60609862Y-125971191D01*
X60834368Y-125971191D01*
X61035559Y-125770000D01*
X100380560Y-125770000D01*
X100380560Y-126770000D01*
X100424838Y-127005317D01*
X100563910Y-127221441D01*
X100776110Y-127366431D01*
X101028000Y-127417440D01*
X103778000Y-127417440D01*
X104013317Y-127373162D01*
X104229441Y-127234090D01*
X104368890Y-127030000D01*
X106200721Y-127030000D01*
X106323910Y-127221441D01*
X106536110Y-127366431D01*
X106788000Y-127417440D01*
X109538000Y-127417440D01*
X109773317Y-127373162D01*
X109989441Y-127234090D01*
X110110263Y-127057261D01*
X110215910Y-127221441D01*
X110428110Y-127366431D01*
X110680000Y-127417440D01*
X113430000Y-127417440D01*
X113665317Y-127373162D01*
X113881441Y-127234090D01*
X114020890Y-127030000D01*
X115852721Y-127030000D01*
X115975910Y-127221441D01*
X116188110Y-127366431D01*
X116440000Y-127417440D01*
X119190000Y-127417440D01*
X119425317Y-127373162D01*
X119641441Y-127234090D01*
X119786431Y-127021890D01*
X119792889Y-126990000D01*
X120917659Y-126990000D01*
X121019673Y-127092192D01*
X121363201Y-127234838D01*
X121735167Y-127235162D01*
X122078943Y-127093117D01*
X122342192Y-126830327D01*
X122484838Y-126486799D01*
X122485162Y-126114833D01*
X122343117Y-125771057D01*
X122080327Y-125507808D01*
X121736799Y-125365162D01*
X121364833Y-125364838D01*
X121021057Y-125506883D01*
X120977865Y-125550000D01*
X119796044Y-125550000D01*
X119793162Y-125534683D01*
X119654090Y-125318559D01*
X119441890Y-125173569D01*
X119190000Y-125122560D01*
X116440000Y-125122560D01*
X116204683Y-125166838D01*
X115988559Y-125305910D01*
X115849110Y-125510000D01*
X114017279Y-125510000D01*
X113894090Y-125318559D01*
X113681890Y-125173569D01*
X113430000Y-125122560D01*
X110680000Y-125122560D01*
X110444683Y-125166838D01*
X110228559Y-125305910D01*
X110107737Y-125482739D01*
X110002090Y-125318559D01*
X109789890Y-125173569D01*
X109538000Y-125122560D01*
X106788000Y-125122560D01*
X106552683Y-125166838D01*
X106336559Y-125305910D01*
X106197110Y-125510000D01*
X104365279Y-125510000D01*
X104242090Y-125318559D01*
X104029890Y-125173569D01*
X103778000Y-125122560D01*
X101028000Y-125122560D01*
X100792683Y-125166838D01*
X100576559Y-125305910D01*
X100431569Y-125518110D01*
X100380560Y-125770000D01*
X61035559Y-125770000D01*
X61693898Y-125111661D01*
X61790571Y-124878272D01*
X61790571Y-124625653D01*
X61693899Y-124392264D01*
X61515270Y-124213636D01*
X61453086Y-124151452D01*
X61228580Y-124151452D01*
X60009351Y-125370681D01*
X59650141Y-125370681D01*
X59049630Y-124770171D01*
X58825124Y-124770171D01*
X57965594Y-125629701D01*
X57868921Y-125863090D01*
X57868921Y-126115709D01*
X57903928Y-126200224D01*
X57704907Y-126157051D01*
X57610770Y-126174764D01*
X56510217Y-125074210D01*
X56510214Y-125074208D01*
X56198200Y-124762193D01*
X56214949Y-124684981D01*
X56174940Y-124472350D01*
X56373657Y-124515457D01*
X56626228Y-124467933D01*
X56779838Y-124366059D01*
X59229236Y-124366059D01*
X59229236Y-124590565D01*
X59829746Y-125191076D01*
X61048975Y-123971847D01*
X61048975Y-123747341D01*
X60986791Y-123685157D01*
X60808163Y-123506528D01*
X60574774Y-123409856D01*
X60322155Y-123409856D01*
X60088766Y-123506529D01*
X59229236Y-124366059D01*
X56779838Y-124366059D01*
X56840410Y-124325888D01*
X58469718Y-122696580D01*
X62683452Y-122696580D01*
X62683452Y-122921086D01*
X62745636Y-122983270D01*
X62924264Y-123161899D01*
X63157653Y-123258571D01*
X63410272Y-123258571D01*
X63643661Y-123161898D01*
X64503191Y-122302368D01*
X64503191Y-122077862D01*
X63902681Y-121477351D01*
X62683452Y-122696580D01*
X58469718Y-122696580D01*
X58784953Y-122381345D01*
X58902328Y-122209561D01*
X58963201Y-122234838D01*
X59335167Y-122235162D01*
X59678943Y-122093117D01*
X59942192Y-121830327D01*
X59958872Y-121790155D01*
X61941856Y-121790155D01*
X61941856Y-122042774D01*
X62038528Y-122276163D01*
X62217157Y-122454791D01*
X62279341Y-122516975D01*
X62503847Y-122516975D01*
X63723076Y-121297746D01*
X63122565Y-120697236D01*
X62898059Y-120697236D01*
X62038529Y-121556766D01*
X61941856Y-121790155D01*
X59958872Y-121790155D01*
X60084838Y-121486799D01*
X60085162Y-121114833D01*
X59943117Y-120771057D01*
X59895259Y-120723116D01*
X60224115Y-120394260D01*
X60446592Y-120442522D01*
X60699163Y-120394998D01*
X60913345Y-120252953D01*
X62857888Y-118308410D01*
X62969786Y-118144642D01*
X63174308Y-118349164D01*
X63372011Y-118484249D01*
X63623173Y-118538733D01*
X63875744Y-118491209D01*
X63886872Y-118483829D01*
X63833267Y-118730939D01*
X63880791Y-118983510D01*
X64022836Y-119197692D01*
X64230316Y-119405172D01*
X64161701Y-119433594D01*
X63302171Y-120293124D01*
X63302171Y-120517630D01*
X63902681Y-121118141D01*
X63916824Y-121103999D01*
X64096429Y-121283604D01*
X64082286Y-121297746D01*
X64682797Y-121898256D01*
X64907303Y-121898256D01*
X65766833Y-121038726D01*
X65863506Y-120805337D01*
X65863506Y-120552718D01*
X65797077Y-120392343D01*
X65999114Y-120258352D01*
X66686872Y-119570594D01*
X68208485Y-119570594D01*
X68363201Y-119634838D01*
X68735167Y-119635162D01*
X69078943Y-119493117D01*
X69342192Y-119230327D01*
X69395478Y-119102000D01*
X91617560Y-119102000D01*
X91617560Y-120102000D01*
X91661838Y-120337317D01*
X91800910Y-120553441D01*
X92013110Y-120698431D01*
X92265000Y-120749440D01*
X95015000Y-120749440D01*
X95250317Y-120705162D01*
X95466441Y-120566090D01*
X95611431Y-120353890D01*
X95617889Y-120322000D01*
X97418956Y-120322000D01*
X97421838Y-120337317D01*
X97560910Y-120553441D01*
X97773110Y-120698431D01*
X98025000Y-120749440D01*
X99324638Y-120749440D01*
X99390000Y-120814802D01*
X99390000Y-120937537D01*
X99357808Y-120969673D01*
X99215162Y-121313201D01*
X99214838Y-121685167D01*
X99356883Y-122028943D01*
X99619673Y-122292192D01*
X99963201Y-122434838D01*
X100335167Y-122435162D01*
X100678943Y-122293117D01*
X100942192Y-122030327D01*
X101084838Y-121686799D01*
X101085162Y-121314833D01*
X100943117Y-120971057D01*
X100910000Y-120937882D01*
X100910000Y-120724038D01*
X101010317Y-120705162D01*
X101226441Y-120566090D01*
X101371431Y-120353890D01*
X101422440Y-120102000D01*
X101422440Y-119102000D01*
X101378162Y-118866683D01*
X101239090Y-118650559D01*
X101026890Y-118505569D01*
X100775000Y-118454560D01*
X98025000Y-118454560D01*
X97789683Y-118498838D01*
X97573559Y-118637910D01*
X97428569Y-118850110D01*
X97422111Y-118882000D01*
X95621044Y-118882000D01*
X95618162Y-118866683D01*
X95479090Y-118650559D01*
X95266890Y-118505569D01*
X95015000Y-118454560D01*
X92265000Y-118454560D01*
X92029683Y-118498838D01*
X91813559Y-118637910D01*
X91668569Y-118850110D01*
X91617560Y-119102000D01*
X69395478Y-119102000D01*
X69484838Y-118886799D01*
X69485162Y-118514833D01*
X69343117Y-118171057D01*
X69080327Y-117907808D01*
X68736799Y-117765162D01*
X68364833Y-117764838D01*
X68021057Y-117906883D01*
X67877095Y-118050594D01*
X66545450Y-118050594D01*
X65857692Y-117362836D01*
X65659989Y-117227751D01*
X65408827Y-117173267D01*
X65156256Y-117220791D01*
X65145128Y-117228171D01*
X65198733Y-116981061D01*
X65151209Y-116728490D01*
X65009164Y-116514308D01*
X63948504Y-115453648D01*
X63750801Y-115318563D01*
X63499639Y-115264079D01*
X63247068Y-115311603D01*
X63032886Y-115453648D01*
X62158298Y-116328236D01*
X62104766Y-116364005D01*
X61924393Y-116544378D01*
X61701916Y-116496116D01*
X61449345Y-116543640D01*
X61235163Y-116685685D01*
X60683865Y-117236983D01*
X60698006Y-117171794D01*
X60650482Y-116919223D01*
X60508437Y-116705041D01*
X58563894Y-114760498D01*
X58366191Y-114625413D01*
X58115029Y-114570929D01*
X57930460Y-114605658D01*
X57285122Y-113960320D01*
X57285162Y-113914833D01*
X57143117Y-113571057D01*
X56880327Y-113307808D01*
X56536799Y-113165162D01*
X56489923Y-113165121D01*
X56470374Y-113145572D01*
X56506277Y-112980065D01*
X56458753Y-112727494D01*
X56316708Y-112513312D01*
X54372165Y-110568769D01*
X54174462Y-110433684D01*
X53923300Y-110379200D01*
X53670729Y-110426724D01*
X53456547Y-110568769D01*
X52749440Y-111275876D01*
X52614355Y-111473579D01*
X52559871Y-111724741D01*
X52607395Y-111977312D01*
X52749440Y-112191494D01*
X54693983Y-114136037D01*
X54891686Y-114271122D01*
X55142848Y-114325606D01*
X55395419Y-114278082D01*
X55414855Y-114265192D01*
X55414838Y-114285167D01*
X55556883Y-114628943D01*
X55819673Y-114892192D01*
X56163201Y-115034838D01*
X56210077Y-115034879D01*
X56820057Y-115644859D01*
X56806084Y-115665308D01*
X56751600Y-115916470D01*
X56799124Y-116169041D01*
X56941169Y-116383223D01*
X58885712Y-118327766D01*
X59083415Y-118462851D01*
X59334577Y-118517335D01*
X59419490Y-118501358D01*
X59290620Y-118630228D01*
X59155535Y-118827931D01*
X59101051Y-119079093D01*
X59146759Y-119322012D01*
X57851458Y-120617313D01*
X57628981Y-120569051D01*
X57376410Y-120616575D01*
X57162228Y-120758620D01*
X57035194Y-120885654D01*
X57049335Y-120820465D01*
X57001811Y-120567894D01*
X56859766Y-120353712D01*
X56357564Y-119851510D01*
X56371255Y-119782681D01*
X56312777Y-119488699D01*
X56303887Y-119444006D01*
X56246254Y-119357752D01*
X56246254Y-117665454D01*
X56188402Y-117374615D01*
X56023655Y-117128053D01*
X55697522Y-116801920D01*
X55697562Y-116756433D01*
X55555517Y-116412657D01*
X55292727Y-116149408D01*
X55000284Y-116027974D01*
X54880327Y-115907808D01*
X54536799Y-115765162D01*
X54164833Y-115764838D01*
X53821057Y-115906883D01*
X53557808Y-116169673D01*
X53430769Y-116475616D01*
X52039109Y-115083956D01*
X51751993Y-114892113D01*
X51413319Y-114824745D01*
X51344490Y-114838436D01*
X50723494Y-114217440D01*
X50525791Y-114082355D01*
X50274629Y-114027871D01*
X50022058Y-114075395D01*
X49807876Y-114217440D01*
X49100769Y-114924547D01*
X48965684Y-115122250D01*
X48911200Y-115373412D01*
X48958724Y-115625983D01*
X49100769Y-115840165D01*
X50002726Y-116742122D01*
X48114620Y-118630228D01*
X47979535Y-118827931D01*
X47925051Y-119079093D01*
X47942764Y-119173230D01*
X46568424Y-120547570D01*
X46527467Y-120341668D01*
X46362720Y-120095106D01*
X45456905Y-119189291D01*
X45586249Y-118999989D01*
X45640733Y-118748827D01*
X45593209Y-118496256D01*
X45574386Y-118467874D01*
X45715574Y-118526356D01*
X45968193Y-118526355D01*
X46201582Y-118429682D01*
X46619170Y-118012094D01*
X46619170Y-117787588D01*
X45912594Y-117081011D01*
X45898452Y-117095154D01*
X45718847Y-116915549D01*
X45732989Y-116901406D01*
X46092199Y-116901406D01*
X46798776Y-117607982D01*
X47023282Y-117607982D01*
X47440870Y-117190394D01*
X47537543Y-116957005D01*
X47537544Y-116704386D01*
X47440871Y-116470997D01*
X47262242Y-116292369D01*
X47093993Y-116124119D01*
X46869486Y-116124119D01*
X46092199Y-116901406D01*
X45732989Y-116901406D01*
X45026412Y-116194830D01*
X44801906Y-116194830D01*
X44384318Y-116612418D01*
X44287645Y-116845807D01*
X44287644Y-117098426D01*
X44343971Y-117234412D01*
X44334223Y-117227751D01*
X44083061Y-117173267D01*
X43830490Y-117220791D01*
X43616308Y-117362836D01*
X42555648Y-118423496D01*
X42420563Y-118621199D01*
X42366079Y-118872361D01*
X42413603Y-119124932D01*
X42555648Y-119339114D01*
X43474886Y-120258352D01*
X43672589Y-120393437D01*
X43923751Y-120447921D01*
X44176322Y-120400397D01*
X44382001Y-120263991D01*
X45065319Y-120947309D01*
X45065319Y-121679529D01*
X44041685Y-122703163D01*
X43906600Y-122900866D01*
X43852116Y-123152028D01*
X43899640Y-123404599D01*
X44041685Y-123618781D01*
X44748792Y-124325888D01*
X44946495Y-124460973D01*
X45197657Y-124515457D01*
X45450228Y-124467933D01*
X45468000Y-124456147D01*
X45468000Y-128270000D01*
X45525852Y-128560839D01*
X45690599Y-128807401D01*
X46191410Y-129308212D01*
X51698589Y-135117531D01*
X51706870Y-135123390D01*
X51712498Y-135131821D01*
X51827592Y-135208800D01*
X51940666Y-135288799D01*
X51950556Y-135291042D01*
X51958985Y-135296680D01*
X52094807Y-135323761D01*
X52229858Y-135354393D01*
X52239852Y-135352681D01*
X52249798Y-135354664D01*
X59169702Y-135357800D01*
X59157808Y-135369673D01*
X59015162Y-135713201D01*
X59014838Y-136085167D01*
X59156883Y-136428943D01*
X59419673Y-136692192D01*
X59763201Y-136834838D01*
X60135167Y-136835162D01*
X60478943Y-136693117D01*
X60562205Y-136610000D01*
X60616436Y-136610000D01*
X60642838Y-136750317D01*
X60781910Y-136966441D01*
X60994110Y-137111431D01*
X61246000Y-137162440D01*
X61279270Y-137162440D01*
X61330807Y-137421532D01*
X61486883Y-137655117D01*
X62324883Y-138493117D01*
X62558468Y-138649193D01*
X62632907Y-138664000D01*
X61495440Y-138664000D01*
X61495440Y-137854000D01*
X61451162Y-137618683D01*
X61312090Y-137402559D01*
X61099890Y-137257569D01*
X60848000Y-137206560D01*
X59548000Y-137206560D01*
X59312683Y-137250838D01*
X59096559Y-137389910D01*
X58951569Y-137602110D01*
X58900560Y-137854000D01*
X58900560Y-139354000D01*
X58944838Y-139589317D01*
X59083910Y-139805441D01*
X59296110Y-139950431D01*
X59329490Y-139957191D01*
X59188301Y-140015673D01*
X59009673Y-140194302D01*
X58913000Y-140427691D01*
X58913000Y-141018250D01*
X59071750Y-141177000D01*
X60071000Y-141177000D01*
X60071000Y-141157000D01*
X60325000Y-141157000D01*
X60325000Y-141177000D01*
X60345000Y-141177000D01*
X60345000Y-141431000D01*
X60325000Y-141431000D01*
X60325000Y-142530250D01*
X60483750Y-142689000D01*
X60974310Y-142689000D01*
X61207699Y-142592327D01*
X61352876Y-142447149D01*
X61369673Y-142487699D01*
X61548302Y-142666327D01*
X61781691Y-142763000D01*
X62372250Y-142763000D01*
X62531000Y-142604250D01*
X62531000Y-141605000D01*
X62511000Y-141605000D01*
X62511000Y-141351000D01*
X62531000Y-141351000D01*
X62531000Y-140351750D01*
X62372250Y-140193000D01*
X61781691Y-140193000D01*
X61548302Y-140289673D01*
X61461702Y-140376273D01*
X61386327Y-140194302D01*
X61296026Y-140104000D01*
X62961661Y-140104000D01*
X63091917Y-140193000D01*
X62943750Y-140193000D01*
X62785000Y-140351750D01*
X62785000Y-141351000D01*
X62805000Y-141351000D01*
X62805000Y-141605000D01*
X62785000Y-141605000D01*
X62785000Y-142604250D01*
X62943750Y-142763000D01*
X63534309Y-142763000D01*
X63767698Y-142666327D01*
X63946327Y-142487699D01*
X64002654Y-142351713D01*
X64004838Y-142363317D01*
X64143910Y-142579441D01*
X64356110Y-142724431D01*
X64608000Y-142775440D01*
X66108000Y-142775440D01*
X66343317Y-142731162D01*
X66559441Y-142592090D01*
X66704431Y-142379890D01*
X66741265Y-142198000D01*
X72091766Y-142198000D01*
X73087883Y-143194117D01*
X73321468Y-143350193D01*
X73597000Y-143405000D01*
X73816356Y-143405000D01*
X73895149Y-143522922D01*
X74137717Y-143685000D01*
X73965606Y-143800000D01*
X71941313Y-143800000D01*
X71941308Y-143799999D01*
X71658824Y-143856190D01*
X71602633Y-143867367D01*
X71315518Y-144059210D01*
X71315516Y-144059213D01*
X66753419Y-148621309D01*
X66558726Y-148582582D01*
X66156842Y-148662522D01*
X66210438Y-148514010D01*
X66183588Y-147935210D01*
X66013739Y-147525184D01*
X65765395Y-147448414D01*
X64921707Y-148292102D01*
X64935850Y-148306245D01*
X64756245Y-148485850D01*
X64742102Y-148471707D01*
X63898414Y-149315395D01*
X63975184Y-149563739D01*
X64385210Y-149733588D01*
X64964010Y-149760438D01*
X65112522Y-149706842D01*
X65032581Y-150108726D01*
X65145621Y-150677011D01*
X65467528Y-151158780D01*
X65949297Y-151480687D01*
X66517582Y-151593727D01*
X66905868Y-151516491D01*
X66828632Y-151904777D01*
X66941672Y-152473062D01*
X67263579Y-152954831D01*
X67745348Y-153276738D01*
X68313633Y-153389778D01*
X68701919Y-153312542D01*
X68624683Y-153700828D01*
X68737723Y-154269113D01*
X69059630Y-154750882D01*
X69328482Y-154930523D01*
X68422465Y-154813043D01*
X67141618Y-154631556D01*
X66278266Y-154453549D01*
X65460555Y-154241822D01*
X64472347Y-153918751D01*
X64097929Y-153772882D01*
X63371129Y-153441956D01*
X62752523Y-153091809D01*
X62436025Y-152865732D01*
X62011829Y-152447882D01*
X61491639Y-151863151D01*
X60918566Y-151089435D01*
X60561545Y-150492621D01*
X60185388Y-149628255D01*
X59933875Y-148989465D01*
X59510093Y-147775118D01*
X59177224Y-146777506D01*
X59011835Y-146273534D01*
X58826561Y-145703965D01*
X58628307Y-145089505D01*
X58500771Y-144691056D01*
X59300540Y-144691056D01*
X59348064Y-144943627D01*
X59490109Y-145157809D01*
X60692191Y-146359891D01*
X60889894Y-146494976D01*
X61141056Y-146549460D01*
X61393627Y-146501936D01*
X61450963Y-146463911D01*
X61440478Y-146516623D01*
X61553518Y-147084908D01*
X61875425Y-147566677D01*
X62357194Y-147888584D01*
X62925479Y-148001624D01*
X63327362Y-147921684D01*
X63273766Y-148070194D01*
X63300616Y-148648994D01*
X63470465Y-149059020D01*
X63718809Y-149135790D01*
X64562497Y-148292102D01*
X64548355Y-148277960D01*
X64727960Y-148098355D01*
X64742102Y-148112497D01*
X65585790Y-147268809D01*
X65509020Y-147020465D01*
X65098994Y-146850616D01*
X64520194Y-146823766D01*
X64371683Y-146877362D01*
X64451623Y-146475479D01*
X64338584Y-145907195D01*
X64016676Y-145425426D01*
X63534907Y-145103518D01*
X62966623Y-144990479D01*
X62917554Y-145000239D01*
X62944976Y-144960106D01*
X62999460Y-144708944D01*
X62951936Y-144456373D01*
X62809891Y-144242191D01*
X61607809Y-143040109D01*
X61410106Y-142905024D01*
X61158944Y-142850540D01*
X60906373Y-142898064D01*
X60692191Y-143040109D01*
X59490109Y-144242191D01*
X59355024Y-144439894D01*
X59300540Y-144691056D01*
X58500771Y-144691056D01*
X58392927Y-144354130D01*
X58087821Y-143392137D01*
X57964405Y-142999774D01*
X57947896Y-142969633D01*
X57940809Y-142936006D01*
X57512869Y-141935157D01*
X57484149Y-141893213D01*
X57466473Y-141845552D01*
X57309115Y-141589750D01*
X58913000Y-141589750D01*
X58913000Y-142180309D01*
X59009673Y-142413698D01*
X59188301Y-142592327D01*
X59421690Y-142689000D01*
X59912250Y-142689000D01*
X60071000Y-142530250D01*
X60071000Y-141431000D01*
X59071750Y-141431000D01*
X58913000Y-141589750D01*
X57309115Y-141589750D01*
X56674635Y-140558339D01*
X56644415Y-140525759D01*
X56623743Y-140486422D01*
X56077715Y-139811467D01*
X56057513Y-139794649D01*
X56043556Y-139772370D01*
X55690126Y-139397528D01*
X55668131Y-139381877D01*
X55652063Y-139360184D01*
X55156766Y-138910714D01*
X55116271Y-138886408D01*
X55083247Y-138852649D01*
X54229183Y-138268279D01*
X53038692Y-137427680D01*
X52221885Y-136829358D01*
X51307342Y-136131009D01*
X50638216Y-135588182D01*
X50130604Y-135173703D01*
X49072327Y-134208402D01*
X48309709Y-133397209D01*
X47791096Y-132758887D01*
X47269718Y-131973267D01*
X46918152Y-131268516D01*
X46748866Y-130929163D01*
X46727238Y-130901243D01*
X46714519Y-130868298D01*
X46119837Y-129929803D01*
X45486513Y-128920157D01*
X44931704Y-128031790D01*
X44104851Y-126703540D01*
X44104850Y-126703539D01*
X43881659Y-126344187D01*
X43499877Y-125632346D01*
X43046700Y-124424298D01*
X42773073Y-123419192D01*
X42500759Y-122057911D01*
X42434108Y-121605926D01*
X42418516Y-121562232D01*
X42414602Y-121516009D01*
X42173177Y-120679038D01*
X42033024Y-120031445D01*
X41838883Y-118916256D01*
X41784599Y-118542931D01*
X41742716Y-118424808D01*
X41703747Y-118305651D01*
X41698151Y-118299125D01*
X41695279Y-118291024D01*
X41611361Y-118197899D01*
X41529778Y-118102747D01*
X41522114Y-118098860D01*
X41516358Y-118092473D01*
X41403187Y-118038550D01*
X41291404Y-117981862D01*
X40375992Y-117725577D01*
X39650329Y-117462936D01*
X39070022Y-117202042D01*
X38724770Y-117012505D01*
X38710495Y-117008000D01*
X38698623Y-116998874D01*
X38098759Y-116702411D01*
X37828786Y-116547205D01*
X37076660Y-116050653D01*
X36741479Y-115790718D01*
X45206018Y-115790718D01*
X45206018Y-116015224D01*
X45912594Y-116721801D01*
X46689881Y-115944514D01*
X46689881Y-115720007D01*
X46521631Y-115551758D01*
X46343003Y-115373129D01*
X46109614Y-115276456D01*
X45856995Y-115276457D01*
X45623606Y-115373130D01*
X45206018Y-115790718D01*
X36741479Y-115790718D01*
X36321730Y-115465200D01*
X35783714Y-114989369D01*
X35468540Y-114699632D01*
X34966004Y-114198389D01*
X34498786Y-113684084D01*
X34041580Y-113126322D01*
X33654183Y-112591883D01*
X33276238Y-112029898D01*
X32940617Y-111477593D01*
X32620780Y-110897393D01*
X32183105Y-110000426D01*
X31945090Y-109448480D01*
X31773711Y-109011660D01*
X31606583Y-108533586D01*
X31540709Y-108421838D01*
X31476155Y-108309345D01*
X31472927Y-108306854D01*
X31470855Y-108303340D01*
X31367196Y-108225281D01*
X31264542Y-108146081D01*
X31260608Y-108145016D01*
X31257348Y-108142561D01*
X31131735Y-108110120D01*
X31006559Y-108076225D01*
X30619969Y-108049863D01*
X30310274Y-108016086D01*
X29603287Y-107901081D01*
X28830510Y-107716204D01*
X27846627Y-107383564D01*
X27076268Y-107033741D01*
X26285720Y-106572548D01*
X25755881Y-106189890D01*
X25152582Y-105659249D01*
X24488882Y-104915076D01*
X23974368Y-104162615D01*
X23460009Y-103148418D01*
X23113467Y-102334569D01*
X23113466Y-102334567D01*
X22845389Y-101704510D01*
X22517602Y-100928180D01*
X22148414Y-100039580D01*
X21891332Y-99408065D01*
X21861913Y-99334285D01*
X31500760Y-99334285D01*
X31711169Y-99843515D01*
X32100436Y-100233461D01*
X32609298Y-100444759D01*
X33160285Y-100445240D01*
X33669515Y-100234831D01*
X34059461Y-99845564D01*
X34270759Y-99336702D01*
X34270761Y-99334285D01*
X46500760Y-99334285D01*
X46711169Y-99843515D01*
X47100436Y-100233461D01*
X47609298Y-100444759D01*
X48160285Y-100445240D01*
X48669515Y-100234831D01*
X49059461Y-99845564D01*
X49270759Y-99336702D01*
X49271240Y-98785715D01*
X49060831Y-98276485D01*
X48671564Y-97886539D01*
X48162702Y-97675241D01*
X47611715Y-97674760D01*
X47102485Y-97885169D01*
X46712539Y-98274436D01*
X46501241Y-98783298D01*
X46500760Y-99334285D01*
X34270761Y-99334285D01*
X34271240Y-98785715D01*
X34060831Y-98276485D01*
X33843153Y-98058427D01*
X35416579Y-96485000D01*
X60049995Y-96485000D01*
X60050000Y-96485001D01*
X60332484Y-96428810D01*
X60388675Y-96417633D01*
X60675790Y-96225790D01*
X62970500Y-93931079D01*
X62970500Y-106870500D01*
X63025307Y-107146032D01*
X63181383Y-107379617D01*
X68725391Y-112923625D01*
X68958976Y-113079701D01*
X69234508Y-113134508D01*
X77108266Y-113134508D01*
X79078379Y-115104621D01*
X79311964Y-115260697D01*
X79587496Y-115315504D01*
X81832769Y-115315504D01*
X81853338Y-115424817D01*
X81992410Y-115640941D01*
X82204610Y-115785931D01*
X82456500Y-115836940D01*
X82636500Y-115836940D01*
X82636500Y-115995266D01*
X82569837Y-116061929D01*
X82336799Y-115965162D01*
X81964833Y-115964838D01*
X81621057Y-116106883D01*
X81357808Y-116369673D01*
X81215162Y-116713201D01*
X81214838Y-117085167D01*
X81356883Y-117428943D01*
X81619673Y-117692192D01*
X81963201Y-117834838D01*
X82335167Y-117835162D01*
X82678943Y-117693117D01*
X82752732Y-117619457D01*
X83025532Y-117565193D01*
X83043064Y-117553479D01*
X83156883Y-117828943D01*
X83419673Y-118092192D01*
X83763201Y-118234838D01*
X84135167Y-118235162D01*
X84478943Y-118093117D01*
X84742192Y-117830327D01*
X84823272Y-117635065D01*
X84935167Y-117635162D01*
X85278943Y-117493117D01*
X85352188Y-117420000D01*
X86550000Y-117420000D01*
X86825532Y-117365193D01*
X87059117Y-117209117D01*
X87946234Y-116322000D01*
X91658956Y-116322000D01*
X91661838Y-116337317D01*
X91800910Y-116553441D01*
X92013110Y-116698431D01*
X92265000Y-116749440D01*
X95015000Y-116749440D01*
X95250317Y-116705162D01*
X95466441Y-116566090D01*
X95605890Y-116362000D01*
X97437721Y-116362000D01*
X97560910Y-116553441D01*
X97773110Y-116698431D01*
X98025000Y-116749440D01*
X100775000Y-116749440D01*
X101010317Y-116705162D01*
X101226441Y-116566090D01*
X101371431Y-116353890D01*
X101422440Y-116102000D01*
X101422440Y-115102000D01*
X101378162Y-114866683D01*
X101239090Y-114650559D01*
X101026890Y-114505569D01*
X100775000Y-114454560D01*
X98025000Y-114454560D01*
X97789683Y-114498838D01*
X97573559Y-114637910D01*
X97434110Y-114842000D01*
X95602279Y-114842000D01*
X95479090Y-114650559D01*
X95266890Y-114505569D01*
X95015000Y-114454560D01*
X92265000Y-114454560D01*
X92029683Y-114498838D01*
X91813559Y-114637910D01*
X91668569Y-114850110D01*
X91662111Y-114882000D01*
X90589737Y-114882000D01*
X92301485Y-113170252D01*
X96702252Y-113170252D01*
X96977784Y-113115445D01*
X97211369Y-112959369D01*
X103519904Y-106650834D01*
X103569617Y-106617617D01*
X103725693Y-106384032D01*
X103780500Y-106108500D01*
X103780500Y-100901500D01*
X103725693Y-100625968D01*
X103569617Y-100392383D01*
X103145500Y-99968266D01*
X103145500Y-96837500D01*
X103090693Y-96561968D01*
X102934617Y-96328383D01*
X102510500Y-95904266D01*
X102510500Y-94312080D01*
X104424208Y-96225787D01*
X104424210Y-96225790D01*
X104711325Y-96417633D01*
X104767516Y-96428810D01*
X105050000Y-96485001D01*
X105050005Y-96485000D01*
X114911420Y-96485000D01*
X116726421Y-98300000D01*
X116332000Y-98300000D01*
X116041161Y-98357852D01*
X115794599Y-98522599D01*
X112746599Y-101570599D01*
X112581852Y-101817161D01*
X112524000Y-102108000D01*
X112524000Y-107393560D01*
X112384000Y-107393560D01*
X112148683Y-107437838D01*
X111932559Y-107576910D01*
X111878343Y-107656257D01*
X111849728Y-107661949D01*
X111611276Y-107821277D01*
X111240277Y-108192277D01*
X111080949Y-108430728D01*
X111025000Y-108712000D01*
X111025000Y-111760000D01*
X111078497Y-112028943D01*
X111080949Y-112041272D01*
X111240277Y-112279723D01*
X112256277Y-113295723D01*
X112494728Y-113455051D01*
X112776000Y-113511000D01*
X112943258Y-113511000D01*
X112966838Y-113636317D01*
X113105910Y-113852441D01*
X113318110Y-113997431D01*
X113570000Y-114048440D01*
X115070000Y-114048440D01*
X115305317Y-114004162D01*
X115521441Y-113865090D01*
X115569134Y-113795289D01*
X115605910Y-113852441D01*
X115818110Y-113997431D01*
X116070000Y-114048440D01*
X117570000Y-114048440D01*
X117805317Y-114004162D01*
X118021441Y-113865090D01*
X118166431Y-113652890D01*
X118195164Y-113511000D01*
X120396000Y-113511000D01*
X120677272Y-113455051D01*
X120915723Y-113295723D01*
X121423723Y-112787724D01*
X121583051Y-112549273D01*
X121604886Y-112439500D01*
X121639000Y-112268000D01*
X121639000Y-111697446D01*
X121789317Y-111669162D01*
X122005441Y-111530090D01*
X122150431Y-111317890D01*
X122201440Y-111066000D01*
X122201440Y-110951000D01*
X122933560Y-110951000D01*
X122933560Y-111220000D01*
X122977838Y-111455317D01*
X123116910Y-111671441D01*
X123329110Y-111816431D01*
X123581000Y-111867440D01*
X124831000Y-111867440D01*
X125066317Y-111823162D01*
X125282441Y-111684090D01*
X125427431Y-111471890D01*
X125478440Y-111220000D01*
X125478440Y-109720000D01*
X125434162Y-109484683D01*
X125295090Y-109268559D01*
X125226994Y-109222031D01*
X125369327Y-109079698D01*
X125466000Y-108846309D01*
X125466000Y-108255750D01*
X125307250Y-108097000D01*
X124333000Y-108097000D01*
X124333000Y-108117000D01*
X124079000Y-108117000D01*
X124079000Y-108097000D01*
X124059000Y-108097000D01*
X124059000Y-107843000D01*
X124079000Y-107843000D01*
X124079000Y-106743750D01*
X124333000Y-106743750D01*
X124333000Y-107843000D01*
X125307250Y-107843000D01*
X125466000Y-107684250D01*
X125466000Y-107093691D01*
X125369327Y-106860302D01*
X125190699Y-106681673D01*
X124957310Y-106585000D01*
X124491750Y-106585000D01*
X124333000Y-106743750D01*
X124079000Y-106743750D01*
X123920250Y-106585000D01*
X123454690Y-106585000D01*
X123221301Y-106681673D01*
X123077000Y-106825975D01*
X123077000Y-105700000D01*
X123068315Y-105653841D01*
X123041035Y-105611447D01*
X122999410Y-105583006D01*
X122950000Y-105573000D01*
X121602606Y-105573000D01*
X121077000Y-105047394D01*
X121077000Y-103100000D01*
X121068315Y-103053841D01*
X121041035Y-103011447D01*
X120999410Y-102983006D01*
X120950000Y-102973000D01*
X114550000Y-102973000D01*
X114503841Y-102981685D01*
X114461447Y-103008965D01*
X114433006Y-103050590D01*
X114423000Y-103100000D01*
X114423000Y-105700000D01*
X114431685Y-105746159D01*
X114458965Y-105788553D01*
X114500590Y-105816994D01*
X114550000Y-105827000D01*
X114878975Y-105827000D01*
X114888302Y-105836327D01*
X115121691Y-105933000D01*
X115712250Y-105933000D01*
X115818250Y-105827000D01*
X116177750Y-105827000D01*
X116283750Y-105933000D01*
X116874309Y-105933000D01*
X117107698Y-105836327D01*
X117117025Y-105827000D01*
X117597421Y-105827000D01*
X117696110Y-105894431D01*
X117948000Y-105945440D01*
X117963000Y-105945440D01*
X117963000Y-106690442D01*
X117832914Y-106714919D01*
X117799310Y-106701000D01*
X117633750Y-106701000D01*
X117475000Y-106859750D01*
X117475000Y-106940051D01*
X117376569Y-107084110D01*
X117348824Y-107221120D01*
X117326162Y-107100683D01*
X117221000Y-106937257D01*
X117221000Y-106859750D01*
X117062250Y-106701000D01*
X116896690Y-106701000D01*
X116859829Y-106716268D01*
X116723000Y-106688560D01*
X116073000Y-106688560D01*
X115837683Y-106732838D01*
X115621559Y-106871910D01*
X115476569Y-107084110D01*
X115467074Y-107131000D01*
X114044000Y-107131000D01*
X114044000Y-102422802D01*
X116646802Y-99820000D01*
X117553453Y-99820000D01*
X117563169Y-99843515D01*
X117952436Y-100233461D01*
X118461298Y-100444759D01*
X119012285Y-100445240D01*
X119521515Y-100234831D01*
X119911461Y-99845564D01*
X120122759Y-99336702D01*
X120122761Y-99334285D01*
X132352760Y-99334285D01*
X132563169Y-99843515D01*
X132952436Y-100233461D01*
X133461298Y-100444759D01*
X134012285Y-100445240D01*
X134521515Y-100234831D01*
X134911461Y-99845564D01*
X135122759Y-99336702D01*
X135123240Y-98785715D01*
X134912831Y-98276485D01*
X134523564Y-97886539D01*
X134014702Y-97675241D01*
X133463715Y-97674760D01*
X132954485Y-97885169D01*
X132564539Y-98274436D01*
X132353241Y-98783298D01*
X132352760Y-99334285D01*
X120122761Y-99334285D01*
X120123240Y-98785715D01*
X119912831Y-98276485D01*
X119523564Y-97886539D01*
X119014702Y-97675241D01*
X118604462Y-97674883D01*
X115903790Y-94974210D01*
X115810587Y-94911934D01*
X115616675Y-94782367D01*
X115560484Y-94771190D01*
X115278000Y-94714999D01*
X115277995Y-94715000D01*
X105416579Y-94715000D01*
X103435000Y-92733420D01*
X103435000Y-46334285D01*
X117352760Y-46334285D01*
X117563169Y-46843515D01*
X117952436Y-47233461D01*
X118461298Y-47444759D01*
X119012285Y-47445240D01*
X119521515Y-47234831D01*
X119811852Y-46945000D01*
X132664477Y-46945000D01*
X132952436Y-47233461D01*
X133461298Y-47444759D01*
X134012285Y-47445240D01*
X134521515Y-47234831D01*
X134911461Y-46845564D01*
X135122759Y-46336702D01*
X135123240Y-45785715D01*
X134912831Y-45276485D01*
X134523564Y-44886539D01*
X134014702Y-44675241D01*
X133463715Y-44674760D01*
X132954485Y-44885169D01*
X132664148Y-45175000D01*
X119811523Y-45175000D01*
X119523564Y-44886539D01*
X119014702Y-44675241D01*
X118463715Y-44674760D01*
X117954485Y-44885169D01*
X117564539Y-45274436D01*
X117353241Y-45783298D01*
X117352760Y-46334285D01*
X103435000Y-46334285D01*
X103435000Y-38100005D01*
X103435001Y-38100000D01*
X103374644Y-37796572D01*
X103367633Y-37761325D01*
X103175790Y-37474210D01*
X103175787Y-37474208D01*
X100675790Y-34974210D01*
X100675787Y-34974208D01*
X99975790Y-34274210D01*
X99970368Y-34270587D01*
X99688675Y-34082367D01*
X99632484Y-34071190D01*
X99350000Y-34014999D01*
X99349995Y-34015000D01*
X65750005Y-34015000D01*
X65750000Y-34014999D01*
X65411325Y-34082367D01*
X65124210Y-34274210D01*
X65124208Y-34274213D01*
X64159746Y-35238674D01*
X63924210Y-35474210D01*
X63924208Y-35474213D01*
X61924210Y-37474210D01*
X61732367Y-37761325D01*
X61725356Y-37796572D01*
X61664999Y-38100000D01*
X61665000Y-38100005D01*
X61665000Y-92733421D01*
X59683420Y-94715000D01*
X35050005Y-94715000D01*
X35050000Y-94714999D01*
X34711325Y-94782367D01*
X34424210Y-94974210D01*
X34424208Y-94974213D01*
X32260210Y-97138210D01*
X32068367Y-97425325D01*
X32068367Y-97425326D01*
X32000999Y-97764000D01*
X32001000Y-97764005D01*
X32001000Y-97986477D01*
X31712539Y-98274436D01*
X31501241Y-98783298D01*
X31500760Y-99334285D01*
X21861913Y-99334285D01*
X21644483Y-98788997D01*
X21109063Y-97390797D01*
X20641839Y-96087659D01*
X20280740Y-95007638D01*
X19930570Y-93878350D01*
X19651643Y-92901807D01*
X19348246Y-91732473D01*
X18793989Y-89104861D01*
X18617692Y-88011369D01*
X18310241Y-85090305D01*
X18254847Y-83897981D01*
X18240933Y-82776157D01*
X18277187Y-81350862D01*
X18362239Y-80065042D01*
X18422360Y-79423666D01*
X18548321Y-78352559D01*
X18679509Y-77475472D01*
X18982038Y-75961988D01*
X19176944Y-75217164D01*
X19413378Y-74471600D01*
X19898979Y-73303261D01*
X20240315Y-72684797D01*
X20809409Y-71905496D01*
X21116697Y-71582672D01*
X21431009Y-71309539D01*
X22078863Y-70883219D01*
X22641441Y-70623302D01*
X23116060Y-70461992D01*
X23872734Y-70278410D01*
X25203462Y-70062078D01*
X25273400Y-70035952D01*
X25346816Y-70022412D01*
X25397384Y-69989637D01*
X25453837Y-69968548D01*
X25508451Y-69917649D01*
X25571099Y-69877044D01*
X25605276Y-69827411D01*
X25649361Y-69786324D01*
X25680341Y-69718396D01*
X25722679Y-69656910D01*
X25735260Y-69597979D01*
X25760267Y-69543147D01*
X25762894Y-69468535D01*
X25778480Y-69395526D01*
X25767551Y-69336265D01*
X25769671Y-69276039D01*
X25743545Y-69206101D01*
X25730005Y-69132685D01*
X25697230Y-69082117D01*
X25676141Y-69025664D01*
X25625243Y-68971051D01*
X25584637Y-68908402D01*
X25201098Y-68513991D01*
X24827810Y-68006913D01*
X24601956Y-67618490D01*
X24302757Y-66941211D01*
X24129216Y-66374948D01*
X24005283Y-65730752D01*
X23944590Y-64822503D01*
X23949544Y-64589869D01*
X24031103Y-63926904D01*
X24170314Y-63506073D01*
X24418476Y-63105376D01*
X24751673Y-62717264D01*
X24756646Y-62708437D01*
X24764434Y-62701955D01*
X25055695Y-62342010D01*
X25079038Y-62297604D01*
X25112541Y-62260255D01*
X25377048Y-61813762D01*
X25397589Y-61755410D01*
X25429992Y-61702717D01*
X25621011Y-61187409D01*
X25628588Y-61140045D01*
X25647808Y-61096101D01*
X25751548Y-60623210D01*
X25752148Y-60592609D01*
X25761891Y-60563592D01*
X25814646Y-60152372D01*
X25812802Y-60125600D01*
X25819351Y-60099578D01*
X25854129Y-59407327D01*
X25851374Y-59388612D01*
X25854986Y-59370042D01*
X25852994Y-58901981D01*
X25850308Y-58888772D01*
X25852367Y-58875451D01*
X25823629Y-58207518D01*
X25819874Y-58192131D01*
X25821578Y-58176387D01*
X25758302Y-57463660D01*
X25753488Y-57447222D01*
X25754490Y-57430120D01*
X25614375Y-56420004D01*
X25610217Y-56408028D01*
X25610497Y-56395355D01*
X25462231Y-55553154D01*
X25461301Y-55550761D01*
X25461339Y-55548196D01*
X25233188Y-54305795D01*
X25083987Y-53299257D01*
X25023310Y-52668396D01*
X24994919Y-52051569D01*
X25001312Y-51384355D01*
X25057918Y-50604289D01*
X25175614Y-49761643D01*
X25344873Y-48927531D01*
X25549914Y-48132007D01*
X25792106Y-47337971D01*
X26048707Y-46595354D01*
X26149939Y-46334285D01*
X31500760Y-46334285D01*
X31711169Y-46843515D01*
X32100436Y-47233461D01*
X32609298Y-47444759D01*
X33160285Y-47445240D01*
X33669515Y-47234831D01*
X33959852Y-46945000D01*
X46812477Y-46945000D01*
X47100436Y-47233461D01*
X47609298Y-47444759D01*
X48160285Y-47445240D01*
X48669515Y-47234831D01*
X49059461Y-46845564D01*
X49270759Y-46336702D01*
X49271240Y-45785715D01*
X49060831Y-45276485D01*
X48671564Y-44886539D01*
X48162702Y-44675241D01*
X47611715Y-44674760D01*
X47102485Y-44885169D01*
X46812148Y-45175000D01*
X33959523Y-45175000D01*
X33671564Y-44886539D01*
X33162702Y-44675241D01*
X32611715Y-44674760D01*
X32102485Y-44885169D01*
X31712539Y-45274436D01*
X31501241Y-45783298D01*
X31500760Y-46334285D01*
X26149939Y-46334285D01*
X26473857Y-45498931D01*
X26670169Y-45033225D01*
X26996601Y-44311094D01*
X27660917Y-43023730D01*
X28088639Y-42311746D01*
X28499008Y-41707444D01*
X29106174Y-40942957D01*
X29729428Y-40305209D01*
X30203998Y-39912993D01*
X30967400Y-39439416D01*
X31812308Y-39123009D01*
X32730900Y-39005204D01*
X33506907Y-39074476D01*
X34654885Y-39425699D01*
X35146363Y-39646436D01*
X35965175Y-40116658D01*
X36476783Y-40585664D01*
X36909905Y-41237741D01*
X37338792Y-41949136D01*
X37351949Y-41963578D01*
X37359601Y-41981554D01*
X37575985Y-42298672D01*
X37928502Y-42833441D01*
X37937327Y-42842376D01*
X37942478Y-42853833D01*
X38183538Y-43192278D01*
X38256754Y-43261247D01*
X38322853Y-43337076D01*
X39312786Y-44101402D01*
X39328571Y-44109245D01*
X39340812Y-44121928D01*
X39447729Y-44168452D01*
X39552141Y-44220331D01*
X39569725Y-44221536D01*
X39585889Y-44228570D01*
X40789157Y-44490171D01*
X40796403Y-44490299D01*
X40803109Y-44493053D01*
X40929763Y-44492664D01*
X41056388Y-44494909D01*
X41063133Y-44492254D01*
X41070381Y-44492232D01*
X42132802Y-44277510D01*
X42150854Y-44269967D01*
X42170385Y-44268806D01*
X42273580Y-44218691D01*
X42379415Y-44174471D01*
X42393205Y-44160596D01*
X42410807Y-44152048D01*
X43508465Y-43320295D01*
X43563148Y-43258697D01*
X43626542Y-43206113D01*
X43874961Y-42900159D01*
X44862505Y-41749693D01*
X45704264Y-40841137D01*
X46899457Y-39646984D01*
X47983605Y-38647752D01*
X49472468Y-37387646D01*
X50857789Y-36317215D01*
X52750787Y-34993114D01*
X54384828Y-33963983D01*
X56131320Y-32967899D01*
X57485848Y-32262760D01*
X59911438Y-31133410D01*
X62641910Y-30046600D01*
X65452245Y-29110192D01*
X67657148Y-28492560D01*
X68029867Y-28397720D01*
X69646121Y-28016979D01*
X70632899Y-27808076D01*
X71987708Y-27549241D01*
X73650848Y-27273988D01*
X75530286Y-27016723D01*
X77306354Y-26823581D01*
X78913534Y-26688804D01*
X80846195Y-26574845D01*
X81887291Y-26534448D01*
X82187525Y-26526912D01*
X81178485Y-26943838D01*
X80197284Y-27923329D01*
X79665606Y-29203749D01*
X79664397Y-30590168D01*
X80193838Y-31871515D01*
X81173329Y-32852716D01*
X82453749Y-33384394D01*
X83840168Y-33385603D01*
X85121515Y-32856162D01*
X86102716Y-31876671D01*
X86634394Y-30596251D01*
X86635603Y-29209832D01*
X86106162Y-27928485D01*
X85126671Y-26947284D01*
X84104652Y-26522904D01*
X84692426Y-26536633D01*
G36*
X90932250Y-106743500D02*
X92031500Y-106743500D01*
X92031500Y-106723500D01*
X92285500Y-106723500D01*
X92285500Y-106743500D01*
X92305500Y-106743500D01*
X92305500Y-106997500D01*
X92285500Y-106997500D01*
X92285500Y-107971750D01*
X92444250Y-108130500D01*
X93034809Y-108130500D01*
X93268198Y-108033827D01*
X93409436Y-107892590D01*
X93444410Y-107946941D01*
X93656610Y-108091931D01*
X93908500Y-108142940D01*
X94927826Y-108142940D01*
X94380266Y-108690500D01*
X89344500Y-108690500D01*
X89068968Y-108745307D01*
X88835383Y-108901383D01*
X87522266Y-110214500D01*
X85634127Y-110214500D01*
X85520590Y-110038059D01*
X85308390Y-109893069D01*
X85056500Y-109842060D01*
X84856500Y-109842060D01*
X84752829Y-109861567D01*
X84656500Y-109842060D01*
X84476500Y-109842060D01*
X84476500Y-108130500D01*
X84720750Y-108130500D01*
X84879500Y-107971750D01*
X84879500Y-106997500D01*
X85133500Y-106997500D01*
X85133500Y-107971750D01*
X85292250Y-108130500D01*
X85882809Y-108130500D01*
X86116198Y-108033827D01*
X86294827Y-107855199D01*
X86391500Y-107621810D01*
X86391500Y-107156250D01*
X90773500Y-107156250D01*
X90773500Y-107621810D01*
X90870173Y-107855199D01*
X91048802Y-108033827D01*
X91282191Y-108130500D01*
X91872750Y-108130500D01*
X92031500Y-107971750D01*
X92031500Y-106997500D01*
X90932250Y-106997500D01*
X90773500Y-107156250D01*
X86391500Y-107156250D01*
X86232750Y-106997500D01*
X85133500Y-106997500D01*
X84879500Y-106997500D01*
X84859500Y-106997500D01*
X84859500Y-106743500D01*
X84879500Y-106743500D01*
X84879500Y-106723500D01*
X85133500Y-106723500D01*
X85133500Y-106743500D01*
X86232750Y-106743500D01*
X86363750Y-106612500D01*
X90801250Y-106612500D01*
X90932250Y-106743500D01*
X90932250Y-106743500D01*
G37*
X90932250Y-106743500D02*
X92031500Y-106743500D01*
X92031500Y-106723500D01*
X92285500Y-106723500D01*
X92285500Y-106743500D01*
X92305500Y-106743500D01*
X92305500Y-106997500D01*
X92285500Y-106997500D01*
X92285500Y-107971750D01*
X92444250Y-108130500D01*
X93034809Y-108130500D01*
X93268198Y-108033827D01*
X93409436Y-107892590D01*
X93444410Y-107946941D01*
X93656610Y-108091931D01*
X93908500Y-108142940D01*
X94927826Y-108142940D01*
X94380266Y-108690500D01*
X89344500Y-108690500D01*
X89068968Y-108745307D01*
X88835383Y-108901383D01*
X87522266Y-110214500D01*
X85634127Y-110214500D01*
X85520590Y-110038059D01*
X85308390Y-109893069D01*
X85056500Y-109842060D01*
X84856500Y-109842060D01*
X84752829Y-109861567D01*
X84656500Y-109842060D01*
X84476500Y-109842060D01*
X84476500Y-108130500D01*
X84720750Y-108130500D01*
X84879500Y-107971750D01*
X84879500Y-106997500D01*
X85133500Y-106997500D01*
X85133500Y-107971750D01*
X85292250Y-108130500D01*
X85882809Y-108130500D01*
X86116198Y-108033827D01*
X86294827Y-107855199D01*
X86391500Y-107621810D01*
X86391500Y-107156250D01*
X90773500Y-107156250D01*
X90773500Y-107621810D01*
X90870173Y-107855199D01*
X91048802Y-108033827D01*
X91282191Y-108130500D01*
X91872750Y-108130500D01*
X92031500Y-107971750D01*
X92031500Y-106997500D01*
X90932250Y-106997500D01*
X90773500Y-107156250D01*
X86391500Y-107156250D01*
X86232750Y-106997500D01*
X85133500Y-106997500D01*
X84879500Y-106997500D01*
X84859500Y-106997500D01*
X84859500Y-106743500D01*
X84879500Y-106743500D01*
X84879500Y-106723500D01*
X85133500Y-106723500D01*
X85133500Y-106743500D01*
X86232750Y-106743500D01*
X86363750Y-106612500D01*
X90801250Y-106612500D01*
X90932250Y-106743500D01*
G36*
X66141155Y-135360959D02*
X70012252Y-139237054D01*
X70013319Y-139237768D01*
X70014035Y-139238833D01*
X70136521Y-139320203D01*
X70258708Y-139401960D01*
X70259966Y-139402211D01*
X70261036Y-139402922D01*
X70405490Y-139431255D01*
X70549510Y-139459999D01*
X70550767Y-139459750D01*
X70552028Y-139459997D01*
X73847227Y-139451202D01*
X73895149Y-139522922D01*
X74137717Y-139685000D01*
X73895149Y-139847078D01*
X73816356Y-139965000D01*
X69355234Y-139965000D01*
X67565117Y-138174883D01*
X67331532Y-138018807D01*
X67056000Y-137964000D01*
X65797000Y-137964000D01*
X65797000Y-137856998D01*
X65652752Y-137856998D01*
X65797000Y-137712750D01*
X65797000Y-137632690D01*
X65700327Y-137399301D01*
X65521698Y-137220673D01*
X65351078Y-137150000D01*
X65372309Y-137150000D01*
X65605698Y-137053327D01*
X65784327Y-136874699D01*
X65881000Y-136641310D01*
X65881000Y-136175750D01*
X65722250Y-136017000D01*
X64623000Y-136017000D01*
X64623000Y-136037000D01*
X64369000Y-136037000D01*
X64369000Y-136017000D01*
X64349000Y-136017000D01*
X64349000Y-135763000D01*
X64369000Y-135763000D01*
X64369000Y-135743000D01*
X64623000Y-135743000D01*
X64623000Y-135763000D01*
X65722250Y-135763000D01*
X65881000Y-135604250D01*
X65881000Y-135360841D01*
X66141155Y-135360959D01*
X66141155Y-135360959D01*
G37*
X66141155Y-135360959D02*
X70012252Y-139237054D01*
X70013319Y-139237768D01*
X70014035Y-139238833D01*
X70136521Y-139320203D01*
X70258708Y-139401960D01*
X70259966Y-139402211D01*
X70261036Y-139402922D01*
X70405490Y-139431255D01*
X70549510Y-139459999D01*
X70550767Y-139459750D01*
X70552028Y-139459997D01*
X73847227Y-139451202D01*
X73895149Y-139522922D01*
X74137717Y-139685000D01*
X73895149Y-139847078D01*
X73816356Y-139965000D01*
X69355234Y-139965000D01*
X67565117Y-138174883D01*
X67331532Y-138018807D01*
X67056000Y-137964000D01*
X65797000Y-137964000D01*
X65797000Y-137856998D01*
X65652752Y-137856998D01*
X65797000Y-137712750D01*
X65797000Y-137632690D01*
X65700327Y-137399301D01*
X65521698Y-137220673D01*
X65351078Y-137150000D01*
X65372309Y-137150000D01*
X65605698Y-137053327D01*
X65784327Y-136874699D01*
X65881000Y-136641310D01*
X65881000Y-136175750D01*
X65722250Y-136017000D01*
X64623000Y-136017000D01*
X64623000Y-136037000D01*
X64369000Y-136037000D01*
X64369000Y-136017000D01*
X64349000Y-136017000D01*
X64349000Y-135763000D01*
X64369000Y-135763000D01*
X64369000Y-135743000D01*
X64623000Y-135743000D01*
X64623000Y-135763000D01*
X65722250Y-135763000D01*
X65881000Y-135604250D01*
X65881000Y-135360841D01*
X66141155Y-135360959D01*
M02*
