G04 #@! TF.FileFunction,Other,ECO2*
%FSLAX46Y46*%
G04 Gerber Fmt 4.6, Leading zero omitted, Abs format (unit mm)*
G04 Created by KiCad (PCBNEW 4.0.4-stable) date 05/15/17 11:58:30*
%MOMM*%
%LPD*%
G01*
G04 APERTURE LIST*
%ADD10C,0.100000*%
%ADD11C,0.127000*%
G04 APERTURE END LIST*
D10*
D11*
G36*
X66149964Y-80240783D02*
X67153152Y-80372514D01*
X67503272Y-80432880D01*
X67063765Y-80449465D01*
X67061444Y-80449595D01*
X66106404Y-80520715D01*
X66104148Y-80520924D01*
X65230713Y-80617408D01*
X64184440Y-80724067D01*
X64182262Y-80724328D01*
X63069742Y-80876728D01*
X63068025Y-80876987D01*
X61589745Y-81120827D01*
X61586558Y-81121436D01*
X60397838Y-81380516D01*
X60394892Y-81381232D01*
X59846252Y-81528552D01*
X59845528Y-81528752D01*
X58870168Y-81803072D01*
X58869760Y-81803188D01*
X57813120Y-82107988D01*
X57809187Y-82109263D01*
X56498547Y-82581703D01*
X56497639Y-82582038D01*
X55811839Y-82841118D01*
X55808736Y-82842385D01*
X54802896Y-83284345D01*
X54800737Y-83285342D01*
X54130177Y-83610462D01*
X54128147Y-83611491D01*
X53533787Y-83926451D01*
X53532015Y-83927427D01*
X53211975Y-84110307D01*
X53210525Y-84111161D01*
X52926045Y-84283881D01*
X52924463Y-84284874D01*
X52650832Y-84462228D01*
X52270480Y-84695510D01*
X52263469Y-84700494D01*
X52099622Y-84834550D01*
X51937353Y-84930003D01*
X51949272Y-84919339D01*
X51979200Y-84893686D01*
X51980268Y-84893423D01*
X51998061Y-84880901D01*
X52036095Y-84842867D01*
X52155135Y-84748627D01*
X52160077Y-84744279D01*
X52371827Y-84537570D01*
X53328357Y-83727810D01*
X54274609Y-83044687D01*
X55002494Y-82589758D01*
X56217677Y-81941661D01*
X57386126Y-81425723D01*
X58914975Y-80924543D01*
X60408668Y-80559981D01*
X62217136Y-80271234D01*
X63203626Y-80195350D01*
X64445784Y-80159860D01*
X65209238Y-80159860D01*
X66149964Y-80240783D01*
X66149964Y-80240783D01*
G37*
X66149964Y-80240783D02*
X67153152Y-80372514D01*
X67503272Y-80432880D01*
X67063765Y-80449465D01*
X67061444Y-80449595D01*
X66106404Y-80520715D01*
X66104148Y-80520924D01*
X65230713Y-80617408D01*
X64184440Y-80724067D01*
X64182262Y-80724328D01*
X63069742Y-80876728D01*
X63068025Y-80876987D01*
X61589745Y-81120827D01*
X61586558Y-81121436D01*
X60397838Y-81380516D01*
X60394892Y-81381232D01*
X59846252Y-81528552D01*
X59845528Y-81528752D01*
X58870168Y-81803072D01*
X58869760Y-81803188D01*
X57813120Y-82107988D01*
X57809187Y-82109263D01*
X56498547Y-82581703D01*
X56497639Y-82582038D01*
X55811839Y-82841118D01*
X55808736Y-82842385D01*
X54802896Y-83284345D01*
X54800737Y-83285342D01*
X54130177Y-83610462D01*
X54128147Y-83611491D01*
X53533787Y-83926451D01*
X53532015Y-83927427D01*
X53211975Y-84110307D01*
X53210525Y-84111161D01*
X52926045Y-84283881D01*
X52924463Y-84284874D01*
X52650832Y-84462228D01*
X52270480Y-84695510D01*
X52263469Y-84700494D01*
X52099622Y-84834550D01*
X51937353Y-84930003D01*
X51949272Y-84919339D01*
X51979200Y-84893686D01*
X51980268Y-84893423D01*
X51998061Y-84880901D01*
X52036095Y-84842867D01*
X52155135Y-84748627D01*
X52160077Y-84744279D01*
X52371827Y-84537570D01*
X53328357Y-83727810D01*
X54274609Y-83044687D01*
X55002494Y-82589758D01*
X56217677Y-81941661D01*
X57386126Y-81425723D01*
X58914975Y-80924543D01*
X60408668Y-80559981D01*
X62217136Y-80271234D01*
X63203626Y-80195350D01*
X64445784Y-80159860D01*
X65209238Y-80159860D01*
X66149964Y-80240783D01*
G36*
X23911153Y-95960114D02*
X23913515Y-95964251D01*
X24406275Y-96756731D01*
X24413849Y-96766604D01*
X25236809Y-97645444D01*
X25246555Y-97653927D01*
X25988235Y-98177167D01*
X26007395Y-98186337D01*
X26647475Y-98369217D01*
X26663124Y-98371635D01*
X27201604Y-98386875D01*
X27219172Y-98384910D01*
X27813532Y-98232510D01*
X27826328Y-98227711D01*
X28501968Y-97887351D01*
X28515187Y-97878454D01*
X29119707Y-97350134D01*
X29126805Y-97342848D01*
X29619565Y-96748488D01*
X29621770Y-96745670D01*
X29650958Y-96706125D01*
X28808316Y-98066969D01*
X28279523Y-98666268D01*
X27861243Y-99094507D01*
X27296660Y-99381751D01*
X26996812Y-99470231D01*
X26692611Y-99513688D01*
X26331506Y-99435611D01*
X25888242Y-99282931D01*
X25398691Y-98892280D01*
X24831428Y-98224615D01*
X24368315Y-97499743D01*
X23979833Y-96707644D01*
X23641213Y-95853513D01*
X23377730Y-95022528D01*
X23377371Y-95021430D01*
X23297940Y-94785877D01*
X23911153Y-95960114D01*
X23911153Y-95960114D01*
G37*
X23911153Y-95960114D02*
X23913515Y-95964251D01*
X24406275Y-96756731D01*
X24413849Y-96766604D01*
X25236809Y-97645444D01*
X25246555Y-97653927D01*
X25988235Y-98177167D01*
X26007395Y-98186337D01*
X26647475Y-98369217D01*
X26663124Y-98371635D01*
X27201604Y-98386875D01*
X27219172Y-98384910D01*
X27813532Y-98232510D01*
X27826328Y-98227711D01*
X28501968Y-97887351D01*
X28515187Y-97878454D01*
X29119707Y-97350134D01*
X29126805Y-97342848D01*
X29619565Y-96748488D01*
X29621770Y-96745670D01*
X29650958Y-96706125D01*
X28808316Y-98066969D01*
X28279523Y-98666268D01*
X27861243Y-99094507D01*
X27296660Y-99381751D01*
X26996812Y-99470231D01*
X26692611Y-99513688D01*
X26331506Y-99435611D01*
X25888242Y-99282931D01*
X25398691Y-98892280D01*
X24831428Y-98224615D01*
X24368315Y-97499743D01*
X23979833Y-96707644D01*
X23641213Y-95853513D01*
X23377730Y-95022528D01*
X23377371Y-95021430D01*
X23297940Y-94785877D01*
X23911153Y-95960114D01*
G36*
X24486072Y-73585746D02*
X25087019Y-73720652D01*
X24549812Y-73693103D01*
X24545972Y-73693023D01*
X23997332Y-73698103D01*
X23993736Y-73698238D01*
X23455256Y-73733798D01*
X23440206Y-73736643D01*
X22784886Y-73944923D01*
X22769736Y-73952055D01*
X22170296Y-74338135D01*
X22162783Y-74343804D01*
X21746223Y-74709564D01*
X21738893Y-74717169D01*
X21403613Y-75128649D01*
X21397377Y-75137838D01*
X21077337Y-75711878D01*
X21074225Y-75718280D01*
X20891345Y-76155160D01*
X20889513Y-76160104D01*
X20711713Y-76708744D01*
X20710015Y-76715084D01*
X20577935Y-77334844D01*
X20576879Y-77341526D01*
X20520999Y-77880006D01*
X20520955Y-77880443D01*
X20490475Y-78195403D01*
X20490441Y-78195771D01*
X20459961Y-78531051D01*
X20459716Y-78538243D01*
X20460163Y-78557905D01*
X20388055Y-78142222D01*
X20332592Y-77567426D01*
X20312433Y-76997931D01*
X20337559Y-76465261D01*
X20432784Y-75823743D01*
X20607478Y-75304650D01*
X20886980Y-74730675D01*
X21163592Y-74389849D01*
X21514748Y-74078260D01*
X22046621Y-73794925D01*
X22574831Y-73625500D01*
X23069449Y-73550558D01*
X23717299Y-73520425D01*
X24486072Y-73585746D01*
X24486072Y-73585746D01*
G37*
X24486072Y-73585746D02*
X25087019Y-73720652D01*
X24549812Y-73693103D01*
X24545972Y-73693023D01*
X23997332Y-73698103D01*
X23993736Y-73698238D01*
X23455256Y-73733798D01*
X23440206Y-73736643D01*
X22784886Y-73944923D01*
X22769736Y-73952055D01*
X22170296Y-74338135D01*
X22162783Y-74343804D01*
X21746223Y-74709564D01*
X21738893Y-74717169D01*
X21403613Y-75128649D01*
X21397377Y-75137838D01*
X21077337Y-75711878D01*
X21074225Y-75718280D01*
X20891345Y-76155160D01*
X20889513Y-76160104D01*
X20711713Y-76708744D01*
X20710015Y-76715084D01*
X20577935Y-77334844D01*
X20576879Y-77341526D01*
X20520999Y-77880006D01*
X20520955Y-77880443D01*
X20490475Y-78195403D01*
X20490441Y-78195771D01*
X20459961Y-78531051D01*
X20459716Y-78538243D01*
X20460163Y-78557905D01*
X20388055Y-78142222D01*
X20332592Y-77567426D01*
X20312433Y-76997931D01*
X20337559Y-76465261D01*
X20432784Y-75823743D01*
X20607478Y-75304650D01*
X20886980Y-74730675D01*
X21163592Y-74389849D01*
X21514748Y-74078260D01*
X22046621Y-73794925D01*
X22574831Y-73625500D01*
X23069449Y-73550558D01*
X23717299Y-73520425D01*
X24486072Y-73585746D01*
G36*
X84996820Y-135927051D02*
X86759495Y-136352524D01*
X88420541Y-136879198D01*
X89920592Y-137527868D01*
X90972147Y-138013201D01*
X91982083Y-138679759D01*
X93077415Y-139531684D01*
X93078903Y-139532806D01*
X93910264Y-140141119D01*
X94152698Y-140345274D01*
X94144249Y-140341050D01*
X93009815Y-139571255D01*
X93006726Y-139569287D01*
X91442086Y-138634567D01*
X91437331Y-138631994D01*
X89852371Y-137859834D01*
X89844640Y-137856679D01*
X87711040Y-137145479D01*
X87703911Y-137143555D01*
X85753191Y-136737155D01*
X85748020Y-136736298D01*
X84102100Y-136533098D01*
X84097977Y-136532725D01*
X83041337Y-136471765D01*
X83036237Y-136471676D01*
X82142157Y-136491996D01*
X82137936Y-136492233D01*
X80776496Y-136614153D01*
X80772020Y-136614715D01*
X79390260Y-136838235D01*
X79382955Y-136839863D01*
X77391595Y-137408823D01*
X77386744Y-137410423D01*
X75761144Y-138020023D01*
X75755697Y-138022361D01*
X74333297Y-138713241D01*
X74329861Y-138715042D01*
X73212261Y-139344962D01*
X73206009Y-139348985D01*
X72456265Y-139896096D01*
X72007691Y-140170224D01*
X72955868Y-139431204D01*
X74192051Y-138580061D01*
X75629977Y-137729457D01*
X77229439Y-137000588D01*
X78809320Y-136453707D01*
X80652094Y-135967700D01*
X82391485Y-135745220D01*
X83703799Y-135745220D01*
X84996820Y-135927051D01*
X84996820Y-135927051D01*
G37*
X84996820Y-135927051D02*
X86759495Y-136352524D01*
X88420541Y-136879198D01*
X89920592Y-137527868D01*
X90972147Y-138013201D01*
X91982083Y-138679759D01*
X93077415Y-139531684D01*
X93078903Y-139532806D01*
X93910264Y-140141119D01*
X94152698Y-140345274D01*
X94144249Y-140341050D01*
X93009815Y-139571255D01*
X93006726Y-139569287D01*
X91442086Y-138634567D01*
X91437331Y-138631994D01*
X89852371Y-137859834D01*
X89844640Y-137856679D01*
X87711040Y-137145479D01*
X87703911Y-137143555D01*
X85753191Y-136737155D01*
X85748020Y-136736298D01*
X84102100Y-136533098D01*
X84097977Y-136532725D01*
X83041337Y-136471765D01*
X83036237Y-136471676D01*
X82142157Y-136491996D01*
X82137936Y-136492233D01*
X80776496Y-136614153D01*
X80772020Y-136614715D01*
X79390260Y-136838235D01*
X79382955Y-136839863D01*
X77391595Y-137408823D01*
X77386744Y-137410423D01*
X75761144Y-138020023D01*
X75755697Y-138022361D01*
X74333297Y-138713241D01*
X74329861Y-138715042D01*
X73212261Y-139344962D01*
X73206009Y-139348985D01*
X72456265Y-139896096D01*
X72007691Y-140170224D01*
X72955868Y-139431204D01*
X74192051Y-138580061D01*
X75629977Y-137729457D01*
X77229439Y-137000588D01*
X78809320Y-136453707D01*
X80652094Y-135967700D01*
X82391485Y-135745220D01*
X83703799Y-135745220D01*
X84996820Y-135927051D01*
G36*
X144126889Y-94540080D02*
X143655312Y-95635356D01*
X143123472Y-96759816D01*
X142532106Y-97790916D01*
X142079361Y-98409668D01*
X141554488Y-98964534D01*
X141093668Y-99246972D01*
X140618967Y-99439819D01*
X140362887Y-99468273D01*
X140060888Y-99410749D01*
X139530728Y-99145669D01*
X139084595Y-98654923D01*
X138647827Y-98007301D01*
X138315722Y-97312901D01*
X138104623Y-96754996D01*
X138103684Y-96751239D01*
X138115040Y-96766380D01*
X138115909Y-96767512D01*
X138449819Y-97192489D01*
X138738135Y-97617375D01*
X138742261Y-97622803D01*
X139168981Y-98125723D01*
X139182177Y-98137475D01*
X139685097Y-98472755D01*
X139707238Y-98482058D01*
X140286358Y-98603978D01*
X140307566Y-98604818D01*
X140780006Y-98543858D01*
X140803079Y-98536187D01*
X141397439Y-98200907D01*
X141406754Y-98194496D01*
X141940154Y-97752536D01*
X141945738Y-97747312D01*
X142494378Y-97168192D01*
X142498471Y-97163418D01*
X142970911Y-96553818D01*
X142974105Y-96549304D01*
X143553225Y-95650144D01*
X143556443Y-95644541D01*
X144013643Y-94745381D01*
X144014449Y-94743739D01*
X144203367Y-94344104D01*
X144126889Y-94540080D01*
X144126889Y-94540080D01*
G37*
X144126889Y-94540080D02*
X143655312Y-95635356D01*
X143123472Y-96759816D01*
X142532106Y-97790916D01*
X142079361Y-98409668D01*
X141554488Y-98964534D01*
X141093668Y-99246972D01*
X140618967Y-99439819D01*
X140362887Y-99468273D01*
X140060888Y-99410749D01*
X139530728Y-99145669D01*
X139084595Y-98654923D01*
X138647827Y-98007301D01*
X138315722Y-97312901D01*
X138104623Y-96754996D01*
X138103684Y-96751239D01*
X138115040Y-96766380D01*
X138115909Y-96767512D01*
X138449819Y-97192489D01*
X138738135Y-97617375D01*
X138742261Y-97622803D01*
X139168981Y-98125723D01*
X139182177Y-98137475D01*
X139685097Y-98472755D01*
X139707238Y-98482058D01*
X140286358Y-98603978D01*
X140307566Y-98604818D01*
X140780006Y-98543858D01*
X140803079Y-98536187D01*
X141397439Y-98200907D01*
X141406754Y-98194496D01*
X141940154Y-97752536D01*
X141945738Y-97747312D01*
X142494378Y-97168192D01*
X142498471Y-97163418D01*
X142970911Y-96553818D01*
X142974105Y-96549304D01*
X143553225Y-95650144D01*
X143556443Y-95644541D01*
X144013643Y-94745381D01*
X144014449Y-94743739D01*
X144203367Y-94344104D01*
X144126889Y-94540080D01*
G36*
X144337208Y-73164017D02*
X144901564Y-73317482D01*
X145485486Y-73683670D01*
X145927171Y-74174984D01*
X146291825Y-74809381D01*
X146547527Y-75526350D01*
X146668224Y-76104689D01*
X146769012Y-76754768D01*
X146789189Y-77269288D01*
X146789245Y-77270457D01*
X146805732Y-77556229D01*
X146803742Y-77542300D01*
X146802763Y-77537041D01*
X146670683Y-76963001D01*
X146669492Y-76958566D01*
X146486612Y-76364206D01*
X146483742Y-76356634D01*
X146158622Y-75640354D01*
X146152666Y-75629964D01*
X145700546Y-74989884D01*
X145693091Y-74981133D01*
X145220651Y-74518853D01*
X145210736Y-74510927D01*
X144692576Y-74175647D01*
X144683809Y-74170906D01*
X144236769Y-73972786D01*
X144226651Y-73969289D01*
X143525611Y-73791489D01*
X143515501Y-73789779D01*
X142814461Y-73728819D01*
X142807865Y-73728589D01*
X142218585Y-73738749D01*
X142206036Y-73740223D01*
X141698208Y-73851945D01*
X141002570Y-73999197D01*
X141001781Y-73999369D01*
X140905134Y-74021115D01*
X141298194Y-73803180D01*
X141949342Y-73510416D01*
X142491386Y-73304640D01*
X143107684Y-73179376D01*
X143784571Y-73119208D01*
X144337208Y-73164017D01*
X144337208Y-73164017D01*
G37*
X144337208Y-73164017D02*
X144901564Y-73317482D01*
X145485486Y-73683670D01*
X145927171Y-74174984D01*
X146291825Y-74809381D01*
X146547527Y-75526350D01*
X146668224Y-76104689D01*
X146769012Y-76754768D01*
X146789189Y-77269288D01*
X146789245Y-77270457D01*
X146805732Y-77556229D01*
X146803742Y-77542300D01*
X146802763Y-77537041D01*
X146670683Y-76963001D01*
X146669492Y-76958566D01*
X146486612Y-76364206D01*
X146483742Y-76356634D01*
X146158622Y-75640354D01*
X146152666Y-75629964D01*
X145700546Y-74989884D01*
X145693091Y-74981133D01*
X145220651Y-74518853D01*
X145210736Y-74510927D01*
X144692576Y-74175647D01*
X144683809Y-74170906D01*
X144236769Y-73972786D01*
X144226651Y-73969289D01*
X143525611Y-73791489D01*
X143515501Y-73789779D01*
X142814461Y-73728819D01*
X142807865Y-73728589D01*
X142218585Y-73738749D01*
X142206036Y-73740223D01*
X141698208Y-73851945D01*
X141002570Y-73999197D01*
X141001781Y-73999369D01*
X140905134Y-74021115D01*
X141298194Y-73803180D01*
X141949342Y-73510416D01*
X142491386Y-73304640D01*
X143107684Y-73179376D01*
X143784571Y-73119208D01*
X144337208Y-73164017D01*
G36*
X104449015Y-79864975D02*
X105887611Y-80047332D01*
X107447441Y-80351195D01*
X108924684Y-80776155D01*
X110930000Y-81606640D01*
X112125134Y-82254848D01*
X113237780Y-82902205D01*
X114269328Y-83731489D01*
X114918585Y-84299589D01*
X114920732Y-84301385D01*
X115116752Y-84458201D01*
X114567204Y-84116590D01*
X114566517Y-84116169D01*
X113591157Y-83526889D01*
X113587066Y-83524619D01*
X112266266Y-82854059D01*
X112261420Y-82851849D01*
X110310700Y-82059369D01*
X110307090Y-82058029D01*
X108559570Y-81468749D01*
X108555601Y-81467553D01*
X106645521Y-80959553D01*
X106640507Y-80958435D01*
X104506907Y-80572355D01*
X104504580Y-80571978D01*
X102655460Y-80307818D01*
X102653325Y-80307550D01*
X100966765Y-80124670D01*
X100965669Y-80124561D01*
X100071589Y-80043281D01*
X100063793Y-80043053D01*
X99578547Y-80058706D01*
X100803393Y-79905600D01*
X102343767Y-79804260D01*
X103457344Y-79804260D01*
X104449015Y-79864975D01*
X104449015Y-79864975D01*
G37*
X104449015Y-79864975D02*
X105887611Y-80047332D01*
X107447441Y-80351195D01*
X108924684Y-80776155D01*
X110930000Y-81606640D01*
X112125134Y-82254848D01*
X113237780Y-82902205D01*
X114269328Y-83731489D01*
X114918585Y-84299589D01*
X114920732Y-84301385D01*
X115116752Y-84458201D01*
X114567204Y-84116590D01*
X114566517Y-84116169D01*
X113591157Y-83526889D01*
X113587066Y-83524619D01*
X112266266Y-82854059D01*
X112261420Y-82851849D01*
X110310700Y-82059369D01*
X110307090Y-82058029D01*
X108559570Y-81468749D01*
X108555601Y-81467553D01*
X106645521Y-80959553D01*
X106640507Y-80958435D01*
X104506907Y-80572355D01*
X104504580Y-80571978D01*
X102655460Y-80307818D01*
X102653325Y-80307550D01*
X100966765Y-80124670D01*
X100965669Y-80124561D01*
X100071589Y-80043281D01*
X100063793Y-80043053D01*
X99578547Y-80058706D01*
X100803393Y-79905600D01*
X102343767Y-79804260D01*
X103457344Y-79804260D01*
X104449015Y-79864975D01*
G36*
X84304800Y-82241627D02*
X85390496Y-82583420D01*
X86377733Y-83107260D01*
X87162429Y-83650511D01*
X87641383Y-84129465D01*
X87832848Y-84423044D01*
X87722981Y-84379097D01*
X86978292Y-83795422D01*
X86962259Y-83786266D01*
X86027539Y-83420506D01*
X86022392Y-83418742D01*
X85128312Y-83154582D01*
X85124679Y-83153625D01*
X83986759Y-82889465D01*
X83973645Y-82887832D01*
X82937325Y-82867512D01*
X82929383Y-82867854D01*
X81588263Y-83010094D01*
X81575707Y-83012729D01*
X80681627Y-83297209D01*
X80671838Y-83301250D01*
X79960638Y-83667010D01*
X79951813Y-83672506D01*
X79240613Y-84200826D01*
X79220825Y-84225190D01*
X79184621Y-84303632D01*
X79374519Y-83797238D01*
X80072104Y-82999998D01*
X80950258Y-82441173D01*
X82071243Y-82140909D01*
X83177105Y-82120802D01*
X84304800Y-82241627D01*
X84304800Y-82241627D01*
G37*
X84304800Y-82241627D02*
X85390496Y-82583420D01*
X86377733Y-83107260D01*
X87162429Y-83650511D01*
X87641383Y-84129465D01*
X87832848Y-84423044D01*
X87722981Y-84379097D01*
X86978292Y-83795422D01*
X86962259Y-83786266D01*
X86027539Y-83420506D01*
X86022392Y-83418742D01*
X85128312Y-83154582D01*
X85124679Y-83153625D01*
X83986759Y-82889465D01*
X83973645Y-82887832D01*
X82937325Y-82867512D01*
X82929383Y-82867854D01*
X81588263Y-83010094D01*
X81575707Y-83012729D01*
X80681627Y-83297209D01*
X80671838Y-83301250D01*
X79960638Y-83667010D01*
X79951813Y-83672506D01*
X79240613Y-84200826D01*
X79220825Y-84225190D01*
X79184621Y-84303632D01*
X79374519Y-83797238D01*
X80072104Y-82999998D01*
X80950258Y-82441173D01*
X82071243Y-82140909D01*
X83177105Y-82120802D01*
X84304800Y-82241627D01*
G36*
X65584367Y-70261558D02*
X66405398Y-71102614D01*
X66906196Y-71984018D01*
X67267874Y-73089148D01*
X67388696Y-74236952D01*
X67368465Y-75754283D01*
X67288338Y-76515492D01*
X67247576Y-76624191D01*
X66930932Y-76589008D01*
X66928319Y-76588773D01*
X65465279Y-76487173D01*
X65458640Y-76487060D01*
X63731440Y-76548020D01*
X63727982Y-76548236D01*
X61472462Y-76751436D01*
X61466499Y-76752260D01*
X59617379Y-77097700D01*
X59611687Y-77099037D01*
X57823527Y-77607037D01*
X57819045Y-77608492D01*
X56376325Y-78136812D01*
X56372654Y-78138287D01*
X55214414Y-78646287D01*
X55208415Y-78649307D01*
X54796337Y-78884780D01*
X54753385Y-78884780D01*
X54782823Y-78825905D01*
X55399972Y-78308295D01*
X56552481Y-77539956D01*
X57908823Y-76831419D01*
X59223042Y-76265294D01*
X60922553Y-75820184D01*
X62480912Y-75557085D01*
X63938638Y-75476100D01*
X65498000Y-75476100D01*
X65860268Y-75516352D01*
X65885374Y-75514108D01*
X65907629Y-75502272D01*
X65920853Y-75487332D01*
X66063093Y-75263812D01*
X66071673Y-75242729D01*
X66254553Y-74368969D01*
X66255799Y-74352371D01*
X66194839Y-73275411D01*
X66193530Y-73265695D01*
X65949690Y-72127775D01*
X65948111Y-72121827D01*
X65663998Y-71228899D01*
X65401156Y-70278627D01*
X65380925Y-70147122D01*
X65584367Y-70261558D01*
X65584367Y-70261558D01*
G37*
X65584367Y-70261558D02*
X66405398Y-71102614D01*
X66906196Y-71984018D01*
X67267874Y-73089148D01*
X67388696Y-74236952D01*
X67368465Y-75754283D01*
X67288338Y-76515492D01*
X67247576Y-76624191D01*
X66930932Y-76589008D01*
X66928319Y-76588773D01*
X65465279Y-76487173D01*
X65458640Y-76487060D01*
X63731440Y-76548020D01*
X63727982Y-76548236D01*
X61472462Y-76751436D01*
X61466499Y-76752260D01*
X59617379Y-77097700D01*
X59611687Y-77099037D01*
X57823527Y-77607037D01*
X57819045Y-77608492D01*
X56376325Y-78136812D01*
X56372654Y-78138287D01*
X55214414Y-78646287D01*
X55208415Y-78649307D01*
X54796337Y-78884780D01*
X54753385Y-78884780D01*
X54782823Y-78825905D01*
X55399972Y-78308295D01*
X56552481Y-77539956D01*
X57908823Y-76831419D01*
X59223042Y-76265294D01*
X60922553Y-75820184D01*
X62480912Y-75557085D01*
X63938638Y-75476100D01*
X65498000Y-75476100D01*
X65860268Y-75516352D01*
X65885374Y-75514108D01*
X65907629Y-75502272D01*
X65920853Y-75487332D01*
X66063093Y-75263812D01*
X66071673Y-75242729D01*
X66254553Y-74368969D01*
X66255799Y-74352371D01*
X66194839Y-73275411D01*
X66193530Y-73265695D01*
X65949690Y-72127775D01*
X65948111Y-72121827D01*
X65663998Y-71228899D01*
X65401156Y-70278627D01*
X65380925Y-70147122D01*
X65584367Y-70261558D01*
G36*
X113417363Y-71466821D02*
X113420070Y-71473167D01*
X113906060Y-72460335D01*
X114315420Y-73627769D01*
X114572475Y-74610625D01*
X114663039Y-75667205D01*
X114602953Y-76568499D01*
X114274291Y-77539544D01*
X113725815Y-78176963D01*
X113080332Y-78537232D01*
X113078610Y-78538229D01*
X112630841Y-78806890D01*
X112424439Y-78848171D01*
X112268719Y-78822217D01*
X112092964Y-78687021D01*
X111946813Y-78438564D01*
X111936092Y-78424987D01*
X111539852Y-78043987D01*
X111524238Y-78032964D01*
X110975598Y-77758644D01*
X110967280Y-77755199D01*
X110235760Y-77511359D01*
X110229864Y-77509704D01*
X109498344Y-77342064D01*
X109491172Y-77340848D01*
X108256732Y-77203688D01*
X108251703Y-77203331D01*
X107276360Y-77172852D01*
X105981200Y-77127140D01*
X105978176Y-77127105D01*
X104743736Y-77142345D01*
X104739247Y-77142559D01*
X103461215Y-77249062D01*
X102488008Y-77264268D01*
X102484130Y-77264447D01*
X101694081Y-77325220D01*
X101641991Y-77325220D01*
X102026050Y-77127371D01*
X103070641Y-76779174D01*
X104041899Y-76536360D01*
X104998570Y-76354136D01*
X105893232Y-76232826D01*
X106895254Y-76187280D01*
X107988813Y-76172092D01*
X108837876Y-76232739D01*
X109810601Y-76354330D01*
X110782651Y-76506212D01*
X111495204Y-76672980D01*
X112087807Y-76840125D01*
X112498880Y-76961924D01*
X112534960Y-76961924D01*
X112946440Y-76840004D01*
X112969725Y-76827333D01*
X113289765Y-76553013D01*
X113307812Y-76527321D01*
X113475452Y-76085361D01*
X113477436Y-76079202D01*
X113660316Y-75393402D01*
X113662299Y-75381564D01*
X113723259Y-74528124D01*
X113723382Y-74521412D01*
X113692902Y-73637492D01*
X113692512Y-73632322D01*
X113585832Y-72717922D01*
X113585622Y-72716300D01*
X113448462Y-71756180D01*
X113447867Y-71752707D01*
X113378332Y-71405030D01*
X113390477Y-71392885D01*
X113417363Y-71466821D01*
X113417363Y-71466821D01*
G37*
X113417363Y-71466821D02*
X113420070Y-71473167D01*
X113906060Y-72460335D01*
X114315420Y-73627769D01*
X114572475Y-74610625D01*
X114663039Y-75667205D01*
X114602953Y-76568499D01*
X114274291Y-77539544D01*
X113725815Y-78176963D01*
X113080332Y-78537232D01*
X113078610Y-78538229D01*
X112630841Y-78806890D01*
X112424439Y-78848171D01*
X112268719Y-78822217D01*
X112092964Y-78687021D01*
X111946813Y-78438564D01*
X111936092Y-78424987D01*
X111539852Y-78043987D01*
X111524238Y-78032964D01*
X110975598Y-77758644D01*
X110967280Y-77755199D01*
X110235760Y-77511359D01*
X110229864Y-77509704D01*
X109498344Y-77342064D01*
X109491172Y-77340848D01*
X108256732Y-77203688D01*
X108251703Y-77203331D01*
X107276360Y-77172852D01*
X105981200Y-77127140D01*
X105978176Y-77127105D01*
X104743736Y-77142345D01*
X104739247Y-77142559D01*
X103461215Y-77249062D01*
X102488008Y-77264268D01*
X102484130Y-77264447D01*
X101694081Y-77325220D01*
X101641991Y-77325220D01*
X102026050Y-77127371D01*
X103070641Y-76779174D01*
X104041899Y-76536360D01*
X104998570Y-76354136D01*
X105893232Y-76232826D01*
X106895254Y-76187280D01*
X107988813Y-76172092D01*
X108837876Y-76232739D01*
X109810601Y-76354330D01*
X110782651Y-76506212D01*
X111495204Y-76672980D01*
X112087807Y-76840125D01*
X112498880Y-76961924D01*
X112534960Y-76961924D01*
X112946440Y-76840004D01*
X112969725Y-76827333D01*
X113289765Y-76553013D01*
X113307812Y-76527321D01*
X113475452Y-76085361D01*
X113477436Y-76079202D01*
X113660316Y-75393402D01*
X113662299Y-75381564D01*
X113723259Y-74528124D01*
X113723382Y-74521412D01*
X113692902Y-73637492D01*
X113692512Y-73632322D01*
X113585832Y-72717922D01*
X113585622Y-72716300D01*
X113448462Y-71756180D01*
X113447867Y-71752707D01*
X113378332Y-71405030D01*
X113390477Y-71392885D01*
X113417363Y-71466821D01*
G36*
X106718966Y-55440964D02*
X105877031Y-56242808D01*
X104622325Y-57173719D01*
X103263160Y-58025732D01*
X101414954Y-59163090D01*
X99365032Y-60360569D01*
X97781922Y-61152124D01*
X97780557Y-61152827D01*
X96785547Y-61680792D01*
X95853574Y-62146778D01*
X94920958Y-62531989D01*
X94920186Y-62532314D01*
X94353645Y-62775117D01*
X93998468Y-62893510D01*
X93641198Y-62913358D01*
X93606620Y-62925960D01*
X93444060Y-63047880D01*
X93430805Y-63061331D01*
X93268245Y-63284851D01*
X93256552Y-63314634D01*
X93195592Y-63822634D01*
X93196475Y-63843151D01*
X93297690Y-64328985D01*
X93399016Y-65017999D01*
X93400396Y-65024789D01*
X93644236Y-65959509D01*
X93645532Y-65963838D01*
X94092572Y-67284638D01*
X94093380Y-67286886D01*
X94255940Y-67713606D01*
X94259534Y-67721407D01*
X94373700Y-67930711D01*
X94373700Y-67941161D01*
X94219995Y-67915543D01*
X93544096Y-67378800D01*
X92819010Y-66693997D01*
X91953190Y-65485876D01*
X91469984Y-64297996D01*
X91167825Y-63109500D01*
X91107303Y-61899071D01*
X91127557Y-61149676D01*
X91127580Y-61147960D01*
X91127580Y-61045432D01*
X91800442Y-60987758D01*
X92714224Y-60926839D01*
X92724490Y-60925305D01*
X94024970Y-60620505D01*
X94028158Y-60619670D01*
X95430238Y-60213270D01*
X95433505Y-60212226D01*
X97120065Y-59622946D01*
X97121575Y-59622397D01*
X98787815Y-58992477D01*
X98791246Y-58991064D01*
X99927942Y-58483610D01*
X101308474Y-57935458D01*
X101311464Y-57934181D01*
X102510344Y-57385541D01*
X102511663Y-57384919D01*
X103934063Y-56694039D01*
X103935101Y-56693523D01*
X105133089Y-56084377D01*
X106473316Y-55454876D01*
X106475895Y-55453592D01*
X106790294Y-55288119D01*
X106718966Y-55440964D01*
X106718966Y-55440964D01*
G37*
X106718966Y-55440964D02*
X105877031Y-56242808D01*
X104622325Y-57173719D01*
X103263160Y-58025732D01*
X101414954Y-59163090D01*
X99365032Y-60360569D01*
X97781922Y-61152124D01*
X97780557Y-61152827D01*
X96785547Y-61680792D01*
X95853574Y-62146778D01*
X94920958Y-62531989D01*
X94920186Y-62532314D01*
X94353645Y-62775117D01*
X93998468Y-62893510D01*
X93641198Y-62913358D01*
X93606620Y-62925960D01*
X93444060Y-63047880D01*
X93430805Y-63061331D01*
X93268245Y-63284851D01*
X93256552Y-63314634D01*
X93195592Y-63822634D01*
X93196475Y-63843151D01*
X93297690Y-64328985D01*
X93399016Y-65017999D01*
X93400396Y-65024789D01*
X93644236Y-65959509D01*
X93645532Y-65963838D01*
X94092572Y-67284638D01*
X94093380Y-67286886D01*
X94255940Y-67713606D01*
X94259534Y-67721407D01*
X94373700Y-67930711D01*
X94373700Y-67941161D01*
X94219995Y-67915543D01*
X93544096Y-67378800D01*
X92819010Y-66693997D01*
X91953190Y-65485876D01*
X91469984Y-64297996D01*
X91167825Y-63109500D01*
X91107303Y-61899071D01*
X91127557Y-61149676D01*
X91127580Y-61147960D01*
X91127580Y-61045432D01*
X91800442Y-60987758D01*
X92714224Y-60926839D01*
X92724490Y-60925305D01*
X94024970Y-60620505D01*
X94028158Y-60619670D01*
X95430238Y-60213270D01*
X95433505Y-60212226D01*
X97120065Y-59622946D01*
X97121575Y-59622397D01*
X98787815Y-58992477D01*
X98791246Y-58991064D01*
X99927942Y-58483610D01*
X101308474Y-57935458D01*
X101311464Y-57934181D01*
X102510344Y-57385541D01*
X102511663Y-57384919D01*
X103934063Y-56694039D01*
X103935101Y-56693523D01*
X105133089Y-56084377D01*
X106473316Y-55454876D01*
X106475895Y-55453592D01*
X106790294Y-55288119D01*
X106718966Y-55440964D01*
G36*
X60879455Y-55138542D02*
X61636375Y-55539862D01*
X61638001Y-55540695D01*
X62882601Y-56155375D01*
X62884171Y-56156124D01*
X64098291Y-56714924D01*
X64099276Y-56715367D01*
X65069225Y-57141942D01*
X67354902Y-58178115D01*
X67356827Y-58178949D01*
X68657307Y-58717429D01*
X68661180Y-58718887D01*
X69737418Y-59084402D01*
X70762877Y-59460065D01*
X70764872Y-59460758D01*
X71953592Y-59851918D01*
X71957422Y-59853046D01*
X73146142Y-60162926D01*
X73147120Y-60163173D01*
X74168200Y-60412093D01*
X74173806Y-60413195D01*
X75255846Y-60575755D01*
X75262599Y-60576403D01*
X75937818Y-60604933D01*
X75948764Y-60644340D01*
X75958675Y-61025932D01*
X75923342Y-62217155D01*
X75676424Y-63350965D01*
X75388823Y-64203677D01*
X75087184Y-64902474D01*
X74529161Y-65762130D01*
X73919492Y-66422186D01*
X73454082Y-66867360D01*
X73057626Y-67228687D01*
X72753319Y-67418256D01*
X72717525Y-67439407D01*
X72935683Y-66949763D01*
X72937751Y-66944506D01*
X73247631Y-66040266D01*
X73248486Y-66037577D01*
X73487170Y-65225036D01*
X73705498Y-64509123D01*
X73706982Y-64503275D01*
X73818742Y-63954635D01*
X73819981Y-63944174D01*
X73835221Y-63507294D01*
X73835236Y-63503317D01*
X73819996Y-62954677D01*
X73814547Y-62930650D01*
X73692627Y-62656330D01*
X73668255Y-62628272D01*
X73505695Y-62526672D01*
X73480512Y-62517588D01*
X73219578Y-62482462D01*
X72953021Y-62418291D01*
X71541784Y-61846715D01*
X70173201Y-61197905D01*
X68737084Y-60431638D01*
X67411616Y-59710502D01*
X65695698Y-58766239D01*
X64143163Y-57837763D01*
X62773699Y-56950147D01*
X61648292Y-56149182D01*
X61011942Y-55649193D01*
X60567236Y-55219647D01*
X60566940Y-55219363D01*
X60356520Y-55018730D01*
X60270426Y-54846542D01*
X60253190Y-54809607D01*
X60253856Y-54808603D01*
X60879455Y-55138542D01*
X60879455Y-55138542D01*
G37*
X60879455Y-55138542D02*
X61636375Y-55539862D01*
X61638001Y-55540695D01*
X62882601Y-56155375D01*
X62884171Y-56156124D01*
X64098291Y-56714924D01*
X64099276Y-56715367D01*
X65069225Y-57141942D01*
X67354902Y-58178115D01*
X67356827Y-58178949D01*
X68657307Y-58717429D01*
X68661180Y-58718887D01*
X69737418Y-59084402D01*
X70762877Y-59460065D01*
X70764872Y-59460758D01*
X71953592Y-59851918D01*
X71957422Y-59853046D01*
X73146142Y-60162926D01*
X73147120Y-60163173D01*
X74168200Y-60412093D01*
X74173806Y-60413195D01*
X75255846Y-60575755D01*
X75262599Y-60576403D01*
X75937818Y-60604933D01*
X75948764Y-60644340D01*
X75958675Y-61025932D01*
X75923342Y-62217155D01*
X75676424Y-63350965D01*
X75388823Y-64203677D01*
X75087184Y-64902474D01*
X74529161Y-65762130D01*
X73919492Y-66422186D01*
X73454082Y-66867360D01*
X73057626Y-67228687D01*
X72753319Y-67418256D01*
X72717525Y-67439407D01*
X72935683Y-66949763D01*
X72937751Y-66944506D01*
X73247631Y-66040266D01*
X73248486Y-66037577D01*
X73487170Y-65225036D01*
X73705498Y-64509123D01*
X73706982Y-64503275D01*
X73818742Y-63954635D01*
X73819981Y-63944174D01*
X73835221Y-63507294D01*
X73835236Y-63503317D01*
X73819996Y-62954677D01*
X73814547Y-62930650D01*
X73692627Y-62656330D01*
X73668255Y-62628272D01*
X73505695Y-62526672D01*
X73480512Y-62517588D01*
X73219578Y-62482462D01*
X72953021Y-62418291D01*
X71541784Y-61846715D01*
X70173201Y-61197905D01*
X68737084Y-60431638D01*
X67411616Y-59710502D01*
X65695698Y-58766239D01*
X64143163Y-57837763D01*
X62773699Y-56950147D01*
X61648292Y-56149182D01*
X61011942Y-55649193D01*
X60567236Y-55219647D01*
X60566940Y-55219363D01*
X60356520Y-55018730D01*
X60270426Y-54846542D01*
X60253190Y-54809607D01*
X60253856Y-54808603D01*
X60879455Y-55138542D01*
G36*
X46518244Y-87540531D02*
X47625505Y-87783218D01*
X47841269Y-87838899D01*
X47577075Y-87914383D01*
X47567219Y-87918108D01*
X47463159Y-87967661D01*
X47176328Y-88073335D01*
X47174697Y-88073962D01*
X46869897Y-88195882D01*
X46868161Y-88196606D01*
X46517641Y-88349006D01*
X46517170Y-88349213D01*
X46242850Y-88471133D01*
X46235216Y-88475168D01*
X45915176Y-88673288D01*
X45914262Y-88673865D01*
X45487542Y-88948185D01*
X45483053Y-88951353D01*
X45147773Y-89210433D01*
X45141699Y-89215779D01*
X44970323Y-89387155D01*
X44620180Y-89489280D01*
X44615664Y-89490783D01*
X44127984Y-89673663D01*
X44113246Y-89681537D01*
X43518886Y-90108257D01*
X43510233Y-90115739D01*
X42804113Y-90847259D01*
X42796884Y-90856258D01*
X42456524Y-91369338D01*
X42454062Y-91373367D01*
X41940982Y-92287767D01*
X41937430Y-92295185D01*
X41647870Y-93016545D01*
X41644902Y-93026027D01*
X41395982Y-94113147D01*
X41394809Y-94119952D01*
X41267809Y-95207072D01*
X41267417Y-95212270D01*
X41247097Y-95806630D01*
X41247060Y-95808800D01*
X41247060Y-96266000D01*
X41247293Y-96271437D01*
X41303173Y-96921677D01*
X41303958Y-96927565D01*
X41451278Y-97740365D01*
X41453020Y-97747558D01*
X41707020Y-98580678D01*
X41707645Y-98582616D01*
X41956565Y-99314136D01*
X41958857Y-99319923D01*
X42258577Y-99980323D01*
X42260125Y-99983497D01*
X42727485Y-100877577D01*
X42730612Y-100882910D01*
X43335132Y-101807470D01*
X43340067Y-101814045D01*
X43888707Y-102454125D01*
X43889898Y-102455475D01*
X44438538Y-103059995D01*
X44447693Y-103068294D01*
X45158893Y-103596614D01*
X45168981Y-103602741D01*
X45920821Y-103968501D01*
X45923810Y-103969861D01*
X46726450Y-104310221D01*
X46733071Y-104312605D01*
X47464591Y-104531045D01*
X47467114Y-104531742D01*
X48366274Y-104760342D01*
X48374233Y-104761833D01*
X49415633Y-104888833D01*
X49418825Y-104889141D01*
X50206225Y-104945021D01*
X50208370Y-104945136D01*
X50894170Y-104970536D01*
X50898895Y-104970536D01*
X51848855Y-104934976D01*
X51854356Y-104934530D01*
X52870356Y-104807530D01*
X52872246Y-104807265D01*
X54177806Y-104604065D01*
X54182846Y-104603070D01*
X56047206Y-104156030D01*
X56050647Y-104155102D01*
X56812647Y-103926502D01*
X56814399Y-103925948D01*
X57947239Y-103550028D01*
X57951952Y-103548254D01*
X58901912Y-103146934D01*
X58905897Y-103145086D01*
X60059057Y-102560886D01*
X60063555Y-102558373D01*
X60602035Y-102228173D01*
X60609914Y-102222467D01*
X61580194Y-101399507D01*
X61580226Y-101399480D01*
X62321906Y-100769560D01*
X62325292Y-100766466D01*
X63173233Y-99933758D01*
X64534281Y-98643809D01*
X64538865Y-98638985D01*
X65107825Y-97973505D01*
X65529448Y-97480764D01*
X65533607Y-97475337D01*
X65797767Y-97089257D01*
X65799482Y-97086612D01*
X66072467Y-96641747D01*
X66535546Y-96007531D01*
X67288262Y-95244711D01*
X67988901Y-94589438D01*
X68921751Y-94009557D01*
X69886783Y-93489147D01*
X70865781Y-93110669D01*
X72104345Y-92761849D01*
X73243356Y-92564420D01*
X74235364Y-92417644D01*
X75246356Y-92362039D01*
X76165808Y-92372143D01*
X77448757Y-92508519D01*
X78767064Y-92836833D01*
X79881323Y-93245227D01*
X81038606Y-93917361D01*
X81803078Y-94408446D01*
X82487230Y-94900021D01*
X82796195Y-95127946D01*
X82953087Y-95249411D01*
X82975685Y-95260579D01*
X83000847Y-95262075D01*
X83031628Y-95248785D01*
X83385597Y-94965610D01*
X84525581Y-94170154D01*
X85618185Y-93487277D01*
X86570479Y-93043881D01*
X87988692Y-92624978D01*
X89550528Y-92417744D01*
X91036349Y-92362152D01*
X92446182Y-92518800D01*
X93347652Y-92701120D01*
X93348111Y-92701211D01*
X94284376Y-92883403D01*
X95406321Y-93237170D01*
X96329488Y-93610472D01*
X97192953Y-94110373D01*
X97894375Y-94564531D01*
X98918558Y-95427266D01*
X99674866Y-96314667D01*
X100236773Y-97144873D01*
X100238977Y-97147930D01*
X100807937Y-97889610D01*
X100809740Y-97891853D01*
X101485380Y-98694493D01*
X101489942Y-98699367D01*
X102287390Y-99466340D01*
X102835896Y-99999609D01*
X102838218Y-100001757D01*
X103513362Y-100595681D01*
X104300305Y-101316622D01*
X104304074Y-101319814D01*
X105048878Y-101902484D01*
X105534731Y-102347849D01*
X105549531Y-102357980D01*
X106352171Y-102754220D01*
X107596575Y-103373882D01*
X107604505Y-103377182D01*
X108849105Y-103798822D01*
X108850425Y-103799254D01*
X110384585Y-104281854D01*
X110388632Y-104282981D01*
X111140472Y-104465861D01*
X111141752Y-104466158D01*
X111852952Y-104623638D01*
X111857354Y-104624451D01*
X113020674Y-104797171D01*
X113022704Y-104797439D01*
X114384144Y-104954919D01*
X114389907Y-104955321D01*
X115441467Y-104980721D01*
X115447761Y-104980561D01*
X116799041Y-104878961D01*
X116806583Y-104877937D01*
X118427103Y-104557897D01*
X118435395Y-104555668D01*
X120035595Y-104007028D01*
X120047738Y-104001370D01*
X121246618Y-103280010D01*
X121256359Y-103272799D01*
X122170759Y-102449839D01*
X122180860Y-102438243D01*
X122947940Y-101305403D01*
X122950332Y-101301585D01*
X123570092Y-100229705D01*
X123573772Y-100222254D01*
X124168132Y-98789694D01*
X124169721Y-98785440D01*
X124383081Y-98145360D01*
X124384444Y-98140681D01*
X124547004Y-97490441D01*
X124548322Y-97483585D01*
X124660082Y-96660625D01*
X124660331Y-96658535D01*
X124731451Y-95962575D01*
X124731736Y-95958470D01*
X124741896Y-95684150D01*
X124741845Y-95678333D01*
X124706285Y-95028093D01*
X124705877Y-95023586D01*
X124604277Y-94220946D01*
X124602896Y-94213568D01*
X124226976Y-92704808D01*
X124222381Y-92692216D01*
X123846461Y-91925136D01*
X123843288Y-91919425D01*
X123487688Y-91350465D01*
X123484952Y-91346439D01*
X122971872Y-90650479D01*
X122963910Y-90641573D01*
X122344150Y-90067533D01*
X122334775Y-90060347D01*
X121720095Y-89674267D01*
X121711618Y-89669797D01*
X121208698Y-89451357D01*
X121189255Y-89446370D01*
X120937040Y-89423017D01*
X120572056Y-89072632D01*
X120564370Y-89066331D01*
X119995410Y-88670091D01*
X119987518Y-88665404D01*
X119438878Y-88391084D01*
X119436323Y-88389877D01*
X118923243Y-88161277D01*
X118913739Y-88157918D01*
X118055219Y-87929318D01*
X118054991Y-87929258D01*
X117893545Y-87886911D01*
X118338546Y-87752705D01*
X119576973Y-87515129D01*
X120532191Y-87424156D01*
X121260710Y-87398860D01*
X121864665Y-87398860D01*
X122919138Y-87550220D01*
X123736318Y-87741904D01*
X124727003Y-88080556D01*
X125656521Y-88469540D01*
X126699995Y-89049247D01*
X127598613Y-89786316D01*
X128454820Y-90561462D01*
X129411252Y-91517894D01*
X130114565Y-92403361D01*
X130707291Y-93193662D01*
X131263924Y-94033672D01*
X131962553Y-95253740D01*
X132484008Y-96382716D01*
X133076945Y-97842254D01*
X133430891Y-98934429D01*
X133668678Y-100012061D01*
X133840848Y-101004568D01*
X133967294Y-102097063D01*
X133987509Y-103097716D01*
X133931766Y-104263257D01*
X133860904Y-105265455D01*
X133668771Y-106438475D01*
X133289011Y-107942324D01*
X132848408Y-109264132D01*
X132255516Y-110738762D01*
X131601074Y-112108523D01*
X131287950Y-112763237D01*
X131282418Y-112762636D01*
X131258273Y-112769877D01*
X131238849Y-112785941D01*
X131227745Y-112806517D01*
X131199957Y-112893356D01*
X130662006Y-113590699D01*
X129753599Y-114377985D01*
X129007130Y-114963056D01*
X128120377Y-115446739D01*
X127031475Y-115910531D01*
X125536634Y-116233740D01*
X124688151Y-116334749D01*
X123961059Y-116375144D01*
X122989903Y-116354911D01*
X121938165Y-116274008D01*
X120683065Y-116051329D01*
X119204236Y-115706944D01*
X118292640Y-115403079D01*
X118267621Y-115400012D01*
X118243380Y-115406922D01*
X118223737Y-115422718D01*
X118211787Y-115444911D01*
X118209060Y-115463320D01*
X118209060Y-115616332D01*
X118053628Y-116121486D01*
X117762818Y-116431683D01*
X117308074Y-116767798D01*
X116061831Y-117189913D01*
X114564905Y-117473115D01*
X113292251Y-117614521D01*
X112103786Y-117554091D01*
X110914157Y-117291969D01*
X109357054Y-116725749D01*
X107880476Y-115977347D01*
X107031656Y-115411467D01*
X105407460Y-114193320D01*
X105384694Y-114182499D01*
X105359512Y-114181388D01*
X105335882Y-114190162D01*
X105315177Y-114211008D01*
X105095597Y-114570321D01*
X104579085Y-115086833D01*
X103695786Y-115568632D01*
X102505424Y-116073023D01*
X101461828Y-116293784D01*
X100317202Y-116273702D01*
X99231199Y-116032369D01*
X98221738Y-115628584D01*
X96846147Y-114981247D01*
X95531853Y-114091571D01*
X94519298Y-113261276D01*
X93667003Y-112490152D01*
X93645327Y-112477287D01*
X93620353Y-112473869D01*
X93596017Y-112480436D01*
X93576153Y-112495954D01*
X93563892Y-112517977D01*
X93561165Y-112543036D01*
X93563578Y-112555487D01*
X93682446Y-112951715D01*
X93663239Y-113431906D01*
X93353441Y-113915964D01*
X92595212Y-114494613D01*
X91772352Y-114896008D01*
X90703095Y-115218803D01*
X89608993Y-115441675D01*
X88351594Y-115685043D01*
X86871639Y-115867503D01*
X85410894Y-115989232D01*
X83787929Y-116070380D01*
X82794237Y-116070380D01*
X81272742Y-116050093D01*
X79522972Y-115913155D01*
X77697603Y-115725547D01*
X75872278Y-115380764D01*
X74315801Y-115042180D01*
X73374489Y-114589142D01*
X72773981Y-114248854D01*
X72510831Y-113990669D01*
X72371138Y-113850976D01*
X72223218Y-113259294D01*
X72151186Y-112932751D01*
X72185517Y-112838341D01*
X72186773Y-112834514D01*
X72259892Y-112585246D01*
X72262045Y-112560131D01*
X72254258Y-112536158D01*
X72237757Y-112517103D01*
X72215142Y-112505969D01*
X72189978Y-112504510D01*
X72157020Y-112519692D01*
X71216615Y-113346854D01*
X70062002Y-114248262D01*
X69222754Y-114794279D01*
X68266653Y-115330505D01*
X67357589Y-115749684D01*
X66313049Y-116102911D01*
X65589494Y-116248627D01*
X64809975Y-116303947D01*
X64209128Y-116273905D01*
X63558854Y-116138848D01*
X62944799Y-115897253D01*
X62186168Y-115578628D01*
X61508155Y-115217021D01*
X60932217Y-114756270D01*
X60619290Y-114419271D01*
X60596335Y-114226453D01*
X60588446Y-114202513D01*
X60571866Y-114183528D01*
X60544982Y-114171548D01*
X60463702Y-114156308D01*
X60438498Y-114156672D01*
X60413015Y-114168596D01*
X60322562Y-114238949D01*
X59444920Y-114868010D01*
X58761029Y-115354332D01*
X57965486Y-115835712D01*
X57964238Y-115836487D01*
X57393121Y-116200384D01*
X56245273Y-116766724D01*
X55563770Y-117039325D01*
X54675116Y-117327127D01*
X53783102Y-117508554D01*
X53123983Y-117563900D01*
X52559116Y-117563900D01*
X51998898Y-117538665D01*
X51433563Y-117473046D01*
X50588807Y-117336468D01*
X49704680Y-117129330D01*
X48923103Y-116872166D01*
X48368190Y-116622205D01*
X47940894Y-116312784D01*
X47691363Y-115933689D01*
X47668180Y-115738951D01*
X47668180Y-115488720D01*
X47665737Y-115471275D01*
X47655577Y-115435715D01*
X47643979Y-115413335D01*
X47624589Y-115397230D01*
X47600460Y-115389938D01*
X47569506Y-115394794D01*
X47253587Y-115530188D01*
X45568556Y-115985602D01*
X44248790Y-116238430D01*
X43065006Y-116319373D01*
X42164597Y-116349724D01*
X41588357Y-116319395D01*
X40790236Y-116273933D01*
X39972627Y-116112430D01*
X38905809Y-115864685D01*
X37939139Y-115502184D01*
X36545127Y-114704163D01*
X35805004Y-114140259D01*
X34956683Y-113296988D01*
X34858958Y-113179273D01*
X36196424Y-113179273D01*
X36202006Y-113203853D01*
X36213159Y-113220756D01*
X36310813Y-113326977D01*
X36315877Y-113331904D01*
X36707037Y-113672264D01*
X36709735Y-113674484D01*
X37258375Y-114101204D01*
X37261916Y-114103767D01*
X37820716Y-114479687D01*
X37826404Y-114483097D01*
X38410604Y-114792977D01*
X38416337Y-114795660D01*
X39000537Y-115034420D01*
X39002655Y-115035242D01*
X39597015Y-115253682D01*
X39605583Y-115256164D01*
X40291383Y-115403484D01*
X40293964Y-115403982D01*
X40944204Y-115515742D01*
X40951102Y-115516543D01*
X41535302Y-115552103D01*
X41539160Y-115552220D01*
X42209720Y-115552220D01*
X42217361Y-115551759D01*
X43055561Y-115450159D01*
X43060032Y-115449454D01*
X44131912Y-115241174D01*
X44137290Y-115239884D01*
X44607656Y-115105116D01*
X48638927Y-115105116D01*
X48640903Y-115130244D01*
X48655485Y-115156070D01*
X48929805Y-115450710D01*
X48938849Y-115458735D01*
X49502729Y-115870215D01*
X49512398Y-115876030D01*
X50243918Y-116231630D01*
X50253987Y-116235505D01*
X51076947Y-116474265D01*
X51084357Y-116475942D01*
X52074957Y-116638502D01*
X52082745Y-116639291D01*
X52986985Y-116674851D01*
X52997693Y-116674367D01*
X54166093Y-116521967D01*
X54171566Y-116521008D01*
X55299326Y-116272088D01*
X55307758Y-116269603D01*
X56237398Y-115924163D01*
X56240109Y-115923084D01*
X57017349Y-115592884D01*
X57023485Y-115589878D01*
X58151245Y-114959958D01*
X58156873Y-114956416D01*
X58949353Y-114397616D01*
X58953412Y-114394502D01*
X59623972Y-113835702D01*
X59628033Y-113832009D01*
X59693728Y-113766861D01*
X61486005Y-113766861D01*
X61496445Y-113796743D01*
X61648845Y-114025343D01*
X61654160Y-114032240D01*
X62050400Y-114479280D01*
X62057709Y-114486306D01*
X62392989Y-114760626D01*
X62403018Y-114767349D01*
X62844978Y-115006109D01*
X62850500Y-115008756D01*
X63561700Y-115308476D01*
X63573244Y-115312091D01*
X64487644Y-115505131D01*
X64496657Y-115506367D01*
X65202777Y-115552087D01*
X65210446Y-115552120D01*
X66023246Y-115506400D01*
X66033408Y-115504998D01*
X66744608Y-115347518D01*
X66752908Y-115345077D01*
X67494588Y-115070757D01*
X67502334Y-115067287D01*
X68325294Y-114630407D01*
X68331957Y-114626326D01*
X69129517Y-114067526D01*
X69133359Y-114064610D01*
X69925839Y-113414370D01*
X69929501Y-113411121D01*
X70909941Y-112471321D01*
X70914400Y-112466586D01*
X71544320Y-111724906D01*
X71545505Y-111723468D01*
X71931585Y-111240868D01*
X71933308Y-111238612D01*
X72057529Y-111068251D01*
X93251616Y-111068251D01*
X93257363Y-111092794D01*
X93270841Y-111111880D01*
X93864634Y-111688707D01*
X93866807Y-111690721D01*
X94923447Y-112625441D01*
X94926147Y-112627699D01*
X96185987Y-113623379D01*
X96188884Y-113625538D01*
X97347124Y-114438338D01*
X97354064Y-114442573D01*
X98552944Y-115072493D01*
X98565688Y-115077520D01*
X99825528Y-115422960D01*
X99836673Y-115424968D01*
X100974593Y-115526568D01*
X100988281Y-115526309D01*
X101943321Y-115404389D01*
X101960294Y-115399766D01*
X102955974Y-114973046D01*
X102965190Y-114968164D01*
X103473190Y-114643044D01*
X103485492Y-114632769D01*
X104013812Y-114063809D01*
X104026957Y-114042301D01*
X104030698Y-114017373D01*
X104023563Y-113991199D01*
X103982507Y-113912605D01*
X103966634Y-113893024D01*
X103944394Y-113881161D01*
X103919290Y-113878886D01*
X103895691Y-113886328D01*
X103634266Y-114029691D01*
X102956422Y-114330954D01*
X102113977Y-114526522D01*
X101406314Y-114571692D01*
X100712463Y-114541525D01*
X99790505Y-114390384D01*
X98819989Y-114102262D01*
X98002201Y-113829666D01*
X96469567Y-113070936D01*
X95632462Y-112553901D01*
X105063367Y-112553901D01*
X105078543Y-112584482D01*
X105586321Y-113148679D01*
X105592040Y-113154279D01*
X106628360Y-114048359D01*
X106632931Y-114051952D01*
X107913091Y-114966352D01*
X107920155Y-114970730D01*
X109484795Y-115803850D01*
X109492863Y-115807449D01*
X110773023Y-116274809D01*
X110779195Y-116276713D01*
X112221915Y-116642473D01*
X112231290Y-116644114D01*
X113674010Y-116786354D01*
X113688572Y-116786111D01*
X115070332Y-116603231D01*
X115082977Y-116600215D01*
X115895777Y-116315735D01*
X115905095Y-116311607D01*
X116616295Y-115925527D01*
X116626652Y-115918502D01*
X117236252Y-115410502D01*
X117252028Y-115390843D01*
X117258913Y-115366595D01*
X117253564Y-115335789D01*
X117221992Y-115265215D01*
X117207337Y-115244707D01*
X117185857Y-115231516D01*
X117160938Y-115227721D01*
X117135630Y-115234350D01*
X116927828Y-115338251D01*
X116021394Y-115625288D01*
X115204541Y-115791684D01*
X114940688Y-115821001D01*
X114936778Y-115821559D01*
X114674497Y-115867354D01*
X114465625Y-115873985D01*
X114460627Y-115874341D01*
X114387919Y-115882420D01*
X114200940Y-115882420D01*
X114198925Y-115882452D01*
X113721804Y-115897599D01*
X113291688Y-115871372D01*
X113290218Y-115871299D01*
X112780946Y-115852081D01*
X112577222Y-115827911D01*
X112573606Y-115827587D01*
X112478884Y-115821811D01*
X112394471Y-115806355D01*
X112390515Y-115805759D01*
X111888325Y-115746177D01*
X110677536Y-115443480D01*
X110401009Y-115329616D01*
X110394791Y-115327426D01*
X110221948Y-115276459D01*
X109734462Y-115068561D01*
X109729633Y-115066730D01*
X109263560Y-114911372D01*
X108765330Y-114684904D01*
X108157317Y-114365697D01*
X108156198Y-114365124D01*
X107638900Y-114106475D01*
X107048897Y-113788781D01*
X106430372Y-113347852D01*
X116633815Y-113347852D01*
X116639579Y-113372391D01*
X116654436Y-113392754D01*
X116666308Y-113401322D01*
X116819183Y-113486752D01*
X116822136Y-113488302D01*
X118061656Y-114097902D01*
X118065401Y-114099595D01*
X119833241Y-114831115D01*
X119838990Y-114833176D01*
X121037870Y-115198936D01*
X121038663Y-115199172D01*
X122156263Y-115524292D01*
X122163345Y-115525920D01*
X123118385Y-115688480D01*
X123124671Y-115689230D01*
X124303231Y-115770510D01*
X124312234Y-115770491D01*
X125145354Y-115709531D01*
X125154869Y-115708104D01*
X126577269Y-115382984D01*
X126588473Y-115379299D01*
X127848313Y-114830659D01*
X127857648Y-114825628D01*
X128792368Y-114216028D01*
X128800092Y-114210099D01*
X129592572Y-113498899D01*
X129595768Y-113495823D01*
X130225688Y-112845583D01*
X130241343Y-112818108D01*
X130302303Y-112594588D01*
X130303976Y-112569437D01*
X130295733Y-112545617D01*
X130278872Y-112526880D01*
X130263501Y-112518485D01*
X130256229Y-112515735D01*
X130231351Y-112511676D01*
X130206855Y-112517615D01*
X130192962Y-112526477D01*
X129502394Y-113105663D01*
X128837141Y-113529006D01*
X128171511Y-113892077D01*
X127401034Y-114209332D01*
X126522375Y-114451721D01*
X125979107Y-114572447D01*
X124720239Y-114693784D01*
X123612970Y-114724120D01*
X122521576Y-114648329D01*
X120423506Y-114313854D01*
X119193496Y-114025333D01*
X117627877Y-113538927D01*
X116752092Y-113203520D01*
X116727231Y-113199356D01*
X116702710Y-113205193D01*
X116682391Y-113220110D01*
X116670149Y-113239934D01*
X116638053Y-113323004D01*
X116633815Y-113347852D01*
X106430372Y-113347852D01*
X105515565Y-112695713D01*
X105213242Y-112429331D01*
X105191398Y-112416752D01*
X105166382Y-112413663D01*
X105142134Y-112420550D01*
X105119241Y-112440560D01*
X105073721Y-112505588D01*
X105063652Y-112528696D01*
X105063367Y-112553901D01*
X95632462Y-112553901D01*
X95437936Y-112433753D01*
X94175085Y-111505633D01*
X94174977Y-111505554D01*
X93552253Y-111049902D01*
X93429278Y-110943324D01*
X93407332Y-110930924D01*
X93382291Y-110928040D01*
X93358101Y-110935125D01*
X93342059Y-110947151D01*
X93269456Y-111022174D01*
X93255870Y-111043406D01*
X93251616Y-111068251D01*
X72057529Y-111068251D01*
X72286808Y-110753812D01*
X72674645Y-110330717D01*
X72729541Y-110275821D01*
X72743473Y-110254815D01*
X72748134Y-110230043D01*
X72742790Y-110205409D01*
X72728284Y-110184795D01*
X72706900Y-110171450D01*
X72684640Y-110167420D01*
X72542400Y-110167420D01*
X72532757Y-110168156D01*
X72462878Y-110178892D01*
X72439219Y-110187589D01*
X72422577Y-110202441D01*
X72246136Y-110427154D01*
X71837663Y-110825541D01*
X71837099Y-110826099D01*
X71143423Y-111519775D01*
X70734449Y-111853013D01*
X70730453Y-111856558D01*
X70439070Y-112137893D01*
X70076981Y-112399402D01*
X70076363Y-112399854D01*
X69802043Y-112603054D01*
X69799576Y-112604977D01*
X69548529Y-112810835D01*
X69104708Y-113093267D01*
X69104431Y-113093445D01*
X68664431Y-113376663D01*
X67865842Y-113811338D01*
X67421582Y-114013275D01*
X66913972Y-114229386D01*
X66214938Y-114400373D01*
X65579596Y-114511305D01*
X64784100Y-114581792D01*
X64117712Y-114546719D01*
X63408954Y-114400946D01*
X62578169Y-114149193D01*
X61988175Y-113866803D01*
X61984495Y-113865183D01*
X61644135Y-113728023D01*
X61641757Y-113727119D01*
X61570637Y-113701719D01*
X61545689Y-113698122D01*
X61521306Y-113704514D01*
X61501332Y-113719888D01*
X61488912Y-113741823D01*
X61486005Y-113766861D01*
X59693728Y-113766861D01*
X60237633Y-113227489D01*
X60240987Y-113223894D01*
X60754067Y-112629534D01*
X60757252Y-112625530D01*
X61158572Y-112076890D01*
X61159341Y-112075815D01*
X61199788Y-112018034D01*
X61209857Y-111994926D01*
X61210142Y-111969721D01*
X61200599Y-111946391D01*
X61182731Y-111928612D01*
X61159354Y-111919185D01*
X61138124Y-111918855D01*
X61037060Y-111934382D01*
X61006449Y-111948036D01*
X60114211Y-112679379D01*
X59066360Y-113393133D01*
X58063997Y-114000625D01*
X57138065Y-114471181D01*
X55892859Y-115017857D01*
X54969575Y-115320573D01*
X53937207Y-115533119D01*
X53224517Y-115669592D01*
X52544699Y-115730020D01*
X51713041Y-115730020D01*
X51282318Y-115679347D01*
X51257198Y-115681429D01*
X51236801Y-115692108D01*
X50831211Y-115626336D01*
X50828465Y-115625952D01*
X50461347Y-115582762D01*
X50458915Y-115575498D01*
X50446328Y-115553659D01*
X50426236Y-115538438D01*
X50413585Y-115533926D01*
X50013134Y-115437363D01*
X49267351Y-115234429D01*
X48818943Y-115109871D01*
X48735072Y-115058617D01*
X48711383Y-115050003D01*
X48686209Y-115051285D01*
X48663517Y-115062259D01*
X48646883Y-115081197D01*
X48638927Y-115105116D01*
X44607656Y-115105116D01*
X45041530Y-114980804D01*
X45042994Y-114980365D01*
X46358714Y-114568885D01*
X46364877Y-114566602D01*
X47060344Y-114267094D01*
X48065603Y-113855852D01*
X48070515Y-113853594D01*
X48463263Y-113652372D01*
X48482969Y-113636655D01*
X48495007Y-113614509D01*
X48497481Y-113589424D01*
X48490001Y-113565353D01*
X48473745Y-113546089D01*
X48451275Y-113534667D01*
X48434754Y-113533497D01*
X48384318Y-113435426D01*
X48386289Y-113429488D01*
X48384299Y-113404361D01*
X48372690Y-113381987D01*
X48353291Y-113365892D01*
X48329158Y-113358613D01*
X48304722Y-113361102D01*
X47774110Y-113522984D01*
X47773913Y-113523044D01*
X46542125Y-113903225D01*
X45342831Y-114161301D01*
X44125620Y-114343883D01*
X44124929Y-114343990D01*
X43182775Y-114495950D01*
X42562035Y-114541370D01*
X41561162Y-114571700D01*
X40287971Y-114465601D01*
X39105271Y-114238158D01*
X38302804Y-114011045D01*
X37743516Y-113799423D01*
X37186892Y-113543676D01*
X36628725Y-113151451D01*
X36425874Y-112997200D01*
X36403181Y-112986228D01*
X36378006Y-112984950D01*
X36354318Y-112993567D01*
X36342103Y-113003283D01*
X36214571Y-113133316D01*
X36200844Y-113154457D01*
X36196424Y-113179273D01*
X34858958Y-113179273D01*
X34516246Y-112766462D01*
X34062316Y-111858602D01*
X34061549Y-111857118D01*
X33702344Y-111183608D01*
X33700992Y-111160387D01*
X33694562Y-111136014D01*
X33679156Y-111116064D01*
X33657202Y-111103678D01*
X33648648Y-111101861D01*
X33190863Y-109994316D01*
X32674310Y-108611778D01*
X32248769Y-106924810D01*
X31975408Y-105618751D01*
X31838793Y-104252606D01*
X31793233Y-102900980D01*
X31853904Y-101672399D01*
X32096818Y-100078274D01*
X32461192Y-98605595D01*
X32886072Y-97376478D01*
X33706749Y-95537553D01*
X34724520Y-93714680D01*
X35939455Y-92059331D01*
X37260735Y-90601367D01*
X38535264Y-89478568D01*
X39867463Y-88570250D01*
X41746153Y-87812714D01*
X43411752Y-87434169D01*
X44697391Y-87388793D01*
X46518244Y-87540531D01*
X46518244Y-87540531D01*
G37*
X46518244Y-87540531D02*
X47625505Y-87783218D01*
X47841269Y-87838899D01*
X47577075Y-87914383D01*
X47567219Y-87918108D01*
X47463159Y-87967661D01*
X47176328Y-88073335D01*
X47174697Y-88073962D01*
X46869897Y-88195882D01*
X46868161Y-88196606D01*
X46517641Y-88349006D01*
X46517170Y-88349213D01*
X46242850Y-88471133D01*
X46235216Y-88475168D01*
X45915176Y-88673288D01*
X45914262Y-88673865D01*
X45487542Y-88948185D01*
X45483053Y-88951353D01*
X45147773Y-89210433D01*
X45141699Y-89215779D01*
X44970323Y-89387155D01*
X44620180Y-89489280D01*
X44615664Y-89490783D01*
X44127984Y-89673663D01*
X44113246Y-89681537D01*
X43518886Y-90108257D01*
X43510233Y-90115739D01*
X42804113Y-90847259D01*
X42796884Y-90856258D01*
X42456524Y-91369338D01*
X42454062Y-91373367D01*
X41940982Y-92287767D01*
X41937430Y-92295185D01*
X41647870Y-93016545D01*
X41644902Y-93026027D01*
X41395982Y-94113147D01*
X41394809Y-94119952D01*
X41267809Y-95207072D01*
X41267417Y-95212270D01*
X41247097Y-95806630D01*
X41247060Y-95808800D01*
X41247060Y-96266000D01*
X41247293Y-96271437D01*
X41303173Y-96921677D01*
X41303958Y-96927565D01*
X41451278Y-97740365D01*
X41453020Y-97747558D01*
X41707020Y-98580678D01*
X41707645Y-98582616D01*
X41956565Y-99314136D01*
X41958857Y-99319923D01*
X42258577Y-99980323D01*
X42260125Y-99983497D01*
X42727485Y-100877577D01*
X42730612Y-100882910D01*
X43335132Y-101807470D01*
X43340067Y-101814045D01*
X43888707Y-102454125D01*
X43889898Y-102455475D01*
X44438538Y-103059995D01*
X44447693Y-103068294D01*
X45158893Y-103596614D01*
X45168981Y-103602741D01*
X45920821Y-103968501D01*
X45923810Y-103969861D01*
X46726450Y-104310221D01*
X46733071Y-104312605D01*
X47464591Y-104531045D01*
X47467114Y-104531742D01*
X48366274Y-104760342D01*
X48374233Y-104761833D01*
X49415633Y-104888833D01*
X49418825Y-104889141D01*
X50206225Y-104945021D01*
X50208370Y-104945136D01*
X50894170Y-104970536D01*
X50898895Y-104970536D01*
X51848855Y-104934976D01*
X51854356Y-104934530D01*
X52870356Y-104807530D01*
X52872246Y-104807265D01*
X54177806Y-104604065D01*
X54182846Y-104603070D01*
X56047206Y-104156030D01*
X56050647Y-104155102D01*
X56812647Y-103926502D01*
X56814399Y-103925948D01*
X57947239Y-103550028D01*
X57951952Y-103548254D01*
X58901912Y-103146934D01*
X58905897Y-103145086D01*
X60059057Y-102560886D01*
X60063555Y-102558373D01*
X60602035Y-102228173D01*
X60609914Y-102222467D01*
X61580194Y-101399507D01*
X61580226Y-101399480D01*
X62321906Y-100769560D01*
X62325292Y-100766466D01*
X63173233Y-99933758D01*
X64534281Y-98643809D01*
X64538865Y-98638985D01*
X65107825Y-97973505D01*
X65529448Y-97480764D01*
X65533607Y-97475337D01*
X65797767Y-97089257D01*
X65799482Y-97086612D01*
X66072467Y-96641747D01*
X66535546Y-96007531D01*
X67288262Y-95244711D01*
X67988901Y-94589438D01*
X68921751Y-94009557D01*
X69886783Y-93489147D01*
X70865781Y-93110669D01*
X72104345Y-92761849D01*
X73243356Y-92564420D01*
X74235364Y-92417644D01*
X75246356Y-92362039D01*
X76165808Y-92372143D01*
X77448757Y-92508519D01*
X78767064Y-92836833D01*
X79881323Y-93245227D01*
X81038606Y-93917361D01*
X81803078Y-94408446D01*
X82487230Y-94900021D01*
X82796195Y-95127946D01*
X82953087Y-95249411D01*
X82975685Y-95260579D01*
X83000847Y-95262075D01*
X83031628Y-95248785D01*
X83385597Y-94965610D01*
X84525581Y-94170154D01*
X85618185Y-93487277D01*
X86570479Y-93043881D01*
X87988692Y-92624978D01*
X89550528Y-92417744D01*
X91036349Y-92362152D01*
X92446182Y-92518800D01*
X93347652Y-92701120D01*
X93348111Y-92701211D01*
X94284376Y-92883403D01*
X95406321Y-93237170D01*
X96329488Y-93610472D01*
X97192953Y-94110373D01*
X97894375Y-94564531D01*
X98918558Y-95427266D01*
X99674866Y-96314667D01*
X100236773Y-97144873D01*
X100238977Y-97147930D01*
X100807937Y-97889610D01*
X100809740Y-97891853D01*
X101485380Y-98694493D01*
X101489942Y-98699367D01*
X102287390Y-99466340D01*
X102835896Y-99999609D01*
X102838218Y-100001757D01*
X103513362Y-100595681D01*
X104300305Y-101316622D01*
X104304074Y-101319814D01*
X105048878Y-101902484D01*
X105534731Y-102347849D01*
X105549531Y-102357980D01*
X106352171Y-102754220D01*
X107596575Y-103373882D01*
X107604505Y-103377182D01*
X108849105Y-103798822D01*
X108850425Y-103799254D01*
X110384585Y-104281854D01*
X110388632Y-104282981D01*
X111140472Y-104465861D01*
X111141752Y-104466158D01*
X111852952Y-104623638D01*
X111857354Y-104624451D01*
X113020674Y-104797171D01*
X113022704Y-104797439D01*
X114384144Y-104954919D01*
X114389907Y-104955321D01*
X115441467Y-104980721D01*
X115447761Y-104980561D01*
X116799041Y-104878961D01*
X116806583Y-104877937D01*
X118427103Y-104557897D01*
X118435395Y-104555668D01*
X120035595Y-104007028D01*
X120047738Y-104001370D01*
X121246618Y-103280010D01*
X121256359Y-103272799D01*
X122170759Y-102449839D01*
X122180860Y-102438243D01*
X122947940Y-101305403D01*
X122950332Y-101301585D01*
X123570092Y-100229705D01*
X123573772Y-100222254D01*
X124168132Y-98789694D01*
X124169721Y-98785440D01*
X124383081Y-98145360D01*
X124384444Y-98140681D01*
X124547004Y-97490441D01*
X124548322Y-97483585D01*
X124660082Y-96660625D01*
X124660331Y-96658535D01*
X124731451Y-95962575D01*
X124731736Y-95958470D01*
X124741896Y-95684150D01*
X124741845Y-95678333D01*
X124706285Y-95028093D01*
X124705877Y-95023586D01*
X124604277Y-94220946D01*
X124602896Y-94213568D01*
X124226976Y-92704808D01*
X124222381Y-92692216D01*
X123846461Y-91925136D01*
X123843288Y-91919425D01*
X123487688Y-91350465D01*
X123484952Y-91346439D01*
X122971872Y-90650479D01*
X122963910Y-90641573D01*
X122344150Y-90067533D01*
X122334775Y-90060347D01*
X121720095Y-89674267D01*
X121711618Y-89669797D01*
X121208698Y-89451357D01*
X121189255Y-89446370D01*
X120937040Y-89423017D01*
X120572056Y-89072632D01*
X120564370Y-89066331D01*
X119995410Y-88670091D01*
X119987518Y-88665404D01*
X119438878Y-88391084D01*
X119436323Y-88389877D01*
X118923243Y-88161277D01*
X118913739Y-88157918D01*
X118055219Y-87929318D01*
X118054991Y-87929258D01*
X117893545Y-87886911D01*
X118338546Y-87752705D01*
X119576973Y-87515129D01*
X120532191Y-87424156D01*
X121260710Y-87398860D01*
X121864665Y-87398860D01*
X122919138Y-87550220D01*
X123736318Y-87741904D01*
X124727003Y-88080556D01*
X125656521Y-88469540D01*
X126699995Y-89049247D01*
X127598613Y-89786316D01*
X128454820Y-90561462D01*
X129411252Y-91517894D01*
X130114565Y-92403361D01*
X130707291Y-93193662D01*
X131263924Y-94033672D01*
X131962553Y-95253740D01*
X132484008Y-96382716D01*
X133076945Y-97842254D01*
X133430891Y-98934429D01*
X133668678Y-100012061D01*
X133840848Y-101004568D01*
X133967294Y-102097063D01*
X133987509Y-103097716D01*
X133931766Y-104263257D01*
X133860904Y-105265455D01*
X133668771Y-106438475D01*
X133289011Y-107942324D01*
X132848408Y-109264132D01*
X132255516Y-110738762D01*
X131601074Y-112108523D01*
X131287950Y-112763237D01*
X131282418Y-112762636D01*
X131258273Y-112769877D01*
X131238849Y-112785941D01*
X131227745Y-112806517D01*
X131199957Y-112893356D01*
X130662006Y-113590699D01*
X129753599Y-114377985D01*
X129007130Y-114963056D01*
X128120377Y-115446739D01*
X127031475Y-115910531D01*
X125536634Y-116233740D01*
X124688151Y-116334749D01*
X123961059Y-116375144D01*
X122989903Y-116354911D01*
X121938165Y-116274008D01*
X120683065Y-116051329D01*
X119204236Y-115706944D01*
X118292640Y-115403079D01*
X118267621Y-115400012D01*
X118243380Y-115406922D01*
X118223737Y-115422718D01*
X118211787Y-115444911D01*
X118209060Y-115463320D01*
X118209060Y-115616332D01*
X118053628Y-116121486D01*
X117762818Y-116431683D01*
X117308074Y-116767798D01*
X116061831Y-117189913D01*
X114564905Y-117473115D01*
X113292251Y-117614521D01*
X112103786Y-117554091D01*
X110914157Y-117291969D01*
X109357054Y-116725749D01*
X107880476Y-115977347D01*
X107031656Y-115411467D01*
X105407460Y-114193320D01*
X105384694Y-114182499D01*
X105359512Y-114181388D01*
X105335882Y-114190162D01*
X105315177Y-114211008D01*
X105095597Y-114570321D01*
X104579085Y-115086833D01*
X103695786Y-115568632D01*
X102505424Y-116073023D01*
X101461828Y-116293784D01*
X100317202Y-116273702D01*
X99231199Y-116032369D01*
X98221738Y-115628584D01*
X96846147Y-114981247D01*
X95531853Y-114091571D01*
X94519298Y-113261276D01*
X93667003Y-112490152D01*
X93645327Y-112477287D01*
X93620353Y-112473869D01*
X93596017Y-112480436D01*
X93576153Y-112495954D01*
X93563892Y-112517977D01*
X93561165Y-112543036D01*
X93563578Y-112555487D01*
X93682446Y-112951715D01*
X93663239Y-113431906D01*
X93353441Y-113915964D01*
X92595212Y-114494613D01*
X91772352Y-114896008D01*
X90703095Y-115218803D01*
X89608993Y-115441675D01*
X88351594Y-115685043D01*
X86871639Y-115867503D01*
X85410894Y-115989232D01*
X83787929Y-116070380D01*
X82794237Y-116070380D01*
X81272742Y-116050093D01*
X79522972Y-115913155D01*
X77697603Y-115725547D01*
X75872278Y-115380764D01*
X74315801Y-115042180D01*
X73374489Y-114589142D01*
X72773981Y-114248854D01*
X72510831Y-113990669D01*
X72371138Y-113850976D01*
X72223218Y-113259294D01*
X72151186Y-112932751D01*
X72185517Y-112838341D01*
X72186773Y-112834514D01*
X72259892Y-112585246D01*
X72262045Y-112560131D01*
X72254258Y-112536158D01*
X72237757Y-112517103D01*
X72215142Y-112505969D01*
X72189978Y-112504510D01*
X72157020Y-112519692D01*
X71216615Y-113346854D01*
X70062002Y-114248262D01*
X69222754Y-114794279D01*
X68266653Y-115330505D01*
X67357589Y-115749684D01*
X66313049Y-116102911D01*
X65589494Y-116248627D01*
X64809975Y-116303947D01*
X64209128Y-116273905D01*
X63558854Y-116138848D01*
X62944799Y-115897253D01*
X62186168Y-115578628D01*
X61508155Y-115217021D01*
X60932217Y-114756270D01*
X60619290Y-114419271D01*
X60596335Y-114226453D01*
X60588446Y-114202513D01*
X60571866Y-114183528D01*
X60544982Y-114171548D01*
X60463702Y-114156308D01*
X60438498Y-114156672D01*
X60413015Y-114168596D01*
X60322562Y-114238949D01*
X59444920Y-114868010D01*
X58761029Y-115354332D01*
X57965486Y-115835712D01*
X57964238Y-115836487D01*
X57393121Y-116200384D01*
X56245273Y-116766724D01*
X55563770Y-117039325D01*
X54675116Y-117327127D01*
X53783102Y-117508554D01*
X53123983Y-117563900D01*
X52559116Y-117563900D01*
X51998898Y-117538665D01*
X51433563Y-117473046D01*
X50588807Y-117336468D01*
X49704680Y-117129330D01*
X48923103Y-116872166D01*
X48368190Y-116622205D01*
X47940894Y-116312784D01*
X47691363Y-115933689D01*
X47668180Y-115738951D01*
X47668180Y-115488720D01*
X47665737Y-115471275D01*
X47655577Y-115435715D01*
X47643979Y-115413335D01*
X47624589Y-115397230D01*
X47600460Y-115389938D01*
X47569506Y-115394794D01*
X47253587Y-115530188D01*
X45568556Y-115985602D01*
X44248790Y-116238430D01*
X43065006Y-116319373D01*
X42164597Y-116349724D01*
X41588357Y-116319395D01*
X40790236Y-116273933D01*
X39972627Y-116112430D01*
X38905809Y-115864685D01*
X37939139Y-115502184D01*
X36545127Y-114704163D01*
X35805004Y-114140259D01*
X34956683Y-113296988D01*
X34858958Y-113179273D01*
X36196424Y-113179273D01*
X36202006Y-113203853D01*
X36213159Y-113220756D01*
X36310813Y-113326977D01*
X36315877Y-113331904D01*
X36707037Y-113672264D01*
X36709735Y-113674484D01*
X37258375Y-114101204D01*
X37261916Y-114103767D01*
X37820716Y-114479687D01*
X37826404Y-114483097D01*
X38410604Y-114792977D01*
X38416337Y-114795660D01*
X39000537Y-115034420D01*
X39002655Y-115035242D01*
X39597015Y-115253682D01*
X39605583Y-115256164D01*
X40291383Y-115403484D01*
X40293964Y-115403982D01*
X40944204Y-115515742D01*
X40951102Y-115516543D01*
X41535302Y-115552103D01*
X41539160Y-115552220D01*
X42209720Y-115552220D01*
X42217361Y-115551759D01*
X43055561Y-115450159D01*
X43060032Y-115449454D01*
X44131912Y-115241174D01*
X44137290Y-115239884D01*
X44607656Y-115105116D01*
X48638927Y-115105116D01*
X48640903Y-115130244D01*
X48655485Y-115156070D01*
X48929805Y-115450710D01*
X48938849Y-115458735D01*
X49502729Y-115870215D01*
X49512398Y-115876030D01*
X50243918Y-116231630D01*
X50253987Y-116235505D01*
X51076947Y-116474265D01*
X51084357Y-116475942D01*
X52074957Y-116638502D01*
X52082745Y-116639291D01*
X52986985Y-116674851D01*
X52997693Y-116674367D01*
X54166093Y-116521967D01*
X54171566Y-116521008D01*
X55299326Y-116272088D01*
X55307758Y-116269603D01*
X56237398Y-115924163D01*
X56240109Y-115923084D01*
X57017349Y-115592884D01*
X57023485Y-115589878D01*
X58151245Y-114959958D01*
X58156873Y-114956416D01*
X58949353Y-114397616D01*
X58953412Y-114394502D01*
X59623972Y-113835702D01*
X59628033Y-113832009D01*
X59693728Y-113766861D01*
X61486005Y-113766861D01*
X61496445Y-113796743D01*
X61648845Y-114025343D01*
X61654160Y-114032240D01*
X62050400Y-114479280D01*
X62057709Y-114486306D01*
X62392989Y-114760626D01*
X62403018Y-114767349D01*
X62844978Y-115006109D01*
X62850500Y-115008756D01*
X63561700Y-115308476D01*
X63573244Y-115312091D01*
X64487644Y-115505131D01*
X64496657Y-115506367D01*
X65202777Y-115552087D01*
X65210446Y-115552120D01*
X66023246Y-115506400D01*
X66033408Y-115504998D01*
X66744608Y-115347518D01*
X66752908Y-115345077D01*
X67494588Y-115070757D01*
X67502334Y-115067287D01*
X68325294Y-114630407D01*
X68331957Y-114626326D01*
X69129517Y-114067526D01*
X69133359Y-114064610D01*
X69925839Y-113414370D01*
X69929501Y-113411121D01*
X70909941Y-112471321D01*
X70914400Y-112466586D01*
X71544320Y-111724906D01*
X71545505Y-111723468D01*
X71931585Y-111240868D01*
X71933308Y-111238612D01*
X72057529Y-111068251D01*
X93251616Y-111068251D01*
X93257363Y-111092794D01*
X93270841Y-111111880D01*
X93864634Y-111688707D01*
X93866807Y-111690721D01*
X94923447Y-112625441D01*
X94926147Y-112627699D01*
X96185987Y-113623379D01*
X96188884Y-113625538D01*
X97347124Y-114438338D01*
X97354064Y-114442573D01*
X98552944Y-115072493D01*
X98565688Y-115077520D01*
X99825528Y-115422960D01*
X99836673Y-115424968D01*
X100974593Y-115526568D01*
X100988281Y-115526309D01*
X101943321Y-115404389D01*
X101960294Y-115399766D01*
X102955974Y-114973046D01*
X102965190Y-114968164D01*
X103473190Y-114643044D01*
X103485492Y-114632769D01*
X104013812Y-114063809D01*
X104026957Y-114042301D01*
X104030698Y-114017373D01*
X104023563Y-113991199D01*
X103982507Y-113912605D01*
X103966634Y-113893024D01*
X103944394Y-113881161D01*
X103919290Y-113878886D01*
X103895691Y-113886328D01*
X103634266Y-114029691D01*
X102956422Y-114330954D01*
X102113977Y-114526522D01*
X101406314Y-114571692D01*
X100712463Y-114541525D01*
X99790505Y-114390384D01*
X98819989Y-114102262D01*
X98002201Y-113829666D01*
X96469567Y-113070936D01*
X95632462Y-112553901D01*
X105063367Y-112553901D01*
X105078543Y-112584482D01*
X105586321Y-113148679D01*
X105592040Y-113154279D01*
X106628360Y-114048359D01*
X106632931Y-114051952D01*
X107913091Y-114966352D01*
X107920155Y-114970730D01*
X109484795Y-115803850D01*
X109492863Y-115807449D01*
X110773023Y-116274809D01*
X110779195Y-116276713D01*
X112221915Y-116642473D01*
X112231290Y-116644114D01*
X113674010Y-116786354D01*
X113688572Y-116786111D01*
X115070332Y-116603231D01*
X115082977Y-116600215D01*
X115895777Y-116315735D01*
X115905095Y-116311607D01*
X116616295Y-115925527D01*
X116626652Y-115918502D01*
X117236252Y-115410502D01*
X117252028Y-115390843D01*
X117258913Y-115366595D01*
X117253564Y-115335789D01*
X117221992Y-115265215D01*
X117207337Y-115244707D01*
X117185857Y-115231516D01*
X117160938Y-115227721D01*
X117135630Y-115234350D01*
X116927828Y-115338251D01*
X116021394Y-115625288D01*
X115204541Y-115791684D01*
X114940688Y-115821001D01*
X114936778Y-115821559D01*
X114674497Y-115867354D01*
X114465625Y-115873985D01*
X114460627Y-115874341D01*
X114387919Y-115882420D01*
X114200940Y-115882420D01*
X114198925Y-115882452D01*
X113721804Y-115897599D01*
X113291688Y-115871372D01*
X113290218Y-115871299D01*
X112780946Y-115852081D01*
X112577222Y-115827911D01*
X112573606Y-115827587D01*
X112478884Y-115821811D01*
X112394471Y-115806355D01*
X112390515Y-115805759D01*
X111888325Y-115746177D01*
X110677536Y-115443480D01*
X110401009Y-115329616D01*
X110394791Y-115327426D01*
X110221948Y-115276459D01*
X109734462Y-115068561D01*
X109729633Y-115066730D01*
X109263560Y-114911372D01*
X108765330Y-114684904D01*
X108157317Y-114365697D01*
X108156198Y-114365124D01*
X107638900Y-114106475D01*
X107048897Y-113788781D01*
X106430372Y-113347852D01*
X116633815Y-113347852D01*
X116639579Y-113372391D01*
X116654436Y-113392754D01*
X116666308Y-113401322D01*
X116819183Y-113486752D01*
X116822136Y-113488302D01*
X118061656Y-114097902D01*
X118065401Y-114099595D01*
X119833241Y-114831115D01*
X119838990Y-114833176D01*
X121037870Y-115198936D01*
X121038663Y-115199172D01*
X122156263Y-115524292D01*
X122163345Y-115525920D01*
X123118385Y-115688480D01*
X123124671Y-115689230D01*
X124303231Y-115770510D01*
X124312234Y-115770491D01*
X125145354Y-115709531D01*
X125154869Y-115708104D01*
X126577269Y-115382984D01*
X126588473Y-115379299D01*
X127848313Y-114830659D01*
X127857648Y-114825628D01*
X128792368Y-114216028D01*
X128800092Y-114210099D01*
X129592572Y-113498899D01*
X129595768Y-113495823D01*
X130225688Y-112845583D01*
X130241343Y-112818108D01*
X130302303Y-112594588D01*
X130303976Y-112569437D01*
X130295733Y-112545617D01*
X130278872Y-112526880D01*
X130263501Y-112518485D01*
X130256229Y-112515735D01*
X130231351Y-112511676D01*
X130206855Y-112517615D01*
X130192962Y-112526477D01*
X129502394Y-113105663D01*
X128837141Y-113529006D01*
X128171511Y-113892077D01*
X127401034Y-114209332D01*
X126522375Y-114451721D01*
X125979107Y-114572447D01*
X124720239Y-114693784D01*
X123612970Y-114724120D01*
X122521576Y-114648329D01*
X120423506Y-114313854D01*
X119193496Y-114025333D01*
X117627877Y-113538927D01*
X116752092Y-113203520D01*
X116727231Y-113199356D01*
X116702710Y-113205193D01*
X116682391Y-113220110D01*
X116670149Y-113239934D01*
X116638053Y-113323004D01*
X116633815Y-113347852D01*
X106430372Y-113347852D01*
X105515565Y-112695713D01*
X105213242Y-112429331D01*
X105191398Y-112416752D01*
X105166382Y-112413663D01*
X105142134Y-112420550D01*
X105119241Y-112440560D01*
X105073721Y-112505588D01*
X105063652Y-112528696D01*
X105063367Y-112553901D01*
X95632462Y-112553901D01*
X95437936Y-112433753D01*
X94175085Y-111505633D01*
X94174977Y-111505554D01*
X93552253Y-111049902D01*
X93429278Y-110943324D01*
X93407332Y-110930924D01*
X93382291Y-110928040D01*
X93358101Y-110935125D01*
X93342059Y-110947151D01*
X93269456Y-111022174D01*
X93255870Y-111043406D01*
X93251616Y-111068251D01*
X72057529Y-111068251D01*
X72286808Y-110753812D01*
X72674645Y-110330717D01*
X72729541Y-110275821D01*
X72743473Y-110254815D01*
X72748134Y-110230043D01*
X72742790Y-110205409D01*
X72728284Y-110184795D01*
X72706900Y-110171450D01*
X72684640Y-110167420D01*
X72542400Y-110167420D01*
X72532757Y-110168156D01*
X72462878Y-110178892D01*
X72439219Y-110187589D01*
X72422577Y-110202441D01*
X72246136Y-110427154D01*
X71837663Y-110825541D01*
X71837099Y-110826099D01*
X71143423Y-111519775D01*
X70734449Y-111853013D01*
X70730453Y-111856558D01*
X70439070Y-112137893D01*
X70076981Y-112399402D01*
X70076363Y-112399854D01*
X69802043Y-112603054D01*
X69799576Y-112604977D01*
X69548529Y-112810835D01*
X69104708Y-113093267D01*
X69104431Y-113093445D01*
X68664431Y-113376663D01*
X67865842Y-113811338D01*
X67421582Y-114013275D01*
X66913972Y-114229386D01*
X66214938Y-114400373D01*
X65579596Y-114511305D01*
X64784100Y-114581792D01*
X64117712Y-114546719D01*
X63408954Y-114400946D01*
X62578169Y-114149193D01*
X61988175Y-113866803D01*
X61984495Y-113865183D01*
X61644135Y-113728023D01*
X61641757Y-113727119D01*
X61570637Y-113701719D01*
X61545689Y-113698122D01*
X61521306Y-113704514D01*
X61501332Y-113719888D01*
X61488912Y-113741823D01*
X61486005Y-113766861D01*
X59693728Y-113766861D01*
X60237633Y-113227489D01*
X60240987Y-113223894D01*
X60754067Y-112629534D01*
X60757252Y-112625530D01*
X61158572Y-112076890D01*
X61159341Y-112075815D01*
X61199788Y-112018034D01*
X61209857Y-111994926D01*
X61210142Y-111969721D01*
X61200599Y-111946391D01*
X61182731Y-111928612D01*
X61159354Y-111919185D01*
X61138124Y-111918855D01*
X61037060Y-111934382D01*
X61006449Y-111948036D01*
X60114211Y-112679379D01*
X59066360Y-113393133D01*
X58063997Y-114000625D01*
X57138065Y-114471181D01*
X55892859Y-115017857D01*
X54969575Y-115320573D01*
X53937207Y-115533119D01*
X53224517Y-115669592D01*
X52544699Y-115730020D01*
X51713041Y-115730020D01*
X51282318Y-115679347D01*
X51257198Y-115681429D01*
X51236801Y-115692108D01*
X50831211Y-115626336D01*
X50828465Y-115625952D01*
X50461347Y-115582762D01*
X50458915Y-115575498D01*
X50446328Y-115553659D01*
X50426236Y-115538438D01*
X50413585Y-115533926D01*
X50013134Y-115437363D01*
X49267351Y-115234429D01*
X48818943Y-115109871D01*
X48735072Y-115058617D01*
X48711383Y-115050003D01*
X48686209Y-115051285D01*
X48663517Y-115062259D01*
X48646883Y-115081197D01*
X48638927Y-115105116D01*
X44607656Y-115105116D01*
X45041530Y-114980804D01*
X45042994Y-114980365D01*
X46358714Y-114568885D01*
X46364877Y-114566602D01*
X47060344Y-114267094D01*
X48065603Y-113855852D01*
X48070515Y-113853594D01*
X48463263Y-113652372D01*
X48482969Y-113636655D01*
X48495007Y-113614509D01*
X48497481Y-113589424D01*
X48490001Y-113565353D01*
X48473745Y-113546089D01*
X48451275Y-113534667D01*
X48434754Y-113533497D01*
X48384318Y-113435426D01*
X48386289Y-113429488D01*
X48384299Y-113404361D01*
X48372690Y-113381987D01*
X48353291Y-113365892D01*
X48329158Y-113358613D01*
X48304722Y-113361102D01*
X47774110Y-113522984D01*
X47773913Y-113523044D01*
X46542125Y-113903225D01*
X45342831Y-114161301D01*
X44125620Y-114343883D01*
X44124929Y-114343990D01*
X43182775Y-114495950D01*
X42562035Y-114541370D01*
X41561162Y-114571700D01*
X40287971Y-114465601D01*
X39105271Y-114238158D01*
X38302804Y-114011045D01*
X37743516Y-113799423D01*
X37186892Y-113543676D01*
X36628725Y-113151451D01*
X36425874Y-112997200D01*
X36403181Y-112986228D01*
X36378006Y-112984950D01*
X36354318Y-112993567D01*
X36342103Y-113003283D01*
X36214571Y-113133316D01*
X36200844Y-113154457D01*
X36196424Y-113179273D01*
X34858958Y-113179273D01*
X34516246Y-112766462D01*
X34062316Y-111858602D01*
X34061549Y-111857118D01*
X33702344Y-111183608D01*
X33700992Y-111160387D01*
X33694562Y-111136014D01*
X33679156Y-111116064D01*
X33657202Y-111103678D01*
X33648648Y-111101861D01*
X33190863Y-109994316D01*
X32674310Y-108611778D01*
X32248769Y-106924810D01*
X31975408Y-105618751D01*
X31838793Y-104252606D01*
X31793233Y-102900980D01*
X31853904Y-101672399D01*
X32096818Y-100078274D01*
X32461192Y-98605595D01*
X32886072Y-97376478D01*
X33706749Y-95537553D01*
X34724520Y-93714680D01*
X35939455Y-92059331D01*
X37260735Y-90601367D01*
X38535264Y-89478568D01*
X39867463Y-88570250D01*
X41746153Y-87812714D01*
X43411752Y-87434169D01*
X44697391Y-87388793D01*
X46518244Y-87540531D01*
G36*
X33498599Y-40540302D02*
X33855328Y-40599757D01*
X34149600Y-40727275D01*
X34494264Y-40927081D01*
X34830547Y-41167999D01*
X35341879Y-41584083D01*
X35771719Y-42123882D01*
X36062944Y-42617699D01*
X36073822Y-42629790D01*
X36267286Y-42958229D01*
X36267860Y-42959183D01*
X36653940Y-43589103D01*
X36657387Y-43594162D01*
X36875827Y-43883722D01*
X36881619Y-43890381D01*
X37135140Y-44143902D01*
X37372265Y-44391117D01*
X37559106Y-44608257D01*
X37570707Y-44618778D01*
X38170147Y-45040418D01*
X38186600Y-45048721D01*
X38331878Y-45097147D01*
X38635385Y-45286217D01*
X38639249Y-45288441D01*
X38898329Y-45425601D01*
X38906683Y-45429281D01*
X39191163Y-45530881D01*
X39192601Y-45531375D01*
X39761561Y-45719335D01*
X39763233Y-45719862D01*
X40271075Y-45872215D01*
X40585834Y-45968673D01*
X40590665Y-45969948D01*
X40647301Y-45982534D01*
X40608998Y-46056587D01*
X40608999Y-46056587D01*
X40385488Y-46488369D01*
X40385244Y-46488843D01*
X40203182Y-46847910D01*
X39858659Y-47440692D01*
X39857090Y-47443558D01*
X39583218Y-47976087D01*
X39350019Y-48396859D01*
X39346712Y-48403783D01*
X39195125Y-48777697D01*
X38911589Y-49359959D01*
X38910747Y-49361759D01*
X38621187Y-50006919D01*
X38620829Y-50007733D01*
X38443029Y-50419213D01*
X38441275Y-50423739D01*
X38278715Y-50896179D01*
X38278418Y-50897064D01*
X38080358Y-51501402D01*
X37831438Y-52253242D01*
X37831089Y-52254328D01*
X37592329Y-53021408D01*
X37592319Y-53021440D01*
X37429759Y-53544680D01*
X37429593Y-53545224D01*
X37256873Y-54119264D01*
X37255315Y-54125607D01*
X37138566Y-54734732D01*
X37011819Y-55343120D01*
X36859566Y-56002881D01*
X36858765Y-56006957D01*
X36752085Y-56662277D01*
X36751907Y-56663436D01*
X36650474Y-57368398D01*
X36549174Y-57925545D01*
X36366400Y-58844493D01*
X36365624Y-58849388D01*
X36304680Y-59362334D01*
X36228565Y-59991549D01*
X36196725Y-60214432D01*
X36194518Y-60216759D01*
X36185551Y-60241022D01*
X36142363Y-60528940D01*
X36142189Y-60530182D01*
X36091389Y-60921342D01*
X36091142Y-60923540D01*
X36055586Y-61299420D01*
X36025126Y-61619250D01*
X35989589Y-61979699D01*
X35949357Y-62356873D01*
X35934006Y-62425951D01*
X35841327Y-62514217D01*
X35837610Y-62518069D01*
X35598850Y-62787309D01*
X35594688Y-62792531D01*
X35264488Y-63254811D01*
X35262769Y-63257345D01*
X35024009Y-63628185D01*
X35021690Y-63632086D01*
X34698342Y-64223206D01*
X34502361Y-64499590D01*
X34501473Y-64500876D01*
X34125553Y-65059676D01*
X34124845Y-65060751D01*
X33840365Y-65502711D01*
X33839592Y-65503942D01*
X33575432Y-65935742D01*
X33575149Y-65936210D01*
X33072229Y-66774410D01*
X33071143Y-66776293D01*
X32812124Y-67243542D01*
X32588910Y-67644312D01*
X32376562Y-68008338D01*
X32285865Y-68149422D01*
X32282095Y-68156153D01*
X32210975Y-68303473D01*
X32207103Y-68313635D01*
X32176623Y-68420315D01*
X32175542Y-68450842D01*
X32195862Y-68547362D01*
X32205847Y-68570506D01*
X32224050Y-68587942D01*
X32244225Y-68596268D01*
X32289945Y-68606428D01*
X32315147Y-68606903D01*
X32337375Y-68598288D01*
X32459295Y-68522088D01*
X32464101Y-68518767D01*
X32804314Y-68259799D01*
X33505257Y-67731552D01*
X33505579Y-67731308D01*
X34343442Y-67091485D01*
X35110149Y-66522802D01*
X35111390Y-66521858D01*
X35527779Y-66196872D01*
X35703709Y-66061782D01*
X35699703Y-66486441D01*
X35699700Y-66487040D01*
X35699700Y-67263091D01*
X35674344Y-67942632D01*
X35674305Y-67944216D01*
X35669225Y-68355696D01*
X35669353Y-68360587D01*
X35704913Y-68909227D01*
X35705183Y-68912263D01*
X35766143Y-69450743D01*
X35766496Y-69453369D01*
X35898576Y-70301729D01*
X35898706Y-70302531D01*
X36030786Y-71084851D01*
X36031133Y-71086733D01*
X36111405Y-71488092D01*
X36113346Y-71492720D01*
X36178342Y-71817698D01*
X36239204Y-72152439D01*
X36239868Y-72155624D01*
X36320728Y-72499278D01*
X36406773Y-72990242D01*
X36408302Y-72996861D01*
X36494312Y-73295366D01*
X36542640Y-73492397D01*
X36547653Y-73503036D01*
X36590760Y-73665885D01*
X36641490Y-73863732D01*
X36641765Y-73864770D01*
X36712491Y-74122415D01*
X36767985Y-74369617D01*
X36812707Y-74578317D01*
X36813145Y-74582925D01*
X36874614Y-74867220D01*
X36875076Y-74869201D01*
X36981756Y-75295921D01*
X36981798Y-75296087D01*
X37093516Y-75737881D01*
X37205276Y-76184921D01*
X37205979Y-76187500D01*
X37363378Y-76720624D01*
X37500538Y-77193064D01*
X37500947Y-77194417D01*
X37643187Y-77646537D01*
X37644129Y-77649306D01*
X37928609Y-78426546D01*
X37928994Y-78427572D01*
X38065744Y-78782109D01*
X38222842Y-79238200D01*
X38223155Y-79239087D01*
X38355235Y-79604847D01*
X38355407Y-79605319D01*
X38594167Y-80250479D01*
X38596125Y-80255181D01*
X38727431Y-80537995D01*
X38784564Y-80682331D01*
X38786976Y-80687686D01*
X38962345Y-81033413D01*
X39220951Y-81591190D01*
X39222544Y-81594387D01*
X39542267Y-82193233D01*
X39839140Y-82777983D01*
X39850340Y-82792132D01*
X40548123Y-84012033D01*
X40133490Y-84526750D01*
X39844000Y-84882264D01*
X39841568Y-84885451D01*
X39767249Y-84989497D01*
X39756960Y-85012508D01*
X39757016Y-85017051D01*
X39363932Y-85463517D01*
X38659459Y-86193330D01*
X38158360Y-86684306D01*
X37266197Y-87470018D01*
X36594674Y-88030462D01*
X36124631Y-88320488D01*
X35616441Y-88546910D01*
X35224070Y-88705845D01*
X34845098Y-88750140D01*
X34428912Y-88750140D01*
X34170402Y-88649608D01*
X33969815Y-88532192D01*
X33765886Y-88376818D01*
X33601327Y-88168698D01*
X33504183Y-87993838D01*
X33419599Y-87782380D01*
X33438959Y-87491984D01*
X33439073Y-87485893D01*
X33428913Y-87140453D01*
X33427662Y-87129645D01*
X33372277Y-86857755D01*
X33311735Y-86368371D01*
X33266103Y-85881633D01*
X33265645Y-85877929D01*
X33118510Y-84919013D01*
X33006887Y-83944851D01*
X33006867Y-83944678D01*
X32879867Y-82862638D01*
X32879677Y-82861169D01*
X32730184Y-81801523D01*
X33647944Y-81801523D01*
X33657465Y-81827418D01*
X33703185Y-81898538D01*
X33708181Y-81905283D01*
X33850421Y-82072923D01*
X33853939Y-82076741D01*
X34011419Y-82234221D01*
X34013411Y-82236129D01*
X34318211Y-82515529D01*
X34323515Y-82519887D01*
X34745155Y-82829767D01*
X34751255Y-82833733D01*
X35391335Y-83199493D01*
X35395309Y-83201581D01*
X35933789Y-83460661D01*
X35940244Y-83463340D01*
X36762392Y-83752614D01*
X37111524Y-83886023D01*
X37136387Y-83890168D01*
X37138571Y-83889646D01*
X37516493Y-84012471D01*
X37517446Y-84012772D01*
X38111806Y-84195652D01*
X38113533Y-84196157D01*
X38443733Y-84287597D01*
X38444046Y-84287683D01*
X38799646Y-84384203D01*
X38800508Y-84384430D01*
X39196748Y-84486030D01*
X39200992Y-84486965D01*
X39509324Y-84543888D01*
X39517330Y-84544845D01*
X39589998Y-84548882D01*
X39593520Y-84548980D01*
X39700200Y-84548980D01*
X39724905Y-84543977D01*
X39745717Y-84529757D01*
X39759467Y-84508275D01*
X39784867Y-84442235D01*
X39789067Y-84417381D01*
X39785057Y-84397144D01*
X39769817Y-84356504D01*
X39768726Y-84353786D01*
X39250566Y-83144746D01*
X39234015Y-83121971D01*
X39195766Y-83088503D01*
X39173879Y-83076000D01*
X39148852Y-83072997D01*
X39130370Y-83077333D01*
X39124625Y-83079631D01*
X38944578Y-83139646D01*
X38727127Y-83203893D01*
X38444814Y-83238563D01*
X38182703Y-83253685D01*
X38181836Y-83253741D01*
X37902974Y-83273660D01*
X37574170Y-83238787D01*
X37312024Y-83203498D01*
X36898125Y-83132832D01*
X36582463Y-83062685D01*
X36318040Y-82977870D01*
X35923813Y-82821190D01*
X35923424Y-82821037D01*
X35625853Y-82705035D01*
X35211354Y-82507895D01*
X35211195Y-82507820D01*
X34847323Y-82335992D01*
X34576752Y-82185675D01*
X34289014Y-81998897D01*
X34288605Y-81998634D01*
X34052084Y-81847663D01*
X33861164Y-81701961D01*
X33853047Y-81696694D01*
X33797167Y-81666214D01*
X33773083Y-81658776D01*
X33744464Y-81662503D01*
X33703824Y-81677743D01*
X33682448Y-81691102D01*
X33664857Y-81720492D01*
X33649617Y-81776372D01*
X33647944Y-81801523D01*
X32730184Y-81801523D01*
X32706992Y-81637138D01*
X32559685Y-80550113D01*
X32559461Y-80548598D01*
X32351292Y-79248813D01*
X32226070Y-78339939D01*
X32223280Y-78331970D01*
X32192947Y-78106995D01*
X32192887Y-78106821D01*
X32192904Y-78106675D01*
X32170760Y-77942440D01*
X32900620Y-77942440D01*
X32900620Y-78008480D01*
X32904144Y-78029341D01*
X32944784Y-78146181D01*
X32944825Y-78146297D01*
X32956678Y-78180164D01*
X32959817Y-78187585D01*
X32998764Y-78265478D01*
X33001377Y-78270192D01*
X33112983Y-78452820D01*
X33219549Y-78630430D01*
X33229099Y-78642661D01*
X33315459Y-78729021D01*
X33316540Y-78730077D01*
X33534914Y-78938294D01*
X33671914Y-79070220D01*
X33680737Y-79077315D01*
X34000777Y-79290675D01*
X34001076Y-79290873D01*
X34209356Y-79428033D01*
X34215882Y-79431796D01*
X34549291Y-79598500D01*
X34755761Y-79719361D01*
X34767760Y-79724801D01*
X34918698Y-79775114D01*
X35165549Y-79870831D01*
X35459521Y-79992475D01*
X35460843Y-79993005D01*
X35709763Y-80089525D01*
X35717615Y-80091997D01*
X35965516Y-80152708D01*
X36345518Y-80259108D01*
X36348096Y-80259772D01*
X36865979Y-80381627D01*
X37321606Y-80493002D01*
X37477776Y-80538342D01*
X37487481Y-80540354D01*
X37807321Y-80580969D01*
X37831601Y-80584214D01*
X37842897Y-80584708D01*
X37914684Y-80581445D01*
X38036604Y-80576365D01*
X38069183Y-80565755D01*
X38099663Y-80545435D01*
X38117444Y-80527569D01*
X38123897Y-80514896D01*
X38139137Y-80474256D01*
X38141668Y-80438185D01*
X38131508Y-80392465D01*
X38126715Y-80378654D01*
X37156435Y-78366974D01*
X37147453Y-78353235D01*
X37116973Y-78317675D01*
X37097096Y-78302173D01*
X37072755Y-78295626D01*
X37052052Y-78297737D01*
X36996172Y-78312977D01*
X36990584Y-78314783D01*
X36949944Y-78330023D01*
X36928568Y-78343382D01*
X36916211Y-78359598D01*
X36836204Y-78509610D01*
X36661711Y-78778829D01*
X36513848Y-78961193D01*
X36364073Y-79106136D01*
X36131176Y-79249839D01*
X36128748Y-79251415D01*
X36028618Y-79319685D01*
X35763105Y-79363133D01*
X35762921Y-79363164D01*
X35611962Y-79388324D01*
X35494289Y-79402445D01*
X35385758Y-79388288D01*
X35146894Y-79353454D01*
X34983011Y-79305253D01*
X34706534Y-79176889D01*
X34421658Y-78996967D01*
X34103726Y-78774919D01*
X33802870Y-78549278D01*
X33551656Y-78308112D01*
X33551281Y-78307755D01*
X33460895Y-78222390D01*
X33314576Y-78071026D01*
X33313125Y-78069573D01*
X33145485Y-77907013D01*
X33131385Y-77896690D01*
X33065345Y-77861130D01*
X33043116Y-77854030D01*
X33002476Y-77848950D01*
X32977341Y-77850850D01*
X32949699Y-77867059D01*
X32919219Y-77897539D01*
X32905287Y-77918545D01*
X32900620Y-77942440D01*
X32170760Y-77942440D01*
X32102491Y-77436115D01*
X32036584Y-76924068D01*
X31991052Y-76504162D01*
X31965734Y-76154771D01*
X31965556Y-76152762D01*
X31929996Y-75812402D01*
X31929807Y-75810787D01*
X31884087Y-75460267D01*
X31883258Y-75455398D01*
X31862938Y-75358878D01*
X31862925Y-75358818D01*
X31807045Y-75094658D01*
X31806971Y-75094311D01*
X31756171Y-74860631D01*
X31756024Y-74859971D01*
X31715384Y-74682171D01*
X31714010Y-74677128D01*
X31648100Y-74469258D01*
X31561956Y-74185491D01*
X31496045Y-73957336D01*
X31495830Y-73956608D01*
X31414550Y-73687368D01*
X31412965Y-73682763D01*
X31316525Y-73434050D01*
X31230282Y-73205759D01*
X31227840Y-73200133D01*
X31123883Y-72989161D01*
X31799124Y-72989161D01*
X31799493Y-73012053D01*
X31804573Y-73037453D01*
X31804823Y-73037403D01*
X31808343Y-73054785D01*
X31809206Y-73056048D01*
X31809453Y-73057263D01*
X31900893Y-73250303D01*
X31909134Y-73263331D01*
X32043367Y-73427394D01*
X32178149Y-73652030D01*
X32184084Y-73660329D01*
X32377124Y-73888929D01*
X32381094Y-73893213D01*
X32705260Y-74212313D01*
X32993923Y-74521234D01*
X32996290Y-74523636D01*
X33265530Y-74782716D01*
X33270987Y-74787402D01*
X33526722Y-74982964D01*
X33767579Y-75223821D01*
X33781551Y-75234379D01*
X34044637Y-75381100D01*
X34526151Y-75675077D01*
X34534598Y-75679404D01*
X34824158Y-75801324D01*
X34826504Y-75802257D01*
X35070106Y-75893608D01*
X35374711Y-76010373D01*
X35379193Y-76011902D01*
X35734793Y-76118582D01*
X35739582Y-76119817D01*
X36161222Y-76211257D01*
X36165981Y-76212101D01*
X36643501Y-76278141D01*
X36652200Y-76278740D01*
X36814760Y-76278740D01*
X36839465Y-76273737D01*
X36859661Y-76260141D01*
X36895221Y-76224581D01*
X36910561Y-76199760D01*
X36920721Y-76169280D01*
X36922468Y-76135425D01*
X36912308Y-76089705D01*
X36908626Y-76078328D01*
X36797058Y-75819692D01*
X36624498Y-75403519D01*
X36624105Y-75402592D01*
X36359945Y-74792992D01*
X36346581Y-74773339D01*
X36326261Y-74753019D01*
X36293813Y-74735653D01*
X36268413Y-74730573D01*
X36238515Y-74731783D01*
X36202955Y-74741943D01*
X36200320Y-74742759D01*
X36199459Y-74743046D01*
X36189643Y-74743206D01*
X36166585Y-74753390D01*
X36154946Y-74764021D01*
X36014295Y-74928921D01*
X36008529Y-74932920D01*
X35989905Y-74954027D01*
X35989137Y-74954914D01*
X35902950Y-75056310D01*
X35845170Y-75122980D01*
X35678558Y-75208666D01*
X35548339Y-75273775D01*
X35389552Y-75283116D01*
X35226475Y-75288058D01*
X35061628Y-75273928D01*
X34826451Y-75180837D01*
X34825945Y-75180639D01*
X34537709Y-75069390D01*
X34335648Y-74980680D01*
X33999837Y-74760148D01*
X33834529Y-74649942D01*
X33553137Y-74428849D01*
X33259582Y-74175784D01*
X33258883Y-74175191D01*
X33042593Y-73994111D01*
X32619043Y-73570561D01*
X32528719Y-73470201D01*
X32527651Y-73469043D01*
X32350428Y-73281692D01*
X32230043Y-73147417D01*
X32221398Y-73140790D01*
X32214818Y-73129443D01*
X32099931Y-72981047D01*
X32089931Y-72970774D01*
X32034051Y-72925054D01*
X32025345Y-72919067D01*
X31989785Y-72898747D01*
X31981863Y-72894922D01*
X31956463Y-72884762D01*
X31931667Y-72880232D01*
X31915435Y-72882663D01*
X31879875Y-72892823D01*
X31868922Y-72897084D01*
X31838442Y-72912324D01*
X31818582Y-72927847D01*
X31804204Y-72958681D01*
X31799124Y-72989161D01*
X31123883Y-72989161D01*
X31055632Y-72850652D01*
X30990064Y-72704385D01*
X30988916Y-72701962D01*
X30846676Y-72417482D01*
X30845072Y-72414478D01*
X30677432Y-72119838D01*
X30675855Y-72117215D01*
X30608913Y-72011731D01*
X30591451Y-71993553D01*
X30571645Y-71985040D01*
X30468761Y-71809281D01*
X30463440Y-71801561D01*
X30087520Y-71334201D01*
X30083411Y-71329574D01*
X29605891Y-70841894D01*
X29596795Y-70834201D01*
X28962538Y-70392758D01*
X28633042Y-70149438D01*
X28630871Y-70147905D01*
X28442911Y-70020905D01*
X28436656Y-70017182D01*
X27928656Y-69753022D01*
X27922011Y-69750037D01*
X27365894Y-69537701D01*
X26899067Y-69309254D01*
X26570475Y-69010534D01*
X26570333Y-69010406D01*
X26153594Y-68633835D01*
X25710435Y-68024491D01*
X25405921Y-67605160D01*
X25261664Y-67202236D01*
X25260571Y-67199398D01*
X25068559Y-66734527D01*
X24972857Y-66432310D01*
X24972472Y-66431134D01*
X24856944Y-66089574D01*
X24777237Y-65691039D01*
X24747150Y-65284861D01*
X24737129Y-64949145D01*
X24767033Y-64535467D01*
X24841306Y-64205367D01*
X24841848Y-64180166D01*
X24837382Y-64165638D01*
X24818216Y-64122514D01*
X25002443Y-63618313D01*
X25003662Y-63614634D01*
X25127256Y-63199358D01*
X25297724Y-62980185D01*
X25301448Y-62974855D01*
X25504648Y-62649735D01*
X25505632Y-62648106D01*
X25840629Y-62074550D01*
X26084188Y-61673693D01*
X26088878Y-61664303D01*
X26210798Y-61359503D01*
X26213444Y-61351321D01*
X26360764Y-60762041D01*
X26361272Y-60759845D01*
X26498432Y-60114685D01*
X26498990Y-60111712D01*
X26580270Y-59613872D01*
X26581100Y-59603640D01*
X26581100Y-59237880D01*
X26581063Y-59235716D01*
X26565823Y-58788676D01*
X26565245Y-58782024D01*
X26489045Y-58238464D01*
X26488796Y-58236841D01*
X26377087Y-57566588D01*
X26285696Y-56982700D01*
X26284513Y-56976915D01*
X26193517Y-56617986D01*
X26102944Y-56150025D01*
X26062591Y-55766673D01*
X26061459Y-55759685D01*
X25904584Y-55046156D01*
X25828744Y-54454605D01*
X25828396Y-54452241D01*
X25727432Y-53846457D01*
X25712689Y-53507350D01*
X26418541Y-53507350D01*
X26418617Y-53510764D01*
X26469417Y-54542004D01*
X26469818Y-54546657D01*
X26617138Y-55740457D01*
X26618158Y-55746390D01*
X26958518Y-57285630D01*
X26959005Y-57287674D01*
X27172365Y-58120794D01*
X27173118Y-58123486D01*
X27432198Y-58976926D01*
X27433921Y-58981862D01*
X27840321Y-60008022D01*
X27841887Y-60011641D01*
X28197487Y-60768561D01*
X28200098Y-60773535D01*
X28682698Y-61601575D01*
X28683011Y-61602105D01*
X29124971Y-62343785D01*
X29129436Y-62350316D01*
X29667916Y-63041196D01*
X29668853Y-63042370D01*
X29693948Y-63073042D01*
X29695086Y-63073972D01*
X29700741Y-63081303D01*
X29701874Y-63082729D01*
X29837386Y-63248354D01*
X29856902Y-63264306D01*
X29881087Y-63271409D01*
X29909327Y-63267410D01*
X29969395Y-63244307D01*
X29990658Y-63230769D01*
X30006841Y-63205120D01*
X30022081Y-63159400D01*
X30025148Y-63134381D01*
X30019172Y-63112019D01*
X29968372Y-63005339D01*
X29966934Y-63002506D01*
X29653461Y-62421064D01*
X29395865Y-61804855D01*
X29056115Y-60937732D01*
X28706121Y-59958761D01*
X28356711Y-58915597D01*
X28149215Y-58045125D01*
X28012474Y-57427257D01*
X27885762Y-56697394D01*
X27784513Y-56089905D01*
X27718744Y-55462567D01*
X27657919Y-54737734D01*
X27627514Y-54160048D01*
X27603485Y-53554503D01*
X27764969Y-53924217D01*
X27769080Y-53932080D01*
X28134840Y-54526440D01*
X28141197Y-54535050D01*
X28542517Y-54992250D01*
X28545074Y-54994995D01*
X28971794Y-55426795D01*
X28982059Y-55435209D01*
X29560820Y-55815973D01*
X29875426Y-56029093D01*
X29891450Y-56036923D01*
X30079410Y-56097883D01*
X30104453Y-56100745D01*
X30128638Y-56093639D01*
X30148152Y-56077684D01*
X30159241Y-56057560D01*
X30189721Y-55966120D01*
X30192116Y-55935601D01*
X30171796Y-55813681D01*
X30171046Y-55809893D01*
X30069446Y-55367933D01*
X30068697Y-55364999D01*
X29824957Y-54496675D01*
X29606604Y-53684199D01*
X29606337Y-53683235D01*
X29423567Y-53043540D01*
X29179823Y-52149812D01*
X29179778Y-52149649D01*
X29002556Y-51506586D01*
X28875988Y-50883872D01*
X28875432Y-50881393D01*
X28677943Y-50076245D01*
X28546296Y-49245858D01*
X28470860Y-48747979D01*
X28470860Y-48434807D01*
X28495960Y-48053283D01*
X28544526Y-47718179D01*
X28664024Y-47523442D01*
X28889288Y-47430686D01*
X29122884Y-47454045D01*
X29353367Y-47511666D01*
X29662979Y-47693502D01*
X30039928Y-47964904D01*
X30408353Y-48267720D01*
X30833521Y-48642273D01*
X31237050Y-49020581D01*
X31468759Y-49282513D01*
X31469660Y-49283511D01*
X31591580Y-49415591D01*
X31614062Y-49431237D01*
X31700422Y-49466797D01*
X31725171Y-49471577D01*
X31749831Y-49466352D01*
X31770514Y-49451945D01*
X31783372Y-49432123D01*
X31829092Y-49320363D01*
X31832485Y-49283369D01*
X31756561Y-48918934D01*
X31635616Y-48183186D01*
X31625540Y-47563500D01*
X31625540Y-46854601D01*
X31769273Y-46195411D01*
X32050692Y-45711569D01*
X32156551Y-45591274D01*
X32388262Y-45369423D01*
X32749233Y-45151852D01*
X33149445Y-44981761D01*
X33635003Y-44814851D01*
X33636528Y-44814305D01*
X34154688Y-44621265D01*
X34162625Y-44617670D01*
X34426785Y-44475430D01*
X34439950Y-44465995D01*
X34587270Y-44328835D01*
X34601942Y-44308339D01*
X34607485Y-44283750D01*
X34603024Y-44258941D01*
X34590809Y-44239451D01*
X34536033Y-44179695D01*
X34530559Y-44173069D01*
X34510968Y-44157209D01*
X34486750Y-44150220D01*
X34461720Y-44153204D01*
X34458120Y-44155298D01*
X34232808Y-44084612D01*
X34229509Y-44083674D01*
X33751989Y-43961754D01*
X33751274Y-43961576D01*
X33207714Y-43829496D01*
X33204306Y-43828766D01*
X32711546Y-43737326D01*
X32704105Y-43736395D01*
X32160545Y-43700835D01*
X32153836Y-43700752D01*
X31650916Y-43721072D01*
X31643824Y-43721758D01*
X31181544Y-43792878D01*
X31172711Y-43794891D01*
X30354831Y-44043811D01*
X30345253Y-44047600D01*
X29644213Y-44393040D01*
X29633613Y-44399631D01*
X29130693Y-44785711D01*
X29124637Y-44791002D01*
X28479477Y-45431082D01*
X28471907Y-45440136D01*
X27999467Y-46125936D01*
X27997099Y-46129642D01*
X27585619Y-46825602D01*
X27581489Y-46833924D01*
X27175089Y-47829604D01*
X27172788Y-47836280D01*
X26893408Y-48821731D01*
X26685127Y-49553251D01*
X26683555Y-49560257D01*
X26531155Y-50479737D01*
X26530529Y-50484728D01*
X26454329Y-51378808D01*
X26454129Y-51382286D01*
X26423649Y-52393206D01*
X26423621Y-52394830D01*
X26418541Y-53507350D01*
X25712689Y-53507350D01*
X25692040Y-53032442D01*
X25691872Y-53029828D01*
X25646152Y-52491348D01*
X25646070Y-52490458D01*
X25590267Y-51927350D01*
X25554905Y-51457547D01*
X25544856Y-50764160D01*
X25604876Y-50404039D01*
X25605037Y-50403020D01*
X25665618Y-49999149D01*
X25770909Y-49547899D01*
X25906876Y-49165178D01*
X25909462Y-49155572D01*
X25980449Y-48775287D01*
X26101723Y-48199231D01*
X26299084Y-47521120D01*
X26501414Y-46838257D01*
X26758308Y-46203576D01*
X27162266Y-45410808D01*
X27636847Y-44643402D01*
X28106576Y-44022148D01*
X28510821Y-43537053D01*
X29057739Y-42954687D01*
X29665551Y-42331679D01*
X30245759Y-41806969D01*
X30578111Y-41565259D01*
X31167376Y-41142197D01*
X32024960Y-40748717D01*
X32434605Y-40568873D01*
X32756955Y-40505380D01*
X33214232Y-40505380D01*
X33498599Y-40540302D01*
X33498599Y-40540302D01*
G37*
X33498599Y-40540302D02*
X33855328Y-40599757D01*
X34149600Y-40727275D01*
X34494264Y-40927081D01*
X34830547Y-41167999D01*
X35341879Y-41584083D01*
X35771719Y-42123882D01*
X36062944Y-42617699D01*
X36073822Y-42629790D01*
X36267286Y-42958229D01*
X36267860Y-42959183D01*
X36653940Y-43589103D01*
X36657387Y-43594162D01*
X36875827Y-43883722D01*
X36881619Y-43890381D01*
X37135140Y-44143902D01*
X37372265Y-44391117D01*
X37559106Y-44608257D01*
X37570707Y-44618778D01*
X38170147Y-45040418D01*
X38186600Y-45048721D01*
X38331878Y-45097147D01*
X38635385Y-45286217D01*
X38639249Y-45288441D01*
X38898329Y-45425601D01*
X38906683Y-45429281D01*
X39191163Y-45530881D01*
X39192601Y-45531375D01*
X39761561Y-45719335D01*
X39763233Y-45719862D01*
X40271075Y-45872215D01*
X40585834Y-45968673D01*
X40590665Y-45969948D01*
X40647301Y-45982534D01*
X40608998Y-46056587D01*
X40608999Y-46056587D01*
X40385488Y-46488369D01*
X40385244Y-46488843D01*
X40203182Y-46847910D01*
X39858659Y-47440692D01*
X39857090Y-47443558D01*
X39583218Y-47976087D01*
X39350019Y-48396859D01*
X39346712Y-48403783D01*
X39195125Y-48777697D01*
X38911589Y-49359959D01*
X38910747Y-49361759D01*
X38621187Y-50006919D01*
X38620829Y-50007733D01*
X38443029Y-50419213D01*
X38441275Y-50423739D01*
X38278715Y-50896179D01*
X38278418Y-50897064D01*
X38080358Y-51501402D01*
X37831438Y-52253242D01*
X37831089Y-52254328D01*
X37592329Y-53021408D01*
X37592319Y-53021440D01*
X37429759Y-53544680D01*
X37429593Y-53545224D01*
X37256873Y-54119264D01*
X37255315Y-54125607D01*
X37138566Y-54734732D01*
X37011819Y-55343120D01*
X36859566Y-56002881D01*
X36858765Y-56006957D01*
X36752085Y-56662277D01*
X36751907Y-56663436D01*
X36650474Y-57368398D01*
X36549174Y-57925545D01*
X36366400Y-58844493D01*
X36365624Y-58849388D01*
X36304680Y-59362334D01*
X36228565Y-59991549D01*
X36196725Y-60214432D01*
X36194518Y-60216759D01*
X36185551Y-60241022D01*
X36142363Y-60528940D01*
X36142189Y-60530182D01*
X36091389Y-60921342D01*
X36091142Y-60923540D01*
X36055586Y-61299420D01*
X36025126Y-61619250D01*
X35989589Y-61979699D01*
X35949357Y-62356873D01*
X35934006Y-62425951D01*
X35841327Y-62514217D01*
X35837610Y-62518069D01*
X35598850Y-62787309D01*
X35594688Y-62792531D01*
X35264488Y-63254811D01*
X35262769Y-63257345D01*
X35024009Y-63628185D01*
X35021690Y-63632086D01*
X34698342Y-64223206D01*
X34502361Y-64499590D01*
X34501473Y-64500876D01*
X34125553Y-65059676D01*
X34124845Y-65060751D01*
X33840365Y-65502711D01*
X33839592Y-65503942D01*
X33575432Y-65935742D01*
X33575149Y-65936210D01*
X33072229Y-66774410D01*
X33071143Y-66776293D01*
X32812124Y-67243542D01*
X32588910Y-67644312D01*
X32376562Y-68008338D01*
X32285865Y-68149422D01*
X32282095Y-68156153D01*
X32210975Y-68303473D01*
X32207103Y-68313635D01*
X32176623Y-68420315D01*
X32175542Y-68450842D01*
X32195862Y-68547362D01*
X32205847Y-68570506D01*
X32224050Y-68587942D01*
X32244225Y-68596268D01*
X32289945Y-68606428D01*
X32315147Y-68606903D01*
X32337375Y-68598288D01*
X32459295Y-68522088D01*
X32464101Y-68518767D01*
X32804314Y-68259799D01*
X33505257Y-67731552D01*
X33505579Y-67731308D01*
X34343442Y-67091485D01*
X35110149Y-66522802D01*
X35111390Y-66521858D01*
X35527779Y-66196872D01*
X35703709Y-66061782D01*
X35699703Y-66486441D01*
X35699700Y-66487040D01*
X35699700Y-67263091D01*
X35674344Y-67942632D01*
X35674305Y-67944216D01*
X35669225Y-68355696D01*
X35669353Y-68360587D01*
X35704913Y-68909227D01*
X35705183Y-68912263D01*
X35766143Y-69450743D01*
X35766496Y-69453369D01*
X35898576Y-70301729D01*
X35898706Y-70302531D01*
X36030786Y-71084851D01*
X36031133Y-71086733D01*
X36111405Y-71488092D01*
X36113346Y-71492720D01*
X36178342Y-71817698D01*
X36239204Y-72152439D01*
X36239868Y-72155624D01*
X36320728Y-72499278D01*
X36406773Y-72990242D01*
X36408302Y-72996861D01*
X36494312Y-73295366D01*
X36542640Y-73492397D01*
X36547653Y-73503036D01*
X36590760Y-73665885D01*
X36641490Y-73863732D01*
X36641765Y-73864770D01*
X36712491Y-74122415D01*
X36767985Y-74369617D01*
X36812707Y-74578317D01*
X36813145Y-74582925D01*
X36874614Y-74867220D01*
X36875076Y-74869201D01*
X36981756Y-75295921D01*
X36981798Y-75296087D01*
X37093516Y-75737881D01*
X37205276Y-76184921D01*
X37205979Y-76187500D01*
X37363378Y-76720624D01*
X37500538Y-77193064D01*
X37500947Y-77194417D01*
X37643187Y-77646537D01*
X37644129Y-77649306D01*
X37928609Y-78426546D01*
X37928994Y-78427572D01*
X38065744Y-78782109D01*
X38222842Y-79238200D01*
X38223155Y-79239087D01*
X38355235Y-79604847D01*
X38355407Y-79605319D01*
X38594167Y-80250479D01*
X38596125Y-80255181D01*
X38727431Y-80537995D01*
X38784564Y-80682331D01*
X38786976Y-80687686D01*
X38962345Y-81033413D01*
X39220951Y-81591190D01*
X39222544Y-81594387D01*
X39542267Y-82193233D01*
X39839140Y-82777983D01*
X39850340Y-82792132D01*
X40548123Y-84012033D01*
X40133490Y-84526750D01*
X39844000Y-84882264D01*
X39841568Y-84885451D01*
X39767249Y-84989497D01*
X39756960Y-85012508D01*
X39757016Y-85017051D01*
X39363932Y-85463517D01*
X38659459Y-86193330D01*
X38158360Y-86684306D01*
X37266197Y-87470018D01*
X36594674Y-88030462D01*
X36124631Y-88320488D01*
X35616441Y-88546910D01*
X35224070Y-88705845D01*
X34845098Y-88750140D01*
X34428912Y-88750140D01*
X34170402Y-88649608D01*
X33969815Y-88532192D01*
X33765886Y-88376818D01*
X33601327Y-88168698D01*
X33504183Y-87993838D01*
X33419599Y-87782380D01*
X33438959Y-87491984D01*
X33439073Y-87485893D01*
X33428913Y-87140453D01*
X33427662Y-87129645D01*
X33372277Y-86857755D01*
X33311735Y-86368371D01*
X33266103Y-85881633D01*
X33265645Y-85877929D01*
X33118510Y-84919013D01*
X33006887Y-83944851D01*
X33006867Y-83944678D01*
X32879867Y-82862638D01*
X32879677Y-82861169D01*
X32730184Y-81801523D01*
X33647944Y-81801523D01*
X33657465Y-81827418D01*
X33703185Y-81898538D01*
X33708181Y-81905283D01*
X33850421Y-82072923D01*
X33853939Y-82076741D01*
X34011419Y-82234221D01*
X34013411Y-82236129D01*
X34318211Y-82515529D01*
X34323515Y-82519887D01*
X34745155Y-82829767D01*
X34751255Y-82833733D01*
X35391335Y-83199493D01*
X35395309Y-83201581D01*
X35933789Y-83460661D01*
X35940244Y-83463340D01*
X36762392Y-83752614D01*
X37111524Y-83886023D01*
X37136387Y-83890168D01*
X37138571Y-83889646D01*
X37516493Y-84012471D01*
X37517446Y-84012772D01*
X38111806Y-84195652D01*
X38113533Y-84196157D01*
X38443733Y-84287597D01*
X38444046Y-84287683D01*
X38799646Y-84384203D01*
X38800508Y-84384430D01*
X39196748Y-84486030D01*
X39200992Y-84486965D01*
X39509324Y-84543888D01*
X39517330Y-84544845D01*
X39589998Y-84548882D01*
X39593520Y-84548980D01*
X39700200Y-84548980D01*
X39724905Y-84543977D01*
X39745717Y-84529757D01*
X39759467Y-84508275D01*
X39784867Y-84442235D01*
X39789067Y-84417381D01*
X39785057Y-84397144D01*
X39769817Y-84356504D01*
X39768726Y-84353786D01*
X39250566Y-83144746D01*
X39234015Y-83121971D01*
X39195766Y-83088503D01*
X39173879Y-83076000D01*
X39148852Y-83072997D01*
X39130370Y-83077333D01*
X39124625Y-83079631D01*
X38944578Y-83139646D01*
X38727127Y-83203893D01*
X38444814Y-83238563D01*
X38182703Y-83253685D01*
X38181836Y-83253741D01*
X37902974Y-83273660D01*
X37574170Y-83238787D01*
X37312024Y-83203498D01*
X36898125Y-83132832D01*
X36582463Y-83062685D01*
X36318040Y-82977870D01*
X35923813Y-82821190D01*
X35923424Y-82821037D01*
X35625853Y-82705035D01*
X35211354Y-82507895D01*
X35211195Y-82507820D01*
X34847323Y-82335992D01*
X34576752Y-82185675D01*
X34289014Y-81998897D01*
X34288605Y-81998634D01*
X34052084Y-81847663D01*
X33861164Y-81701961D01*
X33853047Y-81696694D01*
X33797167Y-81666214D01*
X33773083Y-81658776D01*
X33744464Y-81662503D01*
X33703824Y-81677743D01*
X33682448Y-81691102D01*
X33664857Y-81720492D01*
X33649617Y-81776372D01*
X33647944Y-81801523D01*
X32730184Y-81801523D01*
X32706992Y-81637138D01*
X32559685Y-80550113D01*
X32559461Y-80548598D01*
X32351292Y-79248813D01*
X32226070Y-78339939D01*
X32223280Y-78331970D01*
X32192947Y-78106995D01*
X32192887Y-78106821D01*
X32192904Y-78106675D01*
X32170760Y-77942440D01*
X32900620Y-77942440D01*
X32900620Y-78008480D01*
X32904144Y-78029341D01*
X32944784Y-78146181D01*
X32944825Y-78146297D01*
X32956678Y-78180164D01*
X32959817Y-78187585D01*
X32998764Y-78265478D01*
X33001377Y-78270192D01*
X33112983Y-78452820D01*
X33219549Y-78630430D01*
X33229099Y-78642661D01*
X33315459Y-78729021D01*
X33316540Y-78730077D01*
X33534914Y-78938294D01*
X33671914Y-79070220D01*
X33680737Y-79077315D01*
X34000777Y-79290675D01*
X34001076Y-79290873D01*
X34209356Y-79428033D01*
X34215882Y-79431796D01*
X34549291Y-79598500D01*
X34755761Y-79719361D01*
X34767760Y-79724801D01*
X34918698Y-79775114D01*
X35165549Y-79870831D01*
X35459521Y-79992475D01*
X35460843Y-79993005D01*
X35709763Y-80089525D01*
X35717615Y-80091997D01*
X35965516Y-80152708D01*
X36345518Y-80259108D01*
X36348096Y-80259772D01*
X36865979Y-80381627D01*
X37321606Y-80493002D01*
X37477776Y-80538342D01*
X37487481Y-80540354D01*
X37807321Y-80580969D01*
X37831601Y-80584214D01*
X37842897Y-80584708D01*
X37914684Y-80581445D01*
X38036604Y-80576365D01*
X38069183Y-80565755D01*
X38099663Y-80545435D01*
X38117444Y-80527569D01*
X38123897Y-80514896D01*
X38139137Y-80474256D01*
X38141668Y-80438185D01*
X38131508Y-80392465D01*
X38126715Y-80378654D01*
X37156435Y-78366974D01*
X37147453Y-78353235D01*
X37116973Y-78317675D01*
X37097096Y-78302173D01*
X37072755Y-78295626D01*
X37052052Y-78297737D01*
X36996172Y-78312977D01*
X36990584Y-78314783D01*
X36949944Y-78330023D01*
X36928568Y-78343382D01*
X36916211Y-78359598D01*
X36836204Y-78509610D01*
X36661711Y-78778829D01*
X36513848Y-78961193D01*
X36364073Y-79106136D01*
X36131176Y-79249839D01*
X36128748Y-79251415D01*
X36028618Y-79319685D01*
X35763105Y-79363133D01*
X35762921Y-79363164D01*
X35611962Y-79388324D01*
X35494289Y-79402445D01*
X35385758Y-79388288D01*
X35146894Y-79353454D01*
X34983011Y-79305253D01*
X34706534Y-79176889D01*
X34421658Y-78996967D01*
X34103726Y-78774919D01*
X33802870Y-78549278D01*
X33551656Y-78308112D01*
X33551281Y-78307755D01*
X33460895Y-78222390D01*
X33314576Y-78071026D01*
X33313125Y-78069573D01*
X33145485Y-77907013D01*
X33131385Y-77896690D01*
X33065345Y-77861130D01*
X33043116Y-77854030D01*
X33002476Y-77848950D01*
X32977341Y-77850850D01*
X32949699Y-77867059D01*
X32919219Y-77897539D01*
X32905287Y-77918545D01*
X32900620Y-77942440D01*
X32170760Y-77942440D01*
X32102491Y-77436115D01*
X32036584Y-76924068D01*
X31991052Y-76504162D01*
X31965734Y-76154771D01*
X31965556Y-76152762D01*
X31929996Y-75812402D01*
X31929807Y-75810787D01*
X31884087Y-75460267D01*
X31883258Y-75455398D01*
X31862938Y-75358878D01*
X31862925Y-75358818D01*
X31807045Y-75094658D01*
X31806971Y-75094311D01*
X31756171Y-74860631D01*
X31756024Y-74859971D01*
X31715384Y-74682171D01*
X31714010Y-74677128D01*
X31648100Y-74469258D01*
X31561956Y-74185491D01*
X31496045Y-73957336D01*
X31495830Y-73956608D01*
X31414550Y-73687368D01*
X31412965Y-73682763D01*
X31316525Y-73434050D01*
X31230282Y-73205759D01*
X31227840Y-73200133D01*
X31123883Y-72989161D01*
X31799124Y-72989161D01*
X31799493Y-73012053D01*
X31804573Y-73037453D01*
X31804823Y-73037403D01*
X31808343Y-73054785D01*
X31809206Y-73056048D01*
X31809453Y-73057263D01*
X31900893Y-73250303D01*
X31909134Y-73263331D01*
X32043367Y-73427394D01*
X32178149Y-73652030D01*
X32184084Y-73660329D01*
X32377124Y-73888929D01*
X32381094Y-73893213D01*
X32705260Y-74212313D01*
X32993923Y-74521234D01*
X32996290Y-74523636D01*
X33265530Y-74782716D01*
X33270987Y-74787402D01*
X33526722Y-74982964D01*
X33767579Y-75223821D01*
X33781551Y-75234379D01*
X34044637Y-75381100D01*
X34526151Y-75675077D01*
X34534598Y-75679404D01*
X34824158Y-75801324D01*
X34826504Y-75802257D01*
X35070106Y-75893608D01*
X35374711Y-76010373D01*
X35379193Y-76011902D01*
X35734793Y-76118582D01*
X35739582Y-76119817D01*
X36161222Y-76211257D01*
X36165981Y-76212101D01*
X36643501Y-76278141D01*
X36652200Y-76278740D01*
X36814760Y-76278740D01*
X36839465Y-76273737D01*
X36859661Y-76260141D01*
X36895221Y-76224581D01*
X36910561Y-76199760D01*
X36920721Y-76169280D01*
X36922468Y-76135425D01*
X36912308Y-76089705D01*
X36908626Y-76078328D01*
X36797058Y-75819692D01*
X36624498Y-75403519D01*
X36624105Y-75402592D01*
X36359945Y-74792992D01*
X36346581Y-74773339D01*
X36326261Y-74753019D01*
X36293813Y-74735653D01*
X36268413Y-74730573D01*
X36238515Y-74731783D01*
X36202955Y-74741943D01*
X36200320Y-74742759D01*
X36199459Y-74743046D01*
X36189643Y-74743206D01*
X36166585Y-74753390D01*
X36154946Y-74764021D01*
X36014295Y-74928921D01*
X36008529Y-74932920D01*
X35989905Y-74954027D01*
X35989137Y-74954914D01*
X35902950Y-75056310D01*
X35845170Y-75122980D01*
X35678558Y-75208666D01*
X35548339Y-75273775D01*
X35389552Y-75283116D01*
X35226475Y-75288058D01*
X35061628Y-75273928D01*
X34826451Y-75180837D01*
X34825945Y-75180639D01*
X34537709Y-75069390D01*
X34335648Y-74980680D01*
X33999837Y-74760148D01*
X33834529Y-74649942D01*
X33553137Y-74428849D01*
X33259582Y-74175784D01*
X33258883Y-74175191D01*
X33042593Y-73994111D01*
X32619043Y-73570561D01*
X32528719Y-73470201D01*
X32527651Y-73469043D01*
X32350428Y-73281692D01*
X32230043Y-73147417D01*
X32221398Y-73140790D01*
X32214818Y-73129443D01*
X32099931Y-72981047D01*
X32089931Y-72970774D01*
X32034051Y-72925054D01*
X32025345Y-72919067D01*
X31989785Y-72898747D01*
X31981863Y-72894922D01*
X31956463Y-72884762D01*
X31931667Y-72880232D01*
X31915435Y-72882663D01*
X31879875Y-72892823D01*
X31868922Y-72897084D01*
X31838442Y-72912324D01*
X31818582Y-72927847D01*
X31804204Y-72958681D01*
X31799124Y-72989161D01*
X31123883Y-72989161D01*
X31055632Y-72850652D01*
X30990064Y-72704385D01*
X30988916Y-72701962D01*
X30846676Y-72417482D01*
X30845072Y-72414478D01*
X30677432Y-72119838D01*
X30675855Y-72117215D01*
X30608913Y-72011731D01*
X30591451Y-71993553D01*
X30571645Y-71985040D01*
X30468761Y-71809281D01*
X30463440Y-71801561D01*
X30087520Y-71334201D01*
X30083411Y-71329574D01*
X29605891Y-70841894D01*
X29596795Y-70834201D01*
X28962538Y-70392758D01*
X28633042Y-70149438D01*
X28630871Y-70147905D01*
X28442911Y-70020905D01*
X28436656Y-70017182D01*
X27928656Y-69753022D01*
X27922011Y-69750037D01*
X27365894Y-69537701D01*
X26899067Y-69309254D01*
X26570475Y-69010534D01*
X26570333Y-69010406D01*
X26153594Y-68633835D01*
X25710435Y-68024491D01*
X25405921Y-67605160D01*
X25261664Y-67202236D01*
X25260571Y-67199398D01*
X25068559Y-66734527D01*
X24972857Y-66432310D01*
X24972472Y-66431134D01*
X24856944Y-66089574D01*
X24777237Y-65691039D01*
X24747150Y-65284861D01*
X24737129Y-64949145D01*
X24767033Y-64535467D01*
X24841306Y-64205367D01*
X24841848Y-64180166D01*
X24837382Y-64165638D01*
X24818216Y-64122514D01*
X25002443Y-63618313D01*
X25003662Y-63614634D01*
X25127256Y-63199358D01*
X25297724Y-62980185D01*
X25301448Y-62974855D01*
X25504648Y-62649735D01*
X25505632Y-62648106D01*
X25840629Y-62074550D01*
X26084188Y-61673693D01*
X26088878Y-61664303D01*
X26210798Y-61359503D01*
X26213444Y-61351321D01*
X26360764Y-60762041D01*
X26361272Y-60759845D01*
X26498432Y-60114685D01*
X26498990Y-60111712D01*
X26580270Y-59613872D01*
X26581100Y-59603640D01*
X26581100Y-59237880D01*
X26581063Y-59235716D01*
X26565823Y-58788676D01*
X26565245Y-58782024D01*
X26489045Y-58238464D01*
X26488796Y-58236841D01*
X26377087Y-57566588D01*
X26285696Y-56982700D01*
X26284513Y-56976915D01*
X26193517Y-56617986D01*
X26102944Y-56150025D01*
X26062591Y-55766673D01*
X26061459Y-55759685D01*
X25904584Y-55046156D01*
X25828744Y-54454605D01*
X25828396Y-54452241D01*
X25727432Y-53846457D01*
X25712689Y-53507350D01*
X26418541Y-53507350D01*
X26418617Y-53510764D01*
X26469417Y-54542004D01*
X26469818Y-54546657D01*
X26617138Y-55740457D01*
X26618158Y-55746390D01*
X26958518Y-57285630D01*
X26959005Y-57287674D01*
X27172365Y-58120794D01*
X27173118Y-58123486D01*
X27432198Y-58976926D01*
X27433921Y-58981862D01*
X27840321Y-60008022D01*
X27841887Y-60011641D01*
X28197487Y-60768561D01*
X28200098Y-60773535D01*
X28682698Y-61601575D01*
X28683011Y-61602105D01*
X29124971Y-62343785D01*
X29129436Y-62350316D01*
X29667916Y-63041196D01*
X29668853Y-63042370D01*
X29693948Y-63073042D01*
X29695086Y-63073972D01*
X29700741Y-63081303D01*
X29701874Y-63082729D01*
X29837386Y-63248354D01*
X29856902Y-63264306D01*
X29881087Y-63271409D01*
X29909327Y-63267410D01*
X29969395Y-63244307D01*
X29990658Y-63230769D01*
X30006841Y-63205120D01*
X30022081Y-63159400D01*
X30025148Y-63134381D01*
X30019172Y-63112019D01*
X29968372Y-63005339D01*
X29966934Y-63002506D01*
X29653461Y-62421064D01*
X29395865Y-61804855D01*
X29056115Y-60937732D01*
X28706121Y-59958761D01*
X28356711Y-58915597D01*
X28149215Y-58045125D01*
X28012474Y-57427257D01*
X27885762Y-56697394D01*
X27784513Y-56089905D01*
X27718744Y-55462567D01*
X27657919Y-54737734D01*
X27627514Y-54160048D01*
X27603485Y-53554503D01*
X27764969Y-53924217D01*
X27769080Y-53932080D01*
X28134840Y-54526440D01*
X28141197Y-54535050D01*
X28542517Y-54992250D01*
X28545074Y-54994995D01*
X28971794Y-55426795D01*
X28982059Y-55435209D01*
X29560820Y-55815973D01*
X29875426Y-56029093D01*
X29891450Y-56036923D01*
X30079410Y-56097883D01*
X30104453Y-56100745D01*
X30128638Y-56093639D01*
X30148152Y-56077684D01*
X30159241Y-56057560D01*
X30189721Y-55966120D01*
X30192116Y-55935601D01*
X30171796Y-55813681D01*
X30171046Y-55809893D01*
X30069446Y-55367933D01*
X30068697Y-55364999D01*
X29824957Y-54496675D01*
X29606604Y-53684199D01*
X29606337Y-53683235D01*
X29423567Y-53043540D01*
X29179823Y-52149812D01*
X29179778Y-52149649D01*
X29002556Y-51506586D01*
X28875988Y-50883872D01*
X28875432Y-50881393D01*
X28677943Y-50076245D01*
X28546296Y-49245858D01*
X28470860Y-48747979D01*
X28470860Y-48434807D01*
X28495960Y-48053283D01*
X28544526Y-47718179D01*
X28664024Y-47523442D01*
X28889288Y-47430686D01*
X29122884Y-47454045D01*
X29353367Y-47511666D01*
X29662979Y-47693502D01*
X30039928Y-47964904D01*
X30408353Y-48267720D01*
X30833521Y-48642273D01*
X31237050Y-49020581D01*
X31468759Y-49282513D01*
X31469660Y-49283511D01*
X31591580Y-49415591D01*
X31614062Y-49431237D01*
X31700422Y-49466797D01*
X31725171Y-49471577D01*
X31749831Y-49466352D01*
X31770514Y-49451945D01*
X31783372Y-49432123D01*
X31829092Y-49320363D01*
X31832485Y-49283369D01*
X31756561Y-48918934D01*
X31635616Y-48183186D01*
X31625540Y-47563500D01*
X31625540Y-46854601D01*
X31769273Y-46195411D01*
X32050692Y-45711569D01*
X32156551Y-45591274D01*
X32388262Y-45369423D01*
X32749233Y-45151852D01*
X33149445Y-44981761D01*
X33635003Y-44814851D01*
X33636528Y-44814305D01*
X34154688Y-44621265D01*
X34162625Y-44617670D01*
X34426785Y-44475430D01*
X34439950Y-44465995D01*
X34587270Y-44328835D01*
X34601942Y-44308339D01*
X34607485Y-44283750D01*
X34603024Y-44258941D01*
X34590809Y-44239451D01*
X34536033Y-44179695D01*
X34530559Y-44173069D01*
X34510968Y-44157209D01*
X34486750Y-44150220D01*
X34461720Y-44153204D01*
X34458120Y-44155298D01*
X34232808Y-44084612D01*
X34229509Y-44083674D01*
X33751989Y-43961754D01*
X33751274Y-43961576D01*
X33207714Y-43829496D01*
X33204306Y-43828766D01*
X32711546Y-43737326D01*
X32704105Y-43736395D01*
X32160545Y-43700835D01*
X32153836Y-43700752D01*
X31650916Y-43721072D01*
X31643824Y-43721758D01*
X31181544Y-43792878D01*
X31172711Y-43794891D01*
X30354831Y-44043811D01*
X30345253Y-44047600D01*
X29644213Y-44393040D01*
X29633613Y-44399631D01*
X29130693Y-44785711D01*
X29124637Y-44791002D01*
X28479477Y-45431082D01*
X28471907Y-45440136D01*
X27999467Y-46125936D01*
X27997099Y-46129642D01*
X27585619Y-46825602D01*
X27581489Y-46833924D01*
X27175089Y-47829604D01*
X27172788Y-47836280D01*
X26893408Y-48821731D01*
X26685127Y-49553251D01*
X26683555Y-49560257D01*
X26531155Y-50479737D01*
X26530529Y-50484728D01*
X26454329Y-51378808D01*
X26454129Y-51382286D01*
X26423649Y-52393206D01*
X26423621Y-52394830D01*
X26418541Y-53507350D01*
X25712689Y-53507350D01*
X25692040Y-53032442D01*
X25691872Y-53029828D01*
X25646152Y-52491348D01*
X25646070Y-52490458D01*
X25590267Y-51927350D01*
X25554905Y-51457547D01*
X25544856Y-50764160D01*
X25604876Y-50404039D01*
X25605037Y-50403020D01*
X25665618Y-49999149D01*
X25770909Y-49547899D01*
X25906876Y-49165178D01*
X25909462Y-49155572D01*
X25980449Y-48775287D01*
X26101723Y-48199231D01*
X26299084Y-47521120D01*
X26501414Y-46838257D01*
X26758308Y-46203576D01*
X27162266Y-45410808D01*
X27636847Y-44643402D01*
X28106576Y-44022148D01*
X28510821Y-43537053D01*
X29057739Y-42954687D01*
X29665551Y-42331679D01*
X30245759Y-41806969D01*
X30578111Y-41565259D01*
X31167376Y-41142197D01*
X32024960Y-40748717D01*
X32434605Y-40568873D01*
X32756955Y-40505380D01*
X33214232Y-40505380D01*
X33498599Y-40540302D01*
G36*
X136734386Y-39988699D02*
X137124019Y-40240234D01*
X137514593Y-40525654D01*
X137810683Y-40826762D01*
X137815681Y-40831330D01*
X138013801Y-40993890D01*
X138018690Y-40997524D01*
X138388227Y-41245569D01*
X138685815Y-41467500D01*
X138988797Y-41709885D01*
X139289936Y-41970872D01*
X139521188Y-42222233D01*
X139524127Y-42225223D01*
X139844167Y-42530023D01*
X140065546Y-42741563D01*
X140152254Y-42900527D01*
X140153181Y-42902168D01*
X140345965Y-43231929D01*
X140501130Y-43507223D01*
X140601162Y-43757303D01*
X140604347Y-43764078D01*
X140822305Y-44164512D01*
X141119539Y-44753942D01*
X141315911Y-45338025D01*
X141543975Y-46088101D01*
X141650361Y-46478182D01*
X141822078Y-47129699D01*
X141907797Y-47719647D01*
X141988981Y-48404634D01*
X141989066Y-48405315D01*
X142079950Y-49107139D01*
X142074962Y-49775514D01*
X141960169Y-50209730D01*
X141958067Y-50225012D01*
X141942828Y-51246048D01*
X141937841Y-51565191D01*
X141801887Y-52224822D01*
X141800868Y-52231601D01*
X141724671Y-53029132D01*
X141664025Y-53660857D01*
X141547834Y-54236762D01*
X141547378Y-54239288D01*
X141466740Y-54743273D01*
X141274848Y-55394697D01*
X141274641Y-55395415D01*
X141117161Y-55954215D01*
X141117152Y-55954248D01*
X140980683Y-56439472D01*
X140844892Y-56806611D01*
X140724810Y-57091806D01*
X140533377Y-57439407D01*
X140531457Y-57443187D01*
X140424777Y-57671787D01*
X140420332Y-57684865D01*
X140359398Y-57959068D01*
X140295344Y-58239921D01*
X140167405Y-58476116D01*
X140161721Y-58490623D01*
X140049961Y-58927503D01*
X140048361Y-58936291D01*
X139987401Y-59490011D01*
X139987577Y-59505352D01*
X140038377Y-59886352D01*
X140038523Y-59887380D01*
X140084243Y-60192180D01*
X140087700Y-60205366D01*
X140250260Y-60632086D01*
X140260918Y-60650251D01*
X140601278Y-61056651D01*
X140603893Y-61059585D01*
X140978542Y-61454485D01*
X141250041Y-61776262D01*
X141539513Y-62180525D01*
X141760431Y-62672569D01*
X141761708Y-62675245D01*
X141964908Y-63076565D01*
X141965172Y-63077081D01*
X142110347Y-63357419D01*
X142386168Y-64159808D01*
X142471140Y-64799596D01*
X142471140Y-65262857D01*
X142411339Y-65641599D01*
X142310515Y-66065058D01*
X142215384Y-66420549D01*
X142056038Y-66794016D01*
X141877206Y-67106972D01*
X141653171Y-67395728D01*
X141428389Y-67635495D01*
X141172019Y-67867214D01*
X140691289Y-68122602D01*
X140690785Y-68122873D01*
X140512985Y-68219393D01*
X140495067Y-68233875D01*
X140415653Y-68326525D01*
X139899928Y-68483698D01*
X139898608Y-68484116D01*
X139527768Y-68606036D01*
X139512020Y-68613764D01*
X139166580Y-68847444D01*
X139160345Y-68852251D01*
X138794585Y-69172291D01*
X138786302Y-69181061D01*
X138374822Y-69709381D01*
X138374204Y-69710189D01*
X138301423Y-69806789D01*
X138294016Y-69819426D01*
X138246487Y-69927446D01*
X138126629Y-70127210D01*
X138124484Y-70131085D01*
X137977164Y-70420645D01*
X137974255Y-70427272D01*
X137878573Y-70684103D01*
X137788145Y-70880030D01*
X137787516Y-70881436D01*
X137707977Y-71065369D01*
X137552778Y-71320697D01*
X137552651Y-71320907D01*
X137313891Y-71717147D01*
X137313185Y-71718349D01*
X137054105Y-72170469D01*
X137053939Y-72170760D01*
X136914481Y-72417136D01*
X136914144Y-72417277D01*
X136895599Y-72436721D01*
X136882297Y-72458488D01*
X136880506Y-72461614D01*
X136728106Y-72746094D01*
X136726671Y-72748941D01*
X136594591Y-73028341D01*
X136593180Y-73031553D01*
X136471260Y-73331273D01*
X136469206Y-73337128D01*
X136372982Y-73661251D01*
X136256479Y-74010760D01*
X136254988Y-74015958D01*
X136117828Y-74584918D01*
X136117470Y-74586495D01*
X136026030Y-75013215D01*
X136025730Y-75014699D01*
X135934631Y-75495498D01*
X135828396Y-75920439D01*
X135827250Y-75926111D01*
X135725779Y-76580596D01*
X135697065Y-76738526D01*
X135693199Y-76750212D01*
X135578724Y-77538813D01*
X135406909Y-78210915D01*
X135178398Y-79069101D01*
X135178105Y-79070245D01*
X134913945Y-80142125D01*
X134912726Y-80148423D01*
X134836526Y-80686903D01*
X134836288Y-80688788D01*
X134709288Y-81831788D01*
X134708965Y-81835917D01*
X134683626Y-82393373D01*
X134617987Y-83135603D01*
X134516982Y-83665878D01*
X134516328Y-83670061D01*
X134435626Y-84330812D01*
X134299746Y-84818972D01*
X134298229Y-84825898D01*
X134125626Y-85897054D01*
X133988937Y-86636186D01*
X133833016Y-87269928D01*
X133653056Y-87709830D01*
X133392623Y-88205655D01*
X133000103Y-88732327D01*
X132688292Y-88957791D01*
X132262580Y-89054543D01*
X131916236Y-89035302D01*
X131451414Y-88847396D01*
X130951288Y-88584703D01*
X130945617Y-88582072D01*
X130386227Y-88355292D01*
X129889325Y-88059159D01*
X129562881Y-87833159D01*
X129188832Y-87529876D01*
X129182800Y-87525544D01*
X128783255Y-87272668D01*
X128411060Y-87001066D01*
X127945608Y-86601384D01*
X127943978Y-86600031D01*
X127510950Y-86252602D01*
X127250112Y-85966683D01*
X127244889Y-85961582D01*
X126973829Y-85725660D01*
X126727749Y-85444425D01*
X126725827Y-85442325D01*
X126499734Y-85206183D01*
X126298187Y-84940731D01*
X126189642Y-84694039D01*
X126111844Y-84509268D01*
X126077445Y-84253731D01*
X126057850Y-84101869D01*
X126064344Y-83962240D01*
X126387860Y-83962240D01*
X126387860Y-83982560D01*
X126391119Y-84002640D01*
X126411439Y-84063600D01*
X126423997Y-84085456D01*
X126441078Y-84099160D01*
X126542678Y-84155040D01*
X126560415Y-84161583D01*
X126707735Y-84192063D01*
X126718617Y-84193349D01*
X127368857Y-84213669D01*
X127371392Y-84213698D01*
X127955592Y-84208618D01*
X127960228Y-84208408D01*
X128579988Y-84157608D01*
X128581246Y-84157492D01*
X129576926Y-84055892D01*
X129581643Y-84055231D01*
X130008363Y-83979031D01*
X130014571Y-83977598D01*
X130568291Y-83820118D01*
X130571538Y-83819100D01*
X131252258Y-83585420D01*
X131255510Y-83584203D01*
X131793990Y-83365763D01*
X131794116Y-83365711D01*
X132291956Y-83162511D01*
X132302986Y-83156686D01*
X132617774Y-82948520D01*
X132967795Y-82720245D01*
X133318102Y-82496861D01*
X133328067Y-82489002D01*
X133475387Y-82346762D01*
X133481790Y-82339564D01*
X133558723Y-82238590D01*
X133583692Y-82217782D01*
X133599468Y-82198123D01*
X133606353Y-82173875D01*
X133605902Y-82160020D01*
X133600822Y-82124460D01*
X133592375Y-82100711D01*
X133575355Y-82082119D01*
X133558040Y-82073199D01*
X133542800Y-82068119D01*
X133510838Y-82065982D01*
X133404158Y-82086302D01*
X133390588Y-82090504D01*
X133065468Y-82232744D01*
X133065130Y-82232893D01*
X132745090Y-82375133D01*
X132742163Y-82376524D01*
X132385390Y-82557423D01*
X131754544Y-82774434D01*
X131753114Y-82774945D01*
X131440750Y-82890822D01*
X130981485Y-83016994D01*
X130483836Y-83149023D01*
X130480598Y-83149975D01*
X130158027Y-83254190D01*
X129591237Y-83288993D01*
X129124441Y-83253858D01*
X128656592Y-83199110D01*
X128440881Y-83112825D01*
X128185121Y-82955434D01*
X127958683Y-82768377D01*
X127771609Y-82556688D01*
X127603536Y-82309521D01*
X127513996Y-82130442D01*
X127498473Y-82110582D01*
X127476446Y-82098327D01*
X127457200Y-82095340D01*
X127352587Y-82095340D01*
X127333603Y-82084777D01*
X127308544Y-82082057D01*
X127284401Y-82089300D01*
X127264978Y-82105366D01*
X127257100Y-82117833D01*
X126429663Y-83843343D01*
X126427738Y-83847785D01*
X126392178Y-83939225D01*
X126387860Y-83962240D01*
X126064344Y-83962240D01*
X126067536Y-83893619D01*
X126070579Y-83877966D01*
X126070383Y-83852760D01*
X126062740Y-83835049D01*
X126062740Y-83775674D01*
X126100305Y-83708892D01*
X126101298Y-83707056D01*
X126233378Y-83453056D01*
X126234729Y-83450297D01*
X126468409Y-82942297D01*
X126468843Y-82941334D01*
X126580603Y-82687334D01*
X126763156Y-82276589D01*
X126935643Y-81906250D01*
X126937612Y-81901534D01*
X127109391Y-81438685D01*
X127113267Y-81436037D01*
X127126587Y-81415643D01*
X127127560Y-81413246D01*
X127127845Y-81411729D01*
X127128532Y-81410854D01*
X127287437Y-81019404D01*
X127288325Y-81017087D01*
X127552485Y-80285567D01*
X127555010Y-80276536D01*
X127701871Y-79547295D01*
X127873005Y-78933227D01*
X128021205Y-78567264D01*
X128023545Y-78554760D01*
X128057739Y-78472692D01*
X128653928Y-78472692D01*
X128659008Y-78518412D01*
X128666709Y-78542414D01*
X128677219Y-78556301D01*
X128697539Y-78576621D01*
X128703455Y-78581844D01*
X128749175Y-78617404D01*
X128768080Y-78627521D01*
X128920480Y-78678321D01*
X128930823Y-78680829D01*
X129225463Y-78726549D01*
X129228188Y-78726912D01*
X129548228Y-78762472D01*
X129553287Y-78762830D01*
X129883487Y-78772990D01*
X129888837Y-78772929D01*
X130172662Y-78757724D01*
X130639350Y-78742506D01*
X130645784Y-78741968D01*
X131021221Y-78691233D01*
X131610089Y-78620163D01*
X131614182Y-78619532D01*
X131939302Y-78558572D01*
X131948270Y-78556202D01*
X132236779Y-78456879D01*
X132237935Y-78456468D01*
X132452346Y-78377991D01*
X132452425Y-78377962D01*
X133046785Y-78159522D01*
X133052328Y-78157181D01*
X133667008Y-77862541D01*
X133672068Y-77859828D01*
X134174988Y-77560108D01*
X134178591Y-77557792D01*
X134590071Y-77273312D01*
X134592677Y-77271412D01*
X134840299Y-77080933D01*
X134853277Y-77065994D01*
X134908588Y-77021745D01*
X134924754Y-77002405D01*
X134932420Y-76972160D01*
X134932420Y-76916280D01*
X134927417Y-76891575D01*
X134913821Y-76871379D01*
X134883341Y-76840899D01*
X134862335Y-76826967D01*
X134838440Y-76822300D01*
X134762240Y-76822300D01*
X134731565Y-76830201D01*
X134585706Y-76910675D01*
X134064806Y-77163539D01*
X133670254Y-77340581D01*
X133342372Y-77476779D01*
X132703803Y-77704839D01*
X132703300Y-77705021D01*
X132401982Y-77815504D01*
X132173708Y-77870091D01*
X131805554Y-77935653D01*
X131435538Y-77991409D01*
X131431013Y-77992259D01*
X131125052Y-78061347D01*
X130981864Y-78051801D01*
X130980892Y-78051743D01*
X130783300Y-78041610D01*
X130492183Y-78021873D01*
X130274673Y-77949370D01*
X129928599Y-77788872D01*
X129773288Y-77708863D01*
X129697458Y-77619652D01*
X129559948Y-77413387D01*
X129456156Y-77190974D01*
X129411174Y-77076021D01*
X129397512Y-77054837D01*
X129372120Y-77038919D01*
X129311160Y-77018599D01*
X129286141Y-77015532D01*
X129255857Y-77026005D01*
X129210137Y-77056485D01*
X129195236Y-77070335D01*
X129159676Y-77116055D01*
X129149962Y-77133786D01*
X128822034Y-78057029D01*
X128792328Y-78105016D01*
X128787262Y-78115108D01*
X128657982Y-78442348D01*
X128653928Y-78472692D01*
X128057739Y-78472692D01*
X128120335Y-78322463D01*
X128120422Y-78322255D01*
X128232984Y-78049378D01*
X128233383Y-78047320D01*
X128234559Y-78045557D01*
X128237261Y-78039007D01*
X128240101Y-78024675D01*
X128711220Y-76616385D01*
X128711783Y-76614616D01*
X129108023Y-75303976D01*
X129108784Y-75301241D01*
X129342139Y-74383039D01*
X129534148Y-73741325D01*
X129552094Y-73693930D01*
X129552602Y-73690141D01*
X129979420Y-73690141D01*
X129979420Y-73802240D01*
X129982913Y-73823012D01*
X130028633Y-73955092D01*
X130035805Y-73969543D01*
X130086605Y-74045743D01*
X130107244Y-74065253D01*
X130192074Y-74115153D01*
X130205817Y-74124315D01*
X130212642Y-74128276D01*
X130252548Y-74148229D01*
X130404198Y-74229109D01*
X130417718Y-74234436D01*
X130569329Y-74274866D01*
X130827642Y-74350840D01*
X130832835Y-74352132D01*
X131056355Y-74397852D01*
X131071388Y-74399098D01*
X131350788Y-74388938D01*
X131358320Y-74388213D01*
X131617400Y-74347573D01*
X131623245Y-74346372D01*
X131881748Y-74280479D01*
X132353698Y-74168835D01*
X132356830Y-74168009D01*
X132758150Y-74051169D01*
X132763357Y-74049405D01*
X133261197Y-73856365D01*
X133264156Y-73855131D01*
X133695605Y-73662248D01*
X134177802Y-73454142D01*
X134177814Y-73454137D01*
X134401334Y-73357617D01*
X134408000Y-73354260D01*
X134855040Y-73095180D01*
X134857034Y-73093976D01*
X135267736Y-72835386D01*
X135724102Y-72566637D01*
X135724410Y-72566455D01*
X136013970Y-72393735D01*
X136014110Y-72393651D01*
X136163764Y-72303859D01*
X136186840Y-72279815D01*
X136209906Y-72237527D01*
X136217022Y-72216100D01*
X136222102Y-72180540D01*
X136220643Y-72155376D01*
X136209509Y-72132762D01*
X136198908Y-72121975D01*
X136173508Y-72101655D01*
X136151091Y-72090128D01*
X136133840Y-72087740D01*
X136062720Y-72087740D01*
X136038895Y-72092379D01*
X135825535Y-72178739D01*
X135821753Y-72180415D01*
X135380403Y-72393480D01*
X135036127Y-72550430D01*
X134606117Y-72737611D01*
X134303016Y-72853800D01*
X134014578Y-72960066D01*
X133776742Y-73041031D01*
X133356709Y-73182729D01*
X132865612Y-73319426D01*
X132501867Y-73420466D01*
X132292564Y-73464274D01*
X132071251Y-73459356D01*
X132066037Y-73459454D01*
X131816128Y-73474449D01*
X131672889Y-73464570D01*
X131672361Y-73464536D01*
X131508291Y-73454592D01*
X131311752Y-73420198D01*
X131198007Y-73388349D01*
X131059411Y-73292766D01*
X131055092Y-73290037D01*
X130929818Y-73217764D01*
X130779728Y-73072364D01*
X130705963Y-72938664D01*
X130644454Y-72749407D01*
X130634838Y-72533046D01*
X130649680Y-72320312D01*
X130664638Y-72210620D01*
X130663019Y-72185465D01*
X130654555Y-72166817D01*
X130634235Y-72136337D01*
X130616369Y-72118556D01*
X130601480Y-72111319D01*
X130571000Y-72101159D01*
X130561359Y-72098764D01*
X130530879Y-72093684D01*
X130505688Y-72094557D01*
X130475539Y-72111419D01*
X130429819Y-72157139D01*
X130413624Y-72184734D01*
X130078653Y-73367284D01*
X130011853Y-73574716D01*
X130011577Y-73575593D01*
X129982201Y-73671553D01*
X129979420Y-73690141D01*
X129552602Y-73690141D01*
X129555923Y-73665424D01*
X129553471Y-73639676D01*
X129591145Y-73493688D01*
X129656648Y-73261908D01*
X129732451Y-73029446D01*
X129733137Y-73027205D01*
X129895697Y-72458245D01*
X129895971Y-72457255D01*
X129951715Y-72249483D01*
X130012537Y-72036605D01*
X130012649Y-72036207D01*
X130099009Y-71726327D01*
X130100850Y-71717156D01*
X130116090Y-71595236D01*
X130116113Y-71595047D01*
X130141450Y-71387280D01*
X130166776Y-71204936D01*
X130166935Y-71203707D01*
X130192012Y-70993060D01*
X130247335Y-70726504D01*
X130247460Y-70725885D01*
X130389499Y-70005542D01*
X130434994Y-69808399D01*
X130436209Y-69801330D01*
X130476568Y-69448186D01*
X130542137Y-69110255D01*
X130542875Y-69105494D01*
X130568275Y-68887054D01*
X130568294Y-68886890D01*
X130593694Y-68663370D01*
X130593906Y-68661165D01*
X130614226Y-68402085D01*
X130614274Y-68401426D01*
X130649834Y-67878186D01*
X130649946Y-67875961D01*
X130660053Y-67567683D01*
X130680206Y-67325855D01*
X130710612Y-67011655D01*
X130756290Y-66590405D01*
X130756424Y-66589027D01*
X130791984Y-66177547D01*
X130791990Y-66177481D01*
X130827550Y-65760921D01*
X130827689Y-65758917D01*
X130842640Y-65479839D01*
X130847171Y-65459901D01*
X131022569Y-65568933D01*
X131202664Y-65709007D01*
X131669463Y-66074328D01*
X131922896Y-66282143D01*
X131923685Y-66282779D01*
X132243725Y-66536779D01*
X132245016Y-66537777D01*
X132737422Y-66908350D01*
X132984898Y-67100271D01*
X133248023Y-67322915D01*
X133250115Y-67324610D01*
X133543161Y-67551974D01*
X133714387Y-67703055D01*
X133717475Y-67705610D01*
X134011573Y-67933789D01*
X134249494Y-68126151D01*
X134527735Y-68358862D01*
X134664173Y-68480140D01*
X134675953Y-68488426D01*
X134843593Y-68579866D01*
X134867677Y-68587304D01*
X134889401Y-68585724D01*
X134930041Y-68575564D01*
X134952795Y-68564719D01*
X134962429Y-68555775D01*
X134997989Y-68515135D01*
X135010492Y-68493248D01*
X135013559Y-68477544D01*
X135018038Y-68410362D01*
X135016065Y-68389889D01*
X134976026Y-68238631D01*
X134969622Y-68223112D01*
X134837542Y-67994512D01*
X134835395Y-67991057D01*
X134684500Y-67764715D01*
X134518160Y-67462278D01*
X134132247Y-66751385D01*
X134130739Y-66748758D01*
X133740313Y-66104809D01*
X133359980Y-65410067D01*
X133358972Y-65408295D01*
X132942412Y-64702175D01*
X132940065Y-64698492D01*
X132650505Y-64276852D01*
X132650070Y-64276227D01*
X132335110Y-63829187D01*
X131849019Y-63135496D01*
X131570928Y-62660212D01*
X131566778Y-62653992D01*
X131236578Y-62217112D01*
X130985260Y-61883632D01*
X130985260Y-61832076D01*
X131000139Y-61693205D01*
X131000500Y-61686440D01*
X131000500Y-61158120D01*
X131000419Y-61154917D01*
X130975019Y-60651997D01*
X130974805Y-60649083D01*
X130929085Y-60176643D01*
X130928477Y-60172090D01*
X130852550Y-59726653D01*
X130786701Y-59169467D01*
X130786680Y-59169294D01*
X130747198Y-58842907D01*
X130739265Y-58818982D01*
X130722648Y-58800028D01*
X130718202Y-58797872D01*
X130710940Y-58667162D01*
X130710940Y-58613040D01*
X130710004Y-58602178D01*
X130583004Y-57870658D01*
X130582935Y-57870266D01*
X130344175Y-56544386D01*
X130343103Y-56539533D01*
X129962103Y-55086653D01*
X129962008Y-55086292D01*
X129667368Y-53989012D01*
X129666937Y-53987484D01*
X129164017Y-52285684D01*
X129162782Y-52281939D01*
X128725902Y-51083059D01*
X128724957Y-51080622D01*
X128476037Y-50476102D01*
X128474534Y-50472733D01*
X128211863Y-49927187D01*
X127928532Y-49127787D01*
X127924801Y-49119289D01*
X127605348Y-48515878D01*
X127250299Y-47775347D01*
X127249920Y-47774571D01*
X126909560Y-47088771D01*
X126906416Y-47083166D01*
X126570740Y-46550034D01*
X126570740Y-46284977D01*
X126697940Y-46054133D01*
X126951386Y-45712956D01*
X127428711Y-45447228D01*
X128011715Y-45213030D01*
X128487999Y-45153495D01*
X128957165Y-45143405D01*
X128958932Y-45143343D01*
X129370412Y-45123023D01*
X129387744Y-45119712D01*
X129865264Y-44957152D01*
X129875309Y-44952731D01*
X130459509Y-44632691D01*
X130473901Y-44621901D01*
X131022541Y-44073261D01*
X131028576Y-44066279D01*
X131368936Y-43609079D01*
X131373848Y-43601379D01*
X131774745Y-42860480D01*
X132058793Y-42368469D01*
X132060901Y-42364499D01*
X132084983Y-42314997D01*
X132617002Y-42314997D01*
X132617422Y-42340200D01*
X132627615Y-42363254D01*
X132647524Y-42381456D01*
X132865964Y-42508456D01*
X132895316Y-42517008D01*
X133398236Y-42537328D01*
X133405589Y-42537199D01*
X134008193Y-42491624D01*
X134671769Y-42481493D01*
X134692157Y-42477801D01*
X134946422Y-42386992D01*
X135159834Y-42530718D01*
X135344324Y-42776705D01*
X135431242Y-43090577D01*
X135496196Y-43655177D01*
X135486223Y-44004233D01*
X135415681Y-44775155D01*
X135233786Y-45558314D01*
X135233786Y-45558316D01*
X134985152Y-46628964D01*
X134747912Y-47492113D01*
X134521082Y-48016343D01*
X134519072Y-48021619D01*
X134300632Y-48682019D01*
X134297765Y-48695351D01*
X134253143Y-49121737D01*
X134130576Y-49386482D01*
X134124873Y-49417851D01*
X134135033Y-49555011D01*
X134141848Y-49579279D01*
X134157567Y-49598984D01*
X134179714Y-49611021D01*
X134204799Y-49613493D01*
X134232698Y-49603735D01*
X134303818Y-49558015D01*
X134313001Y-49550841D01*
X134485721Y-49388281D01*
X134491130Y-49382513D01*
X134831490Y-48971033D01*
X134833663Y-48968253D01*
X135361983Y-48251973D01*
X135366152Y-48245541D01*
X135716672Y-47625781D01*
X135717100Y-47625013D01*
X136098100Y-46929053D01*
X136098399Y-46928500D01*
X136372719Y-46415420D01*
X136376690Y-46406358D01*
X136615450Y-45720558D01*
X136617084Y-45715081D01*
X136866004Y-44719401D01*
X136867310Y-44712635D01*
X136973990Y-43935395D01*
X136974556Y-43928499D01*
X136994763Y-43190928D01*
X137024439Y-43002980D01*
X137280529Y-43172451D01*
X137657375Y-43598882D01*
X137969959Y-44109933D01*
X138127957Y-44667862D01*
X138148008Y-45479948D01*
X138102695Y-46169720D01*
X137991701Y-46815504D01*
X137794661Y-47750178D01*
X137557397Y-48431681D01*
X137247788Y-49274225D01*
X136964385Y-50028280D01*
X136543986Y-50904533D01*
X136017533Y-51997935D01*
X135633823Y-52578549D01*
X135632045Y-52581402D01*
X135257406Y-53219300D01*
X134868470Y-53774924D01*
X134605118Y-54119307D01*
X134601109Y-54125210D01*
X134342029Y-54557010D01*
X134335928Y-54570558D01*
X134274968Y-54763598D01*
X134272299Y-54788663D01*
X134279592Y-54812791D01*
X134295698Y-54832181D01*
X134314163Y-54842521D01*
X134385283Y-54867921D01*
X134410231Y-54871518D01*
X134434614Y-54865126D01*
X134450509Y-54854030D01*
X134678186Y-54636472D01*
X135063312Y-54296953D01*
X135066221Y-54294221D01*
X136041581Y-53318861D01*
X136045748Y-53314266D01*
X136513026Y-52745405D01*
X137026033Y-52125734D01*
X137029705Y-52120836D01*
X137476745Y-51460436D01*
X137478783Y-51457221D01*
X137981703Y-50608861D01*
X137983342Y-50605923D01*
X138496422Y-49625483D01*
X138498877Y-49620218D01*
X138818917Y-48842978D01*
X138819867Y-48840528D01*
X139139907Y-47961688D01*
X139142445Y-47952720D01*
X139304595Y-47162239D01*
X139430119Y-46703085D01*
X139453675Y-47231416D01*
X139484059Y-48051779D01*
X139463818Y-48633713D01*
X139463785Y-48635101D01*
X139453630Y-49422120D01*
X139438447Y-50024359D01*
X139392888Y-50560948D01*
X139392743Y-50563068D01*
X139362371Y-51155328D01*
X139255937Y-52057480D01*
X139144408Y-52980131D01*
X138997737Y-53809582D01*
X138689383Y-55083436D01*
X138381175Y-55856483D01*
X138379276Y-55861960D01*
X138176908Y-56544952D01*
X137935071Y-57149543D01*
X137460826Y-58113169D01*
X137256474Y-58403064D01*
X137235841Y-58415767D01*
X137224505Y-58429900D01*
X136888240Y-59000087D01*
X136378398Y-59716895D01*
X135831627Y-60354795D01*
X135831204Y-60355294D01*
X135249942Y-61047754D01*
X134826628Y-61425713D01*
X134822260Y-61430009D01*
X134761300Y-61496049D01*
X134748219Y-61517596D01*
X134744570Y-61542849D01*
X134749650Y-61629209D01*
X134756095Y-61653577D01*
X134771513Y-61673519D01*
X134793474Y-61685890D01*
X134827319Y-61687354D01*
X134959399Y-61656874D01*
X134985031Y-61644390D01*
X135487951Y-61237990D01*
X135493780Y-61232646D01*
X135889250Y-60821966D01*
X136365967Y-60360463D01*
X136370711Y-60355336D01*
X136761871Y-59882896D01*
X136764822Y-59879042D01*
X137755422Y-58476962D01*
X137757113Y-58474442D01*
X138122873Y-57900402D01*
X138125378Y-57896109D01*
X138420018Y-57342389D01*
X138421591Y-57339223D01*
X139239471Y-55571383D01*
X139241160Y-55567377D01*
X139520560Y-54835857D01*
X139521719Y-54832553D01*
X139765234Y-54071568D01*
X140069681Y-53219117D01*
X140070629Y-53216249D01*
X140390669Y-52164689D01*
X140391183Y-52162908D01*
X140528343Y-51659988D01*
X140530174Y-51650450D01*
X140606344Y-50980152D01*
X140697762Y-50223416D01*
X140697836Y-50222770D01*
X140789276Y-49394730D01*
X140789345Y-49394078D01*
X140850305Y-48784478D01*
X140850512Y-48781862D01*
X140891152Y-48085902D01*
X140891174Y-48078906D01*
X140850534Y-47296586D01*
X140849920Y-47290479D01*
X140722920Y-46442119D01*
X140722822Y-46441488D01*
X140600902Y-45679488D01*
X140598831Y-45670648D01*
X140360071Y-44903568D01*
X140355186Y-44892033D01*
X140081683Y-44390611D01*
X139863976Y-43934945D01*
X139856265Y-43922652D01*
X139490505Y-43465452D01*
X139488675Y-43463267D01*
X139092435Y-43011147D01*
X139085284Y-43004178D01*
X138572204Y-42577458D01*
X138568015Y-42574259D01*
X138110815Y-42254219D01*
X138100190Y-42248213D01*
X137688710Y-42065333D01*
X137687497Y-42064809D01*
X137276017Y-41892089D01*
X137262320Y-41888079D01*
X136678120Y-41786479D01*
X136673607Y-41785860D01*
X136018287Y-41719820D01*
X136016485Y-41719664D01*
X135452605Y-41679024D01*
X135443128Y-41679050D01*
X134853848Y-41724770D01*
X134848060Y-41725488D01*
X134253700Y-41827088D01*
X134252814Y-41827246D01*
X133760054Y-41918686D01*
X133756611Y-41919424D01*
X133366605Y-42014426D01*
X132966620Y-42029425D01*
X132949249Y-42032530D01*
X132674549Y-42122432D01*
X132652625Y-42134871D01*
X132637269Y-42154859D01*
X132630898Y-42179248D01*
X132634518Y-42204193D01*
X132636817Y-42207996D01*
X132617002Y-42314997D01*
X132084983Y-42314997D01*
X132188832Y-42101530D01*
X132192493Y-42087369D01*
X132201111Y-42074742D01*
X132205764Y-42066724D01*
X132228056Y-42020902D01*
X132229974Y-42020302D01*
X132251808Y-42000467D01*
X132395711Y-41789632D01*
X132599811Y-41520817D01*
X132853551Y-41282003D01*
X133200740Y-40995195D01*
X133634302Y-40686220D01*
X134022279Y-40536998D01*
X134848666Y-40242946D01*
X135645232Y-39985826D01*
X136274258Y-39896673D01*
X136734386Y-39988699D01*
X136734386Y-39988699D01*
G37*
X136734386Y-39988699D02*
X137124019Y-40240234D01*
X137514593Y-40525654D01*
X137810683Y-40826762D01*
X137815681Y-40831330D01*
X138013801Y-40993890D01*
X138018690Y-40997524D01*
X138388227Y-41245569D01*
X138685815Y-41467500D01*
X138988797Y-41709885D01*
X139289936Y-41970872D01*
X139521188Y-42222233D01*
X139524127Y-42225223D01*
X139844167Y-42530023D01*
X140065546Y-42741563D01*
X140152254Y-42900527D01*
X140153181Y-42902168D01*
X140345965Y-43231929D01*
X140501130Y-43507223D01*
X140601162Y-43757303D01*
X140604347Y-43764078D01*
X140822305Y-44164512D01*
X141119539Y-44753942D01*
X141315911Y-45338025D01*
X141543975Y-46088101D01*
X141650361Y-46478182D01*
X141822078Y-47129699D01*
X141907797Y-47719647D01*
X141988981Y-48404634D01*
X141989066Y-48405315D01*
X142079950Y-49107139D01*
X142074962Y-49775514D01*
X141960169Y-50209730D01*
X141958067Y-50225012D01*
X141942828Y-51246048D01*
X141937841Y-51565191D01*
X141801887Y-52224822D01*
X141800868Y-52231601D01*
X141724671Y-53029132D01*
X141664025Y-53660857D01*
X141547834Y-54236762D01*
X141547378Y-54239288D01*
X141466740Y-54743273D01*
X141274848Y-55394697D01*
X141274641Y-55395415D01*
X141117161Y-55954215D01*
X141117152Y-55954248D01*
X140980683Y-56439472D01*
X140844892Y-56806611D01*
X140724810Y-57091806D01*
X140533377Y-57439407D01*
X140531457Y-57443187D01*
X140424777Y-57671787D01*
X140420332Y-57684865D01*
X140359398Y-57959068D01*
X140295344Y-58239921D01*
X140167405Y-58476116D01*
X140161721Y-58490623D01*
X140049961Y-58927503D01*
X140048361Y-58936291D01*
X139987401Y-59490011D01*
X139987577Y-59505352D01*
X140038377Y-59886352D01*
X140038523Y-59887380D01*
X140084243Y-60192180D01*
X140087700Y-60205366D01*
X140250260Y-60632086D01*
X140260918Y-60650251D01*
X140601278Y-61056651D01*
X140603893Y-61059585D01*
X140978542Y-61454485D01*
X141250041Y-61776262D01*
X141539513Y-62180525D01*
X141760431Y-62672569D01*
X141761708Y-62675245D01*
X141964908Y-63076565D01*
X141965172Y-63077081D01*
X142110347Y-63357419D01*
X142386168Y-64159808D01*
X142471140Y-64799596D01*
X142471140Y-65262857D01*
X142411339Y-65641599D01*
X142310515Y-66065058D01*
X142215384Y-66420549D01*
X142056038Y-66794016D01*
X141877206Y-67106972D01*
X141653171Y-67395728D01*
X141428389Y-67635495D01*
X141172019Y-67867214D01*
X140691289Y-68122602D01*
X140690785Y-68122873D01*
X140512985Y-68219393D01*
X140495067Y-68233875D01*
X140415653Y-68326525D01*
X139899928Y-68483698D01*
X139898608Y-68484116D01*
X139527768Y-68606036D01*
X139512020Y-68613764D01*
X139166580Y-68847444D01*
X139160345Y-68852251D01*
X138794585Y-69172291D01*
X138786302Y-69181061D01*
X138374822Y-69709381D01*
X138374204Y-69710189D01*
X138301423Y-69806789D01*
X138294016Y-69819426D01*
X138246487Y-69927446D01*
X138126629Y-70127210D01*
X138124484Y-70131085D01*
X137977164Y-70420645D01*
X137974255Y-70427272D01*
X137878573Y-70684103D01*
X137788145Y-70880030D01*
X137787516Y-70881436D01*
X137707977Y-71065369D01*
X137552778Y-71320697D01*
X137552651Y-71320907D01*
X137313891Y-71717147D01*
X137313185Y-71718349D01*
X137054105Y-72170469D01*
X137053939Y-72170760D01*
X136914481Y-72417136D01*
X136914144Y-72417277D01*
X136895599Y-72436721D01*
X136882297Y-72458488D01*
X136880506Y-72461614D01*
X136728106Y-72746094D01*
X136726671Y-72748941D01*
X136594591Y-73028341D01*
X136593180Y-73031553D01*
X136471260Y-73331273D01*
X136469206Y-73337128D01*
X136372982Y-73661251D01*
X136256479Y-74010760D01*
X136254988Y-74015958D01*
X136117828Y-74584918D01*
X136117470Y-74586495D01*
X136026030Y-75013215D01*
X136025730Y-75014699D01*
X135934631Y-75495498D01*
X135828396Y-75920439D01*
X135827250Y-75926111D01*
X135725779Y-76580596D01*
X135697065Y-76738526D01*
X135693199Y-76750212D01*
X135578724Y-77538813D01*
X135406909Y-78210915D01*
X135178398Y-79069101D01*
X135178105Y-79070245D01*
X134913945Y-80142125D01*
X134912726Y-80148423D01*
X134836526Y-80686903D01*
X134836288Y-80688788D01*
X134709288Y-81831788D01*
X134708965Y-81835917D01*
X134683626Y-82393373D01*
X134617987Y-83135603D01*
X134516982Y-83665878D01*
X134516328Y-83670061D01*
X134435626Y-84330812D01*
X134299746Y-84818972D01*
X134298229Y-84825898D01*
X134125626Y-85897054D01*
X133988937Y-86636186D01*
X133833016Y-87269928D01*
X133653056Y-87709830D01*
X133392623Y-88205655D01*
X133000103Y-88732327D01*
X132688292Y-88957791D01*
X132262580Y-89054543D01*
X131916236Y-89035302D01*
X131451414Y-88847396D01*
X130951288Y-88584703D01*
X130945617Y-88582072D01*
X130386227Y-88355292D01*
X129889325Y-88059159D01*
X129562881Y-87833159D01*
X129188832Y-87529876D01*
X129182800Y-87525544D01*
X128783255Y-87272668D01*
X128411060Y-87001066D01*
X127945608Y-86601384D01*
X127943978Y-86600031D01*
X127510950Y-86252602D01*
X127250112Y-85966683D01*
X127244889Y-85961582D01*
X126973829Y-85725660D01*
X126727749Y-85444425D01*
X126725827Y-85442325D01*
X126499734Y-85206183D01*
X126298187Y-84940731D01*
X126189642Y-84694039D01*
X126111844Y-84509268D01*
X126077445Y-84253731D01*
X126057850Y-84101869D01*
X126064344Y-83962240D01*
X126387860Y-83962240D01*
X126387860Y-83982560D01*
X126391119Y-84002640D01*
X126411439Y-84063600D01*
X126423997Y-84085456D01*
X126441078Y-84099160D01*
X126542678Y-84155040D01*
X126560415Y-84161583D01*
X126707735Y-84192063D01*
X126718617Y-84193349D01*
X127368857Y-84213669D01*
X127371392Y-84213698D01*
X127955592Y-84208618D01*
X127960228Y-84208408D01*
X128579988Y-84157608D01*
X128581246Y-84157492D01*
X129576926Y-84055892D01*
X129581643Y-84055231D01*
X130008363Y-83979031D01*
X130014571Y-83977598D01*
X130568291Y-83820118D01*
X130571538Y-83819100D01*
X131252258Y-83585420D01*
X131255510Y-83584203D01*
X131793990Y-83365763D01*
X131794116Y-83365711D01*
X132291956Y-83162511D01*
X132302986Y-83156686D01*
X132617774Y-82948520D01*
X132967795Y-82720245D01*
X133318102Y-82496861D01*
X133328067Y-82489002D01*
X133475387Y-82346762D01*
X133481790Y-82339564D01*
X133558723Y-82238590D01*
X133583692Y-82217782D01*
X133599468Y-82198123D01*
X133606353Y-82173875D01*
X133605902Y-82160020D01*
X133600822Y-82124460D01*
X133592375Y-82100711D01*
X133575355Y-82082119D01*
X133558040Y-82073199D01*
X133542800Y-82068119D01*
X133510838Y-82065982D01*
X133404158Y-82086302D01*
X133390588Y-82090504D01*
X133065468Y-82232744D01*
X133065130Y-82232893D01*
X132745090Y-82375133D01*
X132742163Y-82376524D01*
X132385390Y-82557423D01*
X131754544Y-82774434D01*
X131753114Y-82774945D01*
X131440750Y-82890822D01*
X130981485Y-83016994D01*
X130483836Y-83149023D01*
X130480598Y-83149975D01*
X130158027Y-83254190D01*
X129591237Y-83288993D01*
X129124441Y-83253858D01*
X128656592Y-83199110D01*
X128440881Y-83112825D01*
X128185121Y-82955434D01*
X127958683Y-82768377D01*
X127771609Y-82556688D01*
X127603536Y-82309521D01*
X127513996Y-82130442D01*
X127498473Y-82110582D01*
X127476446Y-82098327D01*
X127457200Y-82095340D01*
X127352587Y-82095340D01*
X127333603Y-82084777D01*
X127308544Y-82082057D01*
X127284401Y-82089300D01*
X127264978Y-82105366D01*
X127257100Y-82117833D01*
X126429663Y-83843343D01*
X126427738Y-83847785D01*
X126392178Y-83939225D01*
X126387860Y-83962240D01*
X126064344Y-83962240D01*
X126067536Y-83893619D01*
X126070579Y-83877966D01*
X126070383Y-83852760D01*
X126062740Y-83835049D01*
X126062740Y-83775674D01*
X126100305Y-83708892D01*
X126101298Y-83707056D01*
X126233378Y-83453056D01*
X126234729Y-83450297D01*
X126468409Y-82942297D01*
X126468843Y-82941334D01*
X126580603Y-82687334D01*
X126763156Y-82276589D01*
X126935643Y-81906250D01*
X126937612Y-81901534D01*
X127109391Y-81438685D01*
X127113267Y-81436037D01*
X127126587Y-81415643D01*
X127127560Y-81413246D01*
X127127845Y-81411729D01*
X127128532Y-81410854D01*
X127287437Y-81019404D01*
X127288325Y-81017087D01*
X127552485Y-80285567D01*
X127555010Y-80276536D01*
X127701871Y-79547295D01*
X127873005Y-78933227D01*
X128021205Y-78567264D01*
X128023545Y-78554760D01*
X128057739Y-78472692D01*
X128653928Y-78472692D01*
X128659008Y-78518412D01*
X128666709Y-78542414D01*
X128677219Y-78556301D01*
X128697539Y-78576621D01*
X128703455Y-78581844D01*
X128749175Y-78617404D01*
X128768080Y-78627521D01*
X128920480Y-78678321D01*
X128930823Y-78680829D01*
X129225463Y-78726549D01*
X129228188Y-78726912D01*
X129548228Y-78762472D01*
X129553287Y-78762830D01*
X129883487Y-78772990D01*
X129888837Y-78772929D01*
X130172662Y-78757724D01*
X130639350Y-78742506D01*
X130645784Y-78741968D01*
X131021221Y-78691233D01*
X131610089Y-78620163D01*
X131614182Y-78619532D01*
X131939302Y-78558572D01*
X131948270Y-78556202D01*
X132236779Y-78456879D01*
X132237935Y-78456468D01*
X132452346Y-78377991D01*
X132452425Y-78377962D01*
X133046785Y-78159522D01*
X133052328Y-78157181D01*
X133667008Y-77862541D01*
X133672068Y-77859828D01*
X134174988Y-77560108D01*
X134178591Y-77557792D01*
X134590071Y-77273312D01*
X134592677Y-77271412D01*
X134840299Y-77080933D01*
X134853277Y-77065994D01*
X134908588Y-77021745D01*
X134924754Y-77002405D01*
X134932420Y-76972160D01*
X134932420Y-76916280D01*
X134927417Y-76891575D01*
X134913821Y-76871379D01*
X134883341Y-76840899D01*
X134862335Y-76826967D01*
X134838440Y-76822300D01*
X134762240Y-76822300D01*
X134731565Y-76830201D01*
X134585706Y-76910675D01*
X134064806Y-77163539D01*
X133670254Y-77340581D01*
X133342372Y-77476779D01*
X132703803Y-77704839D01*
X132703300Y-77705021D01*
X132401982Y-77815504D01*
X132173708Y-77870091D01*
X131805554Y-77935653D01*
X131435538Y-77991409D01*
X131431013Y-77992259D01*
X131125052Y-78061347D01*
X130981864Y-78051801D01*
X130980892Y-78051743D01*
X130783300Y-78041610D01*
X130492183Y-78021873D01*
X130274673Y-77949370D01*
X129928599Y-77788872D01*
X129773288Y-77708863D01*
X129697458Y-77619652D01*
X129559948Y-77413387D01*
X129456156Y-77190974D01*
X129411174Y-77076021D01*
X129397512Y-77054837D01*
X129372120Y-77038919D01*
X129311160Y-77018599D01*
X129286141Y-77015532D01*
X129255857Y-77026005D01*
X129210137Y-77056485D01*
X129195236Y-77070335D01*
X129159676Y-77116055D01*
X129149962Y-77133786D01*
X128822034Y-78057029D01*
X128792328Y-78105016D01*
X128787262Y-78115108D01*
X128657982Y-78442348D01*
X128653928Y-78472692D01*
X128057739Y-78472692D01*
X128120335Y-78322463D01*
X128120422Y-78322255D01*
X128232984Y-78049378D01*
X128233383Y-78047320D01*
X128234559Y-78045557D01*
X128237261Y-78039007D01*
X128240101Y-78024675D01*
X128711220Y-76616385D01*
X128711783Y-76614616D01*
X129108023Y-75303976D01*
X129108784Y-75301241D01*
X129342139Y-74383039D01*
X129534148Y-73741325D01*
X129552094Y-73693930D01*
X129552602Y-73690141D01*
X129979420Y-73690141D01*
X129979420Y-73802240D01*
X129982913Y-73823012D01*
X130028633Y-73955092D01*
X130035805Y-73969543D01*
X130086605Y-74045743D01*
X130107244Y-74065253D01*
X130192074Y-74115153D01*
X130205817Y-74124315D01*
X130212642Y-74128276D01*
X130252548Y-74148229D01*
X130404198Y-74229109D01*
X130417718Y-74234436D01*
X130569329Y-74274866D01*
X130827642Y-74350840D01*
X130832835Y-74352132D01*
X131056355Y-74397852D01*
X131071388Y-74399098D01*
X131350788Y-74388938D01*
X131358320Y-74388213D01*
X131617400Y-74347573D01*
X131623245Y-74346372D01*
X131881748Y-74280479D01*
X132353698Y-74168835D01*
X132356830Y-74168009D01*
X132758150Y-74051169D01*
X132763357Y-74049405D01*
X133261197Y-73856365D01*
X133264156Y-73855131D01*
X133695605Y-73662248D01*
X134177802Y-73454142D01*
X134177814Y-73454137D01*
X134401334Y-73357617D01*
X134408000Y-73354260D01*
X134855040Y-73095180D01*
X134857034Y-73093976D01*
X135267736Y-72835386D01*
X135724102Y-72566637D01*
X135724410Y-72566455D01*
X136013970Y-72393735D01*
X136014110Y-72393651D01*
X136163764Y-72303859D01*
X136186840Y-72279815D01*
X136209906Y-72237527D01*
X136217022Y-72216100D01*
X136222102Y-72180540D01*
X136220643Y-72155376D01*
X136209509Y-72132762D01*
X136198908Y-72121975D01*
X136173508Y-72101655D01*
X136151091Y-72090128D01*
X136133840Y-72087740D01*
X136062720Y-72087740D01*
X136038895Y-72092379D01*
X135825535Y-72178739D01*
X135821753Y-72180415D01*
X135380403Y-72393480D01*
X135036127Y-72550430D01*
X134606117Y-72737611D01*
X134303016Y-72853800D01*
X134014578Y-72960066D01*
X133776742Y-73041031D01*
X133356709Y-73182729D01*
X132865612Y-73319426D01*
X132501867Y-73420466D01*
X132292564Y-73464274D01*
X132071251Y-73459356D01*
X132066037Y-73459454D01*
X131816128Y-73474449D01*
X131672889Y-73464570D01*
X131672361Y-73464536D01*
X131508291Y-73454592D01*
X131311752Y-73420198D01*
X131198007Y-73388349D01*
X131059411Y-73292766D01*
X131055092Y-73290037D01*
X130929818Y-73217764D01*
X130779728Y-73072364D01*
X130705963Y-72938664D01*
X130644454Y-72749407D01*
X130634838Y-72533046D01*
X130649680Y-72320312D01*
X130664638Y-72210620D01*
X130663019Y-72185465D01*
X130654555Y-72166817D01*
X130634235Y-72136337D01*
X130616369Y-72118556D01*
X130601480Y-72111319D01*
X130571000Y-72101159D01*
X130561359Y-72098764D01*
X130530879Y-72093684D01*
X130505688Y-72094557D01*
X130475539Y-72111419D01*
X130429819Y-72157139D01*
X130413624Y-72184734D01*
X130078653Y-73367284D01*
X130011853Y-73574716D01*
X130011577Y-73575593D01*
X129982201Y-73671553D01*
X129979420Y-73690141D01*
X129552602Y-73690141D01*
X129555923Y-73665424D01*
X129553471Y-73639676D01*
X129591145Y-73493688D01*
X129656648Y-73261908D01*
X129732451Y-73029446D01*
X129733137Y-73027205D01*
X129895697Y-72458245D01*
X129895971Y-72457255D01*
X129951715Y-72249483D01*
X130012537Y-72036605D01*
X130012649Y-72036207D01*
X130099009Y-71726327D01*
X130100850Y-71717156D01*
X130116090Y-71595236D01*
X130116113Y-71595047D01*
X130141450Y-71387280D01*
X130166776Y-71204936D01*
X130166935Y-71203707D01*
X130192012Y-70993060D01*
X130247335Y-70726504D01*
X130247460Y-70725885D01*
X130389499Y-70005542D01*
X130434994Y-69808399D01*
X130436209Y-69801330D01*
X130476568Y-69448186D01*
X130542137Y-69110255D01*
X130542875Y-69105494D01*
X130568275Y-68887054D01*
X130568294Y-68886890D01*
X130593694Y-68663370D01*
X130593906Y-68661165D01*
X130614226Y-68402085D01*
X130614274Y-68401426D01*
X130649834Y-67878186D01*
X130649946Y-67875961D01*
X130660053Y-67567683D01*
X130680206Y-67325855D01*
X130710612Y-67011655D01*
X130756290Y-66590405D01*
X130756424Y-66589027D01*
X130791984Y-66177547D01*
X130791990Y-66177481D01*
X130827550Y-65760921D01*
X130827689Y-65758917D01*
X130842640Y-65479839D01*
X130847171Y-65459901D01*
X131022569Y-65568933D01*
X131202664Y-65709007D01*
X131669463Y-66074328D01*
X131922896Y-66282143D01*
X131923685Y-66282779D01*
X132243725Y-66536779D01*
X132245016Y-66537777D01*
X132737422Y-66908350D01*
X132984898Y-67100271D01*
X133248023Y-67322915D01*
X133250115Y-67324610D01*
X133543161Y-67551974D01*
X133714387Y-67703055D01*
X133717475Y-67705610D01*
X134011573Y-67933789D01*
X134249494Y-68126151D01*
X134527735Y-68358862D01*
X134664173Y-68480140D01*
X134675953Y-68488426D01*
X134843593Y-68579866D01*
X134867677Y-68587304D01*
X134889401Y-68585724D01*
X134930041Y-68575564D01*
X134952795Y-68564719D01*
X134962429Y-68555775D01*
X134997989Y-68515135D01*
X135010492Y-68493248D01*
X135013559Y-68477544D01*
X135018038Y-68410362D01*
X135016065Y-68389889D01*
X134976026Y-68238631D01*
X134969622Y-68223112D01*
X134837542Y-67994512D01*
X134835395Y-67991057D01*
X134684500Y-67764715D01*
X134518160Y-67462278D01*
X134132247Y-66751385D01*
X134130739Y-66748758D01*
X133740313Y-66104809D01*
X133359980Y-65410067D01*
X133358972Y-65408295D01*
X132942412Y-64702175D01*
X132940065Y-64698492D01*
X132650505Y-64276852D01*
X132650070Y-64276227D01*
X132335110Y-63829187D01*
X131849019Y-63135496D01*
X131570928Y-62660212D01*
X131566778Y-62653992D01*
X131236578Y-62217112D01*
X130985260Y-61883632D01*
X130985260Y-61832076D01*
X131000139Y-61693205D01*
X131000500Y-61686440D01*
X131000500Y-61158120D01*
X131000419Y-61154917D01*
X130975019Y-60651997D01*
X130974805Y-60649083D01*
X130929085Y-60176643D01*
X130928477Y-60172090D01*
X130852550Y-59726653D01*
X130786701Y-59169467D01*
X130786680Y-59169294D01*
X130747198Y-58842907D01*
X130739265Y-58818982D01*
X130722648Y-58800028D01*
X130718202Y-58797872D01*
X130710940Y-58667162D01*
X130710940Y-58613040D01*
X130710004Y-58602178D01*
X130583004Y-57870658D01*
X130582935Y-57870266D01*
X130344175Y-56544386D01*
X130343103Y-56539533D01*
X129962103Y-55086653D01*
X129962008Y-55086292D01*
X129667368Y-53989012D01*
X129666937Y-53987484D01*
X129164017Y-52285684D01*
X129162782Y-52281939D01*
X128725902Y-51083059D01*
X128724957Y-51080622D01*
X128476037Y-50476102D01*
X128474534Y-50472733D01*
X128211863Y-49927187D01*
X127928532Y-49127787D01*
X127924801Y-49119289D01*
X127605348Y-48515878D01*
X127250299Y-47775347D01*
X127249920Y-47774571D01*
X126909560Y-47088771D01*
X126906416Y-47083166D01*
X126570740Y-46550034D01*
X126570740Y-46284977D01*
X126697940Y-46054133D01*
X126951386Y-45712956D01*
X127428711Y-45447228D01*
X128011715Y-45213030D01*
X128487999Y-45153495D01*
X128957165Y-45143405D01*
X128958932Y-45143343D01*
X129370412Y-45123023D01*
X129387744Y-45119712D01*
X129865264Y-44957152D01*
X129875309Y-44952731D01*
X130459509Y-44632691D01*
X130473901Y-44621901D01*
X131022541Y-44073261D01*
X131028576Y-44066279D01*
X131368936Y-43609079D01*
X131373848Y-43601379D01*
X131774745Y-42860480D01*
X132058793Y-42368469D01*
X132060901Y-42364499D01*
X132084983Y-42314997D01*
X132617002Y-42314997D01*
X132617422Y-42340200D01*
X132627615Y-42363254D01*
X132647524Y-42381456D01*
X132865964Y-42508456D01*
X132895316Y-42517008D01*
X133398236Y-42537328D01*
X133405589Y-42537199D01*
X134008193Y-42491624D01*
X134671769Y-42481493D01*
X134692157Y-42477801D01*
X134946422Y-42386992D01*
X135159834Y-42530718D01*
X135344324Y-42776705D01*
X135431242Y-43090577D01*
X135496196Y-43655177D01*
X135486223Y-44004233D01*
X135415681Y-44775155D01*
X135233786Y-45558314D01*
X135233786Y-45558316D01*
X134985152Y-46628964D01*
X134747912Y-47492113D01*
X134521082Y-48016343D01*
X134519072Y-48021619D01*
X134300632Y-48682019D01*
X134297765Y-48695351D01*
X134253143Y-49121737D01*
X134130576Y-49386482D01*
X134124873Y-49417851D01*
X134135033Y-49555011D01*
X134141848Y-49579279D01*
X134157567Y-49598984D01*
X134179714Y-49611021D01*
X134204799Y-49613493D01*
X134232698Y-49603735D01*
X134303818Y-49558015D01*
X134313001Y-49550841D01*
X134485721Y-49388281D01*
X134491130Y-49382513D01*
X134831490Y-48971033D01*
X134833663Y-48968253D01*
X135361983Y-48251973D01*
X135366152Y-48245541D01*
X135716672Y-47625781D01*
X135717100Y-47625013D01*
X136098100Y-46929053D01*
X136098399Y-46928500D01*
X136372719Y-46415420D01*
X136376690Y-46406358D01*
X136615450Y-45720558D01*
X136617084Y-45715081D01*
X136866004Y-44719401D01*
X136867310Y-44712635D01*
X136973990Y-43935395D01*
X136974556Y-43928499D01*
X136994763Y-43190928D01*
X137024439Y-43002980D01*
X137280529Y-43172451D01*
X137657375Y-43598882D01*
X137969959Y-44109933D01*
X138127957Y-44667862D01*
X138148008Y-45479948D01*
X138102695Y-46169720D01*
X137991701Y-46815504D01*
X137794661Y-47750178D01*
X137557397Y-48431681D01*
X137247788Y-49274225D01*
X136964385Y-50028280D01*
X136543986Y-50904533D01*
X136017533Y-51997935D01*
X135633823Y-52578549D01*
X135632045Y-52581402D01*
X135257406Y-53219300D01*
X134868470Y-53774924D01*
X134605118Y-54119307D01*
X134601109Y-54125210D01*
X134342029Y-54557010D01*
X134335928Y-54570558D01*
X134274968Y-54763598D01*
X134272299Y-54788663D01*
X134279592Y-54812791D01*
X134295698Y-54832181D01*
X134314163Y-54842521D01*
X134385283Y-54867921D01*
X134410231Y-54871518D01*
X134434614Y-54865126D01*
X134450509Y-54854030D01*
X134678186Y-54636472D01*
X135063312Y-54296953D01*
X135066221Y-54294221D01*
X136041581Y-53318861D01*
X136045748Y-53314266D01*
X136513026Y-52745405D01*
X137026033Y-52125734D01*
X137029705Y-52120836D01*
X137476745Y-51460436D01*
X137478783Y-51457221D01*
X137981703Y-50608861D01*
X137983342Y-50605923D01*
X138496422Y-49625483D01*
X138498877Y-49620218D01*
X138818917Y-48842978D01*
X138819867Y-48840528D01*
X139139907Y-47961688D01*
X139142445Y-47952720D01*
X139304595Y-47162239D01*
X139430119Y-46703085D01*
X139453675Y-47231416D01*
X139484059Y-48051779D01*
X139463818Y-48633713D01*
X139463785Y-48635101D01*
X139453630Y-49422120D01*
X139438447Y-50024359D01*
X139392888Y-50560948D01*
X139392743Y-50563068D01*
X139362371Y-51155328D01*
X139255937Y-52057480D01*
X139144408Y-52980131D01*
X138997737Y-53809582D01*
X138689383Y-55083436D01*
X138381175Y-55856483D01*
X138379276Y-55861960D01*
X138176908Y-56544952D01*
X137935071Y-57149543D01*
X137460826Y-58113169D01*
X137256474Y-58403064D01*
X137235841Y-58415767D01*
X137224505Y-58429900D01*
X136888240Y-59000087D01*
X136378398Y-59716895D01*
X135831627Y-60354795D01*
X135831204Y-60355294D01*
X135249942Y-61047754D01*
X134826628Y-61425713D01*
X134822260Y-61430009D01*
X134761300Y-61496049D01*
X134748219Y-61517596D01*
X134744570Y-61542849D01*
X134749650Y-61629209D01*
X134756095Y-61653577D01*
X134771513Y-61673519D01*
X134793474Y-61685890D01*
X134827319Y-61687354D01*
X134959399Y-61656874D01*
X134985031Y-61644390D01*
X135487951Y-61237990D01*
X135493780Y-61232646D01*
X135889250Y-60821966D01*
X136365967Y-60360463D01*
X136370711Y-60355336D01*
X136761871Y-59882896D01*
X136764822Y-59879042D01*
X137755422Y-58476962D01*
X137757113Y-58474442D01*
X138122873Y-57900402D01*
X138125378Y-57896109D01*
X138420018Y-57342389D01*
X138421591Y-57339223D01*
X139239471Y-55571383D01*
X139241160Y-55567377D01*
X139520560Y-54835857D01*
X139521719Y-54832553D01*
X139765234Y-54071568D01*
X140069681Y-53219117D01*
X140070629Y-53216249D01*
X140390669Y-52164689D01*
X140391183Y-52162908D01*
X140528343Y-51659988D01*
X140530174Y-51650450D01*
X140606344Y-50980152D01*
X140697762Y-50223416D01*
X140697836Y-50222770D01*
X140789276Y-49394730D01*
X140789345Y-49394078D01*
X140850305Y-48784478D01*
X140850512Y-48781862D01*
X140891152Y-48085902D01*
X140891174Y-48078906D01*
X140850534Y-47296586D01*
X140849920Y-47290479D01*
X140722920Y-46442119D01*
X140722822Y-46441488D01*
X140600902Y-45679488D01*
X140598831Y-45670648D01*
X140360071Y-44903568D01*
X140355186Y-44892033D01*
X140081683Y-44390611D01*
X139863976Y-43934945D01*
X139856265Y-43922652D01*
X139490505Y-43465452D01*
X139488675Y-43463267D01*
X139092435Y-43011147D01*
X139085284Y-43004178D01*
X138572204Y-42577458D01*
X138568015Y-42574259D01*
X138110815Y-42254219D01*
X138100190Y-42248213D01*
X137688710Y-42065333D01*
X137687497Y-42064809D01*
X137276017Y-41892089D01*
X137262320Y-41888079D01*
X136678120Y-41786479D01*
X136673607Y-41785860D01*
X136018287Y-41719820D01*
X136016485Y-41719664D01*
X135452605Y-41679024D01*
X135443128Y-41679050D01*
X134853848Y-41724770D01*
X134848060Y-41725488D01*
X134253700Y-41827088D01*
X134252814Y-41827246D01*
X133760054Y-41918686D01*
X133756611Y-41919424D01*
X133366605Y-42014426D01*
X132966620Y-42029425D01*
X132949249Y-42032530D01*
X132674549Y-42122432D01*
X132652625Y-42134871D01*
X132637269Y-42154859D01*
X132630898Y-42179248D01*
X132634518Y-42204193D01*
X132636817Y-42207996D01*
X132617002Y-42314997D01*
X132084983Y-42314997D01*
X132188832Y-42101530D01*
X132192493Y-42087369D01*
X132201111Y-42074742D01*
X132205764Y-42066724D01*
X132228056Y-42020902D01*
X132229974Y-42020302D01*
X132251808Y-42000467D01*
X132395711Y-41789632D01*
X132599811Y-41520817D01*
X132853551Y-41282003D01*
X133200740Y-40995195D01*
X133634302Y-40686220D01*
X134022279Y-40536998D01*
X134848666Y-40242946D01*
X135645232Y-39985826D01*
X136274258Y-39896673D01*
X136734386Y-39988699D01*
M02*
