%MOIN*%
%OFA0B0*%
%FSLAX46Y46*%
%IPPOS*%
%LPD*%
%ADD10C,0.0039370078740157488*%
%ADD21C,0.0039370078740157488*%
%LPD*%
G01*
D10*
X0000785807Y0002097152D02*
X0000801573Y0002096077D01*
X0000772365Y0002098618D02*
X0000785807Y0002097152D01*
X0000742851Y0002103419D02*
X0000772365Y0002098618D01*
X0000710265Y0002111215D02*
X0000742851Y0002103419D01*
X0000669081Y0002125138D02*
X0000710265Y0002111215D01*
X0000636269Y0002140038D02*
X0000669081Y0002125138D01*
X0000602823Y0002159551D02*
X0000636269Y0002140038D01*
X0000579848Y0002176143D02*
X0000602823Y0002159551D01*
X0000553897Y0002198969D02*
X0000579848Y0002176143D01*
X0000525524Y0002230782D02*
X0000553897Y0002198969D01*
X0000503294Y0002263293D02*
X0000525524Y0002230782D01*
X0000481839Y0002305597D02*
X0000503294Y0002263293D01*
X0000467843Y0002338467D02*
X0000481839Y0002305597D01*
X0000457272Y0002363312D02*
X0000467843Y0002338467D01*
X0000444320Y0002393987D02*
X0000457272Y0002363312D01*
X0000429721Y0002429126D02*
X0000444320Y0002393987D01*
X0000419526Y0002454170D02*
X0000429721Y0002429126D01*
X0000409703Y0002478804D02*
X0000419526Y0002454170D01*
X0000388453Y0002534295D02*
X0000409703Y0002478804D01*
X0000369863Y0002586146D02*
X0000388453Y0002534295D01*
X0000355460Y0002629223D02*
X0000369863Y0002586146D01*
X0000341497Y0002674256D02*
X0000355460Y0002629223D01*
X0000330342Y0002713309D02*
X0000341497Y0002674256D01*
X0000318159Y0002760265D02*
X0000330342Y0002713309D01*
X0000296076Y0002864955D02*
X0000318159Y0002760265D01*
X0000288914Y0002909377D02*
X0000296076Y0002864955D01*
X0000276649Y0003025901D02*
X0000288914Y0002909377D01*
X0000274411Y0003074088D02*
X0000276649Y0003025901D01*
X0000273851Y0003119225D02*
X0000274411Y0003074088D01*
X0000275305Y0003176395D02*
X0000273851Y0003119225D01*
X0000278714Y0003227934D02*
X0000275305Y0003176395D01*
X0000281145Y0003253870D02*
X0000278714Y0003227934D01*
X0000286191Y0003296776D02*
X0000281145Y0003253870D01*
X0000291516Y0003332377D02*
X0000286191Y0003296776D01*
X0000303711Y0003393385D02*
X0000291516Y0003332377D01*
X0000311759Y0003424141D02*
X0000303711Y0003393385D01*
X0000321630Y0003455268D02*
X0000311759Y0003424141D01*
X0000341770Y0003503724D02*
X0000321630Y0003455268D01*
X0000356753Y0003530872D02*
X0000341770Y0003503724D01*
X0000381200Y0003564349D02*
X0000356753Y0003530872D01*
X0000395389Y0003579256D02*
X0000381200Y0003564349D01*
X0000410088Y0003592028D02*
X0000395389Y0003579256D01*
X0000438783Y0003610911D02*
X0000410088Y0003592028D01*
X0000464049Y0003622584D02*
X0000438783Y0003610911D01*
X0000485224Y0003629781D02*
X0000464049Y0003622584D01*
X0000517197Y0003637538D02*
X0000485224Y0003629781D01*
X0000570612Y0003646222D02*
X0000517197Y0003637538D01*
X0000554223Y0003663075D02*
X0000570612Y0003646222D01*
X0000537568Y0003685699D02*
X0000554223Y0003663075D01*
X0000527193Y0003703542D02*
X0000537568Y0003685699D01*
X0000514162Y0003733039D02*
X0000527193Y0003703542D01*
X0000506437Y0003758248D02*
X0000514162Y0003733039D01*
X0000500969Y0003786668D02*
X0000506437Y0003758248D01*
X0000498389Y0003825272D02*
X0000500969Y0003786668D01*
X0000498639Y0003836983D02*
X0000498389Y0003825272D01*
X0000502342Y0003867084D02*
X0000498639Y0003836983D01*
X0000509660Y0003889206D02*
X0000502342Y0003867084D01*
X0000522208Y0003909468D02*
X0000509660Y0003889206D01*
X0000536690Y0003926336D02*
X0000522208Y0003909468D01*
X0000548157Y0003940507D02*
X0000536690Y0003926336D01*
X0000558570Y0003958085D02*
X0000548157Y0003940507D01*
X0000566091Y0003978373D02*
X0000558570Y0003958085D01*
X0000570175Y0003996990D02*
X0000566091Y0003978373D01*
X0000572252Y0004013180D02*
X0000570175Y0003996990D01*
X0000573621Y0004040434D02*
X0000572252Y0004013180D01*
X0000573543Y0004058862D02*
X0000573621Y0004040434D01*
X0000572411Y0004085158D02*
X0000573543Y0004058862D01*
X0000569920Y0004113219D02*
X0000572411Y0004085158D01*
X0000564404Y0004152987D02*
X0000569920Y0004113219D01*
X0000558567Y0004186144D02*
X0000564404Y0004152987D01*
X0000549500Y0004235515D02*
X0000558567Y0004186144D01*
X0000543457Y0004276286D02*
X0000549500Y0004235515D01*
X0000540937Y0004302482D02*
X0000543457Y0004276286D01*
X0000539754Y0004328187D02*
X0000540937Y0004302482D01*
X0000540021Y0004356052D02*
X0000539754Y0004328187D01*
X0000542376Y0004388501D02*
X0000540021Y0004356052D01*
X0000547248Y0004423384D02*
X0000542376Y0004388501D01*
X0000554216Y0004457723D02*
X0000547248Y0004423384D01*
X0000562611Y0004490294D02*
X0000554216Y0004457723D01*
X0000572463Y0004522593D02*
X0000562611Y0004490294D01*
X0000582890Y0004552771D02*
X0000572463Y0004522593D01*
X0000599952Y0004596771D02*
X0000582890Y0004552771D01*
X0000607967Y0004615785D02*
X0000599952Y0004596771D01*
X0000621249Y0004645167D02*
X0000607967Y0004615785D01*
X0000648123Y0004697245D02*
X0000621249Y0004645167D01*
X0000665797Y0004726666D02*
X0000648123Y0004697245D01*
X0000682940Y0004751910D02*
X0000665797Y0004726666D01*
X0000708333Y0004783883D02*
X0000682940Y0004751910D01*
X0000734841Y0004811007D02*
X0000708333Y0004783883D01*
X0000756040Y0004828528D02*
X0000734841Y0004811007D01*
X0000789913Y0004849541D02*
X0000756040Y0004828528D01*
X0000828599Y0004864028D02*
X0000789913Y0004849541D01*
X0000870772Y0004869437D02*
X0000828599Y0004864028D01*
X0000907046Y0004866199D02*
X0000870772Y0004869437D01*
X0000956549Y0004851053D02*
X0000907046Y0004866199D01*
X0000978662Y0004841122D02*
X0000956549Y0004851053D01*
X0001014650Y0004820455D02*
X0000978662Y0004841122D01*
X0001039417Y0004797750D02*
X0001014650Y0004820455D01*
X0001058614Y0004768848D02*
X0001039417Y0004797750D01*
X0001075804Y0004740336D02*
X0001058614Y0004768848D01*
X0001084443Y0004727674D02*
X0001075804Y0004740336D01*
X0001098441Y0004706439D02*
X0001084443Y0004727674D01*
X0001107932Y0004693114D02*
X0001098441Y0004706439D01*
X0001146906Y0004663023D02*
X0001107932Y0004693114D01*
X0001194278Y0004652724D02*
X0001146906Y0004663023D01*
X0001236106Y0004661177D02*
X0001194278Y0004652724D01*
X0001279321Y0004693923D02*
X0001236106Y0004661177D01*
X0001289334Y0004706255D02*
X0001279321Y0004693923D01*
X0001328787Y0004752217D02*
X0001289334Y0004706255D01*
X0001362628Y0004788744D02*
X0001328787Y0004752217D01*
X0001410435Y0004836509D02*
X0001362628Y0004788744D01*
X0001453938Y0004876605D02*
X0001410435Y0004836509D01*
X0001513447Y0004926970D02*
X0001453938Y0004876605D01*
X0001568969Y0004969872D02*
X0001513447Y0004926970D01*
X0001644556Y0005022743D02*
X0001568969Y0004969872D01*
X0001709939Y0005063922D02*
X0001644556Y0005022743D01*
X0001779659Y0005103686D02*
X0001709939Y0005063922D01*
X0001833975Y0005131962D02*
X0001779659Y0005103686D01*
X0001930708Y0005177000D02*
X0001833975Y0005131962D01*
X0002039637Y0005220357D02*
X0001930708Y0005177000D01*
X0002151632Y0005257674D02*
X0002039637Y0005220357D01*
X0002239380Y0005282254D02*
X0002151632Y0005257674D01*
X0002254601Y0005286127D02*
X0002239380Y0005282254D01*
X0002318765Y0005301242D02*
X0002254601Y0005286127D01*
X0002358177Y0005309585D02*
X0002318765Y0005301242D01*
X0002412106Y0005319889D02*
X0002358177Y0005309585D01*
X0002478285Y0005330841D02*
X0002412106Y0005319889D01*
X0002553023Y0005341072D02*
X0002478285Y0005330841D01*
X0002623649Y0005348752D02*
X0002553023Y0005341072D01*
X0002687588Y0005354114D02*
X0002623649Y0005348752D01*
X0002764282Y0005358636D02*
X0002687588Y0005354114D01*
X0002805723Y0005360244D02*
X0002764282Y0005358636D01*
X0002847091Y0005361283D02*
X0002805723Y0005360244D01*
X0002860480Y0005361500D02*
X0002847091Y0005361283D01*
X0002917883Y0005360159D02*
X0002860480Y0005361500D01*
X0002963048Y0005358338D02*
X0002917883Y0005360159D01*
X0003026834Y0005354579D02*
X0002963048Y0005358338D01*
X0003078194Y0005350511D02*
X0003026834Y0005354579D01*
X0003148419Y0005343383D02*
X0003078194Y0005350511D01*
X0003187912Y0005338553D02*
X0003148419Y0005343383D01*
X0003220917Y0005334049D02*
X0003187912Y0005338553D01*
X0003285793Y0005323913D02*
X0003220917Y0005334049D01*
X0003350682Y0005312008D02*
X0003285793Y0005323913D01*
X0003407043Y0005300167D02*
X0003350682Y0005312008D01*
X0003466508Y0005286089D02*
X0003407043Y0005300167D01*
X0003525854Y0005270339D02*
X0003466508Y0005286089D01*
X0003591496Y0005250834D02*
X0003525854Y0005270339D01*
X0003615565Y0005243109D02*
X0003591496Y0005250834D01*
X0003649813Y0005231566D02*
X0003615565Y0005243109D01*
X0003722673Y0005204761D02*
X0003649813Y0005231566D01*
X0003792834Y0005175881D02*
X0003722673Y0005204761D01*
X0003844888Y0005152365D02*
X0003792834Y0005175881D01*
X0003900155Y0005125312D02*
X0003844888Y0005152365D01*
X0003978527Y0005082960D02*
X0003900155Y0005125312D01*
X0004026411Y0005054583D02*
X0003978527Y0005082960D01*
X0004091593Y0005012593D02*
X0004026411Y0005054583D01*
X0004111659Y0004998828D02*
X0004091593Y0005012593D01*
X0004150539Y0004970945D02*
X0004111659Y0004998828D01*
X0004200647Y0004932479D02*
X0004150539Y0004970945D01*
X0004235848Y0004903592D02*
X0004200647Y0004932479D01*
X0004270051Y0004873907D02*
X0004235848Y0004903592D01*
X0004303769Y0004842933D02*
X0004270051Y0004873907D01*
X0004339914Y0004807642D02*
X0004303769Y0004842933D01*
X0004379288Y0004766413D02*
X0004339914Y0004807642D01*
X0004401000Y0004742271D02*
X0004379288Y0004766413D01*
X0004424616Y0004714716D02*
X0004401000Y0004742271D01*
X0004452428Y0004687735D02*
X0004424616Y0004714716D01*
X0004487560Y0004665819D02*
X0004452428Y0004687735D01*
X0004523572Y0004652635D02*
X0004487560Y0004665819D01*
X0004575919Y0004646789D02*
X0004523572Y0004652635D01*
X0004621185Y0004654459D02*
X0004575919Y0004646789D01*
X0004664881Y0004676550D02*
X0004621185Y0004654459D01*
X0004695235Y0004706358D02*
X0004664881Y0004676550D01*
X0004709694Y0004724517D02*
X0004695235Y0004706358D01*
X0004740275Y0004758953D02*
X0004709694Y0004724517D01*
X0004769883Y0004788147D02*
X0004740275Y0004758953D01*
X0004805308Y0004818277D02*
X0004769883Y0004788147D01*
X0004846936Y0004846808D02*
X0004805308Y0004818277D01*
X0004893476Y0004868165D02*
X0004846936Y0004846808D01*
X0004942313Y0004872871D02*
X0004893476Y0004868165D01*
X0004972030Y0004863983D02*
X0004942313Y0004872871D01*
X0005022542Y0004834643D02*
X0004972030Y0004863983D01*
X0005064694Y0004798865D02*
X0005022542Y0004834643D01*
X0005100929Y0004760671D02*
X0005064694Y0004798865D01*
X0005123524Y0004733269D02*
X0005100929Y0004760671D01*
X0005145751Y0004703237D02*
X0005123524Y0004733269D01*
X0005160636Y0004681012D02*
X0005145751Y0004703237D01*
X0005177435Y0004653021D02*
X0005160636Y0004681012D01*
X0005190870Y0004626705D02*
X0005177435Y0004653021D01*
X0005201206Y0004598526D02*
X0005190870Y0004626705D01*
X0005209395Y0004555180D02*
X0005201206Y0004598526D01*
X0005213983Y0004510960D02*
X0005209395Y0004555180D01*
X0005215652Y0004469647D02*
X0005213983Y0004510960D01*
X0005215435Y0004433493D02*
X0005215652Y0004469647D01*
X0005212220Y0004373337D02*
X0005215435Y0004433493D01*
X0005205918Y0004312254D02*
X0005212220Y0004373337D01*
X0005200659Y0004274204D02*
X0005205918Y0004312254D01*
X0005194533Y0004236504D02*
X0005200659Y0004274204D01*
X0005184869Y0004185493D02*
X0005194533Y0004236504D01*
X0005176579Y0004147155D02*
X0005184869Y0004185493D01*
X0005169453Y0004117173D02*
X0005176579Y0004147155D01*
X0005156105Y0004067405D02*
X0005169453Y0004117173D01*
X0005147338Y0004040434D02*
X0005156105Y0004067405D01*
X0005144205Y0004027915D02*
X0005147338Y0004040434D01*
X0005146790Y0004006747D02*
X0005144205Y0004027915D01*
X0005157952Y0003984119D02*
X0005146790Y0004006747D01*
X0005170052Y0003965895D02*
X0005157952Y0003984119D01*
X0005198514Y0003920974D02*
X0005170052Y0003965895D01*
X0005215580Y0003878490D02*
X0005198514Y0003920974D01*
X0005222570Y0003825272D02*
X0005215580Y0003878490D01*
X0005221740Y0003803177D02*
X0005222570Y0003825272D01*
X0005215985Y0003764409D02*
X0005221740Y0003803177D01*
X0005201614Y0003720006D02*
X0005215985Y0003764409D01*
X0005187450Y0003692255D02*
X0005201614Y0003720006D01*
X0005172363Y0003670046D02*
X0005187450Y0003692255D01*
X0005166614Y0003662931D02*
X0005172363Y0003670046D01*
X0005150347Y0003646222D02*
X0005166614Y0003662931D01*
X0005164107Y0003644191D02*
X0005150347Y0003646222D01*
X0005191205Y0003639881D02*
X0005164107Y0003644191D01*
X0005238446Y0003628967D02*
X0005191205Y0003639881D01*
X0005269197Y0003617390D02*
X0005238446Y0003628967D01*
X0005300320Y0003599802D02*
X0005269197Y0003617390D01*
X0005320563Y0003583884D02*
X0005300320Y0003599802D01*
X0005344312Y0003558937D02*
X0005320563Y0003583884D01*
X0005366619Y0003526899D02*
X0005344312Y0003558937D01*
X0005388348Y0003483729D02*
X0005366619Y0003526899D01*
X0005403595Y0003442566D02*
X0005388348Y0003483729D01*
X0005415221Y0003401689D02*
X0005403595Y0003442566D01*
X0005423621Y0003364249D02*
X0005415221Y0003401689D01*
X0005434260Y0003300531D02*
X0005423621Y0003364249D01*
X0005438619Y0003265151D02*
X0005434260Y0003300531D01*
X0005442246Y0003227934D02*
X0005438619Y0003265151D01*
X0005444457Y0003198196D02*
X0005442246Y0003227934D01*
X0005446402Y0003157574D02*
X0005444457Y0003198196D01*
X0005447112Y0003108686D02*
X0005446402Y0003157574D01*
X0005446000Y0003058275D02*
X0005447112Y0003108686D01*
X0005442206Y0002997496D02*
X0005446000Y0003058275D01*
X0005437928Y0002954490D02*
X0005442206Y0002997496D01*
X0005433142Y0002917023D02*
X0005437928Y0002954490D01*
X0005425934Y0002870981D02*
X0005433142Y0002917023D01*
X0005420200Y0002839616D02*
X0005425934Y0002870981D01*
X0005409075Y0002786808D02*
X0005420200Y0002839616D01*
X0005398931Y0002744768D02*
X0005409075Y0002786808D01*
X0005379555Y0002674566D02*
X0005398931Y0002744768D01*
X0005364580Y0002626381D02*
X0005379555Y0002674566D01*
X0005351902Y0002588480D02*
X0005364580Y0002626381D01*
X0005332416Y0002534054D02*
X0005351902Y0002588480D01*
X0005310512Y0002476917D02*
X0005332416Y0002534054D01*
X0005296726Y0002442546D02*
X0005310512Y0002476917D01*
X0005270737Y0002379963D02*
X0005296726Y0002442546D01*
X0005254367Y0002341399D02*
X0005270737Y0002379963D01*
X0005239121Y0002305597D02*
X0005254367Y0002341399D01*
X0005229941Y0002285668D02*
X0005239121Y0002305597D01*
X0005187284Y0002220351D02*
X0005229941Y0002285668D01*
X0005157445Y0002189396D02*
X0005187284Y0002220351D01*
X0005121895Y0002161489D02*
X0005157445Y0002189396D01*
X0005090851Y0002142749D02*
X0005121895Y0002161489D01*
X0005053646Y0002125475D02*
X0005090851Y0002142749D01*
X0005016944Y0002112862D02*
X0005053646Y0002125475D01*
X0004983061Y0002104495D02*
X0005016944Y0002112862D01*
X0004958816Y0002100250D02*
X0004983061Y0002104495D01*
X0004933184Y0002097287D02*
X0004958816Y0002100250D01*
X0004900184Y0002096077D02*
X0004933184Y0002097287D01*
X0004885682Y0002058656D02*
X0004900184Y0002096077D01*
X0004871320Y0002027744D02*
X0004885682Y0002058656D01*
X0004847878Y0001984814D02*
X0004871320Y0002027744D01*
X0004807287Y0001924065D02*
X0004847878Y0001984814D01*
X0004762580Y0001870261D02*
X0004807287Y0001924065D01*
X0004728027Y0001835641D02*
X0004762580Y0001870261D01*
X0004685227Y0001799625D02*
X0004728027Y0001835641D01*
X0004640508Y0001769010D02*
X0004685227Y0001799625D01*
X0004612384Y0001753054D02*
X0004640508Y0001769010D01*
X0004589512Y0001741823D02*
X0004612384Y0001753054D01*
X0004552573Y0001726815D02*
X0004589512Y0001741823D01*
X0004521017Y0001716910D02*
X0004552573Y0001726815D01*
X0004517285Y0001694948D02*
X0004521017Y0001716910D01*
X0004510973Y0001660820D02*
X0004517285Y0001694948D01*
X0004492275Y0001563618D02*
X0004510973Y0001660820D01*
X0004482903Y0001515800D02*
X0004492275Y0001563618D01*
X0004478465Y0001493390D02*
X0004482903Y0001515800D01*
X0004466378Y0001457696D02*
X0004478465Y0001493390D01*
X0004453157Y0001427697D02*
X0004466378Y0001457696D01*
X0004434600Y0001391450D02*
X0004453157Y0001427697D01*
X0004419061Y0001363991D02*
X0004434600Y0001391450D01*
X0004388469Y0001314754D02*
X0004419061Y0001363991D01*
X0004379522Y0001301421D02*
X0004388469Y0001314754D01*
X0004355185Y0001262252D02*
X0004379522Y0001301421D01*
X0004339866Y0001237597D02*
X0004355185Y0001262252D01*
X0004320459Y0001206361D02*
X0004339866Y0001237597D01*
X0004312587Y0001193692D02*
X0004320459Y0001206361D01*
X0004294600Y0001157177D02*
X0004312587Y0001193692D01*
X0004265470Y0001118493D02*
X0004294600Y0001157177D01*
X0004257308Y0001108805D02*
X0004265470Y0001118493D01*
X0004228992Y0001077572D02*
X0004257308Y0001108805D01*
X0004191516Y0001043709D02*
X0004228992Y0001077572D01*
X0004138467Y0001000418D02*
X0004191516Y0001043709D01*
X0004104638Y0000974325D02*
X0004138467Y0001000418D01*
X0004082020Y0000957353D02*
X0004104638Y0000974325D01*
X0004046054Y0000931101D02*
X0004082020Y0000957353D01*
X0004027921Y0000920746D02*
X0004046054Y0000931101D01*
X0003991632Y0000895084D02*
X0004027921Y0000920746D01*
X0003969329Y0000875346D02*
X0003991632Y0000895084D01*
X0003948367Y0000853276D02*
X0003969329Y0000875346D01*
X0003924500Y0000822655D02*
X0003948367Y0000853276D01*
X0003907611Y0000795896D02*
X0003924500Y0000822655D01*
X0003889579Y0000758238D02*
X0003907611Y0000795896D01*
X0003878251Y0000727441D02*
X0003889579Y0000758238D01*
X0003865872Y0000691218D02*
X0003878251Y0000727441D01*
X0003852356Y0000649579D02*
X0003865872Y0000691218D01*
X0003841886Y0000616160D02*
X0003852356Y0000649579D01*
X0003826315Y0000564724D02*
X0003841886Y0000616160D01*
X0003818918Y0000537312D02*
X0003826315Y0000564724D01*
X0003807899Y0000506862D02*
X0003818918Y0000537312D01*
X0003797505Y0000482602D02*
X0003807899Y0000506862D01*
X0003782434Y0000451427D02*
X0003797505Y0000482602D01*
X0003767384Y0000423343D02*
X0003782434Y0000451427D01*
X0003752554Y0000398041D02*
X0003767384Y0000423343D01*
X0003732593Y0000370339D02*
X0003752554Y0000398041D01*
X0003712915Y0000351471D02*
X0003732593Y0000370339D01*
X0003688423Y0000333421D02*
X0003712915Y0000351471D01*
X0003628997Y0000302286D02*
X0003688423Y0000333421D01*
X0003557937Y0000277369D02*
X0003628997Y0000302286D01*
X0003491285Y0000261060D02*
X0003557937Y0000277369D01*
X0003445110Y0000252709D02*
X0003491285Y0000261060D01*
X0003395431Y0000246304D02*
X0003445110Y0000252709D01*
X0003339889Y0000239361D02*
X0003395431Y0000246304D01*
X0003263848Y0000232281D02*
X0003339889Y0000239361D01*
X0003181803Y0000226838D02*
X0003263848Y0000232281D01*
X0003126203Y0000224122D02*
X0003181803Y0000226838D01*
X0003053989Y0000221536D02*
X0003126203Y0000224122D01*
X0002960746Y0000219509D02*
X0003053989Y0000221536D01*
X0002910308Y0000218951D02*
X0002960746Y0000219509D01*
X0002853135Y0000218739D02*
X0002910308Y0000218951D01*
X0002783934Y0000219074D02*
X0002853135Y0000218739D01*
X0002728990Y0000219880D02*
X0002783934Y0000219074D01*
X0002652249Y0000221509D02*
X0002728990Y0000219880D01*
X0002556734Y0000226737D02*
X0002652249Y0000221509D01*
X0002462780Y0000234477D02*
X0002556734Y0000226737D01*
X0002382800Y0000242710D02*
X0002462780Y0000234477D01*
X0002318200Y0000250346D02*
X0002382800Y0000242710D01*
X0002272847Y0000256227D02*
X0002318200Y0000250346D01*
X0002221429Y0000263512D02*
X0002272847Y0000256227D01*
X0002185950Y0000270827D02*
X0002221429Y0000263512D01*
X0002152287Y0000279544D02*
X0002185950Y0000270827D01*
X0002111866Y0000292758D02*
X0002152287Y0000279544D01*
X0002095727Y0000299046D02*
X0002111866Y0000292758D01*
X0002065350Y0000312877D02*
X0002095727Y0000299046D01*
X0002038728Y0000327945D02*
X0002065350Y0000312877D01*
X0002023380Y0000338909D02*
X0002038728Y0000327945D01*
X0002004529Y0000357478D02*
X0002023380Y0000338909D01*
X0001982655Y0000382066D02*
X0002004529Y0000357478D01*
X0001958584Y0000414565D02*
X0001982655Y0000382066D01*
X0001942954Y0000440692D02*
X0001958584Y0000414565D01*
X0001927261Y0000476752D02*
X0001942954Y0000440692D01*
X0001916990Y0000502838D02*
X0001927261Y0000476752D01*
X0001900070Y0000551323D02*
X0001916990Y0000502838D01*
X0001886884Y0000590841D02*
X0001900070Y0000551323D01*
X0001880343Y0000610774D02*
X0001886884Y0000590841D01*
X0001873024Y0000633273D02*
X0001880343Y0000610774D01*
X0001865205Y0000657508D02*
X0001873024Y0000633273D01*
X0001855914Y0000686534D02*
X0001865205Y0000657508D01*
X0001843883Y0000724467D02*
X0001855914Y0000686534D01*
X0001839014Y0000739948D02*
X0001843883Y0000724467D01*
X0001822166Y0000779351D02*
X0001839014Y0000739948D01*
X0001790991Y0000830029D02*
X0001822166Y0000779351D01*
X0001769494Y0000856602D02*
X0001790991Y0000830029D01*
X0001755579Y0000871360D02*
X0001769494Y0000856602D01*
X0001736080Y0000889055D02*
X0001755579Y0000871360D01*
X0001702291Y0000912175D02*
X0001736080Y0000889055D01*
X0001655066Y0000945519D02*
X0001702291Y0000912175D01*
X0001622503Y0000969372D02*
X0001655066Y0000945519D01*
X0001585968Y0000997271D02*
X0001622503Y0000969372D01*
X0001559283Y0001018918D02*
X0001585968Y0000997271D01*
X0001538694Y0001035730D02*
X0001559283Y0001018918D01*
X0001495719Y0001074930D02*
X0001538694Y0001035730D01*
X0001464317Y0001108332D02*
X0001495719Y0001074930D01*
X0001442465Y0001135228D02*
X0001464317Y0001108332D01*
X0001420299Y0001168628D02*
X0001442465Y0001135228D01*
X0001405716Y0001197862D02*
X0001420299Y0001168628D01*
X0001399051Y0001211222D02*
X0001405716Y0001197862D01*
X0001375603Y0001248226D02*
X0001399051Y0001211222D01*
X0001350623Y0001288049D02*
X0001375603Y0001248226D01*
X0001328760Y0001323057D02*
X0001350623Y0001288049D01*
X0001296193Y0001375372D02*
X0001328760Y0001323057D01*
X0001286940Y0001390270D02*
X0001296193Y0001375372D01*
X0001270653Y0001420638D02*
X0001286940Y0001390270D01*
X0001251737Y0001471062D02*
X0001270653Y0001420638D01*
X0001240392Y0001512735D02*
X0001251737Y0001471062D01*
X0001229355Y0001567908D02*
X0001240392Y0001512735D01*
X0001226631Y0001586383D02*
X0001229355Y0001567908D01*
X0001216873Y0001620212D02*
X0001226631Y0001586383D01*
X0001211045Y0001647138D02*
X0001216873Y0001620212D01*
X0001203243Y0001691956D02*
X0001211045Y0001647138D01*
X0001201052Y0001707027D02*
X0001203243Y0001691956D01*
X0001164047Y0001717387D02*
X0001201052Y0001707027D01*
X0001133580Y0001728414D02*
X0001164047Y0001717387D01*
X0001108830Y0001739542D02*
X0001133580Y0001728414D01*
X0001094296Y0001747520D02*
X0001108830Y0001739542D01*
X0001069921Y0001759567D02*
X0001094296Y0001747520D01*
X0001057836Y0001766514D02*
X0001069921Y0001759567D01*
X0001026672Y0001787089D02*
X0001057836Y0001766514D01*
X0000995451Y0001811301D02*
X0001026672Y0001787089D01*
X0000973423Y0001830783D02*
X0000995451Y0001811301D01*
X0000960420Y0001842736D02*
X0000973423Y0001830783D01*
X0000939776Y0001863327D02*
X0000960420Y0001842736D01*
X0000920474Y0001884574D02*
X0000939776Y0001863327D01*
X0000901531Y0001907683D02*
X0000920474Y0001884574D01*
X0000885531Y0001929757D02*
X0000901531Y0001907683D01*
X0000870040Y0001952791D02*
X0000885531Y0001929757D01*
X0000856209Y0001975552D02*
X0000870040Y0001952791D01*
X0000843017Y0001999482D02*
X0000856209Y0001975552D01*
X0000825214Y0002035968D02*
X0000843017Y0001999482D01*
X0000815416Y0002058689D02*
X0000825214Y0002035968D01*
X0000808320Y0002076777D02*
X0000815416Y0002058689D01*
X0000801573Y0002096077D02*
X0000808320Y0002076777D01*
X0005085564Y0005498723D02*
X0005085564Y0005498723D01*
X0005085564Y0005498723D02*
X0005085564Y0005498723D01*
X0005684120Y0003988915D02*
X0005684120Y0003988915D01*
X0005684120Y0003988915D02*
X0005684120Y0003988915D01*
X0005417870Y0003612339D02*
X0005417870Y0003612339D01*
X0005417870Y0003612339D02*
X0005417870Y0003612339D01*
X0005122776Y0005290735D02*
X0005122776Y0005290735D01*
X0005122776Y0005290735D02*
X0005122776Y0005290735D01*
G04 next file*
%LPD*%
G04 #@! TF.FileFunction,Profile,NP*
G04 Gerber Fmt 4.6, Leading zero omitted, Abs format (unit mm)*
G04 Created by KiCad (PCBNEW 4.0.4-stable) date 05/16/17 13:47:45*
G01*
G04 APERTURE LIST*
G04 APERTURE END LIST*
D21*
X0006085019Y0002097152D02*
X0006100785Y0002096077D01*
X0006071578Y0002098618D02*
X0006085019Y0002097152D01*
X0006042063Y0002103419D02*
X0006071578Y0002098618D01*
X0006009477Y0002111215D02*
X0006042063Y0002103419D01*
X0005968294Y0002125138D02*
X0006009477Y0002111215D01*
X0005935482Y0002140038D02*
X0005968294Y0002125138D01*
X0005902035Y0002159551D02*
X0005935482Y0002140038D01*
X0005879061Y0002176143D02*
X0005902035Y0002159551D01*
X0005853110Y0002198969D02*
X0005879061Y0002176143D01*
X0005824736Y0002230782D02*
X0005853110Y0002198969D01*
X0005802506Y0002263293D02*
X0005824736Y0002230782D01*
X0005781052Y0002305597D02*
X0005802506Y0002263293D01*
X0005767056Y0002338467D02*
X0005781052Y0002305597D01*
X0005756484Y0002363312D02*
X0005767056Y0002338467D01*
X0005743533Y0002393987D02*
X0005756484Y0002363312D01*
X0005728933Y0002429126D02*
X0005743533Y0002393987D01*
X0005718738Y0002454170D02*
X0005728933Y0002429126D01*
X0005708916Y0002478804D02*
X0005718738Y0002454170D01*
X0005687666Y0002534295D02*
X0005708916Y0002478804D01*
X0005669076Y0002586146D02*
X0005687666Y0002534295D01*
X0005654673Y0002629223D02*
X0005669076Y0002586146D01*
X0005640709Y0002674256D02*
X0005654673Y0002629223D01*
X0005629555Y0002713309D02*
X0005640709Y0002674256D01*
X0005617371Y0002760265D02*
X0005629555Y0002713309D01*
X0005595289Y0002864955D02*
X0005617371Y0002760265D01*
X0005588127Y0002909377D02*
X0005595289Y0002864955D01*
X0005575862Y0003025901D02*
X0005588127Y0002909377D01*
X0005573623Y0003074088D02*
X0005575862Y0003025901D01*
X0005573063Y0003119225D02*
X0005573623Y0003074088D01*
X0005574518Y0003176395D02*
X0005573063Y0003119225D01*
X0005577927Y0003227934D02*
X0005574518Y0003176395D01*
X0005580358Y0003253870D02*
X0005577927Y0003227934D01*
X0005585404Y0003296776D02*
X0005580358Y0003253870D01*
X0005590729Y0003332377D02*
X0005585404Y0003296776D01*
X0005602923Y0003393385D02*
X0005590729Y0003332377D01*
X0005610972Y0003424141D02*
X0005602923Y0003393385D01*
X0005620843Y0003455268D02*
X0005610972Y0003424141D01*
X0005640982Y0003503724D02*
X0005620843Y0003455268D01*
X0005655966Y0003530872D02*
X0005640982Y0003503724D01*
X0005680413Y0003564349D02*
X0005655966Y0003530872D01*
X0005694602Y0003579256D02*
X0005680413Y0003564349D01*
X0005709300Y0003592028D02*
X0005694602Y0003579256D01*
X0005737995Y0003610911D02*
X0005709300Y0003592028D01*
X0005763262Y0003622584D02*
X0005737995Y0003610911D01*
X0005784437Y0003629781D02*
X0005763262Y0003622584D01*
X0005816410Y0003637538D02*
X0005784437Y0003629781D01*
X0005869824Y0003646222D02*
X0005816410Y0003637538D01*
X0005853436Y0003663075D02*
X0005869824Y0003646222D01*
X0005836780Y0003685699D02*
X0005853436Y0003663075D01*
X0005826405Y0003703542D02*
X0005836780Y0003685699D01*
X0005813375Y0003733039D02*
X0005826405Y0003703542D01*
X0005805649Y0003758248D02*
X0005813375Y0003733039D01*
X0005800182Y0003786668D02*
X0005805649Y0003758248D01*
X0005797602Y0003825272D02*
X0005800182Y0003786668D01*
X0005797851Y0003836983D02*
X0005797602Y0003825272D01*
X0005801554Y0003867084D02*
X0005797851Y0003836983D01*
X0005808872Y0003889206D02*
X0005801554Y0003867084D01*
X0005821421Y0003909468D02*
X0005808872Y0003889206D01*
X0005835902Y0003926336D02*
X0005821421Y0003909468D01*
X0005847369Y0003940507D02*
X0005835902Y0003926336D01*
X0005857783Y0003958085D02*
X0005847369Y0003940507D01*
X0005865303Y0003978373D02*
X0005857783Y0003958085D01*
X0005869388Y0003996990D02*
X0005865303Y0003978373D01*
X0005871465Y0004013180D02*
X0005869388Y0003996990D01*
X0005872834Y0004040434D02*
X0005871465Y0004013180D01*
X0005872755Y0004058862D02*
X0005872834Y0004040434D01*
X0005871624Y0004085158D02*
X0005872755Y0004058862D01*
X0005869133Y0004113219D02*
X0005871624Y0004085158D01*
X0005863616Y0004152987D02*
X0005869133Y0004113219D01*
X0005857779Y0004186144D02*
X0005863616Y0004152987D01*
X0005848713Y0004235515D02*
X0005857779Y0004186144D01*
X0005842669Y0004276286D02*
X0005848713Y0004235515D01*
X0005840150Y0004302482D02*
X0005842669Y0004276286D01*
X0005838967Y0004328187D02*
X0005840150Y0004302482D01*
X0005839234Y0004356052D02*
X0005838967Y0004328187D01*
X0005841588Y0004388501D02*
X0005839234Y0004356052D01*
X0005846461Y0004423384D02*
X0005841588Y0004388501D01*
X0005853429Y0004457723D02*
X0005846461Y0004423384D01*
X0005861824Y0004490294D02*
X0005853429Y0004457723D01*
X0005871675Y0004522593D02*
X0005861824Y0004490294D01*
X0005882103Y0004552771D02*
X0005871675Y0004522593D01*
X0005899164Y0004596771D02*
X0005882103Y0004552771D01*
X0005907179Y0004615785D02*
X0005899164Y0004596771D01*
X0005920461Y0004645167D02*
X0005907179Y0004615785D01*
X0005947335Y0004697245D02*
X0005920461Y0004645167D01*
X0005965010Y0004726666D02*
X0005947335Y0004697245D01*
X0005982153Y0004751910D02*
X0005965010Y0004726666D01*
X0006007545Y0004783883D02*
X0005982153Y0004751910D01*
X0006034054Y0004811007D02*
X0006007545Y0004783883D01*
X0006055252Y0004828528D02*
X0006034054Y0004811007D01*
X0006089126Y0004849541D02*
X0006055252Y0004828528D01*
X0006127812Y0004864028D02*
X0006089126Y0004849541D01*
X0006169985Y0004869437D02*
X0006127812Y0004864028D01*
X0006206259Y0004866199D02*
X0006169985Y0004869437D01*
X0006255762Y0004851053D02*
X0006206259Y0004866199D01*
X0006277874Y0004841122D02*
X0006255762Y0004851053D01*
X0006313862Y0004820455D02*
X0006277874Y0004841122D01*
X0006338629Y0004797750D02*
X0006313862Y0004820455D01*
X0006357827Y0004768848D02*
X0006338629Y0004797750D01*
X0006375016Y0004740336D02*
X0006357827Y0004768848D01*
X0006383656Y0004727674D02*
X0006375016Y0004740336D01*
X0006397654Y0004706439D02*
X0006383656Y0004727674D01*
X0006407144Y0004693114D02*
X0006397654Y0004706439D01*
X0006446118Y0004663023D02*
X0006407144Y0004693114D01*
X0006493491Y0004652724D02*
X0006446118Y0004663023D01*
X0006535319Y0004661177D02*
X0006493491Y0004652724D01*
X0006578533Y0004693923D02*
X0006535319Y0004661177D01*
X0006588546Y0004706255D02*
X0006578533Y0004693923D01*
X0006627999Y0004752217D02*
X0006588546Y0004706255D01*
X0006661841Y0004788744D02*
X0006627999Y0004752217D01*
X0006709648Y0004836509D02*
X0006661841Y0004788744D01*
X0006753150Y0004876605D02*
X0006709648Y0004836509D01*
X0006812659Y0004926970D02*
X0006753150Y0004876605D01*
X0006868182Y0004969872D02*
X0006812659Y0004926970D01*
X0006943768Y0005022743D02*
X0006868182Y0004969872D01*
X0007009152Y0005063922D02*
X0006943768Y0005022743D01*
X0007078872Y0005103686D02*
X0007009152Y0005063922D01*
X0007133188Y0005131962D02*
X0007078872Y0005103686D01*
X0007229920Y0005177000D02*
X0007133188Y0005131962D01*
X0007338849Y0005220357D02*
X0007229920Y0005177000D01*
X0007450844Y0005257674D02*
X0007338849Y0005220357D01*
X0007538593Y0005282254D02*
X0007450844Y0005257674D01*
X0007553814Y0005286127D02*
X0007538593Y0005282254D01*
X0007617977Y0005301242D02*
X0007553814Y0005286127D01*
X0007657389Y0005309585D02*
X0007617977Y0005301242D01*
X0007711318Y0005319889D02*
X0007657389Y0005309585D01*
X0007777497Y0005330841D02*
X0007711318Y0005319889D01*
X0007852236Y0005341072D02*
X0007777497Y0005330841D01*
X0007922862Y0005348752D02*
X0007852236Y0005341072D01*
X0007986800Y0005354114D02*
X0007922862Y0005348752D01*
X0008063494Y0005358636D02*
X0007986800Y0005354114D01*
X0008104936Y0005360244D02*
X0008063494Y0005358636D01*
X0008146304Y0005361283D02*
X0008104936Y0005360244D01*
X0008159693Y0005361500D02*
X0008146304Y0005361283D01*
X0008217095Y0005360159D02*
X0008159693Y0005361500D01*
X0008262261Y0005358338D02*
X0008217095Y0005360159D01*
X0008326047Y0005354579D02*
X0008262261Y0005358338D01*
X0008377406Y0005350511D02*
X0008326047Y0005354579D01*
X0008447631Y0005343383D02*
X0008377406Y0005350511D01*
X0008487124Y0005338553D02*
X0008447631Y0005343383D01*
X0008520130Y0005334049D02*
X0008487124Y0005338553D01*
X0008585005Y0005323913D02*
X0008520130Y0005334049D01*
X0008649895Y0005312008D02*
X0008585005Y0005323913D01*
X0008706256Y0005300167D02*
X0008649895Y0005312008D01*
X0008765721Y0005286089D02*
X0008706256Y0005300167D01*
X0008825067Y0005270339D02*
X0008765721Y0005286089D01*
X0008890708Y0005250834D02*
X0008825067Y0005270339D01*
X0008914778Y0005243109D02*
X0008890708Y0005250834D01*
X0008949026Y0005231566D02*
X0008914778Y0005243109D01*
X0009021886Y0005204761D02*
X0008949026Y0005231566D01*
X0009092047Y0005175881D02*
X0009021886Y0005204761D01*
X0009144100Y0005152365D02*
X0009092047Y0005175881D01*
X0009199367Y0005125312D02*
X0009144100Y0005152365D01*
X0009277740Y0005082960D02*
X0009199367Y0005125312D01*
X0009325623Y0005054583D02*
X0009277740Y0005082960D01*
X0009390806Y0005012593D02*
X0009325623Y0005054583D01*
X0009410872Y0004998828D02*
X0009390806Y0005012593D01*
X0009449752Y0004970945D02*
X0009410872Y0004998828D01*
X0009499859Y0004932479D02*
X0009449752Y0004970945D01*
X0009535061Y0004903592D02*
X0009499859Y0004932479D01*
X0009569263Y0004873907D02*
X0009535061Y0004903592D01*
X0009602982Y0004842933D02*
X0009569263Y0004873907D01*
X0009639127Y0004807642D02*
X0009602982Y0004842933D01*
X0009678501Y0004766413D02*
X0009639127Y0004807642D01*
X0009700212Y0004742271D02*
X0009678501Y0004766413D01*
X0009723829Y0004714716D02*
X0009700212Y0004742271D01*
X0009751641Y0004687735D02*
X0009723829Y0004714716D01*
X0009786772Y0004665819D02*
X0009751641Y0004687735D01*
X0009822785Y0004652635D02*
X0009786772Y0004665819D01*
X0009875132Y0004646789D02*
X0009822785Y0004652635D01*
X0009920398Y0004654459D02*
X0009875132Y0004646789D01*
X0009964093Y0004676550D02*
X0009920398Y0004654459D01*
X0009994447Y0004706358D02*
X0009964093Y0004676550D01*
X0010008907Y0004724517D02*
X0009994447Y0004706358D01*
X0010039487Y0004758953D02*
X0010008907Y0004724517D01*
X0010069096Y0004788147D02*
X0010039487Y0004758953D01*
X0010104521Y0004818277D02*
X0010069096Y0004788147D01*
X0010146148Y0004846808D02*
X0010104521Y0004818277D01*
X0010192689Y0004868165D02*
X0010146148Y0004846808D01*
X0010241526Y0004872871D02*
X0010192689Y0004868165D01*
X0010271243Y0004863983D02*
X0010241526Y0004872871D01*
X0010321754Y0004834643D02*
X0010271243Y0004863983D01*
X0010363907Y0004798865D02*
X0010321754Y0004834643D01*
X0010400142Y0004760671D02*
X0010363907Y0004798865D01*
X0010422736Y0004733269D02*
X0010400142Y0004760671D01*
X0010444964Y0004703237D02*
X0010422736Y0004733269D01*
X0010459849Y0004681012D02*
X0010444964Y0004703237D01*
X0010476648Y0004653021D02*
X0010459849Y0004681012D01*
X0010490083Y0004626705D02*
X0010476648Y0004653021D01*
X0010500419Y0004598526D02*
X0010490083Y0004626705D01*
X0010508608Y0004555180D02*
X0010500419Y0004598526D01*
X0010513196Y0004510960D02*
X0010508608Y0004555180D01*
X0010514865Y0004469647D02*
X0010513196Y0004510960D01*
X0010514647Y0004433493D02*
X0010514865Y0004469647D01*
X0010511433Y0004373337D02*
X0010514647Y0004433493D01*
X0010505130Y0004312254D02*
X0010511433Y0004373337D01*
X0010499872Y0004274204D02*
X0010505130Y0004312254D01*
X0010493746Y0004236504D02*
X0010499872Y0004274204D01*
X0010484081Y0004185493D02*
X0010493746Y0004236504D01*
X0010475792Y0004147155D02*
X0010484081Y0004185493D01*
X0010468666Y0004117173D02*
X0010475792Y0004147155D01*
X0010455317Y0004067405D02*
X0010468666Y0004117173D01*
X0010446550Y0004040434D02*
X0010455317Y0004067405D01*
X0010443418Y0004027915D02*
X0010446550Y0004040434D01*
X0010446002Y0004006747D02*
X0010443418Y0004027915D01*
X0010457165Y0003984119D02*
X0010446002Y0004006747D01*
X0010469265Y0003965895D02*
X0010457165Y0003984119D01*
X0010497727Y0003920974D02*
X0010469265Y0003965895D01*
X0010514793Y0003878490D02*
X0010497727Y0003920974D01*
X0010521782Y0003825272D02*
X0010514793Y0003878490D01*
X0010520953Y0003803177D02*
X0010521782Y0003825272D01*
X0010515198Y0003764409D02*
X0010520953Y0003803177D01*
X0010500827Y0003720006D02*
X0010515198Y0003764409D01*
X0010486663Y0003692255D02*
X0010500827Y0003720006D01*
X0010471576Y0003670046D02*
X0010486663Y0003692255D01*
X0010465827Y0003662931D02*
X0010471576Y0003670046D01*
X0010449560Y0003646222D02*
X0010465827Y0003662931D01*
X0010463319Y0003644191D02*
X0010449560Y0003646222D01*
X0010490418Y0003639881D02*
X0010463319Y0003644191D01*
X0010537659Y0003628967D02*
X0010490418Y0003639881D01*
X0010568409Y0003617390D02*
X0010537659Y0003628967D01*
X0010599532Y0003599802D02*
X0010568409Y0003617390D01*
X0010619776Y0003583884D02*
X0010599532Y0003599802D01*
X0010643524Y0003558937D02*
X0010619776Y0003583884D01*
X0010665832Y0003526899D02*
X0010643524Y0003558937D01*
X0010687561Y0003483729D02*
X0010665832Y0003526899D01*
X0010702808Y0003442566D02*
X0010687561Y0003483729D01*
X0010714434Y0003401689D02*
X0010702808Y0003442566D01*
X0010722833Y0003364249D02*
X0010714434Y0003401689D01*
X0010733472Y0003300531D02*
X0010722833Y0003364249D01*
X0010737831Y0003265151D02*
X0010733472Y0003300531D01*
X0010741459Y0003227934D02*
X0010737831Y0003265151D01*
X0010743670Y0003198196D02*
X0010741459Y0003227934D01*
X0010745615Y0003157574D02*
X0010743670Y0003198196D01*
X0010746325Y0003108686D02*
X0010745615Y0003157574D01*
X0010745213Y0003058275D02*
X0010746325Y0003108686D01*
X0010741419Y0002997496D02*
X0010745213Y0003058275D01*
X0010737141Y0002954490D02*
X0010741419Y0002997496D01*
X0010732355Y0002917023D02*
X0010737141Y0002954490D01*
X0010725146Y0002870981D02*
X0010732355Y0002917023D01*
X0010719413Y0002839616D02*
X0010725146Y0002870981D01*
X0010708287Y0002786808D02*
X0010719413Y0002839616D01*
X0010698144Y0002744768D02*
X0010708287Y0002786808D01*
X0010678767Y0002674566D02*
X0010698144Y0002744768D01*
X0010663792Y0002626381D02*
X0010678767Y0002674566D01*
X0010651114Y0002588480D02*
X0010663792Y0002626381D01*
X0010631629Y0002534054D02*
X0010651114Y0002588480D01*
X0010609725Y0002476917D02*
X0010631629Y0002534054D01*
X0010595939Y0002442546D02*
X0010609725Y0002476917D01*
X0010569950Y0002379963D02*
X0010595939Y0002442546D01*
X0010553579Y0002341399D02*
X0010569950Y0002379963D01*
X0010538334Y0002305597D02*
X0010553579Y0002341399D01*
X0010529154Y0002285668D02*
X0010538334Y0002305597D01*
X0010486497Y0002220351D02*
X0010529154Y0002285668D01*
X0010456658Y0002189396D02*
X0010486497Y0002220351D01*
X0010421108Y0002161489D02*
X0010456658Y0002189396D01*
X0010390064Y0002142749D02*
X0010421108Y0002161489D01*
X0010352859Y0002125475D02*
X0010390064Y0002142749D01*
X0010316157Y0002112862D02*
X0010352859Y0002125475D01*
X0010282274Y0002104495D02*
X0010316157Y0002112862D01*
X0010258028Y0002100250D02*
X0010282274Y0002104495D01*
X0010232396Y0002097287D02*
X0010258028Y0002100250D01*
X0010199396Y0002096077D02*
X0010232396Y0002097287D01*
X0010184895Y0002058656D02*
X0010199396Y0002096077D01*
X0010170532Y0002027744D02*
X0010184895Y0002058656D01*
X0010147091Y0001984814D02*
X0010170532Y0002027744D01*
X0010106499Y0001924065D02*
X0010147091Y0001984814D01*
X0010061793Y0001870261D02*
X0010106499Y0001924065D01*
X0010027240Y0001835641D02*
X0010061793Y0001870261D01*
X0009984439Y0001799625D02*
X0010027240Y0001835641D01*
X0009939720Y0001769010D02*
X0009984439Y0001799625D01*
X0009911597Y0001753054D02*
X0009939720Y0001769010D01*
X0009888725Y0001741823D02*
X0009911597Y0001753054D01*
X0009851786Y0001726815D02*
X0009888725Y0001741823D01*
X0009820230Y0001716910D02*
X0009851786Y0001726815D01*
X0009816498Y0001694948D02*
X0009820230Y0001716910D01*
X0009810186Y0001660820D02*
X0009816498Y0001694948D01*
X0009791488Y0001563618D02*
X0009810186Y0001660820D01*
X0009782115Y0001515800D02*
X0009791488Y0001563618D01*
X0009777677Y0001493390D02*
X0009782115Y0001515800D01*
X0009765591Y0001457696D02*
X0009777677Y0001493390D01*
X0009752369Y0001427697D02*
X0009765591Y0001457696D01*
X0009733812Y0001391450D02*
X0009752369Y0001427697D01*
X0009718274Y0001363991D02*
X0009733812Y0001391450D01*
X0009687682Y0001314754D02*
X0009718274Y0001363991D01*
X0009678735Y0001301421D02*
X0009687682Y0001314754D01*
X0009654398Y0001262252D02*
X0009678735Y0001301421D01*
X0009639079Y0001237597D02*
X0009654398Y0001262252D01*
X0009619671Y0001206361D02*
X0009639079Y0001237597D01*
X0009611799Y0001193692D02*
X0009619671Y0001206361D01*
X0009593813Y0001157177D02*
X0009611799Y0001193692D01*
X0009564683Y0001118493D02*
X0009593813Y0001157177D01*
X0009556521Y0001108805D02*
X0009564683Y0001118493D01*
X0009528205Y0001077572D02*
X0009556521Y0001108805D01*
X0009490728Y0001043709D02*
X0009528205Y0001077572D01*
X0009437679Y0001000418D02*
X0009490728Y0001043709D01*
X0009403850Y0000974325D02*
X0009437679Y0001000418D01*
X0009381233Y0000957353D02*
X0009403850Y0000974325D01*
X0009345266Y0000931101D02*
X0009381233Y0000957353D01*
X0009327133Y0000920746D02*
X0009345266Y0000931101D01*
X0009290844Y0000895084D02*
X0009327133Y0000920746D01*
X0009268542Y0000875346D02*
X0009290844Y0000895084D01*
X0009247580Y0000853276D02*
X0009268542Y0000875346D01*
X0009223713Y0000822655D02*
X0009247580Y0000853276D01*
X0009206824Y0000795896D02*
X0009223713Y0000822655D01*
X0009188791Y0000758238D02*
X0009206824Y0000795896D01*
X0009177464Y0000727441D02*
X0009188791Y0000758238D01*
X0009165085Y0000691218D02*
X0009177464Y0000727441D01*
X0009151568Y0000649579D02*
X0009165085Y0000691218D01*
X0009141099Y0000616160D02*
X0009151568Y0000649579D01*
X0009125528Y0000564724D02*
X0009141099Y0000616160D01*
X0009118131Y0000537312D02*
X0009125528Y0000564724D01*
X0009107111Y0000506862D02*
X0009118131Y0000537312D01*
X0009096718Y0000482602D02*
X0009107111Y0000506862D01*
X0009081646Y0000451427D02*
X0009096718Y0000482602D01*
X0009066597Y0000423343D02*
X0009081646Y0000451427D01*
X0009051767Y0000398041D02*
X0009066597Y0000423343D01*
X0009031805Y0000370339D02*
X0009051767Y0000398041D01*
X0009012127Y0000351471D02*
X0009031805Y0000370339D01*
X0008987635Y0000333421D02*
X0009012127Y0000351471D01*
X0008928209Y0000302286D02*
X0008987635Y0000333421D01*
X0008857150Y0000277369D02*
X0008928209Y0000302286D01*
X0008790498Y0000261060D02*
X0008857150Y0000277369D01*
X0008744323Y0000252709D02*
X0008790498Y0000261060D01*
X0008694644Y0000246304D02*
X0008744323Y0000252709D01*
X0008639102Y0000239361D02*
X0008694644Y0000246304D01*
X0008563061Y0000232281D02*
X0008639102Y0000239361D01*
X0008481016Y0000226838D02*
X0008563061Y0000232281D01*
X0008425415Y0000224122D02*
X0008481016Y0000226838D01*
X0008353202Y0000221536D02*
X0008425415Y0000224122D01*
X0008259958Y0000219509D02*
X0008353202Y0000221536D01*
X0008209521Y0000218951D02*
X0008259958Y0000219509D01*
X0008152347Y0000218739D02*
X0008209521Y0000218951D01*
X0008083147Y0000219074D02*
X0008152347Y0000218739D01*
X0008028203Y0000219880D02*
X0008083147Y0000219074D01*
X0007951462Y0000221509D02*
X0008028203Y0000219880D01*
X0007855947Y0000226737D02*
X0007951462Y0000221509D01*
X0007761992Y0000234477D02*
X0007855947Y0000226737D01*
X0007682013Y0000242710D02*
X0007761992Y0000234477D01*
X0007617412Y0000250346D02*
X0007682013Y0000242710D01*
X0007572059Y0000256227D02*
X0007617412Y0000250346D01*
X0007520642Y0000263512D02*
X0007572059Y0000256227D01*
X0007485162Y0000270827D02*
X0007520642Y0000263512D01*
X0007451499Y0000279544D02*
X0007485162Y0000270827D01*
X0007411079Y0000292758D02*
X0007451499Y0000279544D01*
X0007394939Y0000299046D02*
X0007411079Y0000292758D01*
X0007364562Y0000312877D02*
X0007394939Y0000299046D01*
X0007337941Y0000327945D02*
X0007364562Y0000312877D01*
X0007322592Y0000338909D02*
X0007337941Y0000327945D01*
X0007303741Y0000357478D02*
X0007322592Y0000338909D01*
X0007281868Y0000382066D02*
X0007303741Y0000357478D01*
X0007257796Y0000414565D02*
X0007281868Y0000382066D01*
X0007242167Y0000440692D02*
X0007257796Y0000414565D01*
X0007226474Y0000476752D02*
X0007242167Y0000440692D01*
X0007216203Y0000502838D02*
X0007226474Y0000476752D01*
X0007199283Y0000551323D02*
X0007216203Y0000502838D01*
X0007186097Y0000590841D02*
X0007199283Y0000551323D01*
X0007179556Y0000610774D02*
X0007186097Y0000590841D01*
X0007172237Y0000633273D02*
X0007179556Y0000610774D01*
X0007164418Y0000657508D02*
X0007172237Y0000633273D01*
X0007155127Y0000686534D02*
X0007164418Y0000657508D01*
X0007143096Y0000724467D02*
X0007155127Y0000686534D01*
X0007138227Y0000739948D02*
X0007143096Y0000724467D01*
X0007121379Y0000779351D02*
X0007138227Y0000739948D01*
X0007090204Y0000830029D02*
X0007121379Y0000779351D01*
X0007068707Y0000856602D02*
X0007090204Y0000830029D01*
X0007054792Y0000871360D02*
X0007068707Y0000856602D01*
X0007035292Y0000889055D02*
X0007054792Y0000871360D01*
X0007001503Y0000912175D02*
X0007035292Y0000889055D01*
X0006954279Y0000945519D02*
X0007001503Y0000912175D01*
X0006921716Y0000969372D02*
X0006954279Y0000945519D01*
X0006885181Y0000997271D02*
X0006921716Y0000969372D01*
X0006858496Y0001018918D02*
X0006885181Y0000997271D01*
X0006837907Y0001035730D02*
X0006858496Y0001018918D01*
X0006794931Y0001074930D02*
X0006837907Y0001035730D01*
X0006763530Y0001108332D02*
X0006794931Y0001074930D01*
X0006741677Y0001135228D02*
X0006763530Y0001108332D01*
X0006719512Y0001168628D02*
X0006741677Y0001135228D01*
X0006704928Y0001197862D02*
X0006719512Y0001168628D01*
X0006698263Y0001211222D02*
X0006704928Y0001197862D01*
X0006674816Y0001248226D02*
X0006698263Y0001211222D01*
X0006649836Y0001288049D02*
X0006674816Y0001248226D01*
X0006627973Y0001323057D02*
X0006649836Y0001288049D01*
X0006595406Y0001375372D02*
X0006627973Y0001323057D01*
X0006586152Y0001390270D02*
X0006595406Y0001375372D01*
X0006569865Y0001420638D02*
X0006586152Y0001390270D01*
X0006550950Y0001471062D02*
X0006569865Y0001420638D01*
X0006539605Y0001512735D02*
X0006550950Y0001471062D01*
X0006528568Y0001567908D02*
X0006539605Y0001512735D01*
X0006525843Y0001586383D02*
X0006528568Y0001567908D01*
X0006516085Y0001620212D02*
X0006525843Y0001586383D01*
X0006510258Y0001647138D02*
X0006516085Y0001620212D01*
X0006502456Y0001691956D02*
X0006510258Y0001647138D01*
X0006500264Y0001707027D02*
X0006502456Y0001691956D01*
X0006463259Y0001717387D02*
X0006500264Y0001707027D01*
X0006432793Y0001728414D02*
X0006463259Y0001717387D01*
X0006408042Y0001739542D02*
X0006432793Y0001728414D01*
X0006393508Y0001747520D02*
X0006408042Y0001739542D01*
X0006369133Y0001759567D02*
X0006393508Y0001747520D01*
X0006357048Y0001766514D02*
X0006369133Y0001759567D01*
X0006325885Y0001787089D02*
X0006357048Y0001766514D01*
X0006294664Y0001811301D02*
X0006325885Y0001787089D01*
X0006272636Y0001830783D02*
X0006294664Y0001811301D01*
X0006259633Y0001842736D02*
X0006272636Y0001830783D01*
X0006238989Y0001863327D02*
X0006259633Y0001842736D01*
X0006219687Y0001884574D02*
X0006238989Y0001863327D01*
X0006200744Y0001907683D02*
X0006219687Y0001884574D01*
X0006184743Y0001929757D02*
X0006200744Y0001907683D01*
X0006169253Y0001952791D02*
X0006184743Y0001929757D01*
X0006155421Y0001975552D02*
X0006169253Y0001952791D01*
X0006142230Y0001999482D02*
X0006155421Y0001975552D01*
X0006124427Y0002035968D02*
X0006142230Y0001999482D01*
X0006114629Y0002058689D02*
X0006124427Y0002035968D01*
X0006107532Y0002076777D02*
X0006114629Y0002058689D01*
X0006100785Y0002096077D02*
X0006107532Y0002076777D01*
X0010384777Y0005498723D02*
X0010384777Y0005498723D01*
X0010384777Y0005498723D02*
X0010384777Y0005498723D01*
X0010983332Y0003988915D02*
X0010983332Y0003988915D01*
X0010983332Y0003988915D02*
X0010983332Y0003988915D01*
X0010717082Y0003612339D02*
X0010717082Y0003612339D01*
X0010717082Y0003612339D02*
X0010717082Y0003612339D01*
X0010421989Y0005290735D02*
X0010421989Y0005290735D01*
X0010421989Y0005290735D02*
X0010421989Y0005290735D01*
M02*