%MOIN*%
%OFA0B0*%
%FSLAX44Y44*%
%IPPOS*%
%LPD*%
%ADD10C,0*%
D10*
X00109842Y00000000D02*
X00109842Y00000000D01*
X00109853Y00000000D01*
X00109864Y00000000D01*
X00109876Y00000001D01*
X00109887Y00000002D01*
X00109898Y00000004D01*
X00109909Y00000005D01*
X00109920Y00000007D01*
X00109931Y00000010D01*
X00109942Y00000012D01*
X00109953Y00000015D01*
X00109964Y00000019D01*
X00109974Y00000022D01*
X00109985Y00000026D01*
X00109995Y00000031D01*
X00110006Y00000035D01*
X00110016Y00000040D01*
X00110026Y00000045D01*
X00110036Y00000050D01*
X00110045Y00000056D01*
X00110055Y00000062D01*
X00110064Y00000068D01*
X00110073Y00000075D01*
X00110082Y00000081D01*
X00110091Y00000088D01*
X00110100Y00000096D01*
X00110108Y00000103D01*
X00110116Y00000111D01*
X00110124Y00000119D01*
X00110132Y00000127D01*
X00110140Y00000135D01*
X00110147Y00000144D01*
X00110154Y00000153D01*
X00110161Y00000162D01*
X00110167Y00000171D01*
X00110173Y00000180D01*
X00110179Y00000190D01*
X00110185Y00000200D01*
X00110190Y00000209D01*
X00110195Y00000219D01*
X00110200Y00000230D01*
X00110205Y00000240D01*
X00110209Y00000250D01*
X00110213Y00000261D01*
X00110216Y00000272D01*
X00110220Y00000282D01*
X00110223Y00000293D01*
X00110225Y00000304D01*
X00110228Y00000315D01*
X00110230Y00000326D01*
X00110232Y00000337D01*
X00110233Y00000348D01*
X00110234Y00000360D01*
X00110235Y00000371D01*
X00110236Y00000382D01*
X00110236Y00000393D01*
X00110236Y00056692D01*
X00110236Y00056704D01*
X00110235Y00056715D01*
X00110234Y00056726D01*
X00110233Y00056737D01*
X00110232Y00056748D01*
X00110230Y00056760D01*
X00110228Y00056771D01*
X00110225Y00056782D01*
X00110223Y00056793D01*
X00110220Y00056803D01*
X00110216Y00056814D01*
X00110213Y00056825D01*
X00110209Y00056835D01*
X00110205Y00056846D01*
X00110200Y00056856D01*
X00110195Y00056866D01*
X00110190Y00056876D01*
X00110185Y00056886D01*
X00110179Y00056896D01*
X00110173Y00056905D01*
X00110167Y00056915D01*
X00110161Y00056924D01*
X00110154Y00056933D01*
X00110147Y00056942D01*
X00110140Y00056950D01*
X00110132Y00056959D01*
X00110124Y00056967D01*
X00110116Y00056975D01*
X00110108Y00056982D01*
X00110100Y00056990D01*
X00110091Y00056997D01*
X00110082Y00057004D01*
X00110073Y00057011D01*
X00110064Y00057017D01*
X00110055Y00057024D01*
X00110045Y00057030D01*
X00110036Y00057035D01*
X00110026Y00057041D01*
X00110016Y00057046D01*
X00110006Y00057051D01*
X00109995Y00057055D01*
X00109985Y00057059D01*
X00109974Y00057063D01*
X00109964Y00057067D01*
X00109953Y00057070D01*
X00109942Y00057073D01*
X00109931Y00057076D01*
X00109920Y00057078D01*
X00109909Y00057080D01*
X00109898Y00057082D01*
X00109887Y00057084D01*
X00109876Y00057085D01*
X00109864Y00057085D01*
X00109853Y00057086D01*
X00109842Y00057086D01*
X00000393Y00057086D01*
X00000382Y00057086D01*
X00000371Y00057085D01*
X00000360Y00057085D01*
X00000348Y00057084D01*
X00000337Y00057082D01*
X00000326Y00057080D01*
X00000315Y00057078D01*
X00000304Y00057076D01*
X00000293Y00057073D01*
X00000282Y00057070D01*
X00000272Y00057067D01*
X00000261Y00057063D01*
X00000250Y00057059D01*
X00000240Y00057055D01*
X00000230Y00057051D01*
X00000219Y00057046D01*
X00000209Y00057041D01*
X00000200Y00057035D01*
X00000190Y00057030D01*
X00000180Y00057024D01*
X00000171Y00057017D01*
X00000162Y00057011D01*
X00000153Y00057004D01*
X00000144Y00056997D01*
X00000135Y00056990D01*
X00000127Y00056982D01*
X00000119Y00056975D01*
X00000111Y00056967D01*
X00000103Y00056959D01*
X00000096Y00056950D01*
X00000088Y00056942D01*
X00000081Y00056933D01*
X00000075Y00056924D01*
X00000068Y00056915D01*
X00000062Y00056905D01*
X00000056Y00056896D01*
X00000050Y00056886D01*
X00000045Y00056876D01*
X00000040Y00056866D01*
X00000035Y00056856D01*
X00000031Y00056846D01*
X00000026Y00056835D01*
X00000022Y00056825D01*
X00000019Y00056814D01*
X00000015Y00056803D01*
X00000012Y00056793D01*
X00000010Y00056782D01*
X00000007Y00056771D01*
X00000005Y00056760D01*
X00000004Y00056748D01*
X00000002Y00056737D01*
X00000001Y00056726D01*
X00000000Y00056715D01*
X00000000Y00056704D01*
X00000000Y00056692D01*
X00000000Y00000393D01*
X00000000Y00000382D01*
X00000000Y00000371D01*
X00000001Y00000360D01*
X00000002Y00000348D01*
X00000004Y00000337D01*
X00000005Y00000326D01*
X00000007Y00000315D01*
X00000010Y00000304D01*
X00000012Y00000293D01*
X00000015Y00000282D01*
X00000019Y00000272D01*
X00000022Y00000261D01*
X00000026Y00000250D01*
X00000031Y00000240D01*
X00000035Y00000230D01*
X00000040Y00000219D01*
X00000045Y00000209D01*
X00000050Y00000200D01*
X00000056Y00000190D01*
X00000062Y00000180D01*
X00000068Y00000171D01*
X00000075Y00000162D01*
X00000081Y00000153D01*
X00000088Y00000144D01*
X00000096Y00000135D01*
X00000103Y00000127D01*
X00000111Y00000119D01*
X00000119Y00000111D01*
X00000127Y00000103D01*
X00000135Y00000096D01*
X00000144Y00000088D01*
X00000153Y00000081D01*
X00000162Y00000075D01*
X00000171Y00000068D01*
X00000180Y00000062D01*
X00000190Y00000056D01*
X00000200Y00000050D01*
X00000209Y00000045D01*
X00000219Y00000040D01*
X00000230Y00000035D01*
X00000240Y00000031D01*
X00000250Y00000026D01*
X00000261Y00000022D01*
X00000272Y00000019D01*
X00000282Y00000015D01*
X00000293Y00000012D01*
X00000304Y00000010D01*
X00000315Y00000007D01*
X00000326Y00000005D01*
X00000337Y00000004D01*
X00000348Y00000002D01*
X00000360Y00000001D01*
X00000371Y00000000D01*
X00000382Y00000000D01*
X00000393Y00000000D01*
X00109842Y00000000D01*
X00107441Y00030415D02*
X00107441Y00030415D01*
X00107444Y00030442D01*
X00107448Y00030469D01*
X00107455Y00030496D01*
X00107463Y00030522D01*
X00107473Y00030548D01*
X00107485Y00030573D01*
X00107499Y00030596D01*
X00107514Y00030619D01*
X00107530Y00030641D01*
X00107549Y00030662D01*
X00107568Y00030681D01*
X00107589Y00030699D01*
X00107611Y00030715D01*
X00107634Y00030730D01*
X00107658Y00030743D01*
X00107683Y00030754D01*
X00107709Y00030764D01*
X00107735Y00030772D01*
X00107762Y00030778D01*
X00107789Y00030782D01*
X00108186Y00030827D01*
X00108221Y00030830D01*
X00108255Y00030829D01*
X00108289Y00030826D01*
X00108323Y00030819D01*
X00108356Y00030810D01*
X00108388Y00030797D01*
X00108419Y00030782D01*
X00108449Y00030765D01*
X00108477Y00030744D01*
X00108502Y00030722D01*
X00108526Y00030697D01*
X00108548Y00030670D01*
X00108567Y00030642D01*
X00108584Y00030612D01*
X00108598Y00030580D01*
X00108609Y00030548D01*
X00108617Y00030514D01*
X00108623Y00030480D01*
X00108625Y00030446D01*
X00108624Y00030412D01*
X00108591Y00029883D01*
X00108591Y00029876D01*
X00108545Y00029414D01*
X00108544Y00029408D01*
X00108493Y00029006D01*
X00108492Y00029001D01*
X00108416Y00028514D01*
X00108415Y00028509D01*
X00108353Y00028170D01*
X00108352Y00028165D01*
X00108235Y00027610D01*
X00108234Y00027605D01*
X00108125Y00027155D01*
X00108124Y00027148D01*
X00107922Y00026416D01*
X00107920Y00026410D01*
X00107762Y00025903D01*
X00107761Y00025898D01*
X00107627Y00025500D01*
X00107626Y00025496D01*
X00107424Y00024932D01*
X00107423Y00024928D01*
X00107197Y00024339D01*
X00107196Y00024336D01*
X00107053Y00023980D01*
X00107052Y00023977D01*
X00106789Y00023343D01*
X00106787Y00023340D01*
X00106623Y00022952D01*
X00106622Y00022952D01*
X00106622Y00022951D01*
X00106464Y00022580D01*
X00106462Y00022574D01*
X00106333Y00022296D01*
X00106320Y00022271D01*
X00105794Y00021466D01*
X00105792Y00021464D01*
X00105792Y00021464D01*
X00105790Y00021462D01*
X00105369Y00021025D01*
X00105349Y00021007D01*
X00104892Y00020648D01*
X00104873Y00020634D01*
X00104465Y00020388D01*
X00104446Y00020378D01*
X00103979Y00020161D01*
X00103960Y00020154D01*
X00103504Y00019997D01*
X00103487Y00019992D01*
X00103073Y00019890D01*
X00103059Y00019887D01*
X00103001Y00019877D01*
X00102990Y00019875D01*
X00102979Y00019872D01*
X00102967Y00019869D01*
X00102957Y00019866D01*
X00102946Y00019863D01*
X00102935Y00019859D01*
X00102924Y00019855D01*
X00102914Y00019851D01*
X00102903Y00019846D01*
X00102893Y00019841D01*
X00102883Y00019836D01*
X00102873Y00019830D01*
X00102863Y00019825D01*
X00102853Y00019818D01*
X00102844Y00019812D01*
X00102835Y00019805D01*
X00102826Y00019799D01*
X00102817Y00019791D01*
X00102808Y00019784D01*
X00102800Y00019776D01*
X00102791Y00019768D01*
X00102784Y00019760D01*
X00102776Y00019752D01*
X00102768Y00019743D01*
X00102761Y00019734D01*
X00102754Y00019725D01*
X00102747Y00019716D01*
X00102741Y00019707D01*
X00102735Y00019697D01*
X00102729Y00019687D01*
X00102723Y00019678D01*
X00102486Y00019243D01*
X00102477Y00019228D01*
X00102018Y00018541D01*
X00102006Y00018525D01*
X00101497Y00017913D01*
X00101485Y00017900D01*
X00101078Y00017491D01*
X00101065Y00017480D01*
X00100567Y00017061D01*
X00100551Y00017049D01*
X00100030Y00016692D01*
X00100016Y00016683D01*
X00099673Y00016488D01*
X00099662Y00016483D01*
X00099416Y00016362D01*
X00099406Y00016357D01*
X00099396Y00016351D01*
X00099386Y00016346D01*
X00099377Y00016340D01*
X00099367Y00016333D01*
X00099358Y00016327D01*
X00099349Y00016320D01*
X00099340Y00016313D01*
X00099331Y00016305D01*
X00099323Y00016298D01*
X00099315Y00016290D01*
X00099307Y00016282D01*
X00099299Y00016274D01*
X00099291Y00016265D01*
X00099284Y00016256D01*
X00099277Y00016247D01*
X00099270Y00016238D01*
X00099264Y00016229D01*
X00099257Y00016219D01*
X00099251Y00016210D01*
X00099246Y00016200D01*
X00099240Y00016190D01*
X00099235Y00016180D01*
X00099230Y00016169D01*
X00099226Y00016159D01*
X00099222Y00016148D01*
X00099218Y00016138D01*
X00099214Y00016127D01*
X00099211Y00016116D01*
X00099208Y00016105D01*
X00099205Y00016094D01*
X00099203Y00016083D01*
X00099074Y00015411D01*
X00098979Y00014929D01*
X00098922Y00014641D01*
X00098916Y00014616D01*
X00098760Y00014156D01*
X00098754Y00014140D01*
X00098592Y00013774D01*
X00098588Y00013764D01*
X00098380Y00013357D01*
X00098376Y00013350D01*
X00098200Y00013040D01*
X00098196Y00013033D01*
X00097870Y00012509D01*
X00097867Y00012503D01*
X00097783Y00012379D01*
X00097775Y00012367D01*
X00097547Y00011999D01*
X00097394Y00011752D01*
X00097200Y00011440D01*
X00097199Y00011440D01*
X00097162Y00011379D01*
X00097143Y00011345D01*
X00096949Y00010952D01*
X00096948Y00010950D01*
X00096946Y00010947D01*
X00096574Y00010452D01*
X00096567Y00010444D01*
X00096516Y00010383D01*
X00096516Y00010383D01*
X00096485Y00010350D01*
X00096450Y00010321D01*
X00096412Y00010296D01*
X00096372Y00010276D01*
X00096330Y00010260D01*
X00096286Y00010250D01*
X00096241Y00010244D01*
X00096196Y00010244D01*
X00096151Y00010248D01*
X00096107Y00010258D01*
X00096064Y00010273D01*
X00096023Y00010293D01*
X00095985Y00010317D01*
X00095950Y00010345D01*
X00095918Y00010377D01*
X00095891Y00010413D01*
X00095867Y00010452D01*
X00095848Y00010493D01*
X00095834Y00010535D01*
X00095825Y00010580D01*
X00095746Y00011122D01*
X00095744Y00011137D01*
X00095742Y00011153D01*
X00095742Y00011168D01*
X00095741Y00011184D01*
X00095742Y00011200D01*
X00095743Y00011215D01*
X00095745Y00011231D01*
X00095747Y00011246D01*
X00095750Y00011261D01*
X00095754Y00011276D01*
X00095758Y00011291D01*
X00095762Y00011306D01*
X00095768Y00011321D01*
X00095774Y00011335D01*
X00095780Y00011349D01*
X00095787Y00011363D01*
X00095795Y00011377D01*
X00095803Y00011390D01*
X00095811Y00011403D01*
X00095821Y00011416D01*
X00095821Y00011416D01*
X00095938Y00011571D01*
X00096117Y00011936D01*
X00096196Y00012063D01*
X00096390Y00012375D01*
X00096543Y00012622D01*
X00096787Y00013014D01*
X00096876Y00013147D01*
X00097182Y00013639D01*
X00097338Y00013914D01*
X00097523Y00014276D01*
X00097655Y00014576D01*
X00097776Y00014933D01*
X00097821Y00015158D01*
X00097914Y00015636D01*
X00098101Y00016608D01*
X00098164Y00016949D01*
X00098202Y00017169D01*
X00098517Y00017268D01*
X00098887Y00017418D01*
X00099115Y00017530D01*
X00099397Y00017690D01*
X00099844Y00017996D01*
X00100272Y00018356D01*
X00100617Y00018702D01*
X00101064Y00019240D01*
X00101470Y00019848D01*
X00101705Y00020277D01*
X00101848Y00020586D01*
X00101993Y00020960D01*
X00102323Y00020972D01*
X00102580Y00021002D01*
X00102822Y00021044D01*
X00103161Y00021128D01*
X00103528Y00021254D01*
X00103900Y00021427D01*
X00104211Y00021614D01*
X00104566Y00021893D01*
X00104864Y00022203D01*
X00105291Y00022856D01*
X00105383Y00023055D01*
X00105535Y00023413D01*
X00105699Y00023799D01*
X00105959Y00024425D01*
X00106097Y00024769D01*
X00106316Y00025340D01*
X00106511Y00025884D01*
X00106637Y00026263D01*
X00106787Y00026745D01*
X00106981Y00027447D01*
X00107082Y00027868D01*
X00107194Y00028396D01*
X00107251Y00028709D01*
X00107323Y00029170D01*
X00107371Y00029544D01*
X00107414Y00029974D01*
X00107441Y00030415D01*
X00108581Y00032483D02*
X00108581Y00032483D01*
X00108583Y00032449D01*
X00108582Y00032416D01*
X00108578Y00032382D01*
X00108571Y00032349D01*
X00108561Y00032316D01*
X00108548Y00032284D01*
X00108533Y00032254D01*
X00108515Y00032225D01*
X00108495Y00032198D01*
X00108473Y00032172D01*
X00108448Y00032149D01*
X00108421Y00032128D01*
X00108393Y00032109D01*
X00108363Y00032092D01*
X00108332Y00032079D01*
X00108300Y00032068D01*
X00108267Y00032059D01*
X00108234Y00032054D01*
X00108200Y00032052D01*
X00108166Y00032052D01*
X00107768Y00032076D01*
X00107740Y00032078D01*
X00107713Y00032083D01*
X00107686Y00032090D01*
X00107659Y00032098D01*
X00107633Y00032108D01*
X00107608Y00032120D01*
X00107584Y00032134D01*
X00107561Y00032150D01*
X00107539Y00032167D01*
X00107518Y00032185D01*
X00107499Y00032205D01*
X00107481Y00032227D01*
X00107464Y00032249D01*
X00107450Y00032273D01*
X00107437Y00032297D01*
X00107426Y00032323D01*
X00107416Y00032349D01*
X00107409Y00032376D01*
X00107403Y00032403D01*
X00107399Y00032431D01*
X00107378Y00032651D01*
X00107334Y00033005D01*
X00107228Y00033642D01*
X00107144Y00034016D01*
X00107028Y00034425D01*
X00106875Y00034837D01*
X00106658Y00035268D01*
X00106435Y00035589D01*
X00106197Y00035838D01*
X00105995Y00035998D01*
X00105684Y00036173D01*
X00105376Y00036289D01*
X00104904Y00036398D01*
X00104633Y00036441D01*
X00104495Y00036462D01*
X00104658Y00036629D01*
X00104715Y00036700D01*
X00104866Y00036922D01*
X00105008Y00037200D01*
X00105151Y00037644D01*
X00105209Y00038031D01*
X00105217Y00038252D01*
X00105147Y00038784D01*
X00104977Y00039209D01*
X00104692Y00039658D01*
X00104571Y00039841D01*
X00104460Y00040067D01*
X00104434Y00040279D01*
X00104465Y00040404D01*
X00104553Y00040674D01*
X00104686Y00041171D01*
X00104757Y00041471D01*
X00104840Y00041854D01*
X00104937Y00042365D01*
X00104998Y00042742D01*
X00105051Y00043122D01*
X00105114Y00043733D01*
X00105146Y00044334D01*
X00105148Y00044696D01*
X00105131Y00045109D01*
X00105086Y00045551D01*
X00105004Y00045985D01*
X00104900Y00046267D01*
X00104766Y00046530D01*
X00104598Y00046810D01*
X00104449Y00047032D01*
X00104227Y00047332D01*
X00104001Y00047606D01*
X00103877Y00047737D01*
X00103877Y00047737D01*
X00103859Y00047757D01*
X00103843Y00047778D01*
X00103828Y00047801D01*
X00103814Y00047824D01*
X00103803Y00047848D01*
X00103793Y00047872D01*
X00103784Y00047898D01*
X00103778Y00047924D01*
X00103773Y00047950D01*
X00103770Y00047976D01*
X00103768Y00048003D01*
X00103769Y00048030D01*
X00103771Y00048056D01*
X00103776Y00048083D01*
X00103781Y00048109D01*
X00103789Y00048134D01*
X00103799Y00048159D01*
X00103810Y00048183D01*
X00103822Y00048207D01*
X00103836Y00048230D01*
X00104063Y00048563D01*
X00104084Y00048591D01*
X00104107Y00048617D01*
X00104133Y00048641D01*
X00104161Y00048663D01*
X00104190Y00048682D01*
X00104221Y00048698D01*
X00104254Y00048712D01*
X00104287Y00048722D01*
X00104322Y00048730D01*
X00104357Y00048734D01*
X00104392Y00048735D01*
X00104427Y00048733D01*
X00104462Y00048729D01*
X00104496Y00048720D01*
X00104529Y00048709D01*
X00104561Y00048695D01*
X00104592Y00048679D01*
X00104622Y00048659D01*
X00104649Y00048637D01*
X00104674Y00048613D01*
X00104881Y00048394D01*
X00104890Y00048384D01*
X00105155Y00048064D01*
X00105161Y00048056D01*
X00105412Y00047716D01*
X00105418Y00047708D01*
X00105593Y00047447D01*
X00105598Y00047438D01*
X00105796Y00047109D01*
X00105803Y00047097D01*
X00105979Y00046751D01*
X00105989Y00046729D01*
X00106141Y00046315D01*
X00106149Y00046284D01*
X00106254Y00045730D01*
X00106256Y00045714D01*
X00106309Y00045200D01*
X00106310Y00045188D01*
X00106329Y00044721D01*
X00106329Y00044712D01*
X00106327Y00044304D01*
X00106327Y00044295D01*
X00106292Y00043646D01*
X00106291Y00043636D01*
X00106224Y00042984D01*
X00106223Y00042977D01*
X00106167Y00042568D01*
X00106166Y00042564D01*
X00106101Y00042162D01*
X00106100Y00042157D01*
X00105998Y00041622D01*
X00105997Y00041617D01*
X00105910Y00041211D01*
X00105909Y00041208D01*
X00105832Y00040884D01*
X00105831Y00040879D01*
X00105723Y00040476D01*
X00105720Y00040465D01*
X00105717Y00040454D01*
X00105715Y00040443D01*
X00105713Y00040432D01*
X00105712Y00040421D01*
X00105711Y00040410D01*
X00105710Y00040399D01*
X00105709Y00040388D01*
X00105709Y00040376D01*
X00105709Y00040365D01*
X00105710Y00040354D01*
X00105710Y00040343D01*
X00105711Y00040332D01*
X00105713Y00040321D01*
X00105715Y00040309D01*
X00105717Y00040298D01*
X00105719Y00040287D01*
X00105722Y00040276D01*
X00105724Y00040266D01*
X00105728Y00040255D01*
X00105731Y00040244D01*
X00105735Y00040234D01*
X00105739Y00040223D01*
X00105744Y00040213D01*
X00105748Y00040203D01*
X00105754Y00040193D01*
X00105759Y00040183D01*
X00105764Y00040173D01*
X00105770Y00040164D01*
X00106031Y00039752D01*
X00106032Y00039750D01*
X00106034Y00039747D01*
X00106298Y00039089D01*
X00106299Y00039086D01*
X00106299Y00039086D01*
X00106299Y00039086D01*
X00106299Y00039083D01*
X00106399Y00038324D01*
X00106401Y00038291D01*
X00106387Y00037933D01*
X00106385Y00037911D01*
X00106318Y00037461D01*
X00106317Y00037450D01*
X00106316Y00037439D01*
X00106315Y00037428D01*
X00106314Y00037416D01*
X00106314Y00037405D01*
X00106314Y00037394D01*
X00106315Y00037382D01*
X00106316Y00037371D01*
X00106317Y00037360D01*
X00106318Y00037349D01*
X00106320Y00037338D01*
X00106322Y00037327D01*
X00106324Y00037315D01*
X00106327Y00037305D01*
X00106330Y00037294D01*
X00106333Y00037283D01*
X00106337Y00037272D01*
X00106341Y00037262D01*
X00106345Y00037251D01*
X00106349Y00037241D01*
X00106354Y00037231D01*
X00106359Y00037221D01*
X00106365Y00037211D01*
X00106370Y00037201D01*
X00106376Y00037191D01*
X00106382Y00037182D01*
X00106389Y00037173D01*
X00106396Y00037164D01*
X00106403Y00037155D01*
X00106410Y00037146D01*
X00106417Y00037138D01*
X00106425Y00037129D01*
X00106433Y00037121D01*
X00106441Y00037114D01*
X00106450Y00037106D01*
X00106458Y00037099D01*
X00106467Y00037092D01*
X00106476Y00037085D01*
X00106485Y00037079D01*
X00106495Y00037072D01*
X00106504Y00037066D01*
X00106514Y00037061D01*
X00106641Y00036989D01*
X00106666Y00036972D01*
X00106983Y00036723D01*
X00107004Y00036704D01*
X00107342Y00036349D01*
X00107361Y00036326D01*
X00107667Y00035886D01*
X00107681Y00035862D01*
X00107955Y00035319D01*
X00107964Y00035299D01*
X00108148Y00034800D01*
X00108153Y00034785D01*
X00108287Y00034313D01*
X00108290Y00034302D01*
X00108386Y00033874D01*
X00108388Y00033863D01*
X00108503Y00033178D01*
X00108504Y00033170D01*
X00108552Y00032783D01*
X00108552Y00032778D01*
X00108581Y00032483D01*
X00001576Y00030433D02*
X00001576Y00030433D01*
X00001575Y00030468D01*
X00001579Y00030504D01*
X00001585Y00030538D01*
X00001594Y00030573D01*
X00001607Y00030606D01*
X00001622Y00030638D01*
X00001640Y00030668D01*
X00001661Y00030697D01*
X00001684Y00030723D01*
X00001710Y00030748D01*
X00001738Y00030770D01*
X00001767Y00030789D01*
X00001799Y00030806D01*
X00001831Y00030820D01*
X00001865Y00030831D01*
X00001899Y00030839D01*
X00001935Y00030843D01*
X00001970Y00030845D01*
X00002005Y00030843D01*
X00002040Y00030838D01*
X00002438Y00030765D01*
X00002464Y00030759D01*
X00002489Y00030752D01*
X00002514Y00030743D01*
X00002538Y00030732D01*
X00002561Y00030720D01*
X00002584Y00030706D01*
X00002605Y00030690D01*
X00002626Y00030674D01*
X00002645Y00030656D01*
X00002663Y00030636D01*
X00002680Y00030616D01*
X00002695Y00030594D01*
X00002709Y00030572D01*
X00002721Y00030548D01*
X00002732Y00030524D01*
X00002741Y00030499D01*
X00002748Y00030474D01*
X00002754Y00030448D01*
X00002758Y00030422D01*
X00002760Y00030396D01*
X00002766Y00030259D01*
X00002889Y00029093D01*
X00002960Y00028649D01*
X00003181Y00027602D01*
X00003303Y00027133D01*
X00003414Y00026742D01*
X00003554Y00026292D01*
X00003698Y00025861D01*
X00003884Y00025342D01*
X00004097Y00024788D01*
X00004195Y00024541D01*
X00004297Y00024291D01*
X00004443Y00023939D01*
X00004572Y00023633D01*
X00004678Y00023384D01*
X00004818Y00023055D01*
X00005032Y00022632D01*
X00005255Y00022307D01*
X00005538Y00021989D01*
X00005798Y00021761D01*
X00006028Y00021595D01*
X00006362Y00021400D01*
X00006690Y00021251D01*
X00007102Y00021112D01*
X00007428Y00021034D01*
X00007723Y00020986D01*
X00007858Y00020971D01*
X00008015Y00020960D01*
X00008083Y00020767D01*
X00008154Y00020586D01*
X00008252Y00020359D01*
X00008430Y00019994D01*
X00008562Y00019755D01*
X00008700Y00019527D01*
X00008855Y00019297D01*
X00009015Y00019076D01*
X00009204Y00018845D01*
X00009397Y00018633D01*
X00009604Y00018427D01*
X00009734Y00018307D01*
X00009954Y00018113D01*
X00010266Y00017870D01*
X00010578Y00017665D01*
X00010699Y00017595D01*
X00010942Y00017475D01*
X00011088Y00017395D01*
X00011335Y00017284D01*
X00011640Y00017173D01*
X00012010Y00017070D01*
X00012032Y00016919D01*
X00012110Y00016471D01*
X00012168Y00016202D01*
X00012266Y00015863D01*
X00012293Y00015679D01*
X00012403Y00015127D01*
X00012517Y00014710D01*
X00012706Y00014206D01*
X00012869Y00013902D01*
X00012961Y00013753D01*
X00013287Y00013230D01*
X00013506Y00012880D01*
X00013756Y00012482D01*
X00013784Y00012437D01*
X00013801Y00012408D01*
X00013815Y00012377D01*
X00013826Y00012345D01*
X00013835Y00012313D01*
X00013841Y00012280D01*
X00013844Y00012246D01*
X00013845Y00012212D01*
X00013842Y00012178D01*
X00013836Y00012145D01*
X00013828Y00012112D01*
X00013817Y00012080D01*
X00013803Y00012049D01*
X00013786Y00012020D01*
X00013767Y00011992D01*
X00013746Y00011966D01*
X00013722Y00011941D01*
X00013697Y00011919D01*
X00013670Y00011899D01*
X00013641Y00011881D01*
X00013610Y00011866D01*
X00013246Y00011705D01*
X00013220Y00011695D01*
X00013194Y00011686D01*
X00013166Y00011680D01*
X00013139Y00011675D01*
X00013111Y00011673D01*
X00013083Y00011672D01*
X00013055Y00011673D01*
X00013027Y00011676D01*
X00012999Y00011682D01*
X00012972Y00011689D01*
X00012945Y00011698D01*
X00012920Y00011709D01*
X00012895Y00011722D01*
X00012871Y00011737D01*
X00012848Y00011753D01*
X00012826Y00011771D01*
X00012806Y00011790D01*
X00012787Y00011811D01*
X00012769Y00011833D01*
X00012754Y00011856D01*
X00012505Y00012253D01*
X00012504Y00012253D01*
X00012285Y00012605D01*
X00011958Y00013130D01*
X00011849Y00013306D01*
X00011843Y00013316D01*
X00011634Y00013706D01*
X00011623Y00013729D01*
X00011395Y00014338D01*
X00011389Y00014356D01*
X00011255Y00014849D01*
X00011252Y00014862D01*
X00011130Y00015472D01*
X00011128Y00015481D01*
X00011113Y00015586D01*
X00011102Y00015638D01*
X00011024Y00015906D01*
X00011021Y00015919D01*
X00011012Y00015958D01*
X00011010Y00015969D01*
X00011007Y00015980D01*
X00011004Y00015991D01*
X00011001Y00016001D01*
X00010997Y00016012D01*
X00010993Y00016022D01*
X00010988Y00016033D01*
X00010984Y00016043D01*
X00010979Y00016053D01*
X00010974Y00016063D01*
X00010968Y00016072D01*
X00010963Y00016082D01*
X00010957Y00016091D01*
X00010950Y00016101D01*
X00010944Y00016110D01*
X00010937Y00016119D01*
X00010930Y00016127D01*
X00010923Y00016136D01*
X00010915Y00016144D01*
X00010908Y00016152D01*
X00010900Y00016160D01*
X00010891Y00016167D01*
X00010883Y00016175D01*
X00010874Y00016182D01*
X00010866Y00016189D01*
X00010857Y00016195D01*
X00010847Y00016202D01*
X00010838Y00016208D01*
X00010829Y00016214D01*
X00010819Y00016219D01*
X00010809Y00016225D01*
X00010799Y00016230D01*
X00010789Y00016234D01*
X00010568Y00016334D01*
X00010554Y00016341D01*
X00010404Y00016423D01*
X00010389Y00016431D01*
X00010148Y00016550D01*
X00010137Y00016556D01*
X00009963Y00016656D01*
X00009952Y00016662D01*
X00009584Y00016905D01*
X00009572Y00016914D01*
X00009205Y00017199D01*
X00009195Y00017207D01*
X00008944Y00017429D01*
X00008942Y00017431D01*
X00008790Y00017571D01*
X00008784Y00017577D01*
X00008546Y00017814D01*
X00008539Y00017821D01*
X00008313Y00018070D01*
X00008307Y00018077D01*
X00008083Y00018350D01*
X00008076Y00018359D01*
X00007888Y00018618D01*
X00007884Y00018624D01*
X00007707Y00018887D01*
X00007702Y00018895D01*
X00007541Y00019159D01*
X00007537Y00019167D01*
X00007383Y00019446D01*
X00007379Y00019454D01*
X00007252Y00019714D01*
X00007247Y00019724D01*
X00007242Y00019734D01*
X00007236Y00019743D01*
X00007230Y00019753D01*
X00007224Y00019762D01*
X00007218Y00019771D01*
X00007211Y00019780D01*
X00007204Y00019789D01*
X00007197Y00019798D01*
X00007190Y00019806D01*
X00007182Y00019814D01*
X00007174Y00019822D01*
X00007166Y00019830D01*
X00007158Y00019837D01*
X00007149Y00019845D01*
X00007140Y00019852D01*
X00007131Y00019859D01*
X00007122Y00019865D01*
X00007113Y00019871D01*
X00007104Y00019877D01*
X00007094Y00019883D01*
X00007084Y00019888D01*
X00007074Y00019893D01*
X00007064Y00019898D01*
X00007054Y00019903D01*
X00007043Y00019907D01*
X00007033Y00019911D01*
X00007022Y00019915D01*
X00007012Y00019918D01*
X00007001Y00019921D01*
X00006990Y00019924D01*
X00006784Y00019973D01*
X00006766Y00019978D01*
X00006265Y00020148D01*
X00006247Y00020155D01*
X00005828Y00020345D01*
X00005810Y00020354D01*
X00005391Y00020599D01*
X00005375Y00020609D01*
X00005068Y00020831D01*
X00005053Y00020843D01*
X00004714Y00021142D01*
X00004697Y00021159D01*
X00004331Y00021568D01*
X00004316Y00021588D01*
X00004021Y00022019D01*
X00004008Y00022041D01*
X00003750Y00022551D01*
X00003744Y00022563D01*
X00003591Y00022922D01*
X00003485Y00023172D01*
X00003485Y00023172D01*
X00003484Y00023173D01*
X00003354Y00023482D01*
X00003353Y00023484D01*
X00003205Y00023841D01*
X00003204Y00023842D01*
X00003099Y00024100D01*
X00003099Y00024100D01*
X00002997Y00024356D01*
X00002996Y00024359D01*
X00002777Y00024930D01*
X00002776Y00024934D01*
X00002583Y00025472D01*
X00002581Y00025476D01*
X00002430Y00025928D01*
X00002429Y00025931D01*
X00002283Y00026403D01*
X00002282Y00026407D01*
X00002164Y00026820D01*
X00002163Y00026824D01*
X00002032Y00027327D01*
X00002030Y00027336D01*
X00001800Y00028428D01*
X00001798Y00028438D01*
X00001718Y00028932D01*
X00001717Y00028943D01*
X00001588Y00030164D01*
X00001587Y00030175D01*
X00001576Y00030433D01*
X00002803Y00032451D02*
X00002803Y00032451D01*
X00002803Y00032451D01*
X00002799Y00032425D01*
X00002794Y00032400D01*
X00002788Y00032374D01*
X00002779Y00032350D01*
X00002769Y00032325D01*
X00002758Y00032302D01*
X00002745Y00032279D01*
X00002730Y00032258D01*
X00002714Y00032237D01*
X00002697Y00032218D01*
X00002679Y00032199D01*
X00002659Y00032182D01*
X00002638Y00032166D01*
X00002616Y00032152D01*
X00002594Y00032139D01*
X00002570Y00032128D01*
X00002546Y00032118D01*
X00002521Y00032110D01*
X00002496Y00032103D01*
X00002470Y00032099D01*
X00002069Y00032038D01*
X00002033Y00032034D01*
X00001998Y00032033D01*
X00001962Y00032036D01*
X00001927Y00032042D01*
X00001892Y00032051D01*
X00001859Y00032063D01*
X00001826Y00032078D01*
X00001796Y00032096D01*
X00001766Y00032117D01*
X00001739Y00032140D01*
X00001715Y00032166D01*
X00001692Y00032194D01*
X00001672Y00032224D01*
X00001655Y00032255D01*
X00001641Y00032288D01*
X00001630Y00032322D01*
X00001622Y00032357D01*
X00001617Y00032392D01*
X00001616Y00032428D01*
X00001618Y00032464D01*
X00001618Y00032464D01*
X00001636Y00032660D01*
X00001637Y00032665D01*
X00001690Y00033120D01*
X00001691Y00033127D01*
X00001750Y00033522D01*
X00001752Y00033531D01*
X00001884Y00034193D01*
X00001887Y00034204D01*
X00001981Y00034564D01*
X00001984Y00034574D01*
X00002103Y00034950D01*
X00002109Y00034966D01*
X00002347Y00035540D01*
X00002357Y00035560D01*
X00002563Y00035933D01*
X00002576Y00035954D01*
X00002895Y00036391D01*
X00002912Y00036411D01*
X00003130Y00036640D01*
X00003144Y00036653D01*
X00003375Y00036854D01*
X00003396Y00036870D01*
X00003710Y00037077D01*
X00003720Y00037083D01*
X00003729Y00037090D01*
X00003738Y00037097D01*
X00003747Y00037104D01*
X00003755Y00037111D01*
X00003764Y00037119D01*
X00003772Y00037127D01*
X00003780Y00037135D01*
X00003787Y00037143D01*
X00003795Y00037152D01*
X00003802Y00037161D01*
X00003809Y00037170D01*
X00003816Y00037179D01*
X00003822Y00037188D01*
X00003828Y00037198D01*
X00003834Y00037207D01*
X00003840Y00037217D01*
X00003845Y00037227D01*
X00003850Y00037237D01*
X00003855Y00037248D01*
X00003859Y00037258D01*
X00003863Y00037269D01*
X00003867Y00037279D01*
X00003870Y00037290D01*
X00003873Y00037301D01*
X00003876Y00037312D01*
X00003879Y00037323D01*
X00003881Y00037334D01*
X00003883Y00037345D01*
X00003885Y00037356D01*
X00003886Y00037368D01*
X00003887Y00037379D01*
X00003887Y00037390D01*
X00003888Y00037402D01*
X00003888Y00037413D01*
X00003887Y00037424D01*
X00003887Y00037436D01*
X00003886Y00037447D01*
X00003884Y00037458D01*
X00003883Y00037469D01*
X00003881Y00037480D01*
X00003838Y00037703D01*
X00003835Y00037727D01*
X00003802Y00038217D01*
X00003802Y00038234D01*
X00003806Y00038444D01*
X00003808Y00038464D01*
X00003865Y00038927D01*
X00003865Y00038930D01*
X00003865Y00038930D01*
X00003866Y00038933D01*
X00004018Y00039392D01*
X00004019Y00039395D01*
X00004019Y00039395D01*
X00004020Y00039397D01*
X00004258Y00039781D01*
X00004276Y00039806D01*
X00004450Y00040009D01*
X00004458Y00040018D01*
X00004465Y00040027D01*
X00004471Y00040036D01*
X00004478Y00040045D01*
X00004484Y00040055D01*
X00004490Y00040065D01*
X00004496Y00040075D01*
X00004501Y00040085D01*
X00004506Y00040095D01*
X00004511Y00040105D01*
X00004516Y00040116D01*
X00004520Y00040127D01*
X00004524Y00040137D01*
X00004527Y00040148D01*
X00004531Y00040159D01*
X00004534Y00040170D01*
X00004536Y00040181D01*
X00004538Y00040193D01*
X00004540Y00040204D01*
X00004542Y00040215D01*
X00004543Y00040221D01*
X00004545Y00040251D01*
X00004554Y00040420D01*
X00004554Y00040442D01*
X00004554Y00040552D01*
X00004554Y00040568D01*
X00004545Y00040765D01*
X00004544Y00040782D01*
X00004526Y00040989D01*
X00004523Y00041008D01*
X00004478Y00041339D01*
X00004475Y00041353D01*
X00004423Y00041650D01*
X00004422Y00041653D01*
X00004330Y00042158D01*
X00004329Y00042165D01*
X00004262Y00042614D01*
X00004261Y00042624D01*
X00004231Y00042936D01*
X00004230Y00042945D01*
X00004216Y00043254D01*
X00004216Y00043265D01*
X00004219Y00043602D01*
X00004219Y00043615D01*
X00004248Y00044003D01*
X00004249Y00044016D01*
X00004306Y00044427D01*
X00004308Y00044439D01*
X00004389Y00044837D01*
X00004392Y00044847D01*
X00004487Y00045218D01*
X00004490Y00045226D01*
X00004600Y00045587D01*
X00004602Y00045594D01*
X00004718Y00045930D01*
X00004721Y00045937D01*
X00004903Y00046408D01*
X00004905Y00046413D01*
X00004996Y00046628D01*
X00004998Y00046632D01*
X00005146Y00046961D01*
X00005151Y00046970D01*
X00005446Y00047542D01*
X00005452Y00047553D01*
X00005659Y00047898D01*
X00005665Y00047907D01*
X00005872Y00048213D01*
X00005881Y00048224D01*
X00006189Y00048613D01*
X00006203Y00048628D01*
X00006465Y00048896D01*
X00006465Y00048896D01*
X00006493Y00048922D01*
X00006522Y00048944D01*
X00006554Y00048964D01*
X00006588Y00048981D01*
X00006623Y00048995D01*
X00006659Y00049005D01*
X00006696Y00049011D01*
X00006734Y00049014D01*
X00006771Y00049014D01*
X00006809Y00049010D01*
X00006845Y00049002D01*
X00006881Y00048991D01*
X00006916Y00048976D01*
X00006949Y00048958D01*
X00006980Y00048938D01*
X00007009Y00048914D01*
X00007036Y00048887D01*
X00007060Y00048859D01*
X00007082Y00048828D01*
X00007100Y00048795D01*
X00007284Y00048420D01*
X00007294Y00048398D01*
X00007303Y00048375D01*
X00007310Y00048352D01*
X00007316Y00048329D01*
X00007320Y00048305D01*
X00007323Y00048281D01*
X00007325Y00048257D01*
X00007324Y00048232D01*
X00007323Y00048208D01*
X00007320Y00048184D01*
X00007315Y00048160D01*
X00007309Y00048137D01*
X00007302Y00048114D01*
X00007293Y00048091D01*
X00007283Y00048069D01*
X00007271Y00048048D01*
X00007258Y00048027D01*
X00007244Y00048008D01*
X00007229Y00047989D01*
X00007213Y00047971D01*
X00007213Y00047971D01*
X00007083Y00047838D01*
X00006829Y00047519D01*
X00006657Y00047266D01*
X00006481Y00046972D01*
X00006212Y00046451D01*
X00006079Y00046157D01*
X00005999Y00045967D01*
X00005828Y00045527D01*
X00005724Y00045225D01*
X00005626Y00044902D01*
X00005542Y00044577D01*
X00005472Y00044233D01*
X00005423Y00043885D01*
X00005400Y00043560D01*
X00005397Y00043281D01*
X00005409Y00043024D01*
X00005434Y00042762D01*
X00005495Y00042355D01*
X00005585Y00041861D01*
X00005644Y00041529D01*
X00005699Y00041132D01*
X00005724Y00040851D01*
X00005735Y00040588D01*
X00005736Y00040404D01*
X00005722Y00040131D01*
X00005701Y00039969D01*
X00005660Y00039783D01*
X00005585Y00039580D01*
X00005481Y00039405D01*
X00005366Y00039263D01*
X00005222Y00039094D01*
X00005096Y00038892D01*
X00005023Y00038670D01*
X00004986Y00038369D01*
X00004983Y00038252D01*
X00005009Y00037866D01*
X00005064Y00037582D01*
X00005141Y00037330D01*
X00005271Y00037035D01*
X00005375Y00036857D01*
X00005542Y00036630D01*
X00005706Y00036462D01*
X00005171Y00036375D01*
X00004852Y00036297D01*
X00004640Y00036225D01*
X00004387Y00036109D01*
X00004100Y00035920D01*
X00003953Y00035792D01*
X00003812Y00035643D01*
X00003567Y00035308D01*
X00003417Y00035037D01*
X00003216Y00034552D01*
X00003117Y00034241D01*
X00003037Y00033933D01*
X00002915Y00033323D01*
X00002861Y00032967D01*
X00002811Y00032538D01*
X00002803Y00032451D01*
X00082585Y00001013D02*
X00082585Y00001013D01*
X00082547Y00001015D01*
X00082508Y00001020D01*
X00082471Y00001029D01*
X00082434Y00001042D01*
X00082399Y00001058D01*
X00082366Y00001077D01*
X00082334Y00001100D01*
X00082305Y00001126D01*
X00082279Y00001154D01*
X00082256Y00001185D01*
X00082236Y00001218D01*
X00082219Y00001253D01*
X00082205Y00001289D01*
X00082196Y00001326D01*
X00082189Y00001364D01*
X00082187Y00001403D01*
X00082189Y00001442D01*
X00082194Y00001480D01*
X00082203Y00001518D01*
X00082216Y00001554D01*
X00082376Y00001951D01*
X00082385Y00001972D01*
X00082395Y00001993D01*
X00082407Y00002012D01*
X00082420Y00002031D01*
X00082433Y00002050D01*
X00082448Y00002067D01*
X00082464Y00002084D01*
X00082481Y00002100D01*
X00082499Y00002114D01*
X00082517Y00002128D01*
X00082536Y00002140D01*
X00082556Y00002152D01*
X00082577Y00002162D01*
X00082598Y00002171D01*
X00082620Y00002178D01*
X00082642Y00002185D01*
X00082664Y00002190D01*
X00082687Y00002194D01*
X00082709Y00002196D01*
X00082732Y00002197D01*
X00083532Y00002215D01*
X00084254Y00002241D01*
X00084810Y00002268D01*
X00085630Y00002322D01*
X00086391Y00002393D01*
X00086946Y00002463D01*
X00087443Y00002527D01*
X00087904Y00002610D01*
X00088571Y00002773D01*
X00089282Y00003022D01*
X00089876Y00003334D01*
X00090121Y00003514D01*
X00090318Y00003703D01*
X00090517Y00003980D01*
X00090665Y00004233D01*
X00090816Y00004514D01*
X00090967Y00004826D01*
X00091071Y00005068D01*
X00091181Y00005373D01*
X00091255Y00005647D01*
X00091410Y00006161D01*
X00091515Y00006495D01*
X00091650Y00006912D01*
X00091774Y00007274D01*
X00091887Y00007582D01*
X00092068Y00007958D01*
X00092237Y00008226D01*
X00092475Y00008532D01*
X00092685Y00008753D01*
X00092908Y00008950D01*
X00093271Y00009207D01*
X00093452Y00009311D01*
X00093812Y00009573D01*
X00094038Y00009743D01*
X00094240Y00009898D01*
X00094254Y00009909D01*
X00094268Y00009918D01*
X00094283Y00009928D01*
X00094299Y00009936D01*
X00094315Y00009944D01*
X00094331Y00009951D01*
X00094347Y00009957D01*
X00094364Y00009963D01*
X00094381Y00009967D01*
X00094398Y00009972D01*
X00094415Y00009975D01*
X00094433Y00009977D01*
X00094450Y00009979D01*
X00094468Y00009980D01*
X00094485Y00009980D01*
X00094503Y00009980D01*
X00094520Y00009978D01*
X00094538Y00009976D01*
X00094555Y00009973D01*
X00094572Y00009969D01*
X00095059Y00009852D01*
X00095101Y00009839D01*
X00095141Y00009822D01*
X00095179Y00009800D01*
X00095214Y00009775D01*
X00095247Y00009746D01*
X00095276Y00009713D01*
X00095301Y00009677D01*
X00095322Y00009639D01*
X00095338Y00009598D01*
X00095350Y00009556D01*
X00095358Y00009513D01*
X00095360Y00009470D01*
X00095358Y00009426D01*
X00095351Y00009383D01*
X00095339Y00009341D01*
X00095322Y00009301D01*
X00095301Y00009262D01*
X00095276Y00009226D01*
X00095248Y00009193D01*
X00095215Y00009164D01*
X00095112Y00009080D01*
X00095108Y00009077D01*
X00094754Y00008803D01*
X00094752Y00008802D01*
X00094515Y00008624D01*
X00094513Y00008623D01*
X00094104Y00008324D01*
X00094086Y00008312D01*
X00093923Y00008219D01*
X00093891Y00008199D01*
X00093660Y00008036D01*
X00093626Y00008009D01*
X00093519Y00007914D01*
X00093494Y00007890D01*
X00093385Y00007775D01*
X00093360Y00007746D01*
X00093216Y00007562D01*
X00093194Y00007530D01*
X00093116Y00007406D01*
X00093093Y00007366D01*
X00092985Y00007139D01*
X00092970Y00007105D01*
X00092889Y00006883D01*
X00092886Y00006875D01*
X00092772Y00006542D01*
X00092770Y00006536D01*
X00092641Y00006138D01*
X00092640Y00006134D01*
X00092540Y00005815D01*
X00092539Y00005811D01*
X00092392Y00005328D01*
X00092389Y00005316D01*
X00092310Y00005025D01*
X00092305Y00005009D01*
X00092172Y00004640D01*
X00092167Y00004629D01*
X00092044Y00004340D01*
X00092040Y00004332D01*
X00091870Y00003981D01*
X00091867Y00003974D01*
X00091698Y00003658D01*
X00091694Y00003652D01*
X00091513Y00003343D01*
X00091503Y00003327D01*
X00091215Y00002927D01*
X00091213Y00002925D01*
X00091213Y00002925D01*
X00091211Y00002923D01*
X00090892Y00002618D01*
X00090873Y00002601D01*
X00090516Y00002338D01*
X00090491Y00002322D01*
X00089766Y00001943D01*
X00089740Y00001932D01*
X00088917Y00001643D01*
X00088898Y00001637D01*
X00088156Y00001456D01*
X00088144Y00001453D01*
X00087628Y00001360D01*
X00087618Y00001358D01*
X00087095Y00001291D01*
X00086522Y00001219D01*
X00086515Y00001219D01*
X00085727Y00001145D01*
X00085721Y00001145D01*
X00084879Y00001089D01*
X00084876Y00001089D01*
X00084305Y00001061D01*
X00084303Y00001061D01*
X00083567Y00001034D01*
X00083564Y00001034D01*
X00082620Y00001014D01*
X00082617Y00001014D01*
X00082585Y00001013D01*
X00080561Y00002194D02*
X00080561Y00002194D01*
X00080584Y00002193D01*
X00080607Y00002191D01*
X00080629Y00002187D01*
X00080652Y00002182D01*
X00080674Y00002176D01*
X00080696Y00002168D01*
X00080717Y00002159D01*
X00080737Y00002149D01*
X00080757Y00002138D01*
X00080777Y00002126D01*
X00080795Y00002112D01*
X00080813Y00002098D01*
X00080830Y00002082D01*
X00080846Y00002066D01*
X00080861Y00002048D01*
X00080875Y00002030D01*
X00080888Y00002011D01*
X00080900Y00001991D01*
X00080910Y00001971D01*
X00080919Y00001950D01*
X00081081Y00001553D01*
X00081094Y00001517D01*
X00081103Y00001479D01*
X00081109Y00001441D01*
X00081111Y00001402D01*
X00081108Y00001363D01*
X00081102Y00001325D01*
X00081093Y00001287D01*
X00081079Y00001251D01*
X00081062Y00001216D01*
X00081042Y00001183D01*
X00081019Y00001152D01*
X00080992Y00001123D01*
X00080963Y00001097D01*
X00080932Y00001075D01*
X00080898Y00001055D01*
X00080863Y00001039D01*
X00080826Y00001026D01*
X00080788Y00001017D01*
X00080750Y00001012D01*
X00080711Y00001011D01*
X00080261Y00001017D01*
X00080259Y00001017D01*
X00079473Y00001034D01*
X00079466Y00001034D01*
X00078481Y00001088D01*
X00078475Y00001089D01*
X00077512Y00001168D01*
X00077508Y00001168D01*
X00076692Y00001252D01*
X00076688Y00001253D01*
X00076029Y00001331D01*
X00076027Y00001331D01*
X00075563Y00001391D01*
X00075560Y00001392D01*
X00075010Y00001470D01*
X00074998Y00001472D01*
X00074589Y00001556D01*
X00074579Y00001558D01*
X00074189Y00001659D01*
X00074177Y00001663D01*
X00073717Y00001813D01*
X00073707Y00001817D01*
X00073495Y00001899D01*
X00073484Y00001904D01*
X00073116Y00002071D01*
X00073101Y00002079D01*
X00072752Y00002277D01*
X00072735Y00002288D01*
X00072476Y00002473D01*
X00072452Y00002493D01*
X00072185Y00002756D01*
X00072176Y00002765D01*
X00071906Y00003068D01*
X00071895Y00003082D01*
X00071599Y00003481D01*
X00071589Y00003497D01*
X00071375Y00003855D01*
X00071363Y00003877D01*
X00071174Y00004312D01*
X00071172Y00004318D01*
X00071055Y00004613D01*
X00071053Y00004620D01*
X00070875Y00005130D01*
X00070874Y00005133D01*
X00070739Y00005537D01*
X00070739Y00005538D01*
X00070672Y00005740D01*
X00070598Y00005968D01*
X00070598Y00005968D01*
X00070519Y00006213D01*
X00070519Y00006214D01*
X00070425Y00006506D01*
X00070304Y00006888D01*
X00070304Y00006889D01*
X00070279Y00006970D01*
X00070265Y00007007D01*
X00070173Y00007222D01*
X00070146Y00007273D01*
X00069949Y00007594D01*
X00069919Y00007636D01*
X00069806Y00007776D01*
X00069786Y00007799D01*
X00069730Y00007858D01*
X00069708Y00007880D01*
X00069639Y00007943D01*
X00069596Y00007976D01*
X00069342Y00008151D01*
X00069339Y00008152D01*
X00068854Y00008495D01*
X00068851Y00008497D01*
X00068511Y00008746D01*
X00068508Y00008749D01*
X00068123Y00009042D01*
X00068118Y00009046D01*
X00067839Y00009273D01*
X00067611Y00009459D01*
X00067603Y00009466D01*
X00067152Y00009877D01*
X00067152Y00009877D01*
X00067124Y00009905D01*
X00067099Y00009936D01*
X00067078Y00009968D01*
X00067060Y00010003D01*
X00067045Y00010039D01*
X00067034Y00010077D01*
X00067027Y00010115D01*
X00067023Y00010155D01*
X00067024Y00010194D01*
X00067029Y00010233D01*
X00067037Y00010271D01*
X00067049Y00010308D01*
X00067065Y00010344D01*
X00067084Y00010378D01*
X00067106Y00010410D01*
X00067132Y00010440D01*
X00067160Y00010467D01*
X00067191Y00010491D01*
X00067225Y00010512D01*
X00067260Y00010529D01*
X00067655Y00010701D01*
X00067676Y00010710D01*
X00067698Y00010717D01*
X00067719Y00010723D01*
X00067742Y00010728D01*
X00067764Y00010731D01*
X00067787Y00010733D01*
X00067809Y00010734D01*
X00067832Y00010734D01*
X00067854Y00010732D01*
X00067877Y00010729D01*
X00067899Y00010724D01*
X00067921Y00010719D01*
X00067943Y00010712D01*
X00067964Y00010704D01*
X00067984Y00010695D01*
X00068004Y00010684D01*
X00068024Y00010672D01*
X00068043Y00010660D01*
X00068061Y00010646D01*
X00068078Y00010631D01*
X00068078Y00010631D01*
X00068379Y00010357D01*
X00068584Y00010189D01*
X00068851Y00009972D01*
X00069217Y00009693D01*
X00069542Y00009455D01*
X00070015Y00009121D01*
X00070352Y00008890D01*
X00070547Y00008713D01*
X00070687Y00008566D01*
X00070902Y00008300D01*
X00071213Y00007793D01*
X00071382Y00007399D01*
X00071430Y00007244D01*
X00071551Y00006865D01*
X00071644Y00006575D01*
X00071722Y00006332D01*
X00071795Y00006107D01*
X00071860Y00005908D01*
X00071992Y00005513D01*
X00072162Y00005028D01*
X00072264Y00004767D01*
X00072421Y00004406D01*
X00072577Y00004145D01*
X00072818Y00003820D01*
X00073037Y00003574D01*
X00073225Y00003389D01*
X00073379Y00003279D01*
X00073645Y00003128D01*
X00073949Y00002990D01*
X00074110Y00002927D01*
X00074514Y00002795D01*
X00074851Y00002708D01*
X00075206Y00002635D01*
X00075720Y00002562D01*
X00076174Y00002503D01*
X00076820Y00002427D01*
X00077619Y00002344D01*
X00078559Y00002267D01*
X00079514Y00002215D01*
X00080282Y00002198D01*
X00080561Y00002194D01*
X00028583Y00001006D02*
X00028583Y00001006D01*
X00028549Y00001007D01*
X00028514Y00001012D01*
X00028480Y00001019D01*
X00028447Y00001030D01*
X00028415Y00001043D01*
X00028384Y00001059D01*
X00028355Y00001078D01*
X00028327Y00001099D01*
X00028302Y00001123D01*
X00028279Y00001149D01*
X00028258Y00001176D01*
X00028239Y00001206D01*
X00028223Y00001237D01*
X00028210Y00001269D01*
X00028200Y00001303D01*
X00028193Y00001337D01*
X00028189Y00001371D01*
X00028188Y00001406D01*
X00028190Y00001441D01*
X00028196Y00001475D01*
X00028272Y00001869D01*
X00028278Y00001895D01*
X00028286Y00001921D01*
X00028296Y00001946D01*
X00028307Y00001971D01*
X00028320Y00001995D01*
X00028335Y00002018D01*
X00028351Y00002039D01*
X00028369Y00002060D01*
X00028388Y00002079D01*
X00028408Y00002097D01*
X00028429Y00002114D01*
X00028452Y00002129D01*
X00028475Y00002142D01*
X00028500Y00002154D01*
X00028525Y00002164D01*
X00028550Y00002172D01*
X00028577Y00002179D01*
X00028603Y00002183D01*
X00028630Y00002186D01*
X00028657Y00002187D01*
X00029103Y00002189D01*
X00029607Y00002195D01*
X00030539Y00002215D01*
X00031262Y00002241D01*
X00031818Y00002268D01*
X00032638Y00002322D01*
X00033398Y00002393D01*
X00033954Y00002463D01*
X00034451Y00002527D01*
X00034912Y00002610D01*
X00035579Y00002773D01*
X00036289Y00003022D01*
X00036884Y00003334D01*
X00037129Y00003514D01*
X00037325Y00003703D01*
X00037525Y00003980D01*
X00037673Y00004233D01*
X00037824Y00004514D01*
X00037975Y00004826D01*
X00038078Y00005068D01*
X00038189Y00005373D01*
X00038263Y00005647D01*
X00038418Y00006161D01*
X00038523Y00006495D01*
X00038658Y00006912D01*
X00038782Y00007274D01*
X00038895Y00007582D01*
X00039076Y00007958D01*
X00039245Y00008226D01*
X00039483Y00008532D01*
X00039693Y00008753D01*
X00039916Y00008950D01*
X00040279Y00009207D01*
X00040460Y00009311D01*
X00040820Y00009573D01*
X00041046Y00009743D01*
X00041384Y00010004D01*
X00041915Y00010437D01*
X00042120Y00010622D01*
X00042135Y00010635D01*
X00042150Y00010647D01*
X00042166Y00010658D01*
X00042182Y00010668D01*
X00042199Y00010678D01*
X00042216Y00010686D01*
X00042234Y00010694D01*
X00042252Y00010701D01*
X00042270Y00010707D01*
X00042289Y00010712D01*
X00042308Y00010716D01*
X00042327Y00010720D01*
X00042346Y00010722D01*
X00042365Y00010723D01*
X00042384Y00010724D01*
X00042404Y00010723D01*
X00042423Y00010722D01*
X00042442Y00010720D01*
X00042461Y00010716D01*
X00042480Y00010712D01*
X00042940Y00010597D01*
X00042979Y00010584D01*
X00043018Y00010568D01*
X00043054Y00010548D01*
X00043088Y00010524D01*
X00043119Y00010496D01*
X00043147Y00010466D01*
X00043172Y00010433D01*
X00043193Y00010397D01*
X00043210Y00010359D01*
X00043223Y00010320D01*
X00043232Y00010279D01*
X00043237Y00010238D01*
X00043237Y00010196D01*
X00043233Y00010155D01*
X00043225Y00010114D01*
X00043212Y00010075D01*
X00043195Y00010037D01*
X00043174Y00010001D01*
X00043150Y00009967D01*
X00043122Y00009936D01*
X00043118Y00009932D01*
X00042688Y00009544D01*
X00042681Y00009537D01*
X00042120Y00009080D01*
X00042116Y00009077D01*
X00041762Y00008803D01*
X00041760Y00008802D01*
X00041523Y00008624D01*
X00041521Y00008623D01*
X00041112Y00008324D01*
X00041094Y00008312D01*
X00040931Y00008219D01*
X00040898Y00008199D01*
X00040668Y00008036D01*
X00040634Y00008009D01*
X00040527Y00007914D01*
X00040502Y00007890D01*
X00040393Y00007775D01*
X00040367Y00007746D01*
X00040224Y00007562D01*
X00040202Y00007530D01*
X00040123Y00007406D01*
X00040101Y00007366D01*
X00039993Y00007139D01*
X00039978Y00007105D01*
X00039897Y00006883D01*
X00039894Y00006875D01*
X00039780Y00006542D01*
X00039778Y00006536D01*
X00039649Y00006138D01*
X00039648Y00006134D01*
X00039548Y00005815D01*
X00039547Y00005811D01*
X00039400Y00005328D01*
X00039397Y00005316D01*
X00039318Y00005025D01*
X00039313Y00005010D01*
X00039179Y00004639D01*
X00039175Y00004629D01*
X00039051Y00004340D01*
X00039048Y00004332D01*
X00038878Y00003981D01*
X00038875Y00003974D01*
X00038706Y00003658D01*
X00038702Y00003652D01*
X00038521Y00003343D01*
X00038510Y00003327D01*
X00038222Y00002927D01*
X00038221Y00002925D01*
X00038221Y00002925D01*
X00038218Y00002923D01*
X00037900Y00002618D01*
X00037881Y00002601D01*
X00037524Y00002338D01*
X00037498Y00002322D01*
X00036774Y00001943D01*
X00036748Y00001932D01*
X00035924Y00001643D01*
X00035906Y00001637D01*
X00035164Y00001456D01*
X00035152Y00001453D01*
X00034636Y00001360D01*
X00034626Y00001358D01*
X00034103Y00001291D01*
X00033529Y00001219D01*
X00033523Y00001219D01*
X00032734Y00001145D01*
X00032729Y00001145D01*
X00031887Y00001089D01*
X00031884Y00001089D01*
X00031312Y00001061D01*
X00031310Y00001061D01*
X00030575Y00001034D01*
X00030572Y00001034D01*
X00029628Y00001014D01*
X00029625Y00001014D01*
X00029112Y00001008D01*
X00029110Y00001008D01*
X00028583Y00001006D01*
X00026557Y00002214D02*
X00026557Y00002214D01*
X00026584Y00002212D01*
X00026612Y00002209D01*
X00026639Y00002204D01*
X00026665Y00002196D01*
X00026691Y00002187D01*
X00026716Y00002176D01*
X00026741Y00002164D01*
X00026764Y00002149D01*
X00026787Y00002134D01*
X00026808Y00002116D01*
X00026828Y00002097D01*
X00026847Y00002077D01*
X00026864Y00002056D01*
X00026880Y00002033D01*
X00026894Y00002009D01*
X00026906Y00001985D01*
X00026917Y00001959D01*
X00026926Y00001933D01*
X00026933Y00001907D01*
X00026938Y00001880D01*
X00026998Y00001485D01*
X00027002Y00001451D01*
X00027002Y00001416D01*
X00027000Y00001382D01*
X00026995Y00001348D01*
X00026987Y00001315D01*
X00026976Y00001282D01*
X00026962Y00001251D01*
X00026945Y00001221D01*
X00026926Y00001192D01*
X00026905Y00001166D01*
X00026881Y00001141D01*
X00026855Y00001118D01*
X00026828Y00001098D01*
X00026798Y00001080D01*
X00026767Y00001065D01*
X00026735Y00001052D01*
X00026702Y00001043D01*
X00026669Y00001036D01*
X00026635Y00001032D01*
X00026600Y00001032D01*
X00026600Y00001032D01*
X00026481Y00001034D01*
X00026474Y00001034D01*
X00025489Y00001088D01*
X00025483Y00001089D01*
X00024520Y00001168D01*
X00024516Y00001168D01*
X00023700Y00001252D01*
X00023696Y00001253D01*
X00023037Y00001331D01*
X00023035Y00001331D01*
X00022570Y00001391D01*
X00022568Y00001392D01*
X00022018Y00001470D01*
X00022005Y00001472D01*
X00021596Y00001556D01*
X00021587Y00001558D01*
X00021196Y00001659D01*
X00021185Y00001663D01*
X00020725Y00001813D01*
X00020715Y00001817D01*
X00020502Y00001899D01*
X00020492Y00001904D01*
X00020124Y00002071D01*
X00020109Y00002079D01*
X00019760Y00002277D01*
X00019742Y00002288D01*
X00019484Y00002473D01*
X00019460Y00002493D01*
X00019193Y00002756D01*
X00019184Y00002765D01*
X00018914Y00003068D01*
X00018903Y00003082D01*
X00018607Y00003481D01*
X00018597Y00003497D01*
X00018383Y00003854D01*
X00018371Y00003877D01*
X00018182Y00004312D01*
X00018179Y00004318D01*
X00018063Y00004613D01*
X00018061Y00004620D01*
X00017883Y00005130D01*
X00017882Y00005133D01*
X00017747Y00005537D01*
X00017747Y00005538D01*
X00017680Y00005740D01*
X00017606Y00005968D01*
X00017606Y00005968D01*
X00017527Y00006213D01*
X00017527Y00006214D01*
X00017433Y00006506D01*
X00017312Y00006888D01*
X00017312Y00006889D01*
X00017286Y00006970D01*
X00017273Y00007007D01*
X00017181Y00007222D01*
X00017154Y00007273D01*
X00016957Y00007594D01*
X00016927Y00007636D01*
X00016814Y00007776D01*
X00016794Y00007799D01*
X00016738Y00007858D01*
X00016716Y00007880D01*
X00016646Y00007943D01*
X00016604Y00007976D01*
X00016349Y00008151D01*
X00016347Y00008152D01*
X00015862Y00008495D01*
X00015859Y00008497D01*
X00015519Y00008746D01*
X00015516Y00008749D01*
X00015131Y00009042D01*
X00015126Y00009046D01*
X00014847Y00009273D01*
X00014619Y00009459D01*
X00014610Y00009466D01*
X00014133Y00009902D01*
X00014122Y00009912D01*
X00013955Y00010090D01*
X00013932Y00010116D01*
X00013912Y00010145D01*
X00013894Y00010175D01*
X00013879Y00010207D01*
X00013867Y00010240D01*
X00013858Y00010274D01*
X00013852Y00010308D01*
X00013849Y00010343D01*
X00013849Y00010379D01*
X00013852Y00010414D01*
X00013859Y00010448D01*
X00013868Y00010482D01*
X00013880Y00010515D01*
X00013896Y00010546D01*
X00013914Y00010577D01*
X00013935Y00010605D01*
X00013958Y00010631D01*
X00013983Y00010656D01*
X00014011Y00010678D01*
X00014040Y00010697D01*
X00014386Y00010904D01*
X00014409Y00010917D01*
X00014433Y00010928D01*
X00014458Y00010938D01*
X00014484Y00010946D01*
X00014509Y00010952D01*
X00014536Y00010957D01*
X00014562Y00010959D01*
X00014589Y00010960D01*
X00014616Y00010959D01*
X00014642Y00010956D01*
X00014668Y00010952D01*
X00014694Y00010945D01*
X00014720Y00010937D01*
X00014745Y00010927D01*
X00014769Y00010916D01*
X00014792Y00010903D01*
X00014814Y00010888D01*
X00014836Y00010872D01*
X00014856Y00010855D01*
X00014875Y00010836D01*
X00014957Y00010749D01*
X00015386Y00010357D01*
X00015592Y00010189D01*
X00015859Y00009972D01*
X00016225Y00009693D01*
X00016550Y00009455D01*
X00017022Y00009121D01*
X00017360Y00008890D01*
X00017555Y00008713D01*
X00017694Y00008566D01*
X00017909Y00008300D01*
X00018221Y00007793D01*
X00018390Y00007399D01*
X00018438Y00007244D01*
X00018559Y00006865D01*
X00018652Y00006575D01*
X00018730Y00006332D01*
X00018803Y00006107D01*
X00018868Y00005908D01*
X00019000Y00005513D01*
X00019169Y00005028D01*
X00019272Y00004767D01*
X00019429Y00004406D01*
X00019585Y00004145D01*
X00019826Y00003820D01*
X00020045Y00003574D01*
X00020233Y00003389D01*
X00020387Y00003279D01*
X00020653Y00003128D01*
X00020957Y00002990D01*
X00021118Y00002927D01*
X00021522Y00002795D01*
X00021859Y00002708D01*
X00022214Y00002635D01*
X00022728Y00002562D01*
X00023181Y00002503D01*
X00023828Y00002427D01*
X00024627Y00002344D01*
X00025567Y00002267D01*
X00026522Y00002215D01*
X00026557Y00002214D01*
X00029532Y00053587D02*
X00029532Y00053587D01*
X00029497Y00053590D01*
X00029462Y00053596D01*
X00029428Y00053605D01*
X00029395Y00053618D01*
X00029363Y00053633D01*
X00029332Y00053651D01*
X00029303Y00053672D01*
X00029276Y00053695D01*
X00029252Y00053721D01*
X00029230Y00053749D01*
X00029210Y00053778D01*
X00029193Y00053809D01*
X00029179Y00053842D01*
X00029169Y00053876D01*
X00029161Y00053910D01*
X00029156Y00053946D01*
X00029154Y00053981D01*
X00029156Y00054016D01*
X00029161Y00054052D01*
X00029169Y00054086D01*
X00029278Y00054476D01*
X00029286Y00054501D01*
X00029295Y00054525D01*
X00029307Y00054549D01*
X00029319Y00054572D01*
X00029334Y00054594D01*
X00029349Y00054616D01*
X00029367Y00054636D01*
X00029385Y00054654D01*
X00029405Y00054672D01*
X00029425Y00054688D01*
X00029447Y00054703D01*
X00029470Y00054716D01*
X00029494Y00054728D01*
X00029518Y00054738D01*
X00029543Y00054747D01*
X00029568Y00054753D01*
X00029594Y00054758D01*
X00029620Y00054762D01*
X00029647Y00054763D01*
X00029673Y00054763D01*
X00029687Y00054763D01*
X00029690Y00054762D01*
X00030347Y00054724D01*
X00030351Y00054724D01*
X00030886Y00054681D01*
X00030890Y00054681D01*
X00031613Y00054607D01*
X00031617Y00054607D01*
X00032029Y00054557D01*
X00032032Y00054556D01*
X00032378Y00054509D01*
X00032382Y00054508D01*
X00033052Y00054404D01*
X00033058Y00054403D01*
X00033732Y00054279D01*
X00033737Y00054278D01*
X00034325Y00054154D01*
X00034330Y00054153D01*
X00034950Y00054007D01*
X00034955Y00054005D01*
X00035575Y00053841D01*
X00035581Y00053839D01*
X00036261Y00053637D01*
X00036265Y00053636D01*
X00036522Y00053553D01*
X00036526Y00053552D01*
X00036888Y00053430D01*
X00036893Y00053428D01*
X00037652Y00053149D01*
X00037658Y00053146D01*
X00038393Y00052844D01*
X00038399Y00052842D01*
X00038948Y00052593D01*
X00038954Y00052591D01*
X00039538Y00052305D01*
X00039545Y00052301D01*
X00040363Y00051859D01*
X00040370Y00051855D01*
X00040882Y00051552D01*
X00040888Y00051548D01*
X00041567Y00051111D01*
X00041572Y00051108D01*
X00041793Y00050956D01*
X00041796Y00050954D01*
X00042206Y00050659D01*
X00042211Y00050656D01*
X00042738Y00050251D01*
X00042743Y00050247D01*
X00043118Y00049940D01*
X00043122Y00049936D01*
X00043485Y00049621D01*
X00043489Y00049618D01*
X00043847Y00049288D01*
X00043852Y00049284D01*
X00044236Y00048909D01*
X00044241Y00048904D01*
X00044657Y00048469D01*
X00044661Y00048464D01*
X00044895Y00048203D01*
X00044899Y00048200D01*
X00045095Y00047970D01*
X00045120Y00047944D01*
X00045226Y00047842D01*
X00045234Y00047833D01*
X00045243Y00047825D01*
X00045252Y00047818D01*
X00045262Y00047810D01*
X00045272Y00047803D01*
X00045281Y00047797D01*
X00045291Y00047790D01*
X00045362Y00047746D01*
X00045372Y00047740D01*
X00045382Y00047735D01*
X00045392Y00047729D01*
X00045402Y00047724D01*
X00045413Y00047719D01*
X00045424Y00047715D01*
X00045435Y00047711D01*
X00045463Y00047700D01*
X00045474Y00047696D01*
X00045486Y00047693D01*
X00045497Y00047690D01*
X00045508Y00047687D01*
X00045520Y00047684D01*
X00045531Y00047682D01*
X00045543Y00047680D01*
X00045555Y00047679D01*
X00045670Y00047666D01*
X00045681Y00047665D01*
X00045693Y00047664D01*
X00045704Y00047663D01*
X00045715Y00047663D01*
X00045727Y00047664D01*
X00045738Y00047664D01*
X00045749Y00047665D01*
X00045761Y00047666D01*
X00045772Y00047668D01*
X00045783Y00047670D01*
X00045795Y00047672D01*
X00045806Y00047674D01*
X00045817Y00047677D01*
X00045828Y00047680D01*
X00045839Y00047684D01*
X00045849Y00047687D01*
X00045860Y00047692D01*
X00045870Y00047696D01*
X00045881Y00047701D01*
X00045891Y00047706D01*
X00045897Y00047709D01*
X00045908Y00047714D01*
X00045918Y00047720D01*
X00045929Y00047727D01*
X00045939Y00047733D01*
X00045949Y00047740D01*
X00045959Y00047747D01*
X00045968Y00047755D01*
X00045977Y00047763D01*
X00045987Y00047771D01*
X00045995Y00047779D01*
X00046056Y00047838D01*
X00046088Y00047874D01*
X00046189Y00048001D01*
X00046196Y00048009D01*
X00046541Y00048398D01*
X00046550Y00048407D01*
X00046895Y00048747D01*
X00046906Y00048757D01*
X00047326Y00049115D01*
X00047343Y00049128D01*
X00047871Y00049489D01*
X00047900Y00049506D01*
X00048620Y00049836D01*
X00048623Y00049838D01*
X00048623Y00049838D01*
X00048626Y00049838D01*
X00049537Y00049926D01*
X00049539Y00049926D01*
X00049540Y00049926D01*
X00049542Y00049925D01*
X00049892Y00049821D01*
X00049923Y00049810D01*
X00049953Y00049796D01*
X00049982Y00049781D01*
X00050010Y00049763D01*
X00050036Y00049742D01*
X00050060Y00049720D01*
X00050082Y00049695D01*
X00050102Y00049669D01*
X00050120Y00049641D01*
X00050135Y00049612D01*
X00050148Y00049582D01*
X00050158Y00049551D01*
X00050166Y00049518D01*
X00050171Y00049486D01*
X00050173Y00049453D01*
X00050172Y00049420D01*
X00050169Y00049387D01*
X00050163Y00049355D01*
X00050154Y00049323D01*
X00050143Y00049292D01*
X00049991Y00048927D01*
X00049979Y00048901D01*
X00049965Y00048875D01*
X00049949Y00048851D01*
X00049932Y00048828D01*
X00049913Y00048806D01*
X00049892Y00048786D01*
X00049870Y00048768D01*
X00049846Y00048751D01*
X00049822Y00048736D01*
X00049796Y00048722D01*
X00049770Y00048711D01*
X00049742Y00048701D01*
X00049715Y00048694D01*
X00049686Y00048689D01*
X00049657Y00048685D01*
X00049629Y00048684D01*
X00049600Y00048685D01*
X00049571Y00048688D01*
X00049543Y00048693D01*
X00049515Y00048701D01*
X00049423Y00048728D01*
X00048934Y00048681D01*
X00048469Y00048468D01*
X00048053Y00048182D01*
X00047698Y00047881D01*
X00047402Y00047589D01*
X00047096Y00047245D01*
X00046952Y00047063D01*
X00046648Y00046765D01*
X00046211Y00046544D01*
X00045759Y00046467D01*
X00045235Y00046526D01*
X00044875Y00046658D01*
X00044524Y00046877D01*
X00044246Y00047147D01*
X00044009Y00047422D01*
X00043792Y00047664D01*
X00043399Y00048076D01*
X00043037Y00048429D01*
X00042700Y00048739D01*
X00042358Y00049035D01*
X00042006Y00049324D01*
X00041505Y00049709D01*
X00041116Y00049988D01*
X00040915Y00050125D01*
X00040264Y00050545D01*
X00039785Y00050829D01*
X00039001Y00051253D01*
X00038448Y00051523D01*
X00037928Y00051758D01*
X00037226Y00052047D01*
X00036498Y00052315D01*
X00036155Y00052431D01*
X00035914Y00052508D01*
X00035258Y00052703D01*
X00034665Y00052860D01*
X00034070Y00053001D01*
X00033506Y00053120D01*
X00032857Y00053239D01*
X00032209Y00053340D01*
X00031879Y00053385D01*
X00031484Y00053433D01*
X00030781Y00053505D01*
X00030268Y00053545D01*
X00029630Y00053583D01*
X00029532Y00053587D01*
X00027502Y00054761D02*
X00027502Y00054761D01*
X00027529Y00054761D01*
X00027556Y00054760D01*
X00027583Y00054757D01*
X00027609Y00054752D01*
X00027635Y00054746D01*
X00027661Y00054737D01*
X00027686Y00054727D01*
X00027710Y00054715D01*
X00027733Y00054702D01*
X00027756Y00054687D01*
X00027777Y00054670D01*
X00027797Y00054653D01*
X00027816Y00054633D01*
X00027833Y00054613D01*
X00027849Y00054591D01*
X00027864Y00054568D01*
X00027877Y00054545D01*
X00027888Y00054520D01*
X00027898Y00054495D01*
X00027906Y00054469D01*
X00028009Y00054081D01*
X00028017Y00054047D01*
X00028021Y00054012D01*
X00028023Y00053976D01*
X00028021Y00053941D01*
X00028016Y00053906D01*
X00028008Y00053872D01*
X00027997Y00053838D01*
X00027983Y00053806D01*
X00027966Y00053775D01*
X00027946Y00053746D01*
X00027924Y00053718D01*
X00027899Y00053693D01*
X00027873Y00053670D01*
X00027844Y00053649D01*
X00027813Y00053631D01*
X00027782Y00053616D01*
X00027748Y00053604D01*
X00027714Y00053595D01*
X00027680Y00053589D01*
X00027644Y00053586D01*
X00027642Y00053586D01*
X00026875Y00053541D01*
X00026236Y00053487D01*
X00025530Y00053410D01*
X00024782Y00053308D01*
X00024121Y00053198D01*
X00023581Y00053095D01*
X00023187Y00053012D01*
X00022546Y00052861D01*
X00022393Y00052822D01*
X00021516Y00052576D01*
X00020396Y00052203D01*
X00019307Y00051770D01*
X00018339Y00051319D01*
X00017796Y00051036D01*
X00017099Y00050639D01*
X00016445Y00050227D01*
X00015689Y00049698D01*
X00015134Y00049269D01*
X00014539Y00048766D01*
X00014104Y00048365D01*
X00013626Y00047887D01*
X00013287Y00047522D01*
X00012893Y00047062D01*
X00012793Y00046939D01*
X00012361Y00046611D01*
X00011942Y00046527D01*
X00011469Y00046630D01*
X00011079Y00046931D01*
X00010984Y00047064D01*
X00010844Y00047276D01*
X00010758Y00047403D01*
X00010586Y00047688D01*
X00010394Y00047977D01*
X00010146Y00048204D01*
X00009786Y00048411D01*
X00009565Y00048510D01*
X00009070Y00048661D01*
X00008749Y00048690D01*
X00008730Y00048692D01*
X00008711Y00048695D01*
X00008693Y00048699D01*
X00008674Y00048704D01*
X00008656Y00048710D01*
X00008638Y00048717D01*
X00008621Y00048724D01*
X00008604Y00048732D01*
X00008587Y00048741D01*
X00008571Y00048751D01*
X00008555Y00048762D01*
X00008540Y00048773D01*
X00008525Y00048786D01*
X00008511Y00048799D01*
X00008498Y00048812D01*
X00008485Y00048826D01*
X00008473Y00048841D01*
X00008462Y00048856D01*
X00008451Y00048872D01*
X00008441Y00048888D01*
X00008222Y00049276D01*
X00008205Y00049310D01*
X00008191Y00049346D01*
X00008181Y00049383D01*
X00008174Y00049421D01*
X00008171Y00049460D01*
X00008172Y00049498D01*
X00008177Y00049536D01*
X00008185Y00049574D01*
X00008197Y00049610D01*
X00008213Y00049646D01*
X00008232Y00049679D01*
X00008254Y00049711D01*
X00008279Y00049740D01*
X00008307Y00049767D01*
X00008337Y00049791D01*
X00008370Y00049811D01*
X00008404Y00049829D01*
X00008440Y00049843D01*
X00008477Y00049853D01*
X00008515Y00049860D01*
X00008681Y00049881D01*
X00008684Y00049882D01*
X00008684Y00049882D01*
X00008687Y00049881D01*
X00009295Y00049827D01*
X00009298Y00049827D01*
X00009301Y00049826D01*
X00009970Y00049621D01*
X00009993Y00049613D01*
X00010315Y00049468D01*
X00010332Y00049459D01*
X00010845Y00049165D01*
X00010848Y00049163D01*
X00010848Y00049163D01*
X00010848Y00049163D01*
X00010850Y00049161D01*
X00011296Y00048752D01*
X00011298Y00048750D01*
X00011298Y00048750D01*
X00011298Y00048750D01*
X00011299Y00048748D01*
X00011581Y00048324D01*
X00011586Y00048316D01*
X00011646Y00048217D01*
X00011652Y00048207D01*
X00011658Y00048198D01*
X00011665Y00048189D01*
X00011671Y00048180D01*
X00011678Y00048171D01*
X00011686Y00048162D01*
X00011693Y00048154D01*
X00011701Y00048146D01*
X00011709Y00048138D01*
X00011717Y00048130D01*
X00011726Y00048122D01*
X00011734Y00048115D01*
X00011743Y00048108D01*
X00011752Y00048101D01*
X00011761Y00048095D01*
X00011771Y00048089D01*
X00011780Y00048083D01*
X00011790Y00048077D01*
X00011800Y00048072D01*
X00011810Y00048067D01*
X00011820Y00048062D01*
X00011830Y00048057D01*
X00011841Y00048053D01*
X00011851Y00048049D01*
X00011862Y00048045D01*
X00011873Y00048042D01*
X00011884Y00048039D01*
X00011895Y00048036D01*
X00011906Y00048034D01*
X00011917Y00048032D01*
X00011928Y00048030D01*
X00011939Y00048029D01*
X00011950Y00048028D01*
X00011962Y00048027D01*
X00011973Y00048027D01*
X00011984Y00048026D01*
X00011995Y00048027D01*
X00012007Y00048027D01*
X00012018Y00048028D01*
X00012029Y00048029D01*
X00012040Y00048031D01*
X00012051Y00048032D01*
X00012062Y00048034D01*
X00012073Y00048037D01*
X00012084Y00048040D01*
X00012095Y00048043D01*
X00012106Y00048046D01*
X00012117Y00048050D01*
X00012127Y00048054D01*
X00012138Y00048058D01*
X00012148Y00048063D01*
X00012158Y00048067D01*
X00012168Y00048073D01*
X00012178Y00048078D01*
X00012188Y00048084D01*
X00012197Y00048090D01*
X00012207Y00048096D01*
X00012216Y00048103D01*
X00012225Y00048109D01*
X00012234Y00048116D01*
X00012242Y00048124D01*
X00012251Y00048131D01*
X00012259Y00048139D01*
X00012267Y00048147D01*
X00012274Y00048155D01*
X00012282Y00048164D01*
X00012403Y00048305D01*
X00012408Y00048311D01*
X00012772Y00048704D01*
X00012778Y00048709D01*
X00013283Y00049214D01*
X00013289Y00049220D01*
X00013754Y00049648D01*
X00013760Y00049654D01*
X00014388Y00050185D01*
X00014395Y00050190D01*
X00014986Y00050647D01*
X00014993Y00050653D01*
X00015788Y00051208D01*
X00015795Y00051214D01*
X00016488Y00051650D01*
X00016495Y00051654D01*
X00017227Y00052072D01*
X00017234Y00052075D01*
X00017813Y00052377D01*
X00017821Y00052381D01*
X00018833Y00052852D01*
X00018844Y00052857D01*
X00019985Y00053311D01*
X00019996Y00053315D01*
X00021165Y00053704D01*
X00021174Y00053707D01*
X00022086Y00053963D01*
X00022091Y00053964D01*
X00022263Y00054008D01*
X00022266Y00054008D01*
X00022927Y00054164D01*
X00022932Y00054165D01*
X00023346Y00054253D01*
X00023350Y00054254D01*
X00023911Y00054361D01*
X00023916Y00054362D01*
X00024603Y00054475D01*
X00024608Y00054476D01*
X00025383Y00054582D01*
X00025389Y00054583D01*
X00026120Y00054663D01*
X00026125Y00054663D01*
X00026789Y00054719D01*
X00026794Y00054719D01*
X00027502Y00054761D01*
X00082500Y00053588D02*
X00082500Y00053588D01*
X00082469Y00053590D01*
X00082438Y00053595D01*
X00082408Y00053603D01*
X00082378Y00053613D01*
X00082349Y00053625D01*
X00082321Y00053639D01*
X00082295Y00053656D01*
X00082269Y00053674D01*
X00082246Y00053695D01*
X00082224Y00053717D01*
X00082204Y00053741D01*
X00082186Y00053767D01*
X00082170Y00053794D01*
X00082156Y00053822D01*
X00082144Y00053851D01*
X00082135Y00053881D01*
X00082129Y00053911D01*
X00082124Y00053942D01*
X00082122Y00053974D01*
X00082123Y00054005D01*
X00082147Y00054398D01*
X00082150Y00054428D01*
X00082155Y00054458D01*
X00082163Y00054488D01*
X00082173Y00054517D01*
X00082185Y00054545D01*
X00082199Y00054572D01*
X00082215Y00054598D01*
X00082234Y00054622D01*
X00082254Y00054645D01*
X00082276Y00054666D01*
X00082299Y00054686D01*
X00082324Y00054704D01*
X00082350Y00054719D01*
X00082377Y00054733D01*
X00082406Y00054744D01*
X00082435Y00054754D01*
X00082464Y00054761D01*
X00082495Y00054765D01*
X00082525Y00054768D01*
X00082556Y00054768D01*
X00082679Y00054763D01*
X00082682Y00054762D01*
X00083339Y00054724D01*
X00083343Y00054724D01*
X00083878Y00054681D01*
X00083882Y00054681D01*
X00084605Y00054607D01*
X00084609Y00054607D01*
X00085021Y00054557D01*
X00085024Y00054556D01*
X00085370Y00054509D01*
X00085374Y00054508D01*
X00086045Y00054404D01*
X00086050Y00054403D01*
X00086724Y00054279D01*
X00086729Y00054278D01*
X00087317Y00054154D01*
X00087322Y00054153D01*
X00087942Y00054007D01*
X00087947Y00054005D01*
X00088567Y00053841D01*
X00088573Y00053839D01*
X00089253Y00053637D01*
X00089257Y00053636D01*
X00089515Y00053553D01*
X00089518Y00053552D01*
X00089880Y00053430D01*
X00089885Y00053428D01*
X00090644Y00053149D01*
X00090651Y00053146D01*
X00091385Y00052844D01*
X00091391Y00052842D01*
X00091941Y00052593D01*
X00091946Y00052591D01*
X00092530Y00052305D01*
X00092537Y00052301D01*
X00093355Y00051859D01*
X00093362Y00051855D01*
X00093874Y00051552D01*
X00093880Y00051548D01*
X00094559Y00051111D01*
X00094564Y00051108D01*
X00094785Y00050956D01*
X00094788Y00050954D01*
X00095198Y00050659D01*
X00095203Y00050656D01*
X00095730Y00050251D01*
X00095735Y00050247D01*
X00096110Y00049940D01*
X00096114Y00049936D01*
X00096477Y00049621D01*
X00096481Y00049618D01*
X00096839Y00049288D01*
X00096844Y00049284D01*
X00097228Y00048909D01*
X00097233Y00048904D01*
X00097649Y00048469D01*
X00097653Y00048464D01*
X00097888Y00048203D01*
X00097891Y00048200D01*
X00098087Y00047970D01*
X00098112Y00047944D01*
X00098218Y00047842D01*
X00098226Y00047833D01*
X00098235Y00047825D01*
X00098245Y00047818D01*
X00098254Y00047810D01*
X00098264Y00047803D01*
X00098274Y00047797D01*
X00098284Y00047790D01*
X00098354Y00047746D01*
X00098364Y00047740D01*
X00098374Y00047735D01*
X00098384Y00047729D01*
X00098395Y00047724D01*
X00098405Y00047719D01*
X00098416Y00047715D01*
X00098427Y00047711D01*
X00098455Y00047700D01*
X00098466Y00047696D01*
X00098478Y00047693D01*
X00098489Y00047690D01*
X00098500Y00047687D01*
X00098512Y00047684D01*
X00098524Y00047682D01*
X00098535Y00047680D01*
X00098547Y00047679D01*
X00098662Y00047666D01*
X00098673Y00047665D01*
X00098685Y00047664D01*
X00098696Y00047663D01*
X00098707Y00047663D01*
X00098719Y00047664D01*
X00098730Y00047664D01*
X00098742Y00047665D01*
X00098753Y00047666D01*
X00098764Y00047668D01*
X00098775Y00047670D01*
X00098787Y00047672D01*
X00098798Y00047674D01*
X00098809Y00047677D01*
X00098820Y00047680D01*
X00098831Y00047684D01*
X00098841Y00047687D01*
X00098852Y00047692D01*
X00098863Y00047696D01*
X00098873Y00047701D01*
X00098883Y00047706D01*
X00098889Y00047709D01*
X00098900Y00047714D01*
X00098910Y00047720D01*
X00098921Y00047727D01*
X00098931Y00047733D01*
X00098941Y00047740D01*
X00098951Y00047747D01*
X00098960Y00047755D01*
X00098970Y00047763D01*
X00098979Y00047771D01*
X00098987Y00047779D01*
X00099048Y00047838D01*
X00099080Y00047874D01*
X00099181Y00048001D01*
X00099188Y00048009D01*
X00099533Y00048398D01*
X00099542Y00048407D01*
X00099887Y00048747D01*
X00099898Y00048757D01*
X00100319Y00049115D01*
X00100335Y00049128D01*
X00100863Y00049489D01*
X00100892Y00049506D01*
X00101612Y00049836D01*
X00101615Y00049838D01*
X00101615Y00049838D01*
X00101618Y00049838D01*
X00102529Y00049926D01*
X00102532Y00049926D01*
X00102532Y00049926D01*
X00102535Y00049925D01*
X00102845Y00049832D01*
X00102885Y00049818D01*
X00102923Y00049799D01*
X00102960Y00049776D01*
X00102993Y00049750D01*
X00103023Y00049720D01*
X00103050Y00049687D01*
X00103074Y00049651D01*
X00103093Y00049613D01*
X00103108Y00049573D01*
X00103118Y00049531D01*
X00103124Y00049489D01*
X00103126Y00049446D01*
X00103122Y00049404D01*
X00103114Y00049362D01*
X00103102Y00049321D01*
X00103085Y00049282D01*
X00103064Y00049244D01*
X00103040Y00049210D01*
X00103011Y00049178D01*
X00102980Y00049149D01*
X00102557Y00048808D01*
X00102548Y00048800D01*
X00102539Y00048794D01*
X00102530Y00048787D01*
X00102520Y00048781D01*
X00102510Y00048775D01*
X00102500Y00048769D01*
X00102490Y00048764D01*
X00102480Y00048759D01*
X00102469Y00048754D01*
X00102459Y00048749D01*
X00102448Y00048745D01*
X00102437Y00048741D01*
X00102426Y00048738D01*
X00102415Y00048734D01*
X00102404Y00048731D01*
X00102393Y00048729D01*
X00102382Y00048727D01*
X00102370Y00048725D01*
X00102359Y00048723D01*
X00102347Y00048722D01*
X00101926Y00048681D01*
X00101461Y00048468D01*
X00101045Y00048182D01*
X00100690Y00047881D01*
X00100394Y00047589D01*
X00100089Y00047245D01*
X00099944Y00047063D01*
X00099640Y00046765D01*
X00099203Y00046544D01*
X00098751Y00046467D01*
X00098227Y00046526D01*
X00097867Y00046658D01*
X00097516Y00046877D01*
X00097238Y00047147D01*
X00097002Y00047422D01*
X00096785Y00047664D01*
X00096391Y00048076D01*
X00096029Y00048429D01*
X00095692Y00048739D01*
X00095350Y00049035D01*
X00094998Y00049324D01*
X00094497Y00049709D01*
X00094108Y00049988D01*
X00093908Y00050125D01*
X00093256Y00050545D01*
X00092777Y00050829D01*
X00091993Y00051253D01*
X00091441Y00051523D01*
X00090920Y00051758D01*
X00090218Y00052047D01*
X00089490Y00052315D01*
X00089147Y00052431D01*
X00088907Y00052508D01*
X00088250Y00052703D01*
X00087657Y00052860D01*
X00087062Y00053001D01*
X00086498Y00053120D01*
X00085850Y00053239D01*
X00085201Y00053340D01*
X00084871Y00053385D01*
X00084476Y00053433D01*
X00083774Y00053505D01*
X00083260Y00053545D01*
X00082622Y00053583D01*
X00082500Y00053588D01*
X00080452Y00054758D02*
X00080452Y00054758D01*
X00080483Y00054759D01*
X00080514Y00054757D01*
X00080545Y00054753D01*
X00080575Y00054746D01*
X00080605Y00054737D01*
X00080634Y00054726D01*
X00080662Y00054712D01*
X00080689Y00054696D01*
X00080714Y00054678D01*
X00080738Y00054658D01*
X00080760Y00054637D01*
X00080781Y00054613D01*
X00080799Y00054588D01*
X00080816Y00054562D01*
X00080830Y00054535D01*
X00080843Y00054506D01*
X00080853Y00054477D01*
X00080860Y00054446D01*
X00080865Y00054416D01*
X00080868Y00054385D01*
X00080888Y00053992D01*
X00080888Y00053961D01*
X00080886Y00053930D01*
X00080882Y00053900D01*
X00080875Y00053870D01*
X00080866Y00053840D01*
X00080854Y00053812D01*
X00080841Y00053784D01*
X00080825Y00053758D01*
X00080807Y00053733D01*
X00080788Y00053709D01*
X00080766Y00053687D01*
X00080743Y00053667D01*
X00080719Y00053648D01*
X00080693Y00053632D01*
X00080666Y00053617D01*
X00080637Y00053605D01*
X00080608Y00053595D01*
X00080579Y00053587D01*
X00080548Y00053582D01*
X00080518Y00053579D01*
X00079868Y00053541D01*
X00079228Y00053487D01*
X00078522Y00053410D01*
X00077774Y00053308D01*
X00077113Y00053198D01*
X00076573Y00053095D01*
X00076179Y00053012D01*
X00075538Y00052861D01*
X00075385Y00052822D01*
X00074508Y00052576D01*
X00073388Y00052203D01*
X00072299Y00051770D01*
X00071331Y00051319D01*
X00070788Y00051036D01*
X00070091Y00050639D01*
X00069437Y00050227D01*
X00068681Y00049698D01*
X00068126Y00049269D01*
X00067531Y00048766D01*
X00067096Y00048365D01*
X00066618Y00047887D01*
X00066279Y00047522D01*
X00065885Y00047062D01*
X00065785Y00046939D01*
X00065353Y00046611D01*
X00064934Y00046527D01*
X00064461Y00046630D01*
X00064071Y00046931D01*
X00063976Y00047064D01*
X00063836Y00047276D01*
X00063750Y00047403D01*
X00063578Y00047688D01*
X00063386Y00047977D01*
X00063138Y00048204D01*
X00062778Y00048411D01*
X00062557Y00048510D01*
X00062062Y00048661D01*
X00061699Y00048694D01*
X00061278Y00048640D01*
X00060891Y00048495D01*
X00060885Y00048491D01*
X00060855Y00048475D01*
X00060825Y00048461D01*
X00060793Y00048449D01*
X00060760Y00048441D01*
X00060727Y00048435D01*
X00060694Y00048432D01*
X00060660Y00048432D01*
X00060626Y00048435D01*
X00060593Y00048441D01*
X00060561Y00048450D01*
X00060529Y00048461D01*
X00060498Y00048475D01*
X00060469Y00048492D01*
X00060441Y00048511D01*
X00060415Y00048532D01*
X00060391Y00048556D01*
X00060369Y00048581D01*
X00060349Y00048608D01*
X00060332Y00048637D01*
X00060317Y00048667D01*
X00060157Y00049032D01*
X00060146Y00049058D01*
X00060138Y00049084D01*
X00060131Y00049112D01*
X00060127Y00049140D01*
X00060124Y00049168D01*
X00060124Y00049196D01*
X00060125Y00049224D01*
X00060129Y00049252D01*
X00060134Y00049279D01*
X00060141Y00049306D01*
X00060151Y00049333D01*
X00060162Y00049359D01*
X00060175Y00049384D01*
X00060189Y00049408D01*
X00060206Y00049431D01*
X00060224Y00049452D01*
X00060243Y00049473D01*
X00060264Y00049491D01*
X00060286Y00049509D01*
X00060310Y00049524D01*
X00060364Y00049558D01*
X00060367Y00049560D01*
X00060370Y00049561D01*
X00060989Y00049793D01*
X00060991Y00049794D01*
X00060992Y00049794D01*
X00060992Y00049794D01*
X00060994Y00049794D01*
X00061674Y00049881D01*
X00061676Y00049882D01*
X00061680Y00049881D01*
X00062287Y00049827D01*
X00062290Y00049827D01*
X00062293Y00049826D01*
X00062962Y00049621D01*
X00062985Y00049613D01*
X00063307Y00049468D01*
X00063324Y00049459D01*
X00063837Y00049165D01*
X00063840Y00049163D01*
X00063840Y00049163D01*
X00063840Y00049163D01*
X00063842Y00049161D01*
X00064288Y00048752D01*
X00064290Y00048750D01*
X00064290Y00048750D01*
X00064292Y00048748D01*
X00064574Y00048324D01*
X00064578Y00048316D01*
X00064638Y00048217D01*
X00064644Y00048207D01*
X00064650Y00048198D01*
X00064657Y00048189D01*
X00064664Y00048180D01*
X00064671Y00048171D01*
X00064678Y00048162D01*
X00064685Y00048154D01*
X00064693Y00048146D01*
X00064701Y00048138D01*
X00064709Y00048130D01*
X00064718Y00048122D01*
X00064726Y00048115D01*
X00064735Y00048108D01*
X00064744Y00048101D01*
X00064753Y00048095D01*
X00064763Y00048089D01*
X00064772Y00048083D01*
X00064782Y00048077D01*
X00064792Y00048072D01*
X00064802Y00048067D01*
X00064812Y00048062D01*
X00064823Y00048057D01*
X00064833Y00048053D01*
X00064844Y00048049D01*
X00064854Y00048045D01*
X00064865Y00048042D01*
X00064876Y00048039D01*
X00064887Y00048036D01*
X00064898Y00048034D01*
X00064909Y00048032D01*
X00064920Y00048030D01*
X00064931Y00048029D01*
X00064942Y00048028D01*
X00064954Y00048027D01*
X00064965Y00048027D01*
X00064976Y00048026D01*
X00064988Y00048027D01*
X00064999Y00048027D01*
X00065010Y00048028D01*
X00065021Y00048029D01*
X00065032Y00048031D01*
X00065044Y00048032D01*
X00065055Y00048034D01*
X00065066Y00048037D01*
X00065077Y00048040D01*
X00065087Y00048043D01*
X00065098Y00048046D01*
X00065109Y00048050D01*
X00065119Y00048054D01*
X00065130Y00048058D01*
X00065140Y00048063D01*
X00065150Y00048067D01*
X00065160Y00048073D01*
X00065170Y00048078D01*
X00065180Y00048084D01*
X00065189Y00048090D01*
X00065199Y00048096D01*
X00065208Y00048103D01*
X00065217Y00048109D01*
X00065226Y00048116D01*
X00065234Y00048124D01*
X00065243Y00048131D01*
X00065251Y00048139D01*
X00065259Y00048147D01*
X00065267Y00048155D01*
X00065274Y00048164D01*
X00065395Y00048305D01*
X00065400Y00048311D01*
X00065764Y00048704D01*
X00065770Y00048709D01*
X00066275Y00049214D01*
X00066281Y00049220D01*
X00066746Y00049648D01*
X00066752Y00049654D01*
X00067380Y00050185D01*
X00067387Y00050190D01*
X00067978Y00050647D01*
X00067985Y00050653D01*
X00068780Y00051208D01*
X00068788Y00051214D01*
X00069480Y00051650D01*
X00069487Y00051654D01*
X00070219Y00052072D01*
X00070226Y00052075D01*
X00070805Y00052377D01*
X00070813Y00052381D01*
X00071826Y00052852D01*
X00071836Y00052857D01*
X00072977Y00053311D01*
X00072988Y00053315D01*
X00074157Y00053704D01*
X00074166Y00053707D01*
X00075078Y00053963D01*
X00075083Y00053964D01*
X00075255Y00054008D01*
X00075258Y00054008D01*
X00075919Y00054164D01*
X00075924Y00054165D01*
X00076338Y00054253D01*
X00076342Y00054254D01*
X00076903Y00054361D01*
X00076908Y00054362D01*
X00077595Y00054475D01*
X00077601Y00054476D01*
X00078375Y00054582D01*
X00078381Y00054583D01*
X00079113Y00054663D01*
X00079117Y00054663D01*
X00079781Y00054719D01*
X00079786Y00054719D01*
X00080452Y00054758D01*
X00054456Y00030528D02*
X00054456Y00030528D01*
X00054459Y00030558D01*
X00054464Y00030588D01*
X00054472Y00030617D01*
X00054482Y00030646D01*
X00054494Y00030673D01*
X00054508Y00030700D01*
X00054524Y00030726D01*
X00054542Y00030750D01*
X00054562Y00030773D01*
X00054584Y00030794D01*
X00054607Y00030814D01*
X00054631Y00030831D01*
X00054657Y00030847D01*
X00054684Y00030861D01*
X00054712Y00030872D01*
X00054741Y00030882D01*
X00054770Y00030889D01*
X00054800Y00030894D01*
X00054830Y00030896D01*
X00054861Y00030897D01*
X00055365Y00030882D01*
X00055394Y00030880D01*
X00055423Y00030876D01*
X00055452Y00030869D01*
X00055480Y00030861D01*
X00055508Y00030850D01*
X00055534Y00030838D01*
X00055560Y00030823D01*
X00055584Y00030807D01*
X00055608Y00030789D01*
X00055629Y00030769D01*
X00055650Y00030748D01*
X00055668Y00030725D01*
X00055685Y00030701D01*
X00055700Y00030675D01*
X00055713Y00030649D01*
X00055724Y00030622D01*
X00055733Y00030594D01*
X00055739Y00030565D01*
X00055744Y00030536D01*
X00055747Y00030507D01*
X00055758Y00030259D01*
X00055881Y00029093D01*
X00055952Y00028649D01*
X00056173Y00027602D01*
X00056295Y00027133D01*
X00056407Y00026742D01*
X00056546Y00026292D01*
X00056690Y00025861D01*
X00056876Y00025342D01*
X00057089Y00024788D01*
X00057187Y00024541D01*
X00057289Y00024291D01*
X00057435Y00023939D01*
X00057564Y00023633D01*
X00057670Y00023384D01*
X00057810Y00023055D01*
X00058025Y00022632D01*
X00058247Y00022307D01*
X00058531Y00021989D01*
X00058790Y00021761D01*
X00059020Y00021595D01*
X00059354Y00021400D01*
X00059682Y00021251D01*
X00060094Y00021112D01*
X00060420Y00021034D01*
X00060715Y00020986D01*
X00060850Y00020971D01*
X00061007Y00020960D01*
X00061075Y00020767D01*
X00061146Y00020586D01*
X00061244Y00020359D01*
X00061422Y00019994D01*
X00061554Y00019755D01*
X00061692Y00019527D01*
X00061847Y00019297D01*
X00062007Y00019076D01*
X00062196Y00018845D01*
X00062389Y00018633D01*
X00062596Y00018427D01*
X00062726Y00018307D01*
X00062946Y00018113D01*
X00063258Y00017870D01*
X00063570Y00017665D01*
X00063691Y00017595D01*
X00063935Y00017475D01*
X00064080Y00017395D01*
X00064327Y00017284D01*
X00064632Y00017173D01*
X00065002Y00017070D01*
X00065024Y00016919D01*
X00065102Y00016471D01*
X00065160Y00016202D01*
X00065258Y00015863D01*
X00065285Y00015679D01*
X00065396Y00015127D01*
X00065509Y00014710D01*
X00065698Y00014206D01*
X00065861Y00013902D01*
X00065954Y00013753D01*
X00066279Y00013230D01*
X00066498Y00012880D01*
X00066748Y00012482D01*
X00066911Y00012224D01*
X00066911Y00012224D01*
X00066926Y00012198D01*
X00066939Y00012171D01*
X00066950Y00012142D01*
X00066959Y00012113D01*
X00066966Y00012084D01*
X00066970Y00012054D01*
X00066972Y00012023D01*
X00066972Y00011993D01*
X00066969Y00011963D01*
X00066964Y00011933D01*
X00066956Y00011904D01*
X00066947Y00011875D01*
X00066935Y00011847D01*
X00066921Y00011820D01*
X00066905Y00011794D01*
X00066887Y00011770D01*
X00066868Y00011746D01*
X00066846Y00011725D01*
X00066823Y00011705D01*
X00066799Y00011687D01*
X00066473Y00011467D01*
X00066446Y00011450D01*
X00066418Y00011436D01*
X00066389Y00011424D01*
X00066359Y00011414D01*
X00066328Y00011406D01*
X00066297Y00011402D01*
X00066266Y00011399D01*
X00066234Y00011399D01*
X00066203Y00011402D01*
X00066172Y00011407D01*
X00066141Y00011415D01*
X00066111Y00011425D01*
X00066082Y00011438D01*
X00066054Y00011452D01*
X00066028Y00011469D01*
X00066003Y00011488D01*
X00065979Y00011509D01*
X00065957Y00011532D01*
X00065937Y00011556D01*
X00065920Y00011582D01*
X00065749Y00011852D01*
X00065497Y00012253D01*
X00065497Y00012253D01*
X00065277Y00012605D01*
X00064951Y00013130D01*
X00064841Y00013306D01*
X00064835Y00013316D01*
X00064626Y00013706D01*
X00064615Y00013729D01*
X00064387Y00014338D01*
X00064381Y00014356D01*
X00064247Y00014849D01*
X00064244Y00014862D01*
X00064122Y00015472D01*
X00064120Y00015481D01*
X00064105Y00015586D01*
X00064094Y00015638D01*
X00064016Y00015906D01*
X00064013Y00015919D01*
X00064005Y00015958D01*
X00064002Y00015969D01*
X00063999Y00015980D01*
X00063996Y00015991D01*
X00063993Y00016001D01*
X00063989Y00016012D01*
X00063985Y00016022D01*
X00063981Y00016033D01*
X00063976Y00016043D01*
X00063971Y00016053D01*
X00063966Y00016063D01*
X00063960Y00016072D01*
X00063955Y00016082D01*
X00063949Y00016091D01*
X00063942Y00016101D01*
X00063936Y00016110D01*
X00063929Y00016119D01*
X00063922Y00016127D01*
X00063915Y00016136D01*
X00063907Y00016144D01*
X00063900Y00016152D01*
X00063892Y00016160D01*
X00063884Y00016167D01*
X00063875Y00016175D01*
X00063867Y00016182D01*
X00063858Y00016189D01*
X00063849Y00016195D01*
X00063840Y00016202D01*
X00063830Y00016208D01*
X00063821Y00016214D01*
X00063811Y00016219D01*
X00063801Y00016225D01*
X00063791Y00016230D01*
X00063781Y00016234D01*
X00063560Y00016334D01*
X00063546Y00016341D01*
X00063396Y00016423D01*
X00063381Y00016431D01*
X00063140Y00016550D01*
X00063129Y00016556D01*
X00062955Y00016656D01*
X00062945Y00016662D01*
X00062576Y00016905D01*
X00062564Y00016914D01*
X00062197Y00017199D01*
X00062187Y00017207D01*
X00061936Y00017429D01*
X00061934Y00017431D01*
X00061782Y00017571D01*
X00061776Y00017577D01*
X00061538Y00017814D01*
X00061531Y00017821D01*
X00061305Y00018070D01*
X00061299Y00018077D01*
X00061075Y00018350D01*
X00061068Y00018359D01*
X00060880Y00018618D01*
X00060877Y00018624D01*
X00060699Y00018887D01*
X00060694Y00018895D01*
X00060534Y00019159D01*
X00060529Y00019167D01*
X00060376Y00019446D01*
X00060371Y00019454D01*
X00060244Y00019714D01*
X00060239Y00019724D01*
X00060234Y00019734D01*
X00060228Y00019743D01*
X00060223Y00019753D01*
X00060216Y00019762D01*
X00060210Y00019771D01*
X00060203Y00019780D01*
X00060196Y00019789D01*
X00060189Y00019798D01*
X00060182Y00019806D01*
X00060174Y00019814D01*
X00060166Y00019822D01*
X00060158Y00019830D01*
X00060150Y00019837D01*
X00060141Y00019845D01*
X00060133Y00019852D01*
X00060124Y00019859D01*
X00060114Y00019865D01*
X00060105Y00019871D01*
X00060096Y00019877D01*
X00060086Y00019883D01*
X00060076Y00019888D01*
X00060066Y00019893D01*
X00060056Y00019898D01*
X00060046Y00019903D01*
X00060036Y00019907D01*
X00060025Y00019911D01*
X00060015Y00019915D01*
X00060004Y00019918D01*
X00059993Y00019921D01*
X00059982Y00019924D01*
X00059776Y00019973D01*
X00059759Y00019978D01*
X00059257Y00020148D01*
X00059239Y00020155D01*
X00058820Y00020345D01*
X00058802Y00020354D01*
X00058383Y00020599D01*
X00058367Y00020609D01*
X00058060Y00020831D01*
X00058046Y00020843D01*
X00057706Y00021142D01*
X00057689Y00021159D01*
X00057323Y00021568D01*
X00057308Y00021588D01*
X00057013Y00022019D01*
X00057000Y00022041D01*
X00056742Y00022551D01*
X00056736Y00022562D01*
X00056583Y00022922D01*
X00056583Y00022922D01*
X00056583Y00022923D01*
X00056477Y00023172D01*
X00056346Y00023482D01*
X00056345Y00023484D01*
X00056197Y00023841D01*
X00056196Y00023842D01*
X00056092Y00024099D01*
X00056091Y00024101D01*
X00055989Y00024357D01*
X00055988Y00024359D01*
X00055769Y00024930D01*
X00055768Y00024934D01*
X00055575Y00025472D01*
X00055574Y00025476D01*
X00055474Y00025774D01*
X00055470Y00025785D01*
X00055466Y00025795D01*
X00055462Y00025806D01*
X00055457Y00025816D01*
X00055452Y00025826D01*
X00055447Y00025836D01*
X00055442Y00025845D01*
X00055436Y00025855D01*
X00055430Y00025864D01*
X00055424Y00025874D01*
X00055418Y00025883D01*
X00055411Y00025892D01*
X00055404Y00025900D01*
X00055397Y00025909D01*
X00055389Y00025917D01*
X00055381Y00025925D01*
X00055373Y00025933D01*
X00055365Y00025941D01*
X00055357Y00025948D01*
X00055348Y00025955D01*
X00055340Y00025962D01*
X00055331Y00025969D01*
X00055321Y00025975D01*
X00055312Y00025981D01*
X00055303Y00025987D01*
X00055293Y00025993D01*
X00055283Y00025998D01*
X00055273Y00026003D01*
X00055263Y00026008D01*
X00055253Y00026012D01*
X00055242Y00026017D01*
X00055232Y00026020D01*
X00055221Y00026024D01*
X00055211Y00026027D01*
X00055200Y00026030D01*
X00055189Y00026033D01*
X00055178Y00026035D01*
X00055167Y00026037D01*
X00055156Y00026039D01*
X00055145Y00026041D01*
X00055134Y00026042D01*
X00055123Y00026042D01*
X00055112Y00026043D01*
X00055101Y00026043D01*
X00055089Y00026043D01*
X00055078Y00026042D01*
X00055067Y00026042D01*
X00055056Y00026041D01*
X00055045Y00026039D01*
X00055034Y00026037D01*
X00055023Y00026035D01*
X00055012Y00026033D01*
X00055001Y00026030D01*
X00054990Y00026027D01*
X00054980Y00026024D01*
X00054969Y00026021D01*
X00054959Y00026017D01*
X00054948Y00026012D01*
X00054938Y00026008D01*
X00054928Y00026003D01*
X00054918Y00025998D01*
X00054908Y00025993D01*
X00054898Y00025987D01*
X00054889Y00025981D01*
X00054880Y00025975D01*
X00054870Y00025969D01*
X00054862Y00025962D01*
X00054853Y00025955D01*
X00054844Y00025948D01*
X00054836Y00025941D01*
X00054828Y00025933D01*
X00054820Y00025925D01*
X00054812Y00025917D01*
X00054804Y00025909D01*
X00054797Y00025900D01*
X00054790Y00025892D01*
X00054784Y00025883D01*
X00054777Y00025874D01*
X00054771Y00025865D01*
X00054765Y00025855D01*
X00054759Y00025845D01*
X00054754Y00025836D01*
X00054749Y00025826D01*
X00054744Y00025816D01*
X00054739Y00025806D01*
X00054735Y00025795D01*
X00054731Y00025785D01*
X00054727Y00025774D01*
X00054635Y00025500D01*
X00054634Y00025496D01*
X00054432Y00024932D01*
X00054430Y00024928D01*
X00054205Y00024339D01*
X00054204Y00024336D01*
X00054061Y00023980D01*
X00054060Y00023977D01*
X00053796Y00023343D01*
X00053795Y00023340D01*
X00053630Y00022952D01*
X00053630Y00022952D01*
X00053630Y00022951D01*
X00053472Y00022580D01*
X00053469Y00022574D01*
X00053341Y00022296D01*
X00053327Y00022271D01*
X00052802Y00021466D01*
X00052800Y00021464D01*
X00052800Y00021464D01*
X00052798Y00021462D01*
X00052377Y00021025D01*
X00052357Y00021007D01*
X00051900Y00020648D01*
X00051880Y00020634D01*
X00051473Y00020388D01*
X00051454Y00020378D01*
X00050987Y00020161D01*
X00050968Y00020154D01*
X00050511Y00019997D01*
X00050495Y00019992D01*
X00050080Y00019890D01*
X00050067Y00019887D01*
X00050009Y00019877D01*
X00049998Y00019875D01*
X00049986Y00019872D01*
X00049975Y00019869D01*
X00049964Y00019866D01*
X00049954Y00019863D01*
X00049943Y00019859D01*
X00049932Y00019855D01*
X00049922Y00019851D01*
X00049911Y00019846D01*
X00049901Y00019841D01*
X00049891Y00019836D01*
X00049881Y00019830D01*
X00049871Y00019825D01*
X00049861Y00019818D01*
X00049852Y00019812D01*
X00049843Y00019805D01*
X00049834Y00019799D01*
X00049825Y00019791D01*
X00049816Y00019784D01*
X00049808Y00019776D01*
X00049799Y00019768D01*
X00049791Y00019760D01*
X00049784Y00019752D01*
X00049776Y00019743D01*
X00049769Y00019734D01*
X00049762Y00019725D01*
X00049755Y00019716D01*
X00049749Y00019707D01*
X00049743Y00019697D01*
X00049737Y00019687D01*
X00049731Y00019678D01*
X00049494Y00019243D01*
X00049485Y00019228D01*
X00049026Y00018541D01*
X00049014Y00018525D01*
X00048505Y00017913D01*
X00048493Y00017900D01*
X00048086Y00017491D01*
X00048073Y00017480D01*
X00047575Y00017061D01*
X00047559Y00017049D01*
X00047038Y00016692D01*
X00047024Y00016683D01*
X00046681Y00016488D01*
X00046670Y00016483D01*
X00046424Y00016362D01*
X00046414Y00016357D01*
X00046404Y00016351D01*
X00046394Y00016346D01*
X00046385Y00016340D01*
X00046375Y00016333D01*
X00046366Y00016327D01*
X00046357Y00016320D01*
X00046348Y00016313D01*
X00046339Y00016305D01*
X00046331Y00016298D01*
X00046322Y00016290D01*
X00046314Y00016282D01*
X00046307Y00016274D01*
X00046299Y00016265D01*
X00046292Y00016256D01*
X00046285Y00016247D01*
X00046278Y00016238D01*
X00046271Y00016229D01*
X00046265Y00016219D01*
X00046259Y00016210D01*
X00046254Y00016200D01*
X00046248Y00016190D01*
X00046243Y00016180D01*
X00046238Y00016169D01*
X00046234Y00016159D01*
X00046230Y00016148D01*
X00046226Y00016138D01*
X00046222Y00016127D01*
X00046219Y00016116D01*
X00046216Y00016105D01*
X00046213Y00016094D01*
X00046211Y00016083D01*
X00046082Y00015411D01*
X00045987Y00014929D01*
X00045930Y00014641D01*
X00045924Y00014616D01*
X00045768Y00014156D01*
X00045762Y00014140D01*
X00045600Y00013774D01*
X00045595Y00013764D01*
X00045387Y00013357D01*
X00045384Y00013350D01*
X00045208Y00013040D01*
X00045204Y00013033D01*
X00044878Y00012509D01*
X00044875Y00012503D01*
X00044791Y00012379D01*
X00044783Y00012367D01*
X00044555Y00011999D01*
X00044555Y00011999D01*
X00044401Y00011752D01*
X00044401Y00011752D01*
X00044285Y00011565D01*
X00044265Y00011535D01*
X00044241Y00011507D01*
X00044215Y00011481D01*
X00044187Y00011458D01*
X00044157Y00011438D01*
X00044125Y00011420D01*
X00044092Y00011405D01*
X00044057Y00011394D01*
X00044021Y00011386D01*
X00043985Y00011381D01*
X00043949Y00011379D01*
X00043912Y00011381D01*
X00043876Y00011387D01*
X00043840Y00011395D01*
X00043806Y00011407D01*
X00043773Y00011422D01*
X00043741Y00011440D01*
X00043711Y00011461D01*
X00043683Y00011485D01*
X00043657Y00011511D01*
X00043384Y00011816D01*
X00043368Y00011836D01*
X00043353Y00011856D01*
X00043339Y00011878D01*
X00043327Y00011900D01*
X00043316Y00011923D01*
X00043307Y00011946D01*
X00043299Y00011970D01*
X00043293Y00011995D01*
X00043288Y00012020D01*
X00043285Y00012045D01*
X00043284Y00012070D01*
X00043284Y00012095D01*
X00043286Y00012121D01*
X00043289Y00012146D01*
X00043294Y00012170D01*
X00043301Y00012195D01*
X00043309Y00012219D01*
X00043319Y00012242D01*
X00043330Y00012265D01*
X00043343Y00012287D01*
X00043398Y00012375D01*
X00043551Y00012622D01*
X00043795Y00013014D01*
X00043884Y00013147D01*
X00044190Y00013639D01*
X00044345Y00013914D01*
X00044531Y00014276D01*
X00044663Y00014576D01*
X00044784Y00014933D01*
X00044829Y00015158D01*
X00044922Y00015636D01*
X00045109Y00016608D01*
X00045172Y00016949D01*
X00045210Y00017169D01*
X00045525Y00017268D01*
X00045895Y00017418D01*
X00046123Y00017530D01*
X00046405Y00017690D01*
X00046852Y00017996D01*
X00047280Y00018356D01*
X00047625Y00018702D01*
X00048072Y00019240D01*
X00048478Y00019848D01*
X00048713Y00020277D01*
X00048856Y00020586D01*
X00049001Y00020960D01*
X00049331Y00020972D01*
X00049588Y00021002D01*
X00049830Y00021044D01*
X00050169Y00021128D01*
X00050536Y00021254D01*
X00050908Y00021427D01*
X00051218Y00021614D01*
X00051574Y00021893D01*
X00051872Y00022203D01*
X00052299Y00022856D01*
X00052391Y00023055D01*
X00052543Y00023413D01*
X00052707Y00023799D01*
X00052967Y00024425D01*
X00053105Y00024769D01*
X00053324Y00025340D01*
X00053519Y00025884D01*
X00053645Y00026263D01*
X00053795Y00026745D01*
X00053989Y00027447D01*
X00054090Y00027868D01*
X00054202Y00028396D01*
X00054259Y00028709D01*
X00054331Y00029170D01*
X00054379Y00029544D01*
X00054422Y00029974D01*
X00054456Y00030528D01*
X00055797Y00032472D02*
X00055797Y00032472D01*
X00055793Y00032444D01*
X00055788Y00032417D01*
X00055780Y00032389D01*
X00055770Y00032363D01*
X00055759Y00032337D01*
X00055746Y00032312D01*
X00055730Y00032288D01*
X00055714Y00032265D01*
X00055695Y00032243D01*
X00055675Y00032223D01*
X00055654Y00032204D01*
X00055631Y00032187D01*
X00055608Y00032172D01*
X00055583Y00032158D01*
X00055557Y00032146D01*
X00055531Y00032136D01*
X00055504Y00032128D01*
X00055476Y00032122D01*
X00055448Y00032118D01*
X00055420Y00032116D01*
X00054812Y00032093D01*
X00054782Y00032093D01*
X00054752Y00032096D01*
X00054723Y00032100D01*
X00054694Y00032107D01*
X00054666Y00032116D01*
X00054638Y00032127D01*
X00054611Y00032140D01*
X00054586Y00032155D01*
X00054561Y00032172D01*
X00054538Y00032190D01*
X00054517Y00032211D01*
X00054497Y00032233D01*
X00054478Y00032256D01*
X00054462Y00032281D01*
X00054447Y00032307D01*
X00054435Y00032334D01*
X00054424Y00032361D01*
X00054416Y00032390D01*
X00054409Y00032419D01*
X00054405Y00032448D01*
X00054386Y00032651D01*
X00054342Y00033005D01*
X00054236Y00033642D01*
X00054152Y00034016D01*
X00054035Y00034425D01*
X00053883Y00034837D01*
X00053666Y00035268D01*
X00053443Y00035589D01*
X00053205Y00035838D01*
X00053003Y00035998D01*
X00052691Y00036173D01*
X00052384Y00036289D01*
X00051912Y00036398D01*
X00051641Y00036441D01*
X00051503Y00036462D01*
X00051666Y00036629D01*
X00051723Y00036700D01*
X00051874Y00036922D01*
X00052016Y00037200D01*
X00052159Y00037644D01*
X00052217Y00038031D01*
X00052225Y00038252D01*
X00052155Y00038784D01*
X00051985Y00039209D01*
X00051700Y00039658D01*
X00051579Y00039841D01*
X00051467Y00040067D01*
X00051442Y00040279D01*
X00051473Y00040404D01*
X00051561Y00040674D01*
X00051694Y00041171D01*
X00051765Y00041471D01*
X00051848Y00041854D01*
X00051945Y00042365D01*
X00052006Y00042742D01*
X00052059Y00043122D01*
X00052122Y00043733D01*
X00052154Y00044334D01*
X00052156Y00044696D01*
X00052139Y00045109D01*
X00052093Y00045551D01*
X00052012Y00045985D01*
X00051908Y00046267D01*
X00051774Y00046530D01*
X00051606Y00046810D01*
X00051457Y00047032D01*
X00051235Y00047332D01*
X00051009Y00047606D01*
X00050856Y00047767D01*
X00050856Y00047767D01*
X00050833Y00047794D01*
X00050812Y00047823D01*
X00050794Y00047853D01*
X00050779Y00047885D01*
X00050767Y00047918D01*
X00050757Y00047953D01*
X00050751Y00047987D01*
X00050748Y00048023D01*
X00050749Y00048058D01*
X00050752Y00048093D01*
X00050758Y00048128D01*
X00050768Y00048162D01*
X00050781Y00048195D01*
X00050796Y00048227D01*
X00050815Y00048257D01*
X00050836Y00048286D01*
X00050859Y00048312D01*
X00050885Y00048337D01*
X00050913Y00048359D01*
X00050943Y00048378D01*
X00051292Y00048582D01*
X00051315Y00048595D01*
X00051339Y00048606D01*
X00051364Y00048615D01*
X00051389Y00048623D01*
X00051415Y00048629D01*
X00051441Y00048633D01*
X00051467Y00048635D01*
X00051493Y00048636D01*
X00051520Y00048635D01*
X00051546Y00048632D01*
X00051572Y00048628D01*
X00051598Y00048621D01*
X00051623Y00048613D01*
X00051647Y00048604D01*
X00051671Y00048592D01*
X00051694Y00048579D01*
X00051716Y00048565D01*
X00051737Y00048549D01*
X00051757Y00048532D01*
X00051776Y00048513D01*
X00051889Y00048394D01*
X00051898Y00048384D01*
X00052162Y00048064D01*
X00052169Y00048056D01*
X00052420Y00047716D01*
X00052425Y00047708D01*
X00052601Y00047447D01*
X00052606Y00047438D01*
X00052804Y00047109D01*
X00052810Y00047097D01*
X00052987Y00046751D01*
X00052997Y00046729D01*
X00053148Y00046315D01*
X00053157Y00046284D01*
X00053262Y00045730D01*
X00053264Y00045714D01*
X00053317Y00045200D01*
X00053318Y00045188D01*
X00053337Y00044721D01*
X00053337Y00044712D01*
X00053335Y00044304D01*
X00053335Y00044295D01*
X00053300Y00043646D01*
X00053299Y00043636D01*
X00053232Y00042984D01*
X00053231Y00042977D01*
X00053174Y00042568D01*
X00053174Y00042564D01*
X00053109Y00042162D01*
X00053108Y00042157D01*
X00053006Y00041622D01*
X00053005Y00041617D01*
X00052918Y00041211D01*
X00052917Y00041208D01*
X00052840Y00040884D01*
X00052838Y00040879D01*
X00052730Y00040476D01*
X00052728Y00040465D01*
X00052725Y00040454D01*
X00052723Y00040443D01*
X00052721Y00040432D01*
X00052720Y00040421D01*
X00052719Y00040410D01*
X00052718Y00040399D01*
X00052717Y00040388D01*
X00052717Y00040376D01*
X00052717Y00040365D01*
X00052718Y00040354D01*
X00052718Y00040343D01*
X00052719Y00040332D01*
X00052721Y00040321D01*
X00052722Y00040309D01*
X00052724Y00040298D01*
X00052727Y00040287D01*
X00052729Y00040276D01*
X00052732Y00040266D01*
X00052736Y00040255D01*
X00052739Y00040244D01*
X00052743Y00040234D01*
X00052747Y00040223D01*
X00052752Y00040213D01*
X00052756Y00040203D01*
X00052761Y00040193D01*
X00052767Y00040183D01*
X00052772Y00040173D01*
X00052778Y00040164D01*
X00053039Y00039752D01*
X00053040Y00039750D01*
X00053041Y00039747D01*
X00053306Y00039089D01*
X00053307Y00039086D01*
X00053307Y00039086D01*
X00053307Y00039086D01*
X00053307Y00039083D01*
X00053407Y00038324D01*
X00053409Y00038291D01*
X00053395Y00037933D01*
X00053393Y00037911D01*
X00053326Y00037461D01*
X00053325Y00037450D01*
X00053324Y00037439D01*
X00053323Y00037428D01*
X00053322Y00037416D01*
X00053322Y00037405D01*
X00053322Y00037394D01*
X00053323Y00037382D01*
X00053323Y00037371D01*
X00053324Y00037360D01*
X00053326Y00037349D01*
X00053328Y00037338D01*
X00053330Y00037327D01*
X00053332Y00037315D01*
X00053335Y00037305D01*
X00053338Y00037294D01*
X00053341Y00037283D01*
X00053345Y00037272D01*
X00053348Y00037262D01*
X00053353Y00037251D01*
X00053357Y00037241D01*
X00053362Y00037231D01*
X00053367Y00037221D01*
X00053373Y00037211D01*
X00053378Y00037201D01*
X00053384Y00037191D01*
X00053390Y00037182D01*
X00053397Y00037173D01*
X00053404Y00037164D01*
X00053411Y00037155D01*
X00053418Y00037146D01*
X00053425Y00037138D01*
X00053433Y00037129D01*
X00053441Y00037121D01*
X00053449Y00037114D01*
X00053458Y00037106D01*
X00053466Y00037099D01*
X00053475Y00037092D01*
X00053484Y00037085D01*
X00053493Y00037079D01*
X00053503Y00037072D01*
X00053512Y00037066D01*
X00053522Y00037061D01*
X00053649Y00036989D01*
X00053674Y00036972D01*
X00053991Y00036723D01*
X00054012Y00036704D01*
X00054350Y00036349D01*
X00054369Y00036326D01*
X00054675Y00035886D01*
X00054689Y00035862D01*
X00054748Y00035746D01*
X00054753Y00035736D01*
X00054759Y00035726D01*
X00054764Y00035716D01*
X00054770Y00035707D01*
X00054777Y00035697D01*
X00054783Y00035688D01*
X00054790Y00035679D01*
X00054797Y00035671D01*
X00054804Y00035662D01*
X00054812Y00035654D01*
X00054820Y00035646D01*
X00054828Y00035638D01*
X00054836Y00035630D01*
X00054845Y00035623D01*
X00054853Y00035615D01*
X00054862Y00035609D01*
X00054871Y00035602D01*
X00054880Y00035596D01*
X00054890Y00035589D01*
X00054899Y00035584D01*
X00054909Y00035578D01*
X00054919Y00035573D01*
X00054929Y00035568D01*
X00054939Y00035563D01*
X00054950Y00035558D01*
X00054960Y00035554D01*
X00054971Y00035551D01*
X00054981Y00035547D01*
X00054992Y00035544D01*
X00055003Y00035541D01*
X00055014Y00035538D01*
X00055025Y00035536D01*
X00055036Y00035534D01*
X00055047Y00035532D01*
X00055058Y00035531D01*
X00055070Y00035530D01*
X00055081Y00035529D01*
X00055092Y00035529D01*
X00055103Y00035529D01*
X00055115Y00035529D01*
X00055126Y00035530D01*
X00055137Y00035531D01*
X00055148Y00035532D01*
X00055159Y00035533D01*
X00055170Y00035535D01*
X00055181Y00035537D01*
X00055192Y00035540D01*
X00055203Y00035543D01*
X00055214Y00035546D01*
X00055225Y00035549D01*
X00055235Y00035553D01*
X00055246Y00035557D01*
X00055256Y00035561D01*
X00055267Y00035566D01*
X00055277Y00035571D01*
X00055287Y00035576D01*
X00055296Y00035582D01*
X00055306Y00035587D01*
X00055316Y00035593D01*
X00055325Y00035600D01*
X00055334Y00035606D01*
X00055343Y00035613D01*
X00055352Y00035620D01*
X00055360Y00035628D01*
X00055369Y00035635D01*
X00055377Y00035643D01*
X00055384Y00035651D01*
X00055392Y00035659D01*
X00055400Y00035668D01*
X00055407Y00035676D01*
X00055414Y00035685D01*
X00055420Y00035694D01*
X00055427Y00035704D01*
X00055433Y00035713D01*
X00055439Y00035723D01*
X00055444Y00035732D01*
X00055555Y00035934D01*
X00055569Y00035954D01*
X00055888Y00036391D01*
X00055904Y00036411D01*
X00056122Y00036640D01*
X00056136Y00036653D01*
X00056367Y00036854D01*
X00056388Y00036870D01*
X00056703Y00037077D01*
X00056712Y00037083D01*
X00056721Y00037090D01*
X00056730Y00037097D01*
X00056739Y00037104D01*
X00056747Y00037111D01*
X00056756Y00037119D01*
X00056764Y00037127D01*
X00056772Y00037135D01*
X00056780Y00037143D01*
X00056787Y00037152D01*
X00056794Y00037161D01*
X00056801Y00037170D01*
X00056808Y00037179D01*
X00056814Y00037188D01*
X00056820Y00037198D01*
X00056826Y00037207D01*
X00056832Y00037217D01*
X00056837Y00037227D01*
X00056842Y00037237D01*
X00056847Y00037248D01*
X00056851Y00037258D01*
X00056855Y00037269D01*
X00056859Y00037279D01*
X00056862Y00037290D01*
X00056866Y00037301D01*
X00056868Y00037312D01*
X00056871Y00037323D01*
X00056873Y00037334D01*
X00056875Y00037345D01*
X00056877Y00037356D01*
X00056878Y00037368D01*
X00056879Y00037379D01*
X00056880Y00037390D01*
X00056880Y00037402D01*
X00056880Y00037413D01*
X00056879Y00037424D01*
X00056879Y00037436D01*
X00056878Y00037447D01*
X00056876Y00037458D01*
X00056875Y00037469D01*
X00056873Y00037480D01*
X00056830Y00037703D01*
X00056827Y00037727D01*
X00056794Y00038217D01*
X00056794Y00038234D01*
X00056798Y00038444D01*
X00056800Y00038464D01*
X00056857Y00038927D01*
X00056857Y00038930D01*
X00056858Y00038933D01*
X00057010Y00039392D01*
X00057011Y00039395D01*
X00057011Y00039395D01*
X00057011Y00039395D01*
X00057011Y00039395D01*
X00057012Y00039397D01*
X00057250Y00039781D01*
X00057268Y00039806D01*
X00057442Y00040009D01*
X00057450Y00040018D01*
X00057457Y00040027D01*
X00057464Y00040036D01*
X00057470Y00040045D01*
X00057476Y00040055D01*
X00057482Y00040065D01*
X00057488Y00040075D01*
X00057493Y00040085D01*
X00057499Y00040095D01*
X00057503Y00040105D01*
X00057508Y00040116D01*
X00057512Y00040126D01*
X00057516Y00040137D01*
X00057519Y00040148D01*
X00057523Y00040159D01*
X00057526Y00040170D01*
X00057528Y00040181D01*
X00057531Y00040192D01*
X00057532Y00040204D01*
X00057534Y00040215D01*
X00057535Y00040221D01*
X00057538Y00040252D01*
X00057546Y00040420D01*
X00057547Y00040442D01*
X00057546Y00040552D01*
X00057546Y00040568D01*
X00057537Y00040765D01*
X00057536Y00040782D01*
X00057518Y00040989D01*
X00057516Y00041008D01*
X00057470Y00041339D01*
X00057467Y00041353D01*
X00057415Y00041650D01*
X00057415Y00041653D01*
X00057322Y00042158D01*
X00057321Y00042165D01*
X00057254Y00042614D01*
X00057253Y00042624D01*
X00057223Y00042936D01*
X00057222Y00042945D01*
X00057208Y00043254D01*
X00057208Y00043265D01*
X00057211Y00043602D01*
X00057212Y00043615D01*
X00057240Y00044003D01*
X00057241Y00044016D01*
X00057299Y00044427D01*
X00057301Y00044439D01*
X00057381Y00044837D01*
X00057384Y00044847D01*
X00057479Y00045218D01*
X00057482Y00045226D01*
X00057592Y00045587D01*
X00057594Y00045594D01*
X00057710Y00045930D01*
X00057713Y00045937D01*
X00057895Y00046408D01*
X00057897Y00046413D01*
X00057988Y00046628D01*
X00057990Y00046632D01*
X00058138Y00046961D01*
X00058143Y00046970D01*
X00058438Y00047542D01*
X00058444Y00047553D01*
X00058651Y00047898D01*
X00058657Y00047907D01*
X00058674Y00047932D01*
X00058690Y00047954D01*
X00058708Y00047975D01*
X00058727Y00047995D01*
X00058747Y00048013D01*
X00058769Y00048030D01*
X00058791Y00048045D01*
X00058815Y00048058D01*
X00058839Y00048070D01*
X00058865Y00048081D01*
X00058890Y00048089D01*
X00058917Y00048096D01*
X00058944Y00048101D01*
X00058971Y00048104D01*
X00058998Y00048105D01*
X00059025Y00048104D01*
X00059053Y00048101D01*
X00059079Y00048096D01*
X00059106Y00048090D01*
X00059132Y00048082D01*
X00059157Y00048072D01*
X00059524Y00047912D01*
X00059555Y00047896D01*
X00059585Y00047878D01*
X00059613Y00047858D01*
X00059639Y00047835D01*
X00059663Y00047810D01*
X00059684Y00047783D01*
X00059704Y00047755D01*
X00059720Y00047724D01*
X00059734Y00047693D01*
X00059745Y00047660D01*
X00059753Y00047626D01*
X00059758Y00047592D01*
X00059761Y00047558D01*
X00059760Y00047523D01*
X00059756Y00047489D01*
X00059749Y00047455D01*
X00059739Y00047422D01*
X00059726Y00047390D01*
X00059711Y00047359D01*
X00059693Y00047330D01*
X00059650Y00047266D01*
X00059473Y00046972D01*
X00059204Y00046451D01*
X00059071Y00046157D01*
X00058991Y00045967D01*
X00058821Y00045527D01*
X00058716Y00045225D01*
X00058618Y00044902D01*
X00058534Y00044577D01*
X00058464Y00044233D01*
X00058415Y00043885D01*
X00058392Y00043560D01*
X00058389Y00043281D01*
X00058401Y00043024D01*
X00058426Y00042762D01*
X00058487Y00042355D01*
X00058577Y00041861D01*
X00058636Y00041529D01*
X00058691Y00041132D01*
X00058716Y00040851D01*
X00058727Y00040588D01*
X00058728Y00040404D01*
X00058714Y00040131D01*
X00058693Y00039969D01*
X00058653Y00039783D01*
X00058577Y00039580D01*
X00058473Y00039405D01*
X00058359Y00039263D01*
X00058214Y00039094D01*
X00058088Y00038892D01*
X00058015Y00038670D01*
X00057978Y00038369D01*
X00057976Y00038252D01*
X00058001Y00037866D01*
X00058056Y00037582D01*
X00058133Y00037330D01*
X00058264Y00037035D01*
X00058367Y00036857D01*
X00058534Y00036630D01*
X00058698Y00036462D01*
X00058164Y00036375D01*
X00057844Y00036297D01*
X00057632Y00036225D01*
X00057379Y00036109D01*
X00057093Y00035920D01*
X00056946Y00035792D01*
X00056804Y00035643D01*
X00056559Y00035308D01*
X00056409Y00035037D01*
X00056208Y00034552D01*
X00056109Y00034241D01*
X00056029Y00033933D01*
X00055907Y00033323D01*
X00055854Y00032967D01*
X00055803Y00032538D01*
X00055797Y00032472D01*
M02*