%
M48
METRIC,000.000
T01C0.41
T02C0.99
T03C5.51
T10C0.50
%
T01
X041950Y047900
X045749Y047900
X048548Y040699
X049349Y026099
X053090Y090689
X053852Y091705
X054614Y095515
X055376Y100341
X055950Y029300
X055950Y025500
X056138Y104659
X056900Y109231
X057408Y113549
X057949Y043300
X058170Y118121
X059694Y091705
X059948Y118121
X059948Y113549
X059948Y109231
X059948Y104659
X059948Y100341
X059948Y095769
X061350Y027900
X061599Y125106
X061599Y120661
X061599Y116216
X061599Y111771
X061599Y107326
X061599Y102881
X061599Y098436
X061599Y093991
X061599Y089546
X061599Y085736
X061599Y081291
X061599Y076846
X061599Y072401
X061599Y067956
X061599Y063511
X061599Y058431
X061726Y091959
X061726Y056653
X062549Y031299
X062549Y029300
X064774Y125106
X064774Y120661
X064774Y116216
X064774Y111771
X064774Y107326
X064774Y102881
X064774Y098436
X064774Y093991
X064774Y089546
X064774Y085736
X064774Y081291
X064774Y076846
X064774Y072401
X064774Y067956
X064774Y063511
X064774Y058431
X066666Y055116
X067949Y125106
X067949Y120661
X067949Y116216
X067949Y111771
X067949Y107326
X067949Y102881
X067949Y098436
X067949Y093991
X067949Y089546
X067949Y085736
X067949Y081291
X067949Y076846
X067949Y072401
X067949Y067956
X067949Y063511
X067949Y058431
X068647Y019506
X069663Y021538
X069999Y054100
X070425Y052780
X071124Y125106
X071124Y120661
X071124Y116216
X071124Y111771
X071124Y107326
X071124Y102881
X071124Y098436
X071124Y093991
X071124Y089546
X071124Y085736
X071124Y081291
X071124Y076846
X071124Y072401
X071124Y067956
X071124Y063511
X071124Y058431
X071551Y045099
X071551Y033300
X071695Y053034
X073349Y044700
X073550Y033300
X074149Y045299
X074299Y125106
X074299Y120661
X074299Y116216
X074299Y111771
X074299Y107326
X074299Y102881
X074299Y098436
X074299Y093991
X074299Y089546
X074299Y085736
X074299Y081291
X074299Y076846
X074299Y072401
X074299Y067956
X074299Y063511
X074299Y058431
X075315Y046366
X077474Y125106
X077474Y120661
X077474Y116216
X077474Y111771
X077474Y107326
X077474Y102881
X077474Y098436
X077474Y093991
X077474Y089546
X077474Y085736
X077474Y081291
X077474Y076846
X077474Y072401
X077474Y067956
X077474Y063511
X077474Y058431
X078749Y054900
X080649Y125106
X080649Y120661
X080649Y116216
X080649Y111771
X080649Y107326
X080649Y102881
X080649Y098436
X080649Y093991
X080649Y089546
X080649Y085736
X080649Y081291
X080649Y076846
X080649Y072401
X080649Y067956
X080649Y063511
X080649Y058431
X082750Y025299
X082750Y023300
X082750Y021299
X083824Y125106
X083824Y120661
X083824Y116216
X083824Y111771
X083824Y107326
X083824Y102881
X083824Y098436
X083824Y093991
X083824Y089546
X083824Y085736
X083824Y081291
X083824Y076846
X083824Y072401
X083824Y067956
X083824Y063511
X083824Y058431
X086999Y125106
X086999Y120661
X086999Y116216
X086999Y111771
X086999Y107326
X086999Y102881
X086999Y098436
X086999Y093991
X086999Y089546
X086999Y085736
X086999Y081291
X086999Y076846
X086999Y072401
X086999Y067956
X086999Y063511
X086999Y058431
X087550Y049899
X089549Y040499
X094350Y029699
X099348Y029699
X108548Y050499
X110949Y035701
X176550Y047900
X180349Y047900
X183148Y040699
X183949Y026099
X187690Y090689
X188452Y091705
X189214Y095515
X189976Y100341
X190550Y029300
X190550Y025500
X190738Y104659
X191500Y109231
X192008Y113549
X192549Y043300
X192770Y118121
X194294Y091705
X194548Y118121
X194548Y113549
X194548Y109231
X194548Y104659
X194548Y100341
X194548Y095769
X195950Y027900
X196199Y125106
X196199Y120661
X196199Y116216
X196199Y111771
X196199Y107326
X196199Y102881
X196199Y098436
X196199Y093991
X196199Y089546
X196199Y085736
X196199Y081291
X196199Y076846
X196199Y072401
X196199Y067956
X196199Y063511
X196199Y058431
X196326Y091959
X196326Y056653
X197149Y031299
X197149Y029300
X199374Y125106
X199374Y120661
X199374Y116216
X199374Y111771
X199374Y107326
X199374Y102881
X199374Y098436
X199374Y093991
X199374Y089546
X199374Y085736
X199374Y081291
X199374Y076846
X199374Y072401
X199374Y067956
X199374Y063511
X199374Y058431
X201266Y055116
X202549Y125106
X202549Y120661
X202549Y116216
X202549Y111771
X202549Y107326
X202549Y102881
X202549Y098436
X202549Y093991
X202549Y089546
X202549Y085736
X202549Y081291
X202549Y076846
X202549Y072401
X202549Y067956
X202549Y063511
X202549Y058431
X203248Y019506
X204264Y021538
X204599Y054100
X205026Y052780
X205724Y125106
X205724Y120661
X205724Y116216
X205724Y111771
X205724Y107326
X205724Y102881
X205724Y098436
X205724Y093991
X205724Y089546
X205724Y085736
X205724Y081291
X205724Y076846
X205724Y072401
X205724Y067956
X205724Y063511
X205724Y058431
X206151Y045099
X206151Y033300
X206296Y053034
X207949Y044700
X208150Y033300
X208749Y045299
X208899Y125106
X208899Y120661
X208899Y116216
X208899Y111771
X208899Y107326
X208899Y102881
X208899Y098436
X208899Y093991
X208899Y089546
X208899Y085736
X208899Y081291
X208899Y076846
X208899Y072401
X208899Y067956
X208899Y063511
X208899Y058431
X209915Y046366
X212074Y125106
X212074Y120661
X212074Y116216
X212074Y111771
X212074Y107326
X212074Y102881
X212074Y098436
X212074Y093991
X212074Y089546
X212074Y085736
X212074Y081291
X212074Y076846
X212074Y072401
X212074Y067956
X212074Y063511
X212074Y058431
X213349Y054900
X215249Y125106
X215249Y120661
X215249Y116216
X215249Y111771
X215249Y107326
X215249Y102881
X215249Y098436
X215249Y093991
X215249Y089546
X215249Y085736
X215249Y081291
X215249Y076846
X215249Y072401
X215249Y067956
X215249Y063511
X215249Y058431
X217350Y025299
X217350Y023300
X217350Y021299
X218424Y125106
X218424Y120661
X218424Y116216
X218424Y111771
X218424Y107326
X218424Y102881
X218424Y098436
X218424Y093991
X218424Y089546
X218424Y085736
X218424Y081291
X218424Y076846
X218424Y072401
X218424Y067956
X218424Y063511
X218424Y058431
X221599Y125106
X221599Y120661
X221599Y116216
X221599Y111771
X221599Y107326
X221599Y102881
X221599Y098436
X221599Y093991
X221599Y089546
X221599Y085736
X221599Y081291
X221599Y076846
X221599Y072401
X221599Y067956
X221599Y063511
X221599Y058431
X222150Y049899
X224149Y040499
X228950Y029699
X233948Y029699
X243148Y050499
X245549Y035701
T02
X022285Y115939
X022285Y062940
X037286Y115939
X037286Y062940
X050550Y017298
X052346Y015502
X054142Y013707
X055937Y011911
X057733Y010115
X059529Y008319
X108137Y115939
X108137Y062940
X123138Y115939
X123138Y062940
X156885Y115939
X156885Y062940
X171886Y115939
X171886Y062940
X185150Y017298
X186946Y015502
X188742Y013707
X190537Y011911
X192333Y010115
X194129Y008319
X242737Y115939
X242737Y062940
X257738Y115939
X257738Y062940
T03
X072549Y132099
X207149Y132099
T10
X138574Y077616
X138599Y078616
X138597Y079615
X138569Y080615
X138511Y081613
X141436Y082079
X141368Y081081
X141327Y080082
X141307Y079082
X141319Y078083
X209295Y136374
X208295Y136407
X207295Y136431
X206296Y136411
X205296Y136378
X208897Y138892
X207897Y138917
X206897Y138926
X205898Y138901
X204898Y138864
X074695Y136374
X073695Y136407
X072695Y136431
X071696Y136411
X070696Y136378
X075363Y138849
X074363Y138890
X073364Y138916
X072364Y138927
X071364Y138903
X070365Y138867
X067499Y005373
X068499Y005352
X069499Y005332
X070499Y005317
X071499Y005310
X067773Y002867
X068773Y002845
X069773Y002827
X070773Y002814
X071773Y002809
X208070Y005309
X209070Y005317
X210070Y005331
X205099Y005317
X206099Y005310
X205110Y002817
X206110Y002810
X207110Y002806
X208110Y002809
X209110Y002817
X006836Y082079
X006768Y081081
X006727Y080082
X006707Y079082
X006719Y078083
X004301Y081662
X004241Y080664
X004216Y079664
X004212Y078664
X004236Y077665
X273174Y077616
X273199Y078616
X273197Y079615
X273169Y080615
X273111Y081613
X275672Y077505
X275697Y078505
X275699Y079505
X275677Y080505
X275626Y081503
X275546Y082500
X022066Y123929
X021074Y123801
X020132Y123471
X019266Y122977
X018477Y122365
X021795Y126414
X020803Y126287
X019843Y126032
X018907Y125681
X018051Y125166
X017238Y124588
X016498Y123917
X263528Y121954
X262777Y122614
X261974Y123204
X261108Y123706
X260163Y124019
X265211Y123812
X264456Y124468
X263684Y125101
X262820Y125603
X261951Y126097
X260993Y126384
X128928Y121954
X128176Y122614
X127374Y123204
X126509Y123706
X131186Y123205
X130494Y123926
X129732Y124574
X128943Y125183
X128078Y125686
X127195Y126144
X153866Y122977
X153077Y122365
X152381Y121647
X151759Y120864
X152595Y125131
X151787Y124545
X151051Y123869
X150372Y123137
X149750Y122354
X149186Y121528
X107614Y027216
X108285Y027957
X108905Y028741
X109451Y029574
X109919Y030457
X109610Y025696
X110279Y026439
X110895Y027227
X111480Y028036
X111922Y028933
X169828Y030782
X170289Y029896
X170802Y029039
X171400Y028239
X172067Y027495
X172779Y026793
X167954Y028976
X168427Y028096
X168980Y027263
X169605Y026483
X170280Y025746
X035228Y030782
X035689Y029896
X036202Y029039
X036800Y028239
X037467Y027495
X033003Y029623
X033472Y028741
X033973Y027877
X034540Y027055
X035175Y026283
X239935Y025266
X240710Y025898
X241474Y026543
X242214Y027216
X242885Y027957
X243505Y028741
X241769Y023536
X242544Y024168
X243299Y024823
X244034Y025501
X244705Y026242
M30