G04 #@! TF.FileFunction,Soldermask,Bot*
%FSLAX46Y46*%
G04 Gerber Fmt 4.6, Leading zero omitted, Abs format (unit mm)*
G04 Created by KiCad (PCBNEW 4.0.7) date 06/27/18 22:11:54*
%MOMM*%
%LPD*%
G01*
G04 APERTURE LIST*
%ADD10C,0.100000*%
%ADD11C,2.800000*%
%ADD12R,1.700000X1.900000*%
%ADD13C,2.100000*%
%ADD14C,2.100000*%
G04 APERTURE END LIST*
D10*
D11*
X175006000Y-85852000D03*
D10*
G36*
X177105038Y-85216359D02*
X174506962Y-83716359D01*
X175306962Y-82330719D01*
X177905038Y-83830719D01*
X177105038Y-85216359D01*
X177105038Y-85216359D01*
G37*
G36*
X174705038Y-89373281D02*
X172106962Y-87873281D01*
X172906962Y-86487641D01*
X175505038Y-87987641D01*
X174705038Y-89373281D01*
X174705038Y-89373281D01*
G37*
D11*
X182753000Y-80645000D03*
D10*
G36*
X180653962Y-81280641D02*
X183252038Y-82780641D01*
X182452038Y-84166281D01*
X179853962Y-82666281D01*
X180653962Y-81280641D01*
X180653962Y-81280641D01*
G37*
G36*
X183053962Y-77123719D02*
X185652038Y-78623719D01*
X184852038Y-80009359D01*
X182253962Y-78509359D01*
X183053962Y-77123719D01*
X183053962Y-77123719D01*
G37*
D11*
X173101000Y-79248000D03*
D10*
G36*
X171001962Y-79883641D02*
X173600038Y-81383641D01*
X172800038Y-82769281D01*
X170201962Y-81269281D01*
X171001962Y-79883641D01*
X171001962Y-79883641D01*
G37*
G36*
X173401962Y-75726719D02*
X176000038Y-77226719D01*
X175200038Y-78612359D01*
X172601962Y-77112359D01*
X173401962Y-75726719D01*
X173401962Y-75726719D01*
G37*
D11*
X163195000Y-79629000D03*
D10*
G36*
X161095962Y-80264641D02*
X163694038Y-81764641D01*
X162894038Y-83150281D01*
X160295962Y-81650281D01*
X161095962Y-80264641D01*
X161095962Y-80264641D01*
G37*
G36*
X163495962Y-76107719D02*
X166094038Y-77607719D01*
X165294038Y-78993359D01*
X162695962Y-77493359D01*
X163495962Y-76107719D01*
X163495962Y-76107719D01*
G37*
D11*
X154813000Y-81534000D03*
D10*
G36*
X152713962Y-82169641D02*
X155312038Y-83669641D01*
X154512038Y-85055281D01*
X151913962Y-83555281D01*
X152713962Y-82169641D01*
X152713962Y-82169641D01*
G37*
G36*
X155113962Y-78012719D02*
X157712038Y-79512719D01*
X156912038Y-80898359D01*
X154313962Y-79398359D01*
X155113962Y-78012719D01*
X155113962Y-78012719D01*
G37*
D11*
X183515000Y-87249000D03*
D10*
G36*
X185614038Y-86613359D02*
X183015962Y-85113359D01*
X183815962Y-83727719D01*
X186414038Y-85227719D01*
X185614038Y-86613359D01*
X185614038Y-86613359D01*
G37*
G36*
X183214038Y-90770281D02*
X180615962Y-89270281D01*
X181415962Y-87884641D01*
X184014038Y-89384641D01*
X183214038Y-90770281D01*
X183214038Y-90770281D01*
G37*
D11*
X164020500Y-86169500D03*
D10*
G36*
X166119538Y-85533859D02*
X163521462Y-84033859D01*
X164321462Y-82648219D01*
X166919538Y-84148219D01*
X166119538Y-85533859D01*
X166119538Y-85533859D01*
G37*
G36*
X163719538Y-89690781D02*
X161121462Y-88190781D01*
X161921462Y-86805141D01*
X164519538Y-88305141D01*
X163719538Y-89690781D01*
X163719538Y-89690781D01*
G37*
D11*
X155575000Y-88074500D03*
D10*
G36*
X157674038Y-87438859D02*
X155075962Y-85938859D01*
X155875962Y-84553219D01*
X158474038Y-86053219D01*
X157674038Y-87438859D01*
X157674038Y-87438859D01*
G37*
G36*
X155274038Y-91595781D02*
X152675962Y-90095781D01*
X153475962Y-88710141D01*
X156074038Y-90210141D01*
X155274038Y-91595781D01*
X155274038Y-91595781D01*
G37*
D12*
X154432000Y-96727000D03*
X154432000Y-94027000D03*
D13*
X170053000Y-99803949D03*
D14*
X171849051Y-101600000D02*
X171849051Y-101600000D01*
X168256949Y-101600000D02*
X168256949Y-101600000D01*
X170053000Y-103396051D02*
X170053000Y-103396051D01*
M02*
