G04 #@! TF.FileFunction,Legend,Top*
%FSLAX46Y46*%
G04 Gerber Fmt 4.6, Leading zero omitted, Abs format (unit mm)*
G04 Created by KiCad (PCBNEW 4.0.7) date 06/27/18 23:59:29*
%MOMM*%
%LPD*%
G01*
G04 APERTURE LIST*
%ADD10C,0.100000*%
%ADD11C,0.150000*%
%ADD12C,0.010000*%
%ADD13C,2.100000*%
%ADD14O,2.100000X2.100000*%
G04 APERTURE END LIST*
D10*
D11*
X144862500Y-133159500D02*
G75*
G03X144862500Y-133159500I-400000J0D01*
G01*
D12*
G36*
X205041500Y-150516166D02*
X105029000Y-150516166D01*
X105029000Y-120492260D01*
X107022492Y-120492260D01*
X107022496Y-121725495D01*
X107022508Y-122938574D01*
X107022528Y-124130929D01*
X107022557Y-125301995D01*
X107022593Y-126451203D01*
X107022637Y-127577988D01*
X107022688Y-128681782D01*
X107022748Y-129762019D01*
X107022815Y-130818131D01*
X107022889Y-131849553D01*
X107022972Y-132855717D01*
X107023062Y-133836057D01*
X107023159Y-134790005D01*
X107023264Y-135716995D01*
X107023376Y-136616461D01*
X107023495Y-137487834D01*
X107023622Y-138330549D01*
X107023756Y-139144039D01*
X107023898Y-139927737D01*
X107024046Y-140681076D01*
X107024201Y-141403489D01*
X107024364Y-142094409D01*
X107024534Y-142753270D01*
X107024710Y-143379506D01*
X107024893Y-143972548D01*
X107025084Y-144531830D01*
X107025281Y-145056786D01*
X107025484Y-145546849D01*
X107025695Y-146001452D01*
X107025912Y-146420027D01*
X107026136Y-146802009D01*
X107026366Y-147146831D01*
X107026603Y-147453925D01*
X107026846Y-147722725D01*
X107027096Y-147952664D01*
X107027352Y-148143176D01*
X107027614Y-148293693D01*
X107027882Y-148403648D01*
X107028157Y-148472476D01*
X107028438Y-148499608D01*
X107028474Y-148500041D01*
X107036000Y-148501024D01*
X107058118Y-148501983D01*
X107095271Y-148502920D01*
X107147898Y-148503834D01*
X107216442Y-148504725D01*
X107301345Y-148505595D01*
X107403047Y-148506442D01*
X107521991Y-148507268D01*
X107658616Y-148508073D01*
X107813366Y-148508856D01*
X107986681Y-148509619D01*
X108179003Y-148510361D01*
X108390774Y-148511082D01*
X108622434Y-148511783D01*
X108874425Y-148512465D01*
X109147189Y-148513126D01*
X109441167Y-148513768D01*
X109756800Y-148514391D01*
X110094531Y-148514995D01*
X110454799Y-148515581D01*
X110838048Y-148516148D01*
X111244718Y-148516696D01*
X111675250Y-148517227D01*
X112130087Y-148517740D01*
X112609669Y-148518235D01*
X113114438Y-148518713D01*
X113644836Y-148519174D01*
X114201304Y-148519619D01*
X114784283Y-148520047D01*
X115394215Y-148520458D01*
X116031541Y-148520854D01*
X116696702Y-148521233D01*
X117390141Y-148521597D01*
X118112299Y-148521946D01*
X118863616Y-148522280D01*
X119644535Y-148522599D01*
X120455497Y-148522903D01*
X121296943Y-148523193D01*
X122169314Y-148523469D01*
X123073053Y-148523731D01*
X124008601Y-148523980D01*
X124976399Y-148524215D01*
X125976888Y-148524437D01*
X127010510Y-148524646D01*
X128077707Y-148524843D01*
X129178920Y-148525027D01*
X130314589Y-148525199D01*
X131485158Y-148525359D01*
X132691067Y-148525507D01*
X133932757Y-148525644D01*
X135210671Y-148525770D01*
X136525248Y-148525885D01*
X137876932Y-148525989D01*
X139266164Y-148526083D01*
X140693384Y-148526166D01*
X142159034Y-148526240D01*
X143663556Y-148526304D01*
X145207391Y-148526358D01*
X146790981Y-148526403D01*
X148414767Y-148526440D01*
X150079190Y-148526467D01*
X151784692Y-148526486D01*
X153531715Y-148526497D01*
X155034585Y-148526500D01*
X203030666Y-148526500D01*
X203030666Y-42502657D01*
X155029958Y-42507953D01*
X107029250Y-42513250D01*
X107023847Y-95493416D01*
X107023698Y-96992546D01*
X107023558Y-98481721D01*
X107023427Y-99960376D01*
X107023304Y-101427942D01*
X107023191Y-102883855D01*
X107023086Y-104327546D01*
X107022990Y-105758449D01*
X107022903Y-107175996D01*
X107022824Y-108579623D01*
X107022753Y-109968761D01*
X107022692Y-111342843D01*
X107022638Y-112701303D01*
X107022593Y-114043575D01*
X107022556Y-115369090D01*
X107022528Y-116677284D01*
X107022508Y-117967588D01*
X107022496Y-119239435D01*
X107022492Y-120492260D01*
X105029000Y-120492260D01*
X105029000Y-40513000D01*
X205041500Y-40513000D01*
X205041500Y-150516166D01*
X205041500Y-150516166D01*
G37*
X205041500Y-150516166D02*
X105029000Y-150516166D01*
X105029000Y-120492260D01*
X107022492Y-120492260D01*
X107022496Y-121725495D01*
X107022508Y-122938574D01*
X107022528Y-124130929D01*
X107022557Y-125301995D01*
X107022593Y-126451203D01*
X107022637Y-127577988D01*
X107022688Y-128681782D01*
X107022748Y-129762019D01*
X107022815Y-130818131D01*
X107022889Y-131849553D01*
X107022972Y-132855717D01*
X107023062Y-133836057D01*
X107023159Y-134790005D01*
X107023264Y-135716995D01*
X107023376Y-136616461D01*
X107023495Y-137487834D01*
X107023622Y-138330549D01*
X107023756Y-139144039D01*
X107023898Y-139927737D01*
X107024046Y-140681076D01*
X107024201Y-141403489D01*
X107024364Y-142094409D01*
X107024534Y-142753270D01*
X107024710Y-143379506D01*
X107024893Y-143972548D01*
X107025084Y-144531830D01*
X107025281Y-145056786D01*
X107025484Y-145546849D01*
X107025695Y-146001452D01*
X107025912Y-146420027D01*
X107026136Y-146802009D01*
X107026366Y-147146831D01*
X107026603Y-147453925D01*
X107026846Y-147722725D01*
X107027096Y-147952664D01*
X107027352Y-148143176D01*
X107027614Y-148293693D01*
X107027882Y-148403648D01*
X107028157Y-148472476D01*
X107028438Y-148499608D01*
X107028474Y-148500041D01*
X107036000Y-148501024D01*
X107058118Y-148501983D01*
X107095271Y-148502920D01*
X107147898Y-148503834D01*
X107216442Y-148504725D01*
X107301345Y-148505595D01*
X107403047Y-148506442D01*
X107521991Y-148507268D01*
X107658616Y-148508073D01*
X107813366Y-148508856D01*
X107986681Y-148509619D01*
X108179003Y-148510361D01*
X108390774Y-148511082D01*
X108622434Y-148511783D01*
X108874425Y-148512465D01*
X109147189Y-148513126D01*
X109441167Y-148513768D01*
X109756800Y-148514391D01*
X110094531Y-148514995D01*
X110454799Y-148515581D01*
X110838048Y-148516148D01*
X111244718Y-148516696D01*
X111675250Y-148517227D01*
X112130087Y-148517740D01*
X112609669Y-148518235D01*
X113114438Y-148518713D01*
X113644836Y-148519174D01*
X114201304Y-148519619D01*
X114784283Y-148520047D01*
X115394215Y-148520458D01*
X116031541Y-148520854D01*
X116696702Y-148521233D01*
X117390141Y-148521597D01*
X118112299Y-148521946D01*
X118863616Y-148522280D01*
X119644535Y-148522599D01*
X120455497Y-148522903D01*
X121296943Y-148523193D01*
X122169314Y-148523469D01*
X123073053Y-148523731D01*
X124008601Y-148523980D01*
X124976399Y-148524215D01*
X125976888Y-148524437D01*
X127010510Y-148524646D01*
X128077707Y-148524843D01*
X129178920Y-148525027D01*
X130314589Y-148525199D01*
X131485158Y-148525359D01*
X132691067Y-148525507D01*
X133932757Y-148525644D01*
X135210671Y-148525770D01*
X136525248Y-148525885D01*
X137876932Y-148525989D01*
X139266164Y-148526083D01*
X140693384Y-148526166D01*
X142159034Y-148526240D01*
X143663556Y-148526304D01*
X145207391Y-148526358D01*
X146790981Y-148526403D01*
X148414767Y-148526440D01*
X150079190Y-148526467D01*
X151784692Y-148526486D01*
X153531715Y-148526497D01*
X155034585Y-148526500D01*
X203030666Y-148526500D01*
X203030666Y-42502657D01*
X155029958Y-42507953D01*
X107029250Y-42513250D01*
X107023847Y-95493416D01*
X107023698Y-96992546D01*
X107023558Y-98481721D01*
X107023427Y-99960376D01*
X107023304Y-101427942D01*
X107023191Y-102883855D01*
X107023086Y-104327546D01*
X107022990Y-105758449D01*
X107022903Y-107175996D01*
X107022824Y-108579623D01*
X107022753Y-109968761D01*
X107022692Y-111342843D01*
X107022638Y-112701303D01*
X107022593Y-114043575D01*
X107022556Y-115369090D01*
X107022528Y-116677284D01*
X107022508Y-117967588D01*
X107022496Y-119239435D01*
X107022492Y-120492260D01*
X105029000Y-120492260D01*
X105029000Y-40513000D01*
X205041500Y-40513000D01*
X205041500Y-150516166D01*
G36*
X131438417Y-131036549D02*
X131632493Y-131044835D01*
X131806159Y-131058044D01*
X131949587Y-131076112D01*
X131974166Y-131080374D01*
X132318092Y-131161105D01*
X132633119Y-131271737D01*
X132919560Y-131412637D01*
X133177730Y-131584173D01*
X133407941Y-131786713D01*
X133610508Y-132020624D01*
X133785742Y-132286273D01*
X133933959Y-132584028D01*
X134055471Y-132914256D01*
X134150592Y-133277325D01*
X134219635Y-133673603D01*
X134225801Y-133720416D01*
X134255739Y-134018496D01*
X134272052Y-134329246D01*
X134274906Y-134642427D01*
X134264466Y-134947797D01*
X134240897Y-135235114D01*
X134204365Y-135494137D01*
X134196498Y-135536589D01*
X134109529Y-135885246D01*
X133986489Y-136222883D01*
X133830162Y-136544176D01*
X133643331Y-136843802D01*
X133428782Y-137116437D01*
X133297654Y-137255250D01*
X133165544Y-137380074D01*
X133047602Y-137476849D01*
X132933709Y-137552197D01*
X132813746Y-137612742D01*
X132677594Y-137665106D01*
X132664890Y-137669413D01*
X132400446Y-137743087D01*
X132145241Y-137784110D01*
X131904122Y-137792106D01*
X131681936Y-137766695D01*
X131614926Y-137751263D01*
X131479140Y-137712888D01*
X131355967Y-137670961D01*
X131232214Y-137620230D01*
X131094685Y-137555439D01*
X130989916Y-137502401D01*
X130752506Y-137356271D01*
X130536018Y-137174502D01*
X130341493Y-136958831D01*
X130169974Y-136710996D01*
X130022503Y-136432731D01*
X129900120Y-136125775D01*
X129803870Y-135791864D01*
X129734792Y-135432735D01*
X129730509Y-135403235D01*
X129711280Y-135245937D01*
X129696500Y-135074228D01*
X129686076Y-134883876D01*
X129679910Y-134670649D01*
X129677907Y-134430316D01*
X129679971Y-134158644D01*
X129686006Y-133851400D01*
X129691055Y-133663252D01*
X129697494Y-133430608D01*
X129702123Y-133236828D01*
X129704944Y-133078486D01*
X129705959Y-132952150D01*
X129705169Y-132854393D01*
X129702578Y-132781786D01*
X129698188Y-132730899D01*
X129692000Y-132698303D01*
X129691676Y-132697202D01*
X129647589Y-132610731D01*
X129575893Y-132532392D01*
X129489537Y-132473790D01*
X129413727Y-132448077D01*
X129358084Y-132435116D01*
X129331154Y-132412423D01*
X129319352Y-132368533D01*
X129319334Y-132368410D01*
X129315049Y-132327291D01*
X129309009Y-132252694D01*
X129301778Y-132153414D01*
X129293918Y-132038244D01*
X129285993Y-131915976D01*
X129278565Y-131795404D01*
X129272199Y-131685320D01*
X129267457Y-131594519D01*
X129264902Y-131531792D01*
X129264619Y-131514148D01*
X129275880Y-131479443D01*
X129314175Y-131445384D01*
X129374514Y-131411300D01*
X129614917Y-131304574D01*
X129886474Y-131210884D01*
X130179210Y-131133229D01*
X130483151Y-131074608D01*
X130505810Y-131071109D01*
X130654539Y-131053858D01*
X130831991Y-131041838D01*
X131028339Y-131034988D01*
X131233757Y-131033245D01*
X131438417Y-131036549D01*
X131438417Y-131036549D01*
G37*
X131438417Y-131036549D02*
X131632493Y-131044835D01*
X131806159Y-131058044D01*
X131949587Y-131076112D01*
X131974166Y-131080374D01*
X132318092Y-131161105D01*
X132633119Y-131271737D01*
X132919560Y-131412637D01*
X133177730Y-131584173D01*
X133407941Y-131786713D01*
X133610508Y-132020624D01*
X133785742Y-132286273D01*
X133933959Y-132584028D01*
X134055471Y-132914256D01*
X134150592Y-133277325D01*
X134219635Y-133673603D01*
X134225801Y-133720416D01*
X134255739Y-134018496D01*
X134272052Y-134329246D01*
X134274906Y-134642427D01*
X134264466Y-134947797D01*
X134240897Y-135235114D01*
X134204365Y-135494137D01*
X134196498Y-135536589D01*
X134109529Y-135885246D01*
X133986489Y-136222883D01*
X133830162Y-136544176D01*
X133643331Y-136843802D01*
X133428782Y-137116437D01*
X133297654Y-137255250D01*
X133165544Y-137380074D01*
X133047602Y-137476849D01*
X132933709Y-137552197D01*
X132813746Y-137612742D01*
X132677594Y-137665106D01*
X132664890Y-137669413D01*
X132400446Y-137743087D01*
X132145241Y-137784110D01*
X131904122Y-137792106D01*
X131681936Y-137766695D01*
X131614926Y-137751263D01*
X131479140Y-137712888D01*
X131355967Y-137670961D01*
X131232214Y-137620230D01*
X131094685Y-137555439D01*
X130989916Y-137502401D01*
X130752506Y-137356271D01*
X130536018Y-137174502D01*
X130341493Y-136958831D01*
X130169974Y-136710996D01*
X130022503Y-136432731D01*
X129900120Y-136125775D01*
X129803870Y-135791864D01*
X129734792Y-135432735D01*
X129730509Y-135403235D01*
X129711280Y-135245937D01*
X129696500Y-135074228D01*
X129686076Y-134883876D01*
X129679910Y-134670649D01*
X129677907Y-134430316D01*
X129679971Y-134158644D01*
X129686006Y-133851400D01*
X129691055Y-133663252D01*
X129697494Y-133430608D01*
X129702123Y-133236828D01*
X129704944Y-133078486D01*
X129705959Y-132952150D01*
X129705169Y-132854393D01*
X129702578Y-132781786D01*
X129698188Y-132730899D01*
X129692000Y-132698303D01*
X129691676Y-132697202D01*
X129647589Y-132610731D01*
X129575893Y-132532392D01*
X129489537Y-132473790D01*
X129413727Y-132448077D01*
X129358084Y-132435116D01*
X129331154Y-132412423D01*
X129319352Y-132368533D01*
X129319334Y-132368410D01*
X129315049Y-132327291D01*
X129309009Y-132252694D01*
X129301778Y-132153414D01*
X129293918Y-132038244D01*
X129285993Y-131915976D01*
X129278565Y-131795404D01*
X129272199Y-131685320D01*
X129267457Y-131594519D01*
X129264902Y-131531792D01*
X129264619Y-131514148D01*
X129275880Y-131479443D01*
X129314175Y-131445384D01*
X129374514Y-131411300D01*
X129614917Y-131304574D01*
X129886474Y-131210884D01*
X130179210Y-131133229D01*
X130483151Y-131074608D01*
X130505810Y-131071109D01*
X130654539Y-131053858D01*
X130831991Y-131041838D01*
X131028339Y-131034988D01*
X131233757Y-131033245D01*
X131438417Y-131036549D01*
G36*
X139519419Y-131893632D02*
X139526062Y-131917531D01*
X139542822Y-131979578D01*
X139568961Y-132077006D01*
X139603741Y-132207046D01*
X139646424Y-132366929D01*
X139696271Y-132553887D01*
X139752546Y-132765150D01*
X139814510Y-132997950D01*
X139881425Y-133249518D01*
X139952553Y-133517086D01*
X140027156Y-133797884D01*
X140079657Y-133995583D01*
X140630416Y-136069916D01*
X140562083Y-136129252D01*
X140441901Y-136224518D01*
X140291987Y-136329201D01*
X140121377Y-136438124D01*
X139939110Y-136546110D01*
X139754220Y-136647985D01*
X139575746Y-136738570D01*
X139412725Y-136812690D01*
X139281435Y-136862796D01*
X139050526Y-136924415D01*
X138812587Y-136960499D01*
X138578150Y-136970424D01*
X138357748Y-136953566D01*
X138218333Y-136925725D01*
X138027634Y-136860112D01*
X137829582Y-136763637D01*
X137635635Y-136643362D01*
X137457252Y-136506349D01*
X137313542Y-136368101D01*
X137183428Y-136197133D01*
X137075177Y-135995974D01*
X136991417Y-135772147D01*
X136934780Y-135533174D01*
X136907895Y-135286577D01*
X136906000Y-135202561D01*
X136917170Y-134972874D01*
X136952082Y-134747492D01*
X137012838Y-134518553D01*
X137101542Y-134278197D01*
X137220296Y-134018562D01*
X137225505Y-134008059D01*
X137372822Y-133731229D01*
X137521076Y-133492451D01*
X137673163Y-133287491D01*
X137831977Y-133112112D01*
X137850553Y-133093891D01*
X138096142Y-132863139D01*
X138329453Y-132659809D01*
X138560837Y-132475544D01*
X138800642Y-132301988D01*
X138980947Y-132181165D01*
X139153008Y-132071253D01*
X139292293Y-131986847D01*
X139398643Y-131928033D01*
X139471898Y-131894896D01*
X139511899Y-131887521D01*
X139519419Y-131893632D01*
X139519419Y-131893632D01*
G37*
X139519419Y-131893632D02*
X139526062Y-131917531D01*
X139542822Y-131979578D01*
X139568961Y-132077006D01*
X139603741Y-132207046D01*
X139646424Y-132366929D01*
X139696271Y-132553887D01*
X139752546Y-132765150D01*
X139814510Y-132997950D01*
X139881425Y-133249518D01*
X139952553Y-133517086D01*
X140027156Y-133797884D01*
X140079657Y-133995583D01*
X140630416Y-136069916D01*
X140562083Y-136129252D01*
X140441901Y-136224518D01*
X140291987Y-136329201D01*
X140121377Y-136438124D01*
X139939110Y-136546110D01*
X139754220Y-136647985D01*
X139575746Y-136738570D01*
X139412725Y-136812690D01*
X139281435Y-136862796D01*
X139050526Y-136924415D01*
X138812587Y-136960499D01*
X138578150Y-136970424D01*
X138357748Y-136953566D01*
X138218333Y-136925725D01*
X138027634Y-136860112D01*
X137829582Y-136763637D01*
X137635635Y-136643362D01*
X137457252Y-136506349D01*
X137313542Y-136368101D01*
X137183428Y-136197133D01*
X137075177Y-135995974D01*
X136991417Y-135772147D01*
X136934780Y-135533174D01*
X136907895Y-135286577D01*
X136906000Y-135202561D01*
X136917170Y-134972874D01*
X136952082Y-134747492D01*
X137012838Y-134518553D01*
X137101542Y-134278197D01*
X137220296Y-134018562D01*
X137225505Y-134008059D01*
X137372822Y-133731229D01*
X137521076Y-133492451D01*
X137673163Y-133287491D01*
X137831977Y-133112112D01*
X137850553Y-133093891D01*
X138096142Y-132863139D01*
X138329453Y-132659809D01*
X138560837Y-132475544D01*
X138800642Y-132301988D01*
X138980947Y-132181165D01*
X139153008Y-132071253D01*
X139292293Y-131986847D01*
X139398643Y-131928033D01*
X139471898Y-131894896D01*
X139511899Y-131887521D01*
X139519419Y-131893632D01*
G36*
X182626336Y-126408354D02*
X182743683Y-126821746D01*
X182843857Y-127243302D01*
X182924539Y-127661501D01*
X182983413Y-128064821D01*
X183008420Y-128307955D01*
X183017195Y-128451973D01*
X183022460Y-128626405D01*
X183024391Y-128822056D01*
X183023166Y-129029732D01*
X183018962Y-129240239D01*
X183011959Y-129444383D01*
X183002332Y-129632969D01*
X182990260Y-129796804D01*
X182977351Y-129916241D01*
X182933046Y-130211368D01*
X182879012Y-130511021D01*
X182817561Y-130804429D01*
X182751007Y-131080817D01*
X182681662Y-131329414D01*
X182657183Y-131407790D01*
X182601373Y-131561909D01*
X182525865Y-131742451D01*
X182434906Y-131940931D01*
X182332743Y-132148862D01*
X182223623Y-132357757D01*
X182111793Y-132559129D01*
X182001499Y-132744493D01*
X181939465Y-132842000D01*
X181767110Y-133087799D01*
X181593113Y-133302423D01*
X181419242Y-133484588D01*
X181247261Y-133633011D01*
X181078938Y-133746410D01*
X180916038Y-133823502D01*
X180760327Y-133863004D01*
X180613572Y-133863633D01*
X180550620Y-133850808D01*
X180403181Y-133788737D01*
X180265084Y-133687247D01*
X180137707Y-133548493D01*
X180022428Y-133374636D01*
X179920624Y-133167830D01*
X179833673Y-132930236D01*
X179762954Y-132664009D01*
X179748197Y-132594349D01*
X179709966Y-132351126D01*
X179686225Y-132079516D01*
X179677056Y-131790938D01*
X179682539Y-131496811D01*
X179702758Y-131208554D01*
X179736449Y-130945824D01*
X179765926Y-130763729D01*
X179963351Y-130559322D01*
X180412381Y-130073305D01*
X180819850Y-129587810D01*
X181186498Y-129101643D01*
X181513061Y-128613607D01*
X181800278Y-128122507D01*
X182048887Y-127627147D01*
X182259627Y-127126333D01*
X182433235Y-126618868D01*
X182467165Y-126503964D01*
X182558046Y-126187125D01*
X182626336Y-126408354D01*
X182626336Y-126408354D01*
G37*
X182626336Y-126408354D02*
X182743683Y-126821746D01*
X182843857Y-127243302D01*
X182924539Y-127661501D01*
X182983413Y-128064821D01*
X183008420Y-128307955D01*
X183017195Y-128451973D01*
X183022460Y-128626405D01*
X183024391Y-128822056D01*
X183023166Y-129029732D01*
X183018962Y-129240239D01*
X183011959Y-129444383D01*
X183002332Y-129632969D01*
X182990260Y-129796804D01*
X182977351Y-129916241D01*
X182933046Y-130211368D01*
X182879012Y-130511021D01*
X182817561Y-130804429D01*
X182751007Y-131080817D01*
X182681662Y-131329414D01*
X182657183Y-131407790D01*
X182601373Y-131561909D01*
X182525865Y-131742451D01*
X182434906Y-131940931D01*
X182332743Y-132148862D01*
X182223623Y-132357757D01*
X182111793Y-132559129D01*
X182001499Y-132744493D01*
X181939465Y-132842000D01*
X181767110Y-133087799D01*
X181593113Y-133302423D01*
X181419242Y-133484588D01*
X181247261Y-133633011D01*
X181078938Y-133746410D01*
X180916038Y-133823502D01*
X180760327Y-133863004D01*
X180613572Y-133863633D01*
X180550620Y-133850808D01*
X180403181Y-133788737D01*
X180265084Y-133687247D01*
X180137707Y-133548493D01*
X180022428Y-133374636D01*
X179920624Y-133167830D01*
X179833673Y-132930236D01*
X179762954Y-132664009D01*
X179748197Y-132594349D01*
X179709966Y-132351126D01*
X179686225Y-132079516D01*
X179677056Y-131790938D01*
X179682539Y-131496811D01*
X179702758Y-131208554D01*
X179736449Y-130945824D01*
X179765926Y-130763729D01*
X179963351Y-130559322D01*
X180412381Y-130073305D01*
X180819850Y-129587810D01*
X181186498Y-129101643D01*
X181513061Y-128613607D01*
X181800278Y-128122507D01*
X182048887Y-127627147D01*
X182259627Y-127126333D01*
X182433235Y-126618868D01*
X182467165Y-126503964D01*
X182558046Y-126187125D01*
X182626336Y-126408354D01*
G36*
X169879813Y-51532731D02*
X169879689Y-51543528D01*
X169876005Y-51562628D01*
X169867798Y-51592821D01*
X169854108Y-51636897D01*
X169833973Y-51697644D01*
X169806433Y-51777852D01*
X169770525Y-51880310D01*
X169725288Y-52007808D01*
X169669761Y-52163134D01*
X169602983Y-52349078D01*
X169523992Y-52568430D01*
X169431828Y-52823978D01*
X169402200Y-52906083D01*
X169230178Y-53385717D01*
X169073481Y-53829271D01*
X168931259Y-54239789D01*
X168802661Y-54620314D01*
X168686839Y-54973886D01*
X168582943Y-55303550D01*
X168490122Y-55612348D01*
X168407529Y-55903322D01*
X168334312Y-56179516D01*
X168269622Y-56443971D01*
X168212610Y-56699730D01*
X168162426Y-56949836D01*
X168118220Y-57197332D01*
X168079143Y-57445259D01*
X168044345Y-57696662D01*
X168027955Y-57827333D01*
X168015434Y-57958400D01*
X168005246Y-58121070D01*
X167997435Y-58307437D01*
X167992048Y-58509598D01*
X167989132Y-58719647D01*
X167988732Y-58929680D01*
X167990896Y-59131793D01*
X167995668Y-59318080D01*
X168003096Y-59480637D01*
X168013225Y-59611560D01*
X168017318Y-59647666D01*
X168093745Y-60145394D01*
X168194619Y-60614813D01*
X168322253Y-61063697D01*
X168478961Y-61499824D01*
X168667055Y-61930969D01*
X168742551Y-62085767D01*
X168987457Y-62537115D01*
X169266352Y-62980736D01*
X169579921Y-63417246D01*
X169928851Y-63847257D01*
X170313828Y-64271384D01*
X170735538Y-64690243D01*
X171194668Y-65104447D01*
X171691903Y-65514612D01*
X172227930Y-65921350D01*
X172803434Y-66325277D01*
X173419102Y-66727008D01*
X174075621Y-67127156D01*
X174773676Y-67526337D01*
X174889583Y-67590332D01*
X175143577Y-67727030D01*
X175429800Y-67876015D01*
X175741160Y-68033874D01*
X176070572Y-68197197D01*
X176410945Y-68362573D01*
X176755191Y-68526593D01*
X177096222Y-68685845D01*
X177426949Y-68836919D01*
X177740284Y-68976404D01*
X178029004Y-69100833D01*
X178374425Y-69246750D01*
X178361064Y-69331416D01*
X178324714Y-69634901D01*
X178312096Y-69939419D01*
X178323938Y-70248083D01*
X178360967Y-70564005D01*
X178423913Y-70890297D01*
X178513502Y-71230072D01*
X178630463Y-71586441D01*
X178775524Y-71962516D01*
X178949412Y-72361410D01*
X179152856Y-72786234D01*
X179183590Y-72847661D01*
X179260806Y-73000051D01*
X179342205Y-73158634D01*
X179422651Y-73313546D01*
X179497006Y-73454919D01*
X179560131Y-73572889D01*
X179584583Y-73617666D01*
X179637777Y-73716132D01*
X179681397Y-73800679D01*
X179712287Y-73864872D01*
X179727290Y-73902278D01*
X179727550Y-73909137D01*
X179701259Y-73905629D01*
X179639540Y-73890611D01*
X179547257Y-73865551D01*
X179429278Y-73831914D01*
X179290468Y-73791167D01*
X179135694Y-73744777D01*
X178969823Y-73694210D01*
X178797719Y-73640933D01*
X178624251Y-73586413D01*
X178454283Y-73532116D01*
X178292683Y-73479509D01*
X178199711Y-73448680D01*
X177202901Y-73094151D01*
X176218535Y-72701555D01*
X175248569Y-72272093D01*
X174294963Y-71806968D01*
X173359675Y-71307382D01*
X172444660Y-70774538D01*
X171551879Y-70209637D01*
X170683288Y-69613883D01*
X169840845Y-68988477D01*
X169026508Y-68334622D01*
X168242234Y-67653520D01*
X167489983Y-66946374D01*
X167290750Y-66749265D01*
X167151862Y-66609504D01*
X167011242Y-66466486D01*
X166874507Y-66326033D01*
X166747275Y-66193966D01*
X166635164Y-66076105D01*
X166543793Y-65978273D01*
X166497000Y-65926855D01*
X166413283Y-65835162D01*
X166335475Y-65753283D01*
X166269430Y-65687126D01*
X166221002Y-65642601D01*
X166199935Y-65627045D01*
X166079565Y-65586077D01*
X165959485Y-65586651D01*
X165844174Y-65628184D01*
X165766137Y-65683544D01*
X165715016Y-65746649D01*
X165660458Y-65846754D01*
X165604001Y-65978820D01*
X165547185Y-66137805D01*
X165491549Y-66318671D01*
X165438631Y-66516376D01*
X165389969Y-66725882D01*
X165347103Y-66942148D01*
X165311572Y-67160135D01*
X165308318Y-67183000D01*
X165296260Y-67300823D01*
X165287585Y-67452057D01*
X165282229Y-67627922D01*
X165280126Y-67819637D01*
X165281209Y-68018420D01*
X165285415Y-68215490D01*
X165292676Y-68402067D01*
X165302927Y-68569369D01*
X165316103Y-68708616D01*
X165319946Y-68738750D01*
X165400735Y-69229600D01*
X165510357Y-69726064D01*
X165649615Y-70230181D01*
X165819313Y-70743991D01*
X166020253Y-71269533D01*
X166253240Y-71808847D01*
X166519077Y-72363973D01*
X166818568Y-72936950D01*
X167152515Y-73529819D01*
X167316957Y-73808166D01*
X167451176Y-74028190D01*
X167604976Y-74273399D01*
X167772619Y-74535052D01*
X167948365Y-74804408D01*
X168126475Y-75072725D01*
X168301211Y-75331264D01*
X168466832Y-75571282D01*
X168578156Y-75729041D01*
X168652478Y-75833577D01*
X168717148Y-75925322D01*
X168768584Y-75999130D01*
X168803204Y-76049853D01*
X168817425Y-76072342D01*
X168817514Y-76073000D01*
X168798544Y-76062504D01*
X168747858Y-76032814D01*
X168669975Y-75986620D01*
X168569412Y-75926615D01*
X168450691Y-75855490D01*
X168318330Y-75775938D01*
X168273307Y-75748826D01*
X167733198Y-75417702D01*
X167225684Y-75094324D01*
X166743096Y-74773373D01*
X166277761Y-74449532D01*
X165822009Y-74117480D01*
X165368169Y-73771899D01*
X164983583Y-73467887D01*
X164243243Y-72851071D01*
X163543402Y-72222192D01*
X162883943Y-71581110D01*
X162264745Y-70927688D01*
X161685690Y-70261788D01*
X161146658Y-69583270D01*
X160647531Y-68891998D01*
X160188190Y-68187832D01*
X159768516Y-67470634D01*
X159681254Y-67310634D01*
X159572409Y-67101704D01*
X159456096Y-66866625D01*
X159338808Y-66619214D01*
X159227039Y-66373288D01*
X159127279Y-66142663D01*
X159089818Y-66051953D01*
X159037216Y-65924061D01*
X158995921Y-65829296D01*
X158962163Y-65761225D01*
X158932172Y-65713418D01*
X158902180Y-65679442D01*
X158868416Y-65652868D01*
X158848351Y-65639983D01*
X158735613Y-65592573D01*
X158620958Y-65582582D01*
X158511817Y-65606858D01*
X158415620Y-65662247D01*
X158339798Y-65745597D01*
X158291782Y-65853756D01*
X158286079Y-65878547D01*
X158279205Y-65930023D01*
X158271303Y-66016487D01*
X158262881Y-66130621D01*
X158254449Y-66265106D01*
X158246517Y-66412624D01*
X158241686Y-66516250D01*
X158235467Y-66646943D01*
X158226745Y-66812934D01*
X158215929Y-67007285D01*
X158203427Y-67223060D01*
X158189647Y-67453321D01*
X158174997Y-67691134D01*
X158159884Y-67929560D01*
X158146453Y-68135500D01*
X158111769Y-68668131D01*
X158080911Y-69161262D01*
X158053830Y-69617546D01*
X158030474Y-70039639D01*
X158010793Y-70430195D01*
X157994737Y-70791868D01*
X157982256Y-71127314D01*
X157973298Y-71439186D01*
X157967815Y-71730140D01*
X157965754Y-72002830D01*
X157967066Y-72259911D01*
X157971701Y-72504037D01*
X157979608Y-72737862D01*
X157990737Y-72964043D01*
X158005037Y-73185232D01*
X158022457Y-73404085D01*
X158042391Y-73617666D01*
X158068712Y-73853583D01*
X158101231Y-74099107D01*
X158138586Y-74346474D01*
X158179414Y-74587921D01*
X158222354Y-74815685D01*
X158266044Y-75022004D01*
X158309122Y-75199114D01*
X158337283Y-75298614D01*
X158353839Y-75359028D01*
X158361624Y-75400470D01*
X158360840Y-75410882D01*
X158338658Y-75405937D01*
X158284224Y-75384373D01*
X158203000Y-75348794D01*
X158100451Y-75301809D01*
X157982038Y-75246023D01*
X157853226Y-75184043D01*
X157719476Y-75118477D01*
X157586251Y-75051929D01*
X157459016Y-74987008D01*
X157343232Y-74926320D01*
X157326076Y-74917146D01*
X156876565Y-74667311D01*
X156437542Y-74405182D01*
X156003989Y-74127243D01*
X155570887Y-73829975D01*
X155133218Y-73509861D01*
X154685963Y-73163383D01*
X154224105Y-72787025D01*
X153918708Y-72529000D01*
X153818472Y-72441707D01*
X153747599Y-72375933D01*
X153701978Y-72327280D01*
X153677497Y-72291353D01*
X153670044Y-72263756D01*
X153670040Y-72263121D01*
X153673219Y-72210983D01*
X153682080Y-72124010D01*
X153695683Y-72009180D01*
X153713090Y-71873472D01*
X153733360Y-71723861D01*
X153755556Y-71567327D01*
X153778737Y-71410846D01*
X153801965Y-71261397D01*
X153818496Y-71160238D01*
X153938426Y-70512465D01*
X154079016Y-69874122D01*
X154237605Y-69256661D01*
X154354184Y-68855166D01*
X154486808Y-68423281D01*
X154609224Y-68030673D01*
X154721960Y-67675669D01*
X154825548Y-67356597D01*
X154900843Y-67130083D01*
X155263735Y-66109860D01*
X155655876Y-65120207D01*
X156077341Y-64161017D01*
X156528206Y-63232184D01*
X157008547Y-62333601D01*
X157518440Y-61465161D01*
X158057962Y-60626757D01*
X158627186Y-59818282D01*
X159226191Y-59039630D01*
X159855051Y-58290695D01*
X160513842Y-57571368D01*
X161202640Y-56881544D01*
X161921521Y-56221116D01*
X162670561Y-55589977D01*
X163449835Y-54988020D01*
X163614532Y-54867339D01*
X164294143Y-54390447D01*
X164986483Y-53938016D01*
X165695802Y-53507726D01*
X166426349Y-53097257D01*
X167182376Y-52704291D01*
X167968132Y-52326506D01*
X168787867Y-51961584D01*
X169425389Y-51695804D01*
X169552846Y-51644741D01*
X169666817Y-51600294D01*
X169761610Y-51564582D01*
X169831531Y-51539726D01*
X169870887Y-51527847D01*
X169877337Y-51527448D01*
X169879813Y-51532731D01*
X169879813Y-51532731D01*
G37*
X169879813Y-51532731D02*
X169879689Y-51543528D01*
X169876005Y-51562628D01*
X169867798Y-51592821D01*
X169854108Y-51636897D01*
X169833973Y-51697644D01*
X169806433Y-51777852D01*
X169770525Y-51880310D01*
X169725288Y-52007808D01*
X169669761Y-52163134D01*
X169602983Y-52349078D01*
X169523992Y-52568430D01*
X169431828Y-52823978D01*
X169402200Y-52906083D01*
X169230178Y-53385717D01*
X169073481Y-53829271D01*
X168931259Y-54239789D01*
X168802661Y-54620314D01*
X168686839Y-54973886D01*
X168582943Y-55303550D01*
X168490122Y-55612348D01*
X168407529Y-55903322D01*
X168334312Y-56179516D01*
X168269622Y-56443971D01*
X168212610Y-56699730D01*
X168162426Y-56949836D01*
X168118220Y-57197332D01*
X168079143Y-57445259D01*
X168044345Y-57696662D01*
X168027955Y-57827333D01*
X168015434Y-57958400D01*
X168005246Y-58121070D01*
X167997435Y-58307437D01*
X167992048Y-58509598D01*
X167989132Y-58719647D01*
X167988732Y-58929680D01*
X167990896Y-59131793D01*
X167995668Y-59318080D01*
X168003096Y-59480637D01*
X168013225Y-59611560D01*
X168017318Y-59647666D01*
X168093745Y-60145394D01*
X168194619Y-60614813D01*
X168322253Y-61063697D01*
X168478961Y-61499824D01*
X168667055Y-61930969D01*
X168742551Y-62085767D01*
X168987457Y-62537115D01*
X169266352Y-62980736D01*
X169579921Y-63417246D01*
X169928851Y-63847257D01*
X170313828Y-64271384D01*
X170735538Y-64690243D01*
X171194668Y-65104447D01*
X171691903Y-65514612D01*
X172227930Y-65921350D01*
X172803434Y-66325277D01*
X173419102Y-66727008D01*
X174075621Y-67127156D01*
X174773676Y-67526337D01*
X174889583Y-67590332D01*
X175143577Y-67727030D01*
X175429800Y-67876015D01*
X175741160Y-68033874D01*
X176070572Y-68197197D01*
X176410945Y-68362573D01*
X176755191Y-68526593D01*
X177096222Y-68685845D01*
X177426949Y-68836919D01*
X177740284Y-68976404D01*
X178029004Y-69100833D01*
X178374425Y-69246750D01*
X178361064Y-69331416D01*
X178324714Y-69634901D01*
X178312096Y-69939419D01*
X178323938Y-70248083D01*
X178360967Y-70564005D01*
X178423913Y-70890297D01*
X178513502Y-71230072D01*
X178630463Y-71586441D01*
X178775524Y-71962516D01*
X178949412Y-72361410D01*
X179152856Y-72786234D01*
X179183590Y-72847661D01*
X179260806Y-73000051D01*
X179342205Y-73158634D01*
X179422651Y-73313546D01*
X179497006Y-73454919D01*
X179560131Y-73572889D01*
X179584583Y-73617666D01*
X179637777Y-73716132D01*
X179681397Y-73800679D01*
X179712287Y-73864872D01*
X179727290Y-73902278D01*
X179727550Y-73909137D01*
X179701259Y-73905629D01*
X179639540Y-73890611D01*
X179547257Y-73865551D01*
X179429278Y-73831914D01*
X179290468Y-73791167D01*
X179135694Y-73744777D01*
X178969823Y-73694210D01*
X178797719Y-73640933D01*
X178624251Y-73586413D01*
X178454283Y-73532116D01*
X178292683Y-73479509D01*
X178199711Y-73448680D01*
X177202901Y-73094151D01*
X176218535Y-72701555D01*
X175248569Y-72272093D01*
X174294963Y-71806968D01*
X173359675Y-71307382D01*
X172444660Y-70774538D01*
X171551879Y-70209637D01*
X170683288Y-69613883D01*
X169840845Y-68988477D01*
X169026508Y-68334622D01*
X168242234Y-67653520D01*
X167489983Y-66946374D01*
X167290750Y-66749265D01*
X167151862Y-66609504D01*
X167011242Y-66466486D01*
X166874507Y-66326033D01*
X166747275Y-66193966D01*
X166635164Y-66076105D01*
X166543793Y-65978273D01*
X166497000Y-65926855D01*
X166413283Y-65835162D01*
X166335475Y-65753283D01*
X166269430Y-65687126D01*
X166221002Y-65642601D01*
X166199935Y-65627045D01*
X166079565Y-65586077D01*
X165959485Y-65586651D01*
X165844174Y-65628184D01*
X165766137Y-65683544D01*
X165715016Y-65746649D01*
X165660458Y-65846754D01*
X165604001Y-65978820D01*
X165547185Y-66137805D01*
X165491549Y-66318671D01*
X165438631Y-66516376D01*
X165389969Y-66725882D01*
X165347103Y-66942148D01*
X165311572Y-67160135D01*
X165308318Y-67183000D01*
X165296260Y-67300823D01*
X165287585Y-67452057D01*
X165282229Y-67627922D01*
X165280126Y-67819637D01*
X165281209Y-68018420D01*
X165285415Y-68215490D01*
X165292676Y-68402067D01*
X165302927Y-68569369D01*
X165316103Y-68708616D01*
X165319946Y-68738750D01*
X165400735Y-69229600D01*
X165510357Y-69726064D01*
X165649615Y-70230181D01*
X165819313Y-70743991D01*
X166020253Y-71269533D01*
X166253240Y-71808847D01*
X166519077Y-72363973D01*
X166818568Y-72936950D01*
X167152515Y-73529819D01*
X167316957Y-73808166D01*
X167451176Y-74028190D01*
X167604976Y-74273399D01*
X167772619Y-74535052D01*
X167948365Y-74804408D01*
X168126475Y-75072725D01*
X168301211Y-75331264D01*
X168466832Y-75571282D01*
X168578156Y-75729041D01*
X168652478Y-75833577D01*
X168717148Y-75925322D01*
X168768584Y-75999130D01*
X168803204Y-76049853D01*
X168817425Y-76072342D01*
X168817514Y-76073000D01*
X168798544Y-76062504D01*
X168747858Y-76032814D01*
X168669975Y-75986620D01*
X168569412Y-75926615D01*
X168450691Y-75855490D01*
X168318330Y-75775938D01*
X168273307Y-75748826D01*
X167733198Y-75417702D01*
X167225684Y-75094324D01*
X166743096Y-74773373D01*
X166277761Y-74449532D01*
X165822009Y-74117480D01*
X165368169Y-73771899D01*
X164983583Y-73467887D01*
X164243243Y-72851071D01*
X163543402Y-72222192D01*
X162883943Y-71581110D01*
X162264745Y-70927688D01*
X161685690Y-70261788D01*
X161146658Y-69583270D01*
X160647531Y-68891998D01*
X160188190Y-68187832D01*
X159768516Y-67470634D01*
X159681254Y-67310634D01*
X159572409Y-67101704D01*
X159456096Y-66866625D01*
X159338808Y-66619214D01*
X159227039Y-66373288D01*
X159127279Y-66142663D01*
X159089818Y-66051953D01*
X159037216Y-65924061D01*
X158995921Y-65829296D01*
X158962163Y-65761225D01*
X158932172Y-65713418D01*
X158902180Y-65679442D01*
X158868416Y-65652868D01*
X158848351Y-65639983D01*
X158735613Y-65592573D01*
X158620958Y-65582582D01*
X158511817Y-65606858D01*
X158415620Y-65662247D01*
X158339798Y-65745597D01*
X158291782Y-65853756D01*
X158286079Y-65878547D01*
X158279205Y-65930023D01*
X158271303Y-66016487D01*
X158262881Y-66130621D01*
X158254449Y-66265106D01*
X158246517Y-66412624D01*
X158241686Y-66516250D01*
X158235467Y-66646943D01*
X158226745Y-66812934D01*
X158215929Y-67007285D01*
X158203427Y-67223060D01*
X158189647Y-67453321D01*
X158174997Y-67691134D01*
X158159884Y-67929560D01*
X158146453Y-68135500D01*
X158111769Y-68668131D01*
X158080911Y-69161262D01*
X158053830Y-69617546D01*
X158030474Y-70039639D01*
X158010793Y-70430195D01*
X157994737Y-70791868D01*
X157982256Y-71127314D01*
X157973298Y-71439186D01*
X157967815Y-71730140D01*
X157965754Y-72002830D01*
X157967066Y-72259911D01*
X157971701Y-72504037D01*
X157979608Y-72737862D01*
X157990737Y-72964043D01*
X158005037Y-73185232D01*
X158022457Y-73404085D01*
X158042391Y-73617666D01*
X158068712Y-73853583D01*
X158101231Y-74099107D01*
X158138586Y-74346474D01*
X158179414Y-74587921D01*
X158222354Y-74815685D01*
X158266044Y-75022004D01*
X158309122Y-75199114D01*
X158337283Y-75298614D01*
X158353839Y-75359028D01*
X158361624Y-75400470D01*
X158360840Y-75410882D01*
X158338658Y-75405937D01*
X158284224Y-75384373D01*
X158203000Y-75348794D01*
X158100451Y-75301809D01*
X157982038Y-75246023D01*
X157853226Y-75184043D01*
X157719476Y-75118477D01*
X157586251Y-75051929D01*
X157459016Y-74987008D01*
X157343232Y-74926320D01*
X157326076Y-74917146D01*
X156876565Y-74667311D01*
X156437542Y-74405182D01*
X156003989Y-74127243D01*
X155570887Y-73829975D01*
X155133218Y-73509861D01*
X154685963Y-73163383D01*
X154224105Y-72787025D01*
X153918708Y-72529000D01*
X153818472Y-72441707D01*
X153747599Y-72375933D01*
X153701978Y-72327280D01*
X153677497Y-72291353D01*
X153670044Y-72263756D01*
X153670040Y-72263121D01*
X153673219Y-72210983D01*
X153682080Y-72124010D01*
X153695683Y-72009180D01*
X153713090Y-71873472D01*
X153733360Y-71723861D01*
X153755556Y-71567327D01*
X153778737Y-71410846D01*
X153801965Y-71261397D01*
X153818496Y-71160238D01*
X153938426Y-70512465D01*
X154079016Y-69874122D01*
X154237605Y-69256661D01*
X154354184Y-68855166D01*
X154486808Y-68423281D01*
X154609224Y-68030673D01*
X154721960Y-67675669D01*
X154825548Y-67356597D01*
X154900843Y-67130083D01*
X155263735Y-66109860D01*
X155655876Y-65120207D01*
X156077341Y-64161017D01*
X156528206Y-63232184D01*
X157008547Y-62333601D01*
X157518440Y-61465161D01*
X158057962Y-60626757D01*
X158627186Y-59818282D01*
X159226191Y-59039630D01*
X159855051Y-58290695D01*
X160513842Y-57571368D01*
X161202640Y-56881544D01*
X161921521Y-56221116D01*
X162670561Y-55589977D01*
X163449835Y-54988020D01*
X163614532Y-54867339D01*
X164294143Y-54390447D01*
X164986483Y-53938016D01*
X165695802Y-53507726D01*
X166426349Y-53097257D01*
X167182376Y-52704291D01*
X167968132Y-52326506D01*
X168787867Y-51961584D01*
X169425389Y-51695804D01*
X169552846Y-51644741D01*
X169666817Y-51600294D01*
X169761610Y-51564582D01*
X169831531Y-51539726D01*
X169870887Y-51527847D01*
X169877337Y-51527448D01*
X169879813Y-51532731D01*
%LPC*%
G36*
X205041500Y-150516166D02*
X105029000Y-150516166D01*
X105029000Y-120492260D01*
X107022492Y-120492260D01*
X107022496Y-121725495D01*
X107022508Y-122938574D01*
X107022528Y-124130929D01*
X107022557Y-125301995D01*
X107022593Y-126451203D01*
X107022637Y-127577988D01*
X107022688Y-128681782D01*
X107022748Y-129762019D01*
X107022815Y-130818131D01*
X107022889Y-131849553D01*
X107022972Y-132855717D01*
X107023062Y-133836057D01*
X107023159Y-134790005D01*
X107023264Y-135716995D01*
X107023376Y-136616461D01*
X107023495Y-137487834D01*
X107023622Y-138330549D01*
X107023756Y-139144039D01*
X107023898Y-139927737D01*
X107024046Y-140681076D01*
X107024201Y-141403489D01*
X107024364Y-142094409D01*
X107024534Y-142753270D01*
X107024710Y-143379506D01*
X107024893Y-143972548D01*
X107025084Y-144531830D01*
X107025281Y-145056786D01*
X107025484Y-145546849D01*
X107025695Y-146001452D01*
X107025912Y-146420027D01*
X107026136Y-146802009D01*
X107026366Y-147146831D01*
X107026603Y-147453925D01*
X107026846Y-147722725D01*
X107027096Y-147952664D01*
X107027352Y-148143176D01*
X107027614Y-148293693D01*
X107027882Y-148403648D01*
X107028157Y-148472476D01*
X107028438Y-148499608D01*
X107028474Y-148500041D01*
X107036000Y-148501024D01*
X107058118Y-148501983D01*
X107095271Y-148502920D01*
X107147898Y-148503834D01*
X107216442Y-148504725D01*
X107301345Y-148505595D01*
X107403047Y-148506442D01*
X107521991Y-148507268D01*
X107658616Y-148508073D01*
X107813366Y-148508856D01*
X107986681Y-148509619D01*
X108179003Y-148510361D01*
X108390774Y-148511082D01*
X108622434Y-148511783D01*
X108874425Y-148512465D01*
X109147189Y-148513126D01*
X109441167Y-148513768D01*
X109756800Y-148514391D01*
X110094531Y-148514995D01*
X110454799Y-148515581D01*
X110838048Y-148516148D01*
X111244718Y-148516696D01*
X111675250Y-148517227D01*
X112130087Y-148517740D01*
X112609669Y-148518235D01*
X113114438Y-148518713D01*
X113644836Y-148519174D01*
X114201304Y-148519619D01*
X114784283Y-148520047D01*
X115394215Y-148520458D01*
X116031541Y-148520854D01*
X116696702Y-148521233D01*
X117390141Y-148521597D01*
X118112299Y-148521946D01*
X118863616Y-148522280D01*
X119644535Y-148522599D01*
X120455497Y-148522903D01*
X121296943Y-148523193D01*
X122169314Y-148523469D01*
X123073053Y-148523731D01*
X124008601Y-148523980D01*
X124976399Y-148524215D01*
X125976888Y-148524437D01*
X127010510Y-148524646D01*
X128077707Y-148524843D01*
X129178920Y-148525027D01*
X130314589Y-148525199D01*
X131485158Y-148525359D01*
X132691067Y-148525507D01*
X133932757Y-148525644D01*
X135210671Y-148525770D01*
X136525248Y-148525885D01*
X137876932Y-148525989D01*
X139266164Y-148526083D01*
X140693384Y-148526166D01*
X142159034Y-148526240D01*
X143663556Y-148526304D01*
X145207391Y-148526358D01*
X146790981Y-148526403D01*
X148414767Y-148526440D01*
X150079190Y-148526467D01*
X151784692Y-148526486D01*
X153531715Y-148526497D01*
X155034585Y-148526500D01*
X203030666Y-148526500D01*
X203030666Y-42502657D01*
X155029958Y-42507953D01*
X107029250Y-42513250D01*
X107023847Y-95493416D01*
X107023698Y-96992546D01*
X107023558Y-98481721D01*
X107023427Y-99960376D01*
X107023304Y-101427942D01*
X107023191Y-102883855D01*
X107023086Y-104327546D01*
X107022990Y-105758449D01*
X107022903Y-107175996D01*
X107022824Y-108579623D01*
X107022753Y-109968761D01*
X107022692Y-111342843D01*
X107022638Y-112701303D01*
X107022593Y-114043575D01*
X107022556Y-115369090D01*
X107022528Y-116677284D01*
X107022508Y-117967588D01*
X107022496Y-119239435D01*
X107022492Y-120492260D01*
X105029000Y-120492260D01*
X105029000Y-40513000D01*
X205041500Y-40513000D01*
X205041500Y-150516166D01*
X205041500Y-150516166D01*
G37*
X205041500Y-150516166D02*
X105029000Y-150516166D01*
X105029000Y-120492260D01*
X107022492Y-120492260D01*
X107022496Y-121725495D01*
X107022508Y-122938574D01*
X107022528Y-124130929D01*
X107022557Y-125301995D01*
X107022593Y-126451203D01*
X107022637Y-127577988D01*
X107022688Y-128681782D01*
X107022748Y-129762019D01*
X107022815Y-130818131D01*
X107022889Y-131849553D01*
X107022972Y-132855717D01*
X107023062Y-133836057D01*
X107023159Y-134790005D01*
X107023264Y-135716995D01*
X107023376Y-136616461D01*
X107023495Y-137487834D01*
X107023622Y-138330549D01*
X107023756Y-139144039D01*
X107023898Y-139927737D01*
X107024046Y-140681076D01*
X107024201Y-141403489D01*
X107024364Y-142094409D01*
X107024534Y-142753270D01*
X107024710Y-143379506D01*
X107024893Y-143972548D01*
X107025084Y-144531830D01*
X107025281Y-145056786D01*
X107025484Y-145546849D01*
X107025695Y-146001452D01*
X107025912Y-146420027D01*
X107026136Y-146802009D01*
X107026366Y-147146831D01*
X107026603Y-147453925D01*
X107026846Y-147722725D01*
X107027096Y-147952664D01*
X107027352Y-148143176D01*
X107027614Y-148293693D01*
X107027882Y-148403648D01*
X107028157Y-148472476D01*
X107028438Y-148499608D01*
X107028474Y-148500041D01*
X107036000Y-148501024D01*
X107058118Y-148501983D01*
X107095271Y-148502920D01*
X107147898Y-148503834D01*
X107216442Y-148504725D01*
X107301345Y-148505595D01*
X107403047Y-148506442D01*
X107521991Y-148507268D01*
X107658616Y-148508073D01*
X107813366Y-148508856D01*
X107986681Y-148509619D01*
X108179003Y-148510361D01*
X108390774Y-148511082D01*
X108622434Y-148511783D01*
X108874425Y-148512465D01*
X109147189Y-148513126D01*
X109441167Y-148513768D01*
X109756800Y-148514391D01*
X110094531Y-148514995D01*
X110454799Y-148515581D01*
X110838048Y-148516148D01*
X111244718Y-148516696D01*
X111675250Y-148517227D01*
X112130087Y-148517740D01*
X112609669Y-148518235D01*
X113114438Y-148518713D01*
X113644836Y-148519174D01*
X114201304Y-148519619D01*
X114784283Y-148520047D01*
X115394215Y-148520458D01*
X116031541Y-148520854D01*
X116696702Y-148521233D01*
X117390141Y-148521597D01*
X118112299Y-148521946D01*
X118863616Y-148522280D01*
X119644535Y-148522599D01*
X120455497Y-148522903D01*
X121296943Y-148523193D01*
X122169314Y-148523469D01*
X123073053Y-148523731D01*
X124008601Y-148523980D01*
X124976399Y-148524215D01*
X125976888Y-148524437D01*
X127010510Y-148524646D01*
X128077707Y-148524843D01*
X129178920Y-148525027D01*
X130314589Y-148525199D01*
X131485158Y-148525359D01*
X132691067Y-148525507D01*
X133932757Y-148525644D01*
X135210671Y-148525770D01*
X136525248Y-148525885D01*
X137876932Y-148525989D01*
X139266164Y-148526083D01*
X140693384Y-148526166D01*
X142159034Y-148526240D01*
X143663556Y-148526304D01*
X145207391Y-148526358D01*
X146790981Y-148526403D01*
X148414767Y-148526440D01*
X150079190Y-148526467D01*
X151784692Y-148526486D01*
X153531715Y-148526497D01*
X155034585Y-148526500D01*
X203030666Y-148526500D01*
X203030666Y-42502657D01*
X155029958Y-42507953D01*
X107029250Y-42513250D01*
X107023847Y-95493416D01*
X107023698Y-96992546D01*
X107023558Y-98481721D01*
X107023427Y-99960376D01*
X107023304Y-101427942D01*
X107023191Y-102883855D01*
X107023086Y-104327546D01*
X107022990Y-105758449D01*
X107022903Y-107175996D01*
X107022824Y-108579623D01*
X107022753Y-109968761D01*
X107022692Y-111342843D01*
X107022638Y-112701303D01*
X107022593Y-114043575D01*
X107022556Y-115369090D01*
X107022528Y-116677284D01*
X107022508Y-117967588D01*
X107022496Y-119239435D01*
X107022492Y-120492260D01*
X105029000Y-120492260D01*
X105029000Y-40513000D01*
X205041500Y-40513000D01*
X205041500Y-150516166D01*
G36*
X121836078Y-115927270D02*
X121866653Y-115964399D01*
X121890397Y-115997553D01*
X121938091Y-116063886D01*
X122007562Y-116156032D01*
X122093490Y-116267280D01*
X122190551Y-116390922D01*
X122293424Y-116520247D01*
X122396786Y-116648545D01*
X122495317Y-116769107D01*
X122583692Y-116875222D01*
X122625758Y-116924666D01*
X122709728Y-117018927D01*
X122819312Y-117136692D01*
X122949151Y-117272605D01*
X123093884Y-117421312D01*
X123248153Y-117577460D01*
X123406599Y-117735693D01*
X123563862Y-117890657D01*
X123714582Y-118036997D01*
X123853400Y-118169360D01*
X123974956Y-118282390D01*
X124068416Y-118365987D01*
X124658974Y-118855854D01*
X125268891Y-119316770D01*
X125895641Y-119747486D01*
X126536697Y-120146756D01*
X127189531Y-120513332D01*
X127851615Y-120845965D01*
X128520422Y-121143409D01*
X129193424Y-121404416D01*
X129868095Y-121627737D01*
X130541907Y-121812127D01*
X131212332Y-121956335D01*
X131413250Y-121991715D01*
X131628279Y-122026676D01*
X131816604Y-122054783D01*
X131987303Y-122076748D01*
X132149453Y-122093282D01*
X132312132Y-122105098D01*
X132484419Y-122112909D01*
X132675391Y-122117426D01*
X132894125Y-122119362D01*
X133043083Y-122119580D01*
X133267215Y-122118851D01*
X133455211Y-122116727D01*
X133613255Y-122112976D01*
X133747527Y-122107368D01*
X133864210Y-122099671D01*
X133969485Y-122089654D01*
X134026582Y-122082841D01*
X134555180Y-121997697D01*
X135056290Y-121880722D01*
X135530789Y-121731509D01*
X135979552Y-121549652D01*
X136403458Y-121334744D01*
X136803382Y-121086378D01*
X137180203Y-120804148D01*
X137534796Y-120487648D01*
X137594827Y-120428510D01*
X137795592Y-120216986D01*
X137960817Y-120018597D01*
X138093617Y-119829226D01*
X138197111Y-119644753D01*
X138212601Y-119612324D01*
X138243913Y-119548192D01*
X138268907Y-119502757D01*
X138281833Y-119486144D01*
X138295729Y-119503520D01*
X138323386Y-119549852D01*
X138359593Y-119616252D01*
X138371667Y-119639382D01*
X138474849Y-119812806D01*
X138610889Y-120000128D01*
X138774887Y-120196105D01*
X138961944Y-120395491D01*
X139167160Y-120593041D01*
X139385636Y-120783510D01*
X139594166Y-120948006D01*
X139988143Y-121217457D01*
X140408464Y-121455148D01*
X140855582Y-121661243D01*
X141329949Y-121835906D01*
X141832015Y-121979304D01*
X142362232Y-122091601D01*
X142921053Y-122172962D01*
X142959666Y-122177326D01*
X143071087Y-122186530D01*
X143216851Y-122193796D01*
X143389012Y-122199124D01*
X143579624Y-122202512D01*
X143780740Y-122203960D01*
X143984416Y-122203467D01*
X144182705Y-122201031D01*
X144367660Y-122196653D01*
X144531337Y-122190331D01*
X144665788Y-122182065D01*
X144716500Y-122177520D01*
X145445330Y-122082511D01*
X146163540Y-121947982D01*
X146872813Y-121773437D01*
X147574832Y-121558378D01*
X148271278Y-121302310D01*
X148963836Y-121004735D01*
X149401153Y-120794605D01*
X150108352Y-120418345D01*
X150790873Y-120009669D01*
X151447438Y-119569647D01*
X152076769Y-119099349D01*
X152677587Y-118599844D01*
X153248615Y-118072200D01*
X153788575Y-117517488D01*
X154296187Y-116936776D01*
X154770175Y-116331133D01*
X154823943Y-116257916D01*
X155009199Y-116003916D01*
X154994740Y-116247333D01*
X154932315Y-116998674D01*
X154835569Y-117725590D01*
X154704188Y-118428874D01*
X154537855Y-119109317D01*
X154336256Y-119767711D01*
X154099073Y-120404847D01*
X153825992Y-121021516D01*
X153516696Y-121618511D01*
X153170870Y-122196623D01*
X152788198Y-122756644D01*
X152368364Y-123299364D01*
X152019350Y-123706213D01*
X151765689Y-123978989D01*
X151482390Y-124265207D01*
X151177014Y-124558105D01*
X150857124Y-124850923D01*
X150530283Y-125136899D01*
X150204053Y-125409271D01*
X149885997Y-125661278D01*
X149583677Y-125886159D01*
X149570920Y-125895279D01*
X149263438Y-126102553D01*
X148922734Y-126310224D01*
X148557595Y-126513444D01*
X148176806Y-126707366D01*
X147789154Y-126887143D01*
X147711583Y-126920971D01*
X147345935Y-127072296D01*
X146944398Y-127226772D01*
X146513113Y-127382467D01*
X146058219Y-127537449D01*
X145585853Y-127689785D01*
X145102156Y-127837543D01*
X144613267Y-127978791D01*
X144125324Y-128111596D01*
X143644466Y-128234026D01*
X143224250Y-128333421D01*
X143047160Y-128374017D01*
X142847496Y-128420351D01*
X142641208Y-128468683D01*
X142444247Y-128515278D01*
X142272564Y-128556397D01*
X142271750Y-128556594D01*
X141599840Y-128704936D01*
X140941144Y-128821307D01*
X140287585Y-128906455D01*
X139631087Y-128961131D01*
X138963575Y-128986084D01*
X138276972Y-128982065D01*
X137858500Y-128966352D01*
X137354369Y-128934582D01*
X136819154Y-128887296D01*
X136260676Y-128825658D01*
X135686760Y-128750832D01*
X135105229Y-128663981D01*
X134523906Y-128566269D01*
X133950615Y-128458861D01*
X133393180Y-128342920D01*
X132891803Y-128227477D01*
X132208425Y-128050256D01*
X131551324Y-127856121D01*
X130923435Y-127646110D01*
X130327692Y-127421258D01*
X129767029Y-127182602D01*
X129296583Y-126957742D01*
X128771512Y-126675024D01*
X128240518Y-126355817D01*
X127708376Y-126004136D01*
X127179860Y-125623992D01*
X126659742Y-125219398D01*
X126152798Y-124794367D01*
X125663800Y-124352913D01*
X125197522Y-123899047D01*
X124758739Y-123436783D01*
X124352223Y-122970134D01*
X123982748Y-122503111D01*
X123958264Y-122470333D01*
X123567993Y-121913783D01*
X123218717Y-121347861D01*
X122909823Y-120771004D01*
X122640698Y-120181647D01*
X122410729Y-119578225D01*
X122219304Y-118959174D01*
X122065810Y-118322929D01*
X121949634Y-117667927D01*
X121889123Y-117187371D01*
X121880313Y-117093795D01*
X121870988Y-116977408D01*
X121861483Y-116844396D01*
X121852131Y-116700942D01*
X121843266Y-116553230D01*
X121835220Y-116407445D01*
X121828327Y-116269770D01*
X121822921Y-116146392D01*
X121819335Y-116043492D01*
X121817903Y-115967257D01*
X121818958Y-115923870D01*
X121820587Y-115916356D01*
X121836078Y-115927270D01*
X121836078Y-115927270D01*
G37*
X121836078Y-115927270D02*
X121866653Y-115964399D01*
X121890397Y-115997553D01*
X121938091Y-116063886D01*
X122007562Y-116156032D01*
X122093490Y-116267280D01*
X122190551Y-116390922D01*
X122293424Y-116520247D01*
X122396786Y-116648545D01*
X122495317Y-116769107D01*
X122583692Y-116875222D01*
X122625758Y-116924666D01*
X122709728Y-117018927D01*
X122819312Y-117136692D01*
X122949151Y-117272605D01*
X123093884Y-117421312D01*
X123248153Y-117577460D01*
X123406599Y-117735693D01*
X123563862Y-117890657D01*
X123714582Y-118036997D01*
X123853400Y-118169360D01*
X123974956Y-118282390D01*
X124068416Y-118365987D01*
X124658974Y-118855854D01*
X125268891Y-119316770D01*
X125895641Y-119747486D01*
X126536697Y-120146756D01*
X127189531Y-120513332D01*
X127851615Y-120845965D01*
X128520422Y-121143409D01*
X129193424Y-121404416D01*
X129868095Y-121627737D01*
X130541907Y-121812127D01*
X131212332Y-121956335D01*
X131413250Y-121991715D01*
X131628279Y-122026676D01*
X131816604Y-122054783D01*
X131987303Y-122076748D01*
X132149453Y-122093282D01*
X132312132Y-122105098D01*
X132484419Y-122112909D01*
X132675391Y-122117426D01*
X132894125Y-122119362D01*
X133043083Y-122119580D01*
X133267215Y-122118851D01*
X133455211Y-122116727D01*
X133613255Y-122112976D01*
X133747527Y-122107368D01*
X133864210Y-122099671D01*
X133969485Y-122089654D01*
X134026582Y-122082841D01*
X134555180Y-121997697D01*
X135056290Y-121880722D01*
X135530789Y-121731509D01*
X135979552Y-121549652D01*
X136403458Y-121334744D01*
X136803382Y-121086378D01*
X137180203Y-120804148D01*
X137534796Y-120487648D01*
X137594827Y-120428510D01*
X137795592Y-120216986D01*
X137960817Y-120018597D01*
X138093617Y-119829226D01*
X138197111Y-119644753D01*
X138212601Y-119612324D01*
X138243913Y-119548192D01*
X138268907Y-119502757D01*
X138281833Y-119486144D01*
X138295729Y-119503520D01*
X138323386Y-119549852D01*
X138359593Y-119616252D01*
X138371667Y-119639382D01*
X138474849Y-119812806D01*
X138610889Y-120000128D01*
X138774887Y-120196105D01*
X138961944Y-120395491D01*
X139167160Y-120593041D01*
X139385636Y-120783510D01*
X139594166Y-120948006D01*
X139988143Y-121217457D01*
X140408464Y-121455148D01*
X140855582Y-121661243D01*
X141329949Y-121835906D01*
X141832015Y-121979304D01*
X142362232Y-122091601D01*
X142921053Y-122172962D01*
X142959666Y-122177326D01*
X143071087Y-122186530D01*
X143216851Y-122193796D01*
X143389012Y-122199124D01*
X143579624Y-122202512D01*
X143780740Y-122203960D01*
X143984416Y-122203467D01*
X144182705Y-122201031D01*
X144367660Y-122196653D01*
X144531337Y-122190331D01*
X144665788Y-122182065D01*
X144716500Y-122177520D01*
X145445330Y-122082511D01*
X146163540Y-121947982D01*
X146872813Y-121773437D01*
X147574832Y-121558378D01*
X148271278Y-121302310D01*
X148963836Y-121004735D01*
X149401153Y-120794605D01*
X150108352Y-120418345D01*
X150790873Y-120009669D01*
X151447438Y-119569647D01*
X152076769Y-119099349D01*
X152677587Y-118599844D01*
X153248615Y-118072200D01*
X153788575Y-117517488D01*
X154296187Y-116936776D01*
X154770175Y-116331133D01*
X154823943Y-116257916D01*
X155009199Y-116003916D01*
X154994740Y-116247333D01*
X154932315Y-116998674D01*
X154835569Y-117725590D01*
X154704188Y-118428874D01*
X154537855Y-119109317D01*
X154336256Y-119767711D01*
X154099073Y-120404847D01*
X153825992Y-121021516D01*
X153516696Y-121618511D01*
X153170870Y-122196623D01*
X152788198Y-122756644D01*
X152368364Y-123299364D01*
X152019350Y-123706213D01*
X151765689Y-123978989D01*
X151482390Y-124265207D01*
X151177014Y-124558105D01*
X150857124Y-124850923D01*
X150530283Y-125136899D01*
X150204053Y-125409271D01*
X149885997Y-125661278D01*
X149583677Y-125886159D01*
X149570920Y-125895279D01*
X149263438Y-126102553D01*
X148922734Y-126310224D01*
X148557595Y-126513444D01*
X148176806Y-126707366D01*
X147789154Y-126887143D01*
X147711583Y-126920971D01*
X147345935Y-127072296D01*
X146944398Y-127226772D01*
X146513113Y-127382467D01*
X146058219Y-127537449D01*
X145585853Y-127689785D01*
X145102156Y-127837543D01*
X144613267Y-127978791D01*
X144125324Y-128111596D01*
X143644466Y-128234026D01*
X143224250Y-128333421D01*
X143047160Y-128374017D01*
X142847496Y-128420351D01*
X142641208Y-128468683D01*
X142444247Y-128515278D01*
X142272564Y-128556397D01*
X142271750Y-128556594D01*
X141599840Y-128704936D01*
X140941144Y-128821307D01*
X140287585Y-128906455D01*
X139631087Y-128961131D01*
X138963575Y-128986084D01*
X138276972Y-128982065D01*
X137858500Y-128966352D01*
X137354369Y-128934582D01*
X136819154Y-128887296D01*
X136260676Y-128825658D01*
X135686760Y-128750832D01*
X135105229Y-128663981D01*
X134523906Y-128566269D01*
X133950615Y-128458861D01*
X133393180Y-128342920D01*
X132891803Y-128227477D01*
X132208425Y-128050256D01*
X131551324Y-127856121D01*
X130923435Y-127646110D01*
X130327692Y-127421258D01*
X129767029Y-127182602D01*
X129296583Y-126957742D01*
X128771512Y-126675024D01*
X128240518Y-126355817D01*
X127708376Y-126004136D01*
X127179860Y-125623992D01*
X126659742Y-125219398D01*
X126152798Y-124794367D01*
X125663800Y-124352913D01*
X125197522Y-123899047D01*
X124758739Y-123436783D01*
X124352223Y-122970134D01*
X123982748Y-122503111D01*
X123958264Y-122470333D01*
X123567993Y-121913783D01*
X123218717Y-121347861D01*
X122909823Y-120771004D01*
X122640698Y-120181647D01*
X122410729Y-119578225D01*
X122219304Y-118959174D01*
X122065810Y-118322929D01*
X121949634Y-117667927D01*
X121889123Y-117187371D01*
X121880313Y-117093795D01*
X121870988Y-116977408D01*
X121861483Y-116844396D01*
X121852131Y-116700942D01*
X121843266Y-116553230D01*
X121835220Y-116407445D01*
X121828327Y-116269770D01*
X121822921Y-116146392D01*
X121819335Y-116043492D01*
X121817903Y-115967257D01*
X121818958Y-115923870D01*
X121820587Y-115916356D01*
X121836078Y-115927270D01*
G36*
X134085100Y-121314545D02*
X134078787Y-121324165D01*
X134057319Y-121325662D01*
X134034733Y-121320492D01*
X134044531Y-121312874D01*
X134077612Y-121310350D01*
X134085100Y-121314545D01*
X134085100Y-121314545D01*
G37*
X134085100Y-121314545D02*
X134078787Y-121324165D01*
X134057319Y-121325662D01*
X134034733Y-121320492D01*
X134044531Y-121312874D01*
X134077612Y-121310350D01*
X134085100Y-121314545D01*
G36*
X134201958Y-121292148D02*
X134204617Y-121299874D01*
X134175500Y-121302824D01*
X134145451Y-121299498D01*
X134149041Y-121292148D01*
X134192377Y-121289352D01*
X134201958Y-121292148D01*
X134201958Y-121292148D01*
G37*
X134201958Y-121292148D02*
X134204617Y-121299874D01*
X134175500Y-121302824D01*
X134145451Y-121299498D01*
X134149041Y-121292148D01*
X134192377Y-121289352D01*
X134201958Y-121292148D01*
G36*
X134328958Y-121270981D02*
X134331617Y-121278707D01*
X134302500Y-121281657D01*
X134272451Y-121278331D01*
X134276041Y-121270981D01*
X134319377Y-121268186D01*
X134328958Y-121270981D01*
X134328958Y-121270981D01*
G37*
X134328958Y-121270981D02*
X134331617Y-121278707D01*
X134302500Y-121281657D01*
X134272451Y-121278331D01*
X134276041Y-121270981D01*
X134319377Y-121268186D01*
X134328958Y-121270981D01*
G36*
X134444934Y-121251045D02*
X134438621Y-121260665D01*
X134417152Y-121262162D01*
X134394567Y-121256992D01*
X134404364Y-121249374D01*
X134437445Y-121246850D01*
X134444934Y-121251045D01*
X134444934Y-121251045D01*
G37*
X134444934Y-121251045D02*
X134438621Y-121260665D01*
X134417152Y-121262162D01*
X134394567Y-121256992D01*
X134404364Y-121249374D01*
X134437445Y-121246850D01*
X134444934Y-121251045D01*
G36*
X129756580Y-105473605D02*
X130101529Y-105524060D01*
X130424332Y-105608998D01*
X130724416Y-105728319D01*
X131001211Y-105881920D01*
X131254143Y-106069699D01*
X131482641Y-106291555D01*
X131602196Y-106433814D01*
X131796926Y-106711473D01*
X131968502Y-107013452D01*
X132113259Y-107331177D01*
X132227531Y-107656075D01*
X132307651Y-107979573D01*
X132335056Y-108147838D01*
X132344260Y-108230007D01*
X132348367Y-108306575D01*
X132347077Y-108388401D01*
X132340091Y-108486344D01*
X132327108Y-108611261D01*
X132320733Y-108666422D01*
X132303686Y-108841138D01*
X132291079Y-109032468D01*
X132282901Y-109232915D01*
X132279141Y-109434981D01*
X132279788Y-109631169D01*
X132284833Y-109813983D01*
X132294265Y-109975924D01*
X132308072Y-110109496D01*
X132322899Y-110193666D01*
X132350233Y-110323821D01*
X132362691Y-110426537D01*
X132359199Y-110514394D01*
X132338682Y-110599973D01*
X132300067Y-110695854D01*
X132275609Y-110747544D01*
X132143221Y-110988333D01*
X131982371Y-111223730D01*
X131790981Y-111455823D01*
X131566978Y-111686699D01*
X131308286Y-111918444D01*
X131012831Y-112153144D01*
X130678536Y-112392886D01*
X130558430Y-112474071D01*
X130443162Y-112549752D01*
X130335034Y-112618574D01*
X130240663Y-112676494D01*
X130166664Y-112719468D01*
X130119654Y-112743455D01*
X130113930Y-112745668D01*
X130036015Y-112766347D01*
X129925542Y-112787462D01*
X129792252Y-112807712D01*
X129645882Y-112825799D01*
X129496174Y-112840423D01*
X129352867Y-112850284D01*
X129317750Y-112851911D01*
X129211878Y-112856403D01*
X129115891Y-112860754D01*
X129040916Y-112864445D01*
X129000250Y-112866794D01*
X128946249Y-112868375D01*
X128867711Y-112868097D01*
X128788583Y-112866226D01*
X128350265Y-112830718D01*
X127921297Y-112754290D01*
X127501356Y-112636816D01*
X127090120Y-112478172D01*
X126687266Y-112278231D01*
X126292471Y-112036867D01*
X125905412Y-111753955D01*
X125877314Y-111731562D01*
X125783293Y-111654831D01*
X125713773Y-111592923D01*
X125659407Y-111535238D01*
X125610849Y-111471172D01*
X125558750Y-111390127D01*
X125521036Y-111327483D01*
X125353194Y-111010709D01*
X125223426Y-110687290D01*
X125131588Y-110355361D01*
X125077540Y-110013055D01*
X125061138Y-109658508D01*
X125082241Y-109289852D01*
X125140707Y-108905224D01*
X125236393Y-108502757D01*
X125291545Y-108315369D01*
X125323769Y-108214296D01*
X125353445Y-108129699D01*
X125384676Y-108053128D01*
X125421560Y-107976133D01*
X125468197Y-107890262D01*
X125528688Y-107787064D01*
X125607133Y-107658090D01*
X125622853Y-107632500D01*
X125777066Y-107384735D01*
X125915157Y-107170306D01*
X126040596Y-106985019D01*
X126156851Y-106824680D01*
X126267390Y-106685098D01*
X126375682Y-106562077D01*
X126485194Y-106451426D01*
X126599396Y-106348952D01*
X126721756Y-106250460D01*
X126835964Y-106165882D01*
X127098502Y-106001210D01*
X127394741Y-105859293D01*
X127719666Y-105742160D01*
X128166765Y-105618666D01*
X128594577Y-105530165D01*
X129002532Y-105476556D01*
X129390057Y-105457737D01*
X129756580Y-105473605D01*
X129756580Y-105473605D01*
G37*
X129756580Y-105473605D02*
X130101529Y-105524060D01*
X130424332Y-105608998D01*
X130724416Y-105728319D01*
X131001211Y-105881920D01*
X131254143Y-106069699D01*
X131482641Y-106291555D01*
X131602196Y-106433814D01*
X131796926Y-106711473D01*
X131968502Y-107013452D01*
X132113259Y-107331177D01*
X132227531Y-107656075D01*
X132307651Y-107979573D01*
X132335056Y-108147838D01*
X132344260Y-108230007D01*
X132348367Y-108306575D01*
X132347077Y-108388401D01*
X132340091Y-108486344D01*
X132327108Y-108611261D01*
X132320733Y-108666422D01*
X132303686Y-108841138D01*
X132291079Y-109032468D01*
X132282901Y-109232915D01*
X132279141Y-109434981D01*
X132279788Y-109631169D01*
X132284833Y-109813983D01*
X132294265Y-109975924D01*
X132308072Y-110109496D01*
X132322899Y-110193666D01*
X132350233Y-110323821D01*
X132362691Y-110426537D01*
X132359199Y-110514394D01*
X132338682Y-110599973D01*
X132300067Y-110695854D01*
X132275609Y-110747544D01*
X132143221Y-110988333D01*
X131982371Y-111223730D01*
X131790981Y-111455823D01*
X131566978Y-111686699D01*
X131308286Y-111918444D01*
X131012831Y-112153144D01*
X130678536Y-112392886D01*
X130558430Y-112474071D01*
X130443162Y-112549752D01*
X130335034Y-112618574D01*
X130240663Y-112676494D01*
X130166664Y-112719468D01*
X130119654Y-112743455D01*
X130113930Y-112745668D01*
X130036015Y-112766347D01*
X129925542Y-112787462D01*
X129792252Y-112807712D01*
X129645882Y-112825799D01*
X129496174Y-112840423D01*
X129352867Y-112850284D01*
X129317750Y-112851911D01*
X129211878Y-112856403D01*
X129115891Y-112860754D01*
X129040916Y-112864445D01*
X129000250Y-112866794D01*
X128946249Y-112868375D01*
X128867711Y-112868097D01*
X128788583Y-112866226D01*
X128350265Y-112830718D01*
X127921297Y-112754290D01*
X127501356Y-112636816D01*
X127090120Y-112478172D01*
X126687266Y-112278231D01*
X126292471Y-112036867D01*
X125905412Y-111753955D01*
X125877314Y-111731562D01*
X125783293Y-111654831D01*
X125713773Y-111592923D01*
X125659407Y-111535238D01*
X125610849Y-111471172D01*
X125558750Y-111390127D01*
X125521036Y-111327483D01*
X125353194Y-111010709D01*
X125223426Y-110687290D01*
X125131588Y-110355361D01*
X125077540Y-110013055D01*
X125061138Y-109658508D01*
X125082241Y-109289852D01*
X125140707Y-108905224D01*
X125236393Y-108502757D01*
X125291545Y-108315369D01*
X125323769Y-108214296D01*
X125353445Y-108129699D01*
X125384676Y-108053128D01*
X125421560Y-107976133D01*
X125468197Y-107890262D01*
X125528688Y-107787064D01*
X125607133Y-107658090D01*
X125622853Y-107632500D01*
X125777066Y-107384735D01*
X125915157Y-107170306D01*
X126040596Y-106985019D01*
X126156851Y-106824680D01*
X126267390Y-106685098D01*
X126375682Y-106562077D01*
X126485194Y-106451426D01*
X126599396Y-106348952D01*
X126721756Y-106250460D01*
X126835964Y-106165882D01*
X127098502Y-106001210D01*
X127394741Y-105859293D01*
X127719666Y-105742160D01*
X128166765Y-105618666D01*
X128594577Y-105530165D01*
X129002532Y-105476556D01*
X129390057Y-105457737D01*
X129756580Y-105473605D01*
G36*
X147581282Y-105465886D02*
X147751159Y-105472784D01*
X147897208Y-105484769D01*
X147944416Y-105490717D01*
X148193710Y-105531555D01*
X148448945Y-105583223D01*
X148701929Y-105643488D01*
X148944467Y-105710117D01*
X149168366Y-105780877D01*
X149365432Y-105853535D01*
X149510750Y-105917565D01*
X149705264Y-106019181D01*
X149883973Y-106127577D01*
X150050536Y-106246538D01*
X150208615Y-106379845D01*
X150361870Y-106531283D01*
X150513963Y-106704634D01*
X150668553Y-106903683D01*
X150829302Y-107132212D01*
X150999871Y-107394005D01*
X151108680Y-107569000D01*
X151260663Y-107848337D01*
X151393071Y-108155073D01*
X151504345Y-108481686D01*
X151592925Y-108820656D01*
X151657251Y-109164462D01*
X151695766Y-109505584D01*
X151706908Y-109836501D01*
X151689120Y-110149692D01*
X151671306Y-110282561D01*
X151609599Y-110574325D01*
X151520593Y-110862443D01*
X151408940Y-111133228D01*
X151329968Y-111287148D01*
X151263700Y-111382122D01*
X151164660Y-111491983D01*
X151037926Y-111612660D01*
X150888575Y-111740078D01*
X150721686Y-111870165D01*
X150542337Y-111998847D01*
X150355604Y-112122052D01*
X150166567Y-112235706D01*
X150103416Y-112271040D01*
X149721103Y-112462053D01*
X149338918Y-112614572D01*
X148951773Y-112729755D01*
X148554582Y-112808754D01*
X148142256Y-112852726D01*
X147709708Y-112862825D01*
X147521083Y-112857257D01*
X147310221Y-112844157D01*
X147103757Y-112824173D01*
X146907905Y-112798377D01*
X146728876Y-112767844D01*
X146572880Y-112733645D01*
X146446132Y-112696856D01*
X146354841Y-112658550D01*
X146347460Y-112654423D01*
X146296244Y-112622639D01*
X146219547Y-112572330D01*
X146126377Y-112509522D01*
X146025739Y-112440242D01*
X145987627Y-112413623D01*
X145654999Y-112168664D01*
X145362607Y-111928211D01*
X145108821Y-111690477D01*
X144892012Y-111453676D01*
X144710553Y-111216024D01*
X144562815Y-110975734D01*
X144447169Y-110731021D01*
X144442466Y-110719307D01*
X144408557Y-110632501D01*
X144388670Y-110569488D01*
X144381959Y-110516042D01*
X144387579Y-110457932D01*
X144404682Y-110380932D01*
X144418978Y-110324193D01*
X144460671Y-110118884D01*
X144487582Y-109888335D01*
X144499766Y-109629620D01*
X144497276Y-109339808D01*
X144480169Y-109015973D01*
X144449973Y-108669666D01*
X144436486Y-108532841D01*
X144427667Y-108428175D01*
X144423486Y-108345753D01*
X144423913Y-108275664D01*
X144428918Y-108207994D01*
X144438472Y-108132828D01*
X144448161Y-108068433D01*
X144499810Y-107821092D01*
X144579005Y-107556870D01*
X144681363Y-107286681D01*
X144802500Y-107021437D01*
X144938032Y-106772053D01*
X145023607Y-106635822D01*
X145227452Y-106364911D01*
X145454942Y-106129102D01*
X145706154Y-105928345D01*
X145981164Y-105762589D01*
X146280051Y-105631785D01*
X146602890Y-105535882D01*
X146759083Y-105503541D01*
X146883266Y-105486787D01*
X147038567Y-105474525D01*
X147213997Y-105466875D01*
X147398564Y-105463956D01*
X147581282Y-105465886D01*
X147581282Y-105465886D01*
G37*
X147581282Y-105465886D02*
X147751159Y-105472784D01*
X147897208Y-105484769D01*
X147944416Y-105490717D01*
X148193710Y-105531555D01*
X148448945Y-105583223D01*
X148701929Y-105643488D01*
X148944467Y-105710117D01*
X149168366Y-105780877D01*
X149365432Y-105853535D01*
X149510750Y-105917565D01*
X149705264Y-106019181D01*
X149883973Y-106127577D01*
X150050536Y-106246538D01*
X150208615Y-106379845D01*
X150361870Y-106531283D01*
X150513963Y-106704634D01*
X150668553Y-106903683D01*
X150829302Y-107132212D01*
X150999871Y-107394005D01*
X151108680Y-107569000D01*
X151260663Y-107848337D01*
X151393071Y-108155073D01*
X151504345Y-108481686D01*
X151592925Y-108820656D01*
X151657251Y-109164462D01*
X151695766Y-109505584D01*
X151706908Y-109836501D01*
X151689120Y-110149692D01*
X151671306Y-110282561D01*
X151609599Y-110574325D01*
X151520593Y-110862443D01*
X151408940Y-111133228D01*
X151329968Y-111287148D01*
X151263700Y-111382122D01*
X151164660Y-111491983D01*
X151037926Y-111612660D01*
X150888575Y-111740078D01*
X150721686Y-111870165D01*
X150542337Y-111998847D01*
X150355604Y-112122052D01*
X150166567Y-112235706D01*
X150103416Y-112271040D01*
X149721103Y-112462053D01*
X149338918Y-112614572D01*
X148951773Y-112729755D01*
X148554582Y-112808754D01*
X148142256Y-112852726D01*
X147709708Y-112862825D01*
X147521083Y-112857257D01*
X147310221Y-112844157D01*
X147103757Y-112824173D01*
X146907905Y-112798377D01*
X146728876Y-112767844D01*
X146572880Y-112733645D01*
X146446132Y-112696856D01*
X146354841Y-112658550D01*
X146347460Y-112654423D01*
X146296244Y-112622639D01*
X146219547Y-112572330D01*
X146126377Y-112509522D01*
X146025739Y-112440242D01*
X145987627Y-112413623D01*
X145654999Y-112168664D01*
X145362607Y-111928211D01*
X145108821Y-111690477D01*
X144892012Y-111453676D01*
X144710553Y-111216024D01*
X144562815Y-110975734D01*
X144447169Y-110731021D01*
X144442466Y-110719307D01*
X144408557Y-110632501D01*
X144388670Y-110569488D01*
X144381959Y-110516042D01*
X144387579Y-110457932D01*
X144404682Y-110380932D01*
X144418978Y-110324193D01*
X144460671Y-110118884D01*
X144487582Y-109888335D01*
X144499766Y-109629620D01*
X144497276Y-109339808D01*
X144480169Y-109015973D01*
X144449973Y-108669666D01*
X144436486Y-108532841D01*
X144427667Y-108428175D01*
X144423486Y-108345753D01*
X144423913Y-108275664D01*
X144428918Y-108207994D01*
X144438472Y-108132828D01*
X144448161Y-108068433D01*
X144499810Y-107821092D01*
X144579005Y-107556870D01*
X144681363Y-107286681D01*
X144802500Y-107021437D01*
X144938032Y-106772053D01*
X145023607Y-106635822D01*
X145227452Y-106364911D01*
X145454942Y-106129102D01*
X145706154Y-105928345D01*
X145981164Y-105762589D01*
X146280051Y-105631785D01*
X146602890Y-105535882D01*
X146759083Y-105503541D01*
X146883266Y-105486787D01*
X147038567Y-105474525D01*
X147213997Y-105466875D01*
X147398564Y-105463956D01*
X147581282Y-105465886D01*
D13*
X148272500Y-134429500D03*
D14*
X148272500Y-136969500D03*
X145732500Y-134429500D03*
X145732500Y-136969500D03*
M02*
