<?xml version="1.0" standalone="no"?>
 <!DOCTYPE svg PUBLIC "-//W3C//DTD SVG 1.1//EN" 
 "http://www.w3.org/Graphics/SVG/1.1/DTD/svg11.dtd"> 
<svg xmlns="http://www.w3.org/2000/svg" version="1.1" 
    width="10.0305cm" height="11.0312cm" viewBox="0 0 39490 43430 ">
<title>SVG Picture created as Cheshire_Cat_PCB-brd.svg date 2018/06/27 22:58:36 </title>
  <desc>Picture generated by PCBNEW </desc>
<g style="fill:#000000; fill-opacity:1;stroke:#000000; stroke-opacity:1;
stroke-linecap:round; stroke-linejoin:round; "
 transform="translate(0 0) scale(1 1)">
</g>
<g style="fill:#000000; fill-opacity:0.0; 
stroke:#000000; stroke-width:-0.000393701; stroke-opacity:1; 
stroke-linecap:round; stroke-linejoin:round;">
</g>
<g style="fill:#000000; fill-opacity:0.0; 
stroke:#000000; stroke-width:59.0551; stroke-opacity:1; 
stroke-linecap:round; stroke-linejoin:round;">
<path d="M8161 27836
L10861 27836
" />
<path d="M10861 27836
L10861 26436
" />
<path d="M10861 26436
L8061 26436
" />
<path d="M8061 26436
L8061 27836
" />
<path d="M8061 27836
L8161 27836
" />
<path d="M18311 26511
L15611 26511
" />
<path d="M15611 26511
L15611 27911
" />
<path d="M15611 27911
L18411 27911
" />
<path d="M18411 27911
L18411 26511
" />
<path d="M18411 26511
L18311 26511
" />
<path d="M6811 29786
L6811 32486
" />
<path d="M6811 32486
L8211 32486
" />
<path d="M8211 32486
L8211 29686
" />
<path d="M8211 29686
L6811 29686
" />
<path d="M6811 29686
L6811 29786
" />
<path d="M8786 31686
L8786 34386
" />
<path d="M8786 34386
L10186 34386
" />
<path d="M10186 34386
L10186 31586
" />
<path d="M10186 31586
L8786 31586
" />
<path d="M8786 31586
L8786 31686
" />
<path d="M11411 32311
L11411 35011
" />
<path d="M11411 35011
L12811 35011
" />
<path d="M12811 35011
L12811 32211
" />
<path d="M12811 32211
L11411 32211
" />
<path d="M11411 32211
L11411 32311
" />
<path d="M13986 32211
L13986 34911
" />
<path d="M13986 34911
L15386 34911
" />
<path d="M15386 34911
L15386 32111
" />
<path d="M15386 32111
L13986 32111
" />
<path d="M13986 32111
L13986 32211
" />
<path d="M16436 31761
L16436 34461
" />
<path d="M16436 34461
L17836 34461
" />
<path d="M17836 34461
L17836 31661
" />
<path d="M17836 31661
L16436 31661
" />
<path d="M16436 31661
L16436 31761
" />
<path d="M18386 29836
L18386 32536
" />
<path d="M18386 32536
L19786 32536
" />
<path d="M19786 32536
L19786 29736
" />
<path d="M19786 29736
L18386 29736
" />
<path d="M18386 29736
L18386 29836
" />
</g>
<g style="fill:#000000; fill-opacity:0.0; 
stroke:#000000; stroke-width:47.2441; stroke-opacity:1; 
stroke-linecap:round; stroke-linejoin:round;">
<path d="M20715 34225
L20715 34698
" />
<path d="M21408 34698
L21408 34225
" />
</g>
<g style="fill:#000000; fill-opacity:0.0; 
stroke:#000000; stroke-width:59.0551; stroke-opacity:1; 
stroke-linecap:round; stroke-linejoin:round;">
<path d="M9679 28345
L9679 28050
L9609 28050
L9567 28064
L9539 28092
L9525 28120
L9511 28176
L9511 28218
L9525 28275
L9539 28303
L9567 28331
L9609 28345
L9679 28345
" />
<path d="M9229 28345
L9398 28345
" />
<path d="M9314 28345
L9314 28050
L9342 28092
L9370 28120
L9398 28134
" />
<path d="M10561 28190
L10261 28190
" />
<path d="M8661 28190
L8361 28190
" />
<path d="M8511 28340
L8511 28040
" />
<path d="M17229 28395
L17229 28100
L17159 28100
L17117 28114
L17089 28142
L17075 28170
L17061 28226
L17061 28268
L17075 28325
L17089 28353
L17117 28381
L17159 28395
L17229 28395
" />
<path d="M16948 28128
L16934 28114
L16906 28100
L16836 28100
L16808 28114
L16794 28128
L16779 28156
L16779 28184
L16794 28226
L16962 28395
L16779 28395
" />
<path d="M16211 28240
L15911 28240
" />
<path d="M18111 28240
L17811 28240
" />
<path d="M17961 28390
L17961 28090
" />
<path d="M6679 31245
L6679 30950
L6609 30950
L6567 30964
L6539 30992
L6525 31020
L6511 31076
L6511 31118
L6525 31175
L6539 31203
L6567 31231
L6609 31245
L6679 31245
" />
<path d="M6412 30950
L6229 30950
L6328 31062
L6286 31062
L6258 31076
L6244 31090
L6229 31118
L6229 31189
L6244 31217
L6258 31231
L6286 31245
L6370 31245
L6398 31231
L6412 31217
" />
<path d="M6390 31911
L6390 32211
" />
<path d="M6390 29961
L6390 30261
" />
<path d="M6540 30111
L6240 30111
" />
</g>
<g style="fill:#000000; fill-opacity:0.0; 
stroke:#000000; stroke-width:49.2126; stroke-opacity:1; 
stroke-linecap:round; stroke-linejoin:round;">
<path d="M8679 33145
L8679 32850
L8609 32850
L8567 32864
L8539 32892
L8525 32920
L8511 32976
L8511 33018
L8525 33075
L8539 33103
L8567 33131
L8609 33145
L8679 33145
" />
<path d="M8258 32948
L8258 33145
" />
<path d="M8328 32836
L8398 33047
L8215 33047
" />
</g>
<g style="fill:#000000; fill-opacity:0.0; 
stroke:#000000; stroke-width:59.0551; stroke-opacity:1; 
stroke-linecap:round; stroke-linejoin:round;">
<path d="M8490 33811
L8490 34111
" />
<path d="M8490 31911
L8490 32211
" />
<path d="M8640 32061
L8340 32061
" />
<path d="M11245 33394
L10950 33394
L10950 33464
L10964 33506
L10992 33534
L11020 33548
L11076 33562
L11118 33562
L11175 33548
L11203 33534
L11231 33506
L11245 33464
L11245 33394
" />
<path d="M10950 33829
L10950 33689
L11090 33675
L11076 33689
L11062 33717
L11062 33787
L11076 33815
L11090 33829
L11118 33843
L11189 33843
L11217 33829
L11231 33815
L11245 33787
L11245 33717
L11231 33689
L11217 33675
" />
<path d="M11090 34411
L11090 34711
" />
<path d="M11090 32511
L11090 32811
" />
<path d="M11240 32661
L10940 32661
" />
<path d="M13879 33645
L13879 33350
L13809 33350
L13767 33364
L13739 33392
L13725 33420
L13711 33476
L13711 33518
L13725 33575
L13739 33603
L13767 33631
L13809 33645
L13879 33645
" />
<path d="M13458 33350
L13514 33350
L13542 33364
L13556 33378
L13584 33420
L13598 33476
L13598 33589
L13584 33617
L13570 33631
L13542 33645
L13486 33645
L13458 33631
L13444 33617
L13429 33589
L13429 33518
L13444 33490
L13458 33476
L13486 33462
L13542 33462
L13570 33476
L13584 33490
L13598 33518
" />
<path d="M13640 34311
L13640 34611
" />
<path d="M13640 32411
L13640 32711
" />
<path d="M13790 32561
L13490 32561
" />
<path d="M16329 33145
L16329 32850
L16259 32850
L16217 32864
L16189 32892
L16175 32920
L16161 32976
L16161 33018
L16175 33075
L16189 33103
L16217 33131
L16259 33145
L16329 33145
" />
<path d="M16062 32850
L15865 32850
L15992 33145
" />
<path d="M16090 33861
L16090 34161
" />
<path d="M16090 31961
L16090 32261
" />
<path d="M16240 32111
L15940 32111
" />
<path d="M20379 31295
L20379 31000
L20309 31000
L20267 31014
L20239 31042
L20225 31070
L20211 31126
L20211 31168
L20225 31225
L20239 31253
L20267 31281
L20309 31295
L20379 31295
" />
<path d="M20042 31126
L20070 31112
L20084 31098
L20098 31070
L20098 31056
L20084 31028
L20070 31014
L20042 31000
L19986 31000
L19958 31014
L19944 31028
L19929 31056
L19929 31070
L19944 31098
L19958 31112
L19986 31126
L20042 31126
L20070 31140
L20084 31154
L20098 31183
L20098 31239
L20084 31267
L20070 31281
L20042 31295
L19986 31295
L19958 31281
L19944 31267
L19929 31239
L19929 31183
L19944 31154
L19958 31140
L19986 31126
" />
<path d="M20165 31961
L20165 32261
" />
<path d="M20165 30061
L20165 30361
" />
<path d="M20315 30211
L20015 30211
" />
<path d="M21780 34595
L21878 34454
" />
<path d="M21949 34595
L21949 34300
L21836 34300
L21808 34314
L21794 34328
L21780 34356
L21780 34398
L21794 34426
L21808 34440
L21836 34454
L21949 34454
" />
<path d="M21499 34595
L21667 34595
" />
<path d="M21583 34595
L21583 34300
L21611 34342
L21639 34370
L21667 34384
" />
<path d="M17512 36467
L17472 36480
L17407 36480
L17380 36467
L17367 36454
L17354 36428
L17354 36401
L17367 36375
L17380 36362
L17407 36349
L17459 36336
L17485 36323
L17499 36309
L17512 36283
L17512 36257
L17499 36231
L17485 36218
L17459 36204
L17394 36204
L17354 36218
" />
<path d="M17236 36480
L17236 36204
L17170 36204
L17131 36218
L17105 36244
L17092 36270
L17079 36323
L17079 36362
L17092 36414
L17105 36441
L17131 36467
L17170 36480
L17236 36480
" />
<path d="M16974 36401
L16842 36401
" />
<path d="M17000 36480
L16908 36204
L16816 36480
" />
<path d="M17505 38829
L17466 38842
L17400 38842
L17374 38829
L17361 38816
L17348 38790
L17348 38764
L17361 38737
L17374 38724
L17400 38711
L17453 38698
L17479 38685
L17492 38672
L17505 38645
L17505 38619
L17492 38593
L17479 38580
L17453 38567
L17387 38567
L17348 38580
" />
<path d="M17072 38816
L17085 38829
L17125 38842
L17151 38842
L17190 38829
L17216 38803
L17230 38777
L17243 38724
L17243 38685
L17230 38632
L17216 38606
L17190 38580
L17151 38567
L17125 38567
L17085 38580
L17072 38593
" />
<path d="M16823 38842
L16954 38842
L16954 38567
" />
<path d="M16206 38580
L16232 38567
L16272 38567
L16311 38580
L16337 38606
L16350 38632
L16363 38685
L16363 38724
L16350 38777
L16337 38803
L16311 38829
L16272 38842
L16245 38842
L16206 38829
L16193 38816
L16193 38724
L16245 38724
" />
<path d="M16075 38842
L16075 38567
L15917 38842
L15917 38567
" />
<path d="M15786 38842
L15786 38567
L15720 38567
L15681 38580
L15655 38606
L15642 38632
L15628 38685
L15628 38724
L15642 38777
L15655 38803
L15681 38829
L15720 38842
L15786 38842
" />
<path d="M16363 36204
L16272 36480
L16180 36204
" />
<path d="M15930 36454
L15943 36467
L15983 36480
L16009 36480
L16048 36467
L16075 36441
L16088 36414
L16101 36362
L16101 36323
L16088 36270
L16075 36244
L16048 36218
L16009 36204
L15983 36204
L15943 36218
L15930 36231
" />
<path d="M15655 36454
L15668 36467
L15707 36480
L15733 36480
L15773 36467
L15799 36441
L15812 36414
L15825 36362
L15825 36323
L15812 36270
L15799 36244
L15773 36218
L15733 36204
L15707 36204
L15668 36218
L15655 36231
" />
</g>
<g style="fill:#000000; fill-opacity:1.0; 
stroke:#000000; stroke-width:3.93701; stroke-opacity:1; 
stroke-linecap:round; stroke-linejoin:round;">
<polyline style="fill-rule:evenodd;"
points="39436,43370
61,43370
61,31549
846,31549
846,32035
846,32512
846,32982
846,33443
846,33895
846,34339
846,34774
846,35199
846,35615
846,36021
846,36417
847,36803
847,37178
847,37543
847,37897
847,38241
847,38572
847,38893
847,39201
847,39498
847,39782
847,40054
847,40314
847,40560
847,40794
847,41014
847,41220
847,41413
848,41592
848,41757
848,41908
848,42043
848,42164
848,42270
848,42361
848,42436
848,42495
848,42538
849,42565
849,42576
849,42576
852,42576
860,42577
875,42577
896,42578
923,42578
956,42578
996,42579
1043,42579
1097,42579
1158,42580
1226,42580
1302,42580
1385,42580
1476,42581
1575,42581
1683,42581
1799,42581
1923,42582
2056,42582
2198,42582
2348,42582
2509,42583
2678,42583
2857,42583
3046,42583
3245,42583
3454,42584
3673,42584
3902,42584
4142,42584
4393,42584
4655,42584
4928,42585
5212,42585
5508,42585
5816,42585
6135,42585
6466,42585
6810,42585
7165,42585
7534,42585
7915,42586
8309,42586
8716,42586
9136,42586
9569,42586
10016,42586
10477,42586
10952,42586
11441,42586
11944,42586
12462,42586
12994,42586
13541,42586
14103,42586
14680,42586
15272,42586
15880,42586
16503,42586
17142,42586
17798,42586
18469,42586
19157,42586
19749,42586
38645,42586
38645,845
19747,847
849,849
847,21707
847,22298
847,22884
847,23466
847,24044
847,24617
847,25185
847,25749
846,26307
846,26859
846,27406
846,27947
846,28482
846,29011
846,29532
846,30047
846,30555
846,31056
846,31549
61,31549
61,61
39436,61
39436,43370
" /> 
<polyline style="fill-rule:evenodd;"
points="6678,29752
6690,29767
6700,29780
6719,29806
6746,29842
6780,29886
6818,29935
6858,29986
6899,30036
6938,30084
6973,30125
6989,30145
7022,30182
7066,30228
7117,30282
7174,30340
7234,30402
7297,30464
7359,30525
7418,30583
7473,30635
7521,30679
7557,30712
7790,30905
8030,31087
8277,31256
8529,31413
8786,31558
9047,31689
9310,31806
9575,31908
9841,31996
10106,32069
10370,32126
10449,32140
10534,32153
10608,32165
10675,32173
10739,32180
10803,32184
10871,32187
10946,32189
11032,32190
11091,32190
11179,32190
11253,32189
11315,32187
11368,32185
11414,32182
11455,32178
11478,32176
11686,32142
11883,32096
12070,32037
12247,31966
12414,31881
12571,31783
12719,31672
12859,31548
12883,31524
12962,31441
13027,31363
13079,31288
13120,31216
13126,31203
13138,31178
13148,31160
13153,31153
13159,31160
13169,31178
13184,31204
13189,31214
13229,31282
13283,31356
13347,31433
13421,31511
13502,31589
13588,31664
13670,31729
13825,31835
13990,31928
14166,32010
14353,32078
14551,32135
14760,32179
14980,32211
14995,32213
15039,32216
15096,32219
15164,32221
15239,32223
15318,32223
15398,32223
15476,32222
15549,32220
15614,32218
15667,32215
15686,32213
15973,32175
16256,32122
16535,32054
16812,31969
17086,31868
17359,31751
17531,31668
17809,31520
18078,31359
18336,31186
18584,31001
18821,30804
19046,30597
19258,30378
19458,30150
19645,29911
19666,29882
19739,29782
19733,29878
19708,30174
19670,30460
19619,30737
19553,31005
19474,31264
19380,31515
19273,31758
19151,31993
19015,32220
18864,32441
18699,32655
18562,32815
18462,32922
18350,33035
18230,33150
18104,33265
17975,33378
17847,33485
17722,33584
17603,33673
17598,33677
17477,33758
17342,33840
17199,33920
17049,33996
16896,34067
16866,34080
16722,34140
16564,34201
16394,34262
16215,34323
16029,34383
15838,34441
15646,34497
15454,34549
15264,34597
15099,34636
15029,34652
14951,34671
14869,34690
14792,34708
14724,34724
14724,34724
14459,34783
14200,34829
13943,34862
13684,34884
13422,34893
13151,34892
12986,34886
12788,34873
12577,34854
12357,34830
12131,34801
11903,34767
11674,34728
11448,34686
11228,34640
11031,34595
10762,34525
10503,34449
10256,34366
10022,34277
9801,34183
9616,34095
9409,33984
9200,33858
8990,33719
8782,33570
8578,33410
8378,33243
8185,33069
8002,32891
7829,32709
7669,32525
7524,32341
7514,32328
7360,32109
7223,31886
7101,31659
6995,31427
6905,31190
6829,30946
6769,30695
6723,30437
6699,30248
6696,30211
6692,30166
6688,30113
6685,30057
6681,29999
6678,29941
6675,29887
6673,29838
6672,29798
6671,29768
6672,29751
6672,29748
6678,29752
" /> 
<polyline style="fill-rule:evenodd;"
points="11501,31873
11498,31877
11490,31877
11481,31875
11485,31872
11498,31871
11501,31873
" /> 
<polyline style="fill-rule:evenodd;"
points="11547,31864
11548,31867
11536,31868
11525,31867
11526,31864
11543,31863
11547,31864
" /> 
<polyline style="fill-rule:evenodd;"
points="11597,31856
11598,31859
11586,31860
11575,31859
11576,31856
11593,31855
11597,31856
" /> 
<polyline style="fill-rule:evenodd;"
points="11643,31848
11640,31852
11632,31852
11623,31850
11627,31847
11640,31846
11643,31848
" /> 
<polyline style="fill-rule:evenodd;"
points="9797,25637
9933,25656
10060,25690
10178,25737
10287,25797
10386,25871
10476,25959
10523,26015
10600,26124
10668,26243
10725,26368
10770,26496
10801,26623
10812,26689
10816,26722
10817,26752
10817,26784
10814,26823
10809,26872
10806,26894
10800,26962
10795,27038
10791,27117
10790,27196
10790,27273
10792,27345
10796,27409
10801,27462
10807,27495
10818,27546
10823,27586
10821,27621
10813,27655
10798,27693
10788,27713
10736,27808
10673,27900
10598,27992
10509,28083
10408,28174
10291,28266
10160,28361
10112,28393
10067,28422
10024,28449
9987,28472
9958,28489
9940,28499
9937,28500
9907,28508
9863,28516
9811,28524
9753,28531
9694,28537
9638,28541
9624,28541
9582,28543
9544,28545
9515,28546
9499,28547
9478,28548
9447,28548
9416,28547
9243,28533
9074,28503
8909,28457
8747,28394
8588,28315
8433,28220
8281,28109
8269,28100
8232,28070
8205,28046
8184,28023
8165,27998
8144,27966
8129,27941
8063,27816
8012,27689
7976,27558
7955,27424
7948,27284
7956,27139
7979,26988
8017,26829
8039,26755
8052,26716
8063,26682
8076,26652
8090,26622
8108,26588
8132,26547
8163,26497
8169,26486
8230,26389
8284,26305
8334,26232
8380,26168
8423,26113
8466,26065
8509,26021
8554,25981
8602,25942
8647,25909
8750,25844
8867,25788
8995,25742
9171,25694
9339,25659
9500,25638
9652,25630
9797,25637
" /> 
<polyline style="fill-rule:evenodd;"
points="16814,25633
16881,25636
16939,25641
16957,25643
17055,25659
17156,25680
17256,25703
17351,25730
17439,25757
17517,25786
17574,25811
17651,25851
17721,25894
17786,25941
17849,25993
17909,26053
17969,26121
18030,26200
18093,26290
18160,26393
18203,26461
18263,26571
18315,26692
18359,26821
18394,26954
18419,27090
18434,27224
18439,27354
18432,27477
18425,27530
18400,27645
18365,27758
18321,27865
18290,27925
18264,27963
18225,28006
18175,28053
18116,28104
18051,28155
17980,28206
17907,28254
17832,28299
17807,28313
17657,28388
17506,28448
17354,28493
17198,28524
17035,28542
16865,28546
16791,28543
16708,28538
16626,28530
16549,28520
16479,28508
16417,28495
16367,28480
16331,28465
16329,28464
16308,28451
16278,28431
16242,28407
16202,28379
16187,28369
16056,28272
15941,28178
15841,28084
15756,27991
15684,27897
15626,27803
15580,27706
15579,27702
15565,27668
15557,27643
15555,27622
15557,27599
15564,27569
15569,27546
15586,27465
15596,27375
15601,27273
15600,27159
15593,27031
15582,26895
15576,26841
15573,26800
15571,26767
15571,26740
15573,26713
15577,26683
15581,26658
15601,26561
15632,26457
15673,26350
15720,26246
15774,26148
15807,26094
15888,25987
15977,25895
16076,25816
16184,25750
16302,25699
16429,25661
16491,25648
16540,25642
16601,25637
16670,25634
16742,25633
16814,25633
" /> 
</g>
<g style="fill:#000000; fill-opacity:1.0; 
stroke:#000000; stroke-width:0; stroke-opacity:1; 
stroke-linecap:round; stroke-linejoin:round;">
<circle cx="17087" cy="37037" r="413.386" /> 
</g>
<g style="fill:#000000; fill-opacity:1.0; 
stroke:#000000; stroke-width:39.3701; stroke-opacity:1; 
stroke-linecap:round; stroke-linejoin:round;">
</g>
<g style="fill:#000000; fill-opacity:1.0; 
stroke:#000000; stroke-width:826.772; stroke-opacity:1; 
stroke-linecap:round; stroke-linejoin:round;">
</g>
<g style="fill:#000000; fill-opacity:0.0; 
stroke:#000000; stroke-width:826.772; stroke-opacity:1; 
stroke-linecap:round; stroke-linejoin:round;">
<path d="M17086 38036
L17086 38036
" />
<path d="M16086 37036
L16086 37036
" />
<path d="M16086 38036
L16086 38036
" />
</g> 
</svg>
