G04 #@! TF.FileFunction,Copper,L2,Bot,Signal*
%FSLAX46Y46*%
G04 Gerber Fmt 4.6, Leading zero omitted, Abs format (unit mm)*
G04 Created by KiCad (PCBNEW 4.0.7) date 07/11/18 15:32:24*
%MOMM*%
%LPD*%
G01*
G04 APERTURE LIST*
%ADD10C,0.100000*%
%ADD11C,0.010000*%
%ADD12R,1.200000X2.600000*%
%ADD13R,1.300000X1.500000*%
%ADD14C,1.700000*%
%ADD15O,1.700000X1.700000*%
%ADD16C,0.381000*%
%ADD17C,0.254000*%
G04 APERTURE END LIST*
D10*
D11*
G36*
X184679167Y-127359833D02*
X112670167Y-127359833D01*
X112670167Y-104261711D01*
X114663659Y-104261711D01*
X114663660Y-105326889D01*
X114663671Y-106372112D01*
X114663694Y-107396718D01*
X114663727Y-108400047D01*
X114663772Y-109381437D01*
X114663826Y-110340228D01*
X114663892Y-111275758D01*
X114663968Y-112187367D01*
X114664054Y-113074394D01*
X114664150Y-113936178D01*
X114664257Y-114772057D01*
X114664374Y-115581372D01*
X114664501Y-116363460D01*
X114664638Y-117117661D01*
X114664785Y-117843314D01*
X114664942Y-118539758D01*
X114665108Y-119206332D01*
X114665285Y-119842375D01*
X114665471Y-120447226D01*
X114665666Y-121020225D01*
X114665871Y-121560709D01*
X114666085Y-122068019D01*
X114666309Y-122541492D01*
X114666541Y-122980469D01*
X114666783Y-123384289D01*
X114667034Y-123752290D01*
X114667294Y-124083811D01*
X114667563Y-124378191D01*
X114667841Y-124634770D01*
X114668127Y-124852886D01*
X114668422Y-125031879D01*
X114668726Y-125171088D01*
X114669038Y-125269851D01*
X114669359Y-125327507D01*
X114669640Y-125343708D01*
X114677259Y-125344873D01*
X114699570Y-125346006D01*
X114737097Y-125347106D01*
X114790365Y-125348174D01*
X114859898Y-125349212D01*
X114946220Y-125350218D01*
X115049855Y-125351194D01*
X115171329Y-125352139D01*
X115311166Y-125353056D01*
X115469889Y-125353942D01*
X115648024Y-125354800D01*
X115846094Y-125355630D01*
X116064624Y-125356431D01*
X116304139Y-125357205D01*
X116565162Y-125357951D01*
X116848219Y-125358671D01*
X117153833Y-125359364D01*
X117482529Y-125360031D01*
X117834831Y-125360673D01*
X118211265Y-125361289D01*
X118612353Y-125361881D01*
X119038620Y-125362448D01*
X119490592Y-125362991D01*
X119968791Y-125363511D01*
X120473743Y-125364007D01*
X121005973Y-125364481D01*
X121566003Y-125364933D01*
X122154359Y-125365362D01*
X122771566Y-125365770D01*
X123418147Y-125366157D01*
X124094626Y-125366523D01*
X124801529Y-125366869D01*
X125539380Y-125367195D01*
X126308702Y-125367501D01*
X127110021Y-125367789D01*
X127943861Y-125368057D01*
X128810746Y-125368308D01*
X129711200Y-125368540D01*
X130645748Y-125368755D01*
X131614915Y-125368954D01*
X132619224Y-125369135D01*
X133659201Y-125369300D01*
X134735368Y-125369450D01*
X135848252Y-125369584D01*
X136998375Y-125369703D01*
X138186264Y-125369807D01*
X139412441Y-125369897D01*
X140677431Y-125369974D01*
X141981760Y-125370037D01*
X143325950Y-125370087D01*
X144710527Y-125370125D01*
X146136014Y-125370150D01*
X147602937Y-125370164D01*
X148674002Y-125370167D01*
X182668333Y-125370167D01*
X182668333Y-47349820D01*
X148669375Y-47355118D01*
X114670417Y-47360417D01*
X114665013Y-86338833D01*
X114664840Y-87624028D01*
X114664679Y-88899182D01*
X114664531Y-90163634D01*
X114664394Y-91416724D01*
X114664269Y-92657789D01*
X114664157Y-93886169D01*
X114664055Y-95101203D01*
X114663966Y-96302231D01*
X114663888Y-97488591D01*
X114663821Y-98659622D01*
X114663766Y-99814663D01*
X114663723Y-100953053D01*
X114663690Y-102074132D01*
X114663669Y-103177238D01*
X114663659Y-104261711D01*
X112670167Y-104261711D01*
X112670167Y-45360167D01*
X184679167Y-45360167D01*
X184679167Y-127359833D01*
X184679167Y-127359833D01*
G37*
X184679167Y-127359833D02*
X112670167Y-127359833D01*
X112670167Y-104261711D01*
X114663659Y-104261711D01*
X114663660Y-105326889D01*
X114663671Y-106372112D01*
X114663694Y-107396718D01*
X114663727Y-108400047D01*
X114663772Y-109381437D01*
X114663826Y-110340228D01*
X114663892Y-111275758D01*
X114663968Y-112187367D01*
X114664054Y-113074394D01*
X114664150Y-113936178D01*
X114664257Y-114772057D01*
X114664374Y-115581372D01*
X114664501Y-116363460D01*
X114664638Y-117117661D01*
X114664785Y-117843314D01*
X114664942Y-118539758D01*
X114665108Y-119206332D01*
X114665285Y-119842375D01*
X114665471Y-120447226D01*
X114665666Y-121020225D01*
X114665871Y-121560709D01*
X114666085Y-122068019D01*
X114666309Y-122541492D01*
X114666541Y-122980469D01*
X114666783Y-123384289D01*
X114667034Y-123752290D01*
X114667294Y-124083811D01*
X114667563Y-124378191D01*
X114667841Y-124634770D01*
X114668127Y-124852886D01*
X114668422Y-125031879D01*
X114668726Y-125171088D01*
X114669038Y-125269851D01*
X114669359Y-125327507D01*
X114669640Y-125343708D01*
X114677259Y-125344873D01*
X114699570Y-125346006D01*
X114737097Y-125347106D01*
X114790365Y-125348174D01*
X114859898Y-125349212D01*
X114946220Y-125350218D01*
X115049855Y-125351194D01*
X115171329Y-125352139D01*
X115311166Y-125353056D01*
X115469889Y-125353942D01*
X115648024Y-125354800D01*
X115846094Y-125355630D01*
X116064624Y-125356431D01*
X116304139Y-125357205D01*
X116565162Y-125357951D01*
X116848219Y-125358671D01*
X117153833Y-125359364D01*
X117482529Y-125360031D01*
X117834831Y-125360673D01*
X118211265Y-125361289D01*
X118612353Y-125361881D01*
X119038620Y-125362448D01*
X119490592Y-125362991D01*
X119968791Y-125363511D01*
X120473743Y-125364007D01*
X121005973Y-125364481D01*
X121566003Y-125364933D01*
X122154359Y-125365362D01*
X122771566Y-125365770D01*
X123418147Y-125366157D01*
X124094626Y-125366523D01*
X124801529Y-125366869D01*
X125539380Y-125367195D01*
X126308702Y-125367501D01*
X127110021Y-125367789D01*
X127943861Y-125368057D01*
X128810746Y-125368308D01*
X129711200Y-125368540D01*
X130645748Y-125368755D01*
X131614915Y-125368954D01*
X132619224Y-125369135D01*
X133659201Y-125369300D01*
X134735368Y-125369450D01*
X135848252Y-125369584D01*
X136998375Y-125369703D01*
X138186264Y-125369807D01*
X139412441Y-125369897D01*
X140677431Y-125369974D01*
X141981760Y-125370037D01*
X143325950Y-125370087D01*
X144710527Y-125370125D01*
X146136014Y-125370150D01*
X147602937Y-125370164D01*
X148674002Y-125370167D01*
X182668333Y-125370167D01*
X182668333Y-47349820D01*
X148669375Y-47355118D01*
X114670417Y-47360417D01*
X114665013Y-86338833D01*
X114664840Y-87624028D01*
X114664679Y-88899182D01*
X114664531Y-90163634D01*
X114664394Y-91416724D01*
X114664269Y-92657789D01*
X114664157Y-93886169D01*
X114664055Y-95101203D01*
X114663966Y-96302231D01*
X114663888Y-97488591D01*
X114663821Y-98659622D01*
X114663766Y-99814663D01*
X114663723Y-100953053D01*
X114663690Y-102074132D01*
X114663669Y-103177238D01*
X114663659Y-104261711D01*
X112670167Y-104261711D01*
X112670167Y-45360167D01*
X184679167Y-45360167D01*
X184679167Y-127359833D01*
G36*
X162637923Y-56433224D02*
X162809943Y-56442336D01*
X162944430Y-56460072D01*
X163113680Y-56498417D01*
X163270175Y-56547720D01*
X163419334Y-56611307D01*
X163566576Y-56692502D01*
X163717319Y-56794629D01*
X163876982Y-56921012D01*
X164050984Y-57074977D01*
X164239216Y-57254432D01*
X164456578Y-57480789D01*
X164660575Y-57722069D01*
X164852958Y-57981453D01*
X165035478Y-58262124D01*
X165209886Y-58567263D01*
X165377933Y-58900053D01*
X165541369Y-59263675D01*
X165701945Y-59661312D01*
X165861413Y-60096146D01*
X165957855Y-60377917D01*
X166139209Y-60945737D01*
X166311005Y-61535676D01*
X166473701Y-62149937D01*
X166627754Y-62790728D01*
X166773621Y-63460254D01*
X166911760Y-64160722D01*
X167042626Y-64894336D01*
X167166679Y-65663303D01*
X167284374Y-66469829D01*
X167396169Y-67316121D01*
X167396737Y-67320635D01*
X167431240Y-67592118D01*
X167462196Y-67827807D01*
X167490656Y-68033991D01*
X167517673Y-68216958D01*
X167544303Y-68382998D01*
X167571596Y-68538399D01*
X167600607Y-68689450D01*
X167632389Y-68842440D01*
X167667996Y-69003656D01*
X167706908Y-69172667D01*
X167745612Y-69329522D01*
X167782782Y-69456646D01*
X167823174Y-69566172D01*
X167871547Y-69670232D01*
X167932656Y-69780958D01*
X167969767Y-69843095D01*
X168080698Y-70034761D01*
X168201436Y-70259688D01*
X168328808Y-70510846D01*
X168459635Y-70781205D01*
X168590742Y-71063732D01*
X168718953Y-71351397D01*
X168841091Y-71637170D01*
X168953980Y-71914019D01*
X169054443Y-72174914D01*
X169139305Y-72412824D01*
X169163396Y-72485250D01*
X169304720Y-72962278D01*
X169428670Y-73472496D01*
X169535446Y-74017071D01*
X169625254Y-74597167D01*
X169698296Y-75213953D01*
X169754776Y-75868595D01*
X169755767Y-75882500D01*
X169767910Y-76030199D01*
X169781990Y-76143576D01*
X169800184Y-76230641D01*
X169824668Y-76299403D01*
X169857619Y-76357873D01*
X169899740Y-76412344D01*
X169941017Y-76458412D01*
X169982163Y-76497506D01*
X170027327Y-76530699D01*
X170080654Y-76559067D01*
X170146293Y-76583682D01*
X170228389Y-76605620D01*
X170331091Y-76625954D01*
X170458546Y-76645758D01*
X170614899Y-76666107D01*
X170804300Y-76688074D01*
X171030893Y-76712734D01*
X171079583Y-76717929D01*
X171262921Y-76737610D01*
X171411084Y-76754124D01*
X171531009Y-76768595D01*
X171629638Y-76782147D01*
X171713910Y-76795901D01*
X171790763Y-76810983D01*
X171867138Y-76828516D01*
X171949973Y-76849622D01*
X172036984Y-76872927D01*
X172161187Y-76909833D01*
X172271118Y-76951049D01*
X172376224Y-77001558D01*
X172485952Y-77066344D01*
X172609748Y-77150389D01*
X172730583Y-77238817D01*
X172947431Y-77410649D01*
X173127401Y-77575520D01*
X173274322Y-77738091D01*
X173392021Y-77903023D01*
X173484329Y-78074978D01*
X173546313Y-78232000D01*
X173576790Y-78355450D01*
X173597087Y-78507360D01*
X173606874Y-78675017D01*
X173605817Y-78845709D01*
X173593585Y-79006723D01*
X173570118Y-79144216D01*
X173511897Y-79344795D01*
X173437259Y-79519545D01*
X173339637Y-79683807D01*
X173338406Y-79685620D01*
X173195656Y-79860170D01*
X173021069Y-80015083D01*
X172822580Y-80145227D01*
X172608123Y-80245470D01*
X172385632Y-80310680D01*
X172366066Y-80314545D01*
X172259896Y-80336772D01*
X172182634Y-80360045D01*
X172121150Y-80390377D01*
X172062309Y-80433779D01*
X172016072Y-80474780D01*
X171942163Y-80567151D01*
X171886795Y-80684620D01*
X171856307Y-80811748D01*
X171852373Y-80873336D01*
X171871312Y-80992546D01*
X171922893Y-81115051D01*
X171999972Y-81229688D01*
X172095405Y-81325290D01*
X172175375Y-81378120D01*
X172245001Y-81433581D01*
X172316085Y-81526575D01*
X172385469Y-81652555D01*
X172420350Y-81730847D01*
X172481722Y-81901990D01*
X172523254Y-82076487D01*
X172547001Y-82266186D01*
X172555016Y-82482933D01*
X172555029Y-82507667D01*
X172547752Y-82713435D01*
X172525412Y-82890793D01*
X172485590Y-83051731D01*
X172425868Y-83208240D01*
X172404360Y-83254763D01*
X172296141Y-83435995D01*
X172153433Y-83606112D01*
X171983782Y-83759018D01*
X171794734Y-83888617D01*
X171593835Y-83988811D01*
X171427072Y-84044363D01*
X171347600Y-84061044D01*
X171265737Y-84069100D01*
X171167538Y-84069288D01*
X171063839Y-84064021D01*
X170902145Y-84059727D01*
X170772247Y-84071674D01*
X170666009Y-84102052D01*
X170575293Y-84153048D01*
X170503931Y-84214621D01*
X170417671Y-84318358D01*
X170366052Y-84427560D01*
X170343525Y-84555506D01*
X170341544Y-84603167D01*
X170342103Y-84662569D01*
X170347879Y-84714753D01*
X170361769Y-84769340D01*
X170386673Y-84835950D01*
X170425490Y-84924204D01*
X170462021Y-85003005D01*
X170548950Y-85199864D01*
X170613139Y-85373694D01*
X170657285Y-85535308D01*
X170684087Y-85695515D01*
X170696243Y-85865126D01*
X170697653Y-85947250D01*
X170696702Y-86074508D01*
X170692002Y-86171439D01*
X170682260Y-86249979D01*
X170666189Y-86322064D01*
X170651904Y-86370583D01*
X170564252Y-86580080D01*
X170440642Y-86773029D01*
X170285090Y-86946812D01*
X170101614Y-87098812D01*
X169894230Y-87226414D01*
X169666954Y-87326999D01*
X169423805Y-87397952D01*
X169168798Y-87436655D01*
X169005250Y-87443305D01*
X168874637Y-87439998D01*
X168745138Y-87429887D01*
X168612834Y-87411802D01*
X168473803Y-87384572D01*
X168324127Y-87347029D01*
X168159884Y-87298001D01*
X167977154Y-87236319D01*
X167772018Y-87160812D01*
X167540554Y-87070312D01*
X167278844Y-86963648D01*
X166983833Y-86840017D01*
X166813450Y-86768054D01*
X166676874Y-86711025D01*
X166569001Y-86667194D01*
X166484726Y-86634824D01*
X166418944Y-86612176D01*
X166366550Y-86597514D01*
X166322441Y-86589099D01*
X166281510Y-86585195D01*
X166238654Y-86584063D01*
X166231719Y-86584025D01*
X166142446Y-86586670D01*
X166076469Y-86598441D01*
X166015010Y-86623796D01*
X165977719Y-86644342D01*
X165944897Y-86669478D01*
X165885706Y-86721209D01*
X165803640Y-86796122D01*
X165702194Y-86890809D01*
X165584862Y-87001858D01*
X165455140Y-87125858D01*
X165316521Y-87259400D01*
X165172501Y-87399073D01*
X165026574Y-87541466D01*
X164882234Y-87683169D01*
X164742976Y-87820771D01*
X164612296Y-87950862D01*
X164493687Y-88070031D01*
X164390644Y-88174868D01*
X164306661Y-88261963D01*
X164245234Y-88327904D01*
X164209857Y-88369281D01*
X164208825Y-88370657D01*
X164147191Y-88487298D01*
X164117362Y-88621003D01*
X164119714Y-88760476D01*
X164154628Y-88894416D01*
X164188969Y-88963500D01*
X164224363Y-89017176D01*
X164278868Y-89093912D01*
X164345194Y-89183674D01*
X164416052Y-89276428D01*
X164419611Y-89281000D01*
X164720903Y-89692133D01*
X165002604Y-90125577D01*
X165262433Y-90576203D01*
X165498109Y-91038884D01*
X165707354Y-91508491D01*
X165887885Y-91979896D01*
X166037423Y-92447972D01*
X166153688Y-92907590D01*
X166234399Y-93353622D01*
X166236168Y-93366167D01*
X166248651Y-93484374D01*
X166258718Y-93639979D01*
X166266347Y-93828116D01*
X166271515Y-94043916D01*
X166274201Y-94282514D01*
X166274382Y-94539041D01*
X166272035Y-94808631D01*
X166267138Y-95086417D01*
X166259669Y-95367530D01*
X166249606Y-95647104D01*
X166246918Y-95710773D01*
X166237697Y-95934355D01*
X166231683Y-96121800D01*
X166229592Y-96279233D01*
X166232136Y-96412777D01*
X166240033Y-96528555D01*
X166253995Y-96632692D01*
X166274738Y-96731311D01*
X166302977Y-96830536D01*
X166339426Y-96936490D01*
X166384801Y-97055297D01*
X166411784Y-97123250D01*
X166617096Y-97681228D01*
X166800893Y-98274017D01*
X166962760Y-98899728D01*
X167102284Y-99556473D01*
X167219050Y-100242363D01*
X167312646Y-100955511D01*
X167364082Y-101469105D01*
X167399102Y-101832887D01*
X167436814Y-102156613D01*
X167477509Y-102442491D01*
X167521478Y-102692727D01*
X167533442Y-102752026D01*
X167559100Y-102871722D01*
X167582992Y-102971370D01*
X167608608Y-103061994D01*
X167639438Y-103154621D01*
X167678972Y-103260276D01*
X167730700Y-103389986D01*
X167751675Y-103441500D01*
X167895568Y-103821017D01*
X168013332Y-104193951D01*
X168107694Y-104571434D01*
X168181381Y-104964600D01*
X168237121Y-105384582D01*
X168244283Y-105452333D01*
X168257763Y-105626265D01*
X168266634Y-105832354D01*
X168271017Y-106060690D01*
X168271029Y-106301364D01*
X168266789Y-106544463D01*
X168258417Y-106780077D01*
X168246032Y-106998296D01*
X168229751Y-107189209D01*
X168222696Y-107251500D01*
X168123431Y-107886691D01*
X167982666Y-108517360D01*
X167801193Y-109140830D01*
X167579805Y-109754427D01*
X167319295Y-110355471D01*
X167277391Y-110443349D01*
X167201423Y-110601986D01*
X167142666Y-110728557D01*
X167099214Y-110828767D01*
X167069162Y-110908321D01*
X167050607Y-110972927D01*
X167041642Y-111028289D01*
X167040365Y-111080113D01*
X167044869Y-111134105D01*
X167045380Y-111138348D01*
X167061993Y-111233024D01*
X167089782Y-111314110D01*
X167133632Y-111387582D01*
X167198429Y-111459418D01*
X167289059Y-111535594D01*
X167410406Y-111622087D01*
X167477045Y-111666432D01*
X167627336Y-111771214D01*
X167745816Y-111869527D01*
X167840410Y-111969508D01*
X167919040Y-112079292D01*
X167974544Y-112177264D01*
X168074566Y-112412095D01*
X168132775Y-112647936D01*
X168149549Y-112882360D01*
X168125270Y-113112939D01*
X168060315Y-113337243D01*
X167955066Y-113552843D01*
X167809900Y-113757312D01*
X167710412Y-113866963D01*
X167588767Y-113982266D01*
X167464942Y-114081082D01*
X167328028Y-114170873D01*
X167167118Y-114259103D01*
X167060874Y-114311369D01*
X166866739Y-114396772D01*
X166634672Y-114486413D01*
X166368729Y-114579138D01*
X166072966Y-114673795D01*
X165751438Y-114769227D01*
X165408203Y-114864283D01*
X165047316Y-114957806D01*
X164672834Y-115048644D01*
X164288812Y-115135642D01*
X163899306Y-115217646D01*
X163819417Y-115233682D01*
X163694344Y-115258396D01*
X163558287Y-115284974D01*
X163417610Y-115312206D01*
X163278674Y-115338882D01*
X163147844Y-115363792D01*
X163031481Y-115385726D01*
X162935948Y-115403474D01*
X162867608Y-115415826D01*
X162832825Y-115421571D01*
X162830086Y-115421833D01*
X162829100Y-115400872D01*
X162828129Y-115338809D01*
X162827175Y-115236878D01*
X162826240Y-115096310D01*
X162825325Y-114918336D01*
X162824433Y-114704191D01*
X162823565Y-114455105D01*
X162822723Y-114172311D01*
X162821909Y-113857040D01*
X162821124Y-113510526D01*
X162820370Y-113134000D01*
X162819650Y-112728695D01*
X162818964Y-112295842D01*
X162818314Y-111836674D01*
X162817703Y-111352422D01*
X162817132Y-110844320D01*
X162816603Y-110313599D01*
X162816118Y-109761491D01*
X162815677Y-109189229D01*
X162815284Y-108598045D01*
X162814940Y-107989170D01*
X162814647Y-107363837D01*
X162814406Y-106723279D01*
X162814219Y-106068727D01*
X162814089Y-105401413D01*
X162814016Y-104722570D01*
X162814000Y-104225867D01*
X162814000Y-93029900D01*
X162766957Y-92996950D01*
X162760567Y-92994415D01*
X162748102Y-92992012D01*
X162728471Y-92989738D01*
X162700584Y-92987588D01*
X162663350Y-92985560D01*
X162615680Y-92983650D01*
X162556484Y-92981854D01*
X162484670Y-92980170D01*
X162399150Y-92978593D01*
X162298832Y-92977120D01*
X162182628Y-92975748D01*
X162049445Y-92974473D01*
X161898196Y-92973292D01*
X161727788Y-92972201D01*
X161537133Y-92971197D01*
X161325140Y-92970277D01*
X161090718Y-92969436D01*
X160832778Y-92968671D01*
X160550230Y-92967980D01*
X160241983Y-92967358D01*
X159906947Y-92966802D01*
X159544032Y-92966308D01*
X159152148Y-92965874D01*
X158730205Y-92965495D01*
X158277113Y-92965168D01*
X157791780Y-92964890D01*
X157273118Y-92964657D01*
X156720037Y-92964466D01*
X156131445Y-92964313D01*
X155506252Y-92964195D01*
X154843370Y-92964108D01*
X154141707Y-92964049D01*
X153400173Y-92964014D01*
X152617678Y-92964000D01*
X152408218Y-92964000D01*
X151619826Y-92964002D01*
X150872655Y-92964012D01*
X150165593Y-92964034D01*
X149497527Y-92964072D01*
X148867346Y-92964130D01*
X148273936Y-92964214D01*
X147716187Y-92964326D01*
X147192985Y-92964472D01*
X146703218Y-92964657D01*
X146245774Y-92964883D01*
X145819541Y-92965156D01*
X145423406Y-92965480D01*
X145056258Y-92965859D01*
X144716983Y-92966298D01*
X144404470Y-92966801D01*
X144117607Y-92967373D01*
X143855281Y-92968017D01*
X143616379Y-92968738D01*
X143399791Y-92969540D01*
X143204402Y-92970428D01*
X143029102Y-92971406D01*
X142872778Y-92972479D01*
X142734317Y-92973650D01*
X142612608Y-92974925D01*
X142506538Y-92976306D01*
X142414994Y-92977800D01*
X142336865Y-92979410D01*
X142271039Y-92981140D01*
X142216402Y-92982995D01*
X142171843Y-92984979D01*
X142136250Y-92987096D01*
X142108510Y-92989352D01*
X142087511Y-92991749D01*
X142072141Y-92994294D01*
X142061287Y-92996989D01*
X142053837Y-92999839D01*
X142048680Y-93002848D01*
X142046553Y-93004463D01*
X141996583Y-93044926D01*
X141986000Y-104556171D01*
X141975417Y-116067417D01*
X141901333Y-116069796D01*
X141824223Y-116068993D01*
X141753167Y-116064125D01*
X141711847Y-116060226D01*
X141635070Y-116053544D01*
X141529578Y-116044643D01*
X141402115Y-116034088D01*
X141259422Y-116022444D01*
X141149917Y-116013612D01*
X140477772Y-115955762D01*
X139812343Y-115890776D01*
X139156970Y-115819159D01*
X138514988Y-115741413D01*
X137889735Y-115658040D01*
X137284548Y-115569545D01*
X136702766Y-115476429D01*
X136147725Y-115379196D01*
X135622763Y-115278348D01*
X135131218Y-115174388D01*
X134676426Y-115067819D01*
X134397750Y-114996228D01*
X134000753Y-114884145D01*
X133630358Y-114767283D01*
X133289151Y-114646677D01*
X132979717Y-114523360D01*
X132704641Y-114398370D01*
X132466509Y-114272740D01*
X132267907Y-114147506D01*
X132254849Y-114138280D01*
X132050587Y-113974343D01*
X131874838Y-113795299D01*
X131731321Y-113605856D01*
X131623754Y-113410724D01*
X131571885Y-113273417D01*
X131524542Y-113048704D01*
X131519116Y-112825609D01*
X131555204Y-112606911D01*
X131632406Y-112395392D01*
X131721580Y-112236145D01*
X131827812Y-112092941D01*
X131955240Y-111952492D01*
X132094698Y-111823100D01*
X132237021Y-111713068D01*
X132373042Y-111630696D01*
X132408879Y-111613662D01*
X132560573Y-111527864D01*
X132678389Y-111421199D01*
X132760580Y-111296753D01*
X132805402Y-111157610D01*
X132811107Y-111006856D01*
X132798226Y-110925747D01*
X132749527Y-110801477D01*
X132664694Y-110689678D01*
X132549570Y-110597340D01*
X132500494Y-110569521D01*
X132438568Y-110540877D01*
X132347668Y-110502672D01*
X132238771Y-110459352D01*
X132122853Y-110415361D01*
X132090583Y-110403511D01*
X131589589Y-110208637D01*
X131084912Y-109988440D01*
X130580538Y-109745515D01*
X130080455Y-109482463D01*
X129588650Y-109201880D01*
X129109109Y-108906366D01*
X128645820Y-108598517D01*
X128202768Y-108280933D01*
X127783942Y-107956210D01*
X127393328Y-107626948D01*
X127034913Y-107295745D01*
X126712683Y-106965198D01*
X126571578Y-106807000D01*
X126189447Y-106340195D01*
X125827242Y-105848452D01*
X125487329Y-105336327D01*
X125172073Y-104808376D01*
X124883843Y-104269154D01*
X124625003Y-103723217D01*
X124397919Y-103175122D01*
X124204959Y-102629423D01*
X124048489Y-102090678D01*
X123985074Y-101827116D01*
X123867599Y-101209660D01*
X123786640Y-100575576D01*
X123742168Y-99929603D01*
X123734153Y-99276481D01*
X123762567Y-98620949D01*
X123827380Y-97967746D01*
X123928564Y-97321612D01*
X124015331Y-96901000D01*
X124178552Y-96265643D01*
X124374596Y-95655818D01*
X124604494Y-95069103D01*
X124869279Y-94503075D01*
X125169981Y-93955311D01*
X125477386Y-93468170D01*
X125739223Y-93096353D01*
X126020786Y-92730022D01*
X126318810Y-92372174D01*
X126630032Y-92025804D01*
X126951186Y-91693907D01*
X127279010Y-91379477D01*
X127610237Y-91085511D01*
X127941604Y-90815003D01*
X128269846Y-90570948D01*
X128591700Y-90356343D01*
X128903899Y-90174182D01*
X129203181Y-90027459D01*
X129248630Y-90007903D01*
X129448279Y-89934203D01*
X129659693Y-89874630D01*
X129865355Y-89833704D01*
X129976320Y-89820185D01*
X130060393Y-89814306D01*
X130126586Y-89815183D01*
X130190010Y-89824924D01*
X130265775Y-89845640D01*
X130346385Y-89871852D01*
X130520298Y-89920529D01*
X130669237Y-89940154D01*
X130799430Y-89930285D01*
X130917105Y-89890481D01*
X131023917Y-89823819D01*
X131095473Y-89755029D01*
X131155963Y-89672556D01*
X131167801Y-89650946D01*
X131182441Y-89619595D01*
X131194381Y-89586870D01*
X131204194Y-89547555D01*
X131212454Y-89496439D01*
X131219734Y-89428308D01*
X131226608Y-89337950D01*
X131233648Y-89220152D01*
X131241429Y-89069700D01*
X131249048Y-88912341D01*
X131257033Y-88737766D01*
X131264356Y-88563939D01*
X131270718Y-88399003D01*
X131275824Y-88251101D01*
X131279376Y-88128375D01*
X131281078Y-88038968D01*
X131281135Y-88032167D01*
X131281216Y-87925161D01*
X131278536Y-87849934D01*
X131271368Y-87795944D01*
X131257984Y-87752650D01*
X131236657Y-87709510D01*
X131224873Y-87688828D01*
X131131667Y-87567206D01*
X131014639Y-87478578D01*
X130878077Y-87424283D01*
X130726268Y-87405661D01*
X130563498Y-87424051D01*
X130466550Y-87451925D01*
X130386013Y-87472587D01*
X130275828Y-87490646D01*
X130148658Y-87504938D01*
X130017163Y-87514298D01*
X129894005Y-87517562D01*
X129794000Y-87513761D01*
X129521255Y-87474258D01*
X129276907Y-87405571D01*
X129057109Y-87305947D01*
X128858017Y-87173637D01*
X128675786Y-87006889D01*
X128671939Y-87002821D01*
X128520872Y-86812502D01*
X128404073Y-86600316D01*
X128321910Y-86369749D01*
X128274748Y-86124287D01*
X128262954Y-85867417D01*
X128286895Y-85602624D01*
X128346938Y-85333395D01*
X128443449Y-85063216D01*
X128463184Y-85018164D01*
X128502270Y-84923365D01*
X128534785Y-84829912D01*
X128555710Y-84752841D01*
X128559917Y-84728298D01*
X128557313Y-84578653D01*
X128515737Y-84438098D01*
X128438494Y-84313621D01*
X128328892Y-84212208D01*
X128309372Y-84199100D01*
X128268857Y-84174033D01*
X128232236Y-84155741D01*
X128191471Y-84142692D01*
X128138528Y-84133349D01*
X128065370Y-84126180D01*
X127963961Y-84119649D01*
X127865071Y-84114276D01*
X127666916Y-84101698D01*
X127502566Y-84085815D01*
X127363514Y-84064769D01*
X127241255Y-84036702D01*
X127127286Y-83999754D01*
X127013101Y-83952066D01*
X126922459Y-83908264D01*
X126744246Y-83795188D01*
X126586902Y-83648790D01*
X126452899Y-83473875D01*
X126344708Y-83275247D01*
X126264801Y-83057711D01*
X126215649Y-82826070D01*
X126199724Y-82585131D01*
X126202005Y-82507667D01*
X126236103Y-82228048D01*
X126308675Y-81962890D01*
X126420683Y-81709814D01*
X126573090Y-81466444D01*
X126678342Y-81331234D01*
X126770134Y-81216186D01*
X126834948Y-81121330D01*
X126877232Y-81038493D01*
X126901434Y-80959501D01*
X126909586Y-80906238D01*
X126905760Y-80752556D01*
X126863339Y-80611407D01*
X126784881Y-80488141D01*
X126672942Y-80388110D01*
X126657012Y-80377689D01*
X126598420Y-80346452D01*
X126514680Y-80308900D01*
X126420944Y-80271685D01*
X126390273Y-80260568D01*
X126222345Y-80196589D01*
X126086449Y-80133138D01*
X125972701Y-80064824D01*
X125871216Y-79986257D01*
X125845764Y-79963618D01*
X125700637Y-79805554D01*
X125577049Y-79618874D01*
X125482097Y-79414759D01*
X125463347Y-79361344D01*
X125439190Y-79284632D01*
X125422379Y-79219772D01*
X125411631Y-79156049D01*
X125405667Y-79082748D01*
X125403205Y-78989154D01*
X125402965Y-78864552D01*
X125402991Y-78856417D01*
X125403956Y-78730451D01*
X125406826Y-78635900D01*
X125413043Y-78561847D01*
X125424046Y-78497374D01*
X125441275Y-78431566D01*
X125466170Y-78353506D01*
X125471402Y-78337833D01*
X125577672Y-78077172D01*
X125714455Y-77842550D01*
X125886069Y-77626751D01*
X125916405Y-77594165D01*
X126075978Y-77442931D01*
X126252886Y-77308430D01*
X126450330Y-77189418D01*
X126671510Y-77084653D01*
X126919625Y-76992895D01*
X127197877Y-76912900D01*
X127509465Y-76843428D01*
X127857591Y-76783236D01*
X128090964Y-76750322D01*
X128215383Y-76732785D01*
X128333642Y-76713795D01*
X128435463Y-76695167D01*
X128510568Y-76678717D01*
X128534583Y-76671975D01*
X128673752Y-76607065D01*
X128782610Y-76512872D01*
X128859945Y-76390860D01*
X128904542Y-76242495D01*
X128907898Y-76221167D01*
X128910582Y-76083003D01*
X128876157Y-75954514D01*
X128802681Y-75830292D01*
X128741574Y-75758247D01*
X128697074Y-75710593D01*
X128665566Y-75672025D01*
X128645480Y-75634378D01*
X128635250Y-75589492D01*
X128633304Y-75529203D01*
X128638076Y-75445351D01*
X128647997Y-75329772D01*
X128651552Y-75289833D01*
X128673775Y-75042219D01*
X128693581Y-74831011D01*
X128711874Y-74650410D01*
X128729554Y-74494620D01*
X128747525Y-74357842D01*
X128766688Y-74234280D01*
X128787945Y-74118134D01*
X128812199Y-74003609D01*
X128840351Y-73884905D01*
X128873303Y-73756226D01*
X128911959Y-73611774D01*
X128913582Y-73605786D01*
X129052577Y-73108926D01*
X129191140Y-72646788D01*
X129332021Y-72211881D01*
X129477968Y-71796712D01*
X129631729Y-71393791D01*
X129796055Y-70995626D01*
X129973694Y-70594725D01*
X130167394Y-70183597D01*
X130175191Y-70167500D01*
X130255912Y-70001586D01*
X130325928Y-69857468D01*
X130386289Y-69730873D01*
X130438046Y-69617527D01*
X130482248Y-69513156D01*
X130519947Y-69413488D01*
X130552193Y-69314247D01*
X130580035Y-69211161D01*
X130604524Y-69099957D01*
X130626712Y-68976360D01*
X130647647Y-68836097D01*
X130668381Y-68674894D01*
X130689963Y-68488478D01*
X130713445Y-68272575D01*
X130739876Y-68022912D01*
X130768256Y-67754500D01*
X130872570Y-66833754D01*
X130985731Y-65951151D01*
X131107676Y-65106972D01*
X131238340Y-64301496D01*
X131377658Y-63535003D01*
X131525566Y-62807771D01*
X131682001Y-62120080D01*
X131846897Y-61472210D01*
X132020190Y-60864439D01*
X132201816Y-60297049D01*
X132391710Y-59770317D01*
X132589808Y-59284524D01*
X132796046Y-58839949D01*
X132842462Y-58747784D01*
X133060623Y-58349036D01*
X133287041Y-57990698D01*
X133522939Y-57671437D01*
X133769542Y-57389918D01*
X134028070Y-57144807D01*
X134299749Y-56934770D01*
X134585799Y-56758472D01*
X134735973Y-56681902D01*
X134982183Y-56577316D01*
X135222857Y-56502744D01*
X135468630Y-56456124D01*
X135730134Y-56435394D01*
X135995833Y-56437501D01*
X136291071Y-56458599D01*
X136590490Y-56497650D01*
X136895536Y-56555415D01*
X137207657Y-56632656D01*
X137528297Y-56730136D01*
X137858904Y-56848616D01*
X138200923Y-56988858D01*
X138555802Y-57151625D01*
X138924986Y-57337677D01*
X139309921Y-57547777D01*
X139712055Y-57782688D01*
X140132834Y-58043170D01*
X140573703Y-58329986D01*
X141036109Y-58643898D01*
X141521498Y-58985667D01*
X142031317Y-59356056D01*
X142567013Y-59755827D01*
X143130030Y-60185741D01*
X143171333Y-60217626D01*
X143330302Y-60338548D01*
X143462084Y-60434069D01*
X143571256Y-60506775D01*
X143662395Y-60559250D01*
X143740078Y-60594080D01*
X143808881Y-60613850D01*
X143873382Y-60621144D01*
X143886113Y-60621333D01*
X143936782Y-60617682D01*
X144020769Y-60607519D01*
X144129763Y-60592028D01*
X144255456Y-60572394D01*
X144389536Y-60549802D01*
X144396770Y-60548535D01*
X145093295Y-60435247D01*
X145778255Y-60342327D01*
X146459882Y-60269144D01*
X147146409Y-60215066D01*
X147846071Y-60179461D01*
X148567100Y-60161696D01*
X149317729Y-60161140D01*
X149426083Y-60162405D01*
X149861167Y-60170176D01*
X150269895Y-60182062D01*
X150659945Y-60198686D01*
X151038994Y-60220669D01*
X151414719Y-60248636D01*
X151794796Y-60283209D01*
X152186903Y-60325010D01*
X152598716Y-60374663D01*
X153037912Y-60432789D01*
X153416000Y-60486078D01*
X153644262Y-60518295D01*
X153835278Y-60543444D01*
X153993507Y-60561701D01*
X154123413Y-60573241D01*
X154229456Y-60578239D01*
X154316100Y-60576872D01*
X154387804Y-60569314D01*
X154449031Y-60555742D01*
X154504243Y-60536330D01*
X154520064Y-60529500D01*
X154589688Y-60493167D01*
X154680768Y-60436646D01*
X154794908Y-60358762D01*
X154933715Y-60258340D01*
X155098793Y-60134206D01*
X155291749Y-59985186D01*
X155514186Y-59810104D01*
X155638500Y-59711197D01*
X155956719Y-59458360D01*
X156244783Y-59231947D01*
X156504516Y-59030642D01*
X156737741Y-58853130D01*
X156946282Y-58698096D01*
X157131965Y-58564226D01*
X157296612Y-58450203D01*
X157442047Y-58354713D01*
X157570096Y-58276441D01*
X157682582Y-58214072D01*
X157781329Y-58166291D01*
X157781503Y-58166214D01*
X157835597Y-58137435D01*
X157913788Y-58089585D01*
X158006264Y-58028936D01*
X158103215Y-57961759D01*
X158118889Y-57950534D01*
X158553754Y-57657744D01*
X159006066Y-57391810D01*
X159470889Y-57154829D01*
X159943284Y-56948902D01*
X160418316Y-56776126D01*
X160891045Y-56638602D01*
X161356536Y-56538428D01*
X161492916Y-56516141D01*
X161737467Y-56483294D01*
X161980975Y-56458319D01*
X162216708Y-56441475D01*
X162437934Y-56433024D01*
X162637923Y-56433224D01*
X162637923Y-56433224D01*
G37*
X162637923Y-56433224D02*
X162809943Y-56442336D01*
X162944430Y-56460072D01*
X163113680Y-56498417D01*
X163270175Y-56547720D01*
X163419334Y-56611307D01*
X163566576Y-56692502D01*
X163717319Y-56794629D01*
X163876982Y-56921012D01*
X164050984Y-57074977D01*
X164239216Y-57254432D01*
X164456578Y-57480789D01*
X164660575Y-57722069D01*
X164852958Y-57981453D01*
X165035478Y-58262124D01*
X165209886Y-58567263D01*
X165377933Y-58900053D01*
X165541369Y-59263675D01*
X165701945Y-59661312D01*
X165861413Y-60096146D01*
X165957855Y-60377917D01*
X166139209Y-60945737D01*
X166311005Y-61535676D01*
X166473701Y-62149937D01*
X166627754Y-62790728D01*
X166773621Y-63460254D01*
X166911760Y-64160722D01*
X167042626Y-64894336D01*
X167166679Y-65663303D01*
X167284374Y-66469829D01*
X167396169Y-67316121D01*
X167396737Y-67320635D01*
X167431240Y-67592118D01*
X167462196Y-67827807D01*
X167490656Y-68033991D01*
X167517673Y-68216958D01*
X167544303Y-68382998D01*
X167571596Y-68538399D01*
X167600607Y-68689450D01*
X167632389Y-68842440D01*
X167667996Y-69003656D01*
X167706908Y-69172667D01*
X167745612Y-69329522D01*
X167782782Y-69456646D01*
X167823174Y-69566172D01*
X167871547Y-69670232D01*
X167932656Y-69780958D01*
X167969767Y-69843095D01*
X168080698Y-70034761D01*
X168201436Y-70259688D01*
X168328808Y-70510846D01*
X168459635Y-70781205D01*
X168590742Y-71063732D01*
X168718953Y-71351397D01*
X168841091Y-71637170D01*
X168953980Y-71914019D01*
X169054443Y-72174914D01*
X169139305Y-72412824D01*
X169163396Y-72485250D01*
X169304720Y-72962278D01*
X169428670Y-73472496D01*
X169535446Y-74017071D01*
X169625254Y-74597167D01*
X169698296Y-75213953D01*
X169754776Y-75868595D01*
X169755767Y-75882500D01*
X169767910Y-76030199D01*
X169781990Y-76143576D01*
X169800184Y-76230641D01*
X169824668Y-76299403D01*
X169857619Y-76357873D01*
X169899740Y-76412344D01*
X169941017Y-76458412D01*
X169982163Y-76497506D01*
X170027327Y-76530699D01*
X170080654Y-76559067D01*
X170146293Y-76583682D01*
X170228389Y-76605620D01*
X170331091Y-76625954D01*
X170458546Y-76645758D01*
X170614899Y-76666107D01*
X170804300Y-76688074D01*
X171030893Y-76712734D01*
X171079583Y-76717929D01*
X171262921Y-76737610D01*
X171411084Y-76754124D01*
X171531009Y-76768595D01*
X171629638Y-76782147D01*
X171713910Y-76795901D01*
X171790763Y-76810983D01*
X171867138Y-76828516D01*
X171949973Y-76849622D01*
X172036984Y-76872927D01*
X172161187Y-76909833D01*
X172271118Y-76951049D01*
X172376224Y-77001558D01*
X172485952Y-77066344D01*
X172609748Y-77150389D01*
X172730583Y-77238817D01*
X172947431Y-77410649D01*
X173127401Y-77575520D01*
X173274322Y-77738091D01*
X173392021Y-77903023D01*
X173484329Y-78074978D01*
X173546313Y-78232000D01*
X173576790Y-78355450D01*
X173597087Y-78507360D01*
X173606874Y-78675017D01*
X173605817Y-78845709D01*
X173593585Y-79006723D01*
X173570118Y-79144216D01*
X173511897Y-79344795D01*
X173437259Y-79519545D01*
X173339637Y-79683807D01*
X173338406Y-79685620D01*
X173195656Y-79860170D01*
X173021069Y-80015083D01*
X172822580Y-80145227D01*
X172608123Y-80245470D01*
X172385632Y-80310680D01*
X172366066Y-80314545D01*
X172259896Y-80336772D01*
X172182634Y-80360045D01*
X172121150Y-80390377D01*
X172062309Y-80433779D01*
X172016072Y-80474780D01*
X171942163Y-80567151D01*
X171886795Y-80684620D01*
X171856307Y-80811748D01*
X171852373Y-80873336D01*
X171871312Y-80992546D01*
X171922893Y-81115051D01*
X171999972Y-81229688D01*
X172095405Y-81325290D01*
X172175375Y-81378120D01*
X172245001Y-81433581D01*
X172316085Y-81526575D01*
X172385469Y-81652555D01*
X172420350Y-81730847D01*
X172481722Y-81901990D01*
X172523254Y-82076487D01*
X172547001Y-82266186D01*
X172555016Y-82482933D01*
X172555029Y-82507667D01*
X172547752Y-82713435D01*
X172525412Y-82890793D01*
X172485590Y-83051731D01*
X172425868Y-83208240D01*
X172404360Y-83254763D01*
X172296141Y-83435995D01*
X172153433Y-83606112D01*
X171983782Y-83759018D01*
X171794734Y-83888617D01*
X171593835Y-83988811D01*
X171427072Y-84044363D01*
X171347600Y-84061044D01*
X171265737Y-84069100D01*
X171167538Y-84069288D01*
X171063839Y-84064021D01*
X170902145Y-84059727D01*
X170772247Y-84071674D01*
X170666009Y-84102052D01*
X170575293Y-84153048D01*
X170503931Y-84214621D01*
X170417671Y-84318358D01*
X170366052Y-84427560D01*
X170343525Y-84555506D01*
X170341544Y-84603167D01*
X170342103Y-84662569D01*
X170347879Y-84714753D01*
X170361769Y-84769340D01*
X170386673Y-84835950D01*
X170425490Y-84924204D01*
X170462021Y-85003005D01*
X170548950Y-85199864D01*
X170613139Y-85373694D01*
X170657285Y-85535308D01*
X170684087Y-85695515D01*
X170696243Y-85865126D01*
X170697653Y-85947250D01*
X170696702Y-86074508D01*
X170692002Y-86171439D01*
X170682260Y-86249979D01*
X170666189Y-86322064D01*
X170651904Y-86370583D01*
X170564252Y-86580080D01*
X170440642Y-86773029D01*
X170285090Y-86946812D01*
X170101614Y-87098812D01*
X169894230Y-87226414D01*
X169666954Y-87326999D01*
X169423805Y-87397952D01*
X169168798Y-87436655D01*
X169005250Y-87443305D01*
X168874637Y-87439998D01*
X168745138Y-87429887D01*
X168612834Y-87411802D01*
X168473803Y-87384572D01*
X168324127Y-87347029D01*
X168159884Y-87298001D01*
X167977154Y-87236319D01*
X167772018Y-87160812D01*
X167540554Y-87070312D01*
X167278844Y-86963648D01*
X166983833Y-86840017D01*
X166813450Y-86768054D01*
X166676874Y-86711025D01*
X166569001Y-86667194D01*
X166484726Y-86634824D01*
X166418944Y-86612176D01*
X166366550Y-86597514D01*
X166322441Y-86589099D01*
X166281510Y-86585195D01*
X166238654Y-86584063D01*
X166231719Y-86584025D01*
X166142446Y-86586670D01*
X166076469Y-86598441D01*
X166015010Y-86623796D01*
X165977719Y-86644342D01*
X165944897Y-86669478D01*
X165885706Y-86721209D01*
X165803640Y-86796122D01*
X165702194Y-86890809D01*
X165584862Y-87001858D01*
X165455140Y-87125858D01*
X165316521Y-87259400D01*
X165172501Y-87399073D01*
X165026574Y-87541466D01*
X164882234Y-87683169D01*
X164742976Y-87820771D01*
X164612296Y-87950862D01*
X164493687Y-88070031D01*
X164390644Y-88174868D01*
X164306661Y-88261963D01*
X164245234Y-88327904D01*
X164209857Y-88369281D01*
X164208825Y-88370657D01*
X164147191Y-88487298D01*
X164117362Y-88621003D01*
X164119714Y-88760476D01*
X164154628Y-88894416D01*
X164188969Y-88963500D01*
X164224363Y-89017176D01*
X164278868Y-89093912D01*
X164345194Y-89183674D01*
X164416052Y-89276428D01*
X164419611Y-89281000D01*
X164720903Y-89692133D01*
X165002604Y-90125577D01*
X165262433Y-90576203D01*
X165498109Y-91038884D01*
X165707354Y-91508491D01*
X165887885Y-91979896D01*
X166037423Y-92447972D01*
X166153688Y-92907590D01*
X166234399Y-93353622D01*
X166236168Y-93366167D01*
X166248651Y-93484374D01*
X166258718Y-93639979D01*
X166266347Y-93828116D01*
X166271515Y-94043916D01*
X166274201Y-94282514D01*
X166274382Y-94539041D01*
X166272035Y-94808631D01*
X166267138Y-95086417D01*
X166259669Y-95367530D01*
X166249606Y-95647104D01*
X166246918Y-95710773D01*
X166237697Y-95934355D01*
X166231683Y-96121800D01*
X166229592Y-96279233D01*
X166232136Y-96412777D01*
X166240033Y-96528555D01*
X166253995Y-96632692D01*
X166274738Y-96731311D01*
X166302977Y-96830536D01*
X166339426Y-96936490D01*
X166384801Y-97055297D01*
X166411784Y-97123250D01*
X166617096Y-97681228D01*
X166800893Y-98274017D01*
X166962760Y-98899728D01*
X167102284Y-99556473D01*
X167219050Y-100242363D01*
X167312646Y-100955511D01*
X167364082Y-101469105D01*
X167399102Y-101832887D01*
X167436814Y-102156613D01*
X167477509Y-102442491D01*
X167521478Y-102692727D01*
X167533442Y-102752026D01*
X167559100Y-102871722D01*
X167582992Y-102971370D01*
X167608608Y-103061994D01*
X167639438Y-103154621D01*
X167678972Y-103260276D01*
X167730700Y-103389986D01*
X167751675Y-103441500D01*
X167895568Y-103821017D01*
X168013332Y-104193951D01*
X168107694Y-104571434D01*
X168181381Y-104964600D01*
X168237121Y-105384582D01*
X168244283Y-105452333D01*
X168257763Y-105626265D01*
X168266634Y-105832354D01*
X168271017Y-106060690D01*
X168271029Y-106301364D01*
X168266789Y-106544463D01*
X168258417Y-106780077D01*
X168246032Y-106998296D01*
X168229751Y-107189209D01*
X168222696Y-107251500D01*
X168123431Y-107886691D01*
X167982666Y-108517360D01*
X167801193Y-109140830D01*
X167579805Y-109754427D01*
X167319295Y-110355471D01*
X167277391Y-110443349D01*
X167201423Y-110601986D01*
X167142666Y-110728557D01*
X167099214Y-110828767D01*
X167069162Y-110908321D01*
X167050607Y-110972927D01*
X167041642Y-111028289D01*
X167040365Y-111080113D01*
X167044869Y-111134105D01*
X167045380Y-111138348D01*
X167061993Y-111233024D01*
X167089782Y-111314110D01*
X167133632Y-111387582D01*
X167198429Y-111459418D01*
X167289059Y-111535594D01*
X167410406Y-111622087D01*
X167477045Y-111666432D01*
X167627336Y-111771214D01*
X167745816Y-111869527D01*
X167840410Y-111969508D01*
X167919040Y-112079292D01*
X167974544Y-112177264D01*
X168074566Y-112412095D01*
X168132775Y-112647936D01*
X168149549Y-112882360D01*
X168125270Y-113112939D01*
X168060315Y-113337243D01*
X167955066Y-113552843D01*
X167809900Y-113757312D01*
X167710412Y-113866963D01*
X167588767Y-113982266D01*
X167464942Y-114081082D01*
X167328028Y-114170873D01*
X167167118Y-114259103D01*
X167060874Y-114311369D01*
X166866739Y-114396772D01*
X166634672Y-114486413D01*
X166368729Y-114579138D01*
X166072966Y-114673795D01*
X165751438Y-114769227D01*
X165408203Y-114864283D01*
X165047316Y-114957806D01*
X164672834Y-115048644D01*
X164288812Y-115135642D01*
X163899306Y-115217646D01*
X163819417Y-115233682D01*
X163694344Y-115258396D01*
X163558287Y-115284974D01*
X163417610Y-115312206D01*
X163278674Y-115338882D01*
X163147844Y-115363792D01*
X163031481Y-115385726D01*
X162935948Y-115403474D01*
X162867608Y-115415826D01*
X162832825Y-115421571D01*
X162830086Y-115421833D01*
X162829100Y-115400872D01*
X162828129Y-115338809D01*
X162827175Y-115236878D01*
X162826240Y-115096310D01*
X162825325Y-114918336D01*
X162824433Y-114704191D01*
X162823565Y-114455105D01*
X162822723Y-114172311D01*
X162821909Y-113857040D01*
X162821124Y-113510526D01*
X162820370Y-113134000D01*
X162819650Y-112728695D01*
X162818964Y-112295842D01*
X162818314Y-111836674D01*
X162817703Y-111352422D01*
X162817132Y-110844320D01*
X162816603Y-110313599D01*
X162816118Y-109761491D01*
X162815677Y-109189229D01*
X162815284Y-108598045D01*
X162814940Y-107989170D01*
X162814647Y-107363837D01*
X162814406Y-106723279D01*
X162814219Y-106068727D01*
X162814089Y-105401413D01*
X162814016Y-104722570D01*
X162814000Y-104225867D01*
X162814000Y-93029900D01*
X162766957Y-92996950D01*
X162760567Y-92994415D01*
X162748102Y-92992012D01*
X162728471Y-92989738D01*
X162700584Y-92987588D01*
X162663350Y-92985560D01*
X162615680Y-92983650D01*
X162556484Y-92981854D01*
X162484670Y-92980170D01*
X162399150Y-92978593D01*
X162298832Y-92977120D01*
X162182628Y-92975748D01*
X162049445Y-92974473D01*
X161898196Y-92973292D01*
X161727788Y-92972201D01*
X161537133Y-92971197D01*
X161325140Y-92970277D01*
X161090718Y-92969436D01*
X160832778Y-92968671D01*
X160550230Y-92967980D01*
X160241983Y-92967358D01*
X159906947Y-92966802D01*
X159544032Y-92966308D01*
X159152148Y-92965874D01*
X158730205Y-92965495D01*
X158277113Y-92965168D01*
X157791780Y-92964890D01*
X157273118Y-92964657D01*
X156720037Y-92964466D01*
X156131445Y-92964313D01*
X155506252Y-92964195D01*
X154843370Y-92964108D01*
X154141707Y-92964049D01*
X153400173Y-92964014D01*
X152617678Y-92964000D01*
X152408218Y-92964000D01*
X151619826Y-92964002D01*
X150872655Y-92964012D01*
X150165593Y-92964034D01*
X149497527Y-92964072D01*
X148867346Y-92964130D01*
X148273936Y-92964214D01*
X147716187Y-92964326D01*
X147192985Y-92964472D01*
X146703218Y-92964657D01*
X146245774Y-92964883D01*
X145819541Y-92965156D01*
X145423406Y-92965480D01*
X145056258Y-92965859D01*
X144716983Y-92966298D01*
X144404470Y-92966801D01*
X144117607Y-92967373D01*
X143855281Y-92968017D01*
X143616379Y-92968738D01*
X143399791Y-92969540D01*
X143204402Y-92970428D01*
X143029102Y-92971406D01*
X142872778Y-92972479D01*
X142734317Y-92973650D01*
X142612608Y-92974925D01*
X142506538Y-92976306D01*
X142414994Y-92977800D01*
X142336865Y-92979410D01*
X142271039Y-92981140D01*
X142216402Y-92982995D01*
X142171843Y-92984979D01*
X142136250Y-92987096D01*
X142108510Y-92989352D01*
X142087511Y-92991749D01*
X142072141Y-92994294D01*
X142061287Y-92996989D01*
X142053837Y-92999839D01*
X142048680Y-93002848D01*
X142046553Y-93004463D01*
X141996583Y-93044926D01*
X141986000Y-104556171D01*
X141975417Y-116067417D01*
X141901333Y-116069796D01*
X141824223Y-116068993D01*
X141753167Y-116064125D01*
X141711847Y-116060226D01*
X141635070Y-116053544D01*
X141529578Y-116044643D01*
X141402115Y-116034088D01*
X141259422Y-116022444D01*
X141149917Y-116013612D01*
X140477772Y-115955762D01*
X139812343Y-115890776D01*
X139156970Y-115819159D01*
X138514988Y-115741413D01*
X137889735Y-115658040D01*
X137284548Y-115569545D01*
X136702766Y-115476429D01*
X136147725Y-115379196D01*
X135622763Y-115278348D01*
X135131218Y-115174388D01*
X134676426Y-115067819D01*
X134397750Y-114996228D01*
X134000753Y-114884145D01*
X133630358Y-114767283D01*
X133289151Y-114646677D01*
X132979717Y-114523360D01*
X132704641Y-114398370D01*
X132466509Y-114272740D01*
X132267907Y-114147506D01*
X132254849Y-114138280D01*
X132050587Y-113974343D01*
X131874838Y-113795299D01*
X131731321Y-113605856D01*
X131623754Y-113410724D01*
X131571885Y-113273417D01*
X131524542Y-113048704D01*
X131519116Y-112825609D01*
X131555204Y-112606911D01*
X131632406Y-112395392D01*
X131721580Y-112236145D01*
X131827812Y-112092941D01*
X131955240Y-111952492D01*
X132094698Y-111823100D01*
X132237021Y-111713068D01*
X132373042Y-111630696D01*
X132408879Y-111613662D01*
X132560573Y-111527864D01*
X132678389Y-111421199D01*
X132760580Y-111296753D01*
X132805402Y-111157610D01*
X132811107Y-111006856D01*
X132798226Y-110925747D01*
X132749527Y-110801477D01*
X132664694Y-110689678D01*
X132549570Y-110597340D01*
X132500494Y-110569521D01*
X132438568Y-110540877D01*
X132347668Y-110502672D01*
X132238771Y-110459352D01*
X132122853Y-110415361D01*
X132090583Y-110403511D01*
X131589589Y-110208637D01*
X131084912Y-109988440D01*
X130580538Y-109745515D01*
X130080455Y-109482463D01*
X129588650Y-109201880D01*
X129109109Y-108906366D01*
X128645820Y-108598517D01*
X128202768Y-108280933D01*
X127783942Y-107956210D01*
X127393328Y-107626948D01*
X127034913Y-107295745D01*
X126712683Y-106965198D01*
X126571578Y-106807000D01*
X126189447Y-106340195D01*
X125827242Y-105848452D01*
X125487329Y-105336327D01*
X125172073Y-104808376D01*
X124883843Y-104269154D01*
X124625003Y-103723217D01*
X124397919Y-103175122D01*
X124204959Y-102629423D01*
X124048489Y-102090678D01*
X123985074Y-101827116D01*
X123867599Y-101209660D01*
X123786640Y-100575576D01*
X123742168Y-99929603D01*
X123734153Y-99276481D01*
X123762567Y-98620949D01*
X123827380Y-97967746D01*
X123928564Y-97321612D01*
X124015331Y-96901000D01*
X124178552Y-96265643D01*
X124374596Y-95655818D01*
X124604494Y-95069103D01*
X124869279Y-94503075D01*
X125169981Y-93955311D01*
X125477386Y-93468170D01*
X125739223Y-93096353D01*
X126020786Y-92730022D01*
X126318810Y-92372174D01*
X126630032Y-92025804D01*
X126951186Y-91693907D01*
X127279010Y-91379477D01*
X127610237Y-91085511D01*
X127941604Y-90815003D01*
X128269846Y-90570948D01*
X128591700Y-90356343D01*
X128903899Y-90174182D01*
X129203181Y-90027459D01*
X129248630Y-90007903D01*
X129448279Y-89934203D01*
X129659693Y-89874630D01*
X129865355Y-89833704D01*
X129976320Y-89820185D01*
X130060393Y-89814306D01*
X130126586Y-89815183D01*
X130190010Y-89824924D01*
X130265775Y-89845640D01*
X130346385Y-89871852D01*
X130520298Y-89920529D01*
X130669237Y-89940154D01*
X130799430Y-89930285D01*
X130917105Y-89890481D01*
X131023917Y-89823819D01*
X131095473Y-89755029D01*
X131155963Y-89672556D01*
X131167801Y-89650946D01*
X131182441Y-89619595D01*
X131194381Y-89586870D01*
X131204194Y-89547555D01*
X131212454Y-89496439D01*
X131219734Y-89428308D01*
X131226608Y-89337950D01*
X131233648Y-89220152D01*
X131241429Y-89069700D01*
X131249048Y-88912341D01*
X131257033Y-88737766D01*
X131264356Y-88563939D01*
X131270718Y-88399003D01*
X131275824Y-88251101D01*
X131279376Y-88128375D01*
X131281078Y-88038968D01*
X131281135Y-88032167D01*
X131281216Y-87925161D01*
X131278536Y-87849934D01*
X131271368Y-87795944D01*
X131257984Y-87752650D01*
X131236657Y-87709510D01*
X131224873Y-87688828D01*
X131131667Y-87567206D01*
X131014639Y-87478578D01*
X130878077Y-87424283D01*
X130726268Y-87405661D01*
X130563498Y-87424051D01*
X130466550Y-87451925D01*
X130386013Y-87472587D01*
X130275828Y-87490646D01*
X130148658Y-87504938D01*
X130017163Y-87514298D01*
X129894005Y-87517562D01*
X129794000Y-87513761D01*
X129521255Y-87474258D01*
X129276907Y-87405571D01*
X129057109Y-87305947D01*
X128858017Y-87173637D01*
X128675786Y-87006889D01*
X128671939Y-87002821D01*
X128520872Y-86812502D01*
X128404073Y-86600316D01*
X128321910Y-86369749D01*
X128274748Y-86124287D01*
X128262954Y-85867417D01*
X128286895Y-85602624D01*
X128346938Y-85333395D01*
X128443449Y-85063216D01*
X128463184Y-85018164D01*
X128502270Y-84923365D01*
X128534785Y-84829912D01*
X128555710Y-84752841D01*
X128559917Y-84728298D01*
X128557313Y-84578653D01*
X128515737Y-84438098D01*
X128438494Y-84313621D01*
X128328892Y-84212208D01*
X128309372Y-84199100D01*
X128268857Y-84174033D01*
X128232236Y-84155741D01*
X128191471Y-84142692D01*
X128138528Y-84133349D01*
X128065370Y-84126180D01*
X127963961Y-84119649D01*
X127865071Y-84114276D01*
X127666916Y-84101698D01*
X127502566Y-84085815D01*
X127363514Y-84064769D01*
X127241255Y-84036702D01*
X127127286Y-83999754D01*
X127013101Y-83952066D01*
X126922459Y-83908264D01*
X126744246Y-83795188D01*
X126586902Y-83648790D01*
X126452899Y-83473875D01*
X126344708Y-83275247D01*
X126264801Y-83057711D01*
X126215649Y-82826070D01*
X126199724Y-82585131D01*
X126202005Y-82507667D01*
X126236103Y-82228048D01*
X126308675Y-81962890D01*
X126420683Y-81709814D01*
X126573090Y-81466444D01*
X126678342Y-81331234D01*
X126770134Y-81216186D01*
X126834948Y-81121330D01*
X126877232Y-81038493D01*
X126901434Y-80959501D01*
X126909586Y-80906238D01*
X126905760Y-80752556D01*
X126863339Y-80611407D01*
X126784881Y-80488141D01*
X126672942Y-80388110D01*
X126657012Y-80377689D01*
X126598420Y-80346452D01*
X126514680Y-80308900D01*
X126420944Y-80271685D01*
X126390273Y-80260568D01*
X126222345Y-80196589D01*
X126086449Y-80133138D01*
X125972701Y-80064824D01*
X125871216Y-79986257D01*
X125845764Y-79963618D01*
X125700637Y-79805554D01*
X125577049Y-79618874D01*
X125482097Y-79414759D01*
X125463347Y-79361344D01*
X125439190Y-79284632D01*
X125422379Y-79219772D01*
X125411631Y-79156049D01*
X125405667Y-79082748D01*
X125403205Y-78989154D01*
X125402965Y-78864552D01*
X125402991Y-78856417D01*
X125403956Y-78730451D01*
X125406826Y-78635900D01*
X125413043Y-78561847D01*
X125424046Y-78497374D01*
X125441275Y-78431566D01*
X125466170Y-78353506D01*
X125471402Y-78337833D01*
X125577672Y-78077172D01*
X125714455Y-77842550D01*
X125886069Y-77626751D01*
X125916405Y-77594165D01*
X126075978Y-77442931D01*
X126252886Y-77308430D01*
X126450330Y-77189418D01*
X126671510Y-77084653D01*
X126919625Y-76992895D01*
X127197877Y-76912900D01*
X127509465Y-76843428D01*
X127857591Y-76783236D01*
X128090964Y-76750322D01*
X128215383Y-76732785D01*
X128333642Y-76713795D01*
X128435463Y-76695167D01*
X128510568Y-76678717D01*
X128534583Y-76671975D01*
X128673752Y-76607065D01*
X128782610Y-76512872D01*
X128859945Y-76390860D01*
X128904542Y-76242495D01*
X128907898Y-76221167D01*
X128910582Y-76083003D01*
X128876157Y-75954514D01*
X128802681Y-75830292D01*
X128741574Y-75758247D01*
X128697074Y-75710593D01*
X128665566Y-75672025D01*
X128645480Y-75634378D01*
X128635250Y-75589492D01*
X128633304Y-75529203D01*
X128638076Y-75445351D01*
X128647997Y-75329772D01*
X128651552Y-75289833D01*
X128673775Y-75042219D01*
X128693581Y-74831011D01*
X128711874Y-74650410D01*
X128729554Y-74494620D01*
X128747525Y-74357842D01*
X128766688Y-74234280D01*
X128787945Y-74118134D01*
X128812199Y-74003609D01*
X128840351Y-73884905D01*
X128873303Y-73756226D01*
X128911959Y-73611774D01*
X128913582Y-73605786D01*
X129052577Y-73108926D01*
X129191140Y-72646788D01*
X129332021Y-72211881D01*
X129477968Y-71796712D01*
X129631729Y-71393791D01*
X129796055Y-70995626D01*
X129973694Y-70594725D01*
X130167394Y-70183597D01*
X130175191Y-70167500D01*
X130255912Y-70001586D01*
X130325928Y-69857468D01*
X130386289Y-69730873D01*
X130438046Y-69617527D01*
X130482248Y-69513156D01*
X130519947Y-69413488D01*
X130552193Y-69314247D01*
X130580035Y-69211161D01*
X130604524Y-69099957D01*
X130626712Y-68976360D01*
X130647647Y-68836097D01*
X130668381Y-68674894D01*
X130689963Y-68488478D01*
X130713445Y-68272575D01*
X130739876Y-68022912D01*
X130768256Y-67754500D01*
X130872570Y-66833754D01*
X130985731Y-65951151D01*
X131107676Y-65106972D01*
X131238340Y-64301496D01*
X131377658Y-63535003D01*
X131525566Y-62807771D01*
X131682001Y-62120080D01*
X131846897Y-61472210D01*
X132020190Y-60864439D01*
X132201816Y-60297049D01*
X132391710Y-59770317D01*
X132589808Y-59284524D01*
X132796046Y-58839949D01*
X132842462Y-58747784D01*
X133060623Y-58349036D01*
X133287041Y-57990698D01*
X133522939Y-57671437D01*
X133769542Y-57389918D01*
X134028070Y-57144807D01*
X134299749Y-56934770D01*
X134585799Y-56758472D01*
X134735973Y-56681902D01*
X134982183Y-56577316D01*
X135222857Y-56502744D01*
X135468630Y-56456124D01*
X135730134Y-56435394D01*
X135995833Y-56437501D01*
X136291071Y-56458599D01*
X136590490Y-56497650D01*
X136895536Y-56555415D01*
X137207657Y-56632656D01*
X137528297Y-56730136D01*
X137858904Y-56848616D01*
X138200923Y-56988858D01*
X138555802Y-57151625D01*
X138924986Y-57337677D01*
X139309921Y-57547777D01*
X139712055Y-57782688D01*
X140132834Y-58043170D01*
X140573703Y-58329986D01*
X141036109Y-58643898D01*
X141521498Y-58985667D01*
X142031317Y-59356056D01*
X142567013Y-59755827D01*
X143130030Y-60185741D01*
X143171333Y-60217626D01*
X143330302Y-60338548D01*
X143462084Y-60434069D01*
X143571256Y-60506775D01*
X143662395Y-60559250D01*
X143740078Y-60594080D01*
X143808881Y-60613850D01*
X143873382Y-60621144D01*
X143886113Y-60621333D01*
X143936782Y-60617682D01*
X144020769Y-60607519D01*
X144129763Y-60592028D01*
X144255456Y-60572394D01*
X144389536Y-60549802D01*
X144396770Y-60548535D01*
X145093295Y-60435247D01*
X145778255Y-60342327D01*
X146459882Y-60269144D01*
X147146409Y-60215066D01*
X147846071Y-60179461D01*
X148567100Y-60161696D01*
X149317729Y-60161140D01*
X149426083Y-60162405D01*
X149861167Y-60170176D01*
X150269895Y-60182062D01*
X150659945Y-60198686D01*
X151038994Y-60220669D01*
X151414719Y-60248636D01*
X151794796Y-60283209D01*
X152186903Y-60325010D01*
X152598716Y-60374663D01*
X153037912Y-60432789D01*
X153416000Y-60486078D01*
X153644262Y-60518295D01*
X153835278Y-60543444D01*
X153993507Y-60561701D01*
X154123413Y-60573241D01*
X154229456Y-60578239D01*
X154316100Y-60576872D01*
X154387804Y-60569314D01*
X154449031Y-60555742D01*
X154504243Y-60536330D01*
X154520064Y-60529500D01*
X154589688Y-60493167D01*
X154680768Y-60436646D01*
X154794908Y-60358762D01*
X154933715Y-60258340D01*
X155098793Y-60134206D01*
X155291749Y-59985186D01*
X155514186Y-59810104D01*
X155638500Y-59711197D01*
X155956719Y-59458360D01*
X156244783Y-59231947D01*
X156504516Y-59030642D01*
X156737741Y-58853130D01*
X156946282Y-58698096D01*
X157131965Y-58564226D01*
X157296612Y-58450203D01*
X157442047Y-58354713D01*
X157570096Y-58276441D01*
X157682582Y-58214072D01*
X157781329Y-58166291D01*
X157781503Y-58166214D01*
X157835597Y-58137435D01*
X157913788Y-58089585D01*
X158006264Y-58028936D01*
X158103215Y-57961759D01*
X158118889Y-57950534D01*
X158553754Y-57657744D01*
X159006066Y-57391810D01*
X159470889Y-57154829D01*
X159943284Y-56948902D01*
X160418316Y-56776126D01*
X160891045Y-56638602D01*
X161356536Y-56538428D01*
X161492916Y-56516141D01*
X161737467Y-56483294D01*
X161980975Y-56458319D01*
X162216708Y-56441475D01*
X162437934Y-56433024D01*
X162637923Y-56433224D01*
D12*
X146901200Y-97332800D03*
X151701200Y-97332800D03*
X144412000Y-106730800D03*
X149212000Y-106730800D03*
D13*
X158750000Y-99902000D03*
X158750000Y-97202000D03*
D14*
X157416500Y-111950500D03*
D15*
X157416500Y-114490500D03*
X154876500Y-111950500D03*
X154876500Y-114490500D03*
D16*
X151701200Y-97332800D02*
X151701200Y-104241600D01*
X151701200Y-104241600D02*
X149212000Y-106730800D01*
X158750000Y-97202000D02*
X151832000Y-97202000D01*
X151832000Y-97202000D02*
X151701200Y-97332800D01*
X154876500Y-111950500D02*
X154876500Y-103775500D01*
X154876500Y-103775500D02*
X158750000Y-99902000D01*
D17*
G36*
X162687000Y-115311097D02*
X162673842Y-115313402D01*
X162577101Y-115330120D01*
X162479818Y-115346711D01*
X162382890Y-115363017D01*
X162285598Y-115379161D01*
X162190109Y-115394790D01*
X162093014Y-115410467D01*
X161996012Y-115425907D01*
X161899294Y-115441094D01*
X161802133Y-115456142D01*
X161704396Y-115471065D01*
X161606790Y-115485756D01*
X161508955Y-115500263D01*
X161411464Y-115514514D01*
X161314171Y-115528523D01*
X161217402Y-115542257D01*
X161120102Y-115555859D01*
X161023718Y-115569124D01*
X160926311Y-115582325D01*
X160828755Y-115595347D01*
X160730104Y-115608308D01*
X160633941Y-115620739D01*
X160536979Y-115633069D01*
X160439976Y-115645205D01*
X160343419Y-115657082D01*
X160247031Y-115668738D01*
X160148827Y-115680398D01*
X160051739Y-115691727D01*
X159953782Y-115702943D01*
X159855846Y-115713948D01*
X159759361Y-115724605D01*
X159661570Y-115735219D01*
X159564456Y-115745576D01*
X159465919Y-115755900D01*
X159367638Y-115766024D01*
X159270231Y-115775900D01*
X159172928Y-115785544D01*
X159073988Y-115795222D01*
X158976099Y-115804671D01*
X158878556Y-115813843D01*
X158781939Y-115822809D01*
X158684158Y-115831711D01*
X158586420Y-115840465D01*
X158488846Y-115849032D01*
X158390805Y-115857457D01*
X158291956Y-115865815D01*
X158291954Y-115865816D01*
X158194410Y-115873997D01*
X158095359Y-115882151D01*
X157997350Y-115890019D01*
X157899020Y-115897763D01*
X157799470Y-115905527D01*
X157796060Y-115905788D01*
X158013878Y-115862461D01*
X158495647Y-115540554D01*
X158817554Y-115058785D01*
X158930593Y-114490500D01*
X158817554Y-113922215D01*
X158495647Y-113440446D01*
X158191340Y-113237115D01*
X158256586Y-113210156D01*
X158674688Y-112792783D01*
X158901242Y-112247181D01*
X158901757Y-111656411D01*
X158676156Y-111110414D01*
X158258783Y-110692312D01*
X157713181Y-110465758D01*
X157122411Y-110465243D01*
X156576414Y-110690844D01*
X156158312Y-111108217D01*
X156133845Y-111167139D01*
X155955647Y-110900446D01*
X155702000Y-110730965D01*
X155702000Y-104117434D01*
X158519993Y-101299440D01*
X159400000Y-101299440D01*
X159635317Y-101255162D01*
X159851441Y-101116090D01*
X159996431Y-100903890D01*
X160047440Y-100652000D01*
X160047440Y-99152000D01*
X160003162Y-98916683D01*
X159864090Y-98700559D01*
X159651890Y-98555569D01*
X159638803Y-98552919D01*
X159851441Y-98416090D01*
X159996431Y-98203890D01*
X160047440Y-97952000D01*
X160047440Y-96452000D01*
X160003162Y-96216683D01*
X159864090Y-96000559D01*
X159651890Y-95855569D01*
X159400000Y-95804560D01*
X158100000Y-95804560D01*
X157864683Y-95848838D01*
X157648559Y-95987910D01*
X157503569Y-96200110D01*
X157467849Y-96376500D01*
X152948640Y-96376500D01*
X152948640Y-96032800D01*
X152904362Y-95797483D01*
X152765290Y-95581359D01*
X152553090Y-95436369D01*
X152301200Y-95385360D01*
X151101200Y-95385360D01*
X150865883Y-95429638D01*
X150649759Y-95568710D01*
X150520423Y-95758000D01*
X148074693Y-95758000D01*
X148039527Y-95673101D01*
X147860898Y-95494473D01*
X147627509Y-95397800D01*
X147186950Y-95397800D01*
X147028200Y-95556550D01*
X147028200Y-97205800D01*
X147048200Y-97205800D01*
X147048200Y-97459800D01*
X147028200Y-97459800D01*
X147028200Y-99109050D01*
X147186950Y-99267800D01*
X147627509Y-99267800D01*
X147860898Y-99171127D01*
X148039527Y-98992499D01*
X148064172Y-98933000D01*
X150539789Y-98933000D01*
X150637110Y-99084241D01*
X150849310Y-99229231D01*
X150875700Y-99234575D01*
X150875700Y-103899667D01*
X149961693Y-104813674D01*
X149812000Y-104783360D01*
X148612000Y-104783360D01*
X148376683Y-104827638D01*
X148160559Y-104966710D01*
X148031223Y-105156000D01*
X145585493Y-105156000D01*
X145550327Y-105071101D01*
X145371698Y-104892473D01*
X145138309Y-104795800D01*
X144697750Y-104795800D01*
X144539000Y-104954550D01*
X144539000Y-106603800D01*
X144559000Y-106603800D01*
X144559000Y-106857800D01*
X144539000Y-106857800D01*
X144539000Y-108507050D01*
X144697750Y-108665800D01*
X145138309Y-108665800D01*
X145371698Y-108569127D01*
X145482826Y-108458000D01*
X148132311Y-108458000D01*
X148147910Y-108482241D01*
X148360110Y-108627231D01*
X148612000Y-108678240D01*
X149812000Y-108678240D01*
X150047317Y-108633962D01*
X150263441Y-108494890D01*
X150408431Y-108282690D01*
X150459440Y-108030800D01*
X150459440Y-106650794D01*
X152284914Y-104825319D01*
X152284917Y-104825317D01*
X152463863Y-104557505D01*
X152526700Y-104241600D01*
X152526700Y-99237809D01*
X152536517Y-99235962D01*
X152752641Y-99096890D01*
X152897631Y-98884690D01*
X152948640Y-98632800D01*
X152948640Y-98027500D01*
X157466766Y-98027500D01*
X157496838Y-98187317D01*
X157635910Y-98403441D01*
X157848110Y-98548431D01*
X157861197Y-98551081D01*
X157648559Y-98687910D01*
X157503569Y-98900110D01*
X157452560Y-99152000D01*
X157452560Y-100032007D01*
X154292783Y-103191783D01*
X154113837Y-103459594D01*
X154079281Y-103633320D01*
X154051000Y-103775500D01*
X154051000Y-110730965D01*
X153797353Y-110900446D01*
X153475446Y-111382215D01*
X153362407Y-111950500D01*
X153475446Y-112518785D01*
X153797353Y-113000554D01*
X154138053Y-113228202D01*
X153995142Y-113295317D01*
X153604855Y-113723576D01*
X153435024Y-114133610D01*
X153556345Y-114363500D01*
X154749500Y-114363500D01*
X154749500Y-114343500D01*
X155003500Y-114343500D01*
X155003500Y-114363500D01*
X155023500Y-114363500D01*
X155023500Y-114617500D01*
X155003500Y-114617500D01*
X155003500Y-115811319D01*
X155233392Y-115931986D01*
X155757858Y-115685683D01*
X156148145Y-115257424D01*
X156148155Y-115257399D01*
X156337353Y-115540554D01*
X156819122Y-115862461D01*
X157240826Y-115946343D01*
X157212305Y-115948320D01*
X157114364Y-115955041D01*
X157016679Y-115961598D01*
X156918850Y-115968035D01*
X156820902Y-115974363D01*
X156722456Y-115980619D01*
X156624160Y-115986677D01*
X156624158Y-115986678D01*
X156526220Y-115992636D01*
X156426913Y-115998601D01*
X156329397Y-116004305D01*
X156229543Y-116009986D01*
X156229540Y-116009987D01*
X156131693Y-116015517D01*
X156031863Y-116021017D01*
X155935195Y-116026227D01*
X155836415Y-116031427D01*
X155738869Y-116036445D01*
X155640099Y-116041414D01*
X155540975Y-116046293D01*
X155441795Y-116051074D01*
X155441793Y-116051075D01*
X155343571Y-116055713D01*
X155244295Y-116060310D01*
X155145783Y-116064786D01*
X155145782Y-116064786D01*
X155048656Y-116069119D01*
X154949205Y-116073419D01*
X154949204Y-116073419D01*
X154850376Y-116077560D01*
X154750995Y-116081652D01*
X154653255Y-116085610D01*
X154554003Y-116089507D01*
X154554002Y-116089507D01*
X154455396Y-116093260D01*
X154357117Y-116096942D01*
X154258404Y-116100526D01*
X154160025Y-116103989D01*
X154060668Y-116107378D01*
X154060667Y-116107378D01*
X153961509Y-116110653D01*
X153961508Y-116110653D01*
X153863486Y-116113842D01*
X153863484Y-116113842D01*
X153764439Y-116117008D01*
X153666702Y-116119987D01*
X153566594Y-116122987D01*
X153566592Y-116122987D01*
X153467808Y-116125851D01*
X153368350Y-116128639D01*
X153269180Y-116131324D01*
X153170079Y-116133914D01*
X153072191Y-116136382D01*
X152973410Y-116138782D01*
X152873357Y-116141176D01*
X152873356Y-116141176D01*
X152774708Y-116143448D01*
X152675507Y-116145645D01*
X152578056Y-116147716D01*
X152477825Y-116149716D01*
X152477823Y-116149716D01*
X152378835Y-116151605D01*
X152378790Y-116151615D01*
X152378741Y-116151606D01*
X152280248Y-116153499D01*
X152180464Y-116155290D01*
X152180463Y-116155290D01*
X152082033Y-116156972D01*
X151983548Y-116158570D01*
X151983546Y-116158570D01*
X151883862Y-116160166D01*
X151785822Y-116161652D01*
X151686116Y-116163043D01*
X151587719Y-116164331D01*
X151488462Y-116165530D01*
X151389374Y-116166726D01*
X151290303Y-116167821D01*
X151191516Y-116168814D01*
X151092878Y-116169745D01*
X150993457Y-116170611D01*
X150895105Y-116171394D01*
X150796399Y-116172107D01*
X150696144Y-116172759D01*
X150597566Y-116173328D01*
X150597564Y-116173328D01*
X150498487Y-116173829D01*
X150399965Y-116174256D01*
X150399961Y-116174257D01*
X150301325Y-116174615D01*
X150201984Y-116174905D01*
X150103797Y-116175123D01*
X150004254Y-116175274D01*
X149904473Y-116175356D01*
X149805907Y-116175369D01*
X149706987Y-116175314D01*
X149706985Y-116175314D01*
X149609343Y-116175194D01*
X149609340Y-116175193D01*
X149510013Y-116175003D01*
X149411095Y-116174747D01*
X149411092Y-116174747D01*
X149313408Y-116174430D01*
X149313406Y-116174429D01*
X149213917Y-116174038D01*
X149115682Y-116173588D01*
X149017223Y-116173071D01*
X149017221Y-116173071D01*
X148918275Y-116172488D01*
X148818615Y-116171834D01*
X148719497Y-116171119D01*
X148719496Y-116171119D01*
X148620426Y-116170340D01*
X148620425Y-116170340D01*
X148520868Y-116169493D01*
X148422456Y-116168593D01*
X148323906Y-116167628D01*
X148323905Y-116167628D01*
X148225269Y-116166636D01*
X148225268Y-116166636D01*
X148124924Y-116165536D01*
X148026122Y-116164345D01*
X148026121Y-116164345D01*
X147928087Y-116163153D01*
X147928085Y-116163153D01*
X147828576Y-116161854D01*
X147729866Y-116160554D01*
X147729864Y-116160554D01*
X147631700Y-116159174D01*
X147533060Y-116157674D01*
X147533015Y-116157682D01*
X147532972Y-116157673D01*
X147434074Y-116156182D01*
X147334321Y-116154591D01*
X147235229Y-116152895D01*
X147235178Y-116152904D01*
X147235131Y-116152894D01*
X147135543Y-116151204D01*
X147036622Y-116149408D01*
X147036572Y-116149417D01*
X147036521Y-116149406D01*
X146937267Y-116147619D01*
X146838497Y-116145721D01*
X146838495Y-116145721D01*
X146739555Y-116143736D01*
X146739554Y-116143736D01*
X146641291Y-116141742D01*
X146542214Y-116139648D01*
X146542157Y-116139658D01*
X146542102Y-116139646D01*
X146442837Y-116137564D01*
X146343878Y-116135364D01*
X146343818Y-116135375D01*
X146343761Y-116135362D01*
X146244504Y-116133172D01*
X146146996Y-116130895D01*
X146146994Y-116130895D01*
X146047754Y-116128495D01*
X146047692Y-116128506D01*
X146047630Y-116128492D01*
X145947640Y-116126092D01*
X145849824Y-116123615D01*
X145849762Y-116123626D01*
X145849697Y-116123611D01*
X145750247Y-116121111D01*
X145750244Y-116121111D01*
X145650866Y-116118532D01*
X145650865Y-116118532D01*
X145552211Y-116115937D01*
X145453424Y-116113258D01*
X145353554Y-116110470D01*
X145353551Y-116110469D01*
X145254912Y-116107676D01*
X145156908Y-116104797D01*
X145058867Y-116101750D01*
X144960505Y-116098563D01*
X144863365Y-116095296D01*
X144863363Y-116095296D01*
X144765255Y-116091936D01*
X144665721Y-116088341D01*
X144665718Y-116088342D01*
X144568423Y-116084779D01*
X144470286Y-116081087D01*
X144372286Y-116077253D01*
X144372285Y-116077253D01*
X144273700Y-116073270D01*
X144175852Y-116069205D01*
X144077345Y-116064943D01*
X143979802Y-116060604D01*
X143881181Y-116056106D01*
X143881178Y-116056106D01*
X143783530Y-116051572D01*
X143783528Y-116051571D01*
X143685433Y-116046896D01*
X143586901Y-116042029D01*
X143586900Y-116042029D01*
X143489073Y-116037097D01*
X143391137Y-116032030D01*
X143391136Y-116032030D01*
X143291942Y-116026841D01*
X143193632Y-116021527D01*
X143095613Y-116016074D01*
X142996873Y-116010526D01*
X142898099Y-116004836D01*
X142800589Y-115999032D01*
X142702481Y-115993083D01*
X142603322Y-115986929D01*
X142603320Y-115986928D01*
X142504310Y-115980742D01*
X142407516Y-115974536D01*
X142310444Y-115968128D01*
X142212401Y-115961558D01*
X142114715Y-115954901D01*
X142113000Y-115954782D01*
X142113000Y-114847390D01*
X153435024Y-114847390D01*
X153604855Y-115257424D01*
X153995142Y-115685683D01*
X154519608Y-115931986D01*
X154749500Y-115811319D01*
X154749500Y-114617500D01*
X153556345Y-114617500D01*
X153435024Y-114847390D01*
X142113000Y-114847390D01*
X142113000Y-107016550D01*
X143177000Y-107016550D01*
X143177000Y-108157110D01*
X143273673Y-108390499D01*
X143452302Y-108569127D01*
X143685691Y-108665800D01*
X144126250Y-108665800D01*
X144285000Y-108507050D01*
X144285000Y-106857800D01*
X143335750Y-106857800D01*
X143177000Y-107016550D01*
X142113000Y-107016550D01*
X142113000Y-105304490D01*
X143177000Y-105304490D01*
X143177000Y-106445050D01*
X143335750Y-106603800D01*
X144285000Y-106603800D01*
X144285000Y-104954550D01*
X144126250Y-104795800D01*
X143685691Y-104795800D01*
X143452302Y-104892473D01*
X143273673Y-105071101D01*
X143177000Y-105304490D01*
X142113000Y-105304490D01*
X142113000Y-97618550D01*
X145666200Y-97618550D01*
X145666200Y-98759110D01*
X145762873Y-98992499D01*
X145941502Y-99171127D01*
X146174891Y-99267800D01*
X146615450Y-99267800D01*
X146774200Y-99109050D01*
X146774200Y-97459800D01*
X145824950Y-97459800D01*
X145666200Y-97618550D01*
X142113000Y-97618550D01*
X142113000Y-95906490D01*
X145666200Y-95906490D01*
X145666200Y-97047050D01*
X145824950Y-97205800D01*
X146774200Y-97205800D01*
X146774200Y-95556550D01*
X146615450Y-95397800D01*
X146174891Y-95397800D01*
X145941502Y-95494473D01*
X145762873Y-95673101D01*
X145666200Y-95906490D01*
X142113000Y-95906490D01*
X142113000Y-93091000D01*
X162687000Y-93091000D01*
X162687000Y-115311097D01*
X162687000Y-115311097D01*
G37*
X162687000Y-115311097D02*
X162673842Y-115313402D01*
X162577101Y-115330120D01*
X162479818Y-115346711D01*
X162382890Y-115363017D01*
X162285598Y-115379161D01*
X162190109Y-115394790D01*
X162093014Y-115410467D01*
X161996012Y-115425907D01*
X161899294Y-115441094D01*
X161802133Y-115456142D01*
X161704396Y-115471065D01*
X161606790Y-115485756D01*
X161508955Y-115500263D01*
X161411464Y-115514514D01*
X161314171Y-115528523D01*
X161217402Y-115542257D01*
X161120102Y-115555859D01*
X161023718Y-115569124D01*
X160926311Y-115582325D01*
X160828755Y-115595347D01*
X160730104Y-115608308D01*
X160633941Y-115620739D01*
X160536979Y-115633069D01*
X160439976Y-115645205D01*
X160343419Y-115657082D01*
X160247031Y-115668738D01*
X160148827Y-115680398D01*
X160051739Y-115691727D01*
X159953782Y-115702943D01*
X159855846Y-115713948D01*
X159759361Y-115724605D01*
X159661570Y-115735219D01*
X159564456Y-115745576D01*
X159465919Y-115755900D01*
X159367638Y-115766024D01*
X159270231Y-115775900D01*
X159172928Y-115785544D01*
X159073988Y-115795222D01*
X158976099Y-115804671D01*
X158878556Y-115813843D01*
X158781939Y-115822809D01*
X158684158Y-115831711D01*
X158586420Y-115840465D01*
X158488846Y-115849032D01*
X158390805Y-115857457D01*
X158291956Y-115865815D01*
X158291954Y-115865816D01*
X158194410Y-115873997D01*
X158095359Y-115882151D01*
X157997350Y-115890019D01*
X157899020Y-115897763D01*
X157799470Y-115905527D01*
X157796060Y-115905788D01*
X158013878Y-115862461D01*
X158495647Y-115540554D01*
X158817554Y-115058785D01*
X158930593Y-114490500D01*
X158817554Y-113922215D01*
X158495647Y-113440446D01*
X158191340Y-113237115D01*
X158256586Y-113210156D01*
X158674688Y-112792783D01*
X158901242Y-112247181D01*
X158901757Y-111656411D01*
X158676156Y-111110414D01*
X158258783Y-110692312D01*
X157713181Y-110465758D01*
X157122411Y-110465243D01*
X156576414Y-110690844D01*
X156158312Y-111108217D01*
X156133845Y-111167139D01*
X155955647Y-110900446D01*
X155702000Y-110730965D01*
X155702000Y-104117434D01*
X158519993Y-101299440D01*
X159400000Y-101299440D01*
X159635317Y-101255162D01*
X159851441Y-101116090D01*
X159996431Y-100903890D01*
X160047440Y-100652000D01*
X160047440Y-99152000D01*
X160003162Y-98916683D01*
X159864090Y-98700559D01*
X159651890Y-98555569D01*
X159638803Y-98552919D01*
X159851441Y-98416090D01*
X159996431Y-98203890D01*
X160047440Y-97952000D01*
X160047440Y-96452000D01*
X160003162Y-96216683D01*
X159864090Y-96000559D01*
X159651890Y-95855569D01*
X159400000Y-95804560D01*
X158100000Y-95804560D01*
X157864683Y-95848838D01*
X157648559Y-95987910D01*
X157503569Y-96200110D01*
X157467849Y-96376500D01*
X152948640Y-96376500D01*
X152948640Y-96032800D01*
X152904362Y-95797483D01*
X152765290Y-95581359D01*
X152553090Y-95436369D01*
X152301200Y-95385360D01*
X151101200Y-95385360D01*
X150865883Y-95429638D01*
X150649759Y-95568710D01*
X150520423Y-95758000D01*
X148074693Y-95758000D01*
X148039527Y-95673101D01*
X147860898Y-95494473D01*
X147627509Y-95397800D01*
X147186950Y-95397800D01*
X147028200Y-95556550D01*
X147028200Y-97205800D01*
X147048200Y-97205800D01*
X147048200Y-97459800D01*
X147028200Y-97459800D01*
X147028200Y-99109050D01*
X147186950Y-99267800D01*
X147627509Y-99267800D01*
X147860898Y-99171127D01*
X148039527Y-98992499D01*
X148064172Y-98933000D01*
X150539789Y-98933000D01*
X150637110Y-99084241D01*
X150849310Y-99229231D01*
X150875700Y-99234575D01*
X150875700Y-103899667D01*
X149961693Y-104813674D01*
X149812000Y-104783360D01*
X148612000Y-104783360D01*
X148376683Y-104827638D01*
X148160559Y-104966710D01*
X148031223Y-105156000D01*
X145585493Y-105156000D01*
X145550327Y-105071101D01*
X145371698Y-104892473D01*
X145138309Y-104795800D01*
X144697750Y-104795800D01*
X144539000Y-104954550D01*
X144539000Y-106603800D01*
X144559000Y-106603800D01*
X144559000Y-106857800D01*
X144539000Y-106857800D01*
X144539000Y-108507050D01*
X144697750Y-108665800D01*
X145138309Y-108665800D01*
X145371698Y-108569127D01*
X145482826Y-108458000D01*
X148132311Y-108458000D01*
X148147910Y-108482241D01*
X148360110Y-108627231D01*
X148612000Y-108678240D01*
X149812000Y-108678240D01*
X150047317Y-108633962D01*
X150263441Y-108494890D01*
X150408431Y-108282690D01*
X150459440Y-108030800D01*
X150459440Y-106650794D01*
X152284914Y-104825319D01*
X152284917Y-104825317D01*
X152463863Y-104557505D01*
X152526700Y-104241600D01*
X152526700Y-99237809D01*
X152536517Y-99235962D01*
X152752641Y-99096890D01*
X152897631Y-98884690D01*
X152948640Y-98632800D01*
X152948640Y-98027500D01*
X157466766Y-98027500D01*
X157496838Y-98187317D01*
X157635910Y-98403441D01*
X157848110Y-98548431D01*
X157861197Y-98551081D01*
X157648559Y-98687910D01*
X157503569Y-98900110D01*
X157452560Y-99152000D01*
X157452560Y-100032007D01*
X154292783Y-103191783D01*
X154113837Y-103459594D01*
X154079281Y-103633320D01*
X154051000Y-103775500D01*
X154051000Y-110730965D01*
X153797353Y-110900446D01*
X153475446Y-111382215D01*
X153362407Y-111950500D01*
X153475446Y-112518785D01*
X153797353Y-113000554D01*
X154138053Y-113228202D01*
X153995142Y-113295317D01*
X153604855Y-113723576D01*
X153435024Y-114133610D01*
X153556345Y-114363500D01*
X154749500Y-114363500D01*
X154749500Y-114343500D01*
X155003500Y-114343500D01*
X155003500Y-114363500D01*
X155023500Y-114363500D01*
X155023500Y-114617500D01*
X155003500Y-114617500D01*
X155003500Y-115811319D01*
X155233392Y-115931986D01*
X155757858Y-115685683D01*
X156148145Y-115257424D01*
X156148155Y-115257399D01*
X156337353Y-115540554D01*
X156819122Y-115862461D01*
X157240826Y-115946343D01*
X157212305Y-115948320D01*
X157114364Y-115955041D01*
X157016679Y-115961598D01*
X156918850Y-115968035D01*
X156820902Y-115974363D01*
X156722456Y-115980619D01*
X156624160Y-115986677D01*
X156624158Y-115986678D01*
X156526220Y-115992636D01*
X156426913Y-115998601D01*
X156329397Y-116004305D01*
X156229543Y-116009986D01*
X156229540Y-116009987D01*
X156131693Y-116015517D01*
X156031863Y-116021017D01*
X155935195Y-116026227D01*
X155836415Y-116031427D01*
X155738869Y-116036445D01*
X155640099Y-116041414D01*
X155540975Y-116046293D01*
X155441795Y-116051074D01*
X155441793Y-116051075D01*
X155343571Y-116055713D01*
X155244295Y-116060310D01*
X155145783Y-116064786D01*
X155145782Y-116064786D01*
X155048656Y-116069119D01*
X154949205Y-116073419D01*
X154949204Y-116073419D01*
X154850376Y-116077560D01*
X154750995Y-116081652D01*
X154653255Y-116085610D01*
X154554003Y-116089507D01*
X154554002Y-116089507D01*
X154455396Y-116093260D01*
X154357117Y-116096942D01*
X154258404Y-116100526D01*
X154160025Y-116103989D01*
X154060668Y-116107378D01*
X154060667Y-116107378D01*
X153961509Y-116110653D01*
X153961508Y-116110653D01*
X153863486Y-116113842D01*
X153863484Y-116113842D01*
X153764439Y-116117008D01*
X153666702Y-116119987D01*
X153566594Y-116122987D01*
X153566592Y-116122987D01*
X153467808Y-116125851D01*
X153368350Y-116128639D01*
X153269180Y-116131324D01*
X153170079Y-116133914D01*
X153072191Y-116136382D01*
X152973410Y-116138782D01*
X152873357Y-116141176D01*
X152873356Y-116141176D01*
X152774708Y-116143448D01*
X152675507Y-116145645D01*
X152578056Y-116147716D01*
X152477825Y-116149716D01*
X152477823Y-116149716D01*
X152378835Y-116151605D01*
X152378790Y-116151615D01*
X152378741Y-116151606D01*
X152280248Y-116153499D01*
X152180464Y-116155290D01*
X152180463Y-116155290D01*
X152082033Y-116156972D01*
X151983548Y-116158570D01*
X151983546Y-116158570D01*
X151883862Y-116160166D01*
X151785822Y-116161652D01*
X151686116Y-116163043D01*
X151587719Y-116164331D01*
X151488462Y-116165530D01*
X151389374Y-116166726D01*
X151290303Y-116167821D01*
X151191516Y-116168814D01*
X151092878Y-116169745D01*
X150993457Y-116170611D01*
X150895105Y-116171394D01*
X150796399Y-116172107D01*
X150696144Y-116172759D01*
X150597566Y-116173328D01*
X150597564Y-116173328D01*
X150498487Y-116173829D01*
X150399965Y-116174256D01*
X150399961Y-116174257D01*
X150301325Y-116174615D01*
X150201984Y-116174905D01*
X150103797Y-116175123D01*
X150004254Y-116175274D01*
X149904473Y-116175356D01*
X149805907Y-116175369D01*
X149706987Y-116175314D01*
X149706985Y-116175314D01*
X149609343Y-116175194D01*
X149609340Y-116175193D01*
X149510013Y-116175003D01*
X149411095Y-116174747D01*
X149411092Y-116174747D01*
X149313408Y-116174430D01*
X149313406Y-116174429D01*
X149213917Y-116174038D01*
X149115682Y-116173588D01*
X149017223Y-116173071D01*
X149017221Y-116173071D01*
X148918275Y-116172488D01*
X148818615Y-116171834D01*
X148719497Y-116171119D01*
X148719496Y-116171119D01*
X148620426Y-116170340D01*
X148620425Y-116170340D01*
X148520868Y-116169493D01*
X148422456Y-116168593D01*
X148323906Y-116167628D01*
X148323905Y-116167628D01*
X148225269Y-116166636D01*
X148225268Y-116166636D01*
X148124924Y-116165536D01*
X148026122Y-116164345D01*
X148026121Y-116164345D01*
X147928087Y-116163153D01*
X147928085Y-116163153D01*
X147828576Y-116161854D01*
X147729866Y-116160554D01*
X147729864Y-116160554D01*
X147631700Y-116159174D01*
X147533060Y-116157674D01*
X147533015Y-116157682D01*
X147532972Y-116157673D01*
X147434074Y-116156182D01*
X147334321Y-116154591D01*
X147235229Y-116152895D01*
X147235178Y-116152904D01*
X147235131Y-116152894D01*
X147135543Y-116151204D01*
X147036622Y-116149408D01*
X147036572Y-116149417D01*
X147036521Y-116149406D01*
X146937267Y-116147619D01*
X146838497Y-116145721D01*
X146838495Y-116145721D01*
X146739555Y-116143736D01*
X146739554Y-116143736D01*
X146641291Y-116141742D01*
X146542214Y-116139648D01*
X146542157Y-116139658D01*
X146542102Y-116139646D01*
X146442837Y-116137564D01*
X146343878Y-116135364D01*
X146343818Y-116135375D01*
X146343761Y-116135362D01*
X146244504Y-116133172D01*
X146146996Y-116130895D01*
X146146994Y-116130895D01*
X146047754Y-116128495D01*
X146047692Y-116128506D01*
X146047630Y-116128492D01*
X145947640Y-116126092D01*
X145849824Y-116123615D01*
X145849762Y-116123626D01*
X145849697Y-116123611D01*
X145750247Y-116121111D01*
X145750244Y-116121111D01*
X145650866Y-116118532D01*
X145650865Y-116118532D01*
X145552211Y-116115937D01*
X145453424Y-116113258D01*
X145353554Y-116110470D01*
X145353551Y-116110469D01*
X145254912Y-116107676D01*
X145156908Y-116104797D01*
X145058867Y-116101750D01*
X144960505Y-116098563D01*
X144863365Y-116095296D01*
X144863363Y-116095296D01*
X144765255Y-116091936D01*
X144665721Y-116088341D01*
X144665718Y-116088342D01*
X144568423Y-116084779D01*
X144470286Y-116081087D01*
X144372286Y-116077253D01*
X144372285Y-116077253D01*
X144273700Y-116073270D01*
X144175852Y-116069205D01*
X144077345Y-116064943D01*
X143979802Y-116060604D01*
X143881181Y-116056106D01*
X143881178Y-116056106D01*
X143783530Y-116051572D01*
X143783528Y-116051571D01*
X143685433Y-116046896D01*
X143586901Y-116042029D01*
X143586900Y-116042029D01*
X143489073Y-116037097D01*
X143391137Y-116032030D01*
X143391136Y-116032030D01*
X143291942Y-116026841D01*
X143193632Y-116021527D01*
X143095613Y-116016074D01*
X142996873Y-116010526D01*
X142898099Y-116004836D01*
X142800589Y-115999032D01*
X142702481Y-115993083D01*
X142603322Y-115986929D01*
X142603320Y-115986928D01*
X142504310Y-115980742D01*
X142407516Y-115974536D01*
X142310444Y-115968128D01*
X142212401Y-115961558D01*
X142114715Y-115954901D01*
X142113000Y-115954782D01*
X142113000Y-114847390D01*
X153435024Y-114847390D01*
X153604855Y-115257424D01*
X153995142Y-115685683D01*
X154519608Y-115931986D01*
X154749500Y-115811319D01*
X154749500Y-114617500D01*
X153556345Y-114617500D01*
X153435024Y-114847390D01*
X142113000Y-114847390D01*
X142113000Y-107016550D01*
X143177000Y-107016550D01*
X143177000Y-108157110D01*
X143273673Y-108390499D01*
X143452302Y-108569127D01*
X143685691Y-108665800D01*
X144126250Y-108665800D01*
X144285000Y-108507050D01*
X144285000Y-106857800D01*
X143335750Y-106857800D01*
X143177000Y-107016550D01*
X142113000Y-107016550D01*
X142113000Y-105304490D01*
X143177000Y-105304490D01*
X143177000Y-106445050D01*
X143335750Y-106603800D01*
X144285000Y-106603800D01*
X144285000Y-104954550D01*
X144126250Y-104795800D01*
X143685691Y-104795800D01*
X143452302Y-104892473D01*
X143273673Y-105071101D01*
X143177000Y-105304490D01*
X142113000Y-105304490D01*
X142113000Y-97618550D01*
X145666200Y-97618550D01*
X145666200Y-98759110D01*
X145762873Y-98992499D01*
X145941502Y-99171127D01*
X146174891Y-99267800D01*
X146615450Y-99267800D01*
X146774200Y-99109050D01*
X146774200Y-97459800D01*
X145824950Y-97459800D01*
X145666200Y-97618550D01*
X142113000Y-97618550D01*
X142113000Y-95906490D01*
X145666200Y-95906490D01*
X145666200Y-97047050D01*
X145824950Y-97205800D01*
X146774200Y-97205800D01*
X146774200Y-95556550D01*
X146615450Y-95397800D01*
X146174891Y-95397800D01*
X145941502Y-95494473D01*
X145762873Y-95673101D01*
X145666200Y-95906490D01*
X142113000Y-95906490D01*
X142113000Y-93091000D01*
X162687000Y-93091000D01*
X162687000Y-115311097D01*
M02*
