G04 #@! TF.FileFunction,Soldermask,Bot*
%FSLAX46Y46*%
G04 Gerber Fmt 4.6, Leading zero omitted, Abs format (unit mm)*
G04 Created by KiCad (PCBNEW 4.0.7) date 07/05/18 08:24:38*
%MOMM*%
%LPD*%
G01*
G04 APERTURE LIST*
%ADD10C,0.100000*%
%ADD11C,2.800000*%
%ADD12R,1.600000X3.000000*%
%ADD13R,3.000000X1.600000*%
%ADD14R,1.700000X1.900000*%
%ADD15C,2.100000*%
%ADD16O,2.100000X2.100000*%
G04 APERTURE END LIST*
D10*
D11*
X138049000Y-88646000D03*
D12*
X140449000Y-88646000D03*
X135649000Y-88646000D03*
D11*
X138049000Y-83058000D03*
D12*
X140449000Y-83058000D03*
X135649000Y-83058000D03*
D11*
X128905000Y-85852000D03*
D13*
X128905000Y-83452000D03*
X128905000Y-88252000D03*
D11*
X161163000Y-55753000D03*
D10*
G36*
X161798641Y-57852038D02*
X163298641Y-55253962D01*
X164684281Y-56053962D01*
X163184281Y-58652038D01*
X161798641Y-57852038D01*
X161798641Y-57852038D01*
G37*
G36*
X157641719Y-55452038D02*
X159141719Y-52853962D01*
X160527359Y-53653962D01*
X159027359Y-56252038D01*
X157641719Y-55452038D01*
X157641719Y-55452038D01*
G37*
D14*
X135636000Y-94154000D03*
X135636000Y-96854000D03*
D10*
G36*
X142717633Y-66655679D02*
X143157626Y-68297753D01*
X141322367Y-68789509D01*
X140882374Y-67147435D01*
X142717633Y-66655679D01*
X142717633Y-66655679D01*
G37*
G36*
X140109633Y-67354491D02*
X140549626Y-68996565D01*
X138714367Y-69488321D01*
X138274374Y-67846247D01*
X140109633Y-67354491D01*
X140109633Y-67354491D01*
G37*
D15*
X160401000Y-115316000D03*
D16*
X160401000Y-117856000D03*
X157861000Y-115316000D03*
X157861000Y-117856000D03*
M02*
