G04 #@! TF.FileFunction,Copper,L1,Top,Signal*
%FSLAX46Y46*%
G04 Gerber Fmt 4.6, Leading zero omitted, Abs format (unit mm)*
G04 Created by KiCad (PCBNEW 4.0.7) date 07/05/18 08:24:38*
%MOMM*%
%LPD*%
G01*
G04 APERTURE LIST*
%ADD10C,0.100000*%
%ADD11C,0.010000*%
%ADD12C,1.700000*%
%ADD13O,1.700000X1.700000*%
G04 APERTURE END LIST*
D10*
D11*
G36*
X126708917Y-41363091D02*
X127803678Y-41363120D01*
X128933116Y-41363163D01*
X130097757Y-41363221D01*
X131298128Y-41363293D01*
X132534756Y-41363379D01*
X133808165Y-41363478D01*
X135118884Y-41363591D01*
X136467439Y-41363716D01*
X137854355Y-41363854D01*
X139280160Y-41364004D01*
X140745380Y-41364166D01*
X142250542Y-41364340D01*
X143796171Y-41364525D01*
X145382795Y-41364721D01*
X147010940Y-41364928D01*
X147912667Y-41365045D01*
X149551321Y-41365259D01*
X151148183Y-41365470D01*
X152703790Y-41365680D01*
X154218684Y-41365887D01*
X155693403Y-41366093D01*
X157128488Y-41366299D01*
X158524477Y-41366504D01*
X159881912Y-41366710D01*
X161201332Y-41366916D01*
X162483276Y-41367124D01*
X163728285Y-41367334D01*
X164936897Y-41367546D01*
X166109654Y-41367762D01*
X167247094Y-41367980D01*
X168349757Y-41368203D01*
X169418184Y-41368430D01*
X170452913Y-41368663D01*
X171454485Y-41368900D01*
X172423439Y-41369144D01*
X173360316Y-41369395D01*
X174265654Y-41369653D01*
X175139995Y-41369918D01*
X175983876Y-41370192D01*
X176797839Y-41370475D01*
X177582423Y-41370766D01*
X178338167Y-41371068D01*
X179065612Y-41371380D01*
X179765298Y-41371703D01*
X180437763Y-41372037D01*
X181083548Y-41372383D01*
X181703193Y-41372741D01*
X182297237Y-41373113D01*
X182866220Y-41373497D01*
X183410682Y-41373896D01*
X183931163Y-41374310D01*
X184428202Y-41374738D01*
X184902339Y-41375182D01*
X185354114Y-41375642D01*
X185784066Y-41376119D01*
X186192737Y-41376613D01*
X186580664Y-41377125D01*
X186948388Y-41377654D01*
X187296449Y-41378203D01*
X187625386Y-41378771D01*
X187935740Y-41379358D01*
X188228050Y-41379966D01*
X188502855Y-41380595D01*
X188760696Y-41381245D01*
X189002112Y-41381917D01*
X189227644Y-41382611D01*
X189437830Y-41383329D01*
X189633211Y-41384070D01*
X189814326Y-41384834D01*
X189981715Y-41385624D01*
X190135918Y-41386438D01*
X190277475Y-41387278D01*
X190406925Y-41388144D01*
X190524808Y-41389037D01*
X190631664Y-41389957D01*
X190728033Y-41390904D01*
X190814454Y-41391880D01*
X190891468Y-41392884D01*
X190959613Y-41393918D01*
X191019430Y-41394981D01*
X191071459Y-41396075D01*
X191116239Y-41397199D01*
X191154310Y-41398355D01*
X191186212Y-41399543D01*
X191212484Y-41400763D01*
X191233667Y-41402016D01*
X191250300Y-41403303D01*
X191262923Y-41404623D01*
X191272075Y-41405978D01*
X191277991Y-41407283D01*
X191569016Y-41507584D01*
X191834448Y-41639531D01*
X192072513Y-41801233D01*
X192281436Y-41990797D01*
X192459441Y-42206334D01*
X192604756Y-42445952D01*
X192715604Y-42707760D01*
X192790211Y-42989868D01*
X192796746Y-43025580D01*
X192797954Y-43035775D01*
X192799130Y-43052689D01*
X192800276Y-43076850D01*
X192801393Y-43108785D01*
X192802480Y-43149022D01*
X192803537Y-43198087D01*
X192804567Y-43256508D01*
X192805567Y-43324811D01*
X192806540Y-43403525D01*
X192807486Y-43493177D01*
X192808404Y-43594293D01*
X192809295Y-43707401D01*
X192810160Y-43833028D01*
X192810999Y-43971701D01*
X192811813Y-44123948D01*
X192812601Y-44290295D01*
X192813364Y-44471271D01*
X192814103Y-44667401D01*
X192814817Y-44879214D01*
X192815508Y-45107237D01*
X192816176Y-45351997D01*
X192816821Y-45614021D01*
X192817443Y-45893836D01*
X192818043Y-46191969D01*
X192818621Y-46508949D01*
X192819178Y-46845301D01*
X192819714Y-47201553D01*
X192820229Y-47578233D01*
X192820724Y-47975868D01*
X192821199Y-48394984D01*
X192821655Y-48836110D01*
X192822091Y-49299772D01*
X192822509Y-49786497D01*
X192822909Y-50296814D01*
X192823290Y-50831248D01*
X192823654Y-51390327D01*
X192824001Y-51974579D01*
X192824331Y-52584531D01*
X192824645Y-53220709D01*
X192824942Y-53883642D01*
X192825224Y-54573856D01*
X192825491Y-55291878D01*
X192825743Y-56038236D01*
X192825980Y-56813457D01*
X192826204Y-57618069D01*
X192826413Y-58452598D01*
X192826610Y-59317571D01*
X192826793Y-60213517D01*
X192826964Y-61140961D01*
X192827122Y-62100432D01*
X192827269Y-63092457D01*
X192827404Y-64117562D01*
X192827529Y-65176275D01*
X192827642Y-66269123D01*
X192827746Y-67396634D01*
X192827839Y-68559335D01*
X192827923Y-69757752D01*
X192827998Y-70992414D01*
X192828065Y-72263847D01*
X192828123Y-73572579D01*
X192828173Y-74919136D01*
X192828215Y-76304046D01*
X192828250Y-77727837D01*
X192828279Y-79191035D01*
X192828301Y-80694168D01*
X192828317Y-82237762D01*
X192828327Y-83822346D01*
X192828332Y-85448446D01*
X192828333Y-86360000D01*
X192828331Y-88009141D01*
X192828323Y-89616477D01*
X192828310Y-91182533D01*
X192828292Y-92707838D01*
X192828267Y-94192918D01*
X192828235Y-95638302D01*
X192828197Y-97044515D01*
X192828151Y-98412085D01*
X192828098Y-99741540D01*
X192828036Y-101033407D01*
X192827966Y-102288212D01*
X192827887Y-103506484D01*
X192827798Y-104688749D01*
X192827700Y-105835534D01*
X192827592Y-106947367D01*
X192827474Y-108024776D01*
X192827345Y-109068286D01*
X192827204Y-110078426D01*
X192827052Y-111055723D01*
X192826888Y-112000703D01*
X192826712Y-112913895D01*
X192826523Y-113795825D01*
X192826321Y-114647021D01*
X192826105Y-115468009D01*
X192825875Y-116259318D01*
X192825631Y-117021473D01*
X192825373Y-117755003D01*
X192825099Y-118460435D01*
X192824810Y-119138296D01*
X192824506Y-119789113D01*
X192824185Y-120413413D01*
X192823847Y-121011724D01*
X192823493Y-121584573D01*
X192823121Y-122132486D01*
X192822731Y-122655992D01*
X192822323Y-123155618D01*
X192821897Y-123631890D01*
X192821452Y-124085336D01*
X192820988Y-124516483D01*
X192820504Y-124925858D01*
X192820000Y-125313990D01*
X192819475Y-125681404D01*
X192818930Y-126028628D01*
X192818364Y-126356189D01*
X192817776Y-126664615D01*
X192817166Y-126954432D01*
X192816533Y-127226168D01*
X192815878Y-127480351D01*
X192815200Y-127717507D01*
X192814499Y-127938163D01*
X192813773Y-128142848D01*
X192813023Y-128332087D01*
X192812249Y-128506409D01*
X192811449Y-128666340D01*
X192810625Y-128812407D01*
X192809774Y-128945139D01*
X192808897Y-129065062D01*
X192807994Y-129172703D01*
X192807063Y-129268590D01*
X192806106Y-129353250D01*
X192805120Y-129427210D01*
X192804107Y-129490997D01*
X192803065Y-129545139D01*
X192801994Y-129590162D01*
X192800894Y-129626594D01*
X192799764Y-129654963D01*
X192798604Y-129675794D01*
X192797414Y-129689617D01*
X192796746Y-129694420D01*
X192727211Y-129974231D01*
X192620832Y-130236510D01*
X192480475Y-130478390D01*
X192309010Y-130697002D01*
X192109304Y-130889478D01*
X191884225Y-131052951D01*
X191636641Y-131184553D01*
X191369420Y-131281415D01*
X191162420Y-131328746D01*
X191152231Y-131329953D01*
X191135333Y-131331129D01*
X191111198Y-131332274D01*
X191079298Y-131333389D01*
X191039107Y-131334474D01*
X190990097Y-131335530D01*
X190931741Y-131336557D01*
X190863512Y-131337555D01*
X190784883Y-131338524D01*
X190695327Y-131339465D01*
X190594316Y-131340379D01*
X190481324Y-131341266D01*
X190355823Y-131342125D01*
X190217286Y-131342958D01*
X190065186Y-131343765D01*
X189898996Y-131344546D01*
X189718188Y-131345301D01*
X189522236Y-131346032D01*
X189310612Y-131346737D01*
X189082790Y-131347418D01*
X188838241Y-131348075D01*
X188576439Y-131348709D01*
X188296857Y-131349319D01*
X187998967Y-131349906D01*
X187682243Y-131350470D01*
X187346157Y-131351012D01*
X186990182Y-131351533D01*
X186613791Y-131352031D01*
X186216456Y-131352509D01*
X185797652Y-131352966D01*
X185356849Y-131353402D01*
X184893522Y-131353818D01*
X184407143Y-131354215D01*
X183897185Y-131354592D01*
X183363121Y-131354950D01*
X182804424Y-131355290D01*
X182220566Y-131355611D01*
X181611020Y-131355915D01*
X180975260Y-131356200D01*
X180312757Y-131356469D01*
X179622986Y-131356721D01*
X178905418Y-131356956D01*
X178159526Y-131357175D01*
X177384785Y-131357379D01*
X176580665Y-131357567D01*
X175746640Y-131357740D01*
X174882184Y-131357898D01*
X173986768Y-131358042D01*
X173059866Y-131358172D01*
X172100950Y-131358289D01*
X171109494Y-131358392D01*
X170084969Y-131358483D01*
X169026850Y-131358561D01*
X167934609Y-131358626D01*
X166807718Y-131358680D01*
X165645651Y-131358723D01*
X164447880Y-131358755D01*
X163213878Y-131358775D01*
X161943119Y-131358786D01*
X160635074Y-131358786D01*
X159289218Y-131358777D01*
X157905021Y-131358759D01*
X156481958Y-131358732D01*
X155019502Y-131358696D01*
X153517125Y-131358652D01*
X151974299Y-131358600D01*
X150390499Y-131358541D01*
X148765196Y-131358475D01*
X147809352Y-131358434D01*
X146146281Y-131358357D01*
X144525034Y-131358276D01*
X142945103Y-131358190D01*
X141405979Y-131358098D01*
X139907152Y-131358000D01*
X138448115Y-131357896D01*
X137028358Y-131357785D01*
X135647371Y-131357668D01*
X134304648Y-131357542D01*
X132999678Y-131357410D01*
X131731952Y-131357269D01*
X130500962Y-131357119D01*
X129306200Y-131356961D01*
X128147155Y-131356794D01*
X127023319Y-131356617D01*
X125934184Y-131356430D01*
X124879240Y-131356233D01*
X123857979Y-131356025D01*
X122869892Y-131355806D01*
X121914469Y-131355576D01*
X120991203Y-131355334D01*
X120099583Y-131355080D01*
X119239102Y-131354814D01*
X118409251Y-131354534D01*
X117609519Y-131354242D01*
X116839400Y-131353936D01*
X116098383Y-131353616D01*
X115385960Y-131353282D01*
X114701623Y-131352933D01*
X114044861Y-131352569D01*
X113415167Y-131352189D01*
X112812031Y-131351794D01*
X112234945Y-131351383D01*
X111683399Y-131350955D01*
X111156886Y-131350511D01*
X110654895Y-131350049D01*
X110176919Y-131349570D01*
X109722448Y-131349073D01*
X109290973Y-131348557D01*
X108881985Y-131348023D01*
X108494977Y-131347470D01*
X108129438Y-131346897D01*
X107784860Y-131346305D01*
X107460734Y-131345692D01*
X107156552Y-131345059D01*
X106871803Y-131344405D01*
X106605981Y-131343730D01*
X106358574Y-131343034D01*
X106129076Y-131342315D01*
X105916976Y-131341574D01*
X105721766Y-131340810D01*
X105542938Y-131340024D01*
X105379982Y-131339214D01*
X105232389Y-131338380D01*
X105099650Y-131337522D01*
X104981258Y-131336640D01*
X104876702Y-131335732D01*
X104785474Y-131334800D01*
X104707065Y-131333842D01*
X104640966Y-131332858D01*
X104586669Y-131331847D01*
X104543664Y-131330810D01*
X104511442Y-131329746D01*
X104489496Y-131328654D01*
X104477315Y-131327535D01*
X104476430Y-131327389D01*
X104200057Y-131256512D01*
X103940539Y-131148652D01*
X103700861Y-131006822D01*
X103484007Y-130834035D01*
X103292960Y-130633304D01*
X103130704Y-130407642D01*
X103000223Y-130160061D01*
X102904501Y-129893576D01*
X102859253Y-129694420D01*
X102858046Y-129684225D01*
X102856870Y-129667311D01*
X102855723Y-129643149D01*
X102854607Y-129611214D01*
X102853520Y-129570978D01*
X102852462Y-129521913D01*
X102851433Y-129463492D01*
X102850432Y-129395188D01*
X102849459Y-129316474D01*
X102848514Y-129226823D01*
X102847596Y-129125707D01*
X102846704Y-129012599D01*
X102845839Y-128886972D01*
X102845000Y-128748299D01*
X102844187Y-128596052D01*
X102843399Y-128429705D01*
X102842636Y-128248729D01*
X102841897Y-128052598D01*
X102841182Y-127840785D01*
X102840491Y-127612762D01*
X102839823Y-127368003D01*
X102839179Y-127105979D01*
X102838557Y-126826164D01*
X102837957Y-126528030D01*
X102837378Y-126211051D01*
X102836821Y-125874699D01*
X102836286Y-125518446D01*
X102835770Y-125141766D01*
X102835275Y-124744132D01*
X102834800Y-124325015D01*
X102834345Y-123883890D01*
X102833908Y-123420228D01*
X102833490Y-122933502D01*
X102833091Y-122423186D01*
X102832709Y-121888752D01*
X102832345Y-121329672D01*
X102831998Y-120745420D01*
X102831668Y-120135469D01*
X102831355Y-119499290D01*
X102831057Y-118836358D01*
X102830775Y-118146144D01*
X102830508Y-117428122D01*
X102830257Y-116681763D01*
X102830019Y-115906542D01*
X102829796Y-115101931D01*
X102829586Y-114267402D01*
X102829390Y-113402428D01*
X102829207Y-112506483D01*
X102829036Y-111579038D01*
X102828878Y-110619568D01*
X102828731Y-109627543D01*
X102828595Y-108602438D01*
X102828471Y-107543725D01*
X102828357Y-106450876D01*
X102828351Y-106381272D01*
X104821159Y-106381272D01*
X104821162Y-107495323D01*
X104821175Y-108589292D01*
X104821197Y-109662549D01*
X104821230Y-110714465D01*
X104821272Y-111744410D01*
X104821324Y-112751755D01*
X104821386Y-113735871D01*
X104821457Y-114696128D01*
X104821537Y-115631897D01*
X104821627Y-116542548D01*
X104821726Y-117427453D01*
X104821835Y-118285980D01*
X104821952Y-119117502D01*
X104822079Y-119921389D01*
X104822215Y-120697012D01*
X104822359Y-121443740D01*
X104822513Y-122160945D01*
X104822675Y-122847997D01*
X104822847Y-123504267D01*
X104823026Y-124129125D01*
X104823215Y-124721942D01*
X104823412Y-125282089D01*
X104823617Y-125808936D01*
X104823831Y-126301854D01*
X104824054Y-126760214D01*
X104824284Y-127183385D01*
X104824523Y-127570739D01*
X104824770Y-127921646D01*
X104825025Y-128235477D01*
X104825288Y-128511603D01*
X104825559Y-128749393D01*
X104825838Y-128948219D01*
X104826125Y-129107451D01*
X104826419Y-129226460D01*
X104826722Y-129304617D01*
X104827031Y-129341292D01*
X104827142Y-129344213D01*
X104834685Y-129345250D01*
X104856826Y-129346259D01*
X104894034Y-129347241D01*
X104946773Y-129348195D01*
X105015512Y-129349123D01*
X105100716Y-129350024D01*
X105202853Y-129350899D01*
X105322388Y-129351747D01*
X105459789Y-129352570D01*
X105615522Y-129353367D01*
X105790053Y-129354138D01*
X105983849Y-129354884D01*
X106197377Y-129355605D01*
X106431104Y-129356301D01*
X106685495Y-129356973D01*
X106961018Y-129357620D01*
X107258140Y-129358243D01*
X107577326Y-129358842D01*
X107919043Y-129359418D01*
X108283758Y-129359970D01*
X108671938Y-129360499D01*
X109084049Y-129361005D01*
X109520558Y-129361488D01*
X109981931Y-129361948D01*
X110468635Y-129362387D01*
X110981136Y-129362803D01*
X111519902Y-129363197D01*
X112085399Y-129363570D01*
X112678092Y-129363922D01*
X113298450Y-129364252D01*
X113946938Y-129364561D01*
X114624023Y-129364850D01*
X115330172Y-129365119D01*
X116065852Y-129365367D01*
X116831528Y-129365595D01*
X117627668Y-129365803D01*
X118454738Y-129365992D01*
X119313204Y-129366161D01*
X120203534Y-129366312D01*
X121126194Y-129366443D01*
X122081650Y-129366556D01*
X123070369Y-129366651D01*
X124092818Y-129366727D01*
X125149464Y-129366786D01*
X126240772Y-129366826D01*
X127367210Y-129366850D01*
X128529243Y-129366856D01*
X129727340Y-129366845D01*
X130961965Y-129366817D01*
X132233587Y-129366773D01*
X133542671Y-129366712D01*
X134889684Y-129366636D01*
X136275093Y-129366543D01*
X137699364Y-129366435D01*
X139162964Y-129366312D01*
X140666359Y-129366173D01*
X142210016Y-129366019D01*
X143794402Y-129365851D01*
X145419984Y-129365668D01*
X147087227Y-129365471D01*
X147832629Y-129365380D01*
X190828083Y-129360083D01*
X190828083Y-43359917D01*
X104827917Y-43359917D01*
X104822513Y-86338833D01*
X104822348Y-87688605D01*
X104822195Y-89028364D01*
X104822052Y-90357482D01*
X104821920Y-91675330D01*
X104821798Y-92981277D01*
X104821688Y-94274694D01*
X104821588Y-95554953D01*
X104821499Y-96821423D01*
X104821420Y-98073475D01*
X104821352Y-99310480D01*
X104821294Y-100531808D01*
X104821247Y-101736830D01*
X104821209Y-102924917D01*
X104821182Y-104095440D01*
X104821165Y-105247767D01*
X104821159Y-106381272D01*
X102828351Y-106381272D01*
X102828254Y-105323365D01*
X102828160Y-104160665D01*
X102828076Y-102962247D01*
X102828001Y-101727586D01*
X102827935Y-100456153D01*
X102827877Y-99147421D01*
X102827827Y-97800864D01*
X102827785Y-96415953D01*
X102827749Y-94992163D01*
X102827721Y-93528965D01*
X102827699Y-92025832D01*
X102827683Y-90482237D01*
X102827672Y-88897654D01*
X102827667Y-87271553D01*
X102827667Y-86360000D01*
X102827669Y-84710858D01*
X102827676Y-83103523D01*
X102827689Y-81537466D01*
X102827708Y-80012162D01*
X102827733Y-78527081D01*
X102827764Y-77081698D01*
X102827803Y-75675485D01*
X102827849Y-74307914D01*
X102827902Y-72978460D01*
X102827964Y-71686593D01*
X102828034Y-70431788D01*
X102828113Y-69213516D01*
X102828201Y-68031251D01*
X102828299Y-66884466D01*
X102828407Y-65772632D01*
X102828526Y-64695224D01*
X102828655Y-63651714D01*
X102828795Y-62641574D01*
X102828947Y-61664277D01*
X102829111Y-60719296D01*
X102829288Y-59806105D01*
X102829477Y-58924175D01*
X102829679Y-58072979D01*
X102829895Y-57251991D01*
X102830124Y-56460682D01*
X102830368Y-55698526D01*
X102830627Y-54964996D01*
X102830900Y-54259564D01*
X102831189Y-53581704D01*
X102831494Y-52930887D01*
X102831815Y-52306586D01*
X102832153Y-51708276D01*
X102832507Y-51135427D01*
X102832879Y-50587513D01*
X102833269Y-50064007D01*
X102833676Y-49564382D01*
X102834102Y-49088110D01*
X102834548Y-48634664D01*
X102835012Y-48203517D01*
X102835496Y-47794141D01*
X102836000Y-47406010D01*
X102836524Y-47038596D01*
X102837070Y-46691372D01*
X102837636Y-46363811D01*
X102838224Y-46055385D01*
X102838834Y-45765568D01*
X102839466Y-45493831D01*
X102840121Y-45239649D01*
X102840800Y-45002493D01*
X102841501Y-44781836D01*
X102842227Y-44577152D01*
X102842976Y-44387913D01*
X102843751Y-44213591D01*
X102844550Y-44053660D01*
X102845375Y-43907592D01*
X102846226Y-43774860D01*
X102847103Y-43654938D01*
X102848006Y-43547296D01*
X102848936Y-43451409D01*
X102849894Y-43366750D01*
X102850880Y-43292790D01*
X102851893Y-43229003D01*
X102852935Y-43174861D01*
X102854006Y-43129838D01*
X102855106Y-43093405D01*
X102856236Y-43065037D01*
X102857396Y-43044205D01*
X102858586Y-43030383D01*
X102859253Y-43025580D01*
X102928753Y-42745900D01*
X103035071Y-42483724D01*
X103175331Y-42241925D01*
X103346657Y-42023375D01*
X103546171Y-41830945D01*
X103770997Y-41667507D01*
X104018258Y-41535933D01*
X104285078Y-41439094D01*
X104496665Y-41390925D01*
X104506957Y-41389722D01*
X104524022Y-41388551D01*
X104548386Y-41387411D01*
X104580577Y-41386301D01*
X104621120Y-41385223D01*
X104670543Y-41384174D01*
X104729371Y-41383155D01*
X104798131Y-41382165D01*
X104877349Y-41381205D01*
X104967553Y-41380274D01*
X105069268Y-41379371D01*
X105183021Y-41378496D01*
X105309339Y-41377649D01*
X105448747Y-41376830D01*
X105601773Y-41376039D01*
X105768943Y-41375274D01*
X105950784Y-41374536D01*
X106147821Y-41373824D01*
X106360581Y-41373139D01*
X106589592Y-41372479D01*
X106835378Y-41371844D01*
X107098468Y-41371235D01*
X107379387Y-41370651D01*
X107678661Y-41370091D01*
X107996818Y-41369555D01*
X108334384Y-41369043D01*
X108691884Y-41368554D01*
X109069847Y-41368089D01*
X109468797Y-41367647D01*
X109889263Y-41367227D01*
X110331769Y-41366830D01*
X110796843Y-41366454D01*
X111285011Y-41366100D01*
X111796800Y-41365768D01*
X112332736Y-41365457D01*
X112893345Y-41365166D01*
X113479154Y-41364896D01*
X114090690Y-41364646D01*
X114728479Y-41364415D01*
X115393048Y-41364204D01*
X116084922Y-41364013D01*
X116804628Y-41363840D01*
X117552694Y-41363685D01*
X118329645Y-41363549D01*
X119136008Y-41363431D01*
X119972309Y-41363330D01*
X120839075Y-41363247D01*
X121736833Y-41363180D01*
X122666108Y-41363130D01*
X123627427Y-41363097D01*
X124621318Y-41363079D01*
X125648305Y-41363078D01*
X126708917Y-41363091D01*
X126708917Y-41363091D01*
G37*
X126708917Y-41363091D02*
X127803678Y-41363120D01*
X128933116Y-41363163D01*
X130097757Y-41363221D01*
X131298128Y-41363293D01*
X132534756Y-41363379D01*
X133808165Y-41363478D01*
X135118884Y-41363591D01*
X136467439Y-41363716D01*
X137854355Y-41363854D01*
X139280160Y-41364004D01*
X140745380Y-41364166D01*
X142250542Y-41364340D01*
X143796171Y-41364525D01*
X145382795Y-41364721D01*
X147010940Y-41364928D01*
X147912667Y-41365045D01*
X149551321Y-41365259D01*
X151148183Y-41365470D01*
X152703790Y-41365680D01*
X154218684Y-41365887D01*
X155693403Y-41366093D01*
X157128488Y-41366299D01*
X158524477Y-41366504D01*
X159881912Y-41366710D01*
X161201332Y-41366916D01*
X162483276Y-41367124D01*
X163728285Y-41367334D01*
X164936897Y-41367546D01*
X166109654Y-41367762D01*
X167247094Y-41367980D01*
X168349757Y-41368203D01*
X169418184Y-41368430D01*
X170452913Y-41368663D01*
X171454485Y-41368900D01*
X172423439Y-41369144D01*
X173360316Y-41369395D01*
X174265654Y-41369653D01*
X175139995Y-41369918D01*
X175983876Y-41370192D01*
X176797839Y-41370475D01*
X177582423Y-41370766D01*
X178338167Y-41371068D01*
X179065612Y-41371380D01*
X179765298Y-41371703D01*
X180437763Y-41372037D01*
X181083548Y-41372383D01*
X181703193Y-41372741D01*
X182297237Y-41373113D01*
X182866220Y-41373497D01*
X183410682Y-41373896D01*
X183931163Y-41374310D01*
X184428202Y-41374738D01*
X184902339Y-41375182D01*
X185354114Y-41375642D01*
X185784066Y-41376119D01*
X186192737Y-41376613D01*
X186580664Y-41377125D01*
X186948388Y-41377654D01*
X187296449Y-41378203D01*
X187625386Y-41378771D01*
X187935740Y-41379358D01*
X188228050Y-41379966D01*
X188502855Y-41380595D01*
X188760696Y-41381245D01*
X189002112Y-41381917D01*
X189227644Y-41382611D01*
X189437830Y-41383329D01*
X189633211Y-41384070D01*
X189814326Y-41384834D01*
X189981715Y-41385624D01*
X190135918Y-41386438D01*
X190277475Y-41387278D01*
X190406925Y-41388144D01*
X190524808Y-41389037D01*
X190631664Y-41389957D01*
X190728033Y-41390904D01*
X190814454Y-41391880D01*
X190891468Y-41392884D01*
X190959613Y-41393918D01*
X191019430Y-41394981D01*
X191071459Y-41396075D01*
X191116239Y-41397199D01*
X191154310Y-41398355D01*
X191186212Y-41399543D01*
X191212484Y-41400763D01*
X191233667Y-41402016D01*
X191250300Y-41403303D01*
X191262923Y-41404623D01*
X191272075Y-41405978D01*
X191277991Y-41407283D01*
X191569016Y-41507584D01*
X191834448Y-41639531D01*
X192072513Y-41801233D01*
X192281436Y-41990797D01*
X192459441Y-42206334D01*
X192604756Y-42445952D01*
X192715604Y-42707760D01*
X192790211Y-42989868D01*
X192796746Y-43025580D01*
X192797954Y-43035775D01*
X192799130Y-43052689D01*
X192800276Y-43076850D01*
X192801393Y-43108785D01*
X192802480Y-43149022D01*
X192803537Y-43198087D01*
X192804567Y-43256508D01*
X192805567Y-43324811D01*
X192806540Y-43403525D01*
X192807486Y-43493177D01*
X192808404Y-43594293D01*
X192809295Y-43707401D01*
X192810160Y-43833028D01*
X192810999Y-43971701D01*
X192811813Y-44123948D01*
X192812601Y-44290295D01*
X192813364Y-44471271D01*
X192814103Y-44667401D01*
X192814817Y-44879214D01*
X192815508Y-45107237D01*
X192816176Y-45351997D01*
X192816821Y-45614021D01*
X192817443Y-45893836D01*
X192818043Y-46191969D01*
X192818621Y-46508949D01*
X192819178Y-46845301D01*
X192819714Y-47201553D01*
X192820229Y-47578233D01*
X192820724Y-47975868D01*
X192821199Y-48394984D01*
X192821655Y-48836110D01*
X192822091Y-49299772D01*
X192822509Y-49786497D01*
X192822909Y-50296814D01*
X192823290Y-50831248D01*
X192823654Y-51390327D01*
X192824001Y-51974579D01*
X192824331Y-52584531D01*
X192824645Y-53220709D01*
X192824942Y-53883642D01*
X192825224Y-54573856D01*
X192825491Y-55291878D01*
X192825743Y-56038236D01*
X192825980Y-56813457D01*
X192826204Y-57618069D01*
X192826413Y-58452598D01*
X192826610Y-59317571D01*
X192826793Y-60213517D01*
X192826964Y-61140961D01*
X192827122Y-62100432D01*
X192827269Y-63092457D01*
X192827404Y-64117562D01*
X192827529Y-65176275D01*
X192827642Y-66269123D01*
X192827746Y-67396634D01*
X192827839Y-68559335D01*
X192827923Y-69757752D01*
X192827998Y-70992414D01*
X192828065Y-72263847D01*
X192828123Y-73572579D01*
X192828173Y-74919136D01*
X192828215Y-76304046D01*
X192828250Y-77727837D01*
X192828279Y-79191035D01*
X192828301Y-80694168D01*
X192828317Y-82237762D01*
X192828327Y-83822346D01*
X192828332Y-85448446D01*
X192828333Y-86360000D01*
X192828331Y-88009141D01*
X192828323Y-89616477D01*
X192828310Y-91182533D01*
X192828292Y-92707838D01*
X192828267Y-94192918D01*
X192828235Y-95638302D01*
X192828197Y-97044515D01*
X192828151Y-98412085D01*
X192828098Y-99741540D01*
X192828036Y-101033407D01*
X192827966Y-102288212D01*
X192827887Y-103506484D01*
X192827798Y-104688749D01*
X192827700Y-105835534D01*
X192827592Y-106947367D01*
X192827474Y-108024776D01*
X192827345Y-109068286D01*
X192827204Y-110078426D01*
X192827052Y-111055723D01*
X192826888Y-112000703D01*
X192826712Y-112913895D01*
X192826523Y-113795825D01*
X192826321Y-114647021D01*
X192826105Y-115468009D01*
X192825875Y-116259318D01*
X192825631Y-117021473D01*
X192825373Y-117755003D01*
X192825099Y-118460435D01*
X192824810Y-119138296D01*
X192824506Y-119789113D01*
X192824185Y-120413413D01*
X192823847Y-121011724D01*
X192823493Y-121584573D01*
X192823121Y-122132486D01*
X192822731Y-122655992D01*
X192822323Y-123155618D01*
X192821897Y-123631890D01*
X192821452Y-124085336D01*
X192820988Y-124516483D01*
X192820504Y-124925858D01*
X192820000Y-125313990D01*
X192819475Y-125681404D01*
X192818930Y-126028628D01*
X192818364Y-126356189D01*
X192817776Y-126664615D01*
X192817166Y-126954432D01*
X192816533Y-127226168D01*
X192815878Y-127480351D01*
X192815200Y-127717507D01*
X192814499Y-127938163D01*
X192813773Y-128142848D01*
X192813023Y-128332087D01*
X192812249Y-128506409D01*
X192811449Y-128666340D01*
X192810625Y-128812407D01*
X192809774Y-128945139D01*
X192808897Y-129065062D01*
X192807994Y-129172703D01*
X192807063Y-129268590D01*
X192806106Y-129353250D01*
X192805120Y-129427210D01*
X192804107Y-129490997D01*
X192803065Y-129545139D01*
X192801994Y-129590162D01*
X192800894Y-129626594D01*
X192799764Y-129654963D01*
X192798604Y-129675794D01*
X192797414Y-129689617D01*
X192796746Y-129694420D01*
X192727211Y-129974231D01*
X192620832Y-130236510D01*
X192480475Y-130478390D01*
X192309010Y-130697002D01*
X192109304Y-130889478D01*
X191884225Y-131052951D01*
X191636641Y-131184553D01*
X191369420Y-131281415D01*
X191162420Y-131328746D01*
X191152231Y-131329953D01*
X191135333Y-131331129D01*
X191111198Y-131332274D01*
X191079298Y-131333389D01*
X191039107Y-131334474D01*
X190990097Y-131335530D01*
X190931741Y-131336557D01*
X190863512Y-131337555D01*
X190784883Y-131338524D01*
X190695327Y-131339465D01*
X190594316Y-131340379D01*
X190481324Y-131341266D01*
X190355823Y-131342125D01*
X190217286Y-131342958D01*
X190065186Y-131343765D01*
X189898996Y-131344546D01*
X189718188Y-131345301D01*
X189522236Y-131346032D01*
X189310612Y-131346737D01*
X189082790Y-131347418D01*
X188838241Y-131348075D01*
X188576439Y-131348709D01*
X188296857Y-131349319D01*
X187998967Y-131349906D01*
X187682243Y-131350470D01*
X187346157Y-131351012D01*
X186990182Y-131351533D01*
X186613791Y-131352031D01*
X186216456Y-131352509D01*
X185797652Y-131352966D01*
X185356849Y-131353402D01*
X184893522Y-131353818D01*
X184407143Y-131354215D01*
X183897185Y-131354592D01*
X183363121Y-131354950D01*
X182804424Y-131355290D01*
X182220566Y-131355611D01*
X181611020Y-131355915D01*
X180975260Y-131356200D01*
X180312757Y-131356469D01*
X179622986Y-131356721D01*
X178905418Y-131356956D01*
X178159526Y-131357175D01*
X177384785Y-131357379D01*
X176580665Y-131357567D01*
X175746640Y-131357740D01*
X174882184Y-131357898D01*
X173986768Y-131358042D01*
X173059866Y-131358172D01*
X172100950Y-131358289D01*
X171109494Y-131358392D01*
X170084969Y-131358483D01*
X169026850Y-131358561D01*
X167934609Y-131358626D01*
X166807718Y-131358680D01*
X165645651Y-131358723D01*
X164447880Y-131358755D01*
X163213878Y-131358775D01*
X161943119Y-131358786D01*
X160635074Y-131358786D01*
X159289218Y-131358777D01*
X157905021Y-131358759D01*
X156481958Y-131358732D01*
X155019502Y-131358696D01*
X153517125Y-131358652D01*
X151974299Y-131358600D01*
X150390499Y-131358541D01*
X148765196Y-131358475D01*
X147809352Y-131358434D01*
X146146281Y-131358357D01*
X144525034Y-131358276D01*
X142945103Y-131358190D01*
X141405979Y-131358098D01*
X139907152Y-131358000D01*
X138448115Y-131357896D01*
X137028358Y-131357785D01*
X135647371Y-131357668D01*
X134304648Y-131357542D01*
X132999678Y-131357410D01*
X131731952Y-131357269D01*
X130500962Y-131357119D01*
X129306200Y-131356961D01*
X128147155Y-131356794D01*
X127023319Y-131356617D01*
X125934184Y-131356430D01*
X124879240Y-131356233D01*
X123857979Y-131356025D01*
X122869892Y-131355806D01*
X121914469Y-131355576D01*
X120991203Y-131355334D01*
X120099583Y-131355080D01*
X119239102Y-131354814D01*
X118409251Y-131354534D01*
X117609519Y-131354242D01*
X116839400Y-131353936D01*
X116098383Y-131353616D01*
X115385960Y-131353282D01*
X114701623Y-131352933D01*
X114044861Y-131352569D01*
X113415167Y-131352189D01*
X112812031Y-131351794D01*
X112234945Y-131351383D01*
X111683399Y-131350955D01*
X111156886Y-131350511D01*
X110654895Y-131350049D01*
X110176919Y-131349570D01*
X109722448Y-131349073D01*
X109290973Y-131348557D01*
X108881985Y-131348023D01*
X108494977Y-131347470D01*
X108129438Y-131346897D01*
X107784860Y-131346305D01*
X107460734Y-131345692D01*
X107156552Y-131345059D01*
X106871803Y-131344405D01*
X106605981Y-131343730D01*
X106358574Y-131343034D01*
X106129076Y-131342315D01*
X105916976Y-131341574D01*
X105721766Y-131340810D01*
X105542938Y-131340024D01*
X105379982Y-131339214D01*
X105232389Y-131338380D01*
X105099650Y-131337522D01*
X104981258Y-131336640D01*
X104876702Y-131335732D01*
X104785474Y-131334800D01*
X104707065Y-131333842D01*
X104640966Y-131332858D01*
X104586669Y-131331847D01*
X104543664Y-131330810D01*
X104511442Y-131329746D01*
X104489496Y-131328654D01*
X104477315Y-131327535D01*
X104476430Y-131327389D01*
X104200057Y-131256512D01*
X103940539Y-131148652D01*
X103700861Y-131006822D01*
X103484007Y-130834035D01*
X103292960Y-130633304D01*
X103130704Y-130407642D01*
X103000223Y-130160061D01*
X102904501Y-129893576D01*
X102859253Y-129694420D01*
X102858046Y-129684225D01*
X102856870Y-129667311D01*
X102855723Y-129643149D01*
X102854607Y-129611214D01*
X102853520Y-129570978D01*
X102852462Y-129521913D01*
X102851433Y-129463492D01*
X102850432Y-129395188D01*
X102849459Y-129316474D01*
X102848514Y-129226823D01*
X102847596Y-129125707D01*
X102846704Y-129012599D01*
X102845839Y-128886972D01*
X102845000Y-128748299D01*
X102844187Y-128596052D01*
X102843399Y-128429705D01*
X102842636Y-128248729D01*
X102841897Y-128052598D01*
X102841182Y-127840785D01*
X102840491Y-127612762D01*
X102839823Y-127368003D01*
X102839179Y-127105979D01*
X102838557Y-126826164D01*
X102837957Y-126528030D01*
X102837378Y-126211051D01*
X102836821Y-125874699D01*
X102836286Y-125518446D01*
X102835770Y-125141766D01*
X102835275Y-124744132D01*
X102834800Y-124325015D01*
X102834345Y-123883890D01*
X102833908Y-123420228D01*
X102833490Y-122933502D01*
X102833091Y-122423186D01*
X102832709Y-121888752D01*
X102832345Y-121329672D01*
X102831998Y-120745420D01*
X102831668Y-120135469D01*
X102831355Y-119499290D01*
X102831057Y-118836358D01*
X102830775Y-118146144D01*
X102830508Y-117428122D01*
X102830257Y-116681763D01*
X102830019Y-115906542D01*
X102829796Y-115101931D01*
X102829586Y-114267402D01*
X102829390Y-113402428D01*
X102829207Y-112506483D01*
X102829036Y-111579038D01*
X102828878Y-110619568D01*
X102828731Y-109627543D01*
X102828595Y-108602438D01*
X102828471Y-107543725D01*
X102828357Y-106450876D01*
X102828351Y-106381272D01*
X104821159Y-106381272D01*
X104821162Y-107495323D01*
X104821175Y-108589292D01*
X104821197Y-109662549D01*
X104821230Y-110714465D01*
X104821272Y-111744410D01*
X104821324Y-112751755D01*
X104821386Y-113735871D01*
X104821457Y-114696128D01*
X104821537Y-115631897D01*
X104821627Y-116542548D01*
X104821726Y-117427453D01*
X104821835Y-118285980D01*
X104821952Y-119117502D01*
X104822079Y-119921389D01*
X104822215Y-120697012D01*
X104822359Y-121443740D01*
X104822513Y-122160945D01*
X104822675Y-122847997D01*
X104822847Y-123504267D01*
X104823026Y-124129125D01*
X104823215Y-124721942D01*
X104823412Y-125282089D01*
X104823617Y-125808936D01*
X104823831Y-126301854D01*
X104824054Y-126760214D01*
X104824284Y-127183385D01*
X104824523Y-127570739D01*
X104824770Y-127921646D01*
X104825025Y-128235477D01*
X104825288Y-128511603D01*
X104825559Y-128749393D01*
X104825838Y-128948219D01*
X104826125Y-129107451D01*
X104826419Y-129226460D01*
X104826722Y-129304617D01*
X104827031Y-129341292D01*
X104827142Y-129344213D01*
X104834685Y-129345250D01*
X104856826Y-129346259D01*
X104894034Y-129347241D01*
X104946773Y-129348195D01*
X105015512Y-129349123D01*
X105100716Y-129350024D01*
X105202853Y-129350899D01*
X105322388Y-129351747D01*
X105459789Y-129352570D01*
X105615522Y-129353367D01*
X105790053Y-129354138D01*
X105983849Y-129354884D01*
X106197377Y-129355605D01*
X106431104Y-129356301D01*
X106685495Y-129356973D01*
X106961018Y-129357620D01*
X107258140Y-129358243D01*
X107577326Y-129358842D01*
X107919043Y-129359418D01*
X108283758Y-129359970D01*
X108671938Y-129360499D01*
X109084049Y-129361005D01*
X109520558Y-129361488D01*
X109981931Y-129361948D01*
X110468635Y-129362387D01*
X110981136Y-129362803D01*
X111519902Y-129363197D01*
X112085399Y-129363570D01*
X112678092Y-129363922D01*
X113298450Y-129364252D01*
X113946938Y-129364561D01*
X114624023Y-129364850D01*
X115330172Y-129365119D01*
X116065852Y-129365367D01*
X116831528Y-129365595D01*
X117627668Y-129365803D01*
X118454738Y-129365992D01*
X119313204Y-129366161D01*
X120203534Y-129366312D01*
X121126194Y-129366443D01*
X122081650Y-129366556D01*
X123070369Y-129366651D01*
X124092818Y-129366727D01*
X125149464Y-129366786D01*
X126240772Y-129366826D01*
X127367210Y-129366850D01*
X128529243Y-129366856D01*
X129727340Y-129366845D01*
X130961965Y-129366817D01*
X132233587Y-129366773D01*
X133542671Y-129366712D01*
X134889684Y-129366636D01*
X136275093Y-129366543D01*
X137699364Y-129366435D01*
X139162964Y-129366312D01*
X140666359Y-129366173D01*
X142210016Y-129366019D01*
X143794402Y-129365851D01*
X145419984Y-129365668D01*
X147087227Y-129365471D01*
X147832629Y-129365380D01*
X190828083Y-129360083D01*
X190828083Y-43359917D01*
X104827917Y-43359917D01*
X104822513Y-86338833D01*
X104822348Y-87688605D01*
X104822195Y-89028364D01*
X104822052Y-90357482D01*
X104821920Y-91675330D01*
X104821798Y-92981277D01*
X104821688Y-94274694D01*
X104821588Y-95554953D01*
X104821499Y-96821423D01*
X104821420Y-98073475D01*
X104821352Y-99310480D01*
X104821294Y-100531808D01*
X104821247Y-101736830D01*
X104821209Y-102924917D01*
X104821182Y-104095440D01*
X104821165Y-105247767D01*
X104821159Y-106381272D01*
X102828351Y-106381272D01*
X102828254Y-105323365D01*
X102828160Y-104160665D01*
X102828076Y-102962247D01*
X102828001Y-101727586D01*
X102827935Y-100456153D01*
X102827877Y-99147421D01*
X102827827Y-97800864D01*
X102827785Y-96415953D01*
X102827749Y-94992163D01*
X102827721Y-93528965D01*
X102827699Y-92025832D01*
X102827683Y-90482237D01*
X102827672Y-88897654D01*
X102827667Y-87271553D01*
X102827667Y-86360000D01*
X102827669Y-84710858D01*
X102827676Y-83103523D01*
X102827689Y-81537466D01*
X102827708Y-80012162D01*
X102827733Y-78527081D01*
X102827764Y-77081698D01*
X102827803Y-75675485D01*
X102827849Y-74307914D01*
X102827902Y-72978460D01*
X102827964Y-71686593D01*
X102828034Y-70431788D01*
X102828113Y-69213516D01*
X102828201Y-68031251D01*
X102828299Y-66884466D01*
X102828407Y-65772632D01*
X102828526Y-64695224D01*
X102828655Y-63651714D01*
X102828795Y-62641574D01*
X102828947Y-61664277D01*
X102829111Y-60719296D01*
X102829288Y-59806105D01*
X102829477Y-58924175D01*
X102829679Y-58072979D01*
X102829895Y-57251991D01*
X102830124Y-56460682D01*
X102830368Y-55698526D01*
X102830627Y-54964996D01*
X102830900Y-54259564D01*
X102831189Y-53581704D01*
X102831494Y-52930887D01*
X102831815Y-52306586D01*
X102832153Y-51708276D01*
X102832507Y-51135427D01*
X102832879Y-50587513D01*
X102833269Y-50064007D01*
X102833676Y-49564382D01*
X102834102Y-49088110D01*
X102834548Y-48634664D01*
X102835012Y-48203517D01*
X102835496Y-47794141D01*
X102836000Y-47406010D01*
X102836524Y-47038596D01*
X102837070Y-46691372D01*
X102837636Y-46363811D01*
X102838224Y-46055385D01*
X102838834Y-45765568D01*
X102839466Y-45493831D01*
X102840121Y-45239649D01*
X102840800Y-45002493D01*
X102841501Y-44781836D01*
X102842227Y-44577152D01*
X102842976Y-44387913D01*
X102843751Y-44213591D01*
X102844550Y-44053660D01*
X102845375Y-43907592D01*
X102846226Y-43774860D01*
X102847103Y-43654938D01*
X102848006Y-43547296D01*
X102848936Y-43451409D01*
X102849894Y-43366750D01*
X102850880Y-43292790D01*
X102851893Y-43229003D01*
X102852935Y-43174861D01*
X102854006Y-43129838D01*
X102855106Y-43093405D01*
X102856236Y-43065037D01*
X102857396Y-43044205D01*
X102858586Y-43030383D01*
X102859253Y-43025580D01*
X102928753Y-42745900D01*
X103035071Y-42483724D01*
X103175331Y-42241925D01*
X103346657Y-42023375D01*
X103546171Y-41830945D01*
X103770997Y-41667507D01*
X104018258Y-41535933D01*
X104285078Y-41439094D01*
X104496665Y-41390925D01*
X104506957Y-41389722D01*
X104524022Y-41388551D01*
X104548386Y-41387411D01*
X104580577Y-41386301D01*
X104621120Y-41385223D01*
X104670543Y-41384174D01*
X104729371Y-41383155D01*
X104798131Y-41382165D01*
X104877349Y-41381205D01*
X104967553Y-41380274D01*
X105069268Y-41379371D01*
X105183021Y-41378496D01*
X105309339Y-41377649D01*
X105448747Y-41376830D01*
X105601773Y-41376039D01*
X105768943Y-41375274D01*
X105950784Y-41374536D01*
X106147821Y-41373824D01*
X106360581Y-41373139D01*
X106589592Y-41372479D01*
X106835378Y-41371844D01*
X107098468Y-41371235D01*
X107379387Y-41370651D01*
X107678661Y-41370091D01*
X107996818Y-41369555D01*
X108334384Y-41369043D01*
X108691884Y-41368554D01*
X109069847Y-41368089D01*
X109468797Y-41367647D01*
X109889263Y-41367227D01*
X110331769Y-41366830D01*
X110796843Y-41366454D01*
X111285011Y-41366100D01*
X111796800Y-41365768D01*
X112332736Y-41365457D01*
X112893345Y-41365166D01*
X113479154Y-41364896D01*
X114090690Y-41364646D01*
X114728479Y-41364415D01*
X115393048Y-41364204D01*
X116084922Y-41364013D01*
X116804628Y-41363840D01*
X117552694Y-41363685D01*
X118329645Y-41363549D01*
X119136008Y-41363431D01*
X119972309Y-41363330D01*
X120839075Y-41363247D01*
X121736833Y-41363180D01*
X122666108Y-41363130D01*
X123627427Y-41363097D01*
X124621318Y-41363079D01*
X125648305Y-41363078D01*
X126708917Y-41363091D01*
G36*
X156775084Y-56696229D02*
X156984991Y-56769511D01*
X157182958Y-56838918D01*
X157365367Y-56903161D01*
X157528599Y-56960952D01*
X157669035Y-57011002D01*
X157783055Y-57052023D01*
X157867042Y-57082726D01*
X157917375Y-57101822D01*
X157930874Y-57107762D01*
X157927589Y-57130653D01*
X157907766Y-57184688D01*
X157874164Y-57263328D01*
X157829539Y-57360036D01*
X157791000Y-57439471D01*
X157738058Y-57547020D01*
X157691530Y-57642592D01*
X157654783Y-57719190D01*
X157631184Y-57769814D01*
X157624280Y-57786076D01*
X157610717Y-57796064D01*
X157577474Y-57791112D01*
X157518829Y-57769530D01*
X157429058Y-57729624D01*
X157421627Y-57726178D01*
X157218572Y-57638995D01*
X157012198Y-57563582D01*
X156810746Y-57502257D01*
X156622462Y-57457339D01*
X156455586Y-57431147D01*
X156351491Y-57425183D01*
X156266791Y-57431313D01*
X156180733Y-57451641D01*
X156086663Y-57489106D01*
X155977927Y-57546649D01*
X155847870Y-57627210D01*
X155756370Y-57688135D01*
X155579430Y-57812750D01*
X155428618Y-57928418D01*
X155306152Y-58033086D01*
X155214244Y-58124699D01*
X155155111Y-58201205D01*
X155130968Y-58260551D01*
X155130500Y-58268228D01*
X155150287Y-58319143D01*
X155206287Y-58376488D01*
X155293456Y-58437205D01*
X155406750Y-58498235D01*
X155541125Y-58556518D01*
X155691538Y-58608997D01*
X155693354Y-58609559D01*
X155802994Y-58640349D01*
X155933793Y-58672268D01*
X156076038Y-58703431D01*
X156220014Y-58731953D01*
X156356006Y-58755949D01*
X156474299Y-58773532D01*
X156565178Y-58782817D01*
X156591000Y-58783781D01*
X156703649Y-58776018D01*
X156816125Y-58748924D01*
X156938078Y-58699220D01*
X157079155Y-58623626D01*
X157102389Y-58609954D01*
X157171354Y-58570201D01*
X157224773Y-58541707D01*
X157253736Y-58529144D01*
X157256359Y-58529217D01*
X157248528Y-58549059D01*
X157223850Y-58603509D01*
X157183975Y-58689095D01*
X157130549Y-58802346D01*
X157065222Y-58939788D01*
X156989640Y-59097952D01*
X156905453Y-59273364D01*
X156814308Y-59462553D01*
X156756702Y-59581783D01*
X156662212Y-59777638D01*
X156573791Y-59961871D01*
X156493077Y-60131004D01*
X156421709Y-60281558D01*
X156361323Y-60410054D01*
X156313557Y-60513014D01*
X156280051Y-60586960D01*
X156262440Y-60628413D01*
X156260190Y-60636246D01*
X156281202Y-60630450D01*
X156334568Y-60609004D01*
X156414422Y-60574459D01*
X156514896Y-60529366D01*
X156630124Y-60476275D01*
X156656068Y-60464151D01*
X156773619Y-60409639D01*
X156877582Y-60362486D01*
X156962108Y-60325260D01*
X157021348Y-60300524D01*
X157049455Y-60290845D01*
X157050865Y-60290976D01*
X157043139Y-60310698D01*
X157016166Y-60358426D01*
X156974209Y-60426966D01*
X156922404Y-60507787D01*
X156754264Y-60779026D01*
X156585351Y-61077722D01*
X156420403Y-61394033D01*
X156264160Y-61718114D01*
X156121365Y-62040120D01*
X155996755Y-62350207D01*
X155895072Y-62638531D01*
X155892331Y-62647035D01*
X155835937Y-62839913D01*
X155801898Y-62998639D01*
X155790006Y-63124883D01*
X155800052Y-63220311D01*
X155815440Y-63261410D01*
X155867993Y-63333742D01*
X155957925Y-63419291D01*
X156085870Y-63518570D01*
X156252465Y-63632097D01*
X156344396Y-63690585D01*
X156517276Y-63801237D01*
X156708016Y-63928065D01*
X156911997Y-64067658D01*
X157124604Y-64216600D01*
X157341218Y-64371479D01*
X157557225Y-64528883D01*
X157768005Y-64685397D01*
X157968943Y-64837609D01*
X158155422Y-64982105D01*
X158322825Y-65115472D01*
X158466534Y-65234297D01*
X158581934Y-65335167D01*
X158630645Y-65380768D01*
X158745465Y-65497435D01*
X158826938Y-65593238D01*
X158876962Y-65670762D01*
X158897437Y-65732592D01*
X158898167Y-65744910D01*
X158894098Y-65783509D01*
X158881482Y-65844436D01*
X158859701Y-65929723D01*
X158828138Y-66041401D01*
X158786174Y-66181502D01*
X158733194Y-66352058D01*
X158668579Y-66555099D01*
X158591712Y-66792658D01*
X158501977Y-67066765D01*
X158432241Y-67278250D01*
X158367018Y-67476108D01*
X158304579Y-67666546D01*
X158246467Y-67844788D01*
X158194222Y-68006060D01*
X158149388Y-68145588D01*
X158113505Y-68258596D01*
X158088116Y-68340310D01*
X158075858Y-68381884D01*
X158055080Y-68460519D01*
X158045857Y-68510904D01*
X158047959Y-68545450D01*
X158061154Y-68576567D01*
X158071899Y-68594816D01*
X158112195Y-68645676D01*
X158182110Y-68716902D01*
X158276814Y-68804252D01*
X158391477Y-68903486D01*
X158521270Y-69010363D01*
X158661364Y-69120640D01*
X158731115Y-69173736D01*
X159492021Y-69772785D01*
X160228076Y-70405507D01*
X160937857Y-71070314D01*
X161619941Y-71765619D01*
X162272904Y-72489834D01*
X162895325Y-73241373D01*
X163485779Y-74018648D01*
X164042844Y-74820073D01*
X164565097Y-75644059D01*
X164631998Y-75755500D01*
X164871860Y-76167899D01*
X165102577Y-76586144D01*
X165327637Y-77017131D01*
X165550527Y-77467754D01*
X165774737Y-77944908D01*
X166003754Y-78455486D01*
X166040280Y-78538917D01*
X166142346Y-78774617D01*
X166231146Y-78984450D01*
X166309677Y-79176559D01*
X166380935Y-79359090D01*
X166447916Y-79540188D01*
X166513618Y-79727995D01*
X166581038Y-79930658D01*
X166653171Y-80156321D01*
X166733015Y-80413128D01*
X166748987Y-80465083D01*
X166866458Y-80851978D01*
X166970755Y-81205589D01*
X167063340Y-81532351D01*
X167145677Y-81838702D01*
X167219229Y-82131081D01*
X167285459Y-82415923D01*
X167345829Y-82699666D01*
X167401802Y-82988747D01*
X167454842Y-83289604D01*
X167506411Y-83608674D01*
X167557972Y-83952394D01*
X167585984Y-84148083D01*
X167621694Y-84394413D01*
X167653854Y-84601379D01*
X167683045Y-84771746D01*
X167709845Y-84908281D01*
X167734834Y-85013752D01*
X167758592Y-85090924D01*
X167781699Y-85142565D01*
X167799409Y-85166667D01*
X167860694Y-85205276D01*
X167958241Y-85237926D01*
X168086261Y-85263522D01*
X168238964Y-85280966D01*
X168410560Y-85289163D01*
X168448700Y-85289608D01*
X168565258Y-85289312D01*
X168646822Y-85286405D01*
X168700694Y-85280104D01*
X168734174Y-85269626D01*
X168751796Y-85257106D01*
X168761872Y-85239596D01*
X168771105Y-85206578D01*
X168779585Y-85155891D01*
X168787405Y-85085373D01*
X168794656Y-84992864D01*
X168801431Y-84876203D01*
X168807822Y-84733227D01*
X168813920Y-84561775D01*
X168819817Y-84359687D01*
X168825606Y-84124801D01*
X168831378Y-83854956D01*
X168837225Y-83547989D01*
X168843239Y-83201741D01*
X168845783Y-83047417D01*
X168853650Y-82597276D01*
X168862200Y-82186262D01*
X168871821Y-81811169D01*
X168875903Y-81685039D01*
X174877720Y-81685039D01*
X174901719Y-81974177D01*
X174951290Y-82246956D01*
X175025223Y-82500555D01*
X175122310Y-82732154D01*
X175241343Y-82938931D01*
X175381112Y-83118067D01*
X175540410Y-83266740D01*
X175718026Y-83382130D01*
X175912754Y-83461416D01*
X175939711Y-83469045D01*
X176051130Y-83489133D01*
X176187414Y-83499068D01*
X176332333Y-83498856D01*
X176469655Y-83488500D01*
X176579861Y-83468868D01*
X176818163Y-83386084D01*
X177050513Y-83264076D01*
X177274472Y-83105806D01*
X177487599Y-82914238D01*
X177687456Y-82692332D01*
X177871602Y-82443054D01*
X178037598Y-82169365D01*
X178183003Y-81874228D01*
X178305378Y-81560606D01*
X178393390Y-81266609D01*
X178462435Y-80945837D01*
X178503127Y-80633374D01*
X178516525Y-80331611D01*
X178503687Y-80042937D01*
X178465671Y-79769743D01*
X178403535Y-79514419D01*
X178318336Y-79279355D01*
X178211134Y-79066941D01*
X178082985Y-78879567D01*
X177934949Y-78719624D01*
X177768083Y-78589501D01*
X177583445Y-78491589D01*
X177382094Y-78428278D01*
X177165086Y-78401958D01*
X177125011Y-78401333D01*
X176901466Y-78422041D01*
X176678769Y-78482371D01*
X176459149Y-78579636D01*
X176244839Y-78711148D01*
X176038067Y-78874220D01*
X175841065Y-79066163D01*
X175656063Y-79284289D01*
X175485292Y-79525910D01*
X175330982Y-79788340D01*
X175195364Y-80068889D01*
X175080669Y-80364870D01*
X174989126Y-80673595D01*
X174922966Y-80992376D01*
X174911271Y-81068969D01*
X174880501Y-81382363D01*
X174877720Y-81685039D01*
X168875903Y-81685039D01*
X168882902Y-81468792D01*
X168895833Y-81155924D01*
X168911003Y-80869360D01*
X168928802Y-80605895D01*
X168949618Y-80362323D01*
X168973840Y-80135437D01*
X169001859Y-79922034D01*
X169034063Y-79718906D01*
X169070842Y-79522848D01*
X169112584Y-79330656D01*
X169159679Y-79139122D01*
X169212517Y-78945041D01*
X169271486Y-78745208D01*
X169336977Y-78536417D01*
X169409377Y-78315462D01*
X169426657Y-78263750D01*
X169578864Y-77831993D01*
X169734712Y-77437035D01*
X169897518Y-77073342D01*
X170070595Y-76735381D01*
X170257260Y-76417619D01*
X170460828Y-76114521D01*
X170684614Y-75820556D01*
X170931934Y-75530189D01*
X171206102Y-75237886D01*
X171291009Y-75152064D01*
X171612412Y-74849056D01*
X171934761Y-74583330D01*
X172265041Y-74350268D01*
X172610235Y-74145250D01*
X172977330Y-73963659D01*
X173280917Y-73836264D01*
X173509262Y-73749392D01*
X173720143Y-73675011D01*
X173919296Y-73612206D01*
X174112458Y-73560064D01*
X174305365Y-73517672D01*
X174503754Y-73484117D01*
X174713362Y-73458485D01*
X174939925Y-73439863D01*
X175189181Y-73427337D01*
X175466866Y-73419994D01*
X175778717Y-73416920D01*
X175916167Y-73416682D01*
X176127084Y-73416852D01*
X176301086Y-73417469D01*
X176443588Y-73418778D01*
X176560006Y-73421022D01*
X176655757Y-73424448D01*
X176736258Y-73429298D01*
X176806925Y-73435818D01*
X176873174Y-73444252D01*
X176940422Y-73454844D01*
X177002340Y-73465714D01*
X177562988Y-73586661D01*
X178104721Y-73743548D01*
X178626021Y-73935705D01*
X179125375Y-74162463D01*
X179601265Y-74423152D01*
X180052176Y-74717103D01*
X180361167Y-74949488D01*
X180608091Y-75159387D01*
X180860087Y-75397554D01*
X181107128Y-75653443D01*
X181339187Y-75916505D01*
X181546236Y-76176195D01*
X181610340Y-76263500D01*
X181769569Y-76495528D01*
X181921464Y-76735886D01*
X182063146Y-76978919D01*
X182191738Y-77218969D01*
X182304360Y-77450378D01*
X182398135Y-77667491D01*
X182470184Y-77864650D01*
X182517628Y-78036198D01*
X182521361Y-78053948D01*
X182540726Y-78144402D01*
X182567598Y-78262815D01*
X182598941Y-78396147D01*
X182631719Y-78531357D01*
X182644569Y-78583115D01*
X182698712Y-78807730D01*
X182740755Y-79004314D01*
X182772108Y-79184330D01*
X182794183Y-79359241D01*
X182808391Y-79540509D01*
X182816142Y-79739599D01*
X182818848Y-79967972D01*
X182818902Y-79999417D01*
X182800890Y-80504274D01*
X182746696Y-81003364D01*
X182657332Y-81492008D01*
X182533811Y-81965525D01*
X182377142Y-82419235D01*
X182215044Y-82793417D01*
X182158545Y-82908196D01*
X182099342Y-83020868D01*
X182034913Y-83135275D01*
X181962734Y-83255258D01*
X181880283Y-83384659D01*
X181785037Y-83527318D01*
X181674473Y-83687076D01*
X181546068Y-83867776D01*
X181397299Y-84073258D01*
X181225644Y-84307363D01*
X181180438Y-84368672D01*
X180899813Y-84760835D01*
X180644355Y-85142355D01*
X180415253Y-85511042D01*
X180213696Y-85864706D01*
X180040875Y-86201157D01*
X179897977Y-86518205D01*
X179786194Y-86813660D01*
X179708096Y-87079667D01*
X179657167Y-87339518D01*
X179627593Y-87618721D01*
X179619521Y-87919829D01*
X179633097Y-88245394D01*
X179668469Y-88597970D01*
X179725785Y-88980109D01*
X179805190Y-89394365D01*
X179854431Y-89619667D01*
X179875710Y-89713377D01*
X179894578Y-89795070D01*
X179912403Y-89869005D01*
X179930554Y-89939439D01*
X179950399Y-90010630D01*
X179973306Y-90086834D01*
X180000645Y-90172311D01*
X180033782Y-90271318D01*
X180074087Y-90388111D01*
X180122928Y-90526950D01*
X180181673Y-90692092D01*
X180251691Y-90887794D01*
X180334350Y-91118315D01*
X180351035Y-91164833D01*
X180520772Y-91642458D01*
X180674203Y-92083872D01*
X180811980Y-92491648D01*
X180934758Y-92868363D01*
X181043190Y-93216592D01*
X181137929Y-93538910D01*
X181219630Y-93837893D01*
X181288944Y-94116116D01*
X181346527Y-94376154D01*
X181393031Y-94620583D01*
X181429109Y-94851977D01*
X181455416Y-95072914D01*
X181472605Y-95285967D01*
X181481330Y-95493712D01*
X181482773Y-95624874D01*
X181461551Y-96117137D01*
X181399246Y-96602928D01*
X181296820Y-97080679D01*
X181155238Y-97548823D01*
X180975465Y-98005792D01*
X180758463Y-98450020D01*
X180505198Y-98879938D01*
X180216634Y-99293979D01*
X179893734Y-99690577D01*
X179537463Y-100068163D01*
X179148784Y-100425171D01*
X178728663Y-100760033D01*
X178278062Y-101071181D01*
X178043417Y-101216311D01*
X177569165Y-101479984D01*
X177086790Y-101709617D01*
X176584532Y-101910605D01*
X176353642Y-101991547D01*
X176191377Y-102043785D01*
X176036941Y-102087877D01*
X175884906Y-102124453D01*
X175729844Y-102154143D01*
X175566327Y-102177578D01*
X175388927Y-102195387D01*
X175192216Y-102208201D01*
X174970766Y-102216650D01*
X174719149Y-102221364D01*
X174431936Y-102222974D01*
X174360417Y-102222971D01*
X174013536Y-102220498D01*
X173703166Y-102213277D01*
X173423680Y-102200620D01*
X173169450Y-102181839D01*
X172934849Y-102156246D01*
X172714249Y-102123152D01*
X172502023Y-102081869D01*
X172292545Y-102031709D01*
X172080185Y-101971984D01*
X171932788Y-101926047D01*
X171540983Y-101787425D01*
X171144805Y-101623888D01*
X170753096Y-101439916D01*
X170374695Y-101239990D01*
X170018442Y-101028590D01*
X169693178Y-100810194D01*
X169608500Y-100748130D01*
X169196960Y-100418239D01*
X168825095Y-100073954D01*
X168492620Y-99714851D01*
X168199246Y-99340505D01*
X167944687Y-98950489D01*
X167728656Y-98544378D01*
X167550865Y-98121746D01*
X167411029Y-97682169D01*
X167339755Y-97384309D01*
X167317148Y-97274170D01*
X167300168Y-97182787D01*
X167287994Y-97100780D01*
X167279808Y-97018769D01*
X167274791Y-96927374D01*
X167272122Y-96817214D01*
X167270982Y-96678908D01*
X167270725Y-96594083D01*
X167271022Y-96439941D01*
X167273227Y-96306583D01*
X167278192Y-96186106D01*
X167286772Y-96070610D01*
X167299820Y-95952194D01*
X167318189Y-95822956D01*
X167342732Y-95674995D01*
X167374303Y-95500410D01*
X167408396Y-95319431D01*
X167441358Y-95147529D01*
X167471725Y-94992979D01*
X167485472Y-94925719D01*
X173442960Y-94925719D01*
X173449389Y-95123861D01*
X173462666Y-95315198D01*
X173482456Y-95487643D01*
X173500889Y-95594969D01*
X173588001Y-95944750D01*
X173700777Y-96276693D01*
X173837231Y-96588200D01*
X173995376Y-96876675D01*
X174173228Y-97139523D01*
X174368798Y-97374146D01*
X174580103Y-97577948D01*
X174805155Y-97748334D01*
X175041968Y-97882705D01*
X175288556Y-97978467D01*
X175334083Y-97991473D01*
X175451566Y-98012451D01*
X175592444Y-98021390D01*
X175740290Y-98018551D01*
X175878674Y-98004191D01*
X175982729Y-97981269D01*
X176183637Y-97897411D01*
X176367926Y-97776464D01*
X176533831Y-97620984D01*
X176679585Y-97433522D01*
X176803424Y-97216634D01*
X176903582Y-96972872D01*
X176978293Y-96704790D01*
X177017144Y-96485064D01*
X177030547Y-96338079D01*
X177036224Y-96161893D01*
X177034620Y-95968841D01*
X177026178Y-95771259D01*
X177011340Y-95581483D01*
X176990551Y-95411849D01*
X176975479Y-95325242D01*
X176897406Y-95004384D01*
X176795885Y-94698112D01*
X176673073Y-94408567D01*
X176531127Y-94137894D01*
X176372205Y-93888235D01*
X176198464Y-93661733D01*
X176012063Y-93460532D01*
X175815157Y-93286775D01*
X175609906Y-93142604D01*
X175398466Y-93030163D01*
X175182995Y-92951595D01*
X174965650Y-92909044D01*
X174748589Y-92904652D01*
X174566574Y-92932368D01*
X174361629Y-93001991D01*
X174172818Y-93109267D01*
X174001694Y-93252103D01*
X173849810Y-93428409D01*
X173718720Y-93636092D01*
X173609976Y-93873063D01*
X173525133Y-94137230D01*
X173468110Y-94411306D01*
X173451986Y-94557356D01*
X173443714Y-94732856D01*
X173442960Y-94925719D01*
X167485472Y-94925719D01*
X167500718Y-94851126D01*
X167529559Y-94717311D01*
X167559470Y-94586879D01*
X167591672Y-94455173D01*
X167627389Y-94317536D01*
X167667840Y-94169311D01*
X167714250Y-94005841D01*
X167767838Y-93822470D01*
X167829828Y-93614542D01*
X167901441Y-93377398D01*
X167983899Y-93106383D01*
X168020889Y-92985167D01*
X168172187Y-92485668D01*
X168310813Y-92019772D01*
X168436640Y-91587989D01*
X168549540Y-91190827D01*
X168649386Y-90828795D01*
X168736049Y-90502402D01*
X168809404Y-90212158D01*
X168869321Y-89958571D01*
X168915674Y-89742151D01*
X168948335Y-89563406D01*
X168967176Y-89422846D01*
X168972071Y-89320979D01*
X168962891Y-89258315D01*
X168957301Y-89247127D01*
X168933193Y-89219872D01*
X168898399Y-89199435D01*
X168847175Y-89184907D01*
X168773778Y-89175375D01*
X168672465Y-89169928D01*
X168537495Y-89167657D01*
X168454917Y-89167427D01*
X168227247Y-89171380D01*
X168034205Y-89182992D01*
X167877707Y-89202050D01*
X167759669Y-89228338D01*
X167698986Y-89251922D01*
X167673423Y-89268590D01*
X167650937Y-89293191D01*
X167630577Y-89329676D01*
X167611388Y-89381993D01*
X167592417Y-89454094D01*
X167572712Y-89549928D01*
X167551319Y-89673444D01*
X167527285Y-89828593D01*
X167499656Y-90019325D01*
X167479992Y-90159417D01*
X167410807Y-90594495D01*
X167320890Y-91059750D01*
X167212034Y-91549516D01*
X167086032Y-92058126D01*
X166944677Y-92579914D01*
X166789762Y-93109214D01*
X166623081Y-93640359D01*
X166446427Y-94167684D01*
X166261592Y-94685521D01*
X166070370Y-95188205D01*
X165874555Y-95670070D01*
X165675939Y-96125449D01*
X165476315Y-96548676D01*
X165426178Y-96649357D01*
X165370058Y-96756666D01*
X165295024Y-96893917D01*
X165203972Y-97056238D01*
X165099799Y-97238756D01*
X164985400Y-97436598D01*
X164863672Y-97644893D01*
X164737509Y-97858769D01*
X164609809Y-98073352D01*
X164483466Y-98283771D01*
X164361377Y-98485153D01*
X164246438Y-98672627D01*
X164141545Y-98841319D01*
X164049593Y-98986358D01*
X163973479Y-99102871D01*
X163930480Y-99165833D01*
X163823429Y-99315533D01*
X163695387Y-99490384D01*
X163552147Y-99682756D01*
X163399502Y-99885018D01*
X163243246Y-100089539D01*
X163089171Y-100288688D01*
X162943071Y-100474835D01*
X162816288Y-100633485D01*
X162588953Y-100915826D01*
X162387792Y-101168084D01*
X162211404Y-101392296D01*
X162058387Y-101590498D01*
X161927339Y-101764728D01*
X161816860Y-101917024D01*
X161725549Y-102049422D01*
X161652003Y-102163959D01*
X161594822Y-102262673D01*
X161552605Y-102347601D01*
X161523949Y-102420779D01*
X161507455Y-102484246D01*
X161501719Y-102540038D01*
X161501683Y-102544616D01*
X161506991Y-102607391D01*
X161528460Y-102648772D01*
X161574368Y-102676600D01*
X161652991Y-102698716D01*
X161667774Y-102701952D01*
X161778077Y-102725608D01*
X159773520Y-104155390D01*
X159468482Y-104372947D01*
X159195997Y-104567208D01*
X158954159Y-104739468D01*
X158741061Y-104891019D01*
X158554798Y-105023157D01*
X158393461Y-105137174D01*
X158255146Y-105234366D01*
X158137946Y-105316024D01*
X158039954Y-105383444D01*
X157959264Y-105437920D01*
X157893970Y-105480745D01*
X157842164Y-105513213D01*
X157801942Y-105536617D01*
X157771395Y-105552253D01*
X157748619Y-105561413D01*
X157731706Y-105565392D01*
X157718750Y-105565484D01*
X157707844Y-105562982D01*
X157702354Y-105561086D01*
X157659147Y-105546441D01*
X157618885Y-105536761D01*
X157577305Y-105533416D01*
X157530146Y-105537777D01*
X157473146Y-105551217D01*
X157402042Y-105575107D01*
X157312574Y-105610817D01*
X157200478Y-105659719D01*
X157061494Y-105723185D01*
X156891359Y-105802585D01*
X156760333Y-105864197D01*
X156592983Y-105942756D01*
X156403316Y-106031387D01*
X156195592Y-106128126D01*
X155974073Y-106231013D01*
X155743020Y-106338082D01*
X155506695Y-106447373D01*
X155269358Y-106556922D01*
X155035271Y-106664767D01*
X154808694Y-106768945D01*
X154593890Y-106867494D01*
X154395118Y-106958449D01*
X154216641Y-107039850D01*
X154062720Y-107109733D01*
X153937615Y-107166136D01*
X153845589Y-107207095D01*
X153828750Y-107214474D01*
X153592995Y-107315780D01*
X153370475Y-107407828D01*
X153155973Y-107492271D01*
X152944273Y-107570762D01*
X152730158Y-107644953D01*
X152508413Y-107716498D01*
X152273820Y-107787051D01*
X152021164Y-107858263D01*
X151745229Y-107931789D01*
X151440797Y-108009282D01*
X151102652Y-108092393D01*
X150918333Y-108136807D01*
X150542572Y-108225272D01*
X150201384Y-108301987D01*
X149888958Y-108367892D01*
X149599480Y-108423932D01*
X149327138Y-108471047D01*
X149066121Y-108510180D01*
X148810616Y-108542273D01*
X148554811Y-108568269D01*
X148292894Y-108589110D01*
X148029083Y-108605207D01*
X147876826Y-108611889D01*
X147687763Y-108617864D01*
X147467419Y-108623095D01*
X147221318Y-108627543D01*
X146954982Y-108631168D01*
X146673935Y-108633933D01*
X146383699Y-108635799D01*
X146089800Y-108636727D01*
X145797760Y-108636679D01*
X145513101Y-108635616D01*
X145241349Y-108633499D01*
X144988026Y-108630290D01*
X144832917Y-108627541D01*
X144493069Y-108619505D01*
X144187013Y-108609268D01*
X143907507Y-108595985D01*
X143647313Y-108578806D01*
X143399190Y-108556885D01*
X143155899Y-108529374D01*
X142910199Y-108495425D01*
X142654850Y-108454190D01*
X142382614Y-108404823D01*
X142086249Y-108346475D01*
X141758516Y-108278299D01*
X141647333Y-108254590D01*
X140968455Y-108101974D01*
X140324989Y-107942279D01*
X139710328Y-107773568D01*
X139117865Y-107593905D01*
X138540992Y-107401355D01*
X137973102Y-107193982D01*
X137801918Y-107127973D01*
X137579333Y-107040256D01*
X137372953Y-106956931D01*
X137176872Y-106875309D01*
X136985181Y-106792705D01*
X136791973Y-106706433D01*
X136591340Y-106613806D01*
X136377374Y-106512138D01*
X136144169Y-106398743D01*
X135885815Y-106270934D01*
X135596405Y-106126025D01*
X135577022Y-106116274D01*
X135385729Y-106020469D01*
X135203901Y-105930266D01*
X135035407Y-105847527D01*
X134884120Y-105774113D01*
X134753912Y-105711885D01*
X134648655Y-105662704D01*
X134572220Y-105628433D01*
X134528479Y-105610931D01*
X134522291Y-105609225D01*
X134434045Y-105609284D01*
X134390769Y-105624286D01*
X134355307Y-105650022D01*
X134296625Y-105700830D01*
X134220550Y-105770989D01*
X134132911Y-105854775D01*
X134039535Y-105946466D01*
X133946249Y-106040340D01*
X133858883Y-106130675D01*
X133783263Y-106211747D01*
X133725375Y-106277646D01*
X133676921Y-106332976D01*
X133639359Y-106370848D01*
X133620069Y-106383893D01*
X133619364Y-106383480D01*
X133604950Y-106365955D01*
X133565593Y-106317965D01*
X133503169Y-106241801D01*
X133419553Y-106139753D01*
X133316622Y-106014111D01*
X133196252Y-105867164D01*
X133060318Y-105701203D01*
X132910696Y-105518518D01*
X132749262Y-105321398D01*
X132577892Y-105112135D01*
X132398462Y-104893017D01*
X132358621Y-104844362D01*
X131106834Y-103315642D01*
X131159033Y-103238723D01*
X131192421Y-103178538D01*
X131196234Y-103136411D01*
X131191897Y-103125677D01*
X131160091Y-103074361D01*
X131108030Y-103001880D01*
X131034700Y-102907015D01*
X130939087Y-102788547D01*
X130820178Y-102645257D01*
X130676958Y-102475927D01*
X130508414Y-102279339D01*
X130313531Y-102054273D01*
X130091295Y-101799511D01*
X130034315Y-101734429D01*
X129708682Y-101360633D01*
X129410144Y-101013103D01*
X129135985Y-100688050D01*
X128883491Y-100381683D01*
X128649946Y-100090210D01*
X128432636Y-99809840D01*
X128228846Y-99536784D01*
X128035859Y-99267249D01*
X127850962Y-98997446D01*
X127671439Y-98723583D01*
X127494575Y-98441869D01*
X127317656Y-98148513D01*
X127137965Y-97839725D01*
X126952789Y-97511714D01*
X126762081Y-97165583D01*
X126590555Y-96847677D01*
X126438789Y-96558529D01*
X126303559Y-96291348D01*
X126181643Y-96039339D01*
X126069818Y-95795710D01*
X125964861Y-95553668D01*
X125863549Y-95306420D01*
X125786155Y-95108634D01*
X125671255Y-94806904D01*
X125569326Y-94532702D01*
X125477301Y-94276843D01*
X125392111Y-94030144D01*
X125310690Y-93783421D01*
X125229970Y-93527493D01*
X125146883Y-93253174D01*
X125058363Y-92951281D01*
X125013268Y-92794667D01*
X124906894Y-92418504D01*
X124813619Y-92077622D01*
X124732353Y-91767414D01*
X124662003Y-91483278D01*
X124601478Y-91220609D01*
X124549686Y-90974802D01*
X124505538Y-90741253D01*
X124467940Y-90515358D01*
X124458870Y-90455750D01*
X124437387Y-90319618D01*
X124412049Y-90171148D01*
X124386098Y-90028751D01*
X124363857Y-89916000D01*
X124317048Y-89673776D01*
X124276237Y-89422740D01*
X124241027Y-89158420D01*
X124211021Y-88876341D01*
X124185821Y-88572031D01*
X124165031Y-88241015D01*
X124148255Y-87878820D01*
X124135095Y-87480973D01*
X124130054Y-87280750D01*
X124128867Y-86456858D01*
X124163425Y-85631026D01*
X124166227Y-85598000D01*
X126992437Y-85598000D01*
X127001316Y-86312081D01*
X127028045Y-86989096D01*
X127072763Y-87630431D01*
X127135610Y-88237470D01*
X127216724Y-88811597D01*
X127316245Y-89354198D01*
X127412407Y-89779506D01*
X127514416Y-90157541D01*
X127623781Y-90494447D01*
X127740845Y-90790841D01*
X127865946Y-91047341D01*
X127999425Y-91264566D01*
X128141623Y-91443133D01*
X128292881Y-91583661D01*
X128453537Y-91686768D01*
X128466343Y-91693191D01*
X128648218Y-91762969D01*
X128827104Y-91791079D01*
X129006021Y-91777755D01*
X129129763Y-91744973D01*
X129301577Y-91664493D01*
X129464609Y-91542862D01*
X129618737Y-91380371D01*
X129763841Y-91177306D01*
X129899798Y-90933955D01*
X130026487Y-90650608D01*
X130143786Y-90327551D01*
X130251573Y-89965075D01*
X130349728Y-89563465D01*
X130438128Y-89123012D01*
X130516651Y-88644003D01*
X130555152Y-88367518D01*
X130595490Y-88041251D01*
X130629113Y-87725686D01*
X130656449Y-87413376D01*
X130677923Y-87096869D01*
X130693964Y-86768715D01*
X130704996Y-86421466D01*
X130711447Y-86047670D01*
X130711948Y-85958628D01*
X134333064Y-85958628D01*
X134333145Y-86219254D01*
X134334531Y-86481264D01*
X134337198Y-86738811D01*
X134341125Y-86986051D01*
X134346291Y-87217135D01*
X134352674Y-87426219D01*
X134360252Y-87607455D01*
X134369003Y-87754997D01*
X134372487Y-87799333D01*
X134446941Y-88541759D01*
X134540098Y-89246867D01*
X134652136Y-89915402D01*
X134783232Y-90548111D01*
X134933564Y-91145740D01*
X135103310Y-91709036D01*
X135292648Y-92238744D01*
X135501754Y-92735611D01*
X135594333Y-92932250D01*
X135793981Y-93313233D01*
X136005045Y-93659441D01*
X136226588Y-93970151D01*
X136457674Y-94244641D01*
X136697365Y-94482190D01*
X136944725Y-94682076D01*
X137198817Y-94843577D01*
X137458705Y-94965971D01*
X137723452Y-95048536D01*
X137992121Y-95090551D01*
X138263776Y-95091294D01*
X138379970Y-95078925D01*
X138638256Y-95023915D01*
X138896324Y-94932258D01*
X139031835Y-94868631D01*
X139293312Y-94711863D01*
X139546143Y-94514886D01*
X139789757Y-94279048D01*
X140023582Y-94005698D01*
X140247046Y-93696184D01*
X140459578Y-93351854D01*
X140660606Y-92974055D01*
X140849558Y-92564136D01*
X141025862Y-92123444D01*
X141188947Y-91653328D01*
X141338241Y-91155136D01*
X141473172Y-90630215D01*
X141593169Y-90079914D01*
X141697659Y-89505580D01*
X141786071Y-88908561D01*
X141857834Y-88290207D01*
X141868597Y-88180333D01*
X141916152Y-87567262D01*
X141945229Y-86927465D01*
X141955828Y-86272304D01*
X141947952Y-85613140D01*
X141921601Y-84961334D01*
X141876776Y-84328248D01*
X141868196Y-84232750D01*
X141802232Y-83622553D01*
X141719369Y-83031685D01*
X141620226Y-82461588D01*
X141505419Y-81913700D01*
X141375565Y-81389463D01*
X141231282Y-80890317D01*
X141073187Y-80417701D01*
X140901896Y-79973058D01*
X140718029Y-79557826D01*
X140522200Y-79173446D01*
X140315029Y-78821359D01*
X140097131Y-78503004D01*
X139869125Y-78219823D01*
X139631627Y-77973256D01*
X139385255Y-77764742D01*
X139130626Y-77595722D01*
X138992729Y-77522741D01*
X138808002Y-77441279D01*
X138637297Y-77384839D01*
X138464026Y-77349201D01*
X138271602Y-77330144D01*
X138226845Y-77327837D01*
X138004081Y-77326635D01*
X137804543Y-77346360D01*
X137614807Y-77389911D01*
X137421444Y-77460185D01*
X137255250Y-77537526D01*
X137087971Y-77629727D01*
X136931237Y-77734788D01*
X136774210Y-77860661D01*
X136612545Y-78009021D01*
X136401329Y-78228601D01*
X136204368Y-78467237D01*
X136017608Y-78730668D01*
X135836994Y-79024635D01*
X135658472Y-79354875D01*
X135650196Y-79371126D01*
X135431838Y-79835847D01*
X135232634Y-80332824D01*
X135052396Y-80862840D01*
X134890939Y-81426675D01*
X134748075Y-82025109D01*
X134623616Y-82658922D01*
X134517377Y-83328895D01*
X134429170Y-84035808D01*
X134361167Y-84751333D01*
X134352971Y-84880882D01*
X134346208Y-85046892D01*
X134340858Y-85243518D01*
X134336898Y-85464914D01*
X134334308Y-85705233D01*
X134333064Y-85958628D01*
X130711948Y-85958628D01*
X130713744Y-85639879D01*
X130713761Y-85598000D01*
X130713220Y-85305119D01*
X130711395Y-85047056D01*
X130707983Y-84816306D01*
X130702681Y-84605363D01*
X130695187Y-84406723D01*
X130685198Y-84212882D01*
X130672411Y-84016335D01*
X130656522Y-83809577D01*
X130637231Y-83585103D01*
X130628791Y-83491917D01*
X130576505Y-82996014D01*
X130512879Y-82523466D01*
X130438473Y-82076574D01*
X130353845Y-81657642D01*
X130259554Y-81268973D01*
X130156158Y-80912869D01*
X130044216Y-80591634D01*
X129924286Y-80307570D01*
X129797245Y-80063525D01*
X129708920Y-79930997D01*
X129602126Y-79800318D01*
X129485680Y-79680506D01*
X129368403Y-79580577D01*
X129259113Y-79509550D01*
X129251753Y-79505775D01*
X129070289Y-79436127D01*
X128888234Y-79407904D01*
X128707947Y-79420298D01*
X128531789Y-79472505D01*
X128362119Y-79563717D01*
X128201297Y-79693128D01*
X128051683Y-79859932D01*
X127997298Y-79934342D01*
X127865291Y-80151023D01*
X127740598Y-80408004D01*
X127623644Y-80703819D01*
X127514853Y-81036999D01*
X127414649Y-81406076D01*
X127323457Y-81809583D01*
X127241701Y-82246052D01*
X127169805Y-82714014D01*
X127149296Y-82867500D01*
X127104559Y-83241141D01*
X127068052Y-83607989D01*
X127039304Y-83976259D01*
X127017841Y-84354169D01*
X127003192Y-84749932D01*
X126994885Y-85171765D01*
X126992437Y-85598000D01*
X124166227Y-85598000D01*
X124234118Y-84797860D01*
X124341338Y-83951964D01*
X124398083Y-83587167D01*
X124576169Y-82627374D01*
X124793187Y-81681433D01*
X125048514Y-80750384D01*
X125341527Y-79835269D01*
X125671605Y-78937129D01*
X126038124Y-78057005D01*
X126440462Y-77195939D01*
X126877997Y-76354971D01*
X127350105Y-75535143D01*
X127856164Y-74737496D01*
X128395551Y-73963071D01*
X128967645Y-73212909D01*
X129571821Y-72488052D01*
X130207459Y-71789541D01*
X130873935Y-71118417D01*
X131570626Y-70475721D01*
X132296910Y-69862494D01*
X132873750Y-69412683D01*
X133594595Y-68892151D01*
X134319046Y-68413403D01*
X135047795Y-67975989D01*
X135339667Y-67813035D01*
X135631151Y-67654894D01*
X135909735Y-67505994D01*
X136172741Y-67367673D01*
X136417488Y-67241273D01*
X136641297Y-67128133D01*
X136841487Y-67029594D01*
X137015380Y-66946994D01*
X137160295Y-66881675D01*
X137273554Y-66834977D01*
X137344578Y-66810444D01*
X137408812Y-66789160D01*
X137500998Y-66755107D01*
X137610290Y-66712450D01*
X137725841Y-66665357D01*
X137763250Y-66649656D01*
X138158750Y-66491156D01*
X138590666Y-66334128D01*
X139053084Y-66180010D01*
X139540086Y-66030234D01*
X140045756Y-65886238D01*
X140564178Y-65749455D01*
X141089435Y-65621321D01*
X141615612Y-65503271D01*
X142136791Y-65396739D01*
X142647058Y-65303161D01*
X143140494Y-65223972D01*
X143611184Y-65160607D01*
X144053212Y-65114500D01*
X144113250Y-65109441D01*
X144204571Y-65102984D01*
X144329320Y-65095603D01*
X144478615Y-65087748D01*
X144643572Y-65079865D01*
X144815309Y-65072404D01*
X144959917Y-65066730D01*
X145286467Y-65054263D01*
X145573452Y-65042498D01*
X145823630Y-65031241D01*
X146039762Y-65020299D01*
X146224605Y-65009481D01*
X146380919Y-64998591D01*
X146511462Y-64987439D01*
X146618993Y-64975830D01*
X146706271Y-64963571D01*
X146776055Y-64950470D01*
X146831104Y-64936334D01*
X146833167Y-64935705D01*
X146879461Y-64918331D01*
X146922475Y-64893991D01*
X146963625Y-64859757D01*
X147004325Y-64812703D01*
X147045990Y-64749902D01*
X147090035Y-64668428D01*
X147137876Y-64565352D01*
X147190927Y-64437748D01*
X147250604Y-64282689D01*
X147318321Y-64097248D01*
X147395495Y-63878498D01*
X147483539Y-63623512D01*
X147522163Y-63510583D01*
X147622407Y-63219661D01*
X147710906Y-62968734D01*
X147787895Y-62757190D01*
X147853608Y-62584423D01*
X147908279Y-62449823D01*
X147952143Y-62352780D01*
X147985436Y-62292687D01*
X147991719Y-62284516D01*
X153184898Y-62284516D01*
X153197369Y-62363166D01*
X153220208Y-62405104D01*
X153276451Y-62444024D01*
X153370641Y-62494122D01*
X153500236Y-62554220D01*
X153662694Y-62623142D01*
X153855473Y-62699709D01*
X153860402Y-62701612D01*
X153978520Y-62747293D01*
X154090258Y-62790706D01*
X154186359Y-62828241D01*
X154257572Y-62856288D01*
X154283833Y-62866790D01*
X154400903Y-62900148D01*
X154512450Y-62906165D01*
X154608329Y-62885194D01*
X154661913Y-62853625D01*
X154700487Y-62805318D01*
X154745646Y-62723406D01*
X154794719Y-62615593D01*
X154845034Y-62489584D01*
X154893920Y-62353081D01*
X154938704Y-62213790D01*
X154976714Y-62079413D01*
X155005278Y-61957656D01*
X155021726Y-61856221D01*
X155024667Y-61807705D01*
X155017355Y-61726073D01*
X154992082Y-61662779D01*
X154943844Y-61614194D01*
X154867633Y-61576688D01*
X154758443Y-61546632D01*
X154633083Y-61523775D01*
X154464178Y-61501651D01*
X154285088Y-61486174D01*
X154103006Y-61477277D01*
X153925125Y-61474892D01*
X153758639Y-61478951D01*
X153610742Y-61489387D01*
X153488626Y-61506133D01*
X153399485Y-61529119D01*
X153383896Y-61535513D01*
X153343100Y-61564929D01*
X153307955Y-61616376D01*
X153276048Y-61695369D01*
X153244970Y-61807428D01*
X153223796Y-61901917D01*
X153198155Y-62047750D01*
X153185175Y-62177330D01*
X153184898Y-62284516D01*
X147991719Y-62284516D01*
X147997360Y-62277180D01*
X148013161Y-62261051D01*
X148030415Y-62246848D01*
X148051813Y-62234423D01*
X148080047Y-62223627D01*
X148117806Y-62214308D01*
X148167781Y-62206318D01*
X148232664Y-62199508D01*
X148315145Y-62193728D01*
X148417915Y-62188827D01*
X148543665Y-62184658D01*
X148695085Y-62181069D01*
X148874867Y-62177913D01*
X149085701Y-62175038D01*
X149330277Y-62172296D01*
X149611288Y-62169537D01*
X149931423Y-62166611D01*
X149997583Y-62166018D01*
X150271391Y-62163397D01*
X150534086Y-62160552D01*
X150782439Y-62157539D01*
X151013220Y-62154411D01*
X151223202Y-62151222D01*
X151409153Y-62148028D01*
X151567845Y-62144882D01*
X151696048Y-62141839D01*
X151790534Y-62138953D01*
X151848072Y-62136277D01*
X151864318Y-62134636D01*
X151908165Y-62114892D01*
X151954349Y-62073329D01*
X152004422Y-62007165D01*
X152059941Y-61913612D01*
X152122460Y-61789888D01*
X152193535Y-61633206D01*
X152274719Y-61440783D01*
X152335220Y-61291286D01*
X152555386Y-60756129D01*
X152773443Y-60258995D01*
X152799775Y-60203047D01*
X154046972Y-60203047D01*
X154050402Y-60312470D01*
X154066470Y-60389147D01*
X154101100Y-60442133D01*
X154160219Y-60480480D01*
X154249754Y-60513241D01*
X154250090Y-60513345D01*
X154317467Y-60530907D01*
X154416967Y-60552721D01*
X154538809Y-60577010D01*
X154673215Y-60601999D01*
X154810403Y-60625910D01*
X154940596Y-60646967D01*
X155054013Y-60663393D01*
X155119917Y-60671368D01*
X155223126Y-60677934D01*
X155337162Y-60678287D01*
X155450954Y-60673139D01*
X155553432Y-60663204D01*
X155633524Y-60649197D01*
X155673813Y-60635656D01*
X155738405Y-60580349D01*
X155796235Y-60487236D01*
X155845824Y-60360510D01*
X155885689Y-60204369D01*
X155914350Y-60023007D01*
X155923737Y-59927677D01*
X155927963Y-59790396D01*
X155915056Y-59689001D01*
X155884352Y-59620376D01*
X155851594Y-59589970D01*
X155799904Y-59568550D01*
X155712904Y-59544674D01*
X155597468Y-59519449D01*
X155460471Y-59493981D01*
X155308786Y-59469374D01*
X155149286Y-59446734D01*
X154988847Y-59427167D01*
X154834342Y-59411779D01*
X154692644Y-59401674D01*
X154675348Y-59400797D01*
X154400112Y-59387610D01*
X154330268Y-59446380D01*
X154258674Y-59527045D01*
X154191815Y-59639982D01*
X154133452Y-59775143D01*
X154087348Y-59922478D01*
X154057266Y-60071938D01*
X154046972Y-60203047D01*
X152799775Y-60203047D01*
X152991461Y-59795783D01*
X153211514Y-59362388D01*
X153435672Y-58954709D01*
X153666007Y-58568644D01*
X153870695Y-58250667D01*
X154016336Y-58045468D01*
X154193638Y-57818729D01*
X154399840Y-57573551D01*
X154632180Y-57313035D01*
X154887897Y-57040282D01*
X155164229Y-56758394D01*
X155441611Y-56486608D01*
X155636251Y-56299466D01*
X156775084Y-56696229D01*
X156775084Y-56696229D01*
G37*
X156775084Y-56696229D02*
X156984991Y-56769511D01*
X157182958Y-56838918D01*
X157365367Y-56903161D01*
X157528599Y-56960952D01*
X157669035Y-57011002D01*
X157783055Y-57052023D01*
X157867042Y-57082726D01*
X157917375Y-57101822D01*
X157930874Y-57107762D01*
X157927589Y-57130653D01*
X157907766Y-57184688D01*
X157874164Y-57263328D01*
X157829539Y-57360036D01*
X157791000Y-57439471D01*
X157738058Y-57547020D01*
X157691530Y-57642592D01*
X157654783Y-57719190D01*
X157631184Y-57769814D01*
X157624280Y-57786076D01*
X157610717Y-57796064D01*
X157577474Y-57791112D01*
X157518829Y-57769530D01*
X157429058Y-57729624D01*
X157421627Y-57726178D01*
X157218572Y-57638995D01*
X157012198Y-57563582D01*
X156810746Y-57502257D01*
X156622462Y-57457339D01*
X156455586Y-57431147D01*
X156351491Y-57425183D01*
X156266791Y-57431313D01*
X156180733Y-57451641D01*
X156086663Y-57489106D01*
X155977927Y-57546649D01*
X155847870Y-57627210D01*
X155756370Y-57688135D01*
X155579430Y-57812750D01*
X155428618Y-57928418D01*
X155306152Y-58033086D01*
X155214244Y-58124699D01*
X155155111Y-58201205D01*
X155130968Y-58260551D01*
X155130500Y-58268228D01*
X155150287Y-58319143D01*
X155206287Y-58376488D01*
X155293456Y-58437205D01*
X155406750Y-58498235D01*
X155541125Y-58556518D01*
X155691538Y-58608997D01*
X155693354Y-58609559D01*
X155802994Y-58640349D01*
X155933793Y-58672268D01*
X156076038Y-58703431D01*
X156220014Y-58731953D01*
X156356006Y-58755949D01*
X156474299Y-58773532D01*
X156565178Y-58782817D01*
X156591000Y-58783781D01*
X156703649Y-58776018D01*
X156816125Y-58748924D01*
X156938078Y-58699220D01*
X157079155Y-58623626D01*
X157102389Y-58609954D01*
X157171354Y-58570201D01*
X157224773Y-58541707D01*
X157253736Y-58529144D01*
X157256359Y-58529217D01*
X157248528Y-58549059D01*
X157223850Y-58603509D01*
X157183975Y-58689095D01*
X157130549Y-58802346D01*
X157065222Y-58939788D01*
X156989640Y-59097952D01*
X156905453Y-59273364D01*
X156814308Y-59462553D01*
X156756702Y-59581783D01*
X156662212Y-59777638D01*
X156573791Y-59961871D01*
X156493077Y-60131004D01*
X156421709Y-60281558D01*
X156361323Y-60410054D01*
X156313557Y-60513014D01*
X156280051Y-60586960D01*
X156262440Y-60628413D01*
X156260190Y-60636246D01*
X156281202Y-60630450D01*
X156334568Y-60609004D01*
X156414422Y-60574459D01*
X156514896Y-60529366D01*
X156630124Y-60476275D01*
X156656068Y-60464151D01*
X156773619Y-60409639D01*
X156877582Y-60362486D01*
X156962108Y-60325260D01*
X157021348Y-60300524D01*
X157049455Y-60290845D01*
X157050865Y-60290976D01*
X157043139Y-60310698D01*
X157016166Y-60358426D01*
X156974209Y-60426966D01*
X156922404Y-60507787D01*
X156754264Y-60779026D01*
X156585351Y-61077722D01*
X156420403Y-61394033D01*
X156264160Y-61718114D01*
X156121365Y-62040120D01*
X155996755Y-62350207D01*
X155895072Y-62638531D01*
X155892331Y-62647035D01*
X155835937Y-62839913D01*
X155801898Y-62998639D01*
X155790006Y-63124883D01*
X155800052Y-63220311D01*
X155815440Y-63261410D01*
X155867993Y-63333742D01*
X155957925Y-63419291D01*
X156085870Y-63518570D01*
X156252465Y-63632097D01*
X156344396Y-63690585D01*
X156517276Y-63801237D01*
X156708016Y-63928065D01*
X156911997Y-64067658D01*
X157124604Y-64216600D01*
X157341218Y-64371479D01*
X157557225Y-64528883D01*
X157768005Y-64685397D01*
X157968943Y-64837609D01*
X158155422Y-64982105D01*
X158322825Y-65115472D01*
X158466534Y-65234297D01*
X158581934Y-65335167D01*
X158630645Y-65380768D01*
X158745465Y-65497435D01*
X158826938Y-65593238D01*
X158876962Y-65670762D01*
X158897437Y-65732592D01*
X158898167Y-65744910D01*
X158894098Y-65783509D01*
X158881482Y-65844436D01*
X158859701Y-65929723D01*
X158828138Y-66041401D01*
X158786174Y-66181502D01*
X158733194Y-66352058D01*
X158668579Y-66555099D01*
X158591712Y-66792658D01*
X158501977Y-67066765D01*
X158432241Y-67278250D01*
X158367018Y-67476108D01*
X158304579Y-67666546D01*
X158246467Y-67844788D01*
X158194222Y-68006060D01*
X158149388Y-68145588D01*
X158113505Y-68258596D01*
X158088116Y-68340310D01*
X158075858Y-68381884D01*
X158055080Y-68460519D01*
X158045857Y-68510904D01*
X158047959Y-68545450D01*
X158061154Y-68576567D01*
X158071899Y-68594816D01*
X158112195Y-68645676D01*
X158182110Y-68716902D01*
X158276814Y-68804252D01*
X158391477Y-68903486D01*
X158521270Y-69010363D01*
X158661364Y-69120640D01*
X158731115Y-69173736D01*
X159492021Y-69772785D01*
X160228076Y-70405507D01*
X160937857Y-71070314D01*
X161619941Y-71765619D01*
X162272904Y-72489834D01*
X162895325Y-73241373D01*
X163485779Y-74018648D01*
X164042844Y-74820073D01*
X164565097Y-75644059D01*
X164631998Y-75755500D01*
X164871860Y-76167899D01*
X165102577Y-76586144D01*
X165327637Y-77017131D01*
X165550527Y-77467754D01*
X165774737Y-77944908D01*
X166003754Y-78455486D01*
X166040280Y-78538917D01*
X166142346Y-78774617D01*
X166231146Y-78984450D01*
X166309677Y-79176559D01*
X166380935Y-79359090D01*
X166447916Y-79540188D01*
X166513618Y-79727995D01*
X166581038Y-79930658D01*
X166653171Y-80156321D01*
X166733015Y-80413128D01*
X166748987Y-80465083D01*
X166866458Y-80851978D01*
X166970755Y-81205589D01*
X167063340Y-81532351D01*
X167145677Y-81838702D01*
X167219229Y-82131081D01*
X167285459Y-82415923D01*
X167345829Y-82699666D01*
X167401802Y-82988747D01*
X167454842Y-83289604D01*
X167506411Y-83608674D01*
X167557972Y-83952394D01*
X167585984Y-84148083D01*
X167621694Y-84394413D01*
X167653854Y-84601379D01*
X167683045Y-84771746D01*
X167709845Y-84908281D01*
X167734834Y-85013752D01*
X167758592Y-85090924D01*
X167781699Y-85142565D01*
X167799409Y-85166667D01*
X167860694Y-85205276D01*
X167958241Y-85237926D01*
X168086261Y-85263522D01*
X168238964Y-85280966D01*
X168410560Y-85289163D01*
X168448700Y-85289608D01*
X168565258Y-85289312D01*
X168646822Y-85286405D01*
X168700694Y-85280104D01*
X168734174Y-85269626D01*
X168751796Y-85257106D01*
X168761872Y-85239596D01*
X168771105Y-85206578D01*
X168779585Y-85155891D01*
X168787405Y-85085373D01*
X168794656Y-84992864D01*
X168801431Y-84876203D01*
X168807822Y-84733227D01*
X168813920Y-84561775D01*
X168819817Y-84359687D01*
X168825606Y-84124801D01*
X168831378Y-83854956D01*
X168837225Y-83547989D01*
X168843239Y-83201741D01*
X168845783Y-83047417D01*
X168853650Y-82597276D01*
X168862200Y-82186262D01*
X168871821Y-81811169D01*
X168875903Y-81685039D01*
X174877720Y-81685039D01*
X174901719Y-81974177D01*
X174951290Y-82246956D01*
X175025223Y-82500555D01*
X175122310Y-82732154D01*
X175241343Y-82938931D01*
X175381112Y-83118067D01*
X175540410Y-83266740D01*
X175718026Y-83382130D01*
X175912754Y-83461416D01*
X175939711Y-83469045D01*
X176051130Y-83489133D01*
X176187414Y-83499068D01*
X176332333Y-83498856D01*
X176469655Y-83488500D01*
X176579861Y-83468868D01*
X176818163Y-83386084D01*
X177050513Y-83264076D01*
X177274472Y-83105806D01*
X177487599Y-82914238D01*
X177687456Y-82692332D01*
X177871602Y-82443054D01*
X178037598Y-82169365D01*
X178183003Y-81874228D01*
X178305378Y-81560606D01*
X178393390Y-81266609D01*
X178462435Y-80945837D01*
X178503127Y-80633374D01*
X178516525Y-80331611D01*
X178503687Y-80042937D01*
X178465671Y-79769743D01*
X178403535Y-79514419D01*
X178318336Y-79279355D01*
X178211134Y-79066941D01*
X178082985Y-78879567D01*
X177934949Y-78719624D01*
X177768083Y-78589501D01*
X177583445Y-78491589D01*
X177382094Y-78428278D01*
X177165086Y-78401958D01*
X177125011Y-78401333D01*
X176901466Y-78422041D01*
X176678769Y-78482371D01*
X176459149Y-78579636D01*
X176244839Y-78711148D01*
X176038067Y-78874220D01*
X175841065Y-79066163D01*
X175656063Y-79284289D01*
X175485292Y-79525910D01*
X175330982Y-79788340D01*
X175195364Y-80068889D01*
X175080669Y-80364870D01*
X174989126Y-80673595D01*
X174922966Y-80992376D01*
X174911271Y-81068969D01*
X174880501Y-81382363D01*
X174877720Y-81685039D01*
X168875903Y-81685039D01*
X168882902Y-81468792D01*
X168895833Y-81155924D01*
X168911003Y-80869360D01*
X168928802Y-80605895D01*
X168949618Y-80362323D01*
X168973840Y-80135437D01*
X169001859Y-79922034D01*
X169034063Y-79718906D01*
X169070842Y-79522848D01*
X169112584Y-79330656D01*
X169159679Y-79139122D01*
X169212517Y-78945041D01*
X169271486Y-78745208D01*
X169336977Y-78536417D01*
X169409377Y-78315462D01*
X169426657Y-78263750D01*
X169578864Y-77831993D01*
X169734712Y-77437035D01*
X169897518Y-77073342D01*
X170070595Y-76735381D01*
X170257260Y-76417619D01*
X170460828Y-76114521D01*
X170684614Y-75820556D01*
X170931934Y-75530189D01*
X171206102Y-75237886D01*
X171291009Y-75152064D01*
X171612412Y-74849056D01*
X171934761Y-74583330D01*
X172265041Y-74350268D01*
X172610235Y-74145250D01*
X172977330Y-73963659D01*
X173280917Y-73836264D01*
X173509262Y-73749392D01*
X173720143Y-73675011D01*
X173919296Y-73612206D01*
X174112458Y-73560064D01*
X174305365Y-73517672D01*
X174503754Y-73484117D01*
X174713362Y-73458485D01*
X174939925Y-73439863D01*
X175189181Y-73427337D01*
X175466866Y-73419994D01*
X175778717Y-73416920D01*
X175916167Y-73416682D01*
X176127084Y-73416852D01*
X176301086Y-73417469D01*
X176443588Y-73418778D01*
X176560006Y-73421022D01*
X176655757Y-73424448D01*
X176736258Y-73429298D01*
X176806925Y-73435818D01*
X176873174Y-73444252D01*
X176940422Y-73454844D01*
X177002340Y-73465714D01*
X177562988Y-73586661D01*
X178104721Y-73743548D01*
X178626021Y-73935705D01*
X179125375Y-74162463D01*
X179601265Y-74423152D01*
X180052176Y-74717103D01*
X180361167Y-74949488D01*
X180608091Y-75159387D01*
X180860087Y-75397554D01*
X181107128Y-75653443D01*
X181339187Y-75916505D01*
X181546236Y-76176195D01*
X181610340Y-76263500D01*
X181769569Y-76495528D01*
X181921464Y-76735886D01*
X182063146Y-76978919D01*
X182191738Y-77218969D01*
X182304360Y-77450378D01*
X182398135Y-77667491D01*
X182470184Y-77864650D01*
X182517628Y-78036198D01*
X182521361Y-78053948D01*
X182540726Y-78144402D01*
X182567598Y-78262815D01*
X182598941Y-78396147D01*
X182631719Y-78531357D01*
X182644569Y-78583115D01*
X182698712Y-78807730D01*
X182740755Y-79004314D01*
X182772108Y-79184330D01*
X182794183Y-79359241D01*
X182808391Y-79540509D01*
X182816142Y-79739599D01*
X182818848Y-79967972D01*
X182818902Y-79999417D01*
X182800890Y-80504274D01*
X182746696Y-81003364D01*
X182657332Y-81492008D01*
X182533811Y-81965525D01*
X182377142Y-82419235D01*
X182215044Y-82793417D01*
X182158545Y-82908196D01*
X182099342Y-83020868D01*
X182034913Y-83135275D01*
X181962734Y-83255258D01*
X181880283Y-83384659D01*
X181785037Y-83527318D01*
X181674473Y-83687076D01*
X181546068Y-83867776D01*
X181397299Y-84073258D01*
X181225644Y-84307363D01*
X181180438Y-84368672D01*
X180899813Y-84760835D01*
X180644355Y-85142355D01*
X180415253Y-85511042D01*
X180213696Y-85864706D01*
X180040875Y-86201157D01*
X179897977Y-86518205D01*
X179786194Y-86813660D01*
X179708096Y-87079667D01*
X179657167Y-87339518D01*
X179627593Y-87618721D01*
X179619521Y-87919829D01*
X179633097Y-88245394D01*
X179668469Y-88597970D01*
X179725785Y-88980109D01*
X179805190Y-89394365D01*
X179854431Y-89619667D01*
X179875710Y-89713377D01*
X179894578Y-89795070D01*
X179912403Y-89869005D01*
X179930554Y-89939439D01*
X179950399Y-90010630D01*
X179973306Y-90086834D01*
X180000645Y-90172311D01*
X180033782Y-90271318D01*
X180074087Y-90388111D01*
X180122928Y-90526950D01*
X180181673Y-90692092D01*
X180251691Y-90887794D01*
X180334350Y-91118315D01*
X180351035Y-91164833D01*
X180520772Y-91642458D01*
X180674203Y-92083872D01*
X180811980Y-92491648D01*
X180934758Y-92868363D01*
X181043190Y-93216592D01*
X181137929Y-93538910D01*
X181219630Y-93837893D01*
X181288944Y-94116116D01*
X181346527Y-94376154D01*
X181393031Y-94620583D01*
X181429109Y-94851977D01*
X181455416Y-95072914D01*
X181472605Y-95285967D01*
X181481330Y-95493712D01*
X181482773Y-95624874D01*
X181461551Y-96117137D01*
X181399246Y-96602928D01*
X181296820Y-97080679D01*
X181155238Y-97548823D01*
X180975465Y-98005792D01*
X180758463Y-98450020D01*
X180505198Y-98879938D01*
X180216634Y-99293979D01*
X179893734Y-99690577D01*
X179537463Y-100068163D01*
X179148784Y-100425171D01*
X178728663Y-100760033D01*
X178278062Y-101071181D01*
X178043417Y-101216311D01*
X177569165Y-101479984D01*
X177086790Y-101709617D01*
X176584532Y-101910605D01*
X176353642Y-101991547D01*
X176191377Y-102043785D01*
X176036941Y-102087877D01*
X175884906Y-102124453D01*
X175729844Y-102154143D01*
X175566327Y-102177578D01*
X175388927Y-102195387D01*
X175192216Y-102208201D01*
X174970766Y-102216650D01*
X174719149Y-102221364D01*
X174431936Y-102222974D01*
X174360417Y-102222971D01*
X174013536Y-102220498D01*
X173703166Y-102213277D01*
X173423680Y-102200620D01*
X173169450Y-102181839D01*
X172934849Y-102156246D01*
X172714249Y-102123152D01*
X172502023Y-102081869D01*
X172292545Y-102031709D01*
X172080185Y-101971984D01*
X171932788Y-101926047D01*
X171540983Y-101787425D01*
X171144805Y-101623888D01*
X170753096Y-101439916D01*
X170374695Y-101239990D01*
X170018442Y-101028590D01*
X169693178Y-100810194D01*
X169608500Y-100748130D01*
X169196960Y-100418239D01*
X168825095Y-100073954D01*
X168492620Y-99714851D01*
X168199246Y-99340505D01*
X167944687Y-98950489D01*
X167728656Y-98544378D01*
X167550865Y-98121746D01*
X167411029Y-97682169D01*
X167339755Y-97384309D01*
X167317148Y-97274170D01*
X167300168Y-97182787D01*
X167287994Y-97100780D01*
X167279808Y-97018769D01*
X167274791Y-96927374D01*
X167272122Y-96817214D01*
X167270982Y-96678908D01*
X167270725Y-96594083D01*
X167271022Y-96439941D01*
X167273227Y-96306583D01*
X167278192Y-96186106D01*
X167286772Y-96070610D01*
X167299820Y-95952194D01*
X167318189Y-95822956D01*
X167342732Y-95674995D01*
X167374303Y-95500410D01*
X167408396Y-95319431D01*
X167441358Y-95147529D01*
X167471725Y-94992979D01*
X167485472Y-94925719D01*
X173442960Y-94925719D01*
X173449389Y-95123861D01*
X173462666Y-95315198D01*
X173482456Y-95487643D01*
X173500889Y-95594969D01*
X173588001Y-95944750D01*
X173700777Y-96276693D01*
X173837231Y-96588200D01*
X173995376Y-96876675D01*
X174173228Y-97139523D01*
X174368798Y-97374146D01*
X174580103Y-97577948D01*
X174805155Y-97748334D01*
X175041968Y-97882705D01*
X175288556Y-97978467D01*
X175334083Y-97991473D01*
X175451566Y-98012451D01*
X175592444Y-98021390D01*
X175740290Y-98018551D01*
X175878674Y-98004191D01*
X175982729Y-97981269D01*
X176183637Y-97897411D01*
X176367926Y-97776464D01*
X176533831Y-97620984D01*
X176679585Y-97433522D01*
X176803424Y-97216634D01*
X176903582Y-96972872D01*
X176978293Y-96704790D01*
X177017144Y-96485064D01*
X177030547Y-96338079D01*
X177036224Y-96161893D01*
X177034620Y-95968841D01*
X177026178Y-95771259D01*
X177011340Y-95581483D01*
X176990551Y-95411849D01*
X176975479Y-95325242D01*
X176897406Y-95004384D01*
X176795885Y-94698112D01*
X176673073Y-94408567D01*
X176531127Y-94137894D01*
X176372205Y-93888235D01*
X176198464Y-93661733D01*
X176012063Y-93460532D01*
X175815157Y-93286775D01*
X175609906Y-93142604D01*
X175398466Y-93030163D01*
X175182995Y-92951595D01*
X174965650Y-92909044D01*
X174748589Y-92904652D01*
X174566574Y-92932368D01*
X174361629Y-93001991D01*
X174172818Y-93109267D01*
X174001694Y-93252103D01*
X173849810Y-93428409D01*
X173718720Y-93636092D01*
X173609976Y-93873063D01*
X173525133Y-94137230D01*
X173468110Y-94411306D01*
X173451986Y-94557356D01*
X173443714Y-94732856D01*
X173442960Y-94925719D01*
X167485472Y-94925719D01*
X167500718Y-94851126D01*
X167529559Y-94717311D01*
X167559470Y-94586879D01*
X167591672Y-94455173D01*
X167627389Y-94317536D01*
X167667840Y-94169311D01*
X167714250Y-94005841D01*
X167767838Y-93822470D01*
X167829828Y-93614542D01*
X167901441Y-93377398D01*
X167983899Y-93106383D01*
X168020889Y-92985167D01*
X168172187Y-92485668D01*
X168310813Y-92019772D01*
X168436640Y-91587989D01*
X168549540Y-91190827D01*
X168649386Y-90828795D01*
X168736049Y-90502402D01*
X168809404Y-90212158D01*
X168869321Y-89958571D01*
X168915674Y-89742151D01*
X168948335Y-89563406D01*
X168967176Y-89422846D01*
X168972071Y-89320979D01*
X168962891Y-89258315D01*
X168957301Y-89247127D01*
X168933193Y-89219872D01*
X168898399Y-89199435D01*
X168847175Y-89184907D01*
X168773778Y-89175375D01*
X168672465Y-89169928D01*
X168537495Y-89167657D01*
X168454917Y-89167427D01*
X168227247Y-89171380D01*
X168034205Y-89182992D01*
X167877707Y-89202050D01*
X167759669Y-89228338D01*
X167698986Y-89251922D01*
X167673423Y-89268590D01*
X167650937Y-89293191D01*
X167630577Y-89329676D01*
X167611388Y-89381993D01*
X167592417Y-89454094D01*
X167572712Y-89549928D01*
X167551319Y-89673444D01*
X167527285Y-89828593D01*
X167499656Y-90019325D01*
X167479992Y-90159417D01*
X167410807Y-90594495D01*
X167320890Y-91059750D01*
X167212034Y-91549516D01*
X167086032Y-92058126D01*
X166944677Y-92579914D01*
X166789762Y-93109214D01*
X166623081Y-93640359D01*
X166446427Y-94167684D01*
X166261592Y-94685521D01*
X166070370Y-95188205D01*
X165874555Y-95670070D01*
X165675939Y-96125449D01*
X165476315Y-96548676D01*
X165426178Y-96649357D01*
X165370058Y-96756666D01*
X165295024Y-96893917D01*
X165203972Y-97056238D01*
X165099799Y-97238756D01*
X164985400Y-97436598D01*
X164863672Y-97644893D01*
X164737509Y-97858769D01*
X164609809Y-98073352D01*
X164483466Y-98283771D01*
X164361377Y-98485153D01*
X164246438Y-98672627D01*
X164141545Y-98841319D01*
X164049593Y-98986358D01*
X163973479Y-99102871D01*
X163930480Y-99165833D01*
X163823429Y-99315533D01*
X163695387Y-99490384D01*
X163552147Y-99682756D01*
X163399502Y-99885018D01*
X163243246Y-100089539D01*
X163089171Y-100288688D01*
X162943071Y-100474835D01*
X162816288Y-100633485D01*
X162588953Y-100915826D01*
X162387792Y-101168084D01*
X162211404Y-101392296D01*
X162058387Y-101590498D01*
X161927339Y-101764728D01*
X161816860Y-101917024D01*
X161725549Y-102049422D01*
X161652003Y-102163959D01*
X161594822Y-102262673D01*
X161552605Y-102347601D01*
X161523949Y-102420779D01*
X161507455Y-102484246D01*
X161501719Y-102540038D01*
X161501683Y-102544616D01*
X161506991Y-102607391D01*
X161528460Y-102648772D01*
X161574368Y-102676600D01*
X161652991Y-102698716D01*
X161667774Y-102701952D01*
X161778077Y-102725608D01*
X159773520Y-104155390D01*
X159468482Y-104372947D01*
X159195997Y-104567208D01*
X158954159Y-104739468D01*
X158741061Y-104891019D01*
X158554798Y-105023157D01*
X158393461Y-105137174D01*
X158255146Y-105234366D01*
X158137946Y-105316024D01*
X158039954Y-105383444D01*
X157959264Y-105437920D01*
X157893970Y-105480745D01*
X157842164Y-105513213D01*
X157801942Y-105536617D01*
X157771395Y-105552253D01*
X157748619Y-105561413D01*
X157731706Y-105565392D01*
X157718750Y-105565484D01*
X157707844Y-105562982D01*
X157702354Y-105561086D01*
X157659147Y-105546441D01*
X157618885Y-105536761D01*
X157577305Y-105533416D01*
X157530146Y-105537777D01*
X157473146Y-105551217D01*
X157402042Y-105575107D01*
X157312574Y-105610817D01*
X157200478Y-105659719D01*
X157061494Y-105723185D01*
X156891359Y-105802585D01*
X156760333Y-105864197D01*
X156592983Y-105942756D01*
X156403316Y-106031387D01*
X156195592Y-106128126D01*
X155974073Y-106231013D01*
X155743020Y-106338082D01*
X155506695Y-106447373D01*
X155269358Y-106556922D01*
X155035271Y-106664767D01*
X154808694Y-106768945D01*
X154593890Y-106867494D01*
X154395118Y-106958449D01*
X154216641Y-107039850D01*
X154062720Y-107109733D01*
X153937615Y-107166136D01*
X153845589Y-107207095D01*
X153828750Y-107214474D01*
X153592995Y-107315780D01*
X153370475Y-107407828D01*
X153155973Y-107492271D01*
X152944273Y-107570762D01*
X152730158Y-107644953D01*
X152508413Y-107716498D01*
X152273820Y-107787051D01*
X152021164Y-107858263D01*
X151745229Y-107931789D01*
X151440797Y-108009282D01*
X151102652Y-108092393D01*
X150918333Y-108136807D01*
X150542572Y-108225272D01*
X150201384Y-108301987D01*
X149888958Y-108367892D01*
X149599480Y-108423932D01*
X149327138Y-108471047D01*
X149066121Y-108510180D01*
X148810616Y-108542273D01*
X148554811Y-108568269D01*
X148292894Y-108589110D01*
X148029083Y-108605207D01*
X147876826Y-108611889D01*
X147687763Y-108617864D01*
X147467419Y-108623095D01*
X147221318Y-108627543D01*
X146954982Y-108631168D01*
X146673935Y-108633933D01*
X146383699Y-108635799D01*
X146089800Y-108636727D01*
X145797760Y-108636679D01*
X145513101Y-108635616D01*
X145241349Y-108633499D01*
X144988026Y-108630290D01*
X144832917Y-108627541D01*
X144493069Y-108619505D01*
X144187013Y-108609268D01*
X143907507Y-108595985D01*
X143647313Y-108578806D01*
X143399190Y-108556885D01*
X143155899Y-108529374D01*
X142910199Y-108495425D01*
X142654850Y-108454190D01*
X142382614Y-108404823D01*
X142086249Y-108346475D01*
X141758516Y-108278299D01*
X141647333Y-108254590D01*
X140968455Y-108101974D01*
X140324989Y-107942279D01*
X139710328Y-107773568D01*
X139117865Y-107593905D01*
X138540992Y-107401355D01*
X137973102Y-107193982D01*
X137801918Y-107127973D01*
X137579333Y-107040256D01*
X137372953Y-106956931D01*
X137176872Y-106875309D01*
X136985181Y-106792705D01*
X136791973Y-106706433D01*
X136591340Y-106613806D01*
X136377374Y-106512138D01*
X136144169Y-106398743D01*
X135885815Y-106270934D01*
X135596405Y-106126025D01*
X135577022Y-106116274D01*
X135385729Y-106020469D01*
X135203901Y-105930266D01*
X135035407Y-105847527D01*
X134884120Y-105774113D01*
X134753912Y-105711885D01*
X134648655Y-105662704D01*
X134572220Y-105628433D01*
X134528479Y-105610931D01*
X134522291Y-105609225D01*
X134434045Y-105609284D01*
X134390769Y-105624286D01*
X134355307Y-105650022D01*
X134296625Y-105700830D01*
X134220550Y-105770989D01*
X134132911Y-105854775D01*
X134039535Y-105946466D01*
X133946249Y-106040340D01*
X133858883Y-106130675D01*
X133783263Y-106211747D01*
X133725375Y-106277646D01*
X133676921Y-106332976D01*
X133639359Y-106370848D01*
X133620069Y-106383893D01*
X133619364Y-106383480D01*
X133604950Y-106365955D01*
X133565593Y-106317965D01*
X133503169Y-106241801D01*
X133419553Y-106139753D01*
X133316622Y-106014111D01*
X133196252Y-105867164D01*
X133060318Y-105701203D01*
X132910696Y-105518518D01*
X132749262Y-105321398D01*
X132577892Y-105112135D01*
X132398462Y-104893017D01*
X132358621Y-104844362D01*
X131106834Y-103315642D01*
X131159033Y-103238723D01*
X131192421Y-103178538D01*
X131196234Y-103136411D01*
X131191897Y-103125677D01*
X131160091Y-103074361D01*
X131108030Y-103001880D01*
X131034700Y-102907015D01*
X130939087Y-102788547D01*
X130820178Y-102645257D01*
X130676958Y-102475927D01*
X130508414Y-102279339D01*
X130313531Y-102054273D01*
X130091295Y-101799511D01*
X130034315Y-101734429D01*
X129708682Y-101360633D01*
X129410144Y-101013103D01*
X129135985Y-100688050D01*
X128883491Y-100381683D01*
X128649946Y-100090210D01*
X128432636Y-99809840D01*
X128228846Y-99536784D01*
X128035859Y-99267249D01*
X127850962Y-98997446D01*
X127671439Y-98723583D01*
X127494575Y-98441869D01*
X127317656Y-98148513D01*
X127137965Y-97839725D01*
X126952789Y-97511714D01*
X126762081Y-97165583D01*
X126590555Y-96847677D01*
X126438789Y-96558529D01*
X126303559Y-96291348D01*
X126181643Y-96039339D01*
X126069818Y-95795710D01*
X125964861Y-95553668D01*
X125863549Y-95306420D01*
X125786155Y-95108634D01*
X125671255Y-94806904D01*
X125569326Y-94532702D01*
X125477301Y-94276843D01*
X125392111Y-94030144D01*
X125310690Y-93783421D01*
X125229970Y-93527493D01*
X125146883Y-93253174D01*
X125058363Y-92951281D01*
X125013268Y-92794667D01*
X124906894Y-92418504D01*
X124813619Y-92077622D01*
X124732353Y-91767414D01*
X124662003Y-91483278D01*
X124601478Y-91220609D01*
X124549686Y-90974802D01*
X124505538Y-90741253D01*
X124467940Y-90515358D01*
X124458870Y-90455750D01*
X124437387Y-90319618D01*
X124412049Y-90171148D01*
X124386098Y-90028751D01*
X124363857Y-89916000D01*
X124317048Y-89673776D01*
X124276237Y-89422740D01*
X124241027Y-89158420D01*
X124211021Y-88876341D01*
X124185821Y-88572031D01*
X124165031Y-88241015D01*
X124148255Y-87878820D01*
X124135095Y-87480973D01*
X124130054Y-87280750D01*
X124128867Y-86456858D01*
X124163425Y-85631026D01*
X124166227Y-85598000D01*
X126992437Y-85598000D01*
X127001316Y-86312081D01*
X127028045Y-86989096D01*
X127072763Y-87630431D01*
X127135610Y-88237470D01*
X127216724Y-88811597D01*
X127316245Y-89354198D01*
X127412407Y-89779506D01*
X127514416Y-90157541D01*
X127623781Y-90494447D01*
X127740845Y-90790841D01*
X127865946Y-91047341D01*
X127999425Y-91264566D01*
X128141623Y-91443133D01*
X128292881Y-91583661D01*
X128453537Y-91686768D01*
X128466343Y-91693191D01*
X128648218Y-91762969D01*
X128827104Y-91791079D01*
X129006021Y-91777755D01*
X129129763Y-91744973D01*
X129301577Y-91664493D01*
X129464609Y-91542862D01*
X129618737Y-91380371D01*
X129763841Y-91177306D01*
X129899798Y-90933955D01*
X130026487Y-90650608D01*
X130143786Y-90327551D01*
X130251573Y-89965075D01*
X130349728Y-89563465D01*
X130438128Y-89123012D01*
X130516651Y-88644003D01*
X130555152Y-88367518D01*
X130595490Y-88041251D01*
X130629113Y-87725686D01*
X130656449Y-87413376D01*
X130677923Y-87096869D01*
X130693964Y-86768715D01*
X130704996Y-86421466D01*
X130711447Y-86047670D01*
X130711948Y-85958628D01*
X134333064Y-85958628D01*
X134333145Y-86219254D01*
X134334531Y-86481264D01*
X134337198Y-86738811D01*
X134341125Y-86986051D01*
X134346291Y-87217135D01*
X134352674Y-87426219D01*
X134360252Y-87607455D01*
X134369003Y-87754997D01*
X134372487Y-87799333D01*
X134446941Y-88541759D01*
X134540098Y-89246867D01*
X134652136Y-89915402D01*
X134783232Y-90548111D01*
X134933564Y-91145740D01*
X135103310Y-91709036D01*
X135292648Y-92238744D01*
X135501754Y-92735611D01*
X135594333Y-92932250D01*
X135793981Y-93313233D01*
X136005045Y-93659441D01*
X136226588Y-93970151D01*
X136457674Y-94244641D01*
X136697365Y-94482190D01*
X136944725Y-94682076D01*
X137198817Y-94843577D01*
X137458705Y-94965971D01*
X137723452Y-95048536D01*
X137992121Y-95090551D01*
X138263776Y-95091294D01*
X138379970Y-95078925D01*
X138638256Y-95023915D01*
X138896324Y-94932258D01*
X139031835Y-94868631D01*
X139293312Y-94711863D01*
X139546143Y-94514886D01*
X139789757Y-94279048D01*
X140023582Y-94005698D01*
X140247046Y-93696184D01*
X140459578Y-93351854D01*
X140660606Y-92974055D01*
X140849558Y-92564136D01*
X141025862Y-92123444D01*
X141188947Y-91653328D01*
X141338241Y-91155136D01*
X141473172Y-90630215D01*
X141593169Y-90079914D01*
X141697659Y-89505580D01*
X141786071Y-88908561D01*
X141857834Y-88290207D01*
X141868597Y-88180333D01*
X141916152Y-87567262D01*
X141945229Y-86927465D01*
X141955828Y-86272304D01*
X141947952Y-85613140D01*
X141921601Y-84961334D01*
X141876776Y-84328248D01*
X141868196Y-84232750D01*
X141802232Y-83622553D01*
X141719369Y-83031685D01*
X141620226Y-82461588D01*
X141505419Y-81913700D01*
X141375565Y-81389463D01*
X141231282Y-80890317D01*
X141073187Y-80417701D01*
X140901896Y-79973058D01*
X140718029Y-79557826D01*
X140522200Y-79173446D01*
X140315029Y-78821359D01*
X140097131Y-78503004D01*
X139869125Y-78219823D01*
X139631627Y-77973256D01*
X139385255Y-77764742D01*
X139130626Y-77595722D01*
X138992729Y-77522741D01*
X138808002Y-77441279D01*
X138637297Y-77384839D01*
X138464026Y-77349201D01*
X138271602Y-77330144D01*
X138226845Y-77327837D01*
X138004081Y-77326635D01*
X137804543Y-77346360D01*
X137614807Y-77389911D01*
X137421444Y-77460185D01*
X137255250Y-77537526D01*
X137087971Y-77629727D01*
X136931237Y-77734788D01*
X136774210Y-77860661D01*
X136612545Y-78009021D01*
X136401329Y-78228601D01*
X136204368Y-78467237D01*
X136017608Y-78730668D01*
X135836994Y-79024635D01*
X135658472Y-79354875D01*
X135650196Y-79371126D01*
X135431838Y-79835847D01*
X135232634Y-80332824D01*
X135052396Y-80862840D01*
X134890939Y-81426675D01*
X134748075Y-82025109D01*
X134623616Y-82658922D01*
X134517377Y-83328895D01*
X134429170Y-84035808D01*
X134361167Y-84751333D01*
X134352971Y-84880882D01*
X134346208Y-85046892D01*
X134340858Y-85243518D01*
X134336898Y-85464914D01*
X134334308Y-85705233D01*
X134333064Y-85958628D01*
X130711948Y-85958628D01*
X130713744Y-85639879D01*
X130713761Y-85598000D01*
X130713220Y-85305119D01*
X130711395Y-85047056D01*
X130707983Y-84816306D01*
X130702681Y-84605363D01*
X130695187Y-84406723D01*
X130685198Y-84212882D01*
X130672411Y-84016335D01*
X130656522Y-83809577D01*
X130637231Y-83585103D01*
X130628791Y-83491917D01*
X130576505Y-82996014D01*
X130512879Y-82523466D01*
X130438473Y-82076574D01*
X130353845Y-81657642D01*
X130259554Y-81268973D01*
X130156158Y-80912869D01*
X130044216Y-80591634D01*
X129924286Y-80307570D01*
X129797245Y-80063525D01*
X129708920Y-79930997D01*
X129602126Y-79800318D01*
X129485680Y-79680506D01*
X129368403Y-79580577D01*
X129259113Y-79509550D01*
X129251753Y-79505775D01*
X129070289Y-79436127D01*
X128888234Y-79407904D01*
X128707947Y-79420298D01*
X128531789Y-79472505D01*
X128362119Y-79563717D01*
X128201297Y-79693128D01*
X128051683Y-79859932D01*
X127997298Y-79934342D01*
X127865291Y-80151023D01*
X127740598Y-80408004D01*
X127623644Y-80703819D01*
X127514853Y-81036999D01*
X127414649Y-81406076D01*
X127323457Y-81809583D01*
X127241701Y-82246052D01*
X127169805Y-82714014D01*
X127149296Y-82867500D01*
X127104559Y-83241141D01*
X127068052Y-83607989D01*
X127039304Y-83976259D01*
X127017841Y-84354169D01*
X127003192Y-84749932D01*
X126994885Y-85171765D01*
X126992437Y-85598000D01*
X124166227Y-85598000D01*
X124234118Y-84797860D01*
X124341338Y-83951964D01*
X124398083Y-83587167D01*
X124576169Y-82627374D01*
X124793187Y-81681433D01*
X125048514Y-80750384D01*
X125341527Y-79835269D01*
X125671605Y-78937129D01*
X126038124Y-78057005D01*
X126440462Y-77195939D01*
X126877997Y-76354971D01*
X127350105Y-75535143D01*
X127856164Y-74737496D01*
X128395551Y-73963071D01*
X128967645Y-73212909D01*
X129571821Y-72488052D01*
X130207459Y-71789541D01*
X130873935Y-71118417D01*
X131570626Y-70475721D01*
X132296910Y-69862494D01*
X132873750Y-69412683D01*
X133594595Y-68892151D01*
X134319046Y-68413403D01*
X135047795Y-67975989D01*
X135339667Y-67813035D01*
X135631151Y-67654894D01*
X135909735Y-67505994D01*
X136172741Y-67367673D01*
X136417488Y-67241273D01*
X136641297Y-67128133D01*
X136841487Y-67029594D01*
X137015380Y-66946994D01*
X137160295Y-66881675D01*
X137273554Y-66834977D01*
X137344578Y-66810444D01*
X137408812Y-66789160D01*
X137500998Y-66755107D01*
X137610290Y-66712450D01*
X137725841Y-66665357D01*
X137763250Y-66649656D01*
X138158750Y-66491156D01*
X138590666Y-66334128D01*
X139053084Y-66180010D01*
X139540086Y-66030234D01*
X140045756Y-65886238D01*
X140564178Y-65749455D01*
X141089435Y-65621321D01*
X141615612Y-65503271D01*
X142136791Y-65396739D01*
X142647058Y-65303161D01*
X143140494Y-65223972D01*
X143611184Y-65160607D01*
X144053212Y-65114500D01*
X144113250Y-65109441D01*
X144204571Y-65102984D01*
X144329320Y-65095603D01*
X144478615Y-65087748D01*
X144643572Y-65079865D01*
X144815309Y-65072404D01*
X144959917Y-65066730D01*
X145286467Y-65054263D01*
X145573452Y-65042498D01*
X145823630Y-65031241D01*
X146039762Y-65020299D01*
X146224605Y-65009481D01*
X146380919Y-64998591D01*
X146511462Y-64987439D01*
X146618993Y-64975830D01*
X146706271Y-64963571D01*
X146776055Y-64950470D01*
X146831104Y-64936334D01*
X146833167Y-64935705D01*
X146879461Y-64918331D01*
X146922475Y-64893991D01*
X146963625Y-64859757D01*
X147004325Y-64812703D01*
X147045990Y-64749902D01*
X147090035Y-64668428D01*
X147137876Y-64565352D01*
X147190927Y-64437748D01*
X147250604Y-64282689D01*
X147318321Y-64097248D01*
X147395495Y-63878498D01*
X147483539Y-63623512D01*
X147522163Y-63510583D01*
X147622407Y-63219661D01*
X147710906Y-62968734D01*
X147787895Y-62757190D01*
X147853608Y-62584423D01*
X147908279Y-62449823D01*
X147952143Y-62352780D01*
X147985436Y-62292687D01*
X147991719Y-62284516D01*
X153184898Y-62284516D01*
X153197369Y-62363166D01*
X153220208Y-62405104D01*
X153276451Y-62444024D01*
X153370641Y-62494122D01*
X153500236Y-62554220D01*
X153662694Y-62623142D01*
X153855473Y-62699709D01*
X153860402Y-62701612D01*
X153978520Y-62747293D01*
X154090258Y-62790706D01*
X154186359Y-62828241D01*
X154257572Y-62856288D01*
X154283833Y-62866790D01*
X154400903Y-62900148D01*
X154512450Y-62906165D01*
X154608329Y-62885194D01*
X154661913Y-62853625D01*
X154700487Y-62805318D01*
X154745646Y-62723406D01*
X154794719Y-62615593D01*
X154845034Y-62489584D01*
X154893920Y-62353081D01*
X154938704Y-62213790D01*
X154976714Y-62079413D01*
X155005278Y-61957656D01*
X155021726Y-61856221D01*
X155024667Y-61807705D01*
X155017355Y-61726073D01*
X154992082Y-61662779D01*
X154943844Y-61614194D01*
X154867633Y-61576688D01*
X154758443Y-61546632D01*
X154633083Y-61523775D01*
X154464178Y-61501651D01*
X154285088Y-61486174D01*
X154103006Y-61477277D01*
X153925125Y-61474892D01*
X153758639Y-61478951D01*
X153610742Y-61489387D01*
X153488626Y-61506133D01*
X153399485Y-61529119D01*
X153383896Y-61535513D01*
X153343100Y-61564929D01*
X153307955Y-61616376D01*
X153276048Y-61695369D01*
X153244970Y-61807428D01*
X153223796Y-61901917D01*
X153198155Y-62047750D01*
X153185175Y-62177330D01*
X153184898Y-62284516D01*
X147991719Y-62284516D01*
X147997360Y-62277180D01*
X148013161Y-62261051D01*
X148030415Y-62246848D01*
X148051813Y-62234423D01*
X148080047Y-62223627D01*
X148117806Y-62214308D01*
X148167781Y-62206318D01*
X148232664Y-62199508D01*
X148315145Y-62193728D01*
X148417915Y-62188827D01*
X148543665Y-62184658D01*
X148695085Y-62181069D01*
X148874867Y-62177913D01*
X149085701Y-62175038D01*
X149330277Y-62172296D01*
X149611288Y-62169537D01*
X149931423Y-62166611D01*
X149997583Y-62166018D01*
X150271391Y-62163397D01*
X150534086Y-62160552D01*
X150782439Y-62157539D01*
X151013220Y-62154411D01*
X151223202Y-62151222D01*
X151409153Y-62148028D01*
X151567845Y-62144882D01*
X151696048Y-62141839D01*
X151790534Y-62138953D01*
X151848072Y-62136277D01*
X151864318Y-62134636D01*
X151908165Y-62114892D01*
X151954349Y-62073329D01*
X152004422Y-62007165D01*
X152059941Y-61913612D01*
X152122460Y-61789888D01*
X152193535Y-61633206D01*
X152274719Y-61440783D01*
X152335220Y-61291286D01*
X152555386Y-60756129D01*
X152773443Y-60258995D01*
X152799775Y-60203047D01*
X154046972Y-60203047D01*
X154050402Y-60312470D01*
X154066470Y-60389147D01*
X154101100Y-60442133D01*
X154160219Y-60480480D01*
X154249754Y-60513241D01*
X154250090Y-60513345D01*
X154317467Y-60530907D01*
X154416967Y-60552721D01*
X154538809Y-60577010D01*
X154673215Y-60601999D01*
X154810403Y-60625910D01*
X154940596Y-60646967D01*
X155054013Y-60663393D01*
X155119917Y-60671368D01*
X155223126Y-60677934D01*
X155337162Y-60678287D01*
X155450954Y-60673139D01*
X155553432Y-60663204D01*
X155633524Y-60649197D01*
X155673813Y-60635656D01*
X155738405Y-60580349D01*
X155796235Y-60487236D01*
X155845824Y-60360510D01*
X155885689Y-60204369D01*
X155914350Y-60023007D01*
X155923737Y-59927677D01*
X155927963Y-59790396D01*
X155915056Y-59689001D01*
X155884352Y-59620376D01*
X155851594Y-59589970D01*
X155799904Y-59568550D01*
X155712904Y-59544674D01*
X155597468Y-59519449D01*
X155460471Y-59493981D01*
X155308786Y-59469374D01*
X155149286Y-59446734D01*
X154988847Y-59427167D01*
X154834342Y-59411779D01*
X154692644Y-59401674D01*
X154675348Y-59400797D01*
X154400112Y-59387610D01*
X154330268Y-59446380D01*
X154258674Y-59527045D01*
X154191815Y-59639982D01*
X154133452Y-59775143D01*
X154087348Y-59922478D01*
X154057266Y-60071938D01*
X154046972Y-60203047D01*
X152799775Y-60203047D01*
X152991461Y-59795783D01*
X153211514Y-59362388D01*
X153435672Y-58954709D01*
X153666007Y-58568644D01*
X153870695Y-58250667D01*
X154016336Y-58045468D01*
X154193638Y-57818729D01*
X154399840Y-57573551D01*
X154632180Y-57313035D01*
X154887897Y-57040282D01*
X155164229Y-56758394D01*
X155441611Y-56486608D01*
X155636251Y-56299466D01*
X156775084Y-56696229D01*
D12*
X160401000Y-115316000D03*
D13*
X160401000Y-117856000D03*
X157861000Y-115316000D03*
X157861000Y-117856000D03*
M02*
